<svg width="119" height="119" viewBox="0 0 119 119" fill="none" xmlns="http://www.w3.org/2000/svg">
<g clip-path="url(#clip0)">
<path d="M70.0334 99.9497H41.8067C35.159 99.9497 29.77 105.339 29.77 111.986V112.638C29.77 116.152 32.6181 119 36.1316 119H75.7088C79.2221 119 82.0704 116.152 82.0704 112.638V111.986C82.0702 105.339 76.6812 99.9497 70.0334 99.9497Z" fill="#827F98"/>
<path d="M41.1584 99.9674C34.8123 100.305 29.7705 105.556 29.7705 111.986V112.638C29.7705 116.152 32.6186 119 36.1321 119H51.4996C45.6219 114.592 41.6772 107.749 41.1584 99.9674Z" fill="#77718C"/>
<path d="M98.5912 13.3365L55.9212 47.5073L21.748 90.1797C31.4131 97.9501 43.3419 102.174 55.9212 102.174C70.5201 102.174 84.246 96.4898 94.5703 86.1686C104.898 75.8441 110.586 62.1141 110.586 47.5073C110.586 34.9333 106.362 23.0045 98.5912 13.3365Z" fill="#E8A882"/>
<path d="M10.1743 93.2546C7.82732 90.9076 7.82732 87.1025 10.1743 84.7553L93.1695 1.7601C95.5167 -0.586862 99.3216 -0.586862 101.669 1.7601C104.016 4.10705 104.016 7.91218 101.669 10.2594L18.6733 93.2546C16.3268 95.6011 12.5212 95.6018 10.1743 93.2546Z" fill="#F1C6AD"/>
<path d="M22.5448 19.0697C16.0136 26.7269 12.0728 36.6568 12.0728 47.5074C12.0728 71.7245 31.7044 91.3561 55.9215 91.3561C56.7202 91.3561 57.5154 91.3353 58.3046 91.2915L68.0561 81.5399V61.376L51.5693 54.0219V24.7324L22.5448 19.0697Z" fill="#81DDFD"/>
<path d="M95.4262 66.5531C98.2087 60.7942 99.7684 54.3313 99.7684 47.5073C99.7684 36.771 95.9075 26.9342 89.4999 19.3113L51.5693 24.7324V54.0219L68.0562 61.376L95.4262 66.5531Z" fill="#81DDFD"/>
<path d="M25.8906 49.0172C25.8906 38.9504 28.2656 29.4395 32.4799 21.0082L22.5448 19.0697C16.0136 26.7269 12.0728 36.6568 12.0728 47.5074C12.0728 65.9825 23.4991 81.787 39.67 88.2439C31.0505 77.5006 25.8906 63.8625 25.8906 49.0172Z" fill="#5BD6FD"/>
<path d="M95.4261 66.5531C88.6648 80.557 74.676 90.4146 58.3043 91.2914L57.165 88.5259C56.4345 86.7529 57.0293 84.7155 58.582 83.6077C59.6681 82.8374 60.311 81.5878 60.311 80.2565C60.221 79.4757 60.7044 77.65 59.1983 76.0439L57.0511 73.7539C55.733 72.3484 55.5675 70.2143 56.6536 68.6225L57.2299 67.778C58.7724 65.5146 57.715 62.4051 55.115 61.5512L48.8805 59.5048C48.3081 59.3166 47.8268 58.9265 47.5244 58.4055L43.2488 51.0508C42.3188 49.4475 40.0135 49.4171 39.0397 50.9957L38.0163 52.6543C37.4745 53.5308 36.4641 53.9537 35.5116 53.7839C34.0946 53.5404 33.1912 52.1368 33.5525 50.7467L35.7664 42.2718C35.9414 41.5966 36.3978 41.0279 37.0179 40.7085L41.5294 38.3862C44.2465 36.9934 42.467 32.6177 38.9636 32.0187C36.6604 31.5379 35.1852 31.6413 33.3397 30.52L26.7932 26.5468C25.1746 25.5634 23.9823 24.0097 23.4536 22.1915L22.5444 19.0704V19.0685C30.5876 9.63875 42.5546 3.65906 55.9212 3.65906C69.4 3.65906 81.4583 9.74147 89.4995 19.312L87.7174 22.4807C87.04 23.691 85.7801 24.5327 84.3301 24.6488C82.8808 24.7649 81.5895 25.6092 80.9028 26.8892L79.271 29.9303C78.4742 31.4158 76.8783 32.2945 75.1951 32.1745C74.1761 32.1065 73.984 32.0737 73.4987 32.0737C69.7594 32.0737 66.5277 34.6812 65.7407 38.3386C65.1148 40.7272 65.196 42.5531 63.6485 44.6092L59.9284 49.5732C59.0631 50.7297 59.3102 52.371 60.48 53.2191L63.7038 55.5565C64.3295 56.0092 65.1246 56.1594 65.8738 55.9654C70.2814 54.8667 70.5627 54.6322 71.6404 54.6322C72.9643 54.6322 74.2517 55.1571 75.2047 56.1254C77.9039 58.8681 80.8587 56.712 83.6549 58.2022C88.5087 60.8188 84.3014 58.1551 95.4261 66.5531Z" fill="#36D39A"/>
<path d="M29.4474 28.1568C32.471 19.5794 37.3048 11.8571 43.4928 5.44861C35.2343 7.88512 27.9897 12.6844 22.5449 19.068V19.0699L23.4541 22.191C23.9827 24.0093 25.1754 25.563 26.7937 26.5463L29.4474 28.1568Z" fill="#00CD8C"/>
</g>
<defs>
<clipPath id="clip0">
<rect width="119" height="119" fill="white"/>
</clipPath>
</defs>
</svg>
