<svg width="119" height="119" viewBox="0 0 119 119" fill="none" xmlns="http://www.w3.org/2000/svg">
<path d="M45.1338 68.7183L24.202 22.6028C23.9109 21.9611 23.2713 21.5493 22.5669 21.5493C21.8625 21.5493 21.223 21.9614 20.9318 22.6028L1.52588e-05 68.7183L3.27048 70.2028L20.7711 31.6464V72.3099H24.3627V31.6464L41.8634 70.2028L45.1338 68.7183Z" fill="#FFF5DE"/>
<path d="M73.8663 68.7183L94.798 22.6028C95.0892 21.9611 95.7287 21.5493 96.4331 21.5493C97.1376 21.5493 97.7771 21.9614 98.0683 22.6028L119 68.7183L115.73 70.2028L98.2289 31.6464V72.3099H94.6374V31.6464L77.1367 70.2028L73.8663 68.7183Z" fill="#FFF5DE"/>
<path d="M63.0916 87.5142H73.8663V108.225H63.0916V87.5142Z" fill="#FFBB6E"/>
<path d="M45.1337 87.5142H66.683V108.225H45.1337V87.5142Z" fill="#FFD478"/>
<path d="M92.0977 104.634H82.683V115.408L100.024 111.817L93.3674 105.16C93.0308 104.823 92.5742 104.634 92.0977 104.634Z" fill="#FFA061"/>
<path d="M82.6832 104.634H26.9024C26.4262 104.634 25.9693 104.823 25.6327 105.16L18.9754 111.817V115.408H89.8663V111.817L82.6832 104.634Z" fill="#FFBB6E"/>
<path d="M55.9084 17.9578H66.683V87.5141H55.9084V17.9578Z" fill="#FFE7AD"/>
<path d="M52.317 17.9578H59.5001V87.5141H52.317V17.9578Z" fill="#FFF5DE"/>
<path d="M96.4331 14.3662H89.25V21.5493H96.4331C98.4166 21.5493 100.025 19.9413 100.025 17.9578C100.025 15.9743 98.4168 14.3662 96.4331 14.3662Z" fill="#FFBB6E"/>
<path d="M92.8416 17.9577C92.8416 15.9743 91.2335 14.3662 89.25 14.3662H78.3293L67.1194 3.15601C65.1694 1.20604 62.4755 0 59.5 0C56.5248 0 53.8311 1.20604 51.8811 3.15577L40.6707 14.3662H22.5669C20.5834 14.3662 18.9754 15.9743 18.9754 17.9577C18.9754 19.9412 20.5834 21.5493 22.5669 21.5493H89.25C91.2337 21.5493 92.8416 19.9412 92.8416 17.9577Z" fill="#FFD478"/>
<path d="M73.8661 83.9226H66.683V91.1057H73.8661C75.8496 91.1057 77.4577 89.4977 77.4577 87.5142C77.4577 85.5307 75.8496 83.9226 73.8661 83.9226Z" fill="#FFA061"/>
<path d="M70.2747 87.5142C70.2747 85.5307 68.6667 83.9226 66.6832 83.9226H45.1339C43.1504 83.9226 41.5423 85.5307 41.5423 87.5142C41.5423 89.4977 43.1504 91.1057 45.1339 91.1057H66.6832C68.6667 91.1057 70.2747 89.4977 70.2747 87.5142Z" fill="#FFBB6E"/>
<path d="M103.616 111.817H96.433V119H103.616C105.6 119 107.208 117.392 107.208 115.408C107.208 113.425 105.6 111.817 103.616 111.817Z" fill="#FFBB6E"/>
<path d="M100.025 115.408C100.025 113.425 98.4167 111.817 96.4332 111.817H15.3839C13.4004 111.817 11.7923 113.425 11.7923 115.408C11.7923 117.392 13.4004 119 15.3839 119H96.4332C98.4167 119 100.025 117.392 100.025 115.408Z" fill="#FFD478"/>
<path d="M37.9507 68.7183L27.1761 79.4929H34.3592C40.3099 79.4929 45.1338 74.669 45.1338 68.7183H37.9507Z" fill="#FFBB6E"/>
<path d="M37.9507 68.7183H1.52588e-05C1.52588e-05 74.669 4.82394 79.4929 10.7747 79.4929H27.1761C33.1268 79.4929 37.9507 74.669 37.9507 68.7183Z" fill="#FFD478"/>
<path d="M111.817 68.7183L101.042 79.4929H108.225C114.176 79.4929 119 74.669 119 68.7183H111.817Z" fill="#FFBB6E"/>
<path d="M111.817 68.7183H73.8663C73.8663 74.669 78.6902 79.4929 84.6409 79.4929H101.042C106.993 79.4929 111.817 74.669 111.817 68.7183Z" fill="#FFD478"/>
<path d="M59.4999 14.3662C61.4835 14.3662 63.0915 12.7582 63.0915 10.7747C63.0915 8.7911 61.4835 7.18311 59.4999 7.18311C57.5164 7.18311 55.9084 8.7911 55.9084 10.7747C55.9084 12.7582 57.5164 14.3662 59.4999 14.3662Z" fill="#FFA061"/>
</svg>
