<svg width="118" height="119" viewBox="0 0 118 119" fill="none" xmlns="http://www.w3.org/2000/svg">
<g clip-path="url(#clip0)">
<path d="M93.8008 9.5293H24.1992C10.8554 9.5293 0 20.4767 0 33.9336V73.2002C0 86.657 10.8554 97.6045 24.1992 97.6045H27.7904L36.207 108.373C36.8633 109.212 37.8635 109.701 38.9222 109.701C39.9809 109.701 40.982 109.212 41.6374 108.373L50.054 97.6045H93.8008C107.145 97.6045 118 86.657 118 73.2002V33.9336C118 20.4767 107.145 9.5293 93.8008 9.5293V9.5293Z" fill="#6787F5"/>
<path d="M93.8008 9.5293H59V97.6045H93.8008C107.145 97.6045 118 86.657 118 73.2002V33.9336C118 20.4767 107.145 9.5293 93.8008 9.5293Z" fill="#38478A"/>
<path d="M46.0381 102.743L50.0542 97.6045L46.0381 102.743Z" fill="white"/>
<path d="M118 38.1762H88.933L110.57 16.3558C106.217 12.1313 100.305 9.5293 93.8008 9.5293H88.0058L74.2668 23.3847V9.5293H43.7341V23.3847L29.9951 9.5293H24.1992C17.6948 9.5293 11.7827 12.1313 7.42992 16.3558L29.067 38.1762H0V68.9676H29.067L8.24196 89.9681L7.43442 90.7825C11.7872 95.0052 17.6975 97.6045 24.1992 97.6045H27.7904L28.7663 98.8528L43.3632 84.1313L43.1265 97.6045H74.2659V83.7972L87.9121 97.6045H93.8008C100.275 97.6045 106.162 95.0279 110.509 90.8379L109.695 90.0135L88.8952 68.9676H118V38.1762Z" fill="white"/>
<path d="M118 38.1762H88.933L110.57 16.3558C106.217 12.1313 100.305 9.5293 93.8008 9.5293H88.0058L74.2668 23.3847V9.5293H59V97.6045H74.2659V83.7972L87.9121 97.6045H93.8008C100.275 97.6045 106.162 95.0279 110.509 90.8379L109.695 90.0135L88.8952 68.9676H118V38.1762Z" fill="#C7D3ED"/>
<path d="M67.3518 45.1489V9.5293H50.6482V45.1489H0V61.9949H50.6482L50.054 97.6045H67.3518V61.9949H118V45.1489H67.3518Z" fill="#FF337A"/>
<path d="M67.3518 45.1489V9.5293H59V97.6045H67.3518V61.9949H118V45.1489H67.3518Z" fill="#D1005B"/>
<path d="M46.0379 40.4996V35.5697L20.4991 9.81445C17.8802 10.2212 15.3982 11.0537 13.125 12.2385L41.1495 40.4996H46.0379Z" fill="#FF337A"/>
<path d="M104.875 12.2385C102.602 11.0537 100.12 10.2212 97.5007 9.81445L71.9619 35.5697V40.4996H76.8504L104.875 12.2385Z" fill="#D1005B"/>
<path d="M13.1313 94.8989C15.4054 96.0828 17.8875 96.9145 20.5072 97.3212L46.038 71.5732V66.6433H41.1495L13.1313 94.8989Z" fill="#FF337A"/>
<path d="M71.9619 66.6433V71.5877L97.4053 97.3339C100.03 96.9362 102.518 96.1137 104.797 94.9361L76.8369 66.6433H71.9619Z" fill="#D1005B"/>
</g>
<defs>
<clipPath id="clip0">
<rect width="118" height="119" fill="white"/>
</clipPath>
</defs>
</svg>
