<svg width="119" height="119" viewBox="0 0 119 119" fill="none" xmlns="http://www.w3.org/2000/svg">
<g clip-path="url(#clip0)">
<path d="M59.5 59.5H0V13.6354C0 6.10371 6.10371 0 13.6354 0H59.5V59.5Z" fill="#81D4FA"/>
<path d="M59.5 119H13.6354C6.10371 119 0 112.896 0 105.365V59.5H59.5V119Z" fill="#03A9F4"/>
<path d="M59.5 0H13.6354C6.10371 0 0 6.10371 0 13.6354V59.5H59.5V0Z" fill="#70B9DA"/>
<path d="M59.5 59.5H0V105.365C0 112.896 6.10371 119 13.6354 119H59.5V59.5Z" fill="#0393D4"/>
<path d="M119 59.5H59.5V0H105.365C112.896 0 119 6.10371 119 13.6354V59.5Z" fill="#03A9F4"/>
<path d="M105.365 119H59.5V59.5H119V105.365C119 112.896 112.896 119 105.365 119Z" fill="#81D4FA"/>
<path d="M100.406 99.1665H78.0938C76.041 99.1665 74.375 97.5005 74.375 95.4478C74.375 93.395 76.041 91.729 78.0938 91.729H100.406C102.459 91.729 104.125 93.395 104.125 95.4478C104.125 97.5005 102.459 99.1665 100.406 99.1665Z" fill="#F5F5F5"/>
<path d="M100.406 84.2915H78.0938C76.041 84.2915 74.375 82.6255 74.375 80.5728C74.375 78.52 76.041 76.854 78.0938 76.854H100.406C102.459 76.854 104.125 78.52 104.125 80.5728C104.125 82.6255 102.459 84.2915 100.406 84.2915Z" fill="#F5F5F5"/>
<path d="M23.5519 99.1666C22.5999 99.1666 21.6479 98.8047 20.924 98.0758C19.4712 96.623 19.4712 94.2678 20.924 92.815L33.3198 80.4192C34.7726 78.9664 37.1278 78.9664 38.5806 80.4192C40.0334 81.872 40.0334 84.2272 38.5806 85.68L26.1848 98.0758C25.4559 98.8047 24.5039 99.1666 23.5519 99.1666Z" fill="#F5F5F5"/>
<path d="M35.9477 99.1666C34.9957 99.1666 34.0437 98.8047 33.3198 98.0758L20.924 85.68C19.4712 84.2272 19.4712 81.872 20.924 80.4192C22.3768 78.9664 24.732 78.9664 26.1848 80.4192L38.5806 92.815C40.0334 94.2678 40.0334 96.623 38.5806 98.0758C37.8517 98.8047 36.8997 99.1666 35.9477 99.1666Z" fill="#F5F5F5"/>
<path d="M100.406 34.7083H78.0938C76.041 34.7083 74.375 33.0423 74.375 30.9895C74.375 28.9368 76.041 27.2708 78.0938 27.2708H100.406C102.459 27.2708 104.125 28.9368 104.125 30.9895C104.125 33.0423 102.459 34.7083 100.406 34.7083Z" fill="#F5F5F5"/>
<path d="M104.125 30.9895H74.375C74.375 33.0423 76.041 34.7083 78.0938 34.7083H100.406C102.459 34.7083 104.125 33.0423 104.125 30.9895Z" fill="#D5D5D5"/>
<path d="M104.125 80.573H74.375C74.375 82.6257 76.041 84.2917 78.0938 84.2917H100.406C102.459 84.2917 104.125 82.6257 104.125 80.573Z" fill="#D5D5D5"/>
<path d="M104.125 95.448H74.375C74.375 97.5007 76.041 99.1667 78.0938 99.1667H100.406C102.459 99.1667 104.125 97.5007 104.125 95.448Z" fill="#D5D5D5"/>
<path d="M24.4892 89.25L20.9192 92.82C19.4664 94.2728 19.4664 96.628 20.9192 98.0808C21.6481 98.8047 22.6001 99.1667 23.5521 99.1667C24.5041 99.1667 25.4561 98.8047 26.18 98.0758L29.75 94.5108L24.4892 89.25Z" fill="#D5D5D5"/>
<path d="M35.0107 89.25H24.4891L29.7499 94.5108L33.3199 98.0808C34.0438 98.8047 34.9958 99.1667 35.9478 99.1667C36.8998 99.1667 37.8518 98.8047 38.5758 98.0758C40.0286 96.623 40.0286 94.2678 38.5758 92.815L35.0107 89.25Z" fill="#D5D5D5"/>
<path d="M29.75 44.6249C27.6973 44.6249 26.0312 42.9589 26.0312 40.9062V23.552C26.0312 21.4993 27.6973 19.8333 29.75 19.8333C31.8028 19.8333 33.4688 21.4993 33.4688 23.552V40.9062C33.4688 42.9589 31.8028 44.6249 29.75 44.6249Z" fill="#F5F5F5"/>
<path d="M38.4271 35.948H21.0729C19.0202 35.948 17.3542 34.282 17.3542 32.2292C17.3542 30.1765 19.0202 28.5105 21.0729 28.5105H38.4271C40.4799 28.5105 42.1459 30.1765 42.1459 32.2292C42.1459 34.282 40.4799 35.948 38.4271 35.948Z" fill="#F5F5F5"/>
<path d="M33.4688 35.948H26.0312V40.9063C26.0312 42.9591 27.6973 44.6251 29.75 44.6251C31.8028 44.6251 33.4688 42.9591 33.4688 40.9063V35.948Z" fill="#D5D5D5"/>
<path d="M42.1459 32.2292H17.3542C17.3542 34.282 19.0202 35.948 21.0729 35.948H26.0313H33.4688H38.4271C40.4799 35.948 42.1459 34.282 42.1459 32.2292Z" fill="#D5D5D5"/>
</g>
<defs>
<clipPath id="clip0">
<rect width="119" height="119" fill="white"/>
</clipPath>
</defs>
</svg>
