<svg width="20" height="19" viewBox="0 0 20 19" fill="none" xmlns="http://www.w3.org/2000/svg">
<circle cx="10" cy="9.5" r="9.5" fill="#FF5773"/>
<path d="M8.6923 6.13512L8.70251 6.13337L8.71237 6.13023C8.91341 6.06637 9.3169 6.02952 9.9439 6.02952H12.8665V7.01231H9.73939C9.1072 7.01231 8.60115 7.13074 8.24264 7.38918C7.7628 7.65103 7.41139 8.14659 7.17326 8.84298L7.1708 8.85018L7.16908 8.8576C7.11424 9.09382 7.08539 9.30415 7.08539 9.48673C7.08539 10.1046 7.31033 10.6782 7.74864 11.2042L7.75321 11.2097L7.75827 11.2147C8.04033 11.4944 8.3139 11.6908 8.57931 11.7906C8.87232 11.9249 9.25573 11.9868 9.71943 11.9868H12.8665V12.9696H9.87905C9.07797 12.9696 8.50892 12.8686 8.15243 12.6837L8.15255 12.6835L8.14438 12.6798C7.31187 12.3091 6.7191 11.7014 6.36124 10.8503C6.18633 10.4281 6.09847 9.9775 6.09847 9.49699C6.09847 8.46551 6.49344 7.58605 7.29257 6.85092C7.82283 6.43673 8.28881 6.2043 8.6923 6.13512ZM7.86388 11.1082C7.86359 11.1078 7.8633 11.1075 7.863 11.1071L9.71943 11.8368C9.26386 11.8368 8.90306 11.7752 8.63703 11.6521C8.3976 11.5631 8.13989 11.3818 7.86388 11.1082ZM7.59957 8.97313C7.81179 8.36555 8.10804 7.97902 8.47378 7.7818L8.48298 7.77684L8.49141 7.77065C8.75736 7.57523 9.16586 7.46625 9.73939 7.46625H13.1662H13.3162V7.31625V5.72559V5.57559H13.1662H9.9439C9.31442 5.57559 8.86054 5.60983 8.60175 5.68729C8.11219 5.77702 7.57909 6.05176 7.00421 6.49443L7.00385 6.49396L6.99405 6.50299C6.10021 7.32699 5.64883 8.32758 5.64883 9.49699C5.64883 10.0357 5.74711 10.546 5.94438 11.0266L5.94437 11.0266L5.94517 11.0285C6.35159 11.9816 7.02411 12.6727 7.95811 13.0956C8.393 13.3198 9.03973 13.4235 9.87905 13.4235H13.1662H13.3162V13.2735V11.6829V11.5329H13.1662H9.71943C9.29415 11.5329 8.97853 11.4756 8.76098 11.3728L8.76126 11.3722L8.74808 11.3674C8.5513 11.296 8.32995 11.1459 8.08449 10.9042C7.71408 10.4532 7.53503 9.98173 7.53503 9.48673C7.53503 9.34891 7.55569 9.17832 7.59957 8.97313ZM12.8665 9.01586V9.98326H9.56018V9.01586H12.8665ZM9.26053 8.56192H9.11053V8.71192V10.2872V10.4372H9.26053H13.1662H13.3162V10.2872V8.71192V8.56192H13.1662H9.26053Z" fill="white" stroke="white" stroke-width="0.3"/>
</svg>
