<svg width="345" height="307" viewBox="0 0 345 307" fill="none" xmlns="http://www.w3.org/2000/svg">
<g clip-path="url(#clip0)" filter="url(#filter0_i)">
<path d="M42.97 59.89L85.42 119.52L1 168.25L42.97 59.89Z" stroke="white" stroke-width="2" stroke-miterlimit="10" stroke-linecap="round" stroke-linejoin="round" stroke-dasharray="3 3"/>
<path d="M243.84 143.38L180.18 180.37L116.1 143.38L179.76 106.38L243.84 143.38Z" stroke="white" stroke-width="2" stroke-miterlimit="10" stroke-linecap="round" stroke-linejoin="round" stroke-dasharray="3 3"/>
<path d="M333.11 213.38L318.42 204.84L318.34 177.06L333.03 185.59L333.11 213.38Z" fill="#898530"/>
<path d="M327.47 188.81L312.78 180.27L312.75 170.8L327.44 179.34L327.47 188.81Z" fill="#897030"/>
<path d="M327.44 179.34L312.75 170.8L329.25 161.28L343.93 169.82L327.44 179.34Z" fill="#C2B6B9"/>
<path d="M343.93 169.82L344.04 207.07L333.11 213.38L333.03 185.59L327.47 188.81L327.44 179.34L343.93 169.82Z" fill="#FFEEF2"/>
<path d="M53.5 182.66L53.48 190.46L43.21 196.43L43.23 188.63L53.5 182.66Z" fill="#F9F8FC"/>
<path d="M30.59 188.63L30.56 196.43L20.23 190.46L20.25 182.66L30.59 188.63Z" fill="#F9F8FC"/>
<path d="M47.27 198.26L47.24 206.06L36.91 200.09L36.93 192.29L47.27 198.26Z" fill="#C2C0C9"/>
<path d="M53.57 194.6L53.55 202.4L47.24 206.06L47.27 198.26L53.57 194.6Z" fill="#F9F8FC"/>
<path d="M26.65 198.27L26.62 206.07L20.28 202.41L20.3 194.61L26.65 198.27Z" fill="#C2C0C9"/>
<path d="M36.93 192.29L36.91 200.09L26.62 206.07L26.65 198.27L36.93 192.29Z" fill="#F9F8FC"/>
<path d="M53.5 182.66L43.23 188.63L53.57 194.6L47.27 198.26L36.93 192.29L26.65 198.27L20.3 194.61L30.59 188.63L20.25 182.66L26.55 179L36.89 184.97L47.16 179L53.5 182.66Z" fill="#F9F8FC"/>
<path d="M155.73 154.49C154.6 155.15 153.43 155.76 152.24 156.36V176.71C153.41 176.12 154.56 175.51 155.67 174.87C168.29 167.54 174.6 157.94 174.63 148.33L174.69 127.95C174.66 137.56 168.35 147.16 155.73 154.49Z" fill="#C2C0C9"/>
<path d="M63.45 154.49C50.59 147.06 44.16 137.31 44.19 127.58L44.13 147.96C44.1 157.69 50.53 167.44 63.39 174.87C75.53 181.88 91.22 185.55 107.07 185.9V165.52C91.25 165.17 75.58 161.49 63.45 154.49Z" fill="#C2C0C9"/>
<path d="M107.08 165.52V185.9C123.15 186.25 139.38 183.19 152.24 176.71V156.36C139.37 162.83 123.14 165.89 107.08 165.52Z" fill="#C2C0C9"/>
<path d="M154.97 100.8C154.89 100.75 154.8 100.71 154.72 100.66H154.71C154.7 100.65 154.69 100.65 154.68 100.64C154.78 100.7 154.88 100.75 154.98 100.81C154.98 100.8 154.98 100.8 154.97 100.8Z" fill="#FF597F"/>
<path d="M155.4 101.04C180.8 115.7 180.93 139.83 155.7 154.49C155.58 154.56 155.46 154.63 155.34 154.7C155.13 154.82 155.06 154.86 155 154.9C154.74 155.05 154.47 155.2 154.2 155.34C153.92 155.49 153.64 155.64 153.36 155.79C153.17 155.89 153.11 155.92 153.06 155.95C152.79 156.09 152.52 156.23 152.25 156.36L109.42 127.77L149.25 97.91C150.39 98.42 151.51 98.95 152.59 99.51C152.78 99.61 152.85 99.64 152.91 99.68C153.12 99.79 153.18 99.82 153.24 99.85C153.31 99.89 153.39 99.93 153.46 99.97C153.69 100.09 153.81 100.16 153.92 100.22C154.08 100.31 154.17 100.36 154.27 100.41C154.46 100.51 154.54 100.56 154.62 100.61C154.81 100.72 154.89 100.76 154.98 100.81C155.17 100.91 155.29 100.98 155.4 101.04Z" fill="#FFA600"/>
<path d="M153.45 99.96C153.46 99.97 153.48 99.97 153.49 99.98C153.45 99.96 153.4 99.93 153.36 99.91C153.39 99.93 153.42 99.95 153.45 99.96Z" fill="#FF597F"/>
<path d="M154.72 100.66L154.71 100.65H154.72V100.66Z" fill="#FF597F"/>
<path d="M107.08 165.53L109.41 127.76L152.24 156.35C139.37 162.83 123.14 165.89 107.08 165.53Z" fill="#B3D9E4"/>
<path d="M154.61 100.59C154.53 100.54 154.44 100.5 154.36 100.45C154.33 100.43 154.29 100.41 154.26 100.39C154.17 100.34 154.08 100.29 153.98 100.24C153.96 100.23 153.93 100.21 153.91 100.2C153.8 100.14 153.68 100.08 153.57 100.02C153.54 100.01 153.52 99.99 153.49 99.98C153.88 100.19 154.26 100.4 154.65 100.61C154.64 100.61 154.62 100.6 154.61 100.59Z" fill="#FF597F"/>
<path d="M153.23 99.85C153.27 99.87 153.32 99.9 153.36 99.92C153.06 99.76 152.76 99.6 152.45 99.45C152.49 99.47 152.54 99.49 152.58 99.51C152.62 99.53 152.66 99.55 152.7 99.57C152.77 99.61 152.84 99.64 152.9 99.68C152.95 99.71 153 99.73 153.05 99.76C153.12 99.78 153.17 99.81 153.23 99.85Z" fill="#FF597F"/>
<path d="M155.4 101.04C155.29 100.97 155.17 100.91 155.06 100.84C155.17 100.91 155.28 100.97 155.4 101.04Z" fill="#FF597F"/>
<path d="M107.08 165.53C105.35 165.49 103.62 165.41 101.91 165.3C87.67 164.29 74.51 160.68 64.25 154.97C63.61 154.61 63.51 154.55 63.42 154.5C38.03 139.84 37.89 115.71 63.12 101.05C86.4 87.52 123.67 86.48 149.24 97.92L109.41 127.78L107.08 165.53Z" fill="#45C6CE"/>
<path d="M152.24 156.36C152.51 156.22 152.78 156.09 153.05 155.95C152.79 156.08 152.52 156.22 152.24 156.36Z" fill="#FF597F"/>
<path d="M101.7 165.28C88.08 164.32 74.88 160.88 64.26 154.96C74.51 160.68 87.67 164.29 101.7 165.28Z" fill="#FF597F"/>
<path d="M149.25 97.91C124.88 87 89.88 87.44 66.5 99.22C90.75 86.97 127 86.9 151.54 98.99C150.79 98.62 150.02 98.26 149.25 97.91Z" fill="#FF597F"/>
<path d="M151.88 99.15C152.07 99.25 152.27 99.34 152.46 99.44C152.26 99.35 152.07 99.25 151.88 99.15Z" fill="#FF597F"/>
<path d="M66.43 99.25C66.45 99.24 66.47 99.23 66.49 99.22C66.47 99.23 66.45 99.24 66.43 99.25Z" fill="#FF597F"/>
<path d="M65.38 99.79C65.73 99.61 66.08 99.43 66.43 99.25C66.08 99.43 65.73 99.61 65.38 99.79Z" fill="#FF597F"/>
<path d="M64.96 100.02C65.1 99.94 65.24 99.87 65.39 99.79C65.24 99.87 65.1 99.94 64.96 100.02Z" fill="#FF597F"/>
<path d="M64.26 100.4C64.49 100.27 64.73 100.15 64.96 100.02C64.72 100.15 64.49 100.27 64.26 100.4Z" fill="#FF597F"/>
<path d="M242.57 15.58L192.7 146.37H292.43L242.57 15.58Z" fill="#DEDADB"/>
<path d="M292.427 146.506C292.472 130.556 270.186 117.562 242.649 117.484C215.112 117.406 192.752 130.273 192.707 146.223C192.662 162.173 214.948 175.166 242.485 175.244C270.022 175.322 292.382 162.456 292.427 146.506Z" fill="#FFA600"/>
<path d="M246.21 144.25C248.23 145.42 248.24 147.31 246.23 148.48C244.22 149.65 240.95 149.65 238.92 148.48C236.9 147.31 236.89 145.42 238.9 144.25C240.91 143.08 244.18 143.08 246.21 144.25Z" fill="#221C36"/>
<path d="M242.57 146.37V144.87" stroke="#221C36" stroke-width="2" stroke-linecap="round" stroke-linejoin="round"/>
<path d="M242.57 141.94V20.34" stroke="white" stroke-width="2" stroke-linecap="round" stroke-linejoin="round" stroke-dasharray="2.93 2.93"/>
<path d="M242.57 18.88V17.38" stroke="#221C36" stroke-width="2" stroke-linecap="round" stroke-linejoin="round"/>
<path d="M240.037 239.738C240.12 210.61 199.422 186.882 149.137 186.739C98.8511 186.597 58.0197 210.094 57.9372 239.221C57.8546 268.349 98.5521 292.077 148.838 292.219C199.123 292.362 239.955 268.865 240.037 239.738Z" stroke="white" stroke-width="2" stroke-miterlimit="10" stroke-linecap="round" stroke-linejoin="round" stroke-dasharray="3 3"/>
<path d="M334.76 220.7C333.16 219.78 331.72 219.69 330.67 220.3L212.56 288.94C213.6 288.33 215.05 288.42 216.65 289.34C219.83 291.17 222.39 295.61 222.38 299.26C222.37 301.07 221.74 302.35 220.7 302.95L338.81 234.31C339.84 233.71 340.48 232.44 340.49 230.62C340.5 226.97 337.94 222.53 334.76 220.7Z" fill="#D8D3E7"/>
<path d="M222.38 299.25C222.39 295.61 219.83 291.17 216.65 289.33C214.82 288.28 213.2 288.32 212.14 289.24C211.86 289.48 211.63 289.78 211.44 290.14L199 306.12L219.09 303.32C219.49 303.33 219.86 303.28 220.2 303.17H220.22C221.53 302.71 222.38 301.34 222.38 299.25Z" fill="white"/>
<path d="M206.27 303.99C206.27 302.86 205.48 301.48 204.49 300.91C203.92 300.58 203.42 300.6 203.09 300.88C203 300.95 202.93 301.05 202.87 301.16L199.01 306.12L205.25 305.25C205.37 305.25 205.49 305.24 205.59 305.2H205.6C206 305.06 206.26 304.64 206.27 303.99Z" fill="#221C36"/>
<path d="M162.72 218.72C160.89 217.66 158.93 216.73 156.88 215.92C155.3 215.3 153.66 214.74 151.97 214.26C150.59 213.87 149.18 213.52 147.74 213.22C146.42 212.95 145.08 212.71 143.73 212.52C142.43 212.34 141.12 212.19 139.8 212.08C138.48 211.97 137.15 211.9 135.82 211.87C134.44 211.84 133.06 211.84 131.69 211.89C130.18 211.94 128.68 212.04 127.19 212.19C125.45 212.36 123.72 212.6 122.02 212.91C119.41 213.38 116.87 214.01 114.44 214.79C111.51 215.74 108.74 216.91 106.21 218.31L106.2 222.39C108.73 220.99 111.5 219.82 114.43 218.87C116.86 218.08 119.4 217.46 122.01 216.99C123.71 216.68 125.43 216.44 127.18 216.27C128.67 216.12 130.18 216.02 131.68 215.97C133.06 215.92 134.44 215.92 135.81 215.95C137.14 215.98 138.47 216.05 139.79 216.16C141.11 216.27 142.42 216.41 143.72 216.6C145.07 216.79 146.41 217.02 147.73 217.3C149.16 217.6 150.58 217.94 151.96 218.34C153.65 218.82 155.29 219.37 156.87 220C158.93 220.81 160.88 221.75 162.71 222.8C170.69 227.41 174.67 233.45 174.66 239.48L174.67 235.4C174.68 229.37 170.7 223.33 162.72 218.72Z" fill="#D1365A"/>
<path d="M199.43 235.47L199.42 239.55C199.42 239.74 199.42 239.93 199.41 240.12L199.42 236.04C199.43 235.85 199.43 235.66 199.43 235.47Z" fill="#94344A"/>
<path d="M199 239.79C198.75 241.02 198.4 242.25 197.95 243.46C197.48 244.71 196.9 245.95 196.21 247.18C195.47 248.5 194.59 249.79 193.59 251.07C192.41 252.57 191.06 254.03 189.53 255.44C187.22 257.57 184.51 259.6 181.39 261.48L181.38 265.56C184.5 263.68 187.21 261.65 189.52 259.52C191.05 258.11 192.41 256.65 193.58 255.15C194.58 253.88 195.45 252.58 196.2 251.26C196.89 250.04 197.47 248.8 197.94 247.54C198.4 246.33 198.75 245.1 198.99 243.87C199.24 242.63 199.38 241.38 199.42 240.13L199.43 236.05C199.39 237.29 199.25 238.54 199 239.79Z" fill="#D1365A"/>
<path d="M181.38 261.47L181.37 265.55C181.3 265.59 181.22 265.64 181.15 265.68L181.16 261.6C181.23 261.56 181.31 261.51 181.38 261.47Z" fill="#B8405B"/>
<path d="M168.24 283.47L168.23 287.55L50.9 219.81L50.92 215.73L168.24 283.47Z" fill="#EEEEEE"/>
<path d="M193.56 268.76L193.54 272.84L168.23 287.55L168.24 283.47L193.56 268.76Z" fill="#D1365A"/>
<path d="M181.16 261.6L193.56 268.76L168.24 283.47L50.92 215.73L76.24 201.02L88.63 208.17C114.07 193.82 154.85 193.94 180.18 208.57C205.51 223.2 205.86 246.82 181.16 261.6ZM106.2 218.32L163.59 251.46C178.65 242.27 178.35 227.75 162.72 218.73C147.09 209.7 122 209.57 106.2 218.32Z" fill="#59D7FF"/>
<path d="M175.56 279.13L168.22 283.39L50.9 215.66L58.24 211.4L175.56 279.13Z" fill="#BDA2A9"/>
<path d="M93.45 221.69L77.42 231.01L73.8 228.93L89.84 219.61L93.45 221.69Z" fill="#644DAA"/>
<path d="M140.44 248.82L124.4 258.14L120.79 256.06L136.83 246.74L140.44 248.82Z" fill="#644DAA"/>
<path d="M102.84 227.12L86.81 236.44L83.21 234.36L99.24 225.04L102.84 227.12Z" fill="#644DAA"/>
<path d="M112.24 232.54L96.21 241.86L92.61 239.78L108.64 230.46L112.24 232.54Z" fill="#644DAA"/>
<path d="M121.64 237.97L105.6 247.29L102 245.21L118.03 235.89L121.64 237.97Z" fill="#644DAA"/>
<path d="M84.05 216.27L68.02 225.59L64.41 223.5L80.45 214.19L84.05 216.27Z" fill="#644DAA"/>
<path d="M74.65 210.84L58.61 220.16L55.01 218.08L71.05 208.76L74.65 210.84Z" fill="#644DAA"/>
<path d="M131.04 243.4L115.01 252.72L111.4 250.63L127.43 241.31L131.04 243.4Z" fill="#644DAA"/>
<path d="M149.83 254.25L133.8 263.57L130.2 261.49L146.23 252.17L149.83 254.25Z" fill="#644DAA"/>
<path d="M178.03 270.53L161.99 279.84L158.39 277.76L174.42 268.44L178.03 270.53Z" fill="#644DAA"/>
<path d="M159.23 259.67L143.2 268.99L139.59 266.91L155.63 257.59L159.23 259.67Z" fill="#644DAA"/>
<path d="M168.62 265.1L152.59 274.41L148.99 272.34L165.02 263.02L168.62 265.1Z" fill="#644DAA"/>
<path d="M245.47 241.73L245.41 263.7L226.41 274.74L226.47 252.77L245.47 241.73Z" fill="#57468F"/>
<path d="M226.47 252.77L226.41 274.74L207.29 263.7L207.36 241.73L226.47 252.77Z" fill="#433473"/>
<path d="M245.47 241.73L226.47 252.77L207.36 241.73L226.35 230.69L245.47 241.73Z" fill="#644DAA"/>
<path d="M162.96 213.14L162.91 229.22L149.01 237.3L149.06 221.22L162.96 213.14Z" fill="#FF7300"/>
<path d="M149.06 221.22L149.01 237.3L135.02 229.22L135.07 213.14L149.06 221.22Z" fill="#FF8C00"/>
<path d="M162.96 213.14L149.06 221.22L135.07 213.14L148.97 205.06L162.96 213.14Z" fill="#FFA600"/>
<path d="M201.38 70.35L192.56 65.22C195.37 66.85 199.25 66.62 203.53 64.15L212.35 69.28C208.07 71.75 204.19 71.98 201.38 70.35Z" fill="#FFA600"/>
<path d="M196.78 25.18L196.88 60.47C196.91 70.24 203.85 74.19 212.35 69.28L212.38 78.46C199.47 85.91 188.93 79.91 188.89 65.08L188.79 29.79L196.78 25.18Z" fill="#FF7300"/>
<path d="M188.79 29.79L179.97 24.66L187.96 20.05L196.78 25.18L188.79 29.79Z" fill="#FFA600"/>
<path d="M188.89 65.08L188.79 29.79L179.97 24.66L180.07 59.95C180.09 67.32 182.7 72.51 186.91 74.95L195.73 80.08C191.52 77.64 188.91 72.45 188.89 65.08Z" fill="#FF8C00"/>
<path d="M181.16 34.2L181.32 91.8L173.75 96.17L173.59 38.57L181.16 34.2Z" fill="#FF7300"/>
<path d="M173.59 38.57L164.77 33.44L172.34 29.07L181.16 34.2L173.59 38.57Z" fill="#FFA600"/>
<path d="M173.75 96.17L164.93 91.04L164.77 33.44L173.59 38.57L173.75 96.17Z" fill="#FF8C00"/>
<path d="M158.23 51.89L149.41 46.76V46.37L158.23 51.5V51.89Z" fill="#FFA600"/>
<path d="M198.3 0L165.12 19.16C156.43 24.18 149.38 36.39 149.41 46.38L158.23 51.51C158.2 41.52 165.25 29.31 173.94 24.29L207.12 5.13L198.3 0Z" fill="#FFA600"/>
<path d="M207.12 5.13L207.15 14.31L173.97 33.47C169.69 35.94 166.21 41.96 166.22 46.89V47.28L158.23 51.89V51.5C158.2 41.51 165.25 29.3 173.94 24.28L207.12 5.13Z" fill="#FF7300"/>
<path d="M105.95 16.07L109.66 26.01L106.97 27.57L107.17 97.56L141.29 77.85L141.28 74.76L151.8 72.92L141.31 83.21L141.3 80.11L107.17 99.82L107.23 120.32L105.26 121.46L105.21 100.95L60.58 126.72L60.57 124.46L105.2 98.69L105 28.7L102.31 30.26L105.95 16.07Z" fill="#FF597F"/>
<path d="M122.94 37.95C123.02 65.69 115.58 92.51 106.32 97.85C97.06 103.2 89.5 85.04 89.42 57.3" stroke="white" stroke-width="2" stroke-miterlimit="10" stroke-linecap="round" stroke-linejoin="round" stroke-dasharray="3 3"/>
<path d="M264.78 190.99L229.31 170.51" stroke="#F3EFFF" stroke-width="3" stroke-miterlimit="10" stroke-linecap="round" stroke-linejoin="round"/>
<path d="M299.81 211.18L264.35 190.71" stroke="#DFD8F4" stroke-width="3" stroke-miterlimit="10" stroke-linecap="round" stroke-linejoin="round"/>
<path d="M264.35 190.71L229.1 211.19" stroke="#DFD8F4" stroke-width="3" stroke-miterlimit="10" stroke-linecap="round" stroke-linejoin="round"/>
<path d="M300.07 170.51L264.83 190.99" stroke="#F3EFFF" stroke-width="3" stroke-miterlimit="10" stroke-linecap="round" stroke-linejoin="round"/>
<path d="M264.57 151.11V192.54" stroke="#DFD8F4" stroke-width="3" stroke-miterlimit="10" stroke-linecap="round" stroke-linejoin="round"/>
<path d="M273.06 151.64C273.06 156.34 269.26 160.14 264.57 160.14C260.51 160.14 257.11 157.29 256.27 153.48C256.15 152.89 256.07 152.28 256.07 151.65C256.07 146.96 259.88 143.16 264.57 143.16C266.34 143.16 267.99 143.71 269.35 144.63C271.6 146.15 273.06 148.73 273.06 151.64Z" fill="#6C51C8"/>
<path d="M269.55 146.45C269.55 151.14 265.75 154.94 261.06 154.94C259.29 154.94 257.63 154.39 256.27 153.47C256.15 152.88 256.07 152.27 256.07 151.64C256.07 146.95 259.88 143.15 264.57 143.15C266.34 143.15 267.99 143.7 269.35 144.62C269.48 145.21 269.55 145.82 269.55 146.45Z" fill="#C6BCE4"/>
<path d="M259.12 148.94C259.12 147.61 260.2 146.53 261.53 146.53C262.86 146.53 263.94 147.61 263.94 148.94C263.94 150.27 262.86 151.35 261.53 151.35C260.2 151.35 259.12 150.27 259.12 148.94Z" fill="#FEFEFE"/>
<path d="M237.92 211.7C237.92 216.4 234.12 220.2 229.43 220.2C225.37 220.2 221.97 217.35 221.13 213.54C221.01 212.95 220.93 212.34 220.93 211.71C220.93 207.02 224.74 203.22 229.43 203.22C231.2 203.22 232.85 203.77 234.21 204.69C236.45 206.21 237.92 208.79 237.92 211.7Z" fill="#6C51C8"/>
<path d="M234.4 206.52C234.4 211.21 230.6 215.01 225.91 215.01C224.14 215.01 222.48 214.46 221.12 213.54C221 212.95 220.92 212.34 220.92 211.71C220.92 207.02 224.73 203.22 229.42 203.22C231.19 203.22 232.84 203.77 234.2 204.69C234.33 205.28 234.4 205.88 234.4 206.52Z" fill="#C6BCE4"/>
<path d="M226.38 211.41C227.711 211.41 228.79 210.331 228.79 209C228.79 207.669 227.711 206.59 226.38 206.59C225.049 206.59 223.97 207.669 223.97 209C223.97 210.331 225.049 211.41 226.38 211.41Z" fill="#FEFEFE"/>
<path d="M307.86 210.49C307.86 215.19 304.06 218.99 299.37 218.99C295.31 218.99 291.91 216.14 291.07 212.33C290.95 211.74 290.87 211.13 290.87 210.5C290.87 205.81 294.68 202.01 299.37 202.01C301.14 202.01 302.79 202.56 304.15 203.48C306.39 205.01 307.86 207.58 307.86 210.49Z" fill="#6C51C8"/>
<path d="M304.35 205.31C304.35 210 300.55 213.8 295.86 213.8C294.09 213.8 292.43 213.25 291.07 212.33C290.95 211.74 290.87 211.13 290.87 210.5C290.87 205.81 294.68 202.01 299.37 202.01C301.14 202.01 302.79 202.56 304.15 203.48C304.27 204.07 304.35 204.68 304.35 205.31Z" fill="#C6BCE4"/>
<path d="M296.32 210.21C297.651 210.21 298.73 209.131 298.73 207.8C298.73 206.469 297.651 205.39 296.32 205.39C294.989 205.39 293.91 206.469 293.91 207.8C293.91 209.131 294.989 210.21 296.32 210.21Z" fill="#FEFEFE"/>
<path d="M258.33 153.85L229.1 170.83" stroke="#DFD8F4" stroke-width="3" stroke-miterlimit="10" stroke-linecap="round" stroke-linejoin="round"/>
<path d="M299.81 170.83L270.53 153.92" stroke="#DFD8F4" stroke-width="3" stroke-miterlimit="10" stroke-linecap="round" stroke-linejoin="round"/>
<path d="M264.83 231.65L235.45 214.69" stroke="#F3EFFF" stroke-width="3" stroke-miterlimit="10" stroke-linecap="round" stroke-linejoin="round"/>
<path d="M294.53 214.36L264.78 231.65" stroke="#F3EFFF" stroke-width="3" stroke-miterlimit="10" stroke-linecap="round" stroke-linejoin="round"/>
<path d="M272.63 230.91C272.63 235.61 268.83 239.41 264.14 239.41C260.08 239.41 256.68 236.56 255.84 232.75C255.72 232.16 255.64 231.55 255.64 230.92C255.64 226.23 259.45 222.43 264.14 222.43C265.91 222.43 267.56 222.98 268.92 223.9C271.16 225.42 272.63 228 272.63 230.91Z" fill="#6C51C8"/>
<path d="M269.12 225.72C269.12 230.41 265.32 234.21 260.63 234.21C258.86 234.21 257.2 233.66 255.84 232.74C255.72 232.15 255.64 231.54 255.64 230.91C255.64 226.22 259.45 222.42 264.14 222.42C265.91 222.42 267.56 222.97 268.92 223.89C269.05 224.48 269.12 225.09 269.12 225.72Z" fill="#C6BCE4"/>
<path d="M258.69 228.21C258.69 226.88 259.77 225.8 261.1 225.8C262.43 225.8 263.51 226.88 263.51 228.21C263.51 229.54 262.43 230.62 261.1 230.62C259.77 230.62 258.69 229.54 258.69 228.21Z" fill="#FEFEFE"/>
<path d="M264.89 190.39V224.01" stroke="#F3EFFF" stroke-width="3" stroke-miterlimit="10" stroke-linecap="round" stroke-linejoin="round"/>
<path d="M273.26 191.16C273.26 195.86 269.46 199.66 264.77 199.66C260.71 199.66 257.31 196.81 256.47 193C256.35 192.41 256.27 191.8 256.27 191.17C256.27 186.48 260.08 182.68 264.77 182.68C266.54 182.68 268.19 183.23 269.55 184.15C271.79 185.67 273.26 188.25 273.26 191.16Z" fill="#6C51C8"/>
<path d="M269.75 185.98C269.75 190.67 265.95 194.47 261.26 194.47C259.49 194.47 257.83 193.92 256.47 193C256.35 192.41 256.27 191.8 256.27 191.17C256.27 186.48 260.08 182.68 264.77 182.68C266.54 182.68 268.19 183.23 269.55 184.15C269.68 184.74 269.75 185.34 269.75 185.98Z" fill="#C6BCE4"/>
<path d="M259.32 188.46C259.32 187.13 260.4 186.05 261.73 186.05C263.06 186.05 264.14 187.13 264.14 188.46C264.14 189.79 263.06 190.87 261.73 190.87C260.4 190.87 259.32 189.79 259.32 188.46Z" fill="#FEFEFE"/>
<path d="M229.1 170.83V205.46" stroke="#F3EFFF" stroke-width="3" stroke-miterlimit="10" stroke-linecap="round" stroke-linejoin="round"/>
<path d="M299.14 170.83V203.83" stroke="#F3EFFF" stroke-width="3" stroke-miterlimit="10" stroke-linecap="round" stroke-linejoin="round"/>
<path d="M238.54 171.44C238.54 176.14 234.74 179.94 230.05 179.94C225.99 179.94 222.59 177.09 221.75 173.28C221.63 172.69 221.55 172.08 221.55 171.45C221.55 166.76 225.36 162.96 230.05 162.96C231.82 162.96 233.47 163.51 234.83 164.43C237.08 165.95 238.54 168.53 238.54 171.44Z" fill="#6C51C8"/>
<path d="M235.03 166.26C235.03 170.95 231.23 174.75 226.54 174.75C224.77 174.75 223.11 174.2 221.75 173.28C221.63 172.69 221.55 172.08 221.55 171.45C221.55 166.76 225.36 162.96 230.05 162.96C231.82 162.96 233.47 163.51 234.83 164.43C234.96 165.01 235.03 165.62 235.03 166.26Z" fill="#C6BCE4"/>
<path d="M227.01 171.15C228.341 171.15 229.42 170.071 229.42 168.74C229.42 167.409 228.341 166.33 227.01 166.33C225.679 166.33 224.6 167.409 224.6 168.74C224.6 170.071 225.679 171.15 227.01 171.15Z" fill="#FEFEFE"/>
<path d="M305.91 170.83C305.91 175.53 302.11 179.33 297.42 179.33C293.36 179.33 289.96 176.48 289.12 172.67C289 172.08 288.92 171.47 288.92 170.84C288.92 166.15 292.73 162.35 297.42 162.35C299.19 162.35 300.84 162.9 302.2 163.82C304.44 165.34 305.91 167.92 305.91 170.83Z" fill="#6C51C8"/>
<path d="M302.4 165.65C302.4 170.34 298.6 174.14 293.91 174.14C292.14 174.14 290.48 173.59 289.12 172.67C289 172.08 288.92 171.47 288.92 170.84C288.92 166.15 292.73 162.35 297.42 162.35C299.19 162.35 300.84 162.9 302.2 163.82C302.33 164.41 302.4 165.01 302.4 165.65Z" fill="#C6BCE4"/>
<path d="M294.37 170.54C295.701 170.54 296.78 169.461 296.78 168.13C296.78 166.799 295.701 165.72 294.37 165.72C293.039 165.72 291.96 166.799 291.96 168.13C291.96 169.461 293.039 170.54 294.37 170.54Z" fill="#FEFEFE"/>
</g>
<defs>
<filter id="filter0_i" x="0" y="0" width="344.04" height="310.12" filterUnits="userSpaceOnUse" color-interpolation-filters="sRGB">
<feFlood flood-opacity="0" result="BackgroundImageFix"/>
<feBlend mode="normal" in="SourceGraphic" in2="BackgroundImageFix" result="shape"/>
<feColorMatrix in="SourceAlpha" type="matrix" values="0 0 0 0 0 0 0 0 0 0 0 0 0 0 0 0 0 0 127 0" result="hardAlpha"/>
<feOffset dy="4"/>
<feGaussianBlur stdDeviation="2"/>
<feComposite in2="hardAlpha" operator="arithmetic" k2="-1" k3="1"/>
<feColorMatrix type="matrix" values="0 0 0 0 0 0 0 0 0 0 0 0 0 0 0 0 0 0 0.25 0"/>
<feBlend mode="normal" in2="shape" result="effect1_innerShadow"/>
</filter>
<clipPath id="clip0">
<rect width="344.04" height="306.12" fill="white"/>
</clipPath>
</defs>
</svg>
