<svg width="30" height="24" viewBox="0 0 30 24" fill="none" xmlns="http://www.w3.org/2000/svg">
<path d="M29.6667 6.33329V20.5C29.6667 22.0583 28.4667 23.3333 27 23.3333H5.66666C4.93333 23.3333 4.33333 22.6958 4.33333 21.9166C4.33333 21.1375 4.93333 20.5 5.66666 20.5H27V6.33329C27 5.55412 27.6 4.91663 28.3333 4.91663C29.0667 4.91663 29.6667 5.55412 29.6667 6.33329ZM4.33333 17.6666C2.11999 17.6666 0.333328 15.7683 0.333328 13.4166V4.91663C0.333328 2.56496 2.11999 0.666626 4.33333 0.666626H20.3333C22.5467 0.666626 24.3333 2.56496 24.3333 4.91663V14.8333C24.3333 16.3916 23.1333 17.6666 21.6667 17.6666H4.33333ZM8.33333 9.16662C8.33333 11.5183 10.12 13.4166 12.3333 13.4166C14.5467 13.4166 16.3333 11.5183 16.3333 9.16662C16.3333 6.81496 14.5467 4.91663 12.3333 4.91663C10.12 4.91663 8.33333 6.81496 8.33333 9.16662Z" fill="#626267"/>
</svg>
