<svg width="23" height="16" viewBox="0 0 23 16" fill="none" xmlns="http://www.w3.org/2000/svg">
<path fill-rule="evenodd" clip-rule="evenodd" d="M23 8C23 8 18.6875 0 11.5 0C4.3125 0 0 8 0 8C0 8 4.3125 16 11.5 16C18.6875 16 23 8 23 8ZM1.68619 8C2.38125 9.06891 3.18068 10.0645 4.07244 10.9716C5.9225 12.8465 8.4525 14.5455 11.5 14.5455C14.5475 14.5455 17.0761 12.8465 18.929 10.9716C19.8208 10.0645 20.6202 9.06891 21.3153 8C20.6202 6.93109 19.8208 5.93554 18.929 5.02836C17.0761 3.15345 14.5461 1.45455 11.5 1.45455C8.4525 1.45455 5.92394 3.15345 4.071 5.02836C3.17923 5.93554 2.3798 6.93109 1.68475 8H1.68619Z" fill="#626267"/>
<path fill-rule="evenodd" clip-rule="evenodd" d="M11.5 5.14286C10.6475 5.14286 9.82995 5.44388 9.22716 5.97969C8.62436 6.51551 8.28571 7.24224 8.28571 8C8.28571 8.75776 8.62436 9.48449 9.22716 10.0203C9.82995 10.5561 10.6475 10.8571 11.5 10.8571C12.3525 10.8571 13.17 10.5561 13.7728 10.0203C14.3756 9.48449 14.7143 8.75776 14.7143 8C14.7143 7.24224 14.3756 6.51551 13.7728 5.97969C13.17 5.44388 12.3525 5.14286 11.5 5.14286ZM7 8C7 6.93913 7.47411 5.92172 8.31802 5.17157C9.16193 4.42143 10.3065 4 11.5 4C12.6935 4 13.8381 4.42143 14.682 5.17157C15.5259 5.92172 16 6.93913 16 8C16 9.06087 15.5259 10.0783 14.682 10.8284C13.8381 11.5786 12.6935 12 11.5 12C10.3065 12 9.16193 11.5786 8.31802 10.8284C7.47411 10.0783 7 9.06087 7 8Z" fill="#626267"/>
</svg>
