<svg width="293" height="317" viewBox="0 0 293 317" fill="none" xmlns="http://www.w3.org/2000/svg">
<g opacity="0.5">
<path style="mix-blend-mode:multiply" opacity="0.14" d="M292.413 317L156.05 22.0994L36.1204 248.495L61.1182 317H292.413Z" fill="url(#paint0_linear)"/>
</g>
<path d="M46.2394 168.128C46.2394 168.128 79.1052 113.54 82.4782 116.09C85.8512 118.641 81.5862 177.223 81.5862 177.223L50.2535 186.707L46.2394 168.128Z" fill="#E6A665"/>
<path d="M110.25 278.705L130.404 254.718L173.319 199.503L188.038 173.466L88.1928 168.999L36.1204 249.84L0 316.889H93.4963L110.25 278.705Z" fill="#F7D6B4"/>
<path d="M184.163 62.7775L171.584 74.5691C168.844 77.1371 165.196 78.5114 161.442 78.3899C157.689 78.2683 154.137 76.6608 151.569 73.921C149.001 71.1807 147.627 67.5327 147.748 63.7792C147.87 60.0258 149.477 56.4743 152.217 53.9059L164.796 42.1144C167.536 39.5464 171.185 38.172 174.938 38.2936C178.691 38.4151 182.243 40.0226 184.811 42.7625C187.379 45.5027 188.754 49.1507 188.632 52.9042C188.511 56.6577 186.903 60.2092 184.163 62.7775Z" fill="#F7D6B4"/>
<path opacity="0.34" d="M173.319 199.503L188.038 173.466L162.761 172.428L173.319 199.503Z" fill="#A86420"/>
<path opacity="0.55" d="M72.1223 213.747L135.213 223.441C138.17 223.894 140.83 225.494 142.617 227.894C144.404 230.294 145.174 233.301 144.76 236.264L164.274 211.176L72.1223 213.747Z" fill="#E6A665"/>
<g opacity="0.37">
<path opacity="0.37" d="M158.064 216.667L65.0209 211.657C62.0128 211.493 59.193 210.141 57.1817 207.898C55.1703 205.656 54.1322 202.706 54.2955 199.698L64.4215 12.9282C64.4964 11.4352 64.8653 9.97165 65.507 8.62147C66.1486 7.27129 67.0505 6.06104 68.1608 5.0601C69.2712 4.05917 70.5682 3.28725 71.9775 2.78858C73.3867 2.28991 74.8806 2.07432 76.3734 2.15415L169.424 7.19971C172.432 7.36346 175.251 8.71535 177.263 10.958C179.274 13.2007 180.312 16.1505 180.149 19.1585L170.023 205.928C169.944 207.419 169.571 208.879 168.927 210.226C168.283 211.572 167.38 212.779 166.269 213.776C165.159 214.774 163.862 215.542 162.454 216.038C161.047 216.534 159.555 216.748 158.064 216.667Z" fill="#393F40"/>
<path opacity="0.37" d="M174.232 30.4827L69.0847 24.7881L60.3065 186.873L165.454 192.567L174.232 30.4827Z" fill="#39575C"/>
</g>
<g opacity="0.37">
<path opacity="0.37" d="M155.159 1.59252L62.1931 7.9466C55.9341 8.37439 51.2069 13.7952 51.6347 20.0542L64.3904 206.681C64.8182 212.94 70.2389 217.667 76.498 217.239L169.464 210.885C175.723 210.458 180.45 205.037 180.022 198.778L167.267 12.151C166.839 5.89191 161.418 1.16473 155.159 1.59252Z" fill="#393F40"/>
<path opacity="0.37" d="M162.77 24.1269L57.713 31.3074L68.7817 193.252L173.838 186.071L162.77 24.1269Z" fill="#39575C"/>
</g>
<path d="M163.814 7.31128H70.631C64.3573 7.31128 59.2715 12.3971 59.2715 18.6708V205.733C59.2715 212.007 64.3573 217.092 70.631 217.092H163.814C170.087 217.092 175.173 212.007 175.173 205.733V18.6708C175.173 12.3971 170.087 7.31128 163.814 7.31128Z" fill="#393F40"/>
<path d="M169.87 30.3159H64.5679V192.638H169.87V30.3159Z" fill="#39575C"/>
<path opacity="0.77" d="M126.954 21.5766L107.49 21.6741C107.253 21.676 107.018 21.6308 106.799 21.5412C106.579 21.4515 106.38 21.3193 106.212 21.152C106.044 20.9848 105.911 20.7859 105.821 20.5669C105.73 20.3479 105.684 20.1131 105.685 19.8761C105.685 19.398 105.874 18.9392 106.211 18.5998C106.548 18.2604 107.005 18.0679 107.483 18.0642L126.954 17.9666C127.191 17.9648 127.426 18.01 127.646 18.0996C127.865 18.1892 128.065 18.3215 128.232 18.4887C128.4 18.6559 128.533 18.8548 128.624 19.0738C128.714 19.2929 128.76 19.5276 128.759 19.7646C128.759 20.244 128.57 20.7038 128.231 21.0434C127.893 21.383 127.434 21.5747 126.954 21.5766Z" fill="#4F6363"/>
<path opacity="0.77" d="M134.153 206.541L100.284 206.639C100.047 206.641 99.8121 206.596 99.5927 206.506C99.3733 206.416 99.1739 206.284 99.006 206.117C98.8381 205.95 98.7051 205.751 98.6147 205.532C98.5242 205.313 98.4781 205.078 98.479 204.841C98.479 204.363 98.668 203.904 99.0048 203.565C99.3416 203.225 99.7989 203.033 100.277 203.029L134.146 202.931C134.383 202.93 134.618 202.975 134.838 203.064C135.057 203.154 135.256 203.286 135.424 203.454C135.592 203.621 135.725 203.82 135.816 204.039C135.906 204.258 135.952 204.492 135.951 204.729C135.951 205.208 135.762 205.666 135.426 206.006C135.089 206.345 134.632 206.538 134.153 206.541Z" fill="#4F6363"/>
<g opacity="0.12">
<path opacity="0.12" d="M78.9032 38.1283H70.2059C69.6846 38.1283 69.1848 37.9212 68.8162 37.5527C68.4477 37.1841 68.2406 36.6842 68.2406 36.163C68.2406 35.6418 68.4477 35.1419 68.8162 34.7734C69.1848 34.4048 69.6846 34.1978 70.2059 34.1978H78.9032C79.4244 34.1978 79.9243 34.4048 80.2928 34.7734C80.6614 35.1419 80.8684 35.6418 80.8684 36.163C80.8684 36.6842 80.6614 37.1841 80.2928 37.5527C79.9243 37.9212 79.4244 38.1283 78.9032 38.1283Z" fill="#F1F1F2"/>
<path opacity="0.12" d="M87.1336 38.1283H84.1648C83.6436 38.1283 83.1438 37.9212 82.7752 37.5527C82.4066 37.1841 82.1996 36.6842 82.1996 36.163C82.1996 35.6418 82.4066 35.1419 82.7752 34.7734C83.1438 34.4048 83.6436 34.1978 84.1648 34.1978H87.1336C87.6549 34.1978 88.1547 34.4048 88.5233 34.7734C88.8918 35.1419 89.0989 35.6418 89.0989 36.163C89.0989 36.6842 88.8918 37.1841 88.5233 37.5527C88.1547 37.9212 87.6549 38.1283 87.1336 38.1283Z" fill="#F1F1F2"/>
<path opacity="0.12" d="M165.117 38.1283H157.451C156.93 38.1283 156.43 37.9212 156.061 37.5527C155.693 37.1841 155.486 36.6842 155.486 36.163C155.486 35.6418 155.693 35.1419 156.061 34.7734C156.43 34.4048 156.93 34.1978 157.451 34.1978H165.117C165.638 34.1978 166.138 34.4048 166.506 34.7734C166.875 35.1419 167.082 35.6418 167.082 36.163C167.082 36.6842 166.875 37.1841 166.506 37.5527C166.138 37.9212 165.638 38.1283 165.117 38.1283Z" fill="#F1F1F2"/>
</g>
<path d="M143.973 167.689C152.302 167.689 159.054 160.937 159.054 152.608C159.054 144.279 152.302 137.527 143.973 137.527C135.644 137.527 128.892 144.279 128.892 152.608C128.892 160.937 135.644 167.689 143.973 167.689Z" fill="#D02E3B"/>
<path d="M138.586 147.354L149.534 158.302" stroke="white" stroke-width="4.17" stroke-miterlimit="10" stroke-linecap="round"/>
<path d="M138.586 158.302L149.534 147.354" stroke="white" stroke-width="4.17" stroke-miterlimit="10" stroke-linecap="round"/>
<path d="M92.8482 167.689C101.177 167.689 107.929 160.937 107.929 152.608C107.929 144.279 101.177 137.527 92.8482 137.527C84.5192 137.527 77.7672 144.279 77.7672 152.608C77.7672 160.937 84.5192 167.689 92.8482 167.689Z" fill="#1BC46E"/>
<path d="M86.158 153.145L91.4126 158.399L100.242 147.346" stroke="white" stroke-width="4.17" stroke-miterlimit="10" stroke-linecap="round"/>
<path d="M172.858 149.56L167.747 152.808C162.247 156.302 160.621 163.594 164.116 169.094L166.646 173.076C170.14 178.576 177.431 180.202 182.931 176.707L188.043 173.46C193.543 169.965 195.169 162.674 191.674 157.174L189.144 153.192C185.65 147.692 178.358 146.066 172.858 149.56Z" fill="#F7D6B4"/>
<path d="M167.747 121.983L172.847 118.743C174.155 117.912 175.614 117.346 177.14 117.079C178.666 116.812 180.23 116.848 181.742 117.185C183.254 117.523 184.685 118.154 185.954 119.045C187.222 119.935 188.302 121.066 189.133 122.374L191.659 126.35C192.491 127.658 193.057 129.117 193.325 130.644C193.593 132.17 193.558 133.735 193.221 135.248C192.884 136.761 192.252 138.192 191.362 139.461C190.472 140.73 189.34 141.811 188.032 142.642L182.926 145.886C180.283 147.565 177.082 148.125 174.026 147.444C170.97 146.762 168.31 144.895 166.631 142.252L164.104 138.276C163.273 136.968 162.708 135.51 162.441 133.983C162.174 132.457 162.21 130.893 162.547 129.381C162.884 127.869 163.516 126.438 164.406 125.17C165.297 123.901 166.428 122.821 167.736 121.99L167.747 121.983Z" fill="#F7D6B4"/>
<path d="M167.758 91.4341L172.858 88.1939C175.499 86.5159 178.699 85.9557 181.753 86.6367C184.807 87.3177 187.466 89.1841 189.144 91.8253L191.67 95.8016C193.344 98.4427 193.901 101.64 193.218 104.692C192.536 107.743 190.67 110.399 188.031 112.076L182.926 115.32C180.283 116.999 177.081 117.559 174.025 116.878C170.969 116.196 168.309 114.329 166.63 111.686L164.104 107.71C162.433 105.066 161.879 101.867 162.564 98.816C163.25 95.7646 165.117 93.1097 167.758 91.4341Z" fill="#F7D6B4"/>
<path d="M177.948 112.924C180.177 111.762 179.912 106.845 177.357 101.94C174.801 97.0345 170.922 93.9997 168.694 95.161C166.465 96.3223 166.729 101.24 169.285 106.145C171.841 111.05 175.719 114.085 177.948 112.924Z" fill="#FCEEE3"/>
<path d="M177.316 143.601C179.545 142.44 179.28 137.522 176.724 132.617C174.169 127.712 170.29 124.677 168.061 125.838C165.832 126.999 166.097 131.917 168.653 136.822C171.208 141.727 175.087 144.762 177.316 143.601Z" fill="#FCEEE3"/>
<path d="M178.883 174.316C181.477 172.965 181.508 167.893 178.953 162.988C176.397 158.083 172.222 155.202 169.628 156.553C167.034 157.905 167.003 162.977 169.558 167.882C172.114 172.787 176.289 175.668 178.883 174.316Z" fill="#FCEEE3"/>
<path d="M34.3642 258.474L12.147 182.582C11.1909 180.06 10.7751 177.366 10.9263 174.673C11.0776 171.98 11.7926 169.349 13.0251 166.95L42.295 109.888C43.0543 108.41 44.1466 107.129 45.4857 106.145C46.8248 105.162 48.3741 104.503 50.0114 104.22C51.6488 103.938 53.3293 104.04 54.9206 104.518C56.5119 104.996 57.9703 105.837 59.1809 106.975V151.361L54.205 168.999L71.4951 217.044L34.3642 258.474Z" fill="#F7D6B4"/>
<path d="M32.7963 128.662L43.5494 107.755L47.0339 114.209L41.5702 125.241C39.1852 127.45 36.0541 128.677 32.8032 128.676L32.7963 128.662Z" fill="#FCEEE3"/>
<path d="M39.3749 101.985C39.4487 99.9166 39.932 97.8833 40.7969 96.0028C41.6618 94.1223 42.891 92.4321 44.4135 91.0298C44.7028 90.7598 45.0841 90.6103 45.4798 90.6117H45.5425C45.8524 90.6238 46.1517 90.7275 46.4026 90.9097C46.6536 91.092 46.8448 91.3445 46.9522 91.6354C47.0597 91.9263 47.0784 92.2426 47.0061 92.5441C46.9338 92.8457 46.7737 93.119 46.546 93.3296C44.0885 95.6034 42.6346 98.7601 42.5039 102.106C42.3732 105.451 43.5765 108.712 45.8491 111.17C46.0018 111.319 46.1226 111.497 46.2043 111.693C46.2859 111.89 46.3266 112.101 46.3239 112.314C46.3212 112.527 46.2751 112.737 46.1885 112.932C46.1019 113.127 45.9766 113.301 45.8203 113.446C45.6639 113.59 45.4797 113.702 45.2789 113.773C45.0782 113.844 44.865 113.873 44.6525 113.859C44.4401 113.845 44.2327 113.788 44.043 113.691C43.8533 113.594 43.6854 113.46 43.5494 113.296C42.1407 111.78 41.0465 110 40.33 108.058C39.6135 106.117 39.2889 104.053 39.3749 101.985ZM14.5005 100.986C14.3025 105.721 15.2428 110.498 16.8841 114.944C18.5253 119.389 21.032 123.464 24.2591 126.934C24.3982 127.086 24.5658 127.208 24.7525 127.294C24.9391 127.38 25.1409 127.428 25.3463 127.436C25.7605 127.448 26.1632 127.298 26.4683 127.018C26.6193 126.878 26.7413 126.709 26.8272 126.522C26.9132 126.335 26.9614 126.133 26.9692 125.927C26.9769 125.721 26.9441 125.516 26.8725 125.323C26.8009 125.13 26.692 124.953 26.5519 124.802C20.6249 118.387 17.4847 109.882 17.8205 101.155C18.1563 92.4273 21.9406 84.1894 28.343 78.2487C28.5706 78.0381 28.7307 77.7647 28.803 77.4632C28.8753 77.1616 28.8566 76.8454 28.7492 76.5545C28.6418 76.2636 28.4505 76.011 28.1996 75.8288C27.9486 75.6466 27.6493 75.5429 27.3394 75.5308H27.2767C26.8834 75.5311 26.5049 75.6805 26.2174 75.9489C22.7343 79.1603 19.9228 83.0306 17.9454 87.3358C15.968 91.641 14.6665 96.2653 14.5 101L14.5005 100.986ZM33.8624 119.972C34.0015 120.124 34.1691 120.246 34.3558 120.332C34.5424 120.418 34.7442 120.466 34.9496 120.474C35.2587 120.485 35.5643 120.405 35.8278 120.243C36.0914 120.081 36.3011 119.845 36.4308 119.564C36.5604 119.283 36.6041 118.97 36.5563 118.665C36.5085 118.359 36.3714 118.074 36.1622 117.847C32.0993 113.448 29.9468 107.617 30.1767 101.634C30.4067 95.6505 33.0003 90.0024 37.3888 85.9285C37.6164 85.7179 37.7765 85.4446 37.8488 85.143C37.9211 84.8415 37.9024 84.5252 37.795 84.2343C37.6875 83.9434 37.4963 83.6909 37.2454 83.5087C36.9944 83.3264 36.6951 83.2227 36.3852 83.2106H36.3225C35.9292 83.2109 35.5507 83.3604 35.2632 83.6287C30.2652 88.267 27.3114 94.6986 27.0501 101.512C26.7888 108.326 29.2413 114.965 33.8694 119.972H33.8624Z" fill="#FF5773"/>
<path d="M197.704 113.296C197.568 113.46 197.4 113.594 197.21 113.691C197.021 113.788 196.813 113.845 196.601 113.859C196.388 113.873 196.175 113.844 195.974 113.773C195.774 113.702 195.589 113.59 195.433 113.446C195.277 113.301 195.151 113.127 195.065 112.932C194.978 112.737 194.932 112.527 194.929 112.314C194.927 112.101 194.967 111.89 195.049 111.693C195.131 111.497 195.251 111.319 195.404 111.17C197.677 108.712 198.88 105.451 198.749 102.106C198.619 98.7601 197.165 95.6034 194.707 93.3296C194.48 93.119 194.319 92.8457 194.247 92.5441C194.175 92.2426 194.194 91.9263 194.301 91.6354C194.408 91.3445 194.6 91.092 194.851 90.9097C195.102 90.7275 195.401 90.6238 195.711 90.6117H195.773C196.169 90.6103 196.551 90.7598 196.84 91.0298C198.363 92.4362 199.594 94.1293 200.462 96.0121C201.33 97.895 201.817 99.9306 201.897 102.002C201.977 104.074 201.647 106.141 200.926 108.085C200.205 110.029 199.108 111.812 197.697 113.331L197.704 113.296ZM215.057 75.9489C214.769 75.6805 214.391 75.5311 213.997 75.5308H213.935C213.625 75.5429 213.326 75.6466 213.075 75.8288C212.824 76.011 212.632 76.2636 212.525 76.5545C212.418 76.8454 212.399 77.1616 212.471 77.4632C212.543 77.7647 212.704 78.0381 212.931 78.2487C219.334 84.1894 223.118 92.4273 223.454 101.155C223.789 109.882 220.649 118.387 214.722 124.802C214.582 124.953 214.473 125.13 214.402 125.323C214.33 125.516 214.297 125.721 214.305 125.927C214.313 126.133 214.361 126.335 214.447 126.522C214.533 126.709 214.655 126.878 214.806 127.018C215.111 127.298 215.514 127.448 215.928 127.436C216.133 127.428 216.335 127.38 216.522 127.294C216.708 127.208 216.876 127.086 217.015 126.934C223.508 119.909 226.948 110.595 226.581 101.037C226.214 91.4778 222.069 82.4551 215.057 75.9489ZM214.207 101.511C214.088 98.1358 213.302 94.8174 211.892 91.748C210.483 88.6785 208.48 85.9189 205.997 83.6287C205.71 83.3604 205.331 83.2109 204.938 83.2106H204.875C204.565 83.2227 204.266 83.3264 204.015 83.5087C203.764 83.6909 203.573 83.9434 203.465 84.2343C203.358 84.5252 203.339 84.8415 203.411 85.143C203.484 85.4446 203.644 85.7179 203.872 85.9285C208.26 90.0024 210.854 95.6505 211.084 101.634C211.313 107.617 209.161 113.448 205.098 117.847C204.889 118.074 204.752 118.359 204.704 118.665C204.656 118.97 204.7 119.283 204.829 119.564C204.959 119.845 205.169 120.081 205.432 120.243C205.696 120.405 206.002 120.485 206.311 120.474C206.516 120.466 206.718 120.418 206.904 120.332C207.091 120.246 207.259 120.124 207.398 119.972C209.695 117.497 211.478 114.591 212.644 111.422C213.811 108.253 214.337 104.885 214.193 101.511H214.207Z" fill="#FF5773"/>
<path d="M70.9258 63.4238H73.3047V64.4492H70.9258V67.1445H69.8359V64.4492H67.457V63.4238H69.8359V60.9336H70.9258V63.4238ZM80.0254 60.0781L76.4922 68H75.3555L78.877 60.3594H74.2598V59.4688H80.0254V60.0781ZM81.3262 64.5371C81.3262 63.6543 81.4434 62.8066 81.6777 61.9941C81.916 61.1816 82.2695 60.4434 82.7383 59.7793C83.207 59.1152 83.6934 58.6465 84.1973 58.373L84.4199 59.0879C83.8496 59.5254 83.3809 60.1934 83.0137 61.0918C82.6504 61.9902 82.4512 62.9961 82.416 64.1094L82.4102 64.6074C82.4102 66.1152 82.6855 67.4238 83.2363 68.5332C83.5684 69.1973 83.9629 69.7168 84.4199 70.0918L84.1973 70.7539C83.6777 70.4648 83.1816 69.9805 82.709 69.3008C81.7871 67.9727 81.3262 66.3848 81.3262 64.5371ZM90.8652 60.0781L87.332 68H86.1953L89.7168 60.3594H85.0996V59.4688H90.8652V60.0781ZM97.4453 64.3613C97.4453 65.6309 97.2285 66.5742 96.7949 67.1914C96.3613 67.8086 95.6836 68.1172 94.7617 68.1172C93.8516 68.1172 93.1777 67.8164 92.7402 67.2148C92.3027 66.6094 92.0762 65.707 92.0605 64.5078V63.0605C92.0605 61.8066 92.2773 60.875 92.7109 60.2656C93.1445 59.6562 93.8242 59.3516 94.75 59.3516C95.668 59.3516 96.3438 59.6465 96.7773 60.2363C97.2109 60.8223 97.4336 61.7285 97.4453 62.9551V64.3613ZM96.3613 62.8789C96.3613 61.9609 96.2324 61.293 95.9746 60.875C95.7168 60.4531 95.3086 60.2422 94.75 60.2422C94.1953 60.2422 93.791 60.4512 93.5371 60.8691C93.2832 61.2871 93.1523 61.9297 93.1445 62.7969V64.5312C93.1445 65.4531 93.2773 66.1348 93.543 66.5762C93.8125 67.0137 94.2188 67.2324 94.7617 67.2324C95.2969 67.2324 95.6934 67.0254 95.9512 66.6113C96.2129 66.1973 96.3496 65.5449 96.3613 64.6543V62.8789ZM104.342 60.0781L100.809 68H99.6719L103.193 60.3594H98.5762V59.4688H104.342V60.0781ZM108.186 64.5957C108.186 65.4668 108.07 66.3027 107.84 67.1035C107.613 67.9004 107.264 68.6367 106.791 69.3125C106.322 69.9883 105.83 70.4688 105.314 70.7539L105.086 70.0918C105.688 69.6309 106.17 68.916 106.533 67.9473C106.9 66.9746 107.088 65.8965 107.096 64.7129V64.5254C107.096 63.7051 107.01 62.9434 106.838 62.2402C106.666 61.5332 106.426 60.9004 106.117 60.3418C105.812 59.7832 105.469 59.3477 105.086 59.0352L105.314 58.373C105.83 58.6582 106.32 59.1348 106.785 59.8027C107.254 60.4707 107.604 61.207 107.834 62.0117C108.068 62.8164 108.186 63.6777 108.186 64.5957ZM118.229 60.0781L114.695 68H113.559L117.08 60.3594H112.463V59.4688H118.229V60.0781ZM124.035 65.1348H125.219V66.0195H124.035V68H122.945V66.0195H119.061V65.3809L122.881 59.4688H124.035V65.1348ZM120.291 65.1348H122.945V60.9512L122.816 61.1855L120.291 65.1348ZM130.451 59.4629V60.3828H130.252C129.408 60.3984 128.736 60.6484 128.236 61.1328C127.736 61.6172 127.447 62.2988 127.369 63.1777C127.818 62.6621 128.432 62.4043 129.209 62.4043C129.951 62.4043 130.543 62.666 130.984 63.1895C131.43 63.7129 131.652 64.3887 131.652 65.2168C131.652 66.0957 131.412 66.7988 130.932 67.3262C130.455 67.8535 129.814 68.1172 129.01 68.1172C128.193 68.1172 127.531 67.8047 127.023 67.1797C126.516 66.5508 126.262 65.7422 126.262 64.7539V64.3379C126.262 62.7676 126.596 61.5684 127.264 60.7402C127.936 59.9082 128.934 59.4824 130.258 59.4629H130.451ZM129.027 63.3066C128.656 63.3066 128.314 63.418 128.002 63.6406C127.689 63.8633 127.473 64.1426 127.352 64.4785V64.877C127.352 65.5801 127.51 66.1465 127.826 66.5762C128.143 67.0059 128.537 67.2207 129.01 67.2207C129.498 67.2207 129.881 67.041 130.158 66.6816C130.439 66.3223 130.58 65.8516 130.58 65.2695C130.58 64.6836 130.438 64.2109 130.152 63.8516C129.871 63.4883 129.496 63.3066 129.027 63.3066ZM140.066 64.25C139.84 64.5195 139.568 64.7363 139.252 64.9004C138.939 65.0645 138.596 65.1465 138.221 65.1465C137.729 65.1465 137.299 65.0254 136.932 64.7832C136.568 64.541 136.287 64.2012 136.088 63.7637C135.889 63.3223 135.789 62.8359 135.789 62.3047C135.789 61.7344 135.896 61.2207 136.111 60.7637C136.33 60.3066 136.639 59.957 137.037 59.7148C137.436 59.4727 137.9 59.3516 138.432 59.3516C139.275 59.3516 139.939 59.668 140.424 60.3008C140.912 60.9297 141.156 61.7891 141.156 62.8789V63.1953C141.156 64.8555 140.828 66.0684 140.172 66.834C139.516 67.5957 138.525 67.9863 137.201 68.0059H136.99V67.0918H137.219C138.113 67.0762 138.801 66.8438 139.281 66.3945C139.762 65.9414 140.023 65.2266 140.066 64.25ZM138.396 64.25C138.76 64.25 139.094 64.1387 139.398 63.916C139.707 63.6934 139.932 63.418 140.072 63.0898V62.6562C140.072 61.9453 139.918 61.3672 139.609 60.9219C139.301 60.4766 138.91 60.2539 138.438 60.2539C137.961 60.2539 137.578 60.4375 137.289 60.8047C137 61.168 136.855 61.6484 136.855 62.2461C136.855 62.8281 136.994 63.3086 137.271 63.6875C137.553 64.0625 137.928 64.25 138.396 64.25ZM146.805 64.25C146.578 64.5195 146.307 64.7363 145.99 64.9004C145.678 65.0645 145.334 65.1465 144.959 65.1465C144.467 65.1465 144.037 65.0254 143.67 64.7832C143.307 64.541 143.025 64.2012 142.826 63.7637C142.627 63.3223 142.527 62.8359 142.527 62.3047C142.527 61.7344 142.635 61.2207 142.85 60.7637C143.068 60.3066 143.377 59.957 143.775 59.7148C144.174 59.4727 144.639 59.3516 145.17 59.3516C146.014 59.3516 146.678 59.668 147.162 60.3008C147.65 60.9297 147.895 61.7891 147.895 62.8789V63.1953C147.895 64.8555 147.566 66.0684 146.91 66.834C146.254 67.5957 145.264 67.9863 143.939 68.0059H143.729V67.0918H143.957C144.852 67.0762 145.539 66.8438 146.02 66.3945C146.5 65.9414 146.762 65.2266 146.805 64.25ZM145.135 64.25C145.498 64.25 145.832 64.1387 146.137 63.916C146.445 63.6934 146.67 63.418 146.811 63.0898V62.6562C146.811 61.9453 146.656 61.3672 146.348 60.9219C146.039 60.4766 145.648 60.2539 145.176 60.2539C144.699 60.2539 144.316 60.4375 144.027 60.8047C143.738 61.168 143.594 61.6484 143.594 62.2461C143.594 62.8281 143.732 63.3086 144.01 63.6875C144.291 64.0625 144.666 64.25 145.135 64.25ZM156.619 59.4629V60.3828H156.42C155.576 60.3984 154.904 60.6484 154.404 61.1328C153.904 61.6172 153.615 62.2988 153.537 63.1777C153.986 62.6621 154.6 62.4043 155.377 62.4043C156.119 62.4043 156.711 62.666 157.152 63.1895C157.598 63.7129 157.82 64.3887 157.82 65.2168C157.82 66.0957 157.58 66.7988 157.1 67.3262C156.623 67.8535 155.982 68.1172 155.178 68.1172C154.361 68.1172 153.699 67.8047 153.191 67.1797C152.684 66.5508 152.43 65.7422 152.43 64.7539V64.3379C152.43 62.7676 152.764 61.5684 153.432 60.7402C154.104 59.9082 155.102 59.4824 156.426 59.4629H156.619ZM155.195 63.3066C154.824 63.3066 154.482 63.418 154.17 63.6406C153.857 63.8633 153.641 64.1426 153.52 64.4785V64.877C153.52 65.5801 153.678 66.1465 153.994 66.5762C154.311 67.0059 154.705 67.2207 155.178 67.2207C155.666 67.2207 156.049 67.041 156.326 66.6816C156.607 66.3223 156.748 65.8516 156.748 65.2695C156.748 64.6836 156.605 64.2109 156.32 63.8516C156.039 63.4883 155.664 63.3066 155.195 63.3066ZM163.357 59.4629V60.3828H163.158C162.314 60.3984 161.643 60.6484 161.143 61.1328C160.643 61.6172 160.354 62.2988 160.275 63.1777C160.725 62.6621 161.338 62.4043 162.115 62.4043C162.857 62.4043 163.449 62.666 163.891 63.1895C164.336 63.7129 164.559 64.3887 164.559 65.2168C164.559 66.0957 164.318 66.7988 163.838 67.3262C163.361 67.8535 162.721 68.1172 161.916 68.1172C161.1 68.1172 160.438 67.8047 159.93 67.1797C159.422 66.5508 159.168 65.7422 159.168 64.7539V64.3379C159.168 62.7676 159.502 61.5684 160.17 60.7402C160.842 59.9082 161.84 59.4824 163.164 59.4629H163.357ZM161.934 63.3066C161.562 63.3066 161.221 63.418 160.908 63.6406C160.596 63.8633 160.379 64.1426 160.258 64.4785V64.877C160.258 65.5801 160.416 66.1465 160.732 66.5762C161.049 67.0059 161.443 67.2207 161.916 67.2207C162.404 67.2207 162.787 67.041 163.064 66.6816C163.346 66.3223 163.486 65.8516 163.486 65.2695C163.486 64.6836 163.344 64.2109 163.059 63.8516C162.777 63.4883 162.402 63.3066 161.934 63.3066Z" fill="white"/>
<path d="M163.319 57H136.739C135.226 57 134 58.2262 134 59.7388V67.7253C134 69.2379 135.226 70.4641 136.739 70.4641H163.319C164.831 70.4641 166.057 69.2379 166.057 67.7253V59.7388C166.057 58.2262 164.831 57 163.319 57Z" stroke="#F40000" stroke-miterlimit="10"/>
<defs>
<linearGradient id="paint0_linear" x1="81.0565" y1="157.291" x2="317.759" y2="262.711" gradientUnits="userSpaceOnUse">
<stop offset="0.36"/>
<stop offset="0.79" stop-color="#231F20"/>
<stop offset="1"/>
</linearGradient>
</defs>
</svg>
