<svg width="806" height="178" viewBox="0 0 806 178" fill="none" xmlns="http://www.w3.org/2000/svg">
<path d="M532.37 177.27H363.07C356.81 177.27 351.73 172.19 351.73 165.93V12.06C351.73 5.79997 356.81 0.719971 363.07 0.719971H532.3C538.56 0.719971 543.64 5.79997 543.64 12.06V166.01C543.64 172.23 538.59 177.27 532.37 177.27Z" fill="white"/>
<path d="M67.8501 151.76H0.790039V35.3201H67.8501V55.55H25.48V81.1201H64.9V101.35H25.48V131.38H67.8501V151.76Z" fill="white"/>
<path d="M108.83 151.76C98.3702 151.76 90.1502 147.7 84.1802 139.57C78.2102 131.44 75.2202 120.19 75.2202 105.8C75.2202 91.2 78.2602 79.82 84.3402 71.67C90.4202 63.52 98.8002 59.44 109.47 59.44C120.67 59.44 129.22 63.79 135.12 72.5H135.92C134.7 65.86 134.09 59.94 134.09 54.74V26.23H158.46V150.16H139.82L135.12 138.61H134.08C128.55 147.38 120.14 151.76 108.83 151.76ZM117.35 132.41C123.56 132.41 128.11 130.61 131.01 126.99C133.9 123.38 135.48 117.25 135.75 108.59V105.96C135.75 96.4 134.28 89.5499 131.33 85.4099C128.38 81.2699 123.59 79.2 116.95 79.2C111.53 79.2 107.33 81.5 104.33 86.09C101.33 90.68 99.8302 97.36 99.8302 106.12C99.8302 114.88 101.34 121.45 104.37 125.83C107.4 130.22 111.72 132.41 117.35 132.41Z" fill="white"/>
<path d="M238.3 150.17L235.03 138.78H233.76C231.16 142.92 227.47 146.12 222.69 148.38C217.91 150.64 212.47 151.76 206.36 151.76C195.9 151.76 188.01 148.96 182.71 143.36C177.4 137.76 174.75 129.7 174.75 119.19V61.1299H199.04V113.14C199.04 119.57 200.18 124.38 202.46 127.6C204.74 130.81 208.38 132.42 213.37 132.42C220.17 132.42 225.08 130.15 228.1 125.61C231.13 121.07 232.64 113.54 232.64 103.03V61.1399H256.93V150.18H238.3V150.17Z" fill="white"/>
<path d="M442.34 105.49C442.34 119.99 438.52 131.32 430.87 139.5C423.22 147.68 412.58 151.77 398.93 151.77C390.38 151.77 382.84 149.9 376.31 146.15C369.78 142.41 364.76 137.03 361.26 130.02C357.76 123.01 356 114.83 356 105.49C356 90.9399 359.8 79.6299 367.39 71.5599C374.98 63.4899 385.66 59.45 399.41 59.45C407.96 59.45 415.5 61.31 422.03 65.03C428.56 68.75 433.58 74.0799 437.08 81.0399C440.58 87.9899 442.34 96.1399 442.34 105.49ZM380.77 105.49C380.77 114.3 382.22 120.97 385.11 125.48C388 129.99 392.72 132.25 399.25 132.25C405.73 132.25 410.39 130.01 413.23 125.52C416.07 121.03 417.49 114.36 417.49 105.49C417.49 96.6799 416.06 90.0699 413.19 85.6599C410.32 81.2499 405.62 79.0499 399.09 79.0499C392.61 79.0499 387.94 81.2399 385.07 85.6199C382.2 89.9999 380.77 96.6199 380.77 105.49Z" fill="#407BBF"/>
<path d="M535.97 151.76H511.68V99.75C511.68 93.33 510.54 88.51 508.26 85.29C505.98 82.08 502.34 80.47 497.35 80.47C490.55 80.47 485.64 82.74 482.62 87.28C479.59 91.82 478.08 99.35 478.08 109.86V151.75H453.79V62.71H472.35L475.62 74.1H476.97C479.68 69.8 483.41 66.55 488.16 64.34C492.91 62.14 498.31 61.03 504.37 61.03C514.72 61.03 522.58 63.83 527.95 69.43C533.31 75.03 535.99 83.12 535.99 93.68V151.76H535.97Z" fill="#407BBF"/>
<path d="M576.83 151.76H552.54V27.8301H576.83V151.76Z" fill="white"/>
<path d="M589.76 39.7001C589.76 31.7901 594.17 27.8301 602.98 27.8301C611.79 27.8301 616.2 31.7901 616.2 39.7001C616.2 43.4701 615.1 46.4001 612.9 48.5001C610.7 50.6001 607.39 51.6501 602.98 51.6501C594.17 51.6501 589.76 47.6601 589.76 39.7001ZM615.09 151.76H590.8V62.7201H615.09V151.76Z" fill="white"/>
<path d="M711.26 151.76H686.97V99.75C686.97 93.33 685.83 88.51 683.55 85.29C681.27 82.08 677.63 80.47 672.64 80.47C665.84 80.47 660.93 82.74 657.91 87.28C654.88 91.82 653.37 99.35 653.37 109.86V151.75H629.08V62.71H647.64L650.91 74.1H652.26C654.97 69.8 658.7 66.55 663.45 64.34C668.2 62.14 673.61 61.03 679.66 61.03C690.01 61.03 697.87 63.83 703.24 69.43C708.6 75.03 711.28 83.12 711.28 93.68V151.76H711.26Z" fill="white"/>
<path d="M768.89 151.76C754.55 151.76 743.35 147.8 735.28 139.89C727.21 131.98 723.17 120.77 723.17 106.28C723.17 91.36 726.9 79.8199 734.36 71.6699C741.82 63.5199 752.13 59.4399 765.3 59.4399C777.88 59.4399 787.68 63.0199 794.69 70.1899C801.7 77.3599 805.2 87.26 805.2 99.9V111.69H747.78C748.05 118.59 750.09 123.98 753.91 127.86C757.73 131.74 763.1 133.67 770 133.67C775.36 133.67 780.43 133.11 785.21 132C789.99 130.88 794.98 129.11 800.18 126.66V145.46C795.93 147.58 791.39 149.16 786.56 150.2C781.74 151.24 775.85 151.76 768.89 151.76ZM765.47 76.7299C760.32 76.7299 756.28 78.3599 753.36 81.6299C750.44 84.8999 748.77 89.53 748.34 95.53H782.43C782.32 89.53 780.76 84.8999 777.73 81.6299C774.71 78.3699 770.62 76.7299 765.47 76.7299Z" fill="white"/>
<path d="M313.39 151.76C285.67 151.76 271.81 136.55 271.81 106.12C271.81 90.9899 275.58 79.4299 283.12 71.4299C290.66 63.4399 301.46 59.4399 315.54 59.4399C325.84 59.4399 335.08 61.4599 343.26 65.4899L336.09 84.2899C332.27 82.7499 328.71 81.4899 325.42 80.5099C322.13 79.5299 318.84 79.0399 315.54 79.0399C302.9 79.0399 296.58 88.01 296.58 105.96C296.58 123.38 302.9 132.08 315.54 132.08C320.21 132.08 324.54 131.46 328.52 130.21C332.5 128.96 336.48 127.01 340.47 124.36V145.15C336.54 147.65 332.57 149.37 328.56 150.33C324.56 151.28 319.5 151.76 313.39 151.76Z" fill="white"/>
</svg>
