<svg width="24" height="23" viewBox="0 0 24 23" fill="none" xmlns="http://www.w3.org/2000/svg">
<path d="M23.8534 6.20212C23.7042 5.99345 23.5039 5.88911 23.2526 5.88911H7.25614L6.03107 1.78528C5.92113 1.41431 5.77193 1.09745 5.58345 0.834677C5.39498 0.571909 5.19473 0.386425 4.9827 0.278226C4.77067 0.170027 4.58613 0.0966062 4.42907 0.0579637C4.27201 0.0193212 4.11495 0 3.95789 0H0.730325C0.526148 0 0.353383 0.0695565 0.21203 0.208669C0.0706766 0.347782 0 0.525538 0 0.741935C0 0.865591 0.0314118 0.985383 0.0942355 1.10131C0.157059 1.21724 0.247368 1.30612 0.365163 1.36794C0.482957 1.42977 0.604678 1.46069 0.730325 1.46069H3.95789C4.02072 1.46069 4.07961 1.46841 4.13458 1.48387C4.18955 1.49933 4.26416 1.56502 4.35839 1.68095C4.45263 1.79688 4.53116 1.97077 4.59398 2.20262L8.7639 17.2732C8.79532 17.3659 8.84636 17.4548 8.91704 17.5398C8.98771 17.6248 9.07017 17.6905 9.1644 17.7369C9.25864 17.7833 9.36073 17.8065 9.47067 17.8065H19.6481C19.8052 17.8065 19.9504 17.7601 20.0839 17.6673C20.2174 17.5746 20.3078 17.4587 20.3549 17.3196L23.9594 6.88609C24.0379 6.63878 24.0026 6.41079 23.8534 6.20212ZM19.1298 16.3226H10.0596L7.65664 7.37298H22.1689L19.1298 16.3226ZM17.6456 19.2903C17.1273 19.2903 16.6836 19.4719 16.3145 19.8352C15.9454 20.1984 15.7609 20.6351 15.7609 21.1452C15.7609 21.6552 15.9454 22.0919 16.3145 22.4551C16.6836 22.8184 17.1273 23 17.6456 23C18.1639 23 18.6076 22.8184 18.9767 22.4551C19.3458 22.0919 19.5303 21.6552 19.5303 21.1452C19.5303 20.6351 19.3458 20.1984 18.9767 19.8352C18.6076 19.4719 18.1639 19.2903 17.6456 19.2903ZM10.8606 19.2903C10.5151 19.2903 10.1971 19.3753 9.90651 19.5454C9.61595 19.7154 9.38821 19.9395 9.2233 20.2177C9.05839 20.496 8.97593 20.8051 8.97593 21.1452C8.97593 21.6552 9.16048 22.0919 9.52957 22.4551C9.89866 22.8184 10.3423 23 10.8606 23C11.3789 23 11.8226 22.8184 12.1917 22.4551C12.5608 22.0919 12.7454 21.6552 12.7454 21.1452C12.7454 21.0215 12.7336 20.8979 12.71 20.7742C12.6865 20.6505 12.6511 20.5346 12.604 20.4264C12.5569 20.3182 12.498 20.2139 12.4273 20.1134C12.3566 20.0129 12.2781 19.9202 12.1917 19.8352C12.1053 19.7502 12.0111 19.6729 11.909 19.6033C11.8069 19.5338 11.7009 19.4758 11.591 19.4294C11.481 19.3831 11.3632 19.3483 11.2376 19.3251C11.1119 19.3019 10.9863 19.2903 10.8606 19.2903Z" fill="white"/>
</svg>
