<svg width="599" height="162" viewBox="0 0 599 162" fill="none" xmlns="http://www.w3.org/2000/svg">
<path d="M318.5 162H8.5C3.8 162 0 158.19 0 153.5V8.5C0 3.8 3.81 0 8.5 0H318.49C323.19 0 326.99 3.81 326.99 8.5V153.49C327 158.19 323.19 162 318.5 162Z" fill="white"/>
<path d="M100.36 141.42H30.4697V20.0596H100.36V41.1396H56.1997V67.7896H97.2897V88.8696H56.1997V120.16H100.36V141.42Z" fill="#407BBF"/>
<path d="M143.07 143.08C132.17 143.08 123.6 138.85 117.38 130.38C111.16 121.91 108.04 110.18 108.04 95.18C108.04 79.96 111.21 68.11 117.54 59.61C123.88 51.12 132.61 46.87 143.73 46.87C155.41 46.87 164.32 51.41 170.46 60.48H171.29C170.02 53.56 169.38 47.39 169.38 41.97V12.25H194.78V141.41H175.36L170.46 129.37H169.38C163.63 138.52 154.86 143.08 143.07 143.08ZM151.96 122.91C158.43 122.91 163.18 121.03 166.2 117.27C169.22 113.51 170.86 107.12 171.14 98.1V95.36C171.14 85.4 169.6 78.26 166.53 73.94C163.46 69.62 158.46 67.47 151.55 67.47C145.91 67.47 141.52 69.86 138.39 74.65C135.26 79.44 133.7 86.4 133.7 95.53C133.7 104.66 135.28 111.51 138.43 116.07C141.58 120.63 146.09 122.91 151.96 122.91Z" fill="#407BBF"/>
<path d="M278.01 141.42L274.61 129.55H273.28C270.57 133.87 266.72 137.2 261.74 139.55C256.76 141.9 251.09 143.08 244.72 143.08C233.82 143.08 225.6 140.16 220.07 134.32C214.54 128.48 211.77 120.08 211.77 109.13V48.6201H237.09V102.82C237.09 109.52 238.28 114.54 240.66 117.89C243.04 121.24 246.83 122.91 252.03 122.91C259.11 122.91 264.23 120.54 267.39 115.81C270.55 111.08 272.12 103.23 272.12 92.2802V48.6201H297.44V141.42H278.01Z" fill="#407BBF"/>
<path d="M371.54 39.7401C361.86 39.7401 354.36 43.3801 349.04 50.6601C343.73 57.9401 341.07 68.0801 341.07 81.0801C341.07 108.14 351.22 121.67 371.53 121.67C380.05 121.67 390.37 119.54 402.49 115.28V136.86C392.53 141.01 381.41 143.09 369.12 143.09C351.47 143.09 337.96 137.74 328.61 127.03C319.26 116.32 314.58 100.95 314.58 80.92C314.58 68.3 316.88 57.2501 321.47 47.7601C326.06 38.2701 332.66 30.9901 341.27 25.9301C349.87 20.8701 359.96 18.3301 371.53 18.3301C383.32 18.3301 395.16 21.1801 407.06 26.8801L398.76 47.8C394.22 45.64 389.66 43.7601 385.06 42.1601C380.47 40.5401 375.96 39.7401 371.54 39.7401Z" fill="white"/>
<path d="M500.66 94.8504C500.66 109.96 496.68 121.77 488.71 130.29C480.74 138.81 469.65 143.07 455.42 143.07C446.51 143.07 438.65 141.12 431.85 137.22C425.05 133.32 419.81 127.72 416.16 120.41C412.51 113.1 410.68 104.58 410.68 94.8404C410.68 79.6804 414.64 67.8903 422.55 59.4803C430.46 51.0703 441.59 46.8604 455.92 46.8604C464.83 46.8604 472.69 48.8003 479.49 52.6703C486.3 56.5403 491.53 62.1104 495.18 69.3504C498.83 76.6204 500.66 85.1104 500.66 94.8504ZM436.49 94.8504C436.49 104.04 438 110.98 441.01 115.68C444.02 120.38 448.94 122.74 455.74 122.74C462.49 122.74 467.35 120.4 470.31 115.73C473.27 111.05 474.75 104.1 474.75 94.8504C474.75 85.6604 473.26 78.7704 470.27 74.1804C467.28 69.5904 462.38 67.2903 455.58 67.2903C448.83 67.2903 443.96 69.5704 440.97 74.1404C437.98 78.7104 436.49 85.6104 436.49 94.8504Z" fill="white"/>
<path d="M598.24 141.42H572.92V87.2199C572.92 80.5199 571.73 75.4999 569.35 72.1499C566.97 68.7999 563.18 67.1299 557.98 67.1299C550.9 67.1299 545.78 69.4999 542.62 74.2299C539.46 78.9599 537.89 86.8099 537.89 97.7599V141.42H512.57V48.6199H531.91L535.31 60.4899H536.72C539.54 56.0099 543.43 52.6199 548.38 50.3199C553.33 48.0199 558.96 46.8799 565.27 46.8799C576.06 46.8799 584.25 49.7999 589.84 55.6399C595.43 61.4799 598.22 69.8999 598.22 80.9199V141.42H598.24Z" fill="white"/>
</svg>
