<svg width="31" height="31" viewBox="0 0 31 31" fill="none" xmlns="http://www.w3.org/2000/svg">
<circle cx="15.5" cy="15.5" r="15.5" fill="#FF5773"/>
<path d="M13.7162 9.6967L13.7341 9.69347L13.7512 9.6877C14.0758 9.57869 14.7301 9.51513 15.7515 9.51513H20.5063V11.2245H15.4184C14.386 11.2245 13.5582 11.4292 12.9721 11.8757C12.1891 12.3278 11.6185 13.1806 11.232 14.3758L11.2283 14.3873L11.2257 14.3991C11.1366 14.8051 11.0899 15.1656 11.0899 15.4779C11.0899 16.5358 11.454 17.5201 12.1672 18.4253L12.1745 18.4346L12.1827 18.4431C12.6415 18.9242 13.0876 19.2633 13.522 19.4363C14.0019 19.6687 14.6291 19.7755 15.3859 19.7755H20.5063V21.4849H15.6459C14.3424 21.4849 13.419 21.3111 12.8413 20.9943L12.8345 20.9906L12.8276 20.9873C11.4746 20.3501 10.5077 19.3041 9.92314 17.8341C9.63737 17.1049 9.49374 16.326 9.49374 15.4956C9.49374 13.7118 10.1401 12.1936 11.4419 10.9273C12.3058 10.2137 13.063 9.81513 13.7162 9.6967ZM11.9394 14.5877C12.2864 13.5367 12.7706 12.8701 13.3649 12.5312L13.3803 12.5224L13.3944 12.5115C13.8255 12.1766 14.4871 11.9896 15.4184 11.9896H21H21.25V11.7396V9V8.75H21H15.7515C14.7271 8.75 13.9855 8.80881 13.5609 8.94291C12.76 9.09837 11.8903 9.57309 10.9545 10.335L10.9459 10.3421L10.9379 10.3499C9.48215 11.7689 8.75 13.4887 8.75 15.4956C8.75 16.4205 8.90956 17.2968 9.23004 18.1224L9.23002 18.1224L9.23124 18.1255C9.89157 19.7629 10.9855 20.9537 12.5096 21.6835C13.2209 22.0713 14.2776 22.25 15.6459 22.25H21H21.25V22V19.2604V19.0104H21H15.3859C14.6949 19.0104 14.1838 18.912 13.8321 18.7363L13.8213 18.7308L13.81 18.7265C13.4918 18.6043 13.132 18.3468 12.7317 17.9301C12.1276 17.1524 11.8336 16.3367 11.8336 15.4779C11.8336 15.2382 11.8676 14.9424 11.9394 14.5877ZM20.5063 14.6586V16.3414H15.1322V14.6586H20.5063ZM14.6385 13.8934H14.3885V14.1434V16.8566V17.1066H14.6385H21H21.25V16.8566V14.1434V13.8934H21H14.6385Z" fill="white" stroke="white" stroke-width="0.5"/>
</svg>
