<svg width="22" height="22" viewBox="0 0 22 22" fill="none" xmlns="http://www.w3.org/2000/svg">
<path fill-rule="evenodd" clip-rule="evenodd" d="M11 0C4.92488 0 0 4.92488 0 11C0 17.0751 4.92488 22 11 22C17.0751 22 22 17.0751 22 11C22 4.92488 17.0751 0 11 0ZM10.9834 11.9255L6.8744 8.94276V15.2304H6.18791C5.80543 15.2304 5.50141 14.9264 5.50141 14.5439V7.59091C5.50141 7.56181 5.5032 7.53449 5.50659 7.50891C5.51906 7.39983 5.55884 7.29309 5.62892 7.19862C5.85447 6.89461 6.2958 6.82595 6.60962 7.0515L10.9933 10.2387L15.4063 7.01231C15.7103 6.78672 16.1419 6.85538 16.3674 7.1692C16.4873 7.33081 16.5241 7.52839 16.4851 7.71196V14.5537C16.4851 14.9264 16.181 15.2304 15.7986 15.2304H15.1121V8.92778L10.9834 11.9255Z" fill="white"/>
</svg>
