<svg width="151" height="41" viewBox="0 0 151 41" fill="none" xmlns="http://www.w3.org/2000/svg">
<path d="M80.3917 40.8899H2.14546C0.959147 40.8899 0 39.9283 0 38.7445V2.14546C0 0.959147 0.961671 0 2.14546 0H80.3891C81.5755 0 82.5346 0.961671 82.5346 2.14546V38.742C82.5371 39.9283 81.5755 40.8899 80.3917 40.8899Z" fill="white"/>
<path d="M25.3317 35.6954H7.69092V5.06323H25.3317V10.384H14.1854V17.1106H24.5568V22.4314H14.1854V30.3292H25.3317V35.6954Z" fill="#252841"/>
<path d="M36.112 36.1145C33.3607 36.1145 31.1976 35.0468 29.6276 32.9089C28.0577 30.771 27.2701 27.8103 27.2701 24.0242C27.2701 20.1825 28.0703 17.1915 29.668 15.046C31.2683 12.9031 33.4718 11.8304 36.2786 11.8304C39.2267 11.8304 41.4756 12.9763 43.0254 15.2656H43.2349C42.9143 13.519 42.7528 11.9616 42.7528 10.5936V3.09204H49.1639V35.693H44.2622L43.0254 32.654H42.7528C41.3015 34.9635 39.0878 36.1145 36.112 36.1145ZM38.3559 31.0234C39.9889 31.0234 41.1879 30.5489 41.9501 29.5998C42.7124 28.6508 43.1264 27.0379 43.197 24.7612V24.0696C43.197 21.5556 42.8083 19.7534 42.0334 18.663C41.2585 17.5726 39.9965 17.03 38.2524 17.03C36.8288 17.03 35.7207 17.6332 34.9307 18.8423C34.1407 20.0513 33.7469 21.808 33.7469 24.1125C33.7469 26.417 34.1457 28.146 34.9408 29.2969C35.7359 30.4479 36.8742 31.0234 38.3559 31.0234Z" fill="#252841"/>
<path d="M70.1717 35.6951L69.3135 32.699H68.9778C68.2938 33.7894 67.322 34.6299 66.0651 35.2231C64.8081 35.8163 63.3769 36.1141 61.7691 36.1141C59.0179 36.1141 56.9431 35.3771 55.5473 33.903C54.1514 32.429 53.4523 30.3087 53.4523 27.5449V12.2717H59.8432V25.9522C59.8432 27.6433 60.1436 28.9104 60.7443 29.756C61.345 30.6015 62.3017 31.0231 63.6142 31.0231C65.4012 31.0231 66.6936 30.4248 67.4912 29.231C68.2888 28.0371 68.685 26.0557 68.685 23.2918V12.2717H75.076V35.6951H70.1717Z" fill="#252841"/>
<path d="M93.7794 10.0307C91.3361 10.0307 89.4431 10.9495 88.1003 12.787C86.76 14.6246 86.0886 17.184 86.0886 20.4653C86.0886 27.2954 88.6505 30.7104 93.7769 30.7104C95.9274 30.7104 98.5323 30.1728 101.591 29.0976V34.5445C99.0775 35.592 96.2707 36.117 93.1686 36.117C88.7136 36.117 85.3036 34.7666 82.9436 32.0634C80.5836 29.3601 79.4023 25.4806 79.4023 20.4249C79.4023 17.2395 79.9829 14.4504 81.1414 12.055C82.3 9.6597 83.9659 7.82218 86.1391 6.545C88.3098 5.26782 90.8566 4.62671 93.7769 4.62671C96.7528 4.62671 99.7413 5.34607 102.745 6.78479L100.65 12.0651C99.504 11.5199 98.3531 11.0454 97.192 10.6416C96.0334 10.2327 94.8951 10.0307 93.7794 10.0307Z" fill="white"/>
<path d="M126.37 23.9409C126.37 27.7548 125.366 30.7357 123.354 32.8862C121.342 35.0367 118.543 36.112 114.951 36.112C112.702 36.112 110.718 35.6198 109.002 34.6354C107.286 33.651 105.963 32.2375 105.042 30.3924C104.12 28.5473 103.659 26.3968 103.659 23.9384C103.659 20.1119 104.658 17.136 106.655 15.0133C108.651 12.8905 111.46 11.8279 115.077 11.8279C117.326 11.8279 119.31 12.3176 121.027 13.2944C122.746 14.2712 124.066 15.6771 124.987 17.5045C125.908 19.3395 126.37 21.4825 126.37 23.9409ZM110.173 23.9409C110.173 26.2605 110.554 28.0122 111.314 29.1985C112.074 30.3849 113.316 30.9805 115.032 30.9805C116.736 30.9805 117.962 30.3899 118.71 29.2112C119.457 28.0299 119.83 26.2757 119.83 23.9409C119.83 21.6213 119.454 19.8822 118.7 18.7236C117.945 17.5651 116.708 16.9846 114.992 16.9846C113.288 16.9846 112.059 17.5601 111.304 18.7136C110.549 19.8671 110.173 21.6087 110.173 23.9409Z" fill="white"/>
<path d="M151 35.6951H144.609V22.0146C144.609 20.3235 144.309 19.0564 143.708 18.2109C143.107 17.3653 142.151 16.9438 140.838 16.9438C139.051 16.9438 137.759 17.542 136.961 18.7358C136.164 19.9297 135.767 21.9111 135.767 24.675V35.6951H129.376V12.2717H134.258L135.116 15.2678H135.472C136.184 14.137 137.166 13.2813 138.415 12.7008C139.664 12.1203 141.086 11.8325 142.678 11.8325C145.402 11.8325 147.469 12.5696 148.88 14.0436C150.291 15.5177 150.995 17.6429 150.995 20.4245V35.6951H151Z" fill="white"/>
</svg>
