<svg width="22" height="22" viewBox="0 0 22 22" fill="none" xmlns="http://www.w3.org/2000/svg">
<path fill-rule="evenodd" clip-rule="evenodd" d="M11 0C17.0751 0 22 4.92487 22 11C22 17.0751 17.0751 22 11 22C4.92487 22 0 17.0751 0 11C0 4.92487 4.92487 0 11 0ZM13.9306 9.60594C13.8771 9.17129 13.7435 8.83001 13.5063 8.52771C13.1982 8.13846 12.8045 7.90537 12.2217 7.7671C11.8418 7.67494 11.6884 7.68552 11.551 7.81101C11.423 7.92858 11.3981 8.16427 11.4958 8.3169C11.5646 8.42768 11.6439 8.46737 11.8646 8.51068C12.1584 8.56474 12.3615 8.63491 12.5462 8.74053C12.9383 8.96691 13.1209 9.32118 13.1405 9.89471C13.1496 10.164 13.1728 10.2468 13.2669 10.3423C13.4412 10.5169 13.7515 10.4829 13.8831 10.274C13.9314 10.1953 13.9387 10.161 13.9438 9.97813C13.9472 9.86492 13.9423 9.69642 13.9306 9.60594ZM13.9359 6.93924C14.868 7.69302 15.3888 8.76438 15.4663 10.096C15.4989 10.6205 15.4556 10.7913 15.2705 10.8886C15.1036 10.9788 14.9144 10.9491 14.7846 10.8134C14.6986 10.7251 14.6656 10.6043 14.6669 10.3905C14.6707 9.79939 14.5345 9.13925 14.313 8.68117C14.0567 8.14803 13.6606 7.69433 13.1622 7.36262C12.7257 7.07128 12.148 6.87449 11.5878 6.82548C11.2245 6.79369 11.0948 6.73216 11.025 6.55798C10.9818 6.45379 10.9932 6.27366 11.0439 6.19298C11.0918 6.11859 11.1992 6.03632 11.2752 6.01457C11.3557 5.99108 11.8251 6.03214 12.08 6.0828C12.7758 6.22444 13.4107 6.51569 13.9359 6.93924ZM17.1656 15.2242C17.1396 15.148 17.0788 15.0306 17.0354 14.9632C16.7618 14.5501 15.2921 13.3999 14.5583 13.0238C14.1393 12.8085 13.8288 12.7368 13.5987 12.8042C13.3512 12.8738 13.2209 12.989 12.8063 13.5043C12.6391 13.7109 12.4676 13.9044 12.422 13.9348C12.3091 14.0131 12.0877 14.0762 11.9314 14.0762C11.5688 14.0739 10.911 13.8391 10.4052 13.5304C10.0122 13.2912 9.5086 12.8629 9.12214 12.4389C8.66621 11.941 8.3558 11.5018 8.11045 11.0061C7.79351 10.369 7.71318 9.97981 7.84559 9.69497C7.87816 9.62323 7.92159 9.54715 7.9411 9.5232C7.96066 9.50149 8.16474 9.33405 8.3905 9.15141C8.8334 8.79919 8.90503 8.71875 8.98753 8.4774C9.09173 8.17081 9.06353 7.85772 8.90287 7.54246C8.77911 7.30328 8.45564 6.78146 8.22118 6.44446C7.91073 6.00092 7.13786 5.05294 6.9837 4.92462C6.70582 4.69852 6.34981 4.65936 5.95682 4.81159C5.5422 4.97249 4.76497 5.59867 4.4328 6.03571C4.1332 6.43141 4.01818 6.71188 4.00079 7.08151C3.98561 7.3859 4.01165 7.51201 4.17231 7.90122C5.4293 10.9539 7.30501 13.3912 9.88199 15.3264C11.228 16.3374 12.6239 17.1071 14.072 17.6333C14.9165 17.9398 15.2834 17.955 15.7154 17.7028C15.8977 17.5941 16.3493 17.131 16.6011 16.794C17.018 16.233 17.1721 15.9743 17.2155 15.7677C17.2459 15.6264 17.2221 15.3807 17.1656 15.2242ZM16.6105 8.34191C16.875 9.03076 17.0018 9.6486 17.0296 10.4018C17.034 10.5507 17.0319 10.8233 17.0223 11.008C17.0023 11.362 16.983 11.4323 16.8811 11.526C16.7173 11.6797 16.398 11.6431 16.2769 11.4578C16.2137 11.3584 16.2048 11.2856 16.217 10.872C16.2521 9.64851 16.0047 8.69052 15.4086 7.73261C14.6962 6.58336 13.6307 5.80917 12.2452 5.43041C11.8919 5.334 11.5941 5.27525 11.131 5.2129C10.8293 5.17342 10.7633 5.15672 10.6888 5.1109C10.4639 4.96684 10.4609 4.60207 10.6851 4.45582C10.8008 4.37862 10.8861 4.37517 11.2633 4.42346C12.3691 4.56166 13.3559 4.89026 14.1668 5.38682C14.7479 5.74321 15.1144 6.06338 15.5862 6.62411C16.0852 7.22216 16.3494 7.66432 16.6105 8.34191Z" fill="white"/>
</svg>
