<svg width="22" height="22" viewBox="0 0 22 22" fill="none" xmlns="http://www.w3.org/2000/svg">
<path fill-rule="evenodd" clip-rule="evenodd" d="M11 22C4.92487 22 0 17.0751 0 11C0 4.92487 4.92487 0 11 0C17.0751 0 22 4.92487 22 11C22 17.0751 17.0751 22 11 22ZM11.3626 17.1199C14.9689 17.1184 17.902 14.1846 17.9035 10.579C17.9042 8.83132 17.2244 7.18796 15.9895 5.95165C14.7546 4.71527 13.1123 4.03409 11.3625 4.03333C7.75721 4.03333 4.82294 6.96744 4.82151 10.5739C4.82102 11.7267 5.12221 12.8519 5.69461 13.8439L4.76667 17.2333L8.23412 16.3237C9.18949 16.8449 10.2652 17.1195 11.3599 17.1199H11.3626Z" fill="white"/>
<path fill-rule="evenodd" clip-rule="evenodd" d="M8.3948 15.1397L6.33717 15.6794L6.88638 13.6733L6.75712 13.4676C6.21291 12.602 5.92548 11.6016 5.9259 10.5743C5.92709 7.57682 8.36595 5.13818 11.3647 5.13818C12.8169 5.13869 14.1819 5.70489 15.2083 6.73252C16.2347 7.76015 16.7997 9.12604 16.7991 10.5787C16.7979 13.5764 14.3591 16.0153 11.3626 16.0153H11.3604C10.3849 16.0149 9.42803 15.7528 8.59332 15.2575L8.3948 15.1397ZM14.6579 12.1345C14.617 12.0663 14.5081 12.0254 14.3447 11.9436C14.1812 11.8618 13.3777 11.4665 13.2279 11.4119C13.0781 11.3573 12.9691 11.3301 12.8602 11.4937C12.7512 11.6573 12.438 12.0254 12.3427 12.1345C12.2473 12.2435 12.152 12.2572 11.9886 12.1754C11.8252 12.0936 11.2985 11.921 10.6743 11.3642C10.1884 10.9308 9.8604 10.3956 9.76506 10.232C9.66972 10.0684 9.7549 9.97997 9.83672 9.89847C9.91025 9.82522 10.0002 9.70754 10.0819 9.61213C10.1636 9.51672 10.1908 9.4485 10.2453 9.33951C10.2998 9.23038 10.2725 9.13497 10.2317 9.05316C10.1908 8.97135 9.86397 8.16688 9.72778 7.83963C9.5951 7.52094 9.46037 7.56411 9.36006 7.55908C9.26483 7.55429 9.15576 7.55329 9.04682 7.55329C8.93787 7.55329 8.76079 7.59419 8.61099 7.75782C8.46118 7.92144 8.03898 8.31685 8.03898 9.12125C8.03898 9.92572 8.6246 10.7029 8.70633 10.8119C8.78804 10.9211 9.85877 12.5718 11.4983 13.2798C11.8882 13.4482 12.1926 13.5487 12.43 13.624C12.8215 13.7485 13.1778 13.7309 13.4594 13.6888C13.7734 13.6419 14.4264 13.2935 14.5626 12.9117C14.6987 12.5299 14.6987 12.2026 14.6579 12.1345Z" fill="white"/>
</svg>
