<svg width="71" height="118" viewBox="0 0 71 118" fill="none" xmlns="http://www.w3.org/2000/svg">
<path d="M60.4217 34.601C61.336 31.9623 61.8357 29.1329 61.8439 26.1884C61.8822 11.948 50.2353 0.199137 35.8723 0.00254766C21.1526 -0.198882 9.15614 11.57 9.15614 26.1167C9.15614 29.119 9.66747 32.0029 10.6085 34.6876C11.9285 38.4535 11.2524 42.6052 8.8612 45.8105C3.37953 53.1583 0.0556641 62.7926 0.0556641 73.3414C0.0556641 96.3915 15.9247 115.077 35.5 115.077C55.0753 115.077 70.9443 96.3915 70.9443 73.3414C70.9443 62.7931 67.6207 53.159 62.1395 45.8114C59.7288 42.5796 59.1045 38.4023 60.4217 34.601Z" fill="#E82A40"/>
<path d="M62.1396 45.8113C59.7289 42.5797 59.1046 38.4024 60.4218 34.6011C61.3361 31.9624 61.8358 29.133 61.844 26.1885C61.8823 11.9481 50.2354 0.199233 35.8725 0.00264272C34.5225 -0.0157948 33.1959 0.067174 31.899 0.243022C44.747 1.99343 54.6949 13.0262 54.6591 26.1885C54.6512 29.133 54.1513 31.9624 53.2369 34.6011C51.9198 38.4024 52.5441 42.5797 54.9548 45.8113C60.436 53.1589 63.7596 62.7929 63.7596 73.3413C63.7596 94.9634 49.7957 112.745 31.9076 114.865C33.089 115.005 34.2873 115.077 35.4999 115.077C55.0751 115.077 70.9442 96.3916 70.9442 73.3415C70.9444 62.7929 67.6208 53.1589 62.1396 45.8113Z" fill="#DB283D"/>
<path d="M60.4216 34.6009C61.336 31.9622 61.8357 29.1328 61.8438 26.1883C61.8822 11.949 50.2369 0.200875 35.8755 0.00244141V45.1105C35.8755 45.1105 35.0467 73.0368 70.7644 77.5669C70.8832 76.1772 70.9443 74.7674 70.9443 73.3408C70.9443 62.7925 67.6207 53.1584 62.1395 45.8109C59.7288 42.5795 59.1045 38.4022 60.4216 34.6009Z" fill="#70D7E5"/>
<path d="M62.1395 45.8111C59.7288 42.5795 59.1045 38.4022 60.4217 34.6009C61.336 31.9622 61.8357 29.1328 61.8439 26.1883C61.8822 11.949 50.237 0.200875 35.8756 0.00244141V1.1027C46.7423 4.35438 54.6909 14.4201 54.659 26.1883C54.6511 29.1328 54.1512 31.9622 53.2368 34.6009C51.9197 38.4022 52.544 42.5795 54.9547 45.8111C60.4359 53.1587 63.7595 62.7927 63.7595 73.3411C63.7595 74.3212 63.7286 75.2927 63.6719 76.2558C65.861 76.7983 68.2166 77.244 70.7642 77.5672C70.883 76.1774 70.9441 74.7677 70.9441 73.3411C70.9443 62.7927 67.6207 53.1587 62.1395 45.8111Z" fill="#42C7DA"/>
<path d="M9.15614 26.1167C9.15614 29.119 9.66747 32.0029 10.6085 34.6876C11.9285 38.4535 11.2524 42.6052 8.8612 45.8105C3.37953 53.1583 0.0556641 62.7926 0.0556641 73.3414C0.0556641 74.7986 0.11958 76.2382 0.243461 77.6569C36.7121 73.4209 35.8723 45.1108 35.8723 45.1108V0.00254766C21.1526 -0.198882 9.15614 11.57 9.15614 26.1167Z" fill="#70D7E5"/>
<path d="M35.5 45.1106C46.0812 45.1106 54.659 36.6068 54.659 26.1168C54.659 15.6268 46.0812 7.12292 35.5 7.12292C24.9188 7.12292 16.341 15.6268 16.341 26.1168C16.341 36.6068 24.9188 45.1106 35.5 45.1106Z" fill="#FCB58A"/>
<path d="M35.5 7.12268C34.2719 7.12268 33.0721 7.24252 31.9077 7.46239C40.7602 9.13467 47.4744 16.8607 47.4744 26.1168C47.4744 35.3728 40.7602 43.0989 31.9077 44.7711C33.0721 44.991 34.2719 45.1108 35.5 45.1108C46.0645 45.1108 54.659 36.5902 54.659 26.117C54.659 15.6438 46.0645 7.12268 35.5 7.12268Z" fill="#F9977C"/>
<path d="M35.5 7.12268C46.0645 7.12268 54.659 15.6433 54.659 26.1165C35.8377 21.3408 35.5 7.12268 35.5 7.12268Z" fill="#FECE3F"/>
<path d="M35.5001 7.12268C24.9356 7.12268 16.3411 15.6433 16.3411 26.1165C35.1624 21.3408 35.5001 7.12268 35.5001 7.12268Z" fill="#FECE3F"/>
<path d="M62.8008 118H8.19932C6.84337 118 5.91694 116.639 6.42246 115.39L10.2639 105.897C10.5554 105.176 11.2589 104.704 12.0408 104.704H58.9593C59.7414 104.704 60.4447 105.176 60.7362 105.897L64.5777 115.39C65.0832 116.639 64.1567 118 62.8008 118Z" fill="#FECE3F"/>
<path d="M64.5775 115.39L60.7361 105.897C60.4446 105.176 59.7411 104.704 58.9592 104.704H51.7746C52.5567 104.704 53.26 105.176 53.5515 105.897L57.3929 115.39C57.8984 116.639 56.972 118 55.6161 118H62.8007C64.1566 118 65.0831 116.639 64.5775 115.39Z" fill="#FDB720"/>
<path d="M49.2319 84.4655C49.2319 86.1504 46.5902 87.3021 45.9773 88.7674C45.3421 90.2862 46.3646 92.9472 45.2099 94.0919C44.0554 95.2365 41.3712 94.2229 39.8393 94.8527C38.3613 95.4602 37.1997 98.0793 35.5 98.0793C33.8005 98.0793 32.6387 95.4602 31.1607 94.8527C29.6286 94.2229 26.9445 95.2365 25.7899 94.0919C24.6354 92.9474 25.6579 90.2864 25.0227 88.7677C24.4098 87.3026 21.7681 86.1507 21.7681 84.4657C21.7681 82.7808 24.4098 81.6291 25.0227 80.1638C25.6579 78.645 24.6354 75.984 25.7901 74.8393C26.9446 73.6948 29.6288 74.7084 31.1607 74.0785C32.6387 73.471 33.8003 70.8519 35.5 70.8519C37.1995 70.8519 38.3613 73.471 39.8393 74.0785C41.3714 74.7084 44.0554 73.6948 45.2101 74.8393C46.3646 75.9838 45.3421 78.6448 45.9773 80.1636C46.59 81.6287 49.2319 82.7805 49.2319 84.4655Z" fill="#FECE3F"/>
<path d="M29.9919 25.2194C29.0292 25.2194 28.2487 25.9933 28.2487 26.9479V28.3724C28.2487 29.327 29.0292 30.1009 29.9919 30.1009C30.9545 30.1009 31.735 29.327 31.735 28.3724V26.9479C31.735 25.9933 30.9545 25.2194 29.9919 25.2194Z" fill="#943F1C"/>
<path d="M41.0082 25.2194C40.0455 25.2194 39.265 25.9933 39.265 26.9479V28.3724C39.265 29.327 40.0455 30.1009 41.0082 30.1009C41.9709 30.1009 42.7513 29.327 42.7513 28.3724V26.9479C42.7513 25.9933 41.9709 25.2194 41.0082 25.2194Z" fill="#943F1C"/>
</svg>
