<svg width="108" height="110" viewBox="0 0 108 110" fill="none" xmlns="http://www.w3.org/2000/svg">
<path d="M63.9844 81.5312H89.5781V85.25H63.9844V81.5312Z" fill="#006DF0"/>
<path d="M38.3906 70.375H23.7656C23.2808 70.375 22.8158 70.1791 22.4729 69.8304C22.1301 69.4817 21.9375 69.0088 21.9375 68.5156V40.625H18.2812V68.5156C18.2812 69.995 18.8591 71.4138 19.8876 72.4599C20.9161 73.5061 22.3111 74.0937 23.7656 74.0937H38.3906C38.8755 74.0937 39.3405 73.8979 39.6833 73.5491C40.0261 73.2004 40.2188 72.7275 40.2188 72.2344C40.2188 71.7412 40.0261 71.2683 39.6833 70.9196C39.3405 70.5709 38.8755 70.375 38.3906 70.375Z" fill="#2488FF"/>
<path d="M87.75 96.4062V53.6406C87.75 51.6681 86.9796 49.7763 85.6082 48.3815C84.2369 46.9867 82.3769 46.2031 80.4375 46.2031H76.7812V31.3281H80.4375C86.2557 31.3281 91.8356 33.6789 95.9497 37.8633C100.064 42.0477 102.375 47.723 102.375 53.6406V96.4062H87.75Z" fill="#9BC9FF"/>
<path d="M80.4375 31.3281H76.7812C82.5994 31.3281 88.1793 33.6789 92.2934 37.8633C96.4075 42.0477 98.7188 47.723 98.7188 53.6406V96.4062H102.375V53.6406C102.375 47.723 100.064 42.0477 95.9497 37.8633C91.8356 33.6789 86.2557 31.3281 80.4375 31.3281Z" fill="#57A4FF"/>
<path d="M56.5527 15.99L58.702 7.83641L69.2966 10.7255L67.1472 18.8791L56.5527 15.99Z" fill="#004FAC"/>
<path d="M74.2036 20.8042L64.7339 56.7273L62.9789 56.2439L59.4324 55.277L52.3758 53.3618L41.7727 50.4612L40.0177 49.9964L49.4874 14.0732L56.5439 15.9884L61.8455 17.4387L74.2036 20.8042Z" fill="#2488FF"/>
<path d="M61.84 17.4368L56.5421 15.9939L61.84 17.4368Z" fill="#9BC9FF"/>
<path d="M102.375 96.0511C100.709 95.0661 98.8172 94.5471 96.8906 94.5469H21.9375C19.0284 94.5469 16.2385 95.7223 14.1814 97.8145C12.1244 99.9067 10.9688 102.744 10.9688 105.703V109.422H107.859V105.703C107.859 103.746 107.352 101.824 106.389 100.129C105.427 98.4349 104.042 97.0283 102.375 96.0511Z" fill="#004FAC"/>
<path d="M102.375 96.0511C100.709 95.0661 98.8172 94.5471 96.8906 94.5469H93.2344C96.1417 94.5528 98.9283 95.73 100.984 97.821C103.04 99.9119 104.197 102.746 104.203 105.703V109.422H107.859V105.703C107.859 103.746 107.352 101.824 106.389 100.129C105.427 98.4349 104.042 97.0283 102.375 96.0511Z" fill="#00479B"/>
<path d="M80.0719 41.6477C79.5107 43.7785 78.341 45.6923 76.7107 47.1471C75.0804 48.6019 73.0626 49.5325 70.9124 49.8213C68.7622 50.11 66.5761 49.7439 64.6304 48.7693C62.6847 47.7946 61.0668 46.2552 59.9811 44.3455C58.8955 42.4358 58.3908 40.2417 58.5309 38.0403C58.671 35.839 59.4496 33.7293 60.7682 31.978C62.0869 30.2266 63.8865 28.9121 65.9395 28.2008C67.9925 27.4894 70.2067 27.413 72.3024 27.9813C75.1117 28.7502 77.5069 30.6203 78.9632 33.1819C80.4195 35.7435 80.8182 38.7877 80.0719 41.6477Z" fill="#FF6243"/>
<path d="M61.9734 9.77055L65.5053 10.7337C66.433 10.9868 67.4005 11.0515 68.3528 10.9242C69.305 10.7969 70.2233 10.4801 71.0552 9.9918C71.887 9.50351 72.6161 8.85333 73.2009 8.07839C73.7856 7.30346 74.2145 6.41895 74.4631 5.47539L56.7961 0.66333C56.548 1.60707 56.485 2.5913 56.6109 3.55979C56.7368 4.52827 57.0491 5.46205 57.5299 6.30777C58.0106 7.15349 58.6505 7.8946 59.4129 8.48875C60.1754 9.0829 61.0454 9.51846 61.9734 9.77055Z" fill="#808285"/>
<path d="M52.3758 53.3579L59.4397 55.2824L52.3758 53.3579Z" fill="#9BC9FF"/>
<path d="M45.3139 51.4316L43.42 58.6163L50.4838 60.5407L54.0158 61.5039L57.5477 62.4652L59.4398 55.2824L52.3759 53.358L45.3139 51.4316Z" fill="#004FAC"/>
<path d="M46.9517 59.5796L45.0596 66.7624L52.1235 68.6887L54.0156 61.504L50.4837 60.5409L46.9517 59.5796Z" fill="#A7A9AC"/>
<path d="M50.4838 60.5408L54.0157 61.5039L50.4838 60.5408Z" fill="#9BC9FF"/>
<path d="M65.9368 37.8025C65.7496 38.5129 65.7737 39.2638 66.0061 39.9603C66.2385 40.6567 66.6687 41.2674 67.2424 41.7152C67.816 42.163 68.5073 42.4277 69.2288 42.4759C69.9504 42.5241 70.6698 42.3536 71.296 41.986C71.9223 41.6183 72.4274 41.0701 72.7473 40.4105C73.0672 39.751 73.1877 39.0097 73.0935 38.2805C72.9993 37.5513 72.6946 36.8669 72.2179 36.3139C71.7413 35.7608 71.1141 35.3639 70.4157 35.1734C69.9519 35.0468 69.4681 35.0144 68.992 35.0781C68.5158 35.1417 68.0567 35.3002 67.6408 35.5443C67.2249 35.7885 66.8603 36.1136 66.5679 36.501C66.2756 36.8885 66.0611 37.3307 65.9368 37.8025Z" fill="#E6E7E8"/>
<path d="M32.9062 79.6719V87.1094H65.8125V83.3906V79.6719H32.9062Z" fill="#FF6243"/>
<path d="M20.1094 42.4844C31.2155 42.4844 40.2188 33.3272 40.2188 22.0312C40.2188 10.7353 31.2155 1.57812 20.1094 1.57812C9.00327 1.57812 0 10.7353 0 22.0312C0 33.3272 9.00327 42.4844 20.1094 42.4844Z" fill="#FFCD00"/>
<path d="M20.1094 1.57813C19.1916 1.58551 18.2755 1.65633 17.3672 1.7901C22.1789 2.4583 26.5896 4.87698 29.7829 8.59839C32.9761 12.3198 34.7356 17.0919 34.7356 22.0313C34.7356 26.9706 32.9761 31.7427 29.7829 35.4641C26.5896 39.1855 22.1789 41.6042 17.3672 42.2724C20.0978 42.6571 22.8771 42.4665 25.5322 41.7122C28.1873 40.958 30.6615 39.6563 32.8009 37.8881C34.9404 36.12 36.6994 33.9231 37.9685 31.4341C39.2377 28.9451 39.9899 26.2171 40.1784 23.4198C40.3669 20.6226 39.9877 17.8157 39.0642 15.1739C38.1408 12.532 36.693 10.1116 34.8107 8.06307C32.9284 6.01455 30.652 4.38173 28.1229 3.26611C25.5938 2.15049 22.8661 1.57592 20.1094 1.57813Z" fill="#EBBF00"/>
<path d="M20.1094 27.6094C23.1383 27.6094 25.5938 25.112 25.5938 22.0312C25.5938 18.9505 23.1383 16.4531 20.1094 16.4531C17.0804 16.4531 14.625 18.9505 14.625 22.0312C14.625 25.112 17.0804 27.6094 20.1094 27.6094Z" fill="#AB2300"/>
<path d="M23.7656 33.1875C23.7656 32.6944 23.573 32.2214 23.2302 31.8727C22.8873 31.524 22.4223 31.3281 21.9375 31.3281V29.2047C22.592 29.0321 23.2192 28.7661 23.8004 28.4145L25.2793 29.9187C25.1095 30.0914 24.9747 30.2963 24.8827 30.5219C24.7908 30.7475 24.7434 30.9893 24.7433 31.2336C24.7432 31.4778 24.7904 31.7196 24.8822 31.9453C24.9741 32.171 25.1087 32.376 25.2784 32.5488C25.4481 32.7216 25.6497 32.8586 25.8715 32.9522C26.0933 33.0457 26.331 33.0939 26.5712 33.094C26.8113 33.0941 27.0491 33.046 27.2709 32.9527C27.4928 32.8593 27.6944 32.7224 27.8643 32.5497L30.4511 29.9206C30.7941 29.5719 30.9869 29.099 30.9871 28.6057C30.9873 28.1125 30.7948 27.6394 30.452 27.2905C30.1092 26.9416 29.6442 26.7455 29.1592 26.7453C28.6743 26.7451 28.2091 26.9409 27.8661 27.2896L26.3872 25.7835C26.732 25.1929 26.993 24.5556 27.1623 23.8906H29.25C29.25 24.3838 29.4426 24.8567 29.7854 25.2054C30.1283 25.5541 30.5933 25.75 31.0781 25.75C31.563 25.75 32.028 25.5541 32.3708 25.2054C32.7136 24.8567 32.9062 24.3838 32.9062 23.8906V20.1719C32.9062 19.6787 32.7136 19.2058 32.3708 18.8571C32.028 18.5084 31.563 18.3125 31.0781 18.3125C30.5933 18.3125 30.1283 18.5084 29.7854 18.8571C29.4426 19.2058 29.25 19.6787 29.25 20.1719H27.1623C26.9926 19.5061 26.731 18.8682 26.3853 18.2772L27.8643 16.7711C28.2073 17.1197 28.6725 17.3155 29.1574 17.3153C29.6424 17.3151 30.1074 17.119 30.4502 16.7701C30.793 16.4213 30.9854 15.9481 30.9853 15.4549C30.9851 14.9617 30.7923 14.4887 30.4493 14.1401L27.8643 11.5128C27.5213 11.1641 27.0561 10.9683 26.5712 10.9685C26.0862 10.9687 25.6212 11.1648 25.2784 11.5137C24.9356 11.8626 24.7431 12.3357 24.7433 12.8289C24.7435 13.3222 24.9363 13.7951 25.2793 14.1438L23.8004 15.648C23.2192 15.2964 22.592 15.0304 21.9375 14.8578V12.7344C22.4223 12.7344 22.8873 12.5385 23.2302 12.1898C23.573 11.8411 23.7656 11.3681 23.7656 10.875C23.7656 10.3819 23.573 9.90892 23.2302 9.56022C22.8873 9.21152 22.4223 9.01562 21.9375 9.01562H18.2812C17.7964 9.01562 17.3314 9.21152 16.9886 9.56022C16.6457 9.90892 16.4531 10.3819 16.4531 10.875C16.4531 11.3681 16.6457 11.8411 16.9886 12.1898C17.3314 12.5385 17.7964 12.7344 18.2812 12.7344V14.8578C17.6267 15.0304 16.9995 15.2964 16.4184 15.648L14.9394 14.1438C15.1093 13.9711 15.244 13.7662 15.336 13.5406C15.428 13.315 15.4754 13.0732 15.4754 12.8289C15.4755 12.5847 15.4283 12.3429 15.3365 12.1172C15.2447 11.8915 15.1101 11.6865 14.9404 11.5137C14.7706 11.3409 14.5691 11.2039 14.3473 11.1103C14.1255 11.0168 13.8877 10.9686 13.6476 10.9685C13.4075 10.9684 13.1697 11.0165 12.9478 11.1098C12.7259 11.2032 12.5243 11.3401 12.3545 11.5128L9.76767 14.1419C9.42464 14.4906 9.23183 14.9635 9.23166 15.4568C9.23149 15.95 9.42397 16.4231 9.76676 16.772C10.1095 17.1209 10.5746 17.317 11.0595 17.3172C11.5445 17.3174 12.0096 17.1216 12.3526 16.7729L13.8316 18.279C13.4867 18.8696 13.2257 19.5069 13.0565 20.1719H10.9688C10.9688 19.6787 10.7761 19.2058 10.4333 18.8571C10.0905 18.5084 9.62547 18.3125 9.14062 18.3125C8.65578 18.3125 8.19079 18.5084 7.84795 18.8571C7.50511 19.2058 7.3125 19.6787 7.3125 20.1719V23.8906C7.3125 24.3838 7.50511 24.8567 7.84795 25.2054C8.19079 25.5541 8.65578 25.75 9.14062 25.75C9.62547 25.75 10.0905 25.5541 10.4333 25.2054C10.7761 24.8567 10.9688 24.3838 10.9688 23.8906H13.0565C13.2262 24.5564 13.4877 25.1943 13.8334 25.7853L12.3545 27.2914C12.0114 26.9428 11.5463 26.747 11.0613 26.7472C10.5764 26.7474 10.1114 26.9435 9.76859 27.2924C9.4258 27.6412 9.23332 28.1144 9.23349 28.6076C9.23366 29.1008 9.42647 29.5738 9.7695 29.9224L12.3563 32.5516C12.6993 32.9002 13.1645 33.096 13.6494 33.0958C14.1344 33.0957 14.5994 32.8996 14.9422 32.5507C15.285 32.2018 15.4774 31.7287 15.4773 31.2354C15.4771 30.7422 15.2843 30.2692 14.9413 29.9206L16.4202 28.4163C17.0009 28.7671 17.6274 29.0326 18.2812 29.2047V31.3281C17.7964 31.3281 17.3314 31.524 16.9886 31.8727C16.6457 32.2214 16.4531 32.6944 16.4531 33.1875C16.4531 33.6806 16.6457 34.1536 16.9886 34.5023C17.3314 34.851 17.7964 35.0469 18.2812 35.0469H21.9375C22.4223 35.0469 22.8873 34.851 23.2302 34.5023C23.573 34.1536 23.7656 33.6806 23.7656 33.1875ZM16.4531 22.0312C16.4531 21.2958 16.6676 20.5768 17.0693 19.9652C17.4711 19.3537 18.0421 18.877 18.7102 18.5956C19.3783 18.3141 20.1134 18.2405 20.8227 18.384C21.5319 18.5274 22.1834 18.8816 22.6947 19.4017C23.2061 19.9218 23.5543 20.5844 23.6954 21.3058C23.8364 22.0271 23.764 22.7748 23.4873 23.4544C23.2106 24.1339 22.7419 24.7147 22.1407 25.1233C21.5394 25.5319 20.8325 25.75 20.1094 25.75C19.1397 25.75 18.2097 25.3582 17.524 24.6608C16.8383 23.9634 16.4531 23.0175 16.4531 22.0312Z" fill="#D80027"/>
</svg>
