<svg width="119" height="121" viewBox="0 0 119 121" fill="none" xmlns="http://www.w3.org/2000/svg">
<g clip-path="url(#clip0)">
<path d="M86.2872 9.58045C86.2872 4.30062 90.4965 0.020752 95.6889 0.020752H22.5092C18.38 0.020752 15.0325 3.42447 15.0325 7.62305V94.1941H86.2869V24.0098V19.1404V9.58045H86.2872Z" fill="#FFE07D"/>
<path d="M90.0128 0.020752C84.8203 0.020752 80.6111 4.30086 80.6111 9.58045V47.4911C80.6111 49.7216 79.1704 51.7059 77.059 52.3113C61.4896 56.7752 50.0778 71.3223 50.0778 88.5814C50.0778 93.1188 50.867 97.4688 52.3126 101.498H80.6111H86.2873V50.9092V24.0096V9.58045C86.2873 4.30062 90.4966 0.020752 95.689 0.020752H90.0128Z" fill="#FFD064"/>
<path d="M74.924 16.5087H27.8205C26.8287 16.5087 26.0246 15.6914 26.0246 14.6827C26.0246 13.674 26.8284 12.8567 27.8205 12.8567H74.924C75.9158 12.8567 76.7198 13.674 76.7198 14.6827C76.7198 15.6914 75.9158 16.5087 74.924 16.5087Z" fill="#2B4D66"/>
<path d="M74.924 34.7165H27.8205C26.8287 34.7165 26.0246 33.8992 26.0246 32.8905C26.0246 31.8818 26.8284 31.0645 27.8205 31.0645H74.924C75.9158 31.0645 76.7198 31.8818 76.7198 32.8905C76.7198 33.8992 75.9158 34.7165 74.924 34.7165Z" fill="#2B4D66"/>
<path d="M74.924 52.9248H27.8205C26.8287 52.9248 26.0246 52.1074 26.0246 51.0987C26.0246 50.0903 26.8284 49.2727 27.8205 49.2727H74.924C75.9158 49.2727 76.7198 50.09 76.7198 51.0987C76.7198 52.1074 75.9158 52.9248 74.924 52.9248Z" fill="#2B4D66"/>
<path d="M74.924 71.133H27.8205C26.8287 71.133 26.0246 70.3157 26.0246 69.307C26.0246 68.2983 26.8284 67.481 27.8205 67.481H74.924C75.9158 67.481 76.7198 68.2983 76.7198 69.307C76.7198 70.3157 75.9158 71.133 74.924 71.133Z" fill="#2B4D66"/>
<path d="M77.6972 101.498H13.2925C5.95129 101.498 0 95.4468 0 87.982V85.5884C0 84.9558 0.5045 84.4429 1.12659 84.4429H77.6972V101.498Z" fill="#EAB14D"/>
<path d="M50.0778 88.5819C50.0778 93.1193 50.867 97.4694 52.3126 101.498H77.6973V84.4429H50.3014C50.1552 85.8025 50.0778 87.1831 50.0778 88.5819Z" fill="#E49542"/>
<path d="M87.1385 120.979C104.735 120.979 119 106.474 119 88.5819C119 70.6895 104.735 56.1848 87.1385 56.1848C69.5418 56.1848 55.2769 70.6895 55.2769 88.5819C55.2769 106.474 69.5418 120.979 87.1385 120.979Z" fill="#DD636E"/>
<path d="M87.1385 56.1848C86.2938 56.1848 85.457 56.2188 84.6288 56.2845C101.052 57.5858 113.981 71.5484 113.981 88.5819C113.981 105.615 101.052 119.578 84.6288 120.879C85.457 120.945 86.2938 120.979 87.1385 120.979C104.735 120.979 119 106.474 119 88.5819C119 70.6895 104.735 56.1848 87.1385 56.1848Z" fill="#DA4A54"/>
<path d="M87.1383 112.746C100.263 112.746 110.903 101.928 110.903 88.5818C110.903 75.2361 100.263 64.4172 87.1383 64.4172C74.0131 64.4172 63.3731 75.2361 63.3731 88.5818C63.3731 101.928 74.0131 112.746 87.1383 112.746Z" fill="#F4FBFF"/>
<path d="M87.1383 64.4172C86.0371 64.4172 84.9539 64.4952 83.8926 64.6424C95.4822 66.252 104.412 76.3556 104.412 88.5818C104.412 100.808 95.482 110.912 83.8926 112.521C84.9539 112.669 86.0371 112.746 87.1383 112.746C100.263 112.746 110.904 101.928 110.904 88.5816C110.904 75.2361 100.263 64.4172 87.1383 64.4172Z" fill="#DAF1F4"/>
<path d="M87.1384 73.6799C86.1466 73.6799 85.3425 72.8626 85.3425 71.8539V71.0174C85.3425 70.009 86.1463 69.1914 87.1384 69.1914C88.1302 69.1914 88.9342 70.0087 88.9342 71.0174V71.8539C88.9342 72.8626 88.1304 73.6799 87.1384 73.6799Z" fill="#365E7D"/>
<path d="M98.7711 78.5794C98.3114 78.5794 97.8518 78.401 97.5009 78.0442C96.7998 77.3311 96.8 76.175 97.5016 75.4621L98.0832 74.8709C98.7846 74.1583 99.9216 74.158 100.623 74.8716C101.324 75.5847 101.324 76.7409 100.622 77.4538L100.04 78.0449C99.6901 78.4013 99.2307 78.5794 98.7711 78.5794Z" fill="#365E7D"/>
<path d="M104.412 90.4077H103.59C102.598 90.4077 101.794 89.5904 101.794 88.5816C101.794 87.5729 102.598 86.7556 103.59 86.7556H104.412C105.404 86.7556 106.208 87.5729 106.208 88.5816C106.208 89.5904 105.404 90.4077 104.412 90.4077Z" fill="#365E7D"/>
<path d="M70.687 90.4077H69.8644C68.8726 90.4077 68.0686 89.5904 68.0686 88.5816C68.0686 87.5729 68.8724 86.7556 69.8644 86.7556H70.687C71.6788 86.7556 72.4829 87.5729 72.4829 88.5816C72.4829 89.5904 71.6791 90.4077 70.687 90.4077Z" fill="#365E7D"/>
<path d="M99.353 102.828C98.8936 102.828 98.4341 102.649 98.0835 102.293L97.5018 101.702C96.8003 100.989 96.8 99.8327 97.5011 99.1198C98.2022 98.406 99.3393 98.4057 100.041 99.1191L100.622 99.7103C101.324 100.423 101.324 101.58 100.623 102.292C100.272 102.649 99.8126 102.828 99.353 102.828Z" fill="#365E7D"/>
<path d="M87.1384 107.972C86.1466 107.972 85.3425 107.155 85.3425 106.146V105.309C85.3425 104.301 86.1463 103.483 87.1384 103.483C88.1302 103.483 88.9342 104.301 88.9342 105.309V106.146C88.9342 107.155 88.1304 107.972 87.1384 107.972Z" fill="#365E7D"/>
<path d="M74.9241 102.828C74.4647 102.828 74.0051 102.649 73.6542 102.293C72.9529 101.58 72.9529 100.424 73.6542 99.7106L74.2356 99.1194C74.9372 98.4065 76.074 98.4065 76.7753 99.1194C77.4766 99.8327 77.4766 100.989 76.7753 101.702L76.1939 102.293C75.8432 102.649 75.3836 102.828 74.9241 102.828Z" fill="#365E7D"/>
<path d="M75.5056 78.5794C75.0461 78.5794 74.5865 78.401 74.2356 78.0447L73.6542 77.4535C72.9529 76.7401 72.9529 75.5842 73.6542 74.8711C74.3557 74.1582 75.4925 74.1582 76.1939 74.8711L76.7753 75.4623C77.4766 76.1756 77.4766 77.3315 76.7753 78.0447C76.4249 78.4012 75.965 78.5794 75.5056 78.5794Z" fill="#365E7D"/>
<path d="M92.033 90.4077H87.1383C86.1465 90.4077 85.3425 89.5903 85.3425 88.5816V78.9444C85.3425 77.936 86.1463 77.1184 87.1383 77.1184C88.1301 77.1184 88.9342 77.9357 88.9342 78.9444V86.7556H92.033C93.0248 86.7556 93.8288 87.5729 93.8288 88.5816C93.8288 89.5903 93.025 90.4077 92.033 90.4077Z" fill="#2B4D66"/>
<path d="M103.417 24.0096H86.2871V9.58045C86.2871 4.30062 90.4965 0.020752 95.6888 0.020752C100.881 0.020752 105.091 4.30086 105.091 9.58045V22.3078C105.091 23.2478 104.342 24.0096 103.417 24.0096Z" fill="#EAB14D"/>
<path d="M98.7518 0.542474C97.7914 0.206001 96.7619 0.020752 95.689 0.020752C90.4967 0.020752 86.2873 4.30086 86.2873 9.58045V24.0096H92.4129V9.58045C92.4127 5.39156 95.0637 1.83449 98.7518 0.542474Z" fill="#E49542"/>
</g>
<defs>
<clipPath id="clip0">
<rect width="119" height="121" fill="white"/>
</clipPath>
</defs>
</svg>
