<svg width="120" height="119" viewBox="0 0 120 119" fill="none" xmlns="http://www.w3.org/2000/svg">
<path d="M87.7812 68.0981H32.2188L44.8347 47.646C45.0668 47.2699 45.1896 46.8374 45.1896 46.3965V3.7998H74.8106V46.3965C74.8106 46.8374 74.9334 47.2697 75.1654 47.646L87.7812 68.0981Z" fill="#D3E1F4"/>
<path d="M87.781 68.0981H76.3653L63.3948 47.0707V21.4534C63.3948 17.9673 60.5457 15.1417 57.0301 15.1417H45.1895V3.79956H74.8105V46.3953C74.8105 46.8383 74.9335 47.2692 75.1653 47.6452L87.781 68.0981Z" fill="#B3CBEA"/>
<path d="M86.3054 65.7039H33.6943L18.3011 90.6583C10.6461 103.068 19.6518 119 34.3213 119H85.6782C100.348 119 109.354 103.068 101.698 90.6583L86.3054 65.7039Z" fill="#31A7FB"/>
<path d="M86.3046 65.7039H74.8889L90.2824 90.6578C97.9388 103.068 88.9329 119 74.2624 119H85.6781C100.349 119 109.355 103.068 101.698 90.6578L86.3046 65.7039Z" fill="#1C96F9"/>
<path d="M76.324 7.72338H43.676C41.5254 7.72338 39.7818 5.99439 39.7818 3.86169C39.7818 1.72899 41.5251 0 43.676 0H76.324C78.4746 0 80.2181 1.72899 80.2181 3.86169C80.2181 5.99439 78.4746 7.72338 76.324 7.72338Z" fill="#EAF6FF"/>
<path d="M80.2187 3.86215C80.2187 4.92758 79.7842 5.89492 79.0792 6.59404C78.3742 7.29317 77.3987 7.72408 76.3243 7.72408H68.0692C69.1461 7.72408 70.119 7.29317 70.8242 6.59404C71.5269 5.89492 71.9638 4.92758 71.9638 3.86215C71.9635 1.72875 70.2205 0 68.0689 0H76.3241C78.4754 0 80.2187 1.72875 80.2187 3.86215Z" fill="#D3E1F4"/>
<path d="M64.4927 41.8138H53.955C52.9549 41.8138 52.1442 41.0098 52.1442 40.0181C52.1442 39.0264 52.9549 38.2224 53.955 38.2224H64.4927C65.493 38.2224 66.3035 39.0264 66.3035 40.0181C66.3035 41.0098 65.493 41.8138 64.4927 41.8138Z" fill="#84AEE1"/>
<path d="M60.4765 49.817H53.955C52.9549 49.817 52.1442 49.013 52.1442 48.0213C52.1442 47.0295 52.9549 46.2256 53.955 46.2256H60.4765C61.4768 46.2256 62.2873 47.0295 62.2873 48.0213C62.2875 49.013 61.4768 49.817 60.4765 49.817Z" fill="#84AEE1"/>
<path d="M60.4765 57.8201H53.955C52.9549 57.8201 52.1442 57.0162 52.1442 56.0245C52.1442 55.0327 52.9549 54.2288 53.955 54.2288H60.4765C61.4768 54.2288 62.2873 55.0327 62.2873 56.0245C62.2873 57.0162 61.4768 57.8201 60.4765 57.8201Z" fill="#84AEE1"/>
<path d="M60.4765 65.8233H53.955C52.9549 65.8233 52.1442 65.0194 52.1442 64.0276C52.1442 63.0359 52.9549 62.2319 53.955 62.2319H60.4765C61.4768 62.2319 62.2873 63.0359 62.2873 64.0276C62.2875 65.0194 61.4768 65.8233 60.4765 65.8233Z" fill="#84AEE1"/>
<path d="M64.4927 73.8265H53.955C52.9549 73.8265 52.1442 73.0226 52.1442 72.0308C52.1442 71.0391 52.9549 70.2351 53.955 70.2351H64.4927C65.493 70.2351 66.3035 71.0391 66.3035 72.0308C66.3035 73.0226 65.493 73.8265 64.4927 73.8265Z" fill="#1C96F9"/>
<path d="M64.4927 105.84H53.955C52.9549 105.84 52.1442 105.036 52.1442 104.044C52.1442 103.052 52.9549 102.248 53.955 102.248H64.4927C65.493 102.248 66.3035 103.052 66.3035 104.044C66.3035 105.036 65.493 105.84 64.4927 105.84Z" fill="#1C96F9"/>
<path d="M60.4765 81.8299H53.955C52.9549 81.8299 52.1442 81.026 52.1442 80.0342C52.1442 79.0425 52.9549 78.2385 53.955 78.2385H60.4765C61.4768 78.2385 62.2873 79.0425 62.2873 80.0342C62.2875 81.026 61.4768 81.8299 60.4765 81.8299Z" fill="#1C96F9"/>
<path d="M60.4765 89.8333H53.955C52.9549 89.8333 52.1442 89.0294 52.1442 88.0376C52.1442 87.0459 52.9549 86.2419 53.955 86.2419H60.4765C61.4768 86.2419 62.2873 87.0459 62.2873 88.0376C62.2875 89.0291 61.4768 89.8333 60.4765 89.8333Z" fill="#1C96F9"/>
<path d="M60.4765 97.8365H53.955C52.9549 97.8365 52.1442 97.0325 52.1442 96.0408C52.1442 95.0491 52.9549 94.2451 53.955 94.2451H60.4765C61.4768 94.2451 62.2873 95.0491 62.2873 96.0408C62.2875 97.0323 61.4768 97.8365 60.4765 97.8365Z" fill="#1C96F9"/>
</svg>
