<svg width="103" height="104" viewBox="0 0 103 104" fill="none" xmlns="http://www.w3.org/2000/svg">
<path d="M27.3594 18.4844H11.0645C9.39795 18.4844 8.04688 17.1202 8.04688 15.4375C8.04688 13.7548 9.39795 12.3906 11.0645 12.3906H27.3594C29.0259 12.3906 30.377 13.7548 30.377 15.4375C30.377 17.1202 29.0259 18.4844 27.3594 18.4844Z" fill="#5E54AC"/>
<path d="M91.9355 42.8594H75.6406C73.9741 42.8594 72.623 41.4952 72.623 39.8125C72.623 38.1298 73.9741 36.7656 75.6406 36.7656H91.9355C93.6021 36.7656 94.9531 38.1298 94.9531 39.8125C94.9531 41.4952 93.6021 42.8594 91.9355 42.8594Z" fill="#453D81"/>
<path d="M39.4297 42.8594H11.0645C9.39795 42.8594 8.04688 41.4952 8.04688 39.8125C8.04688 38.1298 9.39795 36.7656 11.0645 36.7656H39.4297C41.0962 36.7656 42.4473 38.1298 42.4473 39.8125C42.4473 41.4952 41.0962 42.8594 39.4297 42.8594Z" fill="#5E54AC"/>
<path d="M91.9355 67.2344H63.5703C61.9038 67.2344 60.5527 65.8702 60.5527 64.1875C60.5527 62.5048 61.9038 61.1406 63.5703 61.1406H91.9355C93.6021 61.1406 94.9531 62.5048 94.9531 64.1875C94.9531 65.8702 93.6021 67.2344 91.9355 67.2344Z" fill="#453D81"/>
<path d="M27.3594 67.2344H11.0645C9.39795 67.2344 8.04688 65.8702 8.04688 64.1875C8.04688 62.5048 9.39795 61.1406 11.0645 61.1406H27.3594C29.0259 61.1406 30.377 62.5048 30.377 64.1875C30.377 65.8702 29.0259 67.2344 27.3594 67.2344Z" fill="#5E54AC"/>
<path d="M91.9355 91.6094H75.6406C73.9741 91.6094 72.623 90.2452 72.623 88.5625C72.623 86.8798 73.9741 85.5156 75.6406 85.5156H91.9355C93.6021 85.5156 94.9531 86.8798 94.9531 88.5625C94.9531 90.2452 93.6021 91.6094 91.9355 91.6094Z" fill="#453D81"/>
<path d="M55.5234 85.5156H11.0645C9.39795 85.5156 8.04688 86.8798 8.04688 88.5625C8.04688 90.2452 9.39795 91.6094 11.0645 91.6094H55.5234C57.1899 91.6094 58.541 90.2452 58.541 88.5625C58.541 86.8798 57.1899 85.5156 55.5234 85.5156Z" fill="#5E54AC"/>
<path d="M91.9355 12.3906H47.4766C45.8101 12.3906 44.459 13.7548 44.459 15.4375C44.459 17.1202 45.8101 18.4844 47.4766 18.4844H91.9355C93.6021 18.4844 94.9531 17.1202 94.9531 15.4375C94.9531 13.7548 93.6021 12.3906 91.9355 12.3906Z" fill="#453D81"/>
<path d="M9.05273 104H3.01758C1.35107 104 0 102.636 0 100.953V3.04688C0 1.36419 1.35107 0 3.01758 0H9.05273C10.7192 0 12.0703 1.36419 12.0703 3.04688V100.953C12.0703 102.636 10.7192 104 9.05273 104Z" fill="#BC8173"/>
<path d="M99.9824 104H93.9473C92.2808 104 90.9297 102.636 90.9297 100.953V3.04688C90.9297 1.36419 92.2808 0 93.9473 0H99.9824C101.649 0 103 1.36419 103 3.04688V100.953C103 102.636 101.649 104 99.9824 104Z" fill="#9D5E4A"/>
<path d="M30.377 71.2969C26.4945 71.2969 23.3359 68.1076 23.3359 64.1875C23.3359 60.2674 26.4945 57.0781 30.377 57.0781C34.2594 57.0781 37.418 60.2674 37.418 64.1875C37.418 68.1076 34.2594 71.2969 30.377 71.2969Z" fill="#FF5E82"/>
<path d="M30.377 57.0781V71.2969C34.2594 71.2969 37.418 68.1076 37.418 64.1875C37.418 60.2674 34.2594 57.0781 30.377 57.0781Z" fill="#B7457D"/>
<path d="M30.377 95.6719C26.4945 95.6719 23.3359 92.4826 23.3359 88.5625C23.3359 84.6424 26.4945 81.4531 30.377 81.4531C34.2594 81.4531 37.418 84.6424 37.418 88.5625C37.418 92.4826 34.2594 95.6719 30.377 95.6719Z" fill="#FFE67A"/>
<path d="M30.377 81.4531V95.6719C34.2594 95.6719 37.418 92.4826 37.418 88.5625C37.418 84.6424 34.2594 81.4531 30.377 81.4531Z" fill="#FFC336"/>
<path d="M44.459 71.2969C40.5766 71.2969 37.418 68.1076 37.418 64.1875C37.418 60.2674 40.5766 57.0781 44.459 57.0781C48.3414 57.0781 51.5 60.2674 51.5 64.1875C51.5 68.1076 48.3414 71.2969 44.459 71.2969Z" fill="#A4E9FF"/>
<path d="M44.459 57.0781V71.2969C48.3414 71.2969 51.5 68.1076 51.5 64.1875C51.5 60.2674 48.3414 57.0781 44.459 57.0781Z" fill="#91BBFF"/>
<path d="M58.541 95.6719C54.6586 95.6719 51.5 92.4826 51.5 88.5625C51.5 84.6424 54.6586 81.4531 58.541 81.4531C62.4234 81.4531 65.582 84.6424 65.582 88.5625C65.582 92.4826 62.4234 95.6719 58.541 95.6719Z" fill="#A4E9FF"/>
<path d="M58.541 81.4531V95.6719C62.4234 95.6719 65.582 92.4826 65.582 88.5625C65.582 84.6424 62.4234 81.4531 58.541 81.4531Z" fill="#91BBFF"/>
<path d="M72.623 95.6719C68.7406 95.6719 65.582 92.4826 65.582 88.5625C65.582 84.6424 68.7406 81.4531 72.623 81.4531C76.5055 81.4531 79.6641 84.6424 79.6641 88.5625C79.6641 92.4826 76.5055 95.6719 72.623 95.6719Z" fill="#FF5E82"/>
<path d="M72.623 81.4531V95.6719C76.5055 95.6719 79.6641 92.4826 79.6641 88.5625C79.6641 84.6424 76.5055 81.4531 72.623 81.4531Z" fill="#B7457D"/>
<path d="M58.541 46.9219C54.6586 46.9219 51.5 43.7326 51.5 39.8125C51.5 35.8924 54.6586 32.7031 58.541 32.7031C62.4234 32.7031 65.582 35.8924 65.582 39.8125C65.582 43.7326 62.4234 46.9219 58.541 46.9219Z" fill="#FF5E82"/>
<path d="M58.541 32.7031V46.9219C62.4234 46.9219 65.582 43.7326 65.582 39.8125C65.582 35.8924 62.4234 32.7031 58.541 32.7031Z" fill="#B7457D"/>
<path d="M72.623 46.9219C68.7406 46.9219 65.582 43.7326 65.582 39.8125C65.582 35.8924 68.7406 32.7031 72.623 32.7031C76.5055 32.7031 79.6641 35.8924 79.6641 39.8125C79.6641 43.7326 76.5055 46.9219 72.623 46.9219Z" fill="#A4E9FF"/>
<path d="M72.623 32.7031V46.9219C76.5055 46.9219 79.6641 43.7326 79.6641 39.8125C79.6641 35.8924 76.5055 32.7031 72.623 32.7031Z" fill="#91BBFF"/>
<path d="M72.623 22.5469C68.7406 22.5469 65.582 19.3576 65.582 15.4375C65.582 11.5174 68.7406 8.32812 72.623 8.32812C76.5055 8.32812 79.6641 11.5174 79.6641 15.4375C79.6641 19.3576 76.5055 22.5469 72.623 22.5469Z" fill="#FFE67A"/>
<path d="M72.623 8.32812V22.5469C76.5055 22.5469 79.6641 19.3576 79.6641 15.4375C79.6641 11.5174 76.5055 8.32812 72.623 8.32812Z" fill="#FFC336"/>
<path d="M30.377 22.5469C26.4945 22.5469 23.3359 19.3576 23.3359 15.4375C23.3359 11.5174 26.4945 8.32812 30.377 8.32812C34.2594 8.32812 37.418 11.5174 37.418 15.4375C37.418 19.3576 34.2594 22.5469 30.377 22.5469Z" fill="#FFE67A"/>
<path d="M30.377 8.32812V22.5469C34.2594 22.5469 37.418 19.3576 37.418 15.4375C37.418 11.5174 34.2594 8.32812 30.377 8.32812Z" fill="#FFC336"/>
<path d="M30.377 22.5469C26.4945 22.5469 23.3359 19.3576 23.3359 15.4375C23.3359 11.5174 26.4945 8.32812 30.377 8.32812C34.2594 8.32812 37.418 11.5174 37.418 15.4375C37.418 19.3576 34.2594 22.5469 30.377 22.5469Z" fill="#A4E9FF"/>
<path d="M30.377 8.32812V22.5469C34.2594 22.5469 37.418 19.3576 37.418 15.4375C37.418 11.5174 34.2594 8.32812 30.377 8.32812Z" fill="#91BBFF"/>
<path d="M44.459 46.9219C40.5766 46.9219 37.418 43.7326 37.418 39.8125C37.418 35.8924 40.5766 32.7031 44.459 32.7031C48.3414 32.7031 51.5 35.8924 51.5 39.8125C51.5 43.7326 48.3414 46.9219 44.459 46.9219Z" fill="#FFE67A"/>
<path d="M44.459 32.7031V46.9219C48.3414 46.9219 51.5 43.7326 51.5 39.8125C51.5 35.8924 48.3414 32.7031 44.459 32.7031Z" fill="#FFC336"/>
<path d="M44.459 22.5469C40.5766 22.5469 37.418 19.3576 37.418 15.4375C37.418 11.5174 40.5766 8.32812 44.459 8.32812C48.3414 8.32812 51.5 11.5174 51.5 15.4375C51.5 19.3576 48.3414 22.5469 44.459 22.5469Z" fill="#FF5E82"/>
<path d="M44.459 8.32812V22.5469C48.3414 22.5469 51.5 19.3576 51.5 15.4375C51.5 11.5174 48.3414 8.32812 44.459 8.32812Z" fill="#B7457D"/>
<path d="M58.541 71.2969C54.6586 71.2969 51.5 68.1076 51.5 64.1875C51.5 60.2674 54.6586 57.0781 58.541 57.0781C62.4234 57.0781 65.582 60.2674 65.582 64.1875C65.582 68.1076 62.4234 71.2969 58.541 71.2969Z" fill="#FFE67A"/>
<path d="M58.541 57.0781V71.2969C62.4234 71.2969 65.582 68.1076 65.582 64.1875C65.582 60.2674 62.4234 57.0781 58.541 57.0781Z" fill="#FFC336"/>
</svg>
