<svg width="18" height="18" viewBox="0 0 18 18" fill="none" xmlns="http://www.w3.org/2000/svg">
<path d="M15.75 8.25012C15.5511 8.25012 15.3603 8.32914 15.2197 8.46979C15.079 8.61044 15 8.80121 15 9.00012C15.0089 10.4049 14.5277 11.7688 13.6392 12.857C12.7508 13.9451 11.5106 14.6894 10.1325 14.9616C8.7543 15.2338 7.32434 15.0169 6.08888 14.3482C4.85342 13.6795 3.8898 12.601 3.36399 11.2983C2.83818 9.99563 2.7831 8.55036 3.20822 7.21143C3.63334 5.8725 4.51206 4.72372 5.69303 3.96296C6.874 3.20219 8.2833 2.87706 9.6782 3.04355C11.0731 3.21005 12.3663 3.85776 13.335 4.87512H11.535C11.3361 4.87512 11.1453 4.95414 11.0047 5.09479C10.864 5.23544 10.785 5.42621 10.785 5.62512C10.785 5.82403 10.864 6.0148 11.0047 6.15545C11.1453 6.2961 11.3361 6.37512 11.535 6.37512H14.9325C15.1314 6.37512 15.3222 6.2961 15.4628 6.15545C15.6035 6.0148 15.6825 5.82403 15.6825 5.62512V2.25012C15.6825 2.05121 15.6035 1.86044 15.4628 1.71979C15.3222 1.57914 15.1314 1.50012 14.9325 1.50012C14.7336 1.50012 14.5428 1.57914 14.4022 1.71979C14.2615 1.86044 14.1825 2.05121 14.1825 2.25012V3.57762C12.9335 2.38367 11.3106 1.65759 9.58801 1.52212C7.86547 1.38665 6.14897 1.85011 4.72869 2.83414C3.30841 3.81817 2.27146 5.26243 1.79312 6.92276C1.31479 8.5831 1.42441 10.3577 2.10346 11.9465C2.78251 13.5354 3.98933 14.841 5.51992 15.6428C7.05052 16.4445 8.811 16.6932 10.5038 16.3467C12.1966 16.0003 13.7178 15.08 14.8104 13.7414C15.9029 12.4028 16.4998 10.728 16.5 9.00012C16.5 8.80121 16.421 8.61044 16.2803 8.46979C16.1397 8.32914 15.9489 8.25012 15.75 8.25012Z" fill="#666666"/>
</svg>
