<svg width="39" height="43" viewBox="0 0 39 43" fill="none" xmlns="http://www.w3.org/2000/svg">
<path fill-rule="evenodd" clip-rule="evenodd" d="M1.68177 20.7245C1.4344 20.4778 1.23814 20.1846 1.10423 19.8619C0.970324 19.5392 0.901398 19.1933 0.901398 18.8439C0.901398 18.4945 0.970324 18.1485 1.10423 17.8258C1.23814 17.5031 1.4344 17.21 1.68177 16.9633L17.6193 1.02576C17.866 0.778392 18.1591 0.582135 18.4818 0.448226C18.8045 0.314317 19.1505 0.245387 19.4999 0.245387C19.8493 0.245387 20.1952 0.314317 20.5179 0.448226C20.8407 0.582135 21.1338 0.778392 21.3805 1.02576L37.318 16.9633C37.8168 17.462 38.097 18.1385 38.097 18.8439C38.097 19.5493 37.8168 20.2257 37.318 20.7245C36.8192 21.2233 36.1428 21.5035 35.4374 21.5035C34.732 21.5035 34.0555 21.2233 33.5568 20.7245L19.4999 6.66232L5.44302 20.7245C5.19628 20.9719 4.90316 21.1681 4.58045 21.302C4.25774 21.436 3.91178 21.5049 3.56239 21.5049C3.21301 21.5049 2.86705 21.436 2.54434 21.302C2.22163 21.1681 1.92851 20.9719 1.68177 20.7245Z" fill="white"/>
<path fill-rule="evenodd" clip-rule="evenodd" d="M19.5 42.75C18.7955 42.75 18.1199 42.4701 17.6217 41.972C17.1236 41.4739 16.8437 40.7982 16.8437 40.0938L16.8437 5.5625C16.8437 4.85802 17.1236 4.18239 17.6217 3.68425C18.1199 3.1861 18.7955 2.90625 19.5 2.90625C20.2045 2.90625 20.8801 3.1861 21.3783 3.68425C21.8764 4.18239 22.1562 4.85802 22.1562 5.5625L22.1562 40.0937C22.1562 40.7982 21.8764 41.4739 21.3783 41.972C20.8801 42.4701 20.2045 42.75 19.5 42.75Z" fill="white"/>
</svg>
