<svg width="48" height="48" viewBox="0 0 48 48" fill="none" xmlns="http://www.w3.org/2000/svg">
<path d="M32.1 24C32.1 19.5 28.5 15.9 24 15.9C19.5 15.9 15.9 19.5 15.9 24C15.9 28.5 19.5 32.1 24 32.1C28.5 32.1 32.1 28.5 32.1 24ZM36.3 24C36.3 30.9 30.9 36.3 24 36.3C17.1 36.3 11.7 30.9 11.7 24C11.7 17.1 17.1 11.7 24 11.7C30.9 11.7 36.3 17.1 36.3 24ZM39.6 11.1C39.6 12.9 38.4 14.1 36.6 14.1C34.8 14.1 33.6 12.9 33.6 11.1C33.6 9.3 34.8 8.1 36.6 8.1C38.4 8.1 39.6 9.6 39.6 11.1ZM24 4.2C20.4 4.2 12.9 3.9 9.9 5.1C7.8 6 6 7.8 5.4 9.9C4.2 12.9 4.5 20.4 4.5 24C4.5 27.6 4.2 35.1 5.4 38.1C6 40.2 7.8 42 9.9 42.6C12.9 43.8 20.7 43.5 24 43.5C27.3 43.5 35.1 43.8 38.1 42.6C40.2 41.7 41.7 40.2 42.6 38.1C43.8 34.8 43.5 27.3 43.5 24C43.5 20.7 43.8 12.9 42.6 9.9C42 7.8 40.2 6 38.1 5.4C35.1 3.9 27.6 4.2 24 4.2ZM48 24V33.9C48 37.5 46.8 41.1 44.1 44.1C41.4 46.8 37.8 48 33.9 48H14.1C10.5 48 6.9 46.8 3.9 44.1C1.5 41.4 0 37.8 0 33.9V24V14.1C0 10.2 1.5 6.6 3.9 3.9C6.9 1.5 10.5 0 14.1 0H33.9C37.5 0 41.1 1.2 44.1 3.9C46.5 6.6 48 10.2 48 14.1V24Z" fill="white"/>
</svg>
