<svg width="46" height="46" viewBox="0 0 46 46" fill="none" xmlns="http://www.w3.org/2000/svg">
<path fill-rule="evenodd" clip-rule="evenodd" d="M39.0075 7.08258C36.9284 4.98979 34.4547 3.33036 31.7297 2.20045C29.0046 1.07053 26.0825 0.492574 23.1325 0.500072C10.7625 0.500072 0.6925 10.5676 0.6875 22.9426C0.6875 26.8976 1.72 30.7576 3.6825 34.1626L0.5 45.7901L12.3975 42.6676C15.6885 44.4591 19.3755 45.3985 23.1225 45.4001H23.1325C35.5 45.4001 45.57 35.3326 45.575 22.9576C45.5835 20.0088 45.0075 17.0876 43.8802 14.3627C42.7529 11.6379 41.0968 9.16351 39.0075 7.08258ZM23.1325 41.6126H23.125C19.7838 41.6129 16.5041 40.714 13.63 39.0101L12.95 38.6051L5.89 40.4576L7.7725 33.5751L7.33 32.8701C5.46197 29.8962 4.47308 26.4545 4.4775 22.9426C4.4825 12.6576 12.85 4.29007 23.14 4.29007C25.5906 4.28463 28.018 4.76528 30.2816 5.7042C32.5453 6.64313 34.6002 8.02168 36.3275 9.76008C38.064 11.4902 39.4405 13.5473 40.3772 15.8126C41.314 18.0778 41.7924 20.5063 41.785 22.9576C41.78 33.2426 33.4125 41.6126 23.1325 41.6126ZM33.365 27.6401C32.8025 27.3576 30.0475 26.0026 29.5325 25.8151C29.02 25.6276 28.6475 25.5351 28.2725 26.0951C27.8975 26.6551 26.8225 27.9176 26.495 28.2926C26.1675 28.6676 25.84 28.7126 25.28 28.4326C24.72 28.1526 22.9125 27.5601 20.77 25.6501C19.1025 24.1626 17.9775 22.3276 17.65 21.7651C17.3225 21.2026 17.615 20.9001 17.8975 20.6201C18.15 20.3701 18.4575 19.9651 18.7375 19.6376C19.0175 19.3101 19.11 19.0776 19.2975 18.7026C19.485 18.3276 19.3925 18.0001 19.25 17.7201C19.11 17.4376 17.9875 14.6776 17.52 13.5551C17.0675 12.4676 16.605 12.6126 16.26 12.5976C15.9027 12.583 15.5451 12.5763 15.1875 12.5776C14.9031 12.5848 14.6233 12.6507 14.3657 12.7712C14.108 12.8917 13.8779 13.0641 13.69 13.2776C13.175 13.8401 11.7275 15.1951 11.7275 17.9551C11.7275 20.7151 13.7375 23.3826 14.0175 23.7576C14.2975 24.1326 17.9725 29.7951 23.5975 32.2251C24.9375 32.8026 25.9825 33.1476 26.795 33.4076C28.1375 33.8351 29.36 33.7726 30.3275 33.6301C31.405 33.4701 33.645 32.2751 34.1125 30.9651C34.58 29.6551 34.58 28.5326 34.44 28.2976C34.3 28.0626 33.9225 27.9201 33.365 27.6401Z" fill="white"/>
</svg>
