<svg width="50" height="45" viewBox="0 0 50 45" fill="none" xmlns="http://www.w3.org/2000/svg">
<path d="M45.8812 0.492764C45.2793 0.536556 44.6885 0.677767 44.1319 0.910888H44.1244C43.59 1.12276 41.0494 2.19151 37.1869 3.81151L23.3456 9.64089C13.4137 13.8221 3.65062 17.9396 3.65062 17.9396L3.76687 17.8946C3.76687 17.8946 3.09374 18.1159 2.39062 18.5978C1.95623 18.8742 1.58244 19.2358 1.29187 19.6609C0.946869 20.1671 0.669369 20.9415 0.772494 21.7421C0.941244 23.0959 1.81874 23.9078 2.44874 24.3559C3.08624 24.8096 3.69374 25.0215 3.69374 25.0215H3.70874L12.8644 28.1059C13.275 29.424 15.6544 37.2465 16.2262 39.0484C16.5637 40.1246 16.8919 40.7978 17.3025 41.3115C17.5012 41.574 17.7337 41.7934 18.0131 41.9696C18.1584 42.0541 18.3132 42.1208 18.4744 42.1684L18.3806 42.1459C18.4087 42.1534 18.4312 42.1759 18.4519 42.1834C18.5269 42.204 18.5775 42.2115 18.6731 42.2265C20.1225 42.6652 21.2869 41.7652 21.2869 41.7652L21.3525 41.7127L26.7581 36.7909L35.8181 43.7415L36.0244 43.8296C37.9125 44.6584 39.825 44.1971 40.8356 43.3834C41.8537 42.564 42.2494 41.5159 42.2494 41.5159L42.315 41.3471L49.3162 5.48026C49.515 4.59526 49.5656 3.76651 49.3462 2.96214C49.12 2.14806 48.5977 1.4479 47.8819 0.999013C47.2808 0.633604 46.5838 0.45723 45.8812 0.492764ZM45.6919 4.33651C45.6844 4.45464 45.7069 4.44151 45.6544 4.66839V4.68901L38.7187 40.1828C38.6887 40.2334 38.6381 40.344 38.4994 40.4546C38.3531 40.5709 38.2369 40.644 37.6275 40.4021L26.5462 31.9065L19.8525 38.0078L21.2587 29.0265L39.3637 12.1515C40.11 11.4578 39.8606 11.3115 39.8606 11.3115C39.9131 10.4603 38.7337 11.0621 38.7337 11.0621L15.9037 25.2053L15.8962 25.1678L4.95374 21.4834V21.4759L4.92562 21.4703C4.9448 21.4639 4.96358 21.4564 4.98187 21.4478L5.04187 21.4178L5.09999 21.3971C5.09999 21.3971 14.8706 17.2796 24.8025 13.0984C29.775 11.004 34.785 8.89464 38.6381 7.26714C42.4912 5.64901 45.3394 4.46214 45.5006 4.39839C45.6544 4.33839 45.5812 4.33839 45.6919 4.33839V4.33651Z" fill="white"/>
</svg>
