<svg width="30" height="36" viewBox="0 0 30 36" fill="none" xmlns="http://www.w3.org/2000/svg">
<path d="M9.91071 20.25H7.23214C6.79018 20.25 6.42857 19.8703 6.42857 19.4062V16.5938C6.42857 16.1297 6.79018 15.75 7.23214 15.75H9.91071C10.3527 15.75 10.7143 16.1297 10.7143 16.5938V19.4062C10.7143 19.8703 10.3527 20.25 9.91071 20.25ZM17.1429 19.4062V16.5938C17.1429 16.1297 16.7812 15.75 16.3393 15.75H13.6607C13.2188 15.75 12.8571 16.1297 12.8571 16.5938V19.4062C12.8571 19.8703 13.2188 20.25 13.6607 20.25H16.3393C16.7812 20.25 17.1429 19.8703 17.1429 19.4062ZM23.5714 19.4062V16.5938C23.5714 16.1297 23.2098 15.75 22.7679 15.75H20.0893C19.6473 15.75 19.2857 16.1297 19.2857 16.5938V19.4062C19.2857 19.8703 19.6473 20.25 20.0893 20.25H22.7679C23.2098 20.25 23.5714 19.8703 23.5714 19.4062ZM17.1429 26.1562V23.3438C17.1429 22.8797 16.7812 22.5 16.3393 22.5H13.6607C13.2188 22.5 12.8571 22.8797 12.8571 23.3438V26.1562C12.8571 26.6203 13.2188 27 13.6607 27H16.3393C16.7812 27 17.1429 26.6203 17.1429 26.1562ZM10.7143 26.1562V23.3438C10.7143 22.8797 10.3527 22.5 9.91071 22.5H7.23214C6.79018 22.5 6.42857 22.8797 6.42857 23.3438V26.1562C6.42857 26.6203 6.79018 27 7.23214 27H9.91071C10.3527 27 10.7143 26.6203 10.7143 26.1562ZM23.5714 26.1562V23.3438C23.5714 22.8797 23.2098 22.5 22.7679 22.5H20.0893C19.6473 22.5 19.2857 22.8797 19.2857 23.3438V26.1562C19.2857 26.6203 19.6473 27 20.0893 27H22.7679C23.2098 27 23.5714 26.6203 23.5714 26.1562ZM30 7.875V32.625C30 34.4883 28.5603 36 26.7857 36H3.21429C1.43973 36 0 34.4883 0 32.625V7.875C0 6.01172 1.43973 4.5 3.21429 4.5H6.42857V0.84375C6.42857 0.379688 6.79018 0 7.23214 0H9.91071C10.3527 0 10.7143 0.379688 10.7143 0.84375V4.5H19.2857V0.84375C19.2857 0.379688 19.6473 0 20.0893 0H22.7679C23.2098 0 23.5714 0.379688 23.5714 0.84375V4.5H26.7857C28.5603 4.5 30 6.01172 30 7.875ZM26.7857 32.2031V11.25H3.21429V32.2031C3.21429 32.4352 3.39509 32.625 3.61607 32.625H26.3839C26.6049 32.625 26.7857 32.4352 26.7857 32.2031Z" fill="#626267"/>
</svg>
