<svg width="32" height="32" viewBox="0 0 32 32" fill="none" xmlns="http://www.w3.org/2000/svg">
<path d="M0 16.0312C0 13.1303 0.718282 10.4481 2.15485 7.98439C3.59141 5.52071 5.53806 3.57406 7.9948 2.14444C10.4515 0.714812 13.1234 0 16.0104 0C18.1757 0 20.2438 0.423335 22.2147 1.27001C24.1856 2.11668 25.8859 3.25483 27.3155 4.68445C28.7452 6.11408 29.8833 7.81783 30.73 9.79571C31.5767 11.7736 32 13.8521 32 16.0312C32 18.1965 31.5767 20.2681 30.73 22.2459C29.8833 24.2238 28.7452 25.9241 27.3155 27.3468C25.8859 28.7695 24.1856 29.9007 22.2147 30.7404C20.2438 31.5801 18.1757 32 16.0104 32C13.8313 32 11.7528 31.5767 9.77489 30.73C7.79701 29.8833 6.09326 28.7452 4.66363 27.3155C3.23401 25.8859 2.09933 24.1891 1.2596 22.2251C0.419866 20.2611 0 18.1965 0 16.0312ZM3.51854 16.0312C3.51854 19.404 4.74691 22.3327 7.20364 24.8172C9.66038 27.2739 12.596 28.5023 16.0104 28.5023C18.2589 28.5023 20.3409 27.9436 22.2563 26.8263C24.1718 25.709 25.6916 24.1926 26.8159 22.2772C27.9401 20.3617 28.5023 18.2798 28.5023 16.0312C28.5023 13.7827 27.9401 11.6972 26.8159 9.77489C25.6916 7.85253 24.1718 6.33268 22.2563 5.21535C20.3409 4.09803 18.2589 3.53936 16.0104 3.53936C13.7619 3.53936 11.6799 4.09803 9.76448 5.21535C7.84906 6.33268 6.32921 7.85253 5.20495 9.77489C4.08068 11.6972 3.51854 13.7827 3.51854 16.0312ZM14.782 16.0312V6.55823C14.782 6.22511 14.8966 5.94405 15.1256 5.71503C15.3546 5.48601 15.6357 5.3715 15.9688 5.3715C16.3019 5.3715 16.583 5.48601 16.812 5.71503C17.041 5.94405 17.1555 6.22511 17.1555 6.55823V13.9701L21.1113 11.7424C21.3889 11.5758 21.6873 11.5342 22.0065 11.6174C22.3257 11.7007 22.5617 11.895 22.7144 12.2004C22.8809 12.478 22.9191 12.7764 22.8289 13.0956C22.7387 13.4149 22.5548 13.6578 22.2772 13.8243L16.7599 16.9057C16.524 17.1139 16.2602 17.218 15.9688 17.218C15.6357 17.218 15.3546 17.1034 15.1256 16.8744C14.8966 16.6454 14.782 16.3643 14.782 16.0312Z" fill="#626267"/>
</svg>
