<svg width="411" height="421" viewBox="0 0 411 421" fill="none" xmlns="http://www.w3.org/2000/svg">
<g filter="url(#filter0_d)">
<rect x="10" width="391" height="401" rx="17" fill="#407BBF"/>
</g>
<g clip-path="url(#clip0)" filter="url(#filter1_i)">
<path d="M75.97 96.89L118.42 156.52L34 205.25L75.97 96.89Z" stroke="white" stroke-width="2" stroke-miterlimit="10" stroke-linecap="round" stroke-linejoin="round" stroke-dasharray="3 3"/>
<path d="M276.84 180.38L213.18 217.37L149.1 180.38L212.76 143.38L276.84 180.38Z" stroke="white" stroke-width="2" stroke-miterlimit="10" stroke-linecap="round" stroke-linejoin="round" stroke-dasharray="3 3"/>
<path d="M366.11 250.38L351.42 241.84L351.34 214.06L366.03 222.59L366.11 250.38Z" fill="#898530"/>
<path d="M360.47 225.81L345.78 217.27L345.75 207.8L360.44 216.34L360.47 225.81Z" fill="#897030"/>
<path d="M360.44 216.34L345.75 207.8L362.25 198.28L376.93 206.82L360.44 216.34Z" fill="#C2B6B9"/>
<path d="M376.93 206.82L377.04 244.07L366.11 250.38L366.03 222.59L360.47 225.81L360.44 216.34L376.93 206.82Z" fill="#FFEEF2"/>
<path d="M86.5 219.66L86.48 227.46L76.21 233.43L76.23 225.63L86.5 219.66Z" fill="#F9F8FC"/>
<path d="M63.59 225.63L63.56 233.43L53.23 227.46L53.25 219.66L63.59 225.63Z" fill="#F9F8FC"/>
<path d="M80.27 235.26L80.24 243.06L69.91 237.09L69.93 229.29L80.27 235.26Z" fill="#C2C0C9"/>
<path d="M86.57 231.6L86.55 239.4L80.24 243.06L80.27 235.26L86.57 231.6Z" fill="#F9F8FC"/>
<path d="M59.65 235.27L59.62 243.07L53.28 239.41L53.3 231.61L59.65 235.27Z" fill="#C2C0C9"/>
<path d="M69.93 229.29L69.91 237.09L59.62 243.07L59.65 235.27L69.93 229.29Z" fill="#F9F8FC"/>
<path d="M86.5 219.66L76.23 225.63L86.57 231.6L80.27 235.26L69.93 229.29L59.65 235.27L53.3 231.61L63.59 225.63L53.25 219.66L59.55 216L69.89 221.97L80.16 216L86.5 219.66Z" fill="#F9F8FC"/>
<path d="M188.73 191.49C187.6 192.15 186.43 192.76 185.24 193.36V213.71C186.41 213.12 187.56 212.51 188.67 211.87C201.29 204.54 207.6 194.94 207.63 185.33L207.69 164.95C207.66 174.56 201.35 184.16 188.73 191.49Z" fill="#C2C0C9"/>
<path d="M96.45 191.49C83.59 184.06 77.16 174.31 77.19 164.58L77.13 184.96C77.1 194.69 83.53 204.44 96.39 211.87C108.53 218.88 124.22 222.55 140.07 222.9V202.52C124.25 202.17 108.58 198.49 96.45 191.49Z" fill="#C2C0C9"/>
<path d="M140.08 202.52V222.9C156.15 223.25 172.38 220.19 185.24 213.71V193.36C172.37 199.83 156.14 202.89 140.08 202.52Z" fill="#C2C0C9"/>
<path d="M187.97 137.8C187.89 137.75 187.8 137.71 187.72 137.66H187.71C187.7 137.65 187.69 137.65 187.68 137.64C187.78 137.7 187.88 137.75 187.98 137.81C187.98 137.8 187.98 137.8 187.97 137.8Z" fill="#FF597F"/>
<path d="M188.4 138.04C213.8 152.7 213.93 176.83 188.7 191.49C188.58 191.56 188.46 191.63 188.34 191.7C188.13 191.82 188.06 191.86 188 191.9C187.74 192.05 187.47 192.2 187.2 192.34C186.92 192.49 186.64 192.64 186.36 192.79C186.17 192.89 186.11 192.92 186.06 192.95C185.79 193.09 185.52 193.23 185.25 193.36L142.42 164.77L182.25 134.91C183.39 135.42 184.51 135.95 185.59 136.51C185.78 136.61 185.85 136.64 185.91 136.68C186.12 136.79 186.18 136.82 186.24 136.85C186.31 136.89 186.39 136.93 186.46 136.97C186.69 137.09 186.81 137.16 186.92 137.22C187.08 137.31 187.17 137.36 187.27 137.41C187.46 137.51 187.54 137.56 187.62 137.61C187.81 137.72 187.89 137.76 187.98 137.81C188.17 137.91 188.29 137.98 188.4 138.04Z" fill="#FFA600"/>
<path d="M186.45 136.96C186.46 136.97 186.48 136.97 186.49 136.98C186.45 136.96 186.4 136.93 186.36 136.91C186.39 136.93 186.42 136.95 186.45 136.96Z" fill="#FF597F"/>
<path d="M187.72 137.66L187.71 137.65H187.72V137.66Z" fill="#FF597F"/>
<path d="M140.08 202.53L142.41 164.76L185.24 193.35C172.37 199.83 156.14 202.89 140.08 202.53Z" fill="#B3D9E4"/>
<path d="M187.61 137.59C187.53 137.54 187.44 137.5 187.36 137.45C187.33 137.43 187.29 137.41 187.26 137.39C187.17 137.34 187.08 137.29 186.98 137.24C186.96 137.23 186.93 137.21 186.91 137.2C186.8 137.14 186.68 137.08 186.57 137.02C186.54 137.01 186.52 136.99 186.49 136.98C186.88 137.19 187.26 137.4 187.65 137.61C187.64 137.61 187.62 137.6 187.61 137.59Z" fill="#FF597F"/>
<path d="M186.23 136.85C186.27 136.87 186.32 136.9 186.36 136.92C186.06 136.76 185.76 136.6 185.45 136.45C185.49 136.47 185.54 136.49 185.58 136.51C185.62 136.53 185.66 136.55 185.7 136.57C185.77 136.61 185.84 136.64 185.9 136.68C185.95 136.71 186 136.73 186.05 136.76C186.12 136.78 186.17 136.81 186.23 136.85Z" fill="#FF597F"/>
<path d="M188.4 138.04C188.29 137.97 188.17 137.91 188.06 137.84C188.17 137.91 188.28 137.97 188.4 138.04Z" fill="#FF597F"/>
<path d="M140.08 202.53C138.35 202.49 136.62 202.41 134.91 202.3C120.67 201.29 107.51 197.68 97.25 191.97C96.61 191.61 96.51 191.55 96.42 191.5C71.03 176.84 70.89 152.71 96.12 138.05C119.4 124.52 156.67 123.48 182.24 134.92L142.41 164.78L140.08 202.53Z" fill="#45C6CE"/>
<path d="M185.24 193.36C185.51 193.22 185.78 193.09 186.05 192.95C185.79 193.08 185.52 193.22 185.24 193.36Z" fill="#FF597F"/>
<path d="M134.7 202.28C121.08 201.32 107.88 197.88 97.26 191.96C107.51 197.68 120.67 201.29 134.7 202.28Z" fill="#FF597F"/>
<path d="M182.25 134.91C157.88 124 122.88 124.44 99.5 136.22C123.75 123.97 160 123.9 184.54 135.99C183.79 135.62 183.02 135.26 182.25 134.91Z" fill="#FF597F"/>
<path d="M184.88 136.15C185.07 136.25 185.27 136.34 185.46 136.44C185.26 136.35 185.07 136.25 184.88 136.15Z" fill="#FF597F"/>
<path d="M99.43 136.25C99.45 136.24 99.47 136.23 99.49 136.22C99.47 136.23 99.45 136.24 99.43 136.25Z" fill="#FF597F"/>
<path d="M98.38 136.79C98.73 136.61 99.08 136.43 99.43 136.25C99.08 136.43 98.73 136.61 98.38 136.79Z" fill="#FF597F"/>
<path d="M97.96 137.02C98.1 136.94 98.24 136.87 98.39 136.79C98.24 136.87 98.1 136.94 97.96 137.02Z" fill="#FF597F"/>
<path d="M97.26 137.4C97.49 137.27 97.73 137.15 97.96 137.02C97.72 137.15 97.49 137.27 97.26 137.4Z" fill="#FF597F"/>
<path d="M275.57 52.58L225.7 183.37H325.43L275.57 52.58Z" fill="#DEDADB"/>
<path d="M325.427 183.506C325.472 167.556 303.186 154.562 275.649 154.484C248.112 154.406 225.752 167.273 225.707 183.223C225.662 199.173 247.948 212.166 275.485 212.244C303.022 212.322 325.382 199.456 325.427 183.506Z" fill="#FFA600"/>
<path d="M279.21 181.25C281.23 182.42 281.24 184.31 279.23 185.48C277.22 186.65 273.95 186.65 271.92 185.48C269.9 184.31 269.89 182.42 271.9 181.25C273.91 180.08 277.18 180.08 279.21 181.25Z" fill="#221C36"/>
<path d="M275.57 183.37V181.87" stroke="#221C36" stroke-width="2" stroke-linecap="round" stroke-linejoin="round"/>
<path d="M275.57 178.94V57.34" stroke="white" stroke-width="2" stroke-linecap="round" stroke-linejoin="round" stroke-dasharray="2.93 2.93"/>
<path d="M275.57 55.88V54.38" stroke="#221C36" stroke-width="2" stroke-linecap="round" stroke-linejoin="round"/>
<path d="M273.037 276.738C273.12 247.61 232.422 223.882 182.137 223.739C131.851 223.597 91.0197 247.094 90.9372 276.221C90.8546 305.349 131.552 329.077 181.838 329.219C232.123 329.362 272.955 305.865 273.037 276.738Z" stroke="white" stroke-width="2" stroke-miterlimit="10" stroke-linecap="round" stroke-linejoin="round" stroke-dasharray="3 3"/>
<path d="M367.76 257.7C366.16 256.78 364.72 256.69 363.67 257.3L245.56 325.94C246.6 325.33 248.05 325.42 249.65 326.34C252.83 328.17 255.39 332.61 255.38 336.26C255.37 338.07 254.74 339.35 253.7 339.95L371.81 271.31C372.84 270.71 373.48 269.44 373.49 267.62C373.5 263.97 370.94 259.53 367.76 257.7Z" fill="#D8D3E7"/>
<path d="M255.38 336.25C255.39 332.61 252.83 328.17 249.65 326.33C247.82 325.28 246.2 325.32 245.14 326.24C244.86 326.48 244.63 326.78 244.44 327.14L232 343.12L252.09 340.32C252.49 340.33 252.86 340.28 253.2 340.17H253.22C254.53 339.71 255.38 338.34 255.38 336.25Z" fill="white"/>
<path d="M239.27 340.99C239.27 339.86 238.48 338.48 237.49 337.91C236.92 337.58 236.42 337.6 236.09 337.88C236 337.95 235.93 338.05 235.87 338.16L232.01 343.12L238.25 342.25C238.37 342.25 238.49 342.24 238.59 342.2H238.6C239 342.06 239.26 341.64 239.27 340.99Z" fill="#221C36"/>
<path d="M195.72 255.72C193.89 254.66 191.93 253.73 189.88 252.92C188.3 252.3 186.66 251.74 184.97 251.26C183.59 250.87 182.18 250.52 180.74 250.22C179.42 249.95 178.08 249.71 176.73 249.52C175.43 249.34 174.12 249.19 172.8 249.08C171.48 248.97 170.15 248.9 168.82 248.87C167.44 248.84 166.06 248.84 164.69 248.89C163.18 248.94 161.68 249.04 160.19 249.19C158.45 249.36 156.72 249.6 155.02 249.91C152.41 250.38 149.87 251.01 147.44 251.79C144.51 252.74 141.74 253.91 139.21 255.31L139.2 259.39C141.73 257.99 144.5 256.82 147.43 255.87C149.86 255.08 152.4 254.46 155.01 253.99C156.71 253.68 158.43 253.44 160.18 253.27C161.67 253.12 163.18 253.02 164.68 252.97C166.06 252.92 167.44 252.92 168.81 252.95C170.14 252.98 171.47 253.05 172.79 253.16C174.11 253.27 175.42 253.41 176.72 253.6C178.07 253.79 179.41 254.02 180.73 254.3C182.16 254.6 183.58 254.94 184.96 255.34C186.65 255.82 188.29 256.37 189.87 257C191.93 257.81 193.88 258.75 195.71 259.8C203.69 264.41 207.67 270.45 207.66 276.48L207.67 272.4C207.68 266.37 203.7 260.33 195.72 255.72Z" fill="#D1365A"/>
<path d="M232.43 272.47L232.42 276.55C232.42 276.74 232.42 276.93 232.41 277.12L232.42 273.04C232.43 272.85 232.43 272.66 232.43 272.47Z" fill="#94344A"/>
<path d="M232 276.79C231.75 278.02 231.4 279.25 230.95 280.46C230.48 281.71 229.9 282.95 229.21 284.18C228.47 285.5 227.59 286.79 226.59 288.07C225.41 289.57 224.06 291.03 222.53 292.44C220.22 294.57 217.51 296.6 214.39 298.48L214.38 302.56C217.5 300.68 220.21 298.65 222.52 296.52C224.05 295.11 225.41 293.65 226.58 292.15C227.58 290.88 228.45 289.58 229.2 288.26C229.89 287.04 230.47 285.8 230.94 284.54C231.4 283.33 231.75 282.1 231.99 280.87C232.24 279.63 232.38 278.38 232.42 277.13L232.43 273.05C232.39 274.29 232.25 275.54 232 276.79Z" fill="#D1365A"/>
<path d="M214.38 298.47L214.37 302.55C214.3 302.59 214.22 302.64 214.15 302.68L214.16 298.6C214.23 298.56 214.31 298.51 214.38 298.47Z" fill="#B8405B"/>
<path d="M201.24 320.47L201.23 324.55L83.9 256.81L83.92 252.73L201.24 320.47Z" fill="#EEEEEE"/>
<path d="M226.56 305.76L226.54 309.84L201.23 324.55L201.24 320.47L226.56 305.76Z" fill="#D1365A"/>
<path d="M214.16 298.6L226.56 305.76L201.24 320.47L83.92 252.73L109.24 238.02L121.63 245.17C147.07 230.82 187.85 230.94 213.18 245.57C238.51 260.2 238.86 283.82 214.16 298.6ZM139.2 255.32L196.59 288.46C211.65 279.27 211.35 264.75 195.72 255.73C180.09 246.7 155 246.57 139.2 255.32Z" fill="#59D7FF"/>
<path d="M208.56 316.13L201.22 320.39L83.9 252.66L91.24 248.4L208.56 316.13Z" fill="#BDA2A9"/>
<path d="M126.45 258.69L110.42 268.01L106.8 265.93L122.84 256.61L126.45 258.69Z" fill="#644DAA"/>
<path d="M173.44 285.82L157.4 295.14L153.79 293.06L169.83 283.74L173.44 285.82Z" fill="#644DAA"/>
<path d="M135.84 264.12L119.81 273.44L116.21 271.36L132.24 262.04L135.84 264.12Z" fill="#644DAA"/>
<path d="M145.24 269.54L129.21 278.86L125.61 276.78L141.64 267.46L145.24 269.54Z" fill="#644DAA"/>
<path d="M154.64 274.97L138.6 284.29L135 282.21L151.03 272.89L154.64 274.97Z" fill="#644DAA"/>
<path d="M117.05 253.27L101.02 262.59L97.41 260.5L113.45 251.19L117.05 253.27Z" fill="#644DAA"/>
<path d="M107.65 247.84L91.61 257.16L88.01 255.08L104.05 245.76L107.65 247.84Z" fill="#644DAA"/>
<path d="M164.04 280.4L148.01 289.72L144.4 287.63L160.43 278.31L164.04 280.4Z" fill="#644DAA"/>
<path d="M182.83 291.25L166.8 300.57L163.2 298.49L179.23 289.17L182.83 291.25Z" fill="#644DAA"/>
<path d="M211.03 307.53L194.99 316.84L191.39 314.76L207.42 305.44L211.03 307.53Z" fill="#644DAA"/>
<path d="M192.23 296.67L176.2 305.99L172.59 303.91L188.63 294.59L192.23 296.67Z" fill="#644DAA"/>
<path d="M201.62 302.1L185.59 311.41L181.99 309.34L198.02 300.02L201.62 302.1Z" fill="#644DAA"/>
<path d="M278.47 278.73L278.41 300.7L259.41 311.74L259.47 289.77L278.47 278.73Z" fill="#57468F"/>
<path d="M259.47 289.77L259.41 311.74L240.29 300.7L240.36 278.73L259.47 289.77Z" fill="#433473"/>
<path d="M278.47 278.73L259.47 289.77L240.36 278.73L259.35 267.69L278.47 278.73Z" fill="#644DAA"/>
<path d="M195.96 250.14L195.91 266.22L182.01 274.3L182.06 258.22L195.96 250.14Z" fill="#FF7300"/>
<path d="M182.06 258.22L182.01 274.3L168.02 266.22L168.07 250.14L182.06 258.22Z" fill="#FF8C00"/>
<path d="M195.96 250.14L182.06 258.22L168.07 250.14L181.97 242.06L195.96 250.14Z" fill="#FFA600"/>
<path d="M234.38 107.35L225.56 102.22C228.37 103.85 232.25 103.62 236.53 101.15L245.35 106.28C241.07 108.75 237.19 108.98 234.38 107.35Z" fill="#FFA600"/>
<path d="M229.78 62.18L229.88 97.47C229.91 107.24 236.85 111.19 245.35 106.28L245.38 115.46C232.47 122.91 221.93 116.91 221.89 102.08L221.79 66.79L229.78 62.18Z" fill="#FF7300"/>
<path d="M221.79 66.79L212.97 61.66L220.96 57.05L229.78 62.18L221.79 66.79Z" fill="#FFA600"/>
<path d="M221.89 102.08L221.79 66.79L212.97 61.66L213.07 96.95C213.09 104.32 215.7 109.51 219.91 111.95L228.73 117.08C224.52 114.64 221.91 109.45 221.89 102.08Z" fill="#FF8C00"/>
<path d="M214.16 71.2L214.32 128.8L206.75 133.17L206.59 75.57L214.16 71.2Z" fill="#FF7300"/>
<path d="M206.59 75.57L197.77 70.44L205.34 66.07L214.16 71.2L206.59 75.57Z" fill="#FFA600"/>
<path d="M206.75 133.17L197.93 128.04L197.77 70.44L206.59 75.57L206.75 133.17Z" fill="#FF8C00"/>
<path d="M191.23 88.89L182.41 83.76V83.37L191.23 88.5V88.89Z" fill="#FFA600"/>
<path d="M231.3 37L198.12 56.16C189.43 61.18 182.38 73.39 182.41 83.38L191.23 88.51C191.2 78.52 198.25 66.31 206.94 61.29L240.12 42.13L231.3 37Z" fill="#FFA600"/>
<path d="M240.12 42.13L240.15 51.31L206.97 70.47C202.69 72.94 199.21 78.96 199.22 83.89V84.28L191.23 88.89V88.5C191.2 78.51 198.25 66.3 206.94 61.28L240.12 42.13Z" fill="#FF7300"/>
<path d="M138.95 53.07L142.66 63.01L139.97 64.57L140.17 134.56L174.29 114.85L174.28 111.76L184.8 109.92L174.31 120.21L174.3 117.11L140.17 136.82L140.23 157.32L138.26 158.46L138.21 137.95L93.58 163.72L93.57 161.46L138.2 135.69L138 65.7L135.31 67.26L138.95 53.07Z" fill="#FF597F"/>
<path d="M155.94 74.95C156.02 102.69 148.58 129.51 139.32 134.85C130.06 140.2 122.5 122.04 122.42 94.3" stroke="white" stroke-width="2" stroke-miterlimit="10" stroke-linecap="round" stroke-linejoin="round" stroke-dasharray="3 3"/>
<path d="M297.78 227.99L262.31 207.51" stroke="#F3EFFF" stroke-width="3" stroke-miterlimit="10" stroke-linecap="round" stroke-linejoin="round"/>
<path d="M332.81 248.18L297.35 227.71" stroke="#DFD8F4" stroke-width="3" stroke-miterlimit="10" stroke-linecap="round" stroke-linejoin="round"/>
<path d="M297.35 227.71L262.1 248.19" stroke="#DFD8F4" stroke-width="3" stroke-miterlimit="10" stroke-linecap="round" stroke-linejoin="round"/>
<path d="M333.07 207.51L297.83 227.99" stroke="#F3EFFF" stroke-width="3" stroke-miterlimit="10" stroke-linecap="round" stroke-linejoin="round"/>
<path d="M297.57 188.11V229.54" stroke="#DFD8F4" stroke-width="3" stroke-miterlimit="10" stroke-linecap="round" stroke-linejoin="round"/>
<path d="M306.06 188.64C306.06 193.34 302.26 197.14 297.57 197.14C293.51 197.14 290.11 194.29 289.27 190.48C289.15 189.89 289.07 189.28 289.07 188.65C289.07 183.96 292.88 180.16 297.57 180.16C299.34 180.16 300.99 180.71 302.35 181.63C304.6 183.15 306.06 185.73 306.06 188.64Z" fill="#6C51C8"/>
<path d="M302.55 183.45C302.55 188.14 298.75 191.94 294.06 191.94C292.29 191.94 290.63 191.39 289.27 190.47C289.15 189.88 289.07 189.27 289.07 188.64C289.07 183.95 292.88 180.15 297.57 180.15C299.34 180.15 300.99 180.7 302.35 181.62C302.48 182.21 302.55 182.82 302.55 183.45Z" fill="#C6BCE4"/>
<path d="M292.12 185.94C292.12 184.61 293.2 183.53 294.53 183.53C295.86 183.53 296.94 184.61 296.94 185.94C296.94 187.27 295.86 188.35 294.53 188.35C293.2 188.35 292.12 187.27 292.12 185.94Z" fill="#FEFEFE"/>
<path d="M270.92 248.7C270.92 253.4 267.12 257.2 262.43 257.2C258.37 257.2 254.97 254.35 254.13 250.54C254.01 249.95 253.93 249.34 253.93 248.71C253.93 244.02 257.74 240.22 262.43 240.22C264.2 240.22 265.85 240.77 267.21 241.69C269.45 243.21 270.92 245.79 270.92 248.7Z" fill="#6C51C8"/>
<path d="M267.4 243.52C267.4 248.21 263.6 252.01 258.91 252.01C257.14 252.01 255.48 251.46 254.12 250.54C254 249.95 253.92 249.34 253.92 248.71C253.92 244.02 257.73 240.22 262.42 240.22C264.19 240.22 265.84 240.77 267.2 241.69C267.33 242.28 267.4 242.88 267.4 243.52Z" fill="#C6BCE4"/>
<path d="M259.38 248.41C260.711 248.41 261.79 247.331 261.79 246C261.79 244.669 260.711 243.59 259.38 243.59C258.049 243.59 256.97 244.669 256.97 246C256.97 247.331 258.049 248.41 259.38 248.41Z" fill="#FEFEFE"/>
<path d="M340.86 247.49C340.86 252.19 337.06 255.99 332.37 255.99C328.31 255.99 324.91 253.14 324.07 249.33C323.95 248.74 323.87 248.13 323.87 247.5C323.87 242.81 327.68 239.01 332.37 239.01C334.14 239.01 335.79 239.56 337.15 240.48C339.39 242.01 340.86 244.58 340.86 247.49Z" fill="#6C51C8"/>
<path d="M337.35 242.31C337.35 247 333.55 250.8 328.86 250.8C327.09 250.8 325.43 250.25 324.07 249.33C323.95 248.74 323.87 248.13 323.87 247.5C323.87 242.81 327.68 239.01 332.37 239.01C334.14 239.01 335.79 239.56 337.15 240.48C337.27 241.07 337.35 241.68 337.35 242.31Z" fill="#C6BCE4"/>
<path d="M329.32 247.21C330.651 247.21 331.73 246.131 331.73 244.8C331.73 243.469 330.651 242.39 329.32 242.39C327.989 242.39 326.91 243.469 326.91 244.8C326.91 246.131 327.989 247.21 329.32 247.21Z" fill="#FEFEFE"/>
<path d="M291.33 190.85L262.1 207.83" stroke="#DFD8F4" stroke-width="3" stroke-miterlimit="10" stroke-linecap="round" stroke-linejoin="round"/>
<path d="M332.81 207.83L303.53 190.92" stroke="#DFD8F4" stroke-width="3" stroke-miterlimit="10" stroke-linecap="round" stroke-linejoin="round"/>
<path d="M297.83 268.65L268.45 251.69" stroke="#F3EFFF" stroke-width="3" stroke-miterlimit="10" stroke-linecap="round" stroke-linejoin="round"/>
<path d="M327.53 251.36L297.78 268.65" stroke="#F3EFFF" stroke-width="3" stroke-miterlimit="10" stroke-linecap="round" stroke-linejoin="round"/>
<path d="M305.63 267.91C305.63 272.61 301.83 276.41 297.14 276.41C293.08 276.41 289.68 273.56 288.84 269.75C288.72 269.16 288.64 268.55 288.64 267.92C288.64 263.23 292.45 259.43 297.14 259.43C298.91 259.43 300.56 259.98 301.92 260.9C304.16 262.42 305.63 265 305.63 267.91Z" fill="#6C51C8"/>
<path d="M302.12 262.72C302.12 267.41 298.32 271.21 293.63 271.21C291.86 271.21 290.2 270.66 288.84 269.74C288.72 269.15 288.64 268.54 288.64 267.91C288.64 263.22 292.45 259.42 297.14 259.42C298.91 259.42 300.56 259.97 301.92 260.89C302.05 261.48 302.12 262.09 302.12 262.72Z" fill="#C6BCE4"/>
<path d="M291.69 265.21C291.69 263.88 292.77 262.8 294.1 262.8C295.43 262.8 296.51 263.88 296.51 265.21C296.51 266.54 295.43 267.62 294.1 267.62C292.77 267.62 291.69 266.54 291.69 265.21Z" fill="#FEFEFE"/>
<path d="M297.89 227.39V261.01" stroke="#F3EFFF" stroke-width="3" stroke-miterlimit="10" stroke-linecap="round" stroke-linejoin="round"/>
<path d="M306.26 228.16C306.26 232.86 302.46 236.66 297.77 236.66C293.71 236.66 290.31 233.81 289.47 230C289.35 229.41 289.27 228.8 289.27 228.17C289.27 223.48 293.08 219.68 297.77 219.68C299.54 219.68 301.19 220.23 302.55 221.15C304.79 222.67 306.26 225.25 306.26 228.16Z" fill="#6C51C8"/>
<path d="M302.75 222.98C302.75 227.67 298.95 231.47 294.26 231.47C292.49 231.47 290.83 230.92 289.47 230C289.35 229.41 289.27 228.8 289.27 228.17C289.27 223.48 293.08 219.68 297.77 219.68C299.54 219.68 301.19 220.23 302.55 221.15C302.68 221.74 302.75 222.34 302.75 222.98Z" fill="#C6BCE4"/>
<path d="M292.32 225.46C292.32 224.13 293.4 223.05 294.73 223.05C296.06 223.05 297.14 224.13 297.14 225.46C297.14 226.79 296.06 227.87 294.73 227.87C293.4 227.87 292.32 226.79 292.32 225.46Z" fill="#FEFEFE"/>
<path d="M262.1 207.83V242.46" stroke="#F3EFFF" stroke-width="3" stroke-miterlimit="10" stroke-linecap="round" stroke-linejoin="round"/>
<path d="M332.14 207.83V240.83" stroke="#F3EFFF" stroke-width="3" stroke-miterlimit="10" stroke-linecap="round" stroke-linejoin="round"/>
<path d="M271.54 208.44C271.54 213.14 267.74 216.94 263.05 216.94C258.99 216.94 255.59 214.09 254.75 210.28C254.63 209.69 254.55 209.08 254.55 208.45C254.55 203.76 258.36 199.96 263.05 199.96C264.82 199.96 266.47 200.51 267.83 201.43C270.08 202.95 271.54 205.53 271.54 208.44Z" fill="#6C51C8"/>
<path d="M268.03 203.26C268.03 207.95 264.23 211.75 259.54 211.75C257.77 211.75 256.11 211.2 254.75 210.28C254.63 209.69 254.55 209.08 254.55 208.45C254.55 203.76 258.36 199.96 263.05 199.96C264.82 199.96 266.47 200.51 267.83 201.43C267.96 202.01 268.03 202.62 268.03 203.26Z" fill="#C6BCE4"/>
<path d="M260.01 208.15C261.341 208.15 262.42 207.071 262.42 205.74C262.42 204.409 261.341 203.33 260.01 203.33C258.679 203.33 257.6 204.409 257.6 205.74C257.6 207.071 258.679 208.15 260.01 208.15Z" fill="#FEFEFE"/>
<path d="M338.91 207.83C338.91 212.53 335.11 216.33 330.42 216.33C326.36 216.33 322.96 213.48 322.12 209.67C322 209.08 321.92 208.47 321.92 207.84C321.92 203.15 325.73 199.35 330.42 199.35C332.19 199.35 333.84 199.9 335.2 200.82C337.44 202.34 338.91 204.92 338.91 207.83Z" fill="#6C51C8"/>
<path d="M335.4 202.65C335.4 207.34 331.6 211.14 326.91 211.14C325.14 211.14 323.48 210.59 322.12 209.67C322 209.08 321.92 208.47 321.92 207.84C321.92 203.15 325.73 199.35 330.42 199.35C332.19 199.35 333.84 199.9 335.2 200.82C335.33 201.41 335.4 202.01 335.4 202.65Z" fill="#C6BCE4"/>
<path d="M327.37 207.54C328.701 207.54 329.78 206.461 329.78 205.13C329.78 203.799 328.701 202.72 327.37 202.72C326.039 202.72 324.96 203.799 324.96 205.13C324.96 206.461 326.039 207.54 327.37 207.54Z" fill="#FEFEFE"/>
</g>
<defs>
<filter id="filter0_d" x="0" y="0" width="411" height="421" filterUnits="userSpaceOnUse" color-interpolation-filters="sRGB">
<feFlood flood-opacity="0" result="BackgroundImageFix"/>
<feColorMatrix in="SourceAlpha" type="matrix" values="0 0 0 0 0 0 0 0 0 0 0 0 0 0 0 0 0 0 127 0"/>
<feOffset dy="10"/>
<feGaussianBlur stdDeviation="5"/>
<feColorMatrix type="matrix" values="0 0 0 0 0 0 0 0 0 0 0 0 0 0 0 0 0 0 0.25 0"/>
<feBlend mode="normal" in2="BackgroundImageFix" result="effect1_dropShadow"/>
<feBlend mode="normal" in="SourceGraphic" in2="effect1_dropShadow" result="shape"/>
</filter>
<filter id="filter1_i" x="33" y="37" width="344.04" height="310.12" filterUnits="userSpaceOnUse" color-interpolation-filters="sRGB">
<feFlood flood-opacity="0" result="BackgroundImageFix"/>
<feBlend mode="normal" in="SourceGraphic" in2="BackgroundImageFix" result="shape"/>
<feColorMatrix in="SourceAlpha" type="matrix" values="0 0 0 0 0 0 0 0 0 0 0 0 0 0 0 0 0 0 127 0" result="hardAlpha"/>
<feOffset dy="4"/>
<feGaussianBlur stdDeviation="2"/>
<feComposite in2="hardAlpha" operator="arithmetic" k2="-1" k3="1"/>
<feColorMatrix type="matrix" values="0 0 0 0 0 0 0 0 0 0 0 0 0 0 0 0 0 0 0.25 0"/>
<feBlend mode="normal" in2="shape" result="effect1_innerShadow"/>
</filter>
<clipPath id="clip0">
<rect width="344.04" height="306.12" fill="white" transform="translate(33 37)"/>
</clipPath>
</defs>
</svg>
