<svg width="50" height="50" viewBox="0 0 50 50" fill="none" xmlns="http://www.w3.org/2000/svg">
<circle cx="25" cy="25" r="25" fill="#FF5773"/>
<g clip-path="url(#clip0)">
<path d="M10.7144 17.8572C10.7144 16.91 11.0906 16.0016 11.7604 15.3318C12.4302 14.6621 13.3386 14.2858 14.2858 14.2858H35.7144C36.6616 14.2858 37.57 14.6621 38.2397 15.3318C38.9095 16.0016 39.2858 16.91 39.2858 17.8572V19.6429H10.7144V17.8572Z" fill="white"/>
<path fill-rule="evenodd" clip-rule="evenodd" d="M10.7144 23.2143V32.1429C10.7144 33.0901 11.0906 33.9985 11.7604 34.6683C12.4302 35.3381 13.3386 35.7143 14.2858 35.7143H35.7144C36.6616 35.7143 37.57 35.3381 38.2397 34.6683C38.9095 33.9985 39.2858 33.0901 39.2858 32.1429V23.2143H10.7144ZM16.0715 26.7858C15.5979 26.7858 15.1437 26.9739 14.8088 27.3088C14.4739 27.6437 14.2858 28.0979 14.2858 28.5715V30.3572C14.2858 30.8308 14.4739 31.285 14.8088 31.6199C15.1437 31.9548 15.5979 32.1429 16.0715 32.1429H17.8572C18.3308 32.1429 18.785 31.9548 19.1199 31.6199C19.4548 31.285 19.6429 30.8308 19.6429 30.3572V28.5715C19.6429 28.0979 19.4548 27.6437 19.1199 27.3088C18.785 26.9739 18.3308 26.7858 17.8572 26.7858H16.0715Z" fill="white"/>
</g>
<defs>
<clipPath id="clip0">
<rect width="28.5714" height="28.5714" fill="white" transform="translate(10.7144 10.7143)"/>
</clipPath>
</defs>
</svg>
