<svg width="50" height="50" viewBox="0 0 50 50" fill="none" xmlns="http://www.w3.org/2000/svg">
<path d="M49.9967 24.6542C50.0611 30.6251 48.2932 35.5443 45.1076 40.0203C44.3035 41.1421 43.8272 41.2178 43.0791 39.9586C40.9718 36.4686 39.5811 32.5928 38.9885 28.5582C38.7084 26.6258 39.1482 24.9543 40.4567 23.51C41.7231 22.1077 42.9923 20.7055 44.211 19.2443C44.7648 18.6139 45.2287 17.9099 45.5895 17.1521C45.9677 16.3107 46.1274 15.2787 45.1384 14.7122C44.0429 14.0839 43.4573 14.9646 43.0007 15.7695C41.9312 17.6793 40.2952 19.2092 38.3189 20.1473C37.8678 20.3661 37.3663 20.6185 36.932 20.2904C36.3493 19.8473 36.6939 19.2331 36.9124 18.7535C37.3495 17.8 37.8986 16.8997 38.3693 15.949C38.6915 15.3011 38.9017 14.5635 38.4086 13.9549C37.8482 13.2734 37.0469 13.3492 36.2652 13.5539C34.1471 14.1148 32.3568 16.8885 33.0376 18.9302C33.6988 20.9186 32.8891 21.9955 31.2473 22.8089C29.5459 23.6771 27.5976 23.9317 25.7306 23.5296C24.3101 23.2492 23.3351 22.5116 22.8868 21.0616C22.0463 18.3721 21.1469 15.733 18.757 13.9101C17.7203 13.1164 18.149 12.017 18.7066 11.0494C19.2305 10.1408 19.8917 9.28258 20.2475 8.31501C20.8079 6.77532 19.8721 5.84141 18.2639 6.206C15.9861 6.7052 14.2321 8.94883 14.56 11.3018C14.7897 12.9397 14.4171 14.1709 13.1759 15.2282C11.9347 16.2855 11.6853 17.7383 11.6069 19.2247C11.478 21.6814 11.2259 24.0933 10.5086 26.48C10.0043 28.1627 10.136 29.9436 10.5983 31.6796C11.6209 35.5302 11.8815 39.4201 11.0718 43.3493C10.6179 45.5508 10.5534 45.5789 8.9116 44.1906C0.593159 37.0896 -2.27024 25.4002 1.89318 15.5171C6.22751 5.24124 16.1822 -0.830587 27.2071 0.0921058C37.9967 0.989558 46.9287 8.78617 49.4307 19.4658C49.8379 21.1644 50.028 22.9078 49.9967 24.6542Z" fill="#FF5773"/>
<path d="M32.6819 43.773C32.8836 48.8211 32.2868 49.4886 28.3083 49.8588C22.6543 50.3832 21.8082 49.6597 21.6317 43.9945C21.5056 39.9363 21.3823 35.8754 21.6317 31.8172C21.825 28.5499 22.6656 27.1645 24.568 26.9569C27.6303 26.6232 30.3312 28.3199 30.8999 31.2142C31.7259 35.3642 32.3208 39.5569 32.6819 43.773Z" fill="#FF5773"/>
<path d="M40.6943 43.7787C40.3469 45.4221 38.9292 46.1513 37.6124 46.4851C36.4497 46.7823 36.4917 45.324 36.2984 44.5219C35.7968 42.4914 35.427 40.4273 35.808 38.3211C35.9061 37.7798 35.9537 37.1179 36.5589 36.9188C37.1641 36.7197 37.5872 37.2609 37.915 37.6816C39.2968 39.4734 40.2478 41.5597 40.6943 43.7787Z" fill="#FF5773"/>
<path d="M17.5583 44.1435C17.5583 45.1868 17.5891 46.2329 17.5583 47.2762C17.5359 47.8146 17.5303 48.5326 16.8326 48.6055C16.1826 48.6756 15.6447 48.2746 15.3925 47.6099C14.7201 45.8374 14.6781 43.9472 14.5912 42.1102C14.5184 40.6154 14.8714 39.0869 15.1516 37.5921C15.2272 37.1854 15.3365 36.4899 15.9277 36.4703C16.5188 36.4506 16.5889 37.0732 16.7234 37.5304C17.3398 39.6927 17.5191 41.9111 17.5583 44.1435Z" fill="#FF5773"/>
</svg>
