<svg width="84" height="83" viewBox="0 0 84 83" fill="none" xmlns="http://www.w3.org/2000/svg">
<path d="M33.6101 7.14955L33.7089 7.13323L33.8047 7.10392C35.9555 6.44552 40.248 6.07036 46.8849 6.07036H77.9157V16.1567H44.7197C38.0412 16.1567 32.7124 17.3624 28.9414 19.9838C23.8859 22.6398 20.1652 27.6813 17.6405 34.7954L17.6143 34.8694L17.5959 34.9457C17.0151 37.3563 16.7092 39.5039 16.7092 41.3691C16.7092 47.6805 19.0944 53.5324 23.7286 58.8914L23.7754 58.9455L23.8271 58.9948C26.8128 61.8474 29.6998 63.8411 32.4896 64.8518C35.5697 66.2126 39.6084 66.8433 44.5085 66.8433H77.9157V76.9296H46.1984C37.709 76.9296 31.658 75.8992 27.8575 73.9995L27.8185 73.98L27.7784 73.9628C18.9359 70.1681 12.6536 63.9539 8.86527 55.2726C7.01364 50.9666 6.08429 46.3719 6.08429 41.4738C6.08429 30.9615 10.2613 21.986 18.7366 14.4745C24.3553 10.2451 29.307 7.86043 33.6101 7.14955ZM82.5 3V1.5H81H46.8849C40.2134 1.5 35.4249 1.85068 32.7079 2.63604C27.5521 3.54486 21.9224 6.33585 15.8367 10.8511L15.7837 10.8904L15.7344 10.9343C6.28426 19.3286 1.5 29.533 1.5 41.4738C1.5 46.9728 2.54135 52.1811 4.63014 57.0848L4.63424 57.0944L4.63848 57.104C8.94213 66.8286 16.0565 73.8646 25.9185 78.1666C30.4967 80.4421 37.3186 81.5 46.1984 81.5H81H82.5V80V63.7729V62.2729H81H44.5085C39.995 62.2729 36.6308 61.6877 34.3042 60.6281L34.2421 60.5999L34.1778 60.5773C32.0721 59.8407 29.7168 58.2986 27.1149 55.8298C23.1862 51.221 21.2935 46.411 21.2935 41.3691C21.2935 39.9658 21.5119 38.2277 21.9761 36.1356C24.2204 29.9447 27.3587 25.9867 31.2583 23.9606L31.3495 23.9131L31.4334 23.8537C34.2744 21.8423 38.6303 20.7271 44.7197 20.7271H81H82.5V19.2271V3ZM39.65 31.965H38.15V33.465V49.535V51.035H39.65H81H82.5V49.535V33.465V31.965H81H39.65ZM77.9157 36.5354V46.4647H42.7343V36.5354H77.9157Z" fill="white" stroke="white" stroke-width="3"/>
</svg>
