<svg width="84" height="84" viewBox="0 0 84 84" fill="none" xmlns="http://www.w3.org/2000/svg">
<path d="M75.6 21H70.5222C71.1382 18.9579 71.4343 16.8327 71.4 14.7C71.4 6.594 64.806 0 56.7 0C49.8876 0 45.339 6.2244 42.4032 12.957C39.5094 6.594 34.7298 0 27.3 0C19.194 0 12.6 6.594 12.6 14.7C12.6 17.2032 12.9318 19.2738 13.4778 21H8.4C3.7674 21 0 24.7674 0 29.4V37.8C0 42.4326 3.7674 46.2 8.4 46.2V75.6C8.4 80.2326 12.1674 84 16.8 84H67.2C71.8326 84 75.6 80.2326 75.6 75.6V46.2C80.2326 46.2 84 42.4326 84 37.8V29.4C84 24.7674 80.2326 21 75.6 21ZM56.7 8.4C60.1734 8.4 63 11.2266 63 14.7C63 21 60.3708 21 58.8 21H48.3924C50.5386 14.3808 53.655 8.4 56.7 8.4ZM21 14.7C21 11.2266 23.8266 8.4 27.3 8.4C31.0296 8.4 34.4988 14.805 36.5316 21H25.2C23.6292 21 21 21 21 14.7ZM8.4 29.4H37.8V37.8H8.4V29.4ZM16.8 75.6V46.2H37.8V75.6H16.8ZM67.2 75.6H46.2V46.2H67.2V75.6ZM46.2 37.8V29.757L46.2714 29.4H75.6L75.6042 37.8H46.2Z" fill="white"/>
</svg>
