<svg width="141" height="82" viewBox="0 0 141 82" fill="none" xmlns="http://www.w3.org/2000/svg">
<path d="M70.5 0L69.0905 0.427551L12.7985 19.2758L0 23.4929L7.45305 25.8782V65.258C4.76455 66.8196 2.9497 69.6685 2.9497 72.9989C2.9497 75.3861 3.89861 77.6756 5.5877 79.3636C7.27678 81.0517 9.56768 82 11.9564 82C14.3451 82 16.636 81.0517 18.3251 79.3636C20.0142 77.6756 20.9631 75.3861 20.9631 72.9989C20.9631 69.6685 19.1483 66.8196 16.4598 65.258V28.9835L25.4665 31.9314V54.9967C25.4665 58.6872 27.7181 61.7475 30.3931 63.8628C33.0681 65.9645 36.3916 67.4497 40.3816 68.7819C48.3705 71.4372 58.8994 72.9989 70.5 72.9989C82.1006 72.9989 92.6295 71.4417 100.618 68.7774C104.608 67.4497 107.932 65.9645 110.607 63.8583C113.282 61.7475 115.534 58.6872 115.534 54.9967V31.9314L128.201 27.7099L141 23.4929L128.197 19.2714L71.905 0.427551L70.5 0ZM70.5 9.42865L112.719 23.4929L70.5 37.5571L28.2811 23.4929L70.5 9.42865ZM34.4732 35.0278L69.095 46.5582L70.5 46.9812L71.9095 46.5537L106.527 35.0233V54.9967C106.527 55.0417 106.545 55.5638 105.117 56.6844C103.694 57.8095 101.141 59.2272 97.7993 60.3434C91.1254 62.5621 81.2855 63.9978 70.5 63.9978C59.7145 63.9978 49.8746 62.5666 43.1962 60.3389C39.8637 59.2272 37.3058 57.805 35.8827 56.6844C34.4507 55.5593 34.4732 55.0417 34.4732 54.9967V39V35.0278Z" fill="white"/>
</svg>
