<svg width="135" height="139" viewBox="0 0 135 139" fill="none" xmlns="http://www.w3.org/2000/svg">
<path d="M67.0157 138.286C104.027 138.286 134.031 107.33 134.031 69.1432C134.031 30.9565 104.027 0 67.0157 0C30.004 0 0 30.9565 0 69.1432C0 107.33 30.004 138.286 67.0157 138.286Z" fill="#69D2E7"/>
<g opacity="0.1">
<path opacity="0.1" d="M133.798 74.4482L106.285 46.0617H27.7507V91.4174H28.1324L27.7507 91.6915L72.418 137.777C105.119 135.084 131.188 108.187 133.798 74.4482Z" fill="black"/>
</g>
<path d="M96.7097 93.9716H97.0937C97.2377 93.9716 97.3577 93.9468 97.4657 93.9097C97.5737 93.8726 97.6577 93.823 97.7297 93.7487C97.8017 93.6868 97.8497 93.6002 97.8857 93.5135C97.9217 93.4268 97.9337 93.3154 97.9337 93.2164C97.9337 92.9687 97.8737 92.7707 97.7537 92.6468C97.6337 92.5107 97.4417 92.4487 97.1897 92.4487C97.0697 92.4487 96.9737 92.4611 96.8777 92.4983C96.7817 92.5354 96.6977 92.5849 96.6377 92.6468C96.5657 92.7087 96.5177 92.7954 96.4817 92.8821C96.4457 92.9811 96.4217 93.0802 96.4217 93.1916H95.8817C95.8817 93.0183 95.9177 92.8697 95.9777 92.7211C96.0377 92.5726 96.1337 92.4487 96.2417 92.3373C96.3617 92.2259 96.4937 92.1392 96.6617 92.0773C96.8177 92.0154 96.9977 91.9783 97.2017 91.9783C97.3937 91.9783 97.5737 92.003 97.7297 92.0526C97.8857 92.1021 98.0177 92.1887 98.1377 92.2878C98.2457 92.3868 98.3417 92.523 98.4017 92.6716C98.4617 92.8326 98.4977 93.0059 98.4977 93.2164C98.4977 93.303 98.4857 93.3897 98.4617 93.4764C98.4377 93.563 98.3897 93.6621 98.3417 93.7364C98.2937 93.823 98.2217 93.9097 98.1377 93.984C98.0537 94.0583 97.9457 94.1202 97.8377 94.1697C97.9817 94.2192 98.1017 94.2811 98.1857 94.3554C98.2817 94.4297 98.3537 94.5164 98.4137 94.603C98.4737 94.6897 98.5097 94.7887 98.5337 94.9002C98.5577 94.9992 98.5697 95.0983 98.5697 95.1973C98.5697 95.4078 98.5337 95.5811 98.4617 95.7421C98.3897 95.903 98.2937 96.0392 98.1737 96.1507C98.0537 96.2621 97.9097 96.3364 97.7417 96.3983C97.5737 96.4602 97.3937 96.4849 97.2017 96.4849C97.0217 96.4849 96.8417 96.4602 96.6737 96.4107C96.5057 96.3611 96.3617 96.2745 96.2417 96.1754C96.1217 96.0764 96.0257 95.9402 95.9537 95.7916C95.8817 95.643 95.8457 95.4697 95.8457 95.2716H96.3857C96.3857 95.383 96.4097 95.4945 96.4457 95.5811C96.4817 95.6802 96.5417 95.7545 96.6017 95.8287C96.6617 95.903 96.7577 95.9526 96.8537 95.9897C96.9497 96.0268 97.0697 96.0392 97.1897 96.0392C97.3097 96.0392 97.4297 96.0268 97.5257 95.9897C97.6217 95.9526 97.7057 95.903 97.7777 95.8411C97.8497 95.7792 97.8977 95.6926 97.9337 95.5811C97.9697 95.4821 97.9937 95.3583 97.9937 95.2221C97.9937 95.0859 97.9697 94.9621 97.9337 94.863C97.8857 94.764 97.8257 94.6773 97.7537 94.6154C97.6697 94.5535 97.5737 94.504 97.4657 94.4668C97.3577 94.4297 97.2257 94.4173 97.0937 94.4173H96.7097V93.9716Z" fill="white"/>
<path d="M104.522 61.1377C104.522 61.4967 104.486 61.8062 104.426 62.0539C104.366 62.3015 104.27 62.4996 104.162 62.6481C104.042 62.7967 103.91 62.9081 103.742 62.9824C103.574 63.0443 103.394 63.0815 103.19 63.0815C102.986 63.0815 102.794 63.0443 102.638 62.9824C102.482 62.9205 102.326 62.8091 102.218 62.6481C102.098 62.4996 102.014 62.3015 101.942 62.0539C101.882 61.8062 101.846 61.5091 101.846 61.1377V60.4691C101.846 60.11 101.882 59.8005 101.942 59.5653C102.002 59.3177 102.098 59.1196 102.218 58.971C102.338 58.8224 102.482 58.711 102.638 58.6491C102.806 58.5872 102.986 58.55 103.19 58.55C103.394 58.55 103.586 58.5872 103.754 58.6491C103.922 58.711 104.066 58.8224 104.174 58.971C104.294 59.1196 104.378 59.3177 104.438 59.5653C104.498 59.8129 104.534 60.11 104.534 60.4691V61.1377H104.522ZM103.982 60.3824C103.982 60.1348 103.97 59.9243 103.934 59.751C103.898 59.5777 103.85 59.4415 103.778 59.33C103.706 59.2186 103.622 59.1443 103.526 59.0948C103.43 59.0453 103.31 59.0205 103.178 59.0205C103.046 59.0205 102.938 59.0453 102.83 59.0948C102.734 59.1443 102.65 59.2186 102.578 59.33C102.506 59.4415 102.458 59.5777 102.422 59.751C102.386 59.9243 102.374 60.1348 102.374 60.3824V61.2367C102.374 61.4843 102.386 61.6948 102.422 61.8681C102.458 62.0415 102.506 62.19 102.578 62.3015C102.65 62.4129 102.734 62.4996 102.83 62.5491C102.926 62.5986 103.046 62.6234 103.178 62.6234C103.31 62.6234 103.43 62.5986 103.526 62.5491C103.622 62.4996 103.706 62.4129 103.778 62.3015C103.85 62.19 103.898 62.0415 103.934 61.8681C103.97 61.6948 103.982 61.4843 103.982 61.2367V60.3824Z" fill="white"/>
<path d="M66.2298 80.3528H63.4338V79.9566L64.8258 78.3595C64.9578 78.2109 65.0658 78.0871 65.1498 77.9633C65.2338 77.8519 65.3058 77.7528 65.3538 77.6538C65.4018 77.5547 65.4378 77.4681 65.4618 77.3938C65.4858 77.3071 65.4858 77.2328 65.4858 77.1462C65.4858 77.0347 65.4738 76.9357 65.4378 76.8366C65.4018 76.7376 65.3538 76.6633 65.2938 76.589C65.2338 76.5147 65.1498 76.4652 65.0658 76.4157C64.9698 76.3785 64.8738 76.3538 64.7538 76.3538C64.6098 76.3538 64.4778 76.3785 64.3818 76.4157C64.2738 76.4652 64.1898 76.5271 64.1178 76.6014C64.0458 76.6757 63.9978 76.7747 63.9618 76.8862C63.9258 76.9976 63.9138 77.1214 63.9138 77.2452H63.3738C63.3738 77.0595 63.3978 76.8862 63.4578 76.7252C63.5178 76.5643 63.6018 76.4157 63.7218 76.2919C63.8418 76.1681 63.9858 76.069 64.1538 75.9947C64.3338 75.9204 64.5258 75.8833 64.7538 75.8833C64.9578 75.8833 65.1378 75.9081 65.2938 75.97C65.4498 76.0319 65.5818 76.1062 65.7018 76.2052C65.8098 76.3043 65.8938 76.4281 65.9538 76.5766C66.0138 76.7252 66.0378 76.8862 66.0378 77.0595C66.0378 77.1833 66.0138 77.3195 65.9778 77.4557C65.9298 77.5919 65.8818 77.7157 65.8098 77.8519C65.7378 77.9881 65.6538 78.1119 65.5578 78.2357C65.4618 78.3595 65.3538 78.4957 65.2458 78.6071L64.1058 79.8947H66.2418V80.3528H66.2298Z" fill="white"/>
<path d="M71.1019 45.6858H68.3059V45.2896L69.6979 43.6925C69.8299 43.5439 69.9378 43.4201 70.0218 43.2963C70.1058 43.1849 70.1779 43.0858 70.2259 42.9868C70.2739 42.8877 70.3099 42.8011 70.3339 42.7268C70.3579 42.6401 70.3579 42.5658 70.3579 42.4792C70.3579 42.3677 70.3459 42.2687 70.3099 42.1696C70.2739 42.0706 70.2259 41.9963 70.1659 41.922C70.1059 41.8477 70.0218 41.7982 69.9378 41.7487C69.8418 41.7115 69.7459 41.6868 69.6259 41.6868C69.4819 41.6868 69.3498 41.7115 69.2538 41.7487C69.1458 41.7982 69.0619 41.8601 68.9899 41.9344C68.9179 42.0087 68.8699 42.1077 68.8339 42.2192C68.7979 42.3306 68.7859 42.4544 68.7859 42.5782H68.2458C68.2458 42.3925 68.2698 42.2192 68.3298 42.0582C68.3898 41.8973 68.4739 41.7487 68.5939 41.6249C68.7139 41.5011 68.8579 41.402 69.0259 41.3277C69.2059 41.2535 69.3979 41.2163 69.6259 41.2163C69.8299 41.2163 70.0099 41.2411 70.1659 41.303C70.3219 41.3649 70.4539 41.4392 70.5739 41.5382C70.6819 41.6373 70.7659 41.7611 70.8259 41.9096C70.8859 42.0582 70.9099 42.2192 70.9099 42.3925C70.9099 42.5163 70.8859 42.6525 70.8499 42.7887C70.8019 42.9249 70.7539 43.0487 70.6819 43.1849C70.6099 43.3211 70.5258 43.4449 70.4298 43.5687C70.3338 43.6925 70.2259 43.8287 70.1179 43.9401L68.9779 45.2277H71.1139V45.6858H71.1019Z" fill="white"/>
<path d="M67.0457 78.0747L67.2617 75.8833H69.4457V76.4033H67.7177L67.5857 77.6043C67.6577 77.5547 67.7657 77.5176 67.8857 77.4804C68.0057 77.4433 68.1497 77.4185 68.3057 77.4185C68.4977 77.4185 68.6777 77.4557 68.8337 77.5176C68.9897 77.5919 69.1217 77.6909 69.2297 77.8147C69.3377 77.9385 69.4217 78.0995 69.4817 78.2852C69.5417 78.4709 69.5657 78.669 69.5657 78.8919C69.5657 79.1023 69.5417 79.3004 69.4817 79.4738C69.4217 79.6471 69.3377 79.8081 69.2297 79.9319C69.1217 80.0681 68.9777 80.1671 68.8097 80.2414C68.6417 80.3157 68.4377 80.3528 68.2097 80.3528C68.0417 80.3528 67.8737 80.3281 67.7177 80.2785C67.5617 80.229 67.4297 80.1547 67.3097 80.0557C67.1897 79.9566 67.0937 79.8328 67.0217 79.6719C66.9497 79.5233 66.9017 79.3376 66.8777 79.1395H67.3937C67.4297 79.3871 67.5137 79.5852 67.6577 79.709C67.8017 79.8328 67.9817 79.9071 68.2097 79.9071C68.3417 79.9071 68.4497 79.8823 68.5577 79.8328C68.6537 79.7833 68.7377 79.7214 68.8097 79.6347C68.8817 79.5481 68.9297 79.4366 68.9657 79.3252C69.0017 79.2014 69.0137 79.0652 69.0137 78.9043C69.0137 78.7681 68.9897 78.6443 68.9537 78.5204C68.9177 78.3966 68.8577 78.2976 68.7857 78.2109C68.7137 78.1243 68.6297 78.05 68.5217 78.0004C68.4137 77.9509 68.2937 77.9262 68.1617 77.9262C68.0657 77.9262 67.9937 77.9262 67.9217 77.9509C67.8497 77.9633 67.8017 77.9881 67.7417 78.0004C67.6937 78.0252 67.6457 78.05 67.5977 78.0871C67.5497 78.1243 67.5017 78.1614 67.4537 78.1985L67.0457 78.0747Z" fill="white"/>
<path d="M100.73 61.4719H101.318V61.93H100.73V62.9577H100.19V61.93H98.2458V61.5958L100.154 58.55H100.73V61.4719ZM98.8579 61.4719H100.19V59.3177L98.8579 61.4719Z" fill="white"/>
<path d="M102.326 92.3002L100.562 96.3859H99.9858L101.75 92.4364H99.4458V91.9783H102.326V92.3002Z" fill="white"/>
<path d="M74.7259 41.5382L72.9619 45.6239H72.3859L74.1499 41.6744H71.8459V41.2163H74.7259V41.5382Z" fill="white"/>
<path d="M34.7982 48.645L59.6934 48.645C62.4286 48.645 64.6458 46.4277 64.6458 43.6926C64.6458 40.9575 62.4286 38.7402 59.6934 38.7402L34.7982 38.7402C32.0631 38.7402 29.8458 40.9575 29.8458 43.6926C29.8458 46.4277 32.0631 48.645 34.7982 48.645Z" fill="#FFE15A"/>
<path d="M90.8933 56.0735H34.7981C32.063 56.0735 29.8457 58.2907 29.8457 61.0259C29.8457 63.761 32.063 65.9782 34.7981 65.9782H90.8933C93.6284 65.9782 95.8457 63.761 95.8457 61.0259C95.8457 58.2907 93.6284 56.0735 90.8933 56.0735Z" fill="#43CB8E"/>
<path d="M56.0933 72.169H34.7981C32.063 72.169 29.8457 74.3863 29.8457 77.1214C29.8457 79.8565 32.063 82.0738 34.7981 82.0738H56.0933C58.8285 82.0738 61.0457 79.8565 61.0457 77.1214C61.0457 74.3863 58.8285 72.169 56.0933 72.169Z" fill="#FF597F"/>
<path d="M34.7984 99.407L88.4937 99.407C91.2288 99.407 93.446 97.1898 93.446 94.4546C93.446 91.7195 91.2288 89.5023 88.4937 89.5023L34.7984 89.5023C32.0633 89.5023 29.846 91.7195 29.846 94.4546C29.846 97.1898 32.0633 99.407 34.7984 99.407Z" fill="#03A9F4"/>
</svg>
