<svg width="136" height="136" viewBox="0 0 136 136" fill="none" xmlns="http://www.w3.org/2000/svg">
<path d="M68.0005 136C105.556 136 136 105.555 136 68C136 30.4446 105.556 0 68.0005 0C30.4451 0 0.000488281 30.4446 0.000488281 68C0.000488281 105.555 30.4451 136 68.0005 136Z" fill="#8CB0B0"/>
<circle cx="68.0005" cy="68" r="61" stroke="white" stroke-width="2"/>
<path d="M100.645 80.0674H99.9486C99.8541 79.662 99.699 79.2939 99.4938 78.9555L99.4961 78.9521L99.9883 78.4472C100.098 78.3351 100.098 78.1531 99.9883 78.041L99.1323 77.1637C99.0229 77.0515 98.8456 77.0515 98.7359 77.1637L98.25 77.668C97.9085 77.4552 97.5409 77.303 97.1685 77.2125V77.2091V76.4958C97.1685 76.3372 97.0304 76.2051 96.8756 76.2051H95.6647C95.5099 76.2051 95.4 76.3372 95.4 76.4958V77.2091C95.0045 77.3059 94.639 77.4648 94.3086 77.675L94.3025 77.6727L93.8083 77.1683C93.6988 77.0562 93.5205 77.0562 93.4111 77.1683L92.5543 78.0457C92.4448 78.1578 92.4446 78.3395 92.554 78.4516L93.0462 78.9544C92.8383 79.3043 92.6901 79.6861 92.6014 80.0674H92.5981H91.9019C91.7472 80.0674 91.6304 80.199 91.6304 80.3576V81.5984C91.6304 81.757 91.7474 81.8797 91.9019 81.8797H92.5981C92.6926 82.2852 92.8476 82.6543 93.0528 82.993L93.0506 82.9969L92.5583 83.502C92.4489 83.6142 92.4489 83.7964 92.5583 83.9085L93.4146 84.7859C93.524 84.898 93.7014 84.898 93.8108 84.7859L94.3076 84.2815C94.6491 84.4946 95.0276 84.6465 95.4 84.7371V84.7404V85.4537C95.4 85.6123 95.5163 85.7421 95.671 85.7421H96.882C97.0368 85.7421 97.1685 85.6123 97.1685 85.4537V84.7404C97.564 84.6436 97.9186 84.4848 98.249 84.2745L98.2497 84.2768L98.7412 84.7812C98.8506 84.8933 99.0277 84.8933 99.1372 84.7812L99.9932 83.9038C100.103 83.7917 100.103 83.61 99.9932 83.4979L99.5009 82.9938C99.7089 82.6439 99.8571 82.261 99.9455 81.8797H99.9486H100.645C100.8 81.8797 100.938 81.7505 100.938 81.5919V80.3511C100.938 80.1923 100.8 80.0674 100.645 80.0674ZM96.2844 83.6798C94.8305 83.6798 93.652 82.4723 93.652 80.9827C93.652 79.493 94.8305 78.2855 96.2844 78.2855C97.7382 78.2855 98.9167 79.493 98.9167 80.9827C98.9167 82.4723 97.7382 83.6798 96.2844 83.6798Z" fill="#438AA7"/>
<path d="M101.155 86.9356H100.913C100.88 86.7944 100.826 86.6664 100.754 86.5486L100.755 86.5476L100.926 86.3718C100.964 86.3329 100.964 86.2696 100.926 86.2304L100.628 85.9251C100.59 85.8862 100.529 85.8859 100.49 85.9251L100.321 86.1006C100.202 86.0263 100.074 85.9737 99.9447 85.942V85.9409V85.6925C99.9447 85.6373 99.8966 85.5913 99.8429 85.5913H99.4213C99.3674 85.5913 99.3291 85.6373 99.3291 85.6925V85.9409C99.1913 85.9747 99.0641 86.03 98.9491 86.1032L98.9471 86.1024L98.7751 85.9269C98.7371 85.888 98.675 85.888 98.6367 85.9269L98.3386 86.2322C98.3006 86.2711 98.3003 86.3344 98.3386 86.3734L98.5098 86.5483C98.4374 86.6701 98.3859 86.803 98.355 86.9359H98.354H98.1116C98.0576 86.9359 98.0171 86.9816 98.0171 87.0368V87.4688C98.0171 87.524 98.0579 87.5666 98.1116 87.5666H98.354C98.387 87.7078 98.4409 87.8363 98.5124 87.9541L98.5116 87.9554L98.3403 88.1312C98.3023 88.1701 98.3023 88.2337 98.3403 88.2726L98.6383 88.5781C98.6763 88.6171 98.7381 88.6173 98.7763 88.5781L98.9494 88.4027C99.0682 88.4769 99.1999 88.5296 99.3296 88.5613V88.5623V88.8107C99.3296 88.866 99.3701 88.9112 99.4241 88.9112H99.8457C99.8996 88.9112 99.9455 88.866 99.9455 88.8107V88.5623C100.083 88.5286 100.207 88.4733 100.322 88.4001L100.322 88.4009L100.493 88.5763C100.531 88.6153 100.593 88.6153 100.631 88.5763L100.929 88.2711C100.967 88.2321 100.967 88.1688 100.929 88.1299L100.757 87.9544C100.83 87.8327 100.881 87.6993 100.912 87.5666H100.913H101.156C101.21 87.5666 101.258 87.5217 101.258 87.4664V87.0345C101.257 86.9792 101.209 86.9356 101.155 86.9356ZM99.6374 88.1932C99.1313 88.1932 98.7211 87.773 98.7211 87.2544C98.7211 86.7357 99.1313 86.3155 99.6374 86.3155C100.144 86.3155 100.554 86.7357 100.554 87.2544C100.554 87.7727 100.144 88.1932 99.6374 88.1932Z" fill="#438AA7"/>
<path d="M106.059 48.9399H44.4419V95.6263H106.059V48.9399Z" fill="#212121"/>
<path d="M102.208 55.8931H47.3301V89.6662H102.208V55.8931Z" fill="#314656"/>
<path d="M75.732 86.6863C83.4419 86.6863 89.6921 80.2378 89.6921 72.2831C89.6921 64.3284 83.4419 57.8799 75.732 57.8799C68.0221 57.8799 61.772 64.3284 61.772 72.2831C61.772 80.2378 68.0221 86.6863 75.732 86.6863Z" fill="white"/>
<path d="M96.4311 49.9331H92.5801V53.9064H96.4311V49.9331Z" fill="#F6F4F4"/>
<path d="M96.4311 50.9268H92.5801V53.9067H96.4311V50.9268Z" fill="#212121"/>
<path d="M99.2991 50.5225L98.8364 50.9966L101.545 53.7714L102.007 53.2973L99.2991 50.5225Z" fill="#F6F4F4"/>
<path d="M98.8376 53.2969L99.3003 53.771L102.008 50.9962L101.546 50.5222L98.8376 53.2969Z" fill="#F6F4F4"/>
<path d="M48.2928 91.6528H47.3301V94.6328H48.2928V91.6528Z" fill="#F6F4F4"/>
<path d="M50.2181 91.6528H49.2554V94.6328H50.2181V91.6528Z" fill="#F6F4F4"/>
<path d="M102.208 92.646H51.1812V93.6393H102.208V92.646Z" fill="#F6F4F4"/>
<path d="M95.468 91.6528H93.5425V94.6328H95.468V91.6528Z" fill="#F6F4F4"/>
<path d="M81.256 71.0911C82.4934 71.8767 82.4934 73.6823 81.2561 74.4679L74.4714 78.7757C73.1399 79.6211 71.3994 78.6645 71.3994 77.0873V68.4719C71.3994 66.8946 73.1399 65.938 74.4714 66.7835L81.256 71.0911Z" fill="#E54B4A"/>
<path d="M56.9578 50.4299C56.9578 56.19 52.4318 60.8598 46.8489 60.8598C41.2657 60.8598 36.7397 56.19 36.7397 50.4299C36.7397 44.6696 41.2657 40 46.8489 40C52.4318 40 56.9578 44.6696 56.9578 50.4299Z" fill="#E54B4A"/>
<path d="M46.8338 57.6595C50.7291 57.5896 53.8317 54.2975 53.7635 50.3063C53.6953 46.315 50.4822 43.1362 46.5869 43.206C42.6915 43.2759 39.589 46.568 39.6571 50.5592C39.7253 54.5504 42.9384 57.7293 46.8338 57.6595Z" fill="white"/>
<path d="M51.6739 50.8514C51.8991 48.043 49.8598 45.5793 47.1189 45.3485C44.378 45.1177 41.9734 47.2073 41.7482 50.0156C41.5229 52.824 43.5623 55.2877 46.3032 55.5185C49.0441 55.7493 51.4486 53.6597 51.6739 50.8514Z" fill="#E54B4A"/>
<path d="M49.2557 50.4301C49.2557 51.8015 48.178 52.9134 46.8488 52.9134C45.5196 52.9134 44.4419 51.8015 44.4419 50.4301C44.4419 49.0587 45.5196 47.9468 46.8488 47.9468C48.178 47.9468 49.2557 49.0587 49.2557 50.4301Z" fill="white"/>
<path d="M30.2215 48.3428L30.9569 49.8943C30.8547 50.0332 30.7929 50.2124 30.7931 50.4088C30.7934 50.5566 30.8294 50.6943 30.8906 50.8125L30.0525 52.3481C29.9374 52.5582 30.02 52.738 30.2346 52.748L33.8549 52.913C34.07 52.9227 34.3539 52.7701 34.4861 52.574L35.5106 51.0485L45.6809 50.6642C46.0603 50.6634 46.3682 50.8085 46.3674 50.3705C46.3667 49.9324 46.059 50.0793 45.6797 50.0801L35.6302 49.7509L34.8439 48.3299C34.7283 48.1206 34.4576 47.9491 34.2425 47.9491L30.4249 47.9468C30.2098 47.9468 30.118 48.1249 30.2215 48.3428Z" fill="#DEE3E0"/>
<path d="M30.7932 49.9952C30.7934 50.1673 30.8294 50.3278 30.8907 50.4655L30.0525 52.2544C29.9374 52.4992 30.02 52.7087 30.2346 52.7204L33.855 52.9126C34.0701 52.9239 34.354 52.7461 34.4862 52.5176L35.5108 50.7401L45.6814 50.2924C46.0518 50.2914 46.3543 50.4522 46.3674 49.9838L30.7954 49.9331C30.7942 49.9535 30.7929 49.9741 30.7932 49.9952Z" fill="#A0A1A2"/>
</svg>
