<svg width="135" height="139" viewBox="0 0 135 139" fill="none" xmlns="http://www.w3.org/2000/svg">
<path d="M67.0157 138.286C104.027 138.286 134.031 107.33 134.031 69.1432C134.031 30.9565 104.027 0 67.0157 0C30.004 0 0 30.9565 0 69.1432C0 107.33 30.004 138.286 67.0157 138.286Z" fill="#A7DBDB"/>
<g clip-path="url(#clip0)">
<path d="M24.3205 91.0766H23.9059V88.2286L23.0675 88.5409V88.1529L24.256 87.6893H24.3205V91.0766Z" fill="#2E333D"/>
<path d="M27.5913 89.6385C27.5913 89.9129 27.5636 90.1494 27.5175 90.3386C27.4715 90.5279 27.407 90.6793 27.3149 90.7928C27.2227 90.9063 27.1214 90.9915 26.9924 91.0483C26.8634 91.0956 26.7252 91.124 26.5686 91.124C26.4119 91.124 26.2645 91.0956 26.1447 91.0483C26.0158 91.001 25.9052 90.9158 25.8223 90.7928C25.7301 90.6793 25.6656 90.5279 25.6104 90.3386C25.5643 90.1494 25.5367 89.9223 25.5367 89.6385V89.1276C25.5367 88.8532 25.5643 88.6166 25.6104 88.4369C25.6564 88.2476 25.7301 88.0962 25.8223 87.9827C25.9144 87.8692 26.0158 87.784 26.1447 87.7367C26.2737 87.6894 26.4119 87.661 26.5686 87.661C26.7252 87.661 26.8726 87.6894 27.0016 87.7367C27.1306 87.784 27.2411 87.8692 27.3241 87.9827C27.4162 88.0962 27.4807 88.2476 27.5268 88.4369C27.5728 88.6261 27.6005 88.8532 27.6005 89.1276V89.6385H27.5913ZM27.1767 89.0519C27.1767 88.8626 27.1674 88.7018 27.1398 88.5693C27.1122 88.4369 27.0753 88.3328 27.02 88.2476C26.9647 88.1625 26.9002 88.1057 26.8265 88.0679C26.7528 88.03 26.6607 88.0111 26.5593 88.0111C26.458 88.0111 26.3751 88.03 26.2922 88.0679C26.2184 88.1057 26.154 88.1625 26.0987 88.2476C26.0434 88.3328 26.0065 88.4369 25.9789 88.5693C25.9513 88.7018 25.942 88.8626 25.942 89.0519V89.7047C25.942 89.8939 25.9513 90.0548 25.9789 90.1873C26.0065 90.3197 26.0434 90.4333 26.0987 90.5184C26.154 90.6036 26.2184 90.6698 26.2922 90.7076C26.3659 90.7455 26.458 90.7644 26.5593 90.7644C26.6607 90.7644 26.7528 90.7455 26.8265 90.7076C26.9002 90.6698 26.9647 90.6036 27.02 90.5184C27.0753 90.4333 27.1122 90.3197 27.1398 90.1873C27.1674 90.0548 27.1767 89.8939 27.1767 89.7047V89.0519Z" fill="#2E333D"/>
<path d="M27.4531 101.286C27.4531 101.56 27.4255 101.797 27.3794 101.986C27.3334 102.175 27.2597 102.326 27.1767 102.44C27.0846 102.554 26.9832 102.639 26.8543 102.695C26.7253 102.743 26.5871 102.771 26.4304 102.771C26.2738 102.771 26.1264 102.743 26.0066 102.695C25.8776 102.648 25.7671 102.563 25.6841 102.44C25.592 102.326 25.5275 102.175 25.4722 101.986C25.4262 101.797 25.3985 101.57 25.3985 101.286V100.775C25.3985 100.5 25.4262 100.264 25.4722 100.084C25.5183 99.8948 25.592 99.7435 25.6841 99.6299C25.7763 99.5164 25.8776 99.4312 26.0066 99.3839C26.1356 99.3366 26.2738 99.3082 26.4304 99.3082C26.5871 99.3082 26.7345 99.3366 26.8635 99.3839C26.9925 99.4312 27.103 99.5164 27.1859 99.6299C27.2781 99.7435 27.3426 99.8948 27.3886 100.084C27.4347 100.273 27.4623 100.5 27.4623 100.775V101.286H27.4531ZM27.0385 100.699C27.0385 100.51 27.0293 100.349 27.0017 100.217C26.974 100.084 26.9372 99.98 26.8819 99.8949C26.8266 99.8097 26.7621 99.7529 26.6884 99.7151C26.6147 99.6772 26.5226 99.6583 26.4212 99.6583C26.3199 99.6583 26.237 99.6772 26.154 99.7151C26.0803 99.7529 26.0158 99.8097 25.9606 99.8949C25.9053 99.98 25.8684 100.084 25.8408 100.217C25.8131 100.349 25.8039 100.51 25.8039 100.699V101.352C25.8039 101.541 25.8131 101.702 25.8408 101.834C25.8684 101.967 25.9053 102.08 25.9606 102.166C26.0158 102.251 26.0803 102.317 26.154 102.355C26.2277 102.393 26.3199 102.412 26.4212 102.412C26.5226 102.412 26.6147 102.393 26.6884 102.355C26.7621 102.317 26.8266 102.251 26.8819 102.166C26.9372 102.08 26.974 101.967 27.0017 101.834C27.0293 101.702 27.0385 101.541 27.0385 101.352V100.699Z" fill="#2E333D"/>
<path d="M25.1036 76.5341H22.9569V76.2313L24.0256 75.0108C24.127 74.8973 24.2099 74.8026 24.2744 74.7175C24.3389 74.6323 24.3942 74.5566 24.431 74.4809C24.4679 74.4052 24.4955 74.339 24.5139 74.2822C24.5324 74.216 24.5324 74.1592 24.5324 74.093C24.5324 74.0079 24.5232 73.9322 24.4955 73.8565C24.4679 73.7808 24.431 73.724 24.3849 73.6672C24.3389 73.6105 24.2744 73.5726 24.2099 73.5348C24.1362 73.5064 24.0625 73.4875 23.9703 73.4875C23.8598 73.4875 23.7676 73.5064 23.6847 73.5348C23.6018 73.5726 23.5373 73.6105 23.482 73.6767C23.4267 73.7335 23.3899 73.8092 23.3623 73.8943C23.3346 73.9795 23.3254 74.0741 23.3254 74.1687H22.8924C22.8924 74.0268 22.92 73.8943 22.9661 73.7713C23.0121 73.6483 23.0766 73.5348 23.1688 73.4402C23.2609 73.3455 23.3715 73.2699 23.5005 73.2131C23.6294 73.1563 23.7861 73.1279 23.9611 73.1279C24.1178 73.1279 24.256 73.1469 24.3757 73.1942C24.4955 73.2415 24.6061 73.2982 24.689 73.3739C24.7719 73.4496 24.8364 73.5442 24.8825 73.6578C24.9285 73.7713 24.947 73.8943 24.947 74.0268C24.947 74.1214 24.9285 74.2255 24.9009 74.3296C24.864 74.4336 24.8272 74.5283 24.7719 74.6323C24.7074 74.7269 24.6429 74.8216 24.5692 74.9162C24.4955 75.0108 24.4126 75.1149 24.3297 75.2L23.4452 76.184H25.1036V76.5341Z" fill="#2E333D"/>
<path d="M27.5913 75.1054C27.5913 75.3798 27.5636 75.6163 27.5175 75.8056C27.4715 75.9853 27.407 76.1367 27.3149 76.2597C27.2227 76.3733 27.1214 76.4584 26.9924 76.5152C26.8634 76.5625 26.7252 76.5909 26.5686 76.5909C26.4119 76.5909 26.2645 76.5625 26.1447 76.5152C26.0158 76.4679 25.9052 76.3827 25.8223 76.2597C25.7301 76.1462 25.6656 75.9948 25.6104 75.8056C25.5643 75.6163 25.5367 75.3893 25.5367 75.1054V74.5945C25.5367 74.3201 25.5643 74.0836 25.6104 73.9038C25.6564 73.7146 25.7301 73.5632 25.8223 73.4496C25.9144 73.3361 26.0158 73.2509 26.1447 73.2036C26.2737 73.1563 26.4119 73.1279 26.5686 73.1279C26.7252 73.1279 26.8726 73.1563 27.0016 73.2036C27.1306 73.2509 27.2411 73.3361 27.3241 73.4496C27.4162 73.5632 27.4807 73.7146 27.5268 73.9038C27.5728 74.093 27.6005 74.3201 27.6005 74.5945V75.1054H27.5913ZM27.1767 74.5188C27.1767 74.3296 27.1674 74.1687 27.1398 74.0362C27.1122 73.9038 27.0753 73.7997 27.02 73.7146C26.9647 73.6294 26.9002 73.5726 26.8265 73.5348C26.7528 73.4969 26.6607 73.478 26.5593 73.478C26.458 73.478 26.3751 73.4969 26.2922 73.5348C26.2184 73.5726 26.154 73.6294 26.0987 73.7146C26.0434 73.7997 26.0065 73.9038 25.9789 74.0362C25.9513 74.1687 25.942 74.3296 25.942 74.5188V75.1716C25.942 75.3609 25.9513 75.5217 25.9789 75.6542C26.0065 75.7867 26.0434 75.9002 26.0987 75.9853C26.154 76.0705 26.2184 76.1367 26.2922 76.1746C26.3659 76.2124 26.458 76.2313 26.5593 76.2313C26.6607 76.2313 26.7528 76.2124 26.8265 76.1746C26.9002 76.1367 26.9647 76.0705 27.02 75.9853C27.0753 75.9002 27.1122 75.7867 27.1398 75.6542C27.1674 75.5217 27.1767 75.3609 27.1767 75.1716V74.5188Z" fill="#2E333D"/>
<path d="M23.5558 61.7362H23.8506C23.9612 61.7362 24.0533 61.7173 24.1362 61.6889C24.2192 61.6605 24.2837 61.6227 24.3389 61.5659C24.3942 61.5186 24.4311 61.4524 24.4587 61.3861C24.4864 61.3199 24.4956 61.2347 24.4956 61.1591C24.4956 60.9698 24.4495 60.8184 24.3574 60.7238C24.2652 60.6197 24.1178 60.5724 23.9243 60.5724C23.8322 60.5724 23.7585 60.5819 23.6848 60.6103C23.6111 60.6387 23.5466 60.6765 23.5005 60.7238C23.4452 60.7711 23.4084 60.8374 23.3807 60.9036C23.3531 60.9793 23.3347 61.055 23.3347 61.1401H22.9201C22.9201 61.0077 22.9477 60.8941 22.9938 60.7806C23.0398 60.667 23.1135 60.5724 23.1965 60.4873C23.2886 60.4021 23.39 60.3359 23.5189 60.2886C23.6387 60.2413 23.7769 60.2129 23.9335 60.2129C24.081 60.2129 24.2192 60.2318 24.3389 60.2697C24.4587 60.317 24.5601 60.3737 24.643 60.4589C24.7259 60.5346 24.7996 60.6387 24.8457 60.7522C24.8917 60.8752 24.9194 61.0077 24.9194 61.1685C24.9194 61.2347 24.9102 61.301 24.8917 61.3672C24.8733 61.4334 24.8365 61.4997 24.7996 61.5659C24.7535 61.6321 24.7075 61.6984 24.643 61.7551C24.5785 61.8119 24.4956 61.8592 24.4126 61.8971C24.5232 61.9349 24.6061 61.9822 24.6798 62.039C24.7535 62.0958 24.8088 62.162 24.8549 62.2282C24.901 62.3039 24.9286 62.3701 24.947 62.4553C24.9655 62.531 24.9747 62.6067 24.9747 62.6824C24.9747 62.8432 24.947 62.9757 24.8917 63.0987C24.8365 63.2217 24.7628 63.3258 24.6706 63.4109C24.5785 63.4961 24.4679 63.5623 24.3389 63.6002C24.21 63.6475 24.0717 63.6664 23.9243 63.6664C23.7861 63.6664 23.6479 63.6475 23.5189 63.6096C23.39 63.5718 23.2794 63.5055 23.1873 63.4298C23.0951 63.3541 23.0214 63.2501 22.9661 63.1365C22.9108 63.023 22.8832 62.8905 22.8832 62.7391H23.2978C23.2978 62.8243 23.3162 62.9095 23.3439 62.9757C23.3715 63.0514 23.4176 63.1081 23.4637 63.1649C23.5189 63.2122 23.5834 63.2595 23.6571 63.2879C23.7308 63.3163 23.823 63.3258 23.9151 63.3258C24.0073 63.3258 24.0994 63.3163 24.1731 63.2879C24.2468 63.2595 24.3113 63.2217 24.3666 63.1744C24.4219 63.1176 24.4587 63.0608 24.4864 62.9757C24.514 62.9 24.5324 62.8054 24.5324 62.7013C24.5324 62.5972 24.514 62.5026 24.4864 62.4269C24.4495 62.3512 24.4034 62.285 24.3482 62.2377C24.2837 62.1904 24.21 62.1525 24.127 62.1241C24.0441 62.0958 23.9428 62.0863 23.8414 62.0863H23.5558V61.7362Z" fill="#2E333D"/>
<path d="M27.5913 62.1904C27.5913 62.4648 27.5636 62.7013 27.5176 62.8905C27.4715 63.0703 27.407 63.2311 27.3149 63.3447C27.2227 63.4582 27.1214 63.5434 26.9924 63.6001C26.8634 63.6475 26.7252 63.6758 26.5686 63.6758C26.4119 63.6758 26.2645 63.6475 26.1447 63.6001C26.0158 63.5528 25.9052 63.4677 25.8223 63.3447C25.7301 63.2311 25.6656 63.0798 25.6104 62.8905C25.5643 62.7013 25.5367 62.4742 25.5367 62.1904V61.6794C25.5367 61.4051 25.5643 61.1685 25.6104 60.9887C25.6564 60.7995 25.7301 60.6481 25.8223 60.5346C25.9144 60.421 26.0158 60.3359 26.1447 60.2886C26.2553 60.2413 26.4027 60.2129 26.5593 60.2129C26.716 60.2129 26.8634 60.2413 26.9924 60.2886C27.1214 60.3359 27.2319 60.421 27.3149 60.5346C27.407 60.6481 27.4715 60.7995 27.5176 60.9887C27.5636 61.178 27.5913 61.4051 27.5913 61.6794V62.1904ZM27.1767 61.6037C27.1767 61.4145 27.1674 61.2537 27.1398 61.1212C27.1122 60.9887 27.0753 60.8847 27.02 60.7995C26.9647 60.7144 26.9002 60.6576 26.8265 60.6197C26.7528 60.5819 26.6607 60.563 26.5593 60.563C26.458 60.563 26.3751 60.5819 26.2922 60.6197C26.2184 60.6576 26.154 60.7144 26.0987 60.7995C26.0434 60.8847 26.0065 60.9887 25.9789 61.1212C25.9513 61.2537 25.942 61.4145 25.942 61.6037V62.2566C25.942 62.4458 25.9513 62.6067 25.9789 62.7391C26.0065 62.8716 26.0434 62.9851 26.0987 63.0703C26.154 63.1555 26.2184 63.2217 26.2922 63.2595C26.3659 63.2974 26.458 63.3163 26.5593 63.3163C26.6607 63.3163 26.7528 63.2974 26.8265 63.2595C26.9002 63.2217 26.9647 63.1555 27.02 63.0703C27.0753 62.9851 27.1122 62.8716 27.1398 62.7391C27.1674 62.6067 27.1767 62.4458 27.1767 62.2566V61.6037Z" fill="#2E333D"/>
<path d="M112.816 89.7237H34.1513C34.05 89.7237 33.9671 89.6385 33.9671 89.5344C33.9671 89.4304 34.05 89.3452 34.1513 89.3452H112.816C112.917 89.3452 113 89.4304 113 89.5344C113 89.6385 112.917 89.7237 112.816 89.7237Z" fill="#A6B9FF"/>
<path d="M112.816 75.8245H34.1513C34.05 75.8245 33.9671 75.7394 33.9671 75.6353C33.9671 75.5312 34.05 75.446 34.1513 75.446H112.816C112.917 75.446 113 75.5312 113 75.6353C113 75.7488 112.917 75.8245 112.816 75.8245Z" fill="#A6B9FF"/>
<path d="M112.816 62.9189H34.1513C34.05 62.9189 33.9671 62.8337 33.9671 62.7296C33.9671 62.6256 34.05 62.5404 34.1513 62.5404H112.816C112.917 62.5404 113 62.6256 113 62.7296C113 62.8337 112.917 62.9189 112.816 62.9189Z" fill="#A6B9FF"/>
<path d="M24.7075 51.4893H25.1589V51.8394H24.7075V52.6247H24.2929V51.8394H22.8003V51.5839L24.2652 49.2563H24.7075V51.4893ZM23.2702 51.4893H24.2929V49.843L23.2702 51.4893Z" fill="#2E333D"/>
<path d="M27.5913 51.1771C27.5913 51.4515 27.5636 51.688 27.5176 51.8772C27.4715 52.0665 27.407 52.2178 27.3149 52.3314C27.2227 52.4449 27.1214 52.5301 26.9924 52.5868C26.8634 52.6342 26.7252 52.6625 26.5686 52.6625C26.4119 52.6625 26.2645 52.6342 26.1447 52.5868C26.0158 52.5395 25.9052 52.4544 25.8223 52.3314C25.7301 52.2178 25.6656 52.0665 25.6104 51.8772C25.5643 51.688 25.5367 51.4609 25.5367 51.1771V50.6661C25.5367 50.3917 25.5643 50.1552 25.6104 49.9754C25.6564 49.7862 25.7301 49.6348 25.8223 49.5213C25.9144 49.4077 26.0158 49.3226 26.1447 49.2753C26.2737 49.228 26.4119 49.1996 26.5686 49.1996C26.7252 49.1996 26.8726 49.228 27.0016 49.2753C27.1122 49.332 27.2227 49.4077 27.3149 49.5213C27.407 49.6348 27.4715 49.7862 27.5176 49.9754C27.5636 50.1647 27.5913 50.3917 27.5913 50.6661V51.1771ZM27.1767 50.5904C27.1767 50.4012 27.1674 50.2404 27.1398 50.1079C27.1122 49.9754 27.0753 49.8714 27.02 49.7862C26.9647 49.7011 26.9002 49.6443 26.8265 49.6064C26.7528 49.5686 26.6607 49.5497 26.5593 49.5497C26.458 49.5497 26.3751 49.5686 26.2922 49.6064C26.2184 49.6443 26.154 49.7011 26.0987 49.7862C26.0434 49.8714 26.0065 49.9754 25.9789 50.1079C25.9513 50.2404 25.942 50.4012 25.942 50.5904V51.2433C25.942 51.4325 25.9513 51.5934 25.9789 51.7258C26.0065 51.8583 26.0434 51.9718 26.0987 52.057C26.154 52.1421 26.2184 52.2084 26.2922 52.2462C26.3659 52.2841 26.458 52.303 26.5593 52.303C26.6607 52.303 26.7528 52.2841 26.8265 52.2462C26.9002 52.2084 26.9647 52.1421 27.02 52.057C27.0753 51.9718 27.1122 51.8583 27.1398 51.7258C27.1674 51.5934 27.1767 51.4325 27.1767 51.2433V50.5904Z" fill="#2E333D"/>
<path d="M23.1418 36.3889L23.3076 34.7142H24.9845V35.1116H23.6669L23.5656 36.0294C23.6209 35.9916 23.7038 35.9537 23.7959 35.9253C23.8881 35.8969 23.9986 35.878 24.1184 35.878C24.2658 35.878 24.404 35.9064 24.5238 35.9537C24.6436 36.0105 24.7449 36.0862 24.8278 36.1902C24.9108 36.2849 24.9753 36.4079 25.0213 36.5498C25.0674 36.6917 25.0858 36.8431 25.0858 37.0134C25.0858 37.1743 25.0674 37.3256 25.0213 37.4581C24.9845 37.5906 24.9108 37.7041 24.8278 37.8082C24.7449 37.9028 24.6344 37.9785 24.5054 38.0353C24.3764 38.092 24.2198 38.1204 24.0447 38.1204C23.9157 38.1204 23.7867 38.1015 23.6669 38.0636C23.5472 38.0258 23.4458 37.969 23.3537 37.8933C23.2708 37.8176 23.1971 37.723 23.1326 37.6C23.0773 37.4865 23.0404 37.3446 23.0312 37.1932H23.4274C23.455 37.3824 23.5195 37.5338 23.6301 37.6284C23.7407 37.723 23.8789 37.7703 24.0539 37.7703C24.1553 37.7703 24.2382 37.7514 24.3211 37.7136C24.3948 37.6757 24.4593 37.6284 24.5146 37.5622C24.5607 37.5054 24.5975 37.4203 24.6252 37.3256C24.6528 37.231 24.662 37.1269 24.662 37.0039C24.662 36.8999 24.6436 36.8053 24.6159 36.7106C24.5883 36.616 24.5422 36.5403 24.4869 36.4741C24.4501 36.4079 24.3764 36.3606 24.2935 36.3227C24.2105 36.2849 24.1184 36.2659 24.0171 36.2659C23.9434 36.2659 23.8881 36.2659 23.8328 36.2849C23.7867 36.2849 23.7407 36.3038 23.6946 36.3227C23.6577 36.3416 23.6209 36.3606 23.584 36.3889C23.5472 36.4173 23.5195 36.4457 23.4827 36.4741L23.1418 36.3889Z" fill="#2E333D"/>
<path d="M27.5913 36.644C27.5913 36.9184 27.5637 37.1549 27.5176 37.3441C27.4715 37.5239 27.407 37.6753 27.3149 37.7983C27.2228 37.9118 27.1214 37.997 26.9924 38.0443C26.8635 38.1011 26.7252 38.12 26.5594 38.12C26.4028 38.12 26.2554 38.0916 26.1356 38.0443C26.0066 37.997 25.896 37.9118 25.8131 37.7983C25.721 37.6848 25.6565 37.5334 25.6012 37.3441C25.5551 37.1549 25.5275 36.9278 25.5275 36.644V36.1236C25.5275 35.8492 25.5551 35.6127 25.6012 35.4329C25.6473 35.2437 25.721 35.0923 25.8131 34.9787C25.9052 34.8652 26.0066 34.78 26.1356 34.7327C26.2554 34.6949 26.4028 34.6665 26.5594 34.6665C26.716 34.6665 26.8635 34.6949 26.9924 34.7422C27.1122 34.7895 27.2228 34.8747 27.3149 34.9882C27.407 35.1017 27.4715 35.2531 27.5268 35.4329C27.5729 35.6221 27.5913 35.8492 27.5913 36.1236V36.644ZM27.1767 36.0574C27.1767 35.8681 27.1675 35.7073 27.1399 35.5748C27.1122 35.4424 27.0754 35.3383 27.0201 35.2531C26.9648 35.168 26.9003 35.1112 26.8266 35.0734C26.7529 35.0355 26.6608 35.0166 26.5594 35.0166C26.4581 35.0166 26.3751 35.0355 26.2922 35.0734C26.2185 35.1112 26.154 35.168 26.0987 35.2531C26.0435 35.3383 26.0066 35.4424 25.979 35.5748C25.9605 35.7073 25.9421 35.8681 25.9421 36.0574V36.7102C25.9421 36.8994 25.9513 37.0603 25.979 37.1928C26.0066 37.3252 26.0435 37.4388 26.0987 37.5239C26.154 37.6091 26.2185 37.6753 26.2922 37.7131C26.3659 37.751 26.4581 37.7699 26.5594 37.7699C26.6608 37.7699 26.7529 37.751 26.8266 37.7131C26.9003 37.6753 26.9648 37.6091 27.0201 37.5239C27.0754 37.4388 27.1122 37.3252 27.1399 37.1928C27.1675 37.0603 27.1767 36.8994 27.1767 36.7102V36.0574Z" fill="#2E333D"/>
<path d="M112.816 51.2621H34.1513C34.05 51.2621 33.9671 51.177 33.9671 51.0729C33.9671 50.9688 34.05 50.8837 34.1513 50.8837H112.816C112.917 50.8837 113 50.9688 113 51.0729C113 51.177 112.917 51.2621 112.816 51.2621Z" fill="#A6B9FF"/>
<path d="M112.816 37.3725H34.1513C34.05 37.3725 33.9671 37.2873 33.9671 37.1833C33.9671 37.0792 34.05 36.994 34.1513 36.994H112.816C112.917 36.994 113 37.0792 113 37.1833C113 37.2873 112.917 37.3725 112.816 37.3725Z" fill="#A6B9FF"/>
<path d="M45.5576 39.4824H38.5461V101.617H45.5576V39.4824Z" fill="#FAFFE8"/>
<path d="M45.5576 62.6445H38.5461V101.617H45.5576V62.6445Z" fill="#FBFF24"/>
<path d="M57.4062 50.6188H50.3947V101.617H57.4062V50.6188Z" fill="#FAFFE8"/>
<path d="M57.4062 56.4093H50.3947V101.617H57.4062V56.4093Z" fill="#FBFF24"/>
<path d="M69.2454 47.2694H62.2339V101.607H69.2454V47.2694Z" fill="#FBFF24"/>
<path d="M81.094 49.3414H74.0825V101.617H81.094V49.3414Z" fill="#FAFFE8"/>
<path d="M81.094 73.9795H74.0825V101.617H81.094V73.9795Z" fill="#FBFF24"/>
<path d="M92.9333 35.6884H85.9219V101.607H92.9333V35.6884Z" fill="#FAFFE8"/>
<path d="M92.9333 48.6129H85.9219V101.617H92.9333V48.6129Z" fill="#FBFF24"/>
<path d="M104.782 55.5105H97.7704V101.617H104.782V55.5105Z" fill="#FAFFE8"/>
<path d="M104.782 76.941H97.7704V101.607H104.782V76.941Z" fill="#FBFF24"/>
<path d="M112.816 101.806H34.1513C34.05 101.806 33.9671 101.721 33.9671 101.617C33.9671 101.513 34.05 101.428 34.1513 101.428H112.816C112.917 101.428 113 101.513 113 101.617C113 101.721 112.917 101.806 112.816 101.806Z" fill="#2453FF"/>
</g>
<defs>
<clipPath id="clip0">
<rect width="90.2" height="68.0952" fill="white" transform="translate(22.8003 34.6665)"/>
</clipPath>
</defs>
</svg>
