<svg width="136" height="136" viewBox="0 0 136 136" fill="none" xmlns="http://www.w3.org/2000/svg">
<path d="M68.0005 136C105.556 136 136 105.555 136 68C136 30.4446 105.556 0 68.0005 0C30.4451 0 0.000488281 30.4446 0.000488281 68C0.000488281 105.555 30.4451 136 68.0005 136Z" fill="#8BCAFF"/>
<circle cx="68.0005" cy="68" r="61" stroke="white" stroke-width="2"/>
<path d="M26.0005 36V82.4961V85.4268H105.729V82.4961V36H26.0005Z" fill="url(#paint0_linear)"/>
<path d="M104.687 37.0742H27.0427V82.496H104.687V37.0742Z" fill="url(#paint1_linear)"/>
<path d="M70.5885 85.4268V89.7564L70.5874 89.8309C70.5504 91.3521 69.375 92.5788 67.914 92.6265C67.8849 92.6277 67.8547 92.6277 67.8245 92.6277H63.9152C63.8861 92.6277 63.8559 92.6265 63.8257 92.6265C62.3424 92.5788 61.1535 91.3137 61.1523 89.7599V85.4279H70.5885V85.4268Z" fill="url(#paint2_linear)"/>
<path d="M63.8281 92.6254C62.3447 92.5777 61.1558 91.3126 61.1547 89.7588V89.7285L58.2172 92.1575V92.6254L37.2234 98.0049L36.6648 99.4668L37.5581 100.169L65.8655 96.1916V92.6243H63.8281V92.6254Z" fill="url(#paint3_linear)"/>
<path d="M94.5065 98.0048L73.5138 92.6253V92.1574L70.5886 89.7563L70.5875 89.8308C70.5505 91.352 69.3751 92.5788 67.9141 92.6265H65.8655V96.1938L94.1729 100.17L95.0662 99.469L94.5065 98.0048Z" fill="url(#paint4_linear)"/>
<path d="M64.2141 37.6572H27.5979V81.829H64.2141V37.6572Z" fill="url(#paint5_linear)"/>
<path d="M33.173 41.0859H32.5237V54.3379H33.173V41.0859Z" fill="url(#paint6_linear)"/>
<path d="M43.2651 46.8601H34.748V48.2475H43.2651V46.8601Z" fill="url(#paint7_linear)"/>
<path d="M57.972 46.8601H43.2664V48.2475H57.972V46.8601Z" fill="url(#paint8_linear)"/>
<path d="M50.3224 44.3101H34.748V45.6974H50.3224V44.3101Z" fill="url(#paint9_linear)"/>
<path d="M57.9718 44.3101H50.3235V45.6974H57.9718V44.3101Z" fill="url(#paint10_linear)"/>
<path d="M52.7561 41.7598H34.748V43.1471H52.7561V41.7598Z" fill="url(#paint11_linear)"/>
<path d="M57.9707 41.7598H52.7561V43.1471H57.9707V41.7598Z" fill="url(#paint12_linear)"/>
<path d="M46.3594 49.4104H34.748V50.7977H46.3594V49.4104Z" fill="url(#paint13_linear)"/>
<path d="M57.9707 49.4104H46.3594V50.7977H57.9707V49.4104Z" fill="url(#paint14_linear)"/>
<path d="M42.2576 51.9604H34.748V53.3478H42.2576V51.9604Z" fill="url(#paint15_linear)"/>
<path d="M57.9707 51.9604H42.2576V53.3478H57.9707V51.9604Z" fill="url(#paint16_linear)"/>
<path d="M51.2077 58.9055H39.8281V60.4744H51.2077V58.9055Z" fill="url(#paint17_linear)"/>
<path opacity="0.48" d="M58.9871 61.1855H39.8281V62.0235H58.9871V61.1855Z" fill="url(#paint18_linear)"/>
<path opacity="0.48" d="M58.9871 62.5881H39.8281V63.4261H58.9871V62.5881Z" fill="url(#paint19_linear)"/>
<path opacity="0.48" d="M58.9871 64.072H39.8281V64.91H58.9871V64.072Z" fill="url(#paint20_linear)"/>
<path opacity="0.48" d="M58.9871 65.5942H39.8281V66.4322H58.9871V65.5942Z" fill="url(#paint21_linear)"/>
<path d="M34.1065 66.4323C36.106 66.4323 37.7269 64.7471 37.7269 62.6683C37.7269 60.5895 36.106 58.9043 34.1065 58.9043C32.107 58.9043 30.4861 60.5895 30.4861 62.6683C30.4861 64.7471 32.107 66.4323 34.1065 66.4323Z" fill="url(#paint22_linear)"/>
<path d="M33.9776 64.7751L32.229 63.5332L32.2436 62.4531L33.9776 63.4948V64.7751Z" fill="url(#paint23_linear)"/>
<path d="M36.577 61.3019L33.9775 64.775V63.4993L35.6265 61.2856L36.577 61.3019Z" fill="url(#paint24_linear)"/>
<path d="M51.8659 70.8843H40.4863V72.4532H51.8659V70.8843Z" fill="url(#paint25_linear)"/>
<path opacity="0.48" d="M59.6453 73.1643H40.4863V74.0023H59.6453V73.1643Z" fill="url(#paint26_linear)"/>
<path opacity="0.48" d="M59.6453 74.5669H40.4863V75.4049H59.6453V74.5669Z" fill="url(#paint27_linear)"/>
<path opacity="0.48" d="M59.6453 76.0508H40.4863V76.8888H59.6453V76.0508Z" fill="url(#paint28_linear)"/>
<path opacity="0.48" d="M59.6453 77.5732H40.4863V78.4112H59.6453V77.5732Z" fill="url(#paint29_linear)"/>
<path d="M34.1065 78.4111C36.106 78.4111 37.7269 76.7259 37.7269 74.6471C37.7269 72.5683 36.106 70.8831 34.1065 70.8831C32.107 70.8831 30.4861 72.5683 30.4861 74.6471C30.4861 76.7259 32.107 78.4111 34.1065 78.4111Z" fill="url(#paint30_linear)"/>
<path d="M33.9776 76.3918L32.229 75.1511L32.2436 74.0698L33.9776 75.1115V76.3918Z" fill="url(#paint31_linear)"/>
<path d="M36.577 72.9187L33.9775 76.3917V75.1161L35.6265 72.9036L36.577 72.9187Z" fill="url(#paint32_linear)"/>
<path d="M103.694 37.6572H67.0779V81.8279H103.694V37.6572Z" fill="url(#paint33_linear)"/>
<path d="M89.8517 48.101H79.53C79.2378 48.101 79.0005 47.8543 79.0005 47.5505C79.0005 47.2467 79.2378 47 79.53 47H89.8517C90.1439 47 90.3812 47.2467 90.3812 47.5505C90.3801 47.8543 90.1439 48.101 89.8517 48.101Z" fill="url(#paint34_linear)"/>
<path opacity="0.48" d="M98.1594 48.5991H79.0005V49.1869H98.1594V48.5991Z" fill="url(#paint35_linear)"/>
<path opacity="0.48" d="M98.1594 49.5825H79.0005V50.1703H98.1594V49.5825Z" fill="url(#paint36_linear)"/>
<path opacity="0.48" d="M98.1594 50.6221H79.0005V51.2098H98.1594V50.6221Z" fill="url(#paint37_linear)"/>
<path opacity="0.48" d="M98.1594 51.6892H79.0005V52.277H98.1594V51.6892Z" fill="url(#paint38_linear)"/>
<path d="M89.8517 55.8327H79.53C79.2378 55.8327 79.0005 55.586 79.0005 55.2822C79.0005 54.9784 79.2378 54.7317 79.53 54.7317H89.8517C90.1439 54.7317 90.3812 54.9784 90.3812 55.2822C90.3801 55.586 90.1439 55.8327 89.8517 55.8327Z" fill="url(#paint39_linear)"/>
<path opacity="0.48" d="M98.1594 56.3308H79.0005V56.9186H98.1594V56.3308Z" fill="url(#paint40_linear)"/>
<path opacity="0.48" d="M98.1594 57.3145H79.0005V57.9022H98.1594V57.3145Z" fill="url(#paint41_linear)"/>
<path opacity="0.48" d="M98.1594 58.3538H79.0005V58.9415H98.1594V58.3538Z" fill="url(#paint42_linear)"/>
<path opacity="0.48" d="M98.1594 59.4209H79.0005V60.0087H98.1594V59.4209Z" fill="url(#paint43_linear)"/>
<path d="M89.8517 63.5644H79.53C79.2378 63.5644 79.0005 63.3177 79.0005 63.0139C79.0005 62.7101 79.2378 62.4634 79.53 62.4634H89.8517C90.1439 62.4634 90.3812 62.7101 90.3812 63.0139C90.3801 63.3177 90.1439 63.5644 89.8517 63.5644Z" fill="url(#paint44_linear)"/>
<path opacity="0.48" d="M98.1594 64.0625H79.0005V64.6503H98.1594V64.0625Z" fill="url(#paint45_linear)"/>
<path opacity="0.48" d="M98.1594 65.0461H79.0005V65.6339H98.1594V65.0461Z" fill="url(#paint46_linear)"/>
<path opacity="0.48" d="M98.1594 66.0854H79.0005V66.6732H98.1594V66.0854Z" fill="url(#paint47_linear)"/>
<path opacity="0.48" d="M98.1594 67.1526H79.0005V67.7403H98.1594V67.1526Z" fill="url(#paint48_linear)"/>
<path d="M98.2601 72.6985H89.1284V73.9578H98.2601V72.6985Z" fill="url(#paint49_linear)"/>
<path opacity="0.48" d="M104.502 74.5281H89.1284V75.2008H104.502V74.5281Z" fill="url(#paint50_linear)"/>
<path opacity="0.48" d="M104.502 75.6536H89.1284V76.3263H104.502V75.6536Z" fill="url(#paint51_linear)"/>
<path opacity="0.48" d="M104.502 76.8442H89.1284V77.517H104.502V76.8442Z" fill="url(#paint52_linear)"/>
<path opacity="0.48" d="M104.502 78.0664H89.1284V78.7391H104.502V78.0664Z" fill="url(#paint53_linear)"/>
<path d="M84.5374 78.7391C86.1418 78.7391 87.4425 77.3868 87.4425 75.7188C87.4425 74.0507 86.1418 72.6985 84.5374 72.6985C82.933 72.6985 81.6323 74.0507 81.6323 75.7188C81.6323 77.3868 82.933 78.7391 84.5374 78.7391Z" fill="url(#paint54_linear)"/>
<path d="M84.4344 77.4088L83.0305 76.4125L83.0417 75.5454L84.4344 76.3811V77.4088Z" fill="url(#paint55_linear)"/>
<path d="M86.5199 74.6213L84.4343 77.4088V76.3845L85.7576 74.6096L86.5199 74.6213Z" fill="url(#paint56_linear)"/>
<path d="M98.2598 82.2458H89.1282V83.5052H98.2598V82.2458Z" fill="url(#paint57_linear)"/>
<path opacity="0.48" d="M104.502 84.0767H89.1282V84.7494H104.502V84.0767Z" fill="url(#paint58_linear)"/>
<path opacity="0.48" d="M104.502 85.2021H89.1282V85.8749H104.502V85.2021Z" fill="url(#paint59_linear)"/>
<path opacity="0.48" d="M104.502 86.3916H89.1282V87.0643H104.502V86.3916Z" fill="url(#paint60_linear)"/>
<path opacity="0.48" d="M104.502 87.6138H89.1282V88.2865H104.502V87.6138Z" fill="url(#paint61_linear)"/>
<path d="M84.0088 88.2864C85.6133 88.2864 86.9139 86.9342 86.9139 85.2661C86.9139 83.5981 85.6133 82.2458 84.0088 82.2458C82.4044 82.2458 81.1038 83.5981 81.1038 85.2661C81.1038 86.9342 82.4044 88.2864 84.0088 88.2864Z" fill="url(#paint62_linear)"/>
<path d="M83.9059 86.6664L82.5032 85.6701L82.5144 84.803L83.9059 85.6386V86.6664Z" fill="url(#paint63_linear)"/>
<path d="M85.9916 83.8788L83.906 86.6663V85.6433L85.2292 83.8672L85.9916 83.8788Z" fill="url(#paint64_linear)"/>
<path d="M98.2598 91.749H89.1282V93.0083H98.2598V91.749Z" fill="url(#paint65_linear)"/>
<path opacity="0.48" d="M104.502 93.5786H89.1282V94.2513H104.502V93.5786Z" fill="url(#paint66_linear)"/>
<path opacity="0.48" d="M104.502 94.7041H89.1282V95.3768H104.502V94.7041Z" fill="url(#paint67_linear)"/>
<path opacity="0.48" d="M104.502 95.8948H89.1282V96.5675H104.502V95.8948Z" fill="url(#paint68_linear)"/>
<path opacity="0.48" d="M104.502 97.1157H89.1282V97.7885H104.502V97.1157Z" fill="url(#paint69_linear)"/>
<path d="M84.0088 97.7884C85.6133 97.7884 86.9139 96.4361 86.9139 94.7681C86.9139 93.1 85.6133 91.7478 84.0088 91.7478C82.4044 91.7478 81.1038 93.1 81.1038 94.7681C81.1038 96.4361 82.4044 97.7884 84.0088 97.7884Z" fill="url(#paint70_linear)"/>
<path d="M83.9059 96.1683L82.5032 95.172L82.5144 94.3049L83.9059 95.1406V96.1683Z" fill="url(#paint71_linear)"/>
<path d="M85.9916 93.3819L83.906 96.1683V95.1452L85.2292 93.3691L85.9916 93.3819Z" fill="url(#paint72_linear)"/>
<path d="M107.911 100.1H79.335C79.335 100.1 81.4754 99.9487 81.3209 97.252H109.924C109.924 97.2531 110.04 99.8078 107.911 100.1Z" fill="url(#paint73_linear)"/>
<path d="M92.2754 39.0225H78.4956V40.4587H92.2754V39.0225Z" fill="url(#paint74_linear)"/>
<path d="M93.7072 40.8989H77.0637V42.3352H93.7072V40.8989Z" fill="url(#paint75_linear)"/>
<path d="M93.7072 42.7739H77.0637V44.2102H93.7072V42.7739Z" fill="url(#paint76_linear)"/>
<path d="M71.5669 79.52V81.828H72.1087V80.0833H76.0997V81.828H76.6416V79.52H71.5669Z" fill="url(#paint77_linear)"/>
<path d="M76.6428 52.7426H71.5681V47.4656H76.6428V52.7426ZM72.1088 52.1793H76.0998V48.0301H72.1088V52.1793Z" fill="url(#paint78_linear)"/>
<path d="M73.7343 51.9336L72.251 50.3111L72.9238 49.6454L73.6839 50.4764L77.0144 46.2573L77.732 46.8707L73.7343 51.9336Z" fill="url(#paint79_linear)"/>
<path d="M76.6428 60.7559H71.5681V55.48H76.6428V60.7559ZM72.1088 60.1926H76.0998V56.0433H72.1088V60.1926Z" fill="url(#paint80_linear)"/>
<path d="M73.7343 59.9482L72.251 58.3246L72.9238 57.6589L73.6839 58.4899L77.0144 54.272L77.732 54.8842L73.7343 59.9482Z" fill="url(#paint81_linear)"/>
<path d="M76.6428 68.7695H71.5681V63.4937H76.6428V68.7695ZM72.1088 68.2062H76.0998V64.057H72.1088V68.2062Z" fill="url(#paint82_linear)"/>
<path d="M73.7343 67.9617L72.251 66.3381L72.9238 65.6723L73.6839 66.5033L77.0144 62.2854L77.732 62.8976L73.7343 67.9617Z" fill="url(#paint83_linear)"/>
<path d="M76.6428 76.7828H71.5681V71.5068H76.6428V76.7828ZM72.1088 76.2194H76.0998V72.0702H72.1088V76.2194Z" fill="url(#paint84_linear)"/>
<path d="M73.7343 75.9749L72.251 74.3512L72.9238 73.6867L73.6839 74.5177L77.0144 70.2986L77.732 70.912L73.7343 75.9749Z" fill="url(#paint85_linear)"/>
<path d="M108.71 97.7185H82.1192C82.2737 100.415 80.1333 100.567 80.1333 100.567C79.0003 100.567 78.0801 99.611 78.0801 98.4308V72.2539C78.0801 71.7115 77.8685 71.2204 77.5271 70.8642C77.1845 70.5081 76.7132 70.2881 76.1904 70.2881H105.092C107.091 70.2881 108.71 71.9722 108.71 74.0509V97.7185Z" fill="url(#paint86_linear)"/>
<path d="M78.0812 72.2539V81.8292H71.1807C73.1443 81.7966 73.6838 79.7633 74.1093 77.9523C74.1093 77.9523 74.3007 72.6112 74.3007 72.2539C74.3007 71.1691 75.147 70.2881 76.1915 70.2881C76.7132 70.2881 77.1856 70.5081 77.5282 70.8642C77.8696 71.2204 78.0812 71.7115 78.0812 72.2539Z" fill="url(#paint87_linear)"/>
<defs>
<linearGradient id="paint0_linear" x1="114.9" y1="23.2155" x2="6.18998" y2="100.127" gradientUnits="userSpaceOnUse">
<stop stop-color="#808080"/>
<stop offset="0.6386" stop-color="#52524D"/>
<stop offset="1" stop-color="#3C3C35"/>
</linearGradient>
<linearGradient id="paint1_linear" x1="27.0427" y1="59.7847" x2="104.687" y2="59.7847" gradientUnits="userSpaceOnUse">
<stop stop-color="#FFD571"/>
<stop offset="0.2509" stop-color="#FFBD60"/>
<stop offset="0.7782" stop-color="#FF8035"/>
<stop offset="1" stop-color="#FF6421"/>
</linearGradient>
<linearGradient id="paint2_linear" x1="61.154" y1="89.0271" x2="70.5889" y2="89.0271" gradientUnits="userSpaceOnUse">
<stop stop-color="#808080"/>
<stop offset="0.6386" stop-color="#52524D"/>
<stop offset="1" stop-color="#3C3C35"/>
</linearGradient>
<linearGradient id="paint3_linear" x1="36.6648" y1="94.9495" x2="65.8654" y2="94.9495" gradientUnits="userSpaceOnUse">
<stop stop-color="#808080"/>
<stop offset="0.6386" stop-color="#52524D"/>
<stop offset="1" stop-color="#3C3C35"/>
</linearGradient>
<linearGradient id="paint4_linear" x1="65.8654" y1="94.9622" x2="95.066" y2="94.9622" gradientUnits="userSpaceOnUse">
<stop stop-color="#808080"/>
<stop offset="0.6386" stop-color="#52524D"/>
<stop offset="1" stop-color="#3C3C35"/>
</linearGradient>
<linearGradient id="paint5_linear" x1="27.5974" y1="59.7429" x2="64.2133" y2="59.7429" gradientUnits="userSpaceOnUse">
<stop stop-color="#F7F7F7"/>
<stop offset="1" stop-color="white"/>
</linearGradient>
<linearGradient id="paint6_linear" x1="32.5234" y1="47.7113" x2="33.1724" y2="47.7113" gradientUnits="userSpaceOnUse">
<stop stop-color="#BE73DE"/>
<stop offset="1" stop-color="#514EB7"/>
</linearGradient>
<linearGradient id="paint7_linear" x1="45.9472" y1="47.554" x2="32.3656" y2="47.554" gradientUnits="userSpaceOnUse">
<stop stop-color="#BE73DE"/>
<stop offset="1" stop-color="#514EB7"/>
</linearGradient>
<linearGradient id="paint8_linear" x1="50.6186" y1="46.7518" x2="50.6186" y2="48.3614" gradientUnits="userSpaceOnUse">
<stop stop-color="#E2E2E2"/>
<stop offset="0.0954" stop-color="#E6E6E6"/>
<stop offset="0.6241" stop-color="#F8F8F8"/>
<stop offset="1" stop-color="white"/>
</linearGradient>
<linearGradient id="paint9_linear" x1="53.6192" y1="45.0041" x2="31.9508" y2="45.0041" gradientUnits="userSpaceOnUse">
<stop stop-color="#BE73DE"/>
<stop offset="1" stop-color="#514EB7"/>
</linearGradient>
<linearGradient id="paint10_linear" x1="54.1471" y1="44.2301" x2="54.1471" y2="45.8397" gradientUnits="userSpaceOnUse">
<stop stop-color="#E2E2E2"/>
<stop offset="0.2283" stop-color="#EDEDED"/>
<stop offset="0.636" stop-color="#FAFAFA"/>
<stop offset="1" stop-color="white"/>
</linearGradient>
<linearGradient id="paint11_linear" x1="56.3148" y1="42.454" x2="30.4994" y2="42.454" gradientUnits="userSpaceOnUse">
<stop stop-color="#BE73DE"/>
<stop offset="1" stop-color="#514EB7"/>
</linearGradient>
<linearGradient id="paint12_linear" x1="55.3324" y1="41.6374" x2="55.4161" y2="43.6492" gradientUnits="userSpaceOnUse">
<stop stop-color="#E2E2E2"/>
<stop offset="0.1153" stop-color="#E6E6E6"/>
<stop offset="1" stop-color="white"/>
</linearGradient>
<linearGradient id="paint13_linear" x1="47.917" y1="50.1042" x2="31.7435" y2="50.1042" gradientUnits="userSpaceOnUse">
<stop stop-color="#BE73DE"/>
<stop offset="1" stop-color="#514EB7"/>
</linearGradient>
<linearGradient id="paint14_linear" x1="52.1719" y1="49.4018" x2="52.158" y2="50.8102" gradientUnits="userSpaceOnUse">
<stop stop-color="#E2E2E2"/>
<stop offset="0.589" stop-color="#F6F6F6"/>
<stop offset="1" stop-color="white"/>
</linearGradient>
<linearGradient id="paint15_linear" x1="44.392" y1="52.6541" x2="32.0545" y2="52.6541" gradientUnits="userSpaceOnUse">
<stop stop-color="#BE73DE"/>
<stop offset="1" stop-color="#514EB7"/>
</linearGradient>
<linearGradient id="paint16_linear" x1="50.1208" y1="51.9478" x2="50.1069" y2="53.3562" gradientUnits="userSpaceOnUse">
<stop stop-color="#E2E2E2"/>
<stop offset="0.1252" stop-color="#E7E7E7"/>
<stop offset="0.6292" stop-color="#F9F9F9"/>
<stop offset="1" stop-color="white"/>
</linearGradient>
<linearGradient id="paint17_linear" x1="52.997" y1="59.6897" x2="32.6765" y2="59.6897" gradientUnits="userSpaceOnUse">
<stop stop-color="#BE73DE"/>
<stop offset="1" stop-color="#514EB7"/>
</linearGradient>
<linearGradient id="paint18_linear" x1="39.8283" y1="61.6044" x2="58.9878" y2="61.6044" gradientUnits="userSpaceOnUse">
<stop stop-color="#B7B4B1"/>
<stop offset="0.5456" stop-color="#959390"/>
<stop offset="1" stop-color="#7D7B79"/>
</linearGradient>
<linearGradient id="paint19_linear" x1="39.8283" y1="63.0074" x2="58.9878" y2="63.0074" gradientUnits="userSpaceOnUse">
<stop stop-color="#B7B4B1"/>
<stop offset="0.5456" stop-color="#959390"/>
<stop offset="1" stop-color="#7D7B79"/>
</linearGradient>
<linearGradient id="paint20_linear" x1="39.8283" y1="64.4906" x2="58.9878" y2="64.4906" gradientUnits="userSpaceOnUse">
<stop stop-color="#B7B4B1"/>
<stop offset="0.5456" stop-color="#959390"/>
<stop offset="1" stop-color="#7D7B79"/>
</linearGradient>
<linearGradient id="paint21_linear" x1="39.8283" y1="66.0129" x2="58.9878" y2="66.0129" gradientUnits="userSpaceOnUse">
<stop stop-color="#B7B4B1"/>
<stop offset="0.5456" stop-color="#959390"/>
<stop offset="1" stop-color="#7D7B79"/>
</linearGradient>
<linearGradient id="paint22_linear" x1="45.3624" y1="52.6088" x2="27.0514" y2="67.7494" gradientUnits="userSpaceOnUse">
<stop stop-color="#CAEDC0"/>
<stop offset="0.0617" stop-color="#C2EAB9"/>
<stop offset="0.706" stop-color="#6FCA6E"/>
<stop offset="1" stop-color="#4EBD50"/>
</linearGradient>
<linearGradient id="paint23_linear" x1="32.2295" y1="63.6136" x2="33.978" y2="63.6136" gradientUnits="userSpaceOnUse">
<stop stop-color="#F7F7F7"/>
<stop offset="1" stop-color="white"/>
</linearGradient>
<linearGradient id="paint24_linear" x1="33.9779" y1="63.0302" x2="36.5768" y2="63.0302" gradientUnits="userSpaceOnUse">
<stop stop-color="#F7F7F7"/>
<stop offset="1" stop-color="white"/>
</linearGradient>
<linearGradient id="paint25_linear" x1="54.1467" y1="71.7995" x2="34.4479" y2="71.5003" gradientUnits="userSpaceOnUse">
<stop stop-color="#BE73DE"/>
<stop offset="1" stop-color="#514EB7"/>
</linearGradient>
<linearGradient id="paint26_linear" x1="40.4862" y1="73.5834" x2="59.6457" y2="73.5834" gradientUnits="userSpaceOnUse">
<stop stop-color="#B7B4B1"/>
<stop offset="0.5456" stop-color="#959390"/>
<stop offset="1" stop-color="#7D7B79"/>
</linearGradient>
<linearGradient id="paint27_linear" x1="40.4862" y1="74.9864" x2="59.6457" y2="74.9864" gradientUnits="userSpaceOnUse">
<stop stop-color="#B7B4B1"/>
<stop offset="0.5456" stop-color="#959390"/>
<stop offset="1" stop-color="#7D7B79"/>
</linearGradient>
<linearGradient id="paint28_linear" x1="40.4862" y1="76.4696" x2="59.6457" y2="76.4696" gradientUnits="userSpaceOnUse">
<stop stop-color="#B7B4B1"/>
<stop offset="0.5456" stop-color="#959390"/>
<stop offset="1" stop-color="#7D7B79"/>
</linearGradient>
<linearGradient id="paint29_linear" x1="40.4862" y1="77.9922" x2="59.6457" y2="77.9922" gradientUnits="userSpaceOnUse">
<stop stop-color="#B7B4B1"/>
<stop offset="0.5456" stop-color="#959390"/>
<stop offset="1" stop-color="#7D7B79"/>
</linearGradient>
<linearGradient id="paint30_linear" x1="44.9054" y1="65.316" x2="28.4357" y2="78.4829" gradientUnits="userSpaceOnUse">
<stop stop-color="#CAEDC0"/>
<stop offset="0.0617" stop-color="#C2EAB9"/>
<stop offset="0.706" stop-color="#6FCA6E"/>
<stop offset="1" stop-color="#4EBD50"/>
</linearGradient>
<linearGradient id="paint31_linear" x1="32.2295" y1="75.231" x2="33.978" y2="75.231" gradientUnits="userSpaceOnUse">
<stop stop-color="#F7F7F7"/>
<stop offset="1" stop-color="white"/>
</linearGradient>
<linearGradient id="paint32_linear" x1="33.9779" y1="74.6476" x2="36.5768" y2="74.6476" gradientUnits="userSpaceOnUse">
<stop stop-color="#F7F7F7"/>
<stop offset="1" stop-color="white"/>
</linearGradient>
<linearGradient id="paint33_linear" x1="67.0776" y1="59.7428" x2="103.693" y2="59.7428" gradientUnits="userSpaceOnUse">
<stop stop-color="#F7F7F7"/>
<stop offset="1" stop-color="white"/>
</linearGradient>
<linearGradient id="paint34_linear" x1="92.6317" y1="47.5506" x2="73.2442" y2="47.5506" gradientUnits="userSpaceOnUse">
<stop stop-color="#BE73DE"/>
<stop offset="1" stop-color="#514EB7"/>
</linearGradient>
<linearGradient id="paint35_linear" x1="79.0006" y1="48.8927" x2="98.1601" y2="48.8927" gradientUnits="userSpaceOnUse">
<stop stop-color="#B7B4B1"/>
<stop offset="0.5456" stop-color="#959390"/>
<stop offset="1" stop-color="#7D7B79"/>
</linearGradient>
<linearGradient id="paint36_linear" x1="79.0006" y1="49.8759" x2="98.1601" y2="49.8759" gradientUnits="userSpaceOnUse">
<stop stop-color="#B7B4B1"/>
<stop offset="0.5456" stop-color="#959390"/>
<stop offset="1" stop-color="#7D7B79"/>
</linearGradient>
<linearGradient id="paint37_linear" x1="79.0006" y1="50.9158" x2="98.1601" y2="50.9158" gradientUnits="userSpaceOnUse">
<stop stop-color="#B7B4B1"/>
<stop offset="0.5456" stop-color="#959390"/>
<stop offset="1" stop-color="#7D7B79"/>
</linearGradient>
<linearGradient id="paint38_linear" x1="79.0006" y1="51.9828" x2="98.1601" y2="51.9828" gradientUnits="userSpaceOnUse">
<stop stop-color="#B7B4B1"/>
<stop offset="0.5456" stop-color="#959390"/>
<stop offset="1" stop-color="#7D7B79"/>
</linearGradient>
<linearGradient id="paint39_linear" x1="92.5281" y1="55.4079" x2="72.3126" y2="55.1087" gradientUnits="userSpaceOnUse">
<stop stop-color="#BE73DE"/>
<stop offset="1" stop-color="#514EB7"/>
</linearGradient>
<linearGradient id="paint40_linear" x1="79.0006" y1="56.6246" x2="98.1601" y2="56.6246" gradientUnits="userSpaceOnUse">
<stop stop-color="#B7B4B1"/>
<stop offset="0.5456" stop-color="#959390"/>
<stop offset="1" stop-color="#7D7B79"/>
</linearGradient>
<linearGradient id="paint41_linear" x1="79.0006" y1="57.6081" x2="98.1601" y2="57.6081" gradientUnits="userSpaceOnUse">
<stop stop-color="#B7B4B1"/>
<stop offset="0.5456" stop-color="#959390"/>
<stop offset="1" stop-color="#7D7B79"/>
</linearGradient>
<linearGradient id="paint42_linear" x1="79.0006" y1="58.6478" x2="98.1601" y2="58.6478" gradientUnits="userSpaceOnUse">
<stop stop-color="#B7B4B1"/>
<stop offset="0.5456" stop-color="#959390"/>
<stop offset="1" stop-color="#7D7B79"/>
</linearGradient>
<linearGradient id="paint43_linear" x1="79.0006" y1="59.7148" x2="98.1601" y2="59.7148" gradientUnits="userSpaceOnUse">
<stop stop-color="#B7B4B1"/>
<stop offset="0.5456" stop-color="#959390"/>
<stop offset="1" stop-color="#7D7B79"/>
</linearGradient>
<linearGradient id="paint44_linear" x1="92.327" y1="63.0998" x2="73.0443" y2="62.9004" gradientUnits="userSpaceOnUse">
<stop stop-color="#BE73DE"/>
<stop offset="1" stop-color="#514EB7"/>
</linearGradient>
<linearGradient id="paint45_linear" x1="79.0006" y1="64.3565" x2="98.1601" y2="64.3565" gradientUnits="userSpaceOnUse">
<stop stop-color="#B7B4B1"/>
<stop offset="0.5456" stop-color="#959390"/>
<stop offset="1" stop-color="#7D7B79"/>
</linearGradient>
<linearGradient id="paint46_linear" x1="79.0006" y1="65.34" x2="98.1601" y2="65.34" gradientUnits="userSpaceOnUse">
<stop stop-color="#B7B4B1"/>
<stop offset="0.5456" stop-color="#959390"/>
<stop offset="1" stop-color="#7D7B79"/>
</linearGradient>
<linearGradient id="paint47_linear" x1="79.0006" y1="66.3797" x2="98.1601" y2="66.3797" gradientUnits="userSpaceOnUse">
<stop stop-color="#B7B4B1"/>
<stop offset="0.5456" stop-color="#959390"/>
<stop offset="1" stop-color="#7D7B79"/>
</linearGradient>
<linearGradient id="paint48_linear" x1="79.0006" y1="67.4467" x2="98.1601" y2="67.4467" gradientUnits="userSpaceOnUse">
<stop stop-color="#B7B4B1"/>
<stop offset="0.5456" stop-color="#959390"/>
<stop offset="1" stop-color="#7D7B79"/>
</linearGradient>
<linearGradient id="paint49_linear" x1="100.615" y1="73.3281" x2="79.7758" y2="73.3281" gradientUnits="userSpaceOnUse">
<stop stop-color="#BE73DE"/>
<stop offset="1" stop-color="#514EB7"/>
</linearGradient>
<linearGradient id="paint50_linear" x1="89.1286" y1="74.8646" x2="104.503" y2="74.8646" gradientUnits="userSpaceOnUse">
<stop stop-color="#B7B4B1"/>
<stop offset="0.5456" stop-color="#959390"/>
<stop offset="1" stop-color="#7D7B79"/>
</linearGradient>
<linearGradient id="paint51_linear" x1="89.1286" y1="75.9903" x2="104.503" y2="75.9903" gradientUnits="userSpaceOnUse">
<stop stop-color="#B7B4B1"/>
<stop offset="0.5456" stop-color="#959390"/>
<stop offset="1" stop-color="#7D7B79"/>
</linearGradient>
<linearGradient id="paint52_linear" x1="89.1286" y1="77.1806" x2="104.503" y2="77.1806" gradientUnits="userSpaceOnUse">
<stop stop-color="#B7B4B1"/>
<stop offset="0.5456" stop-color="#959390"/>
<stop offset="1" stop-color="#7D7B79"/>
</linearGradient>
<linearGradient id="paint53_linear" x1="89.1286" y1="78.4024" x2="104.503" y2="78.4024" gradientUnits="userSpaceOnUse">
<stop stop-color="#B7B4B1"/>
<stop offset="0.5456" stop-color="#959390"/>
<stop offset="1" stop-color="#7D7B79"/>
</linearGradient>
<linearGradient id="paint54_linear" x1="89.4488" y1="69.1256" x2="80.8565" y2="79.7963" gradientUnits="userSpaceOnUse">
<stop stop-color="#CAEDC0"/>
<stop offset="0.0617" stop-color="#C2EAB9"/>
<stop offset="0.706" stop-color="#6FCA6E"/>
<stop offset="1" stop-color="#4EBD50"/>
</linearGradient>
<linearGradient id="paint55_linear" x1="83.031" y1="76.4769" x2="84.4341" y2="76.4769" gradientUnits="userSpaceOnUse">
<stop stop-color="#F7F7F7"/>
<stop offset="1" stop-color="white"/>
</linearGradient>
<linearGradient id="paint56_linear" x1="84.434" y1="76.0088" x2="86.5196" y2="76.0088" gradientUnits="userSpaceOnUse">
<stop stop-color="#F7F7F7"/>
<stop offset="1" stop-color="white"/>
</linearGradient>
<linearGradient id="paint57_linear" x1="100.924" y1="82.8362" x2="81.329" y2="82.9359" gradientUnits="userSpaceOnUse">
<stop stop-color="#BE73DE"/>
<stop offset="1" stop-color="#514EB7"/>
</linearGradient>
<linearGradient id="paint58_linear" x1="89.1284" y1="84.4125" x2="104.503" y2="84.4125" gradientUnits="userSpaceOnUse">
<stop stop-color="#B7B4B1"/>
<stop offset="0.5456" stop-color="#959390"/>
<stop offset="1" stop-color="#7D7B79"/>
</linearGradient>
<linearGradient id="paint59_linear" x1="89.1284" y1="85.5383" x2="104.503" y2="85.5383" gradientUnits="userSpaceOnUse">
<stop stop-color="#B7B4B1"/>
<stop offset="0.5456" stop-color="#959390"/>
<stop offset="1" stop-color="#7D7B79"/>
</linearGradient>
<linearGradient id="paint60_linear" x1="89.1284" y1="86.7285" x2="104.503" y2="86.7285" gradientUnits="userSpaceOnUse">
<stop stop-color="#B7B4B1"/>
<stop offset="0.5456" stop-color="#959390"/>
<stop offset="1" stop-color="#7D7B79"/>
</linearGradient>
<linearGradient id="paint61_linear" x1="89.1284" y1="87.9503" x2="104.503" y2="87.9503" gradientUnits="userSpaceOnUse">
<stop stop-color="#B7B4B1"/>
<stop offset="0.5456" stop-color="#959390"/>
<stop offset="1" stop-color="#7D7B79"/>
</linearGradient>
<linearGradient id="paint62_linear" x1="89.8984" y1="78.2968" x2="79.723" y2="89.4375" gradientUnits="userSpaceOnUse">
<stop stop-color="#CAEDC0"/>
<stop offset="0.0617" stop-color="#C2EAB9"/>
<stop offset="0.706" stop-color="#6FCA6E"/>
<stop offset="1" stop-color="#4EBD50"/>
</linearGradient>
<linearGradient id="paint63_linear" x1="82.503" y1="85.7346" x2="83.906" y2="85.7346" gradientUnits="userSpaceOnUse">
<stop stop-color="#F7F7F7"/>
<stop offset="1" stop-color="white"/>
</linearGradient>
<linearGradient id="paint64_linear" x1="83.9061" y1="85.2665" x2="85.9916" y2="85.2665" gradientUnits="userSpaceOnUse">
<stop stop-color="#F7F7F7"/>
<stop offset="1" stop-color="white"/>
</linearGradient>
<linearGradient id="paint65_linear" x1="100.408" y1="92.4149" x2="80.7098" y2="92.3151" gradientUnits="userSpaceOnUse">
<stop stop-color="#BE73DE"/>
<stop offset="1" stop-color="#514EB7"/>
</linearGradient>
<linearGradient id="paint66_linear" x1="89.1284" y1="93.9146" x2="104.503" y2="93.9146" gradientUnits="userSpaceOnUse">
<stop stop-color="#B7B4B1"/>
<stop offset="0.5456" stop-color="#959390"/>
<stop offset="1" stop-color="#7D7B79"/>
</linearGradient>
<linearGradient id="paint67_linear" x1="89.1284" y1="95.0403" x2="104.503" y2="95.0403" gradientUnits="userSpaceOnUse">
<stop stop-color="#B7B4B1"/>
<stop offset="0.5456" stop-color="#959390"/>
<stop offset="1" stop-color="#7D7B79"/>
</linearGradient>
<linearGradient id="paint68_linear" x1="89.1284" y1="96.2306" x2="104.503" y2="96.2306" gradientUnits="userSpaceOnUse">
<stop stop-color="#B7B4B1"/>
<stop offset="0.5456" stop-color="#959390"/>
<stop offset="1" stop-color="#7D7B79"/>
</linearGradient>
<linearGradient id="paint69_linear" x1="89.1284" y1="97.4523" x2="104.503" y2="97.4523" gradientUnits="userSpaceOnUse">
<stop stop-color="#B7B4B1"/>
<stop offset="0.5456" stop-color="#959390"/>
<stop offset="1" stop-color="#7D7B79"/>
</linearGradient>
<linearGradient id="paint70_linear" x1="90.02" y1="87.9019" x2="81.2639" y2="97.1559" gradientUnits="userSpaceOnUse">
<stop stop-color="#CAEDC0"/>
<stop offset="0.0617" stop-color="#C2EAB9"/>
<stop offset="0.706" stop-color="#6FCA6E"/>
<stop offset="1" stop-color="#4EBD50"/>
</linearGradient>
<linearGradient id="paint71_linear" x1="82.503" y1="95.2367" x2="83.906" y2="95.2367" gradientUnits="userSpaceOnUse">
<stop stop-color="#F7F7F7"/>
<stop offset="1" stop-color="white"/>
</linearGradient>
<linearGradient id="paint72_linear" x1="83.9061" y1="94.7686" x2="85.9916" y2="94.7686" gradientUnits="userSpaceOnUse">
<stop stop-color="#F7F7F7"/>
<stop offset="1" stop-color="white"/>
</linearGradient>
<linearGradient id="paint73_linear" x1="94.6334" y1="100.123" x2="94.624" y2="96.7289" gradientUnits="userSpaceOnUse">
<stop stop-color="#E2E2E2"/>
<stop offset="0.00534332" stop-color="#E2E2E2"/>
<stop offset="0.2797" stop-color="#F2F2F2"/>
<stop offset="0.5881" stop-color="#FCFCFC"/>
<stop offset="1" stop-color="white"/>
</linearGradient>
<linearGradient id="paint74_linear" x1="94.6715" y1="39.6539" x2="71.6553" y2="39.8534" gradientUnits="userSpaceOnUse">
<stop stop-color="#BE73DE"/>
<stop offset="1" stop-color="#514EB7"/>
</linearGradient>
<linearGradient id="paint75_linear" x1="95.8127" y1="41.5744" x2="69.0642" y2="41.6741" gradientUnits="userSpaceOnUse">
<stop stop-color="#BE73DE"/>
<stop offset="1" stop-color="#514EB7"/>
</linearGradient>
<linearGradient id="paint76_linear" x1="95.9188" y1="43.5814" x2="70.6217" y2="43.382" gradientUnits="userSpaceOnUse">
<stop stop-color="#BE73DE"/>
<stop offset="1" stop-color="#514EB7"/>
</linearGradient>
<linearGradient id="paint77_linear" x1="71.5674" y1="80.6743" x2="76.6425" y2="80.6743" gradientUnits="userSpaceOnUse">
<stop stop-color="#BE73DE"/>
<stop offset="1" stop-color="#514EB7"/>
</linearGradient>
<linearGradient id="paint78_linear" x1="71.5673" y1="50.1042" x2="76.6423" y2="50.1042" gradientUnits="userSpaceOnUse">
<stop stop-color="#BE73DE"/>
<stop offset="1" stop-color="#514EB7"/>
</linearGradient>
<linearGradient id="paint79_linear" x1="72.2509" y1="49.096" x2="77.7324" y2="49.096" gradientUnits="userSpaceOnUse">
<stop stop-color="#BE73DE"/>
<stop offset="1" stop-color="#514EB7"/>
</linearGradient>
<linearGradient id="paint80_linear" x1="71.5673" y1="58.1177" x2="76.6423" y2="58.1177" gradientUnits="userSpaceOnUse">
<stop stop-color="#BE73DE"/>
<stop offset="1" stop-color="#514EB7"/>
</linearGradient>
<linearGradient id="paint81_linear" x1="72.2509" y1="57.1097" x2="77.7324" y2="57.1097" gradientUnits="userSpaceOnUse">
<stop stop-color="#BE73DE"/>
<stop offset="1" stop-color="#514EB7"/>
</linearGradient>
<linearGradient id="paint82_linear" x1="71.5673" y1="66.1317" x2="76.6423" y2="66.1317" gradientUnits="userSpaceOnUse">
<stop stop-color="#BE73DE"/>
<stop offset="1" stop-color="#514EB7"/>
</linearGradient>
<linearGradient id="paint83_linear" x1="72.2509" y1="65.1234" x2="77.7324" y2="65.1234" gradientUnits="userSpaceOnUse">
<stop stop-color="#BE73DE"/>
<stop offset="1" stop-color="#514EB7"/>
</linearGradient>
<linearGradient id="paint84_linear" x1="71.5673" y1="74.1451" x2="76.6423" y2="74.1451" gradientUnits="userSpaceOnUse">
<stop stop-color="#BE73DE"/>
<stop offset="1" stop-color="#514EB7"/>
</linearGradient>
<linearGradient id="paint85_linear" x1="72.2509" y1="73.1369" x2="77.7324" y2="73.1369" gradientUnits="userSpaceOnUse">
<stop stop-color="#BE73DE"/>
<stop offset="1" stop-color="#514EB7"/>
</linearGradient>
<linearGradient id="paint86_linear" x1="95.4096" y1="98.2863" x2="90.3175" y2="69.9427" gradientUnits="userSpaceOnUse">
<stop stop-color="#E2E2E2"/>
<stop offset="0.1153" stop-color="#E6E6E6"/>
<stop offset="1" stop-color="white"/>
</linearGradient>
<linearGradient id="paint87_linear" x1="74.5875" y1="76.1861" x2="81.3518" y2="77.1462" gradientUnits="userSpaceOnUse">
<stop stop-color="#F5F5F5"/>
<stop offset="0.405" stop-color="#DDDDDD"/>
<stop offset="1" stop-color="#B3B3B3"/>
</linearGradient>
</defs>
</svg>
