<svg width="135" height="139" viewBox="0 0 135 139" fill="none" xmlns="http://www.w3.org/2000/svg">
<path d="M67.0157 138.286C104.027 138.286 134.031 107.33 134.031 69.1432C134.031 30.9565 104.027 0 67.0157 0C30.004 0 0 30.9565 0 69.1432C0 107.33 30.004 138.286 67.0157 138.286Z" fill="#43CB8E"/>
<path d="M33.2149 40.548C32.7087 40.548 32.2986 40.9712 32.2986 41.4934V91.5961H34.1309V41.4934C34.1312 40.9715 33.7211 40.548 33.2149 40.548Z" fill="#E56353"/>
<path d="M45.4306 40.548C44.9244 40.548 44.5142 40.9712 44.5142 41.4934V91.5961H46.3466V41.4934C46.3469 40.9715 45.9367 40.548 45.4306 40.548Z" fill="#E56353"/>
<path d="M44.5149 91.5957H34.1318V41.4933C34.1318 43.5601 44.5149 43.5601 44.5149 41.4933V91.5957Z" fill="#E1E6E9"/>
<path d="M47.263 46.0181C46.7568 46.0181 46.3467 46.4412 46.3467 46.9635V97.0662H48.179V46.9632C48.179 46.4412 47.7689 46.0181 47.263 46.0181Z" fill="#3EA69B"/>
<path d="M59.4787 46.0181C58.9726 46.0181 58.5624 46.4412 58.5624 46.9635V97.0662H60.3948V46.9632C60.3951 46.4412 59.9846 46.0181 59.4787 46.0181Z" fill="#3EA69B"/>
<path d="M58.563 97.0658H48.1799V46.9634C48.1799 49.0302 58.563 49.0302 58.563 46.9634V97.0658Z" fill="#E1E6E9"/>
<path d="M61.3109 40.548C60.8047 40.548 60.3945 40.9712 60.3945 41.4934V91.5961H62.2269V41.4934C62.2272 40.9715 61.817 40.548 61.3109 40.548Z" fill="#F6C358"/>
<path d="M73.5265 40.548C73.0203 40.548 72.6101 40.9712 72.6101 41.4934V91.5961H74.4425V41.4934C74.4429 40.9715 74.0327 40.548 73.5265 40.548Z" fill="#F6C358"/>
<path d="M72.6108 91.5957H62.2278V41.4933C62.2278 43.5601 72.6108 43.5601 72.6108 41.4933V91.5957Z" fill="#E1E6E9"/>
<path d="M89.409 40.548C88.9028 40.548 88.4927 40.9712 88.4927 41.4934V91.5961H90.325V41.4934C90.3253 40.9715 89.9149 40.548 89.409 40.548Z" fill="#64798A"/>
<path d="M101.625 40.548C101.119 40.548 100.709 40.9712 100.709 41.4934V91.5961H102.541V41.4934C102.541 40.9715 102.131 40.548 101.625 40.548Z" fill="#64798A"/>
<path d="M100.708 91.5957H90.3247V41.4933C90.3247 43.5601 100.708 43.5601 100.708 41.4933V91.5957Z" fill="#E1E6E9"/>
<path d="M75.3592 46.0181C74.853 46.0181 74.4429 46.4412 74.4429 46.9635V97.0662H76.2753V46.9632C76.2753 46.4412 75.8651 46.0181 75.3592 46.0181Z" fill="#27A2DB"/>
<path d="M87.5751 46.0181C87.069 46.0181 86.6588 46.4412 86.6588 46.9635V97.0662H88.4912V46.9632C88.4915 46.4412 88.081 46.0181 87.5751 46.0181Z" fill="#27A2DB"/>
<path d="M86.658 97.0658H76.2749V46.9634C76.2749 49.0302 86.658 49.0302 86.658 46.9634V97.0658Z" fill="#E1E6E9"/>
<path d="M106.282 91.5933H27.7483V97.7362H106.282V91.5933Z" fill="#DC8744"/>
</svg>
