<svg width="135" height="139" viewBox="0 0 135 139" fill="none" xmlns="http://www.w3.org/2000/svg">
<path d="M67.0157 138.286C104.027 138.286 134.031 107.33 134.031 69.1432C134.031 30.9565 104.027 0 67.0157 0C30.004 0 0 30.9565 0 69.1432C0 107.33 30.004 138.286 67.0157 138.286Z" fill="#69D2E7"/>
<g opacity="0.1">
<path opacity="0.1" d="M133.365 78.8124L91.702 35.8268L67.0106 28.6315L42.3301 35.8268L53.1782 47.0193V48.8127C52.5079 50.8007 52.1208 52.9612 52.1208 55.23C52.1208 60.9342 54.4872 65.9797 58.1102 69.1559L58.0682 69.1451L62.8223 74.0391V74.3306H62.7802C60.508 74.4926 58.8014 74.8167 57.6703 75.1086C56.6546 75.3678 56.0996 75.5947 55.9947 75.6381C42.4135 79.0628 32.3298 91.6923 32.3298 106.763V109.659L59.668 137.865C62.082 138.136 64.531 138.287 67.0152 138.287C100.845 138.287 128.805 112.419 133.365 78.8124Z" fill="black"/>
</g>
<path d="M70.6329 74.7125H63.3992C46.2435 74.7125 32.3362 89.0613 32.3362 106.762V109.657H101.696V106.762C101.696 89.0616 87.7887 74.7125 70.6329 74.7125Z" fill="#2F4859"/>
<path d="M55.9897 75.634C55.9897 75.634 62.8115 72.629 77.0621 75.402L71.3242 109.657H63.1861L55.9897 75.634Z" fill="#EBF0F3"/>
<path d="M70.9183 74.3293L75.5193 84.6085L67.0149 79.6186L57.9507 84.9076L62.783 74.3293H70.9183Z" fill="#E56353"/>
<path d="M68.5574 79.1388H65.4734C64.0085 79.1388 62.8213 77.9136 62.8213 76.4025V70.3755C62.8213 69.3563 63.6223 68.5299 64.6101 68.5299H69.4209C70.4088 68.5299 71.2098 69.3563 71.2098 70.3755V76.4025C71.2094 77.9139 70.0222 79.1388 68.5574 79.1388Z" fill="#F6C358"/>
<path d="M67.0163 72.6227C75.2416 72.6227 81.9096 64.8352 81.9096 55.2287C81.9096 45.6223 75.2416 37.8348 67.0163 37.8348C58.791 37.8348 52.123 45.6223 52.123 55.2287C52.123 64.8352 58.791 72.6227 67.0163 72.6227Z" fill="#FCD462"/>
<path d="M80.8515 37.8348H53.1802V48.808H80.8515V37.8348Z" fill="#3A556A"/>
<path d="M67.016 28.629L42.3308 35.8272L67.016 43.0253L91.7015 35.8272L67.016 28.629Z" fill="#64798A"/>
<path d="M81.4211 66.835C81.1318 66.835 80.8974 66.5935 80.8974 66.2947V39.0186L68.4384 36.3567C68.1552 36.2959 67.973 36.0101 68.0325 35.718C68.0917 35.4252 68.373 35.2407 68.6513 35.2986L81.5275 38.0497C81.7708 38.1019 81.9447 38.3225 81.9447 38.5789V66.295C81.9447 66.5935 81.7103 66.835 81.4211 66.835Z" fill="#F6C358"/>
<path d="M67.0164 37.581C68.221 37.581 69.1975 36.7949 69.1975 35.8253C69.1975 34.8556 68.221 34.0696 67.0164 34.0696C65.8117 34.0696 64.8352 34.8556 64.8352 35.8253C64.8352 36.7949 65.8117 37.581 67.0164 37.581Z" fill="#3A556A"/>
<path d="M81.4878 68.2901C82.1904 68.2901 82.76 67.7024 82.76 66.9775C82.76 66.2526 82.1904 65.6649 81.4878 65.6649C80.7852 65.6649 80.2156 66.2526 80.2156 66.9775C80.2156 67.7024 80.7852 68.2901 81.4878 68.2901Z" fill="#DC8744"/>
<path d="M81.4828 66.9777C80.6517 66.9777 79.978 69.3924 79.978 72.3714H82.9872C82.9872 69.3924 82.3138 66.9777 81.4828 66.9777Z" fill="#DC8744"/>
</svg>
