<svg width="136" height="136" viewBox="0 0 136 136" fill="none" xmlns="http://www.w3.org/2000/svg">
<circle cx="68.0005" cy="68" r="68" fill="#FF5773"/>
<circle cx="68.0005" cy="68" r="61" stroke="white" stroke-width="2"/>
<path d="M60.9909 37.3109L61.0631 37.2977L61.1325 37.2741C62.8326 36.6955 66.2086 36.3691 71.4108 36.3691H95.9184V45.7779H69.7131C64.471 45.7779 60.3139 46.8336 57.3925 49.0958C53.4764 51.3795 50.5963 55.7112 48.636 61.8529L48.6214 61.8985L48.6113 61.9452C48.16 64.0279 47.9261 65.8668 47.9261 67.4507C47.9261 72.8375 49.7541 77.8565 53.3542 82.4853L53.3831 82.5225L53.4154 82.5569C55.7427 85.029 57.9874 86.7508 60.1541 87.6227C62.5503 88.8008 65.7056 89.3516 69.5474 89.3516H95.9184V98.7604H70.8725C64.2163 98.7604 59.4554 97.8634 56.4513 96.1939L56.4242 96.1788L56.3961 96.1654C49.4353 92.8441 44.4574 87.3867 41.452 79.7286C39.9812 75.926 39.2427 71.8665 39.2427 67.5419C39.2427 58.2427 42.5742 50.324 49.2677 43.731C53.6924 40.0267 57.5966 37.9344 60.9909 37.3109ZM99.1606 34V33H98.1606H71.4108C66.1741 33 62.4274 33.3068 60.3107 33.9884C56.285 34.7763 51.8879 37.1987 47.1303 41.1235L47.0958 41.152L47.064 41.1834C39.698 48.4583 36.0005 57.2629 36.0005 67.5419C36.0005 72.2822 36.8075 76.7698 38.4269 80.997L38.4269 80.997L38.4317 81.0091C41.7719 89.4009 47.3006 95.4964 55.0079 99.2337C58.5737 101.205 63.9076 102.129 70.8725 102.129H98.1606H99.1606V101.129V86.9826V85.9826H98.1606H69.5474C66.0064 85.9826 63.3551 85.4729 61.5105 84.5388L61.4668 84.5167L61.4212 84.499C59.7459 83.8473 57.8758 82.4833 55.8162 80.3087C52.6973 76.2449 51.1683 71.9658 51.1683 67.4507C51.1683 66.1822 51.3463 64.6278 51.7171 62.7757C53.4986 57.2999 56.0022 53.7779 59.1159 51.9791L59.1779 51.9433L59.2342 51.899C61.4983 50.1167 64.9388 49.1469 69.7131 49.1469H98.1606H99.1606V48.1469V34ZM65.7379 59.5597H64.7379V60.5597V74.5698V75.5698H65.7379H98.1606H99.1606V74.5698V60.5597V59.5597H98.1606H65.7379ZM95.9184 62.9288V72.2007H67.9801V62.9288H95.9184Z" fill="white" stroke="white" stroke-width="2"/>
</svg>
