<svg width="136" height="136" viewBox="0 0 136 136" fill="none" xmlns="http://www.w3.org/2000/svg">
<path d="M68.0005 136C105.556 136 136 105.555 136 68C136 30.4446 105.556 0 68.0005 0C30.4451 0 0.000488281 30.4446 0.000488281 68C0.000488281 105.555 30.4451 136 68.0005 136Z" fill="#69D2E7"/>
<path d="M71.2973 73.0835H64.0635C46.9078 73.0835 33.0005 87.4323 33.0005 105.133V108.028H102.361V105.133C102.361 87.4326 88.453 73.0835 71.2973 73.0835Z" fill="#2F4859"/>
<path d="M56.6541 74.0052C56.6541 74.0052 63.4758 71.0002 77.7264 73.7732L71.9885 108.028H63.8504L56.6541 74.0052Z" fill="#EBF0F3"/>
<path d="M71.5826 72.7002L76.1836 82.9793L67.6792 77.9895L58.615 83.2784L63.4473 72.7002H71.5826Z" fill="#E56353"/>
<path d="M69.2217 77.5098H66.1377C64.6728 77.5098 63.4856 76.2845 63.4856 74.7735V68.7465C63.4856 67.7273 64.2866 66.9009 65.2744 66.9009H70.0852C71.0731 66.9009 71.8741 67.7273 71.8741 68.7465V74.7735C71.8738 76.2849 70.6865 77.5098 69.2217 77.5098Z" fill="#F6C358"/>
<path d="M67.6806 70.9935C75.9059 70.9935 82.5739 63.206 82.5739 53.5995C82.5739 43.9931 75.9059 36.2056 67.6806 36.2056C59.4553 36.2056 52.7874 43.9931 52.7874 53.5995C52.7874 63.206 59.4553 70.9935 67.6806 70.9935Z" fill="#FCD462"/>
<path d="M81.5158 36.2056H53.8445V47.1787H81.5158V36.2056Z" fill="#3A556A"/>
<path d="M67.6803 27L42.9951 34.1981L67.6803 41.3963L92.3658 34.1981L67.6803 27Z" fill="#64798A"/>
<path d="M82.0854 65.2057C81.7961 65.2057 81.5617 64.9642 81.5617 64.6654V37.3893L69.1027 34.7274C68.8195 34.6666 68.6373 34.3808 68.6968 34.0887C68.756 33.7959 69.0373 33.6114 69.3156 33.6693L82.1918 36.4204C82.4351 36.4727 82.609 36.6933 82.609 36.9496V64.6657C82.609 64.9642 82.3746 65.2057 82.0854 65.2057Z" fill="#F6C358"/>
<path d="M67.6807 35.9518C68.8853 35.9518 69.8618 35.1658 69.8618 34.1961C69.8618 33.2265 68.8853 32.4404 67.6807 32.4404C66.476 32.4404 65.4995 33.2265 65.4995 34.1961C65.4995 35.1658 66.476 35.9518 67.6807 35.9518Z" fill="#3A556A"/>
<path d="M82.1521 66.6608C82.8547 66.6608 83.4243 66.0731 83.4243 65.3482C83.4243 64.6233 82.8547 64.0356 82.1521 64.0356C81.4495 64.0356 80.8799 64.6233 80.8799 65.3482C80.8799 66.0731 81.4495 66.6608 82.1521 66.6608Z" fill="#DC8744"/>
<path d="M82.1471 65.3486C81.316 65.3486 80.6423 67.7633 80.6423 70.7423H83.6515C83.6515 67.7633 82.9781 65.3486 82.1471 65.3486Z" fill="#DC8744"/>
<circle cx="68.0005" cy="68" r="61" stroke="white" stroke-width="2"/>
</svg>
