<svg width="136" height="136" viewBox="0 0 136 136" fill="none" xmlns="http://www.w3.org/2000/svg">
<path d="M68.0005 136C105.556 136 136 105.555 136 68C136 30.4446 105.556 0 68.0005 0C30.4451 0 0.000488281 30.4446 0.000488281 68C0.000488281 105.555 30.4451 136 68.0005 136Z" fill="#FF94C1"/>
<circle cx="68.0005" cy="68" r="61" stroke="white" stroke-width="2"/>
<path d="M91.7949 41.5392L98.0005 47.9317V35.8905C98.0005 34.9959 97.2893 34.2622 96.4223 34.2622H39.5787C38.7116 34.2622 38.0005 34.9959 38.0005 35.8905V109.052C38.0005 109.957 38.7116 110.681 39.5787 110.681H51.5611L43.8748 102.76L91.7949 41.5392Z" fill="#3C627A"/>
<path d="M98.0007 109.053V47.9321L91.7951 41.5396L43.875 102.771L51.5613 110.691H96.4225C97.2895 110.681 98.0007 109.957 98.0007 109.053Z" fill="#0B3B59"/>
<path d="M91.7951 41.5396H78.8774H43.875V102.771H91.7951V68.1348V54.8372V41.5396Z" fill="white"/>
<path d="M86.8268 59.189H58.176V62.8074H86.8268V59.189Z" fill="#E0E0E0"/>
<path d="M86.8365 66.4155H58.176V70.0339H86.8365V66.4155Z" fill="#E0E0E0"/>
<path d="M86.8365 73.6426H58.176V77.261H86.8365V73.6426Z" fill="#E0E0E0"/>
<path d="M86.8365 80.8789H58.176V84.4973H86.8365V80.8789Z" fill="#E0E0E0"/>
<path d="M86.8365 88.1162H58.176V91.7346H86.8365V88.1162Z" fill="#E0E0E0"/>
<path d="M86.8268 51.9521H58.176V55.5705H86.8268V51.9521Z" fill="#E0E0E0"/>
<path d="M84.138 34.2622H51.8633V44.4641H84.138V34.2622Z" fill="#A3A3A3"/>
<path d="M67.9958 26C63.573 26 59.9783 29.6988 59.9783 34.262C59.9783 38.8252 63.5633 42.524 67.9958 42.524C72.4186 42.524 76.0133 38.8252 76.0133 34.262C76.0133 29.6988 72.4283 26 67.9958 26Z" fill="#E0E0E0"/>
<path d="M69.8076 34.2618C69.8076 35.2971 68.999 36.1313 67.9956 36.1313C66.9922 36.1313 66.1836 35.2971 66.1836 34.2618C66.1836 33.2366 66.9922 32.4023 67.9956 32.4023C68.999 32.4023 69.8076 33.2366 69.8076 34.2618Z" fill="#0B3B59"/>
<path d="M55.9354 56.7163L54.3085 55.0479L50.0123 59.4804L47.5866 56.9777L45.9695 58.6461L50.0026 62.8073H50.0123L55.9354 56.7163Z" fill="#BDBF84"/>
<path d="M55.9354 70.2552L54.3085 68.5867L50.0123 73.0192L47.5866 70.5265L45.9695 72.195L50.0026 76.3562L50.0123 76.3461V76.3562L55.9354 70.2552Z" fill="#BDBF84"/>
<path d="M55.9354 83.8042L54.3085 82.1357L50.0123 86.5683L47.5866 84.0656L45.9695 85.734L50.0026 89.8952H50.0123L55.9354 83.8042Z" fill="#BDBF84"/>
<path d="M83.5005 65.9019C85.5005 67.0566 85.5005 69.9434 83.5005 71.0981L61.7505 83.6554C59.7505 84.8101 57.2505 83.3668 57.2505 81.0574L57.2505 55.9426C57.2505 53.6332 59.7505 52.1899 61.7505 53.3446L83.5005 65.9019Z" fill="#02D123"/>
</svg>
