<svg width="136" height="136" viewBox="0 0 136 136" fill="none" xmlns="http://www.w3.org/2000/svg">
<path d="M68.0005 136C105.556 136 136 105.555 136 68C136 30.4446 105.556 0 68.0005 0C30.4451 0 0.000488281 30.4446 0.000488281 68C0.000488281 105.555 30.4451 136 68.0005 136Z" fill="#B8C676"/>
<circle cx="68.0005" cy="68" r="61" stroke="white" stroke-width="2"/>
<path d="M92.2597 97.4592H87.4299V102.533H93.0769V98.2848C93.0789 97.8299 92.7119 97.4592 92.2597 97.4592Z" fill="#CED3E6"/>
<path d="M78.3595 86.5869H61.5952V97.4593H78.3595V86.5869Z" fill="#CED3E6"/>
<path d="M91.1766 102.533H44.928V100.649C44.928 98.8879 46.3422 97.4592 48.0857 97.4592H88.0169C89.7604 97.4592 91.1746 98.8879 91.1746 100.649V102.533H91.1766Z" fill="white"/>
<path d="M76.3046 86.5869H59.5403V97.4593H76.3046V86.5869Z" fill="white"/>
<path d="M59.5403 89.9252L76.3046 88.5686L76.3066 86.5869H59.5621L59.5403 89.9252Z" fill="#CED3E6"/>
<path d="M106.059 41.689V84.3269C106.059 85.5772 105.055 86.5891 103.819 86.5891H32.2398C31.0041 86.5891 30.0005 85.5772 30.0005 84.3269V41.689C30.0005 40.4387 31.0041 39.4268 32.2398 39.4268H103.819C105.057 39.4268 106.059 40.4407 106.059 41.689Z" fill="#CED3E6"/>
<path d="M106.059 41.689V81.173H99.1343V39.4268H103.819C105.057 39.4268 106.059 40.4407 106.059 41.689Z" fill="#585859"/>
<path d="M103.212 41.689V84.3269C103.212 85.5772 102.209 86.5891 100.973 86.5891H32.2398C31.0041 86.5891 30.0005 85.5772 30.0005 84.3269V41.689C30.0005 40.4387 31.0041 39.4268 32.2398 39.4268H100.971C101.005 39.4268 101.039 39.4268 101.07 39.4288C101.094 39.4308 101.118 39.4308 101.144 39.4328H101.146C101.164 39.4348 101.179 39.4348 101.197 39.4388C101.227 39.4408 101.255 39.4448 101.285 39.4488C101.304 39.4508 101.322 39.4548 101.34 39.4568C101.35 39.4588 101.358 39.4588 101.368 39.4608C101.386 39.4628 101.404 39.4668 101.423 39.4708C102.443 39.6852 103.212 40.597 103.212 41.689Z" fill="white"/>
<path d="M101.423 39.4723C101.405 39.4683 101.388 39.4643 101.368 39.4623C101.358 39.4603 101.35 39.4583 101.34 39.4583C101.32 39.4543 101.302 39.4523 101.285 39.4503C101.255 39.4463 101.227 39.4423 101.197 39.4402C101.179 39.4382 101.164 39.4362 101.146 39.4342H101.144C101.12 39.4322 101.096 39.4302 101.07 39.4302C101.037 39.4282 101.005 39.4282 100.971 39.4282H32.2398C31.0041 39.4262 30.0005 40.4401 30.0005 41.6885V81.1724H103.212V41.6885C103.212 40.5964 102.443 39.6847 101.423 39.4723ZM100.307 77.229C100.307 77.5697 100.035 77.8442 99.6977 77.8442H33.5132C33.176 77.8442 32.9043 77.5697 32.9043 77.229V42.9749C32.9043 42.6342 33.176 42.3597 33.5132 42.3597H99.6977C100.035 42.3597 100.307 42.6342 100.307 42.9749V77.229Z" fill="#39393B"/>
<path d="M100.307 42.9755V77.2297C100.307 77.5703 100.035 77.8448 99.6977 77.8448H33.5132C33.176 77.8448 32.9043 77.5703 32.9043 77.2297V42.9755C32.9043 42.6349 33.176 42.3604 33.5132 42.3604H99.6977C100.035 42.3604 100.307 42.6369 100.307 42.9755Z" fill="#CED3E6"/>
<path d="M100.307 42.9755V46.2076H32.9043V42.9755C32.9043 42.6349 33.176 42.3604 33.5132 42.3604H99.6977C100.035 42.3604 100.307 42.6369 100.307 42.9755Z" fill="white"/>
<path d="M95.0862 44.2339C95.0862 44.5225 94.8541 44.7569 94.5685 44.7569C94.2828 44.7569 94.0508 44.5225 94.0508 44.2339C94.0508 43.9454 94.2828 43.7109 94.5685 43.7109C94.8541 43.7109 95.0862 43.9454 95.0862 44.2339Z" fill="#DF615C"/>
<path d="M96.2464 44.7569C96.5324 44.7569 96.7641 44.5228 96.7641 44.2339C96.7641 43.9451 96.5324 43.7109 96.2464 43.7109C95.9605 43.7109 95.7288 43.9451 95.7288 44.2339C95.7288 44.5228 95.9605 44.7569 96.2464 44.7569Z" fill="#5392F3"/>
<path d="M91.9285 44.7867H39.2732C39.0075 44.7867 38.7913 44.5663 38.7913 44.2998V44.1695C38.7913 43.901 39.0094 43.6826 39.2732 43.6826H91.9285C92.1943 43.6826 92.4105 43.903 92.4105 44.1695V44.2998C92.4124 44.5663 92.1943 44.7867 91.9285 44.7867Z" fill="#D2DCEC"/>
<path d="M35.338 44.2336V44.7466C35.338 44.8187 35.2607 44.8648 35.1992 44.8287L34.7608 44.5722L34.3225 44.3157C34.261 44.2797 34.261 44.1895 34.3225 44.1534L34.7608 43.897L35.1992 43.6405C35.2607 43.6044 35.338 43.6505 35.338 43.7226V44.2336Z" fill="black"/>
<path d="M36.1096 44.2336V44.7466C36.1096 44.8187 36.187 44.8648 36.2485 44.8287L36.6868 44.5722L37.1252 44.3157C37.1866 44.2797 37.1866 44.1895 37.1252 44.1534L36.6868 43.897L36.2485 43.6405C36.187 43.6044 36.1096 43.6505 36.1096 43.7226V44.2336Z" fill="black"/>
<path d="M97.4624 44.6705L97.4386 44.6465C97.387 44.5944 97.387 44.5122 97.4386 44.4601L98.1328 43.7588C98.1844 43.7067 98.2657 43.7067 98.3173 43.7588L98.3411 43.7828C98.3926 43.8349 98.3926 43.9171 98.3411 43.9692L97.6468 44.6705C97.5953 44.7206 97.512 44.7206 97.4624 44.6705Z" fill="#39393B"/>
<path d="M98.3173 44.6705L98.3411 44.6465C98.3926 44.5944 98.3926 44.5122 98.3411 44.4601L97.6468 43.7588C97.5953 43.7067 97.514 43.7067 97.4624 43.7588L97.4386 43.7828C97.387 43.8349 97.387 43.9171 97.4386 43.9692L98.1328 44.6705C98.1844 44.7206 98.2677 44.7206 98.3173 44.6705Z" fill="#39393B"/>
<path d="M91.2339 76.468H41.7978C41.0937 76.468 40.5244 75.8909 40.5244 75.1816V48.2752C40.5244 47.5638 41.0957 46.9888 41.7978 46.9888H91.2339C91.938 46.9888 92.5072 47.5659 92.5072 48.2752V75.1796C92.5072 75.8909 91.938 76.468 91.2339 76.468Z" fill="white"/>
<path d="M55.5696 62.0709H44.1726C43.998 62.0709 43.8552 61.9286 43.8552 61.7503C43.8552 61.574 43.9961 61.4297 44.1726 61.4297H55.5696C55.7442 61.4297 55.887 61.572 55.887 61.7503C55.887 61.9286 55.7442 62.0709 55.5696 62.0709Z" fill="#CED3E6"/>
<path d="M55.5696 59.3658H44.1726C43.998 59.3658 43.8552 59.2235 43.8552 59.0452C43.8552 58.8689 43.9961 58.7246 44.1726 58.7246H55.5696C55.7442 58.7246 55.887 58.8669 55.887 59.0452C55.887 59.2215 55.7442 59.3658 55.5696 59.3658Z" fill="#CED3E6"/>
<path d="M55.5696 64.7779H44.1726C43.998 64.7779 43.8552 64.6357 43.8552 64.4573C43.8552 64.281 43.9961 64.1367 44.1726 64.1367H55.5696C55.7442 64.1367 55.887 64.279 55.887 64.4573C55.887 64.6336 55.7442 64.7779 55.5696 64.7779Z" fill="#CED3E6"/>
<path d="M90.5918 62.0709H79.1948C79.0203 62.0709 78.8774 61.9286 78.8774 61.7503C78.8774 61.574 79.0183 61.4297 79.1948 61.4297H90.5918C90.7664 61.4297 90.9092 61.572 90.9092 61.7503C90.9072 61.9286 90.7664 62.0709 90.5918 62.0709Z" fill="#CED3E6"/>
<path d="M90.5918 59.3658H79.1948C79.0203 59.3658 78.8774 59.2235 78.8774 59.0452C78.8774 58.8689 79.0183 58.7246 79.1948 58.7246H90.5918C90.7664 58.7246 90.9092 58.8669 90.9092 59.0452C90.9072 59.2215 90.7664 59.3658 90.5918 59.3658Z" fill="#CED3E6"/>
<path d="M90.5918 64.7779H79.1948C79.0203 64.7779 78.8774 64.6357 78.8774 64.4573C78.8774 64.281 79.0183 64.1367 79.1948 64.1367H90.5918C90.7664 64.1367 90.9092 64.279 90.9092 64.4573C90.9072 64.6336 90.7664 64.7779 90.5918 64.7779Z" fill="#CED3E6"/>
<path d="M40.5229 71.8894H92.5078V76.1955C92.5078 76.3458 92.3868 76.468 92.238 76.468H40.7927C40.6439 76.468 40.5229 76.3458 40.5229 76.1955V71.8894Z" fill="#39393B"/>
<path d="M87.4022 73.5866V73.1979H87.8822V72.8533H87.2297C87.1345 72.8533 87.0591 72.9314 87.0591 73.0256V73.5866H87.4022Z" fill="white"/>
<path d="M87.4024 74.2759H87.0613V74.867C87.0613 74.9632 87.1386 75.0393 87.2319 75.0393H87.8844V74.6947H87.4044V74.2759H87.4024Z" fill="white"/>
<path d="M88.8839 73.5866H89.2251V73.0256C89.2251 72.9294 89.1477 72.8533 89.0545 72.8533H88.4277V73.1979H88.8839V73.5866Z" fill="white"/>
<path d="M88.8839 74.2759V74.6927H88.4277V75.0374H89.0545C89.1497 75.0374 89.2251 74.9592 89.2251 74.865V74.2739H88.8839V74.2759Z" fill="white"/>
<path d="M43.5518 74.0215V72.9294L44.486 73.4745L45.4222 74.0215L44.486 74.5665L43.5518 75.1115V74.0215Z" fill="white"/>
<path d="M48.7346 75.0253H48.4886C48.3974 75.0253 48.322 74.9491 48.322 74.8569V73.2079C48.322 73.1157 48.3974 73.0396 48.4886 73.0396H48.7346C48.8258 73.0396 48.9012 73.1157 48.9012 73.2079V74.8569C48.9032 74.9491 48.8278 75.0253 48.7346 75.0253Z" fill="white"/>
<path d="M49.9465 75.0253H49.7005C49.6093 75.0253 49.5339 74.9491 49.5339 74.857V73.2079C49.5339 73.1157 49.6093 73.0396 49.7005 73.0396H49.9465C50.0377 73.0396 50.1131 73.1157 50.1131 73.2079V74.857C50.1131 74.9491 50.0377 75.0253 49.9465 75.0253Z" fill="white"/>
<path d="M92.5078 71.0278H40.5229V71.8894H92.5078V71.0278Z" fill="#CED3E6"/>
<path d="M67.1967 71.0293H40.5229V71.8909H67.1967V71.0293Z" fill="#DF615C"/>
<path d="M84.1948 67.6797H84.7819V68.9781H85.5674V69.437H84.1948V67.6797Z" fill="#39393B"/>
<path d="M85.728 67.6797H86.3151V69.437H85.728V67.6797Z" fill="#39393B"/>
<path d="M88.4574 67.6797L87.7215 69.437H87.1443L86.4084 67.6797H87.0392L87.4537 68.7056L87.8782 67.6797H88.4574Z" fill="#39393B"/>
<path d="M89.9606 68.9902V69.437H88.5127V67.6797H89.9269V68.1265H89.0899V68.3329H89.8258V68.7597H89.0899V68.9902H89.9606Z" fill="#39393B"/>
<path d="M83.2289 68.5442C83.2289 68.9429 82.9096 69.2675 82.5129 69.2675C82.1182 69.2675 81.7969 68.9449 81.7969 68.5442C81.7969 68.1454 82.1162 67.8208 82.5129 67.8208C82.9096 67.8228 83.2289 68.1454 83.2289 68.5442Z" fill="#DF615C"/>
<path d="M46.874 69.033C46.874 69.4337 46.4971 69.6942 45.9576 69.6942C45.4181 69.6942 45.0413 69.4337 45.0413 69.033C45.0413 68.8266 45.1424 68.6643 45.315 68.5581C45.19 68.4579 45.1127 68.3217 45.1127 68.1513C45.1127 67.7766 45.4598 67.5342 45.9556 67.5342C46.4515 67.5342 46.7986 67.7766 46.7986 68.1513C46.7986 68.3217 46.7232 68.4579 46.5963 68.5581C46.7708 68.6643 46.874 68.8266 46.874 69.033ZM46.1818 69.0089C46.1818 68.8767 46.0885 68.7945 45.9576 68.7945C45.8267 68.7945 45.7335 68.8767 45.7335 69.0089C45.7335 69.1412 45.8267 69.2233 45.9576 69.2233C46.0885 69.2253 46.1818 69.1432 46.1818 69.0089ZM45.793 68.1814C45.793 68.2936 45.8624 68.3577 45.9556 68.3577C46.0489 68.3577 46.1183 68.2936 46.1183 68.1814C46.1183 68.0692 46.0489 68.0051 45.9556 68.0051C45.8624 68.0031 45.793 68.0692 45.793 68.1814Z" fill="#39393B"/>
<path d="M47.001 68.6142C47.001 67.9289 47.3858 67.5342 47.9273 67.5342C48.4668 67.5342 48.8535 67.9289 48.8535 68.6142C48.8535 69.2975 48.4687 69.6942 47.9273 69.6942C47.3858 69.6942 47.001 69.2995 47.001 68.6142ZM48.1613 68.6142C48.1613 68.2155 48.0621 68.0912 47.9273 68.0912C47.7924 68.0912 47.6932 68.2155 47.6932 68.6142C47.6932 69.0129 47.7924 69.1372 47.9273 69.1372C48.0621 69.1372 48.1613 69.0129 48.1613 68.6142Z" fill="#39393B"/>
<path d="M43.8413 68.0341C43.8413 68.3848 43.5596 68.6693 43.2125 68.6693C42.8654 68.6693 42.5837 68.3848 42.5837 68.0341C42.5837 67.6835 42.8654 67.3989 43.2125 67.3989C43.5596 67.3989 43.8413 67.6835 43.8413 68.0341Z" fill="#DF615C"/>
<path d="M44.3887 69.6391H42.0383C42.0383 69.6391 42.3061 68.8857 43.1947 68.8857C43.2006 68.8857 43.2066 68.8857 43.2125 68.8857C43.2185 68.8857 43.2244 68.8857 43.2304 68.8857C44.121 68.8857 44.3887 69.6391 44.3887 69.6391Z" fill="#DF615C"/>
<path d="M53.1229 50.5899C53.1229 50.5899 52.8593 52.218 51.6714 52.5096C50.7121 52.7439 49.8095 51.8152 49.4975 51.4478C49.4224 51.3601 49.3824 51.3045 49.3824 51.3045C49.3824 51.3045 49.3106 51.3112 49.2038 51.3095C48.9536 51.3062 48.5098 51.2539 48.3363 50.9438C48.0877 50.5022 48.9903 50.1988 48.9903 50.1988C48.9903 50.1988 48.5281 49.7809 48.6433 49.4775C48.7567 49.1791 49.3774 49.1168 49.3774 49.1168C49.3774 49.1168 48.71 48.6786 48.9336 48.296C49.2706 47.7212 49.9613 48.3533 50.0163 48.3887C49.973 48.3381 49.1071 47.433 49.5809 47.2712C49.9947 47.1297 50.6754 47.5999 51.1225 48.0651C51.1942 48.1392 51.2343 48.1814 51.2343 48.1814C51.2343 48.1814 51.261 48.1611 51.3077 48.1291C51.5312 47.9774 52.2186 47.5729 52.6557 47.942C53.1813 48.3904 53.1229 50.5899 53.1229 50.5899Z" fill="#EA9B7A"/>
<path d="M51.8833 51.5894C51.8532 51.6029 51.8182 51.6029 51.7898 51.5826C51.7465 51.554 51.7348 51.495 51.7648 51.4512C51.9216 51.2169 51.97 50.9759 51.9083 50.7382C51.7515 50.1281 50.944 49.7068 50.9356 49.7017C50.8889 49.6781 50.8706 49.6208 50.8939 49.5736C50.9173 49.5264 50.974 49.5079 51.0207 49.5315C51.0574 49.55 51.9116 49.9966 52.0901 50.6894C52.1652 50.9826 52.1085 51.2742 51.92 51.5557C51.91 51.5708 51.8983 51.5826 51.8833 51.5894Z" fill="#D96C63"/>
<path d="M51.0591 49.2416C51.0591 49.3545 51.0123 49.4439 50.9256 49.5012C50.9072 49.513 50.8872 49.5231 50.8639 49.5332C50.8155 49.5517 50.7571 49.5652 50.6937 49.572C50.7404 49.6023 50.7821 49.636 50.8138 49.6714C50.8472 49.7068 50.8722 49.7439 50.8872 49.7826C50.9072 49.8399 50.9156 49.9259 50.8455 50.022C50.6937 50.2242 50.345 50.3068 50.0614 50.3405C50.2649 50.4619 50.4418 50.627 50.5001 50.7922C50.5369 50.8984 50.5252 50.9995 50.4634 51.0821C50.4201 51.1394 50.3483 51.19 50.2599 51.2338C50.038 51.3434 49.7127 51.4108 49.4958 51.4479C49.4207 51.3602 49.3807 51.3046 49.3807 51.3046C49.3807 51.3046 49.3089 51.313 49.2021 51.3113C49.2155 51.2995 49.2322 51.2928 49.2505 51.2911C49.5992 51.2507 50.1965 51.1259 50.3133 50.9692C50.3283 50.9473 50.3433 50.9169 50.3233 50.8563C50.2582 50.6742 49.9196 50.4332 49.6276 50.3607C49.5809 50.3489 49.5508 50.3051 49.5575 50.2562C49.5625 50.2074 49.6042 50.172 49.6526 50.1737C49.8862 50.1787 50.5268 50.1383 50.697 49.9074C50.722 49.8736 50.7154 49.8551 50.712 49.8467C50.697 49.8029 50.6436 49.759 50.5702 49.7152C50.4201 49.6259 50.1832 49.545 50.013 49.5028C49.993 49.4978 49.9763 49.4877 49.9646 49.4725C49.9446 49.4506 49.9362 49.4186 49.9429 49.3882C49.9546 49.3377 50.0063 49.3057 50.0564 49.3175C50.0881 49.3259 50.1565 49.3427 50.2399 49.3697C50.3984 49.3882 50.5502 49.3967 50.6653 49.3849C50.7337 49.3781 50.7888 49.363 50.8255 49.341C50.8472 49.3276 50.8722 49.3023 50.8722 49.2399C50.8739 49.1607 50.8338 49.0579 50.7704 48.9517C50.7504 48.918 50.7537 48.8759 50.7788 48.8455L50.7804 48.8438C50.8205 48.7916 50.8989 48.7966 50.9323 48.854C51.009 48.9854 51.0591 49.1219 51.0591 49.2416Z" fill="#D96C63"/>
<path d="M50.3684 47.4602C50.5302 47.5613 50.672 47.6557 50.8105 47.7872C50.9439 47.9153 51.029 47.981 51.1208 48.067C51.1275 48.0568 51.1141 48.0771 51.1208 48.067L49.3089 40.3038C49.2822 40.1841 49.1054 40.2212 49.1271 40.3409L50.3684 47.4602C50.37 47.4602 50.3684 47.4602 50.3684 47.4602Z" fill="#39393B"/>
<path d="M51.9433 51.7715C51.316 52.1811 51.1391 51.8777 51.1391 51.8777L50.8204 50.0541C50.8305 50.044 50.8388 50.0339 50.8471 50.0221C50.9172 49.926 50.9089 49.8383 50.8888 49.7827C50.8738 49.7423 50.8488 49.7052 50.8154 49.6715C50.7937 49.6479 50.7687 49.6277 50.742 49.6057L50.7354 49.5653C50.7821 49.5569 50.8271 49.5468 50.8638 49.5316C50.8872 49.5215 50.9072 49.513 50.9255 49.4996C50.9823 49.4625 51.0223 49.4086 51.0423 49.3462C51.1191 49.4204 51.2125 49.4625 51.3243 49.4743C51.3543 49.4777 51.3844 49.4777 51.4161 49.4777L51.9433 51.7715Z" fill="#39393B"/>
<path d="M52.4889 48.9246C52.4705 48.9414 52.1936 49.1858 51.8699 49.3442C51.6914 49.4319 51.4962 49.4942 51.3243 49.4757C51.1825 49.4605 51.0674 49.3948 50.984 49.2819C50.6853 48.8774 50.9406 48.3481 51.1208 48.0684C51.1925 48.1425 51.2326 48.1847 51.2326 48.1847C51.2326 48.1847 51.2593 48.1644 51.306 48.1324C51.1525 48.3633 50.8939 48.8403 51.1358 49.169C51.1875 49.2397 51.2559 49.2785 51.3444 49.2886C51.6764 49.324 52.1936 48.9364 52.3637 48.7847C52.4021 48.7493 52.4622 48.7526 52.4972 48.7931C52.5322 48.8285 52.5272 48.8892 52.4889 48.9246Z" fill="#D96C63"/>
<path d="M62.1856 47.0405V47.0371C62.1856 47.0371 62.1856 47.0338 62.1856 47.0371L62.184 47.0473L62.1789 47.0709L62.1673 47.1265L62.1422 47.2495C62.1339 47.2916 62.1239 47.3355 62.1156 47.3793C62.1055 47.4231 62.0972 47.4669 62.0855 47.5108C62.0455 47.6877 62.0021 47.8681 61.9537 48.0484C61.8553 48.4091 61.7518 48.7715 61.6317 49.1271C61.5099 49.4827 61.3848 49.8383 61.243 50.1839C61.1696 50.3558 61.0995 50.5294 61.0211 50.6979C60.9477 50.8698 60.8659 51.0367 60.7875 51.2036C60.6223 51.5356 60.4505 51.8626 60.2636 52.1761C60.2203 52.257 60.1702 52.3328 60.1218 52.4103C60.0735 52.4879 60.0284 52.5671 59.9767 52.6429C59.8766 52.7946 59.7798 52.948 59.673 53.0946C59.4695 53.3946 59.2443 53.6744 59.0207 53.9525C58.7888 54.2222 58.5519 54.4902 58.3 54.7379C58.2366 54.8003 58.1748 54.8643 58.1114 54.925L57.9162 55.1037L57.8195 55.193L57.7944 55.2149L57.8061 55.2031L57.8228 55.1879C57.8462 55.1694 57.8695 55.1525 57.8962 55.1357C57.9997 55.0615 58.1281 55.0042 58.2466 54.9705C58.2766 54.9621 58.3016 54.9537 58.33 54.9503C58.3433 54.9469 58.3584 54.9452 58.3717 54.9435L58.4067 54.9368C58.4301 54.9334 58.4551 54.9317 58.4768 54.9317C58.4952 54.9301 58.5135 54.9284 58.5319 54.9301C58.5402 54.9301 58.5519 54.9317 58.5569 54.9317C58.5636 54.9317 58.5702 54.9317 58.5769 54.9317C58.5886 54.9317 58.6036 54.9351 58.6136 54.9368C58.622 54.9368 58.6286 54.9385 58.637 54.9402L58.647 54.9435C58.6487 54.9435 58.6503 54.9435 58.652 54.9435C58.6787 54.952 58.6253 54.9435 58.5435 54.9082C58.4601 54.8728 58.35 54.8138 58.2299 54.743C58.1098 54.6705 57.978 54.5829 57.8445 54.4868C57.5759 54.2947 57.2939 54.0654 57.0136 53.821C56.7317 53.575 56.4481 53.3137 56.1661 53.0407C55.8841 52.7693 55.6022 52.4862 55.3252 52.198C55.0466 51.9098 54.768 51.6148 54.4961 51.3165C54.3576 51.1682 54.2208 51.0182 54.0873 50.8682L53.6936 50.4333L50.6521 52.7407L50.7539 52.8957L50.8506 53.039L51.0425 53.3205C51.1726 53.5059 51.3028 53.6896 51.4346 53.8716C51.7015 54.234 51.9751 54.593 52.2588 54.9469C52.5457 55.2992 52.8377 55.6497 53.1463 55.9936C53.3015 56.1655 53.4583 56.3374 53.6202 56.506C53.782 56.6762 53.9488 56.8447 54.1207 57.0116C54.466 57.347 54.8297 57.6756 55.2401 57.9993C55.4454 58.1611 55.6639 58.3195 55.9008 58.4762C56.1394 58.633 56.398 58.7864 56.7017 58.9313C57.0053 59.0746 57.3523 59.2145 57.7961 59.3088L57.8779 59.3257C57.9062 59.3307 57.9379 59.3358 57.968 59.3409C58.028 59.3493 58.0881 59.3577 58.1481 59.3661C58.2099 59.3729 58.2783 59.3779 58.3433 59.3813L58.4418 59.3864C58.4751 59.3881 58.5118 59.3881 58.5469 59.3881C58.6186 59.3881 58.6904 59.3864 58.7604 59.383C58.8355 59.3779 58.9123 59.3695 58.989 59.3594C59.0274 59.3543 59.0641 59.3493 59.1041 59.3442C59.1442 59.3375 59.1842 59.3291 59.2242 59.3206C59.3043 59.3038 59.3827 59.2869 59.4628 59.2633C59.7865 59.1706 60.1068 59.0189 60.3888 58.8268C60.4572 58.7796 60.5222 58.729 60.5873 58.6768L60.6357 58.638L60.6791 58.601L60.7141 58.5689L60.8543 58.4442L61.1329 58.1931C61.223 58.1071 61.3114 58.0195 61.4015 57.9318C61.7602 57.5846 62.0905 57.2105 62.4125 56.8312C62.7262 56.4453 63.0282 56.0526 63.3018 55.643C63.5821 55.2368 63.834 54.8138 64.0742 54.3874L64.2477 54.0637C64.3061 53.9559 64.3579 53.8463 64.4129 53.7368C64.468 53.6272 64.5214 53.5193 64.5731 53.4081L64.7266 53.0778C65.1236 52.1912 65.444 51.2794 65.6926 50.3507C65.8144 49.8855 65.9245 49.417 66.0079 48.94C66.0496 48.7007 66.0896 48.4613 66.1213 48.2153C66.1297 48.1546 66.1364 48.0922 66.1447 48.0299C66.1514 47.9675 66.1597 47.9051 66.1664 47.8411C66.1731 47.7787 66.1797 47.7113 66.1847 47.6456L66.2031 47.4113L62.1856 47.0405Z" fill="#FAAF3A"/>
<path d="M52.6391 52.272C52.6507 52.417 52.7775 52.5265 52.9227 52.513C53.0662 52.5012 53.1746 52.3731 53.1613 52.2265C53.1496 52.0816 53.0228 51.972 52.8776 51.9855C52.7341 51.999 52.6257 52.1271 52.6391 52.272Z" fill="#C77E2E"/>
<path d="M58.0896 56.8244C58.1396 56.8244 58.1847 56.7907 58.198 56.7384C58.4082 55.889 58.3816 54.8221 58.3799 54.7766C58.3782 54.7142 58.3265 54.6653 58.2648 54.667C58.203 54.6687 58.1547 54.721 58.1563 54.7833C58.1563 54.7934 58.183 55.8637 57.9811 56.6828C57.9661 56.7435 58.0028 56.8042 58.0629 56.8193C58.0712 56.8227 58.0796 56.8244 58.0896 56.8244Z" fill="#C77E2E"/>
<path d="M58.8053 56.0037C58.822 56.0037 58.8387 56.0004 58.8554 55.9919C58.9104 55.9633 58.9338 55.8959 58.9054 55.8402C58.8904 55.8099 58.5284 55.0784 58.3565 54.8593C58.3182 54.8104 58.2481 54.802 58.1997 54.8408C58.1513 54.8795 58.143 54.9503 58.1814 54.9992C58.3382 55.1981 58.7019 55.9329 58.7052 55.9397C58.7252 55.9818 58.7653 56.0037 58.8053 56.0037Z" fill="#C77E2E"/>
<path d="M51.8332 54.4715C51.8633 54.4715 51.8916 54.4597 51.9133 54.4378C52.8509 53.4602 54.9681 51.9164 54.9898 51.9012C55.0399 51.8641 55.0515 51.7933 55.0148 51.7428C54.9781 51.6922 54.9081 51.6804 54.858 51.7175C54.8363 51.7327 52.7041 53.2883 51.7531 54.2794C51.7098 54.3249 51.7114 54.3956 51.7548 54.4395C51.7765 54.4597 51.8049 54.4715 51.8332 54.4715Z" fill="#C77E2E"/>
<path d="M52.7392 53.6355C52.7642 53.6355 52.7892 53.6271 52.8109 53.6085C52.8576 53.5681 52.8643 53.4973 52.8259 53.4484L51.6948 52.0765C51.6547 52.0293 51.5847 52.0225 51.5363 52.0613C51.4896 52.1018 51.4829 52.1725 51.5213 52.2214L52.6524 53.5934C52.6758 53.622 52.7075 53.6355 52.7392 53.6355Z" fill="#C77E2E"/>
<path d="M64.9535 80.3361L66.4717 71.2886L66.5968 70.5487L62.2273 68.9914L61.9787 68.902L60.9377 68.5312C60.9377 68.5312 60.8542 68.9189 60.7258 69.583C60.7108 69.6639 60.6941 69.7481 60.6774 69.8358C60.267 71.9763 59.4995 76.3854 59.2893 80.3344H64.9535V80.3361Z" fill="#39393B"/>
<path d="M64.1777 80.3361C64.8334 76.7292 65.6776 71.4571 65.7277 71.1487C65.7377 71.083 65.6943 71.0223 65.6292 71.0122C65.5658 71.0021 65.5041 71.0459 65.4941 71.1116C65.4824 71.1875 64.6065 76.6601 63.9375 80.3361H64.1777Z" fill="#585859"/>
<path d="M73.7925 65.6426C73.7925 65.6426 74.1212 68.7944 73.4121 70.5489C72.7031 72.3035 63.5153 71.4001 61.1745 69.8208C60.2136 69.1736 62.259 63.197 62.259 63.197L73.7925 65.6426Z" fill="#39393B"/>
<path d="M60.6758 69.8377C60.8143 69.8124 60.9511 69.777 61.0829 69.7315C61.2931 69.659 61.495 69.5612 61.6868 69.4365C61.8854 69.3067 62.0655 69.1567 62.2257 68.9916C63.2384 67.9601 63.5371 66.3994 63.5504 66.3235C63.5621 66.2595 63.5204 66.1971 63.4553 66.1836C63.3919 66.1718 63.3302 66.214 63.3168 66.2797C63.3135 66.2982 63.0032 67.9213 61.9755 68.9022C61.847 69.0253 61.7068 69.1382 61.5567 69.236C61.3748 69.3539 61.1813 69.4466 60.9794 69.5141C60.896 69.541 60.8109 69.5646 60.7225 69.5832C60.7091 69.6641 60.6925 69.7483 60.6758 69.8377Z" fill="#585859"/>
<path d="M66.3432 70.7193C66.3398 70.7816 66.3899 70.8356 66.455 70.8406C66.455 70.8406 66.455 70.8406 66.4566 70.8406C66.5217 70.844 66.5767 70.7951 66.5801 70.7311C66.6001 70.2996 66.6268 69.8597 66.6535 69.4181C66.6585 69.3406 66.6635 69.263 66.6685 69.1855C66.7619 67.7461 66.8787 66.3321 66.9672 65.3326C66.9738 65.2517 66.9805 65.1742 66.9888 65.0983C67.0089 64.8792 67.0272 64.6854 67.0422 64.5202C66.9638 64.5084 66.8854 64.4949 66.8087 64.4814C66.7936 64.6466 66.7753 64.8421 66.7553 65.0629C66.7486 65.1388 66.7419 65.2163 66.7336 65.2972C66.6452 66.2866 66.5284 67.6888 66.4366 69.1198C66.4316 69.199 66.4266 69.2782 66.4216 69.3574C66.3916 69.8142 66.3649 70.2726 66.3432 70.7193Z" fill="#585859"/>
<path d="M66.008 69.1988C66.0448 69.2173 66.2099 69.2949 66.4201 69.3589C66.4935 69.3808 66.572 69.4027 66.6537 69.4179C66.7271 69.4331 66.8022 69.4432 66.8773 69.4466C67.0208 69.455 67.1576 69.4398 67.2727 69.3842C67.4162 69.3151 67.5096 69.1887 67.5413 69.0201C67.6264 68.5752 67.8066 66.7414 67.9284 65.4436C67.9367 65.3644 67.9434 65.2852 67.95 65.211C67.9684 65.0037 67.9868 64.815 68.0018 64.6549C67.9234 64.6447 67.8449 64.6363 67.7665 64.6245C67.7515 64.7863 67.7348 64.9768 67.7148 65.1874C67.7081 65.2633 67.6998 65.3408 67.6931 65.42C67.5713 66.7145 67.3928 68.5465 67.3094 68.9763C67.291 69.0758 67.246 69.1398 67.1676 69.1769C67.0424 69.2376 66.8556 69.2241 66.6687 69.1836C66.5886 69.1668 66.5102 69.1432 66.4368 69.1196C66.3017 69.0758 66.1849 69.0252 66.1132 68.9915C66.0548 68.9628 65.9847 68.9864 65.9547 69.0437C65.9246 69.101 65.9497 69.1701 66.008 69.1988Z" fill="#585859"/>
<path d="M72.6496 80.3362C73.0133 76.9788 73.4337 72.4838 73.6706 69.8814C73.679 69.8005 73.6857 69.7213 73.6923 69.6438C73.7974 68.4943 73.8608 67.7713 73.8608 67.7713C73.2969 67.5336 72.2742 67.6971 71.1864 68.0089C71.108 68.0308 71.0296 68.0544 70.9495 68.078C69.0175 68.6629 66.9688 69.6505 66.9688 69.6505V80.3362H72.6496Z" fill="#39393B"/>
<path d="M72.0941 80.3362C72.4077 76.603 72.7798 71.2095 72.7848 71.1388C72.7898 71.073 72.7397 71.0157 72.6747 71.0107C72.6096 71.0073 72.5529 71.0562 72.5496 71.1219C72.5445 71.1927 72.1708 76.6063 71.8572 80.3362H72.0941Z" fill="#585859"/>
<path d="M70.3005 66.3235C70.3106 66.3791 70.4724 67.2235 70.9512 68.078C71.2332 68.582 71.6269 69.0876 72.1641 69.4365C72.6162 69.7297 73.1201 69.8781 73.6707 69.8814C73.679 69.8005 73.6857 69.7213 73.6924 69.6438C73.1785 69.6438 72.7097 69.5073 72.2926 69.2376C71.8121 68.9258 71.4534 68.4707 71.1881 68.0106C70.6993 67.1611 70.5341 66.2948 70.5324 66.2813C70.5208 66.2173 70.459 66.1735 70.3956 66.1853C70.3306 66.1954 70.2889 66.2577 70.3005 66.3235Z" fill="#585859"/>
<path d="M60.8508 65.4435C63.3934 67.8419 69.408 69.1161 74.0427 66.8357C74.5516 65.4317 75.1105 60.4226 75.2606 58.9243C75.2907 58.6259 75.314 58.3276 75.3341 58.0293C75.4275 56.5933 75.4075 55.1455 75.3391 53.632C75.3357 53.5494 75.3307 53.4668 75.3274 53.3842C75.2673 52.1387 75.1756 50.8476 75.0905 49.4757C74.922 46.7604 74.0244 45.0885 72.4661 44.839C71.742 44.7227 71.1681 44.5171 70.746 44.3148C70.6943 44.2896 70.6459 44.266 70.5975 44.2407C70.0953 43.9811 69.81 43.7485 69.81 43.7485H66.3348C66.0362 44.1884 65.6591 44.4665 65.2537 44.662C65.2086 44.684 65.1636 44.7042 65.1169 44.7244C63.8839 45.2621 62.4458 45.1559 62.1488 46.6576C61.962 47.6015 62.6777 49.5414 62.6026 53.4769C62.5976 53.7651 62.5876 54.0651 62.5726 54.3752C62.5593 54.6668 62.5409 54.9668 62.5175 55.277C62.4959 55.5652 62.4708 55.8652 62.4408 56.1719C62.4141 56.4399 62.3841 56.7163 62.3507 56.9978C62.3157 57.2877 62.2773 57.5843 62.2339 57.8894C62.0053 59.5293 61.3847 63.3401 60.8508 65.4435Z" fill="#FAAF3A"/>
<path d="M72.7614 66.2644C72.753 66.2644 72.743 66.2627 72.733 66.261C72.678 66.2458 72.6446 66.1885 72.6596 66.1312C74.5899 58.9816 74.1995 51.7156 74.1962 51.6432C74.1929 51.5859 74.2362 51.5353 74.2946 51.5319C74.353 51.5285 74.4014 51.5724 74.4047 51.6314C74.4081 51.7038 74.8001 59.0052 72.8615 66.1885C72.8498 66.2324 72.8081 66.2644 72.7614 66.2644Z" fill="#C77E2E"/>
<path d="M62.289 56.9777C62.3457 56.9777 62.3941 56.9356 62.4008 56.8766C62.631 54.8086 62.6344 50.6961 62.6344 50.6539C62.6344 50.5916 62.5843 50.541 62.5226 50.541C62.4609 50.541 62.4108 50.5916 62.4108 50.6539C62.4108 50.6944 62.4075 54.7968 62.1789 56.8513C62.1722 56.9137 62.2156 56.9693 62.2773 56.976C62.2807 56.9777 62.284 56.9777 62.289 56.9777Z" fill="#C77E2E"/>
<path d="M67.049 64.7662C67.0606 64.9111 67.1874 65.0207 67.3326 65.0072C67.4761 64.9954 67.5845 64.8673 67.5712 64.7207C67.5595 64.5757 67.4327 64.4662 67.2875 64.4796C67.1441 64.4914 67.0373 64.6195 67.049 64.7662Z" fill="#C77E2E"/>
<path d="M67.0072 66.0469C67.0189 66.1919 67.1457 66.3014 67.2908 66.2879C67.4343 66.2761 67.5428 66.148 67.5294 66.0014C67.5177 65.8565 67.3909 65.7469 67.2458 65.7604C67.1023 65.7722 66.9955 65.9003 67.0072 66.0469Z" fill="#C77E2E"/>
<path d="M63.9473 51.9601C63.2649 51.1595 63.5202 49.378 63.5319 49.3021C63.5402 49.2465 63.5869 49.2061 63.642 49.2061H65.956C66.0111 49.2061 66.0578 49.2465 66.0661 49.3021C66.0778 49.378 66.3331 51.1595 65.6507 51.9601C65.4338 52.2146 65.1469 52.3427 64.7982 52.3427C64.4512 52.3443 64.1642 52.2146 63.9473 51.9601ZM63.7421 49.4319C63.6987 49.8078 63.5853 51.1881 64.1175 51.8117C64.2927 52.0174 64.5162 52.1168 64.7998 52.1168C65.0851 52.1168 65.3087 52.0174 65.4822 51.8117C66.0144 51.1881 65.901 49.8078 65.8576 49.4319H63.7421Z" fill="#C77E2E"/>
<path d="M70.1254 35.0956C69.4781 34.6726 67.4376 34.4602 67.4376 34.4602C67.4376 34.4602 67.1023 33.5703 66.7236 33.3158C65.8644 32.7377 65.7576 33.9091 65.7576 33.9091C65.7576 33.9091 64.9184 32.7209 64.1626 33.0613C63.4068 33.4001 64.3728 34.5041 64.3728 34.5041C64.3728 34.5041 63.24 34.2917 63.3651 35.2676C63.4902 36.2434 64.583 36.6665 64.583 36.6665C64.583 36.6665 64.2477 37.2176 64.4145 38.1092C64.583 38.9991 64.9601 39.043 64.9601 39.043L69.6633 39.4677C69.6633 39.4677 70.6293 39.4677 70.8812 38.2373C71.1331 37.0069 70.2939 36.4979 70.2939 36.4979C70.2939 36.4979 70.8395 35.5625 70.1254 35.0956Z" fill="#39393B"/>
<path d="M66.2849 43.1538V44.0454C66.3884 44.1297 66.4935 44.2039 66.5969 44.2662C68.1301 45.1966 69.7852 44.0454 69.7852 44.0454V40.9526L66.702 42.8909L66.2849 43.1538Z" fill="#EA9B7A"/>
<path d="M66.2849 43.1282V44.0468C66.3884 44.131 66.4935 44.2052 66.5969 44.2676C67.9032 43.7451 68.8542 42.3613 68.8542 42.3613L66.702 42.8922L66.2849 43.1282Z" fill="#39393B"/>
<path d="M69.7785 43.1401C69.7785 43.1401 70.8113 43.3154 71.0949 44.5087C70.0889 45.5722 69.1996 46.4925 67.7615 46.7622V44.6267C67.7598 44.6267 69.0311 44.3065 69.7785 43.1401Z" fill="#FAAF3A"/>
<path d="M66.2533 43.4487C66.2533 43.4487 65.3307 43.6493 64.9736 44.8409C65.9029 45.9836 66.4001 46.4134 67.7615 46.7623V44.6269C67.7598 44.6269 67.0007 44.6151 66.2533 43.4487Z" fill="#FAAF3A"/>
<path d="M65.7327 60.0421L66.33 61.5L66.5986 62.1556L67.3577 64.0045L67.7231 63.2899L67.8532 63.0371L68.1469 62.464L68.277 62.2112L68.5706 61.6382L68.7008 61.3854L68.9944 60.8123L69.1229 60.5595L69.3998 60.0218L69.3932 59.9629L69.3514 59.5364L69.253 58.5673L69.2096 58.1409L69.1129 57.1718L69.0695 56.7453L68.9711 55.7762L68.9293 55.3498L68.8309 54.3807L68.7875 53.9526L68.6908 52.9851L68.6474 52.557L68.5506 51.5896L68.5072 51.1615L68.4088 50.194L68.3654 49.7659L68.2687 48.7985L68.2253 48.3704L68.1252 47.3692L67.3928 47.3406L67.3711 47.5074L67.326 47.8462L67.2259 48.6148L67.1825 48.9535L67.0808 49.7221L67.0374 50.0609L66.9373 50.8294L66.8922 51.1682L66.7921 51.9368L66.7471 52.2756L66.647 53.0441L66.6036 53.3829L66.5035 54.1514L66.4585 54.4902L66.3584 55.2588L66.3133 55.5992L66.2132 56.3661L66.1698 56.7049L66.0681 57.4735L66.0247 57.8139L65.9246 58.5825L65.8795 58.9212L65.7794 59.6898L65.7344 60.0286L65.7327 60.0421Z" fill="#39393B"/>
<path d="M67.326 47.8461L68.2686 48.7984L68.2253 48.3703L67.371 47.5073L67.326 47.8461Z" fill="#585859"/>
<path d="M67.1825 48.9535L68.4088 50.194L68.3654 49.7659L67.2259 48.6147L67.1825 48.9535Z" fill="#585859"/>
<path d="M67.0374 50.0607L68.5506 51.5894L68.5072 51.1613L67.0807 49.7219L67.0374 50.0607Z" fill="#585859"/>
<path d="M66.8922 51.1681L68.6907 52.985L68.6473 52.5569L66.9372 50.8293L66.8922 51.1681Z" fill="#585859"/>
<path d="M66.7471 52.2755L68.8309 54.3807L68.7875 53.9526L66.7921 51.9368L66.7471 52.2755Z" fill="#585859"/>
<path d="M66.6036 53.3827L68.971 55.7761L68.9293 55.3496L66.647 53.0439L66.6036 53.3827Z" fill="#585859"/>
<path d="M66.4585 54.4901L69.1129 57.1717L69.0695 56.7453L66.5035 54.1514L66.4585 54.4901Z" fill="#585859"/>
<path d="M66.3133 55.599L69.253 58.5671L69.2096 58.1406L66.3583 55.2585L66.3133 55.599Z" fill="#585859"/>
<path d="M66.1698 56.7047L69.3931 59.9627L69.3514 59.5363L66.2132 56.366L66.1698 56.7047Z" fill="#585859"/>
<path d="M66.0247 57.8138L68.9944 60.8123L69.1228 60.5594L66.068 57.4734L66.0247 57.8138Z" fill="#585859"/>
<path d="M65.8795 58.921L68.5706 61.638L68.7007 61.3852L65.9246 58.5823L65.8795 58.921Z" fill="#585859"/>
<path d="M65.7344 60.0285L68.1469 62.4639L68.277 62.2111L65.7795 59.6897L65.7344 60.0285Z" fill="#585859"/>
<path d="M66.3299 61.4998L66.5985 62.1554L67.723 63.2897L67.8531 63.0369L66.3299 61.4998Z" fill="#585859"/>
<path d="M68.1251 47.3692L67.7597 47.917L67.3927 47.3406L67.3276 47.8327L67.7547 48.2709L68.1635 47.7501L68.1251 47.3692Z" fill="#585859"/>
<path d="M68.7374 46.4507L67.7597 47.917L66.8238 46.4507L67.7597 45.2253L68.7374 46.4507Z" fill="#39393B"/>
<path d="M69.3047 47.4534C69.3297 47.4534 69.3547 47.445 69.3747 47.4281C70.3424 46.6495 71.1649 44.6354 71.1999 44.5494C71.2233 44.4921 71.1966 44.4247 71.1382 44.4011C71.0815 44.3775 71.0148 44.4045 70.9914 44.4635C70.9831 44.4837 70.2073 46.3798 69.323 47.1736L67.8515 45.1545C67.8298 45.1258 67.7964 45.1073 67.7597 45.109C67.723 45.109 67.6897 45.1275 67.6697 45.1562L66.2966 47.1248C66.0864 46.7422 65.5358 45.7275 65.0736 44.7871C65.047 44.7314 64.9786 44.7078 64.9235 44.7365C64.8684 44.7635 64.8451 44.8326 64.8734 44.8882C65.4574 46.0764 66.1815 47.381 66.1881 47.3944C66.2065 47.4281 66.2415 47.4501 66.2799 47.4517C66.3183 47.4534 66.355 47.4349 66.3767 47.4045L67.7631 45.4174L69.2129 47.4062C69.2313 47.4315 69.258 47.4467 69.288 47.4517C69.2947 47.4534 69.2997 47.4534 69.3047 47.4534Z" fill="#C77E2E"/>
<path d="M67.763 45.3379C67.8248 45.3379 67.8748 45.2874 67.8748 45.225V44.7194C67.8748 44.657 67.8248 44.6064 67.763 44.6064C67.7013 44.6064 67.6512 44.657 67.6512 44.7194V45.225C67.6512 45.2874 67.7013 45.3379 67.763 45.3379Z" fill="#C77E2E"/>
<path d="M65.1804 39.1995C65.1804 39.1995 64.6782 38.6012 64.3946 39.1995C64.111 39.7979 64.3295 41.0097 65.092 40.8125L65.1804 39.1995Z" fill="#D96C63"/>
<path d="M64.6465 41.3C64.6465 41.3 64.6431 43.1455 66.5434 43.1405C68.432 43.1371 69.7184 41.6388 69.7851 41.5697C69.7868 41.568 69.7868 41.568 69.7868 41.568L69.8068 41.1803L69.9136 39.1679L69.9703 38.0926C69.9703 38.0926 70.2122 36.156 68.3887 35.8021C67.0573 35.5442 65.8093 35.7667 65.1787 36.4695C65.1587 36.4914 65.1387 36.515 65.1203 36.5386C64.9218 36.7847 64.795 37.0864 64.7616 37.4403L64.7032 39.3718L64.6882 39.8454L64.6465 41.3Z" fill="#EA9B7A"/>
<path d="M66.827 37.9863C66.827 37.9863 67.6245 38.5863 68.0983 38.2037C68.5721 37.8211 67.4676 37.4048 67.1039 37.4368C66.7402 37.4671 66.5901 37.8497 66.827 37.9863Z" fill="#39393B"/>
<path d="M65.9595 37.9863C65.9595 37.9863 65.1621 38.5863 64.6882 38.2037C64.2144 37.8211 65.3189 37.4048 65.6826 37.4368C66.0463 37.4671 66.1965 37.8497 65.9595 37.9863Z" fill="#39393B"/>
<path d="M66.5884 41.5408C66.892 41.5678 67.1206 41.3756 67.1323 41.3655C67.1673 41.3352 67.1707 41.2813 67.1406 41.2459C67.1106 41.2105 67.0572 41.2071 67.0222 41.2374C67.0105 41.2475 66.7469 41.4683 66.4382 41.3284C66.3965 41.3099 66.3465 41.3284 66.3281 41.3723C66.3098 41.4144 66.3281 41.465 66.3715 41.4835C66.4449 41.5155 66.5183 41.5341 66.5884 41.5408Z" fill="#D96C63"/>
<path d="M67.4109 40.2227C67.4109 40.2227 66.2514 40.4586 65.6658 40.4047C65.6658 40.4047 65.8843 41.2761 66.7469 41.0569C67.4176 40.885 67.4109 40.2227 67.4109 40.2227Z" fill="white"/>
<path d="M65.1218 36.5386C65.4205 36.4324 65.6357 36.5319 66.0995 36.7375C66.7702 37.0358 67.521 36.7678 68.185 36.424C68.849 36.0819 69.2461 36.5588 69.0208 36.8706C68.7956 37.1841 68.819 37.4369 69.0709 37.8347C69.3211 38.2325 68.5971 38.4196 68.9975 38.7314C69.166 38.8628 69.156 39.06 69.0876 39.2437C69.0125 39.4443 69.1877 39.6482 69.3946 39.6095C69.6114 39.5539 69.9151 39.1679 69.9151 39.1679L69.9718 38.0926C69.9718 38.0926 70.2137 36.156 68.3902 35.8021C67.0588 35.5442 65.8109 35.7667 65.1802 36.4695C65.1602 36.4914 65.1402 36.5133 65.1218 36.5386Z" fill="#39393B"/>
<path d="M67.1824 39.6094C67.1824 39.7442 67.456 39.8521 67.7947 39.8521C68.1317 39.8521 68.407 39.7426 68.407 39.6094C68.407 39.4746 68.1334 39.3667 67.7947 39.3667C67.456 39.3667 67.1824 39.4746 67.1824 39.6094Z" fill="#D96C63"/>
<path d="M64.6897 39.8454C64.7364 39.8504 64.7865 39.8521 64.8365 39.8521C65.1735 39.8521 65.4471 39.7426 65.4471 39.6094C65.4471 39.4746 65.1735 39.3667 64.8365 39.3667C64.7915 39.3667 64.7464 39.3684 64.703 39.3734L64.6897 39.8454Z" fill="#D96C63"/>
<path d="M66.917 38.8694C66.917 39.0531 67.0004 39.2031 67.1022 39.2031C67.204 39.2031 67.2874 39.0531 67.2874 38.8694C67.2874 38.6856 67.204 38.5356 67.1022 38.5356C67.0004 38.5356 66.917 38.6856 66.917 38.8694Z" fill="#39393B"/>
<path d="M65.082 38.8694C65.082 39.0531 65.1655 39.2031 65.2672 39.2031C65.369 39.2031 65.4524 39.0531 65.4524 38.8694C65.4524 38.6856 65.369 38.5356 65.2672 38.5356C65.1655 38.5356 65.082 38.6856 65.082 38.8694Z" fill="#39393B"/>
<path d="M69.1895 40.8213C69.1978 40.8415 69.438 41.4045 69.7834 41.5696C69.7851 41.5679 69.7851 41.5679 69.7851 41.5679L69.8051 41.1803C69.8068 41.1803 69.5064 41.128 69.1895 40.8213Z" fill="#39393B"/>
<path d="M69.5247 39.5382C69.5247 39.5382 70.2554 38.5471 70.7893 39.3258C71.2297 39.968 70.3972 41.6399 69.5247 41.0669V39.5382Z" fill="#EA9B7A"/>
<path d="M69.625 40.7689C69.6634 40.7689 69.695 40.7402 69.7001 40.7014C69.7818 39.9514 70.4024 39.6902 70.4291 39.6801C70.4675 39.6649 70.4859 39.6211 70.4708 39.5806C70.4558 39.5419 70.4124 39.5233 70.3741 39.5385C70.344 39.5503 69.6417 39.8419 69.5516 40.6846C69.5466 40.7267 69.5766 40.7638 69.6183 40.7689C69.6183 40.7689 69.6216 40.7689 69.625 40.7689Z" fill="#39393B"/>
<path d="M70.3256 40.3088C70.3473 40.3088 70.369 40.2987 70.384 40.2802C70.4107 40.2481 70.4057 40.1993 70.3723 40.174C70.3423 40.1487 70.0737 39.9346 69.8468 39.9936C69.8068 40.0038 69.7817 40.0459 69.7934 40.0863C69.8034 40.1268 69.8451 40.1521 69.8852 40.1403C70.0153 40.1066 70.2122 40.238 70.2789 40.292C70.2923 40.3038 70.3089 40.3088 70.3256 40.3088Z" fill="#39393B"/>
<path d="M66.3249 39.798C66.3666 39.798 66.4 39.7643 66.4 39.7221C66.4 39.68 66.3666 39.6463 66.3249 39.6463C66.048 39.6463 65.9195 39.498 65.8761 39.4356C66.1764 38.812 66.4734 38.1833 66.4768 38.1766C66.4951 38.1395 66.4784 38.094 66.4417 38.0755C66.405 38.0569 66.36 38.0738 66.3416 38.1108C66.3383 38.1176 66.0296 38.7699 65.7243 39.4069C65.7143 39.4272 65.7143 39.4508 65.7243 39.4727C65.7293 39.4845 65.8795 39.798 66.3249 39.798Z" fill="#39393B"/>
<path d="M84.5019 46.6393C84.5019 46.6393 85.5129 47.6708 86.5123 47.2697C87.3181 46.9444 87.4966 45.8118 87.5367 45.3888C87.5467 45.2876 87.5467 45.2269 87.5467 45.2269C87.5467 45.2269 87.6017 45.1949 87.6768 45.1393C87.8537 45.0078 88.1473 44.7415 88.1156 44.4297C88.0706 43.9848 87.2697 44.2325 87.2697 44.2325C87.2697 44.2325 87.3915 43.6949 87.1546 43.5364C86.9227 43.3814 86.4455 43.6561 86.4455 43.6561C86.4455 43.6561 86.7041 42.9971 86.3505 42.8387C85.8182 42.5993 85.6431 43.41 85.6197 43.4623C85.6247 43.4033 85.8783 40.9206 85.4562 41.0487C85.0875 41.16 84.7488 43.2348 84.662 43.7994C84.6487 43.8887 84.642 43.9393 84.642 43.9393C84.642 43.9393 84.612 43.9376 84.5619 43.9393C84.325 43.946 83.6293 44.0101 83.5008 44.4988C83.349 45.0921 84.5019 46.6393 84.5019 46.6393Z" fill="#EA9B7A"/>
<path d="M86.5708 44.8862C86.4857 45.0783 86.4424 45.2873 86.4841 45.4356C86.5108 45.5317 86.5708 45.5974 86.6576 45.6244C86.7176 45.6429 86.7944 45.6429 86.8795 45.6278C87.0947 45.5924 87.3616 45.4727 87.5368 45.3867C87.5468 45.2856 87.5468 45.2249 87.5468 45.2249C87.5468 45.2249 87.6019 45.1929 87.6786 45.1373C87.6636 45.1356 87.6469 45.1407 87.6336 45.1474C87.3633 45.2974 86.8728 45.5165 86.7076 45.4643C86.6859 45.4575 86.6593 45.4424 86.6442 45.3884C86.5992 45.2249 86.7193 44.8777 86.8928 44.6738C86.9212 44.6418 86.9195 44.5929 86.8912 44.5626C86.8628 44.5305 86.8144 44.5255 86.781 44.5524C86.6159 44.6755 86.137 44.9772 85.8985 44.8996C85.8634 44.8878 85.8584 44.8727 85.8568 44.8642C85.8467 44.8255 85.8618 44.7648 85.8935 44.6957C85.9569 44.5541 86.0853 44.3738 86.1871 44.2558C86.1988 44.2423 86.2055 44.2255 86.2071 44.2103C86.2105 44.1833 86.2004 44.1564 86.1804 44.1378C86.1454 44.1075 86.0937 44.1109 86.0636 44.1462C86.0186 44.1985 85.8601 44.3873 85.765 44.5828C85.73 44.6536 85.7049 44.726 85.6949 44.7918C85.6882 44.8339 85.6899 44.8744 85.6999 44.9098C85.7149 44.9603 85.7516 45.0277 85.8518 45.0598C86.0586 45.1289 86.3506 45.0075 86.5708 44.8862Z" fill="#D96C63"/>
<path d="M85.3027 44.1803C85.336 44.1904 85.3594 44.2174 85.3627 44.2528C85.3711 44.3623 85.3961 44.4567 85.4361 44.5124C85.4678 44.5562 85.4979 44.5612 85.5212 44.5612C85.5579 44.5595 85.6046 44.541 85.658 44.5107C85.7898 44.4348 85.9567 44.2848 86.1018 44.1382C86.1001 44.155 86.0935 44.1702 86.0818 44.1837C85.98 44.3017 85.8516 44.482 85.7882 44.6236C85.7715 44.6337 85.7548 44.6455 85.7381 44.6539C85.6847 44.6843 85.6347 44.7062 85.588 44.7197C85.5663 44.7247 85.5479 44.7281 85.5279 44.7281C85.4378 44.7315 85.3594 44.691 85.301 44.6101C85.2409 44.5258 85.2076 44.4011 85.1959 44.2646C85.1909 44.2073 85.2443 44.1635 85.2993 44.1786C85.301 44.1803 85.3027 44.1803 85.3027 44.1803Z" fill="#D96C63"/>
<path d="M84.1149 45.1192C84.1366 45.1209 84.4586 45.1546 84.7706 45.1007C84.9441 45.072 85.1143 45.0164 85.2277 44.9136C85.3212 44.8293 85.3712 44.7232 85.3746 44.5984C85.3846 44.1535 84.9341 43.9057 84.6638 43.7979C84.6505 43.8872 84.6438 43.9377 84.6438 43.9377C84.6438 43.9377 84.6138 43.9361 84.5637 43.9377C84.7906 44.0237 85.2161 44.2327 85.2094 44.5934C85.2077 44.6709 85.1777 44.7333 85.1193 44.7872C84.8991 44.9844 84.3318 44.9726 84.1333 44.9507C84.0882 44.9456 84.0465 44.9793 84.0415 45.0249C84.0365 45.0737 84.0699 45.1142 84.1149 45.1192Z" fill="#D96C63"/>
<path d="M85.8949 46.7185C85.9233 46.7134 85.9483 46.6949 85.9583 46.6662C85.975 46.6224 85.9533 46.5752 85.9099 46.5583C85.6797 46.4707 85.5229 46.3224 85.4478 46.1218C85.2526 45.6044 85.618 44.8847 85.623 44.878C85.6447 44.8375 85.628 44.7869 85.5879 44.765C85.5479 44.7431 85.4978 44.76 85.4761 44.8004C85.4595 44.8325 85.0724 45.5943 85.2943 46.1808C85.3877 46.4302 85.5762 46.6089 85.8532 46.7151C85.8665 46.7201 85.8816 46.7201 85.8949 46.7185Z" fill="#D96C63"/>
<path d="M73.5872 45.4358L75.3156 46.9527C75.5926 47.2139 75.8695 47.4718 76.1482 47.7297C76.4251 47.9876 76.7021 48.2437 76.9807 48.4966C77.2593 48.7494 77.5362 49.0005 77.8132 49.2466C78.0901 49.4927 78.3688 49.7337 78.644 49.9646C78.9177 50.1972 79.1929 50.4213 79.4499 50.6135C79.5767 50.7095 79.7018 50.7972 79.8019 50.8629L79.8686 50.9067L79.8953 50.9236C79.9003 50.927 79.902 50.9286 79.9053 50.932C79.9154 50.9421 79.922 50.9489 79.927 50.9556C79.9354 50.9674 79.9354 50.9775 79.9454 50.986C79.9554 50.9961 79.9821 51.0028 80.0305 50.9994C80.1272 50.9927 80.3074 50.9303 80.516 50.809C80.7229 50.6876 80.9531 50.5123 81.18 50.3067C81.4069 50.0994 81.6388 49.8668 81.8624 49.614C82.3112 49.1067 82.7433 48.5353 83.152 47.937C83.5624 47.3387 83.8527 46.8768 84.2231 46.2397C84.8221 46.9712 85.743 47.3336 86.7424 47.2122C86.4604 47.9859 86.1351 48.7376 85.768 49.4842C85.396 50.2275 84.9856 50.964 84.4867 51.6854C84.2365 52.0461 83.9662 52.4051 83.6542 52.7557C83.3422 53.1062 82.9952 53.4518 82.5714 53.7787C82.3595 53.9405 82.1276 54.099 81.8657 54.2422C81.6038 54.3838 81.3135 54.5136 80.9898 54.6113C80.6661 54.7074 80.3074 54.7731 79.9337 54.7799C79.56 54.7883 79.1729 54.7377 78.8142 54.6349C78.634 54.5844 78.4605 54.522 78.297 54.4495L78.1769 54.3939L78.0751 54.3434C78.0401 54.3265 78.0117 54.3113 77.98 54.2945C77.95 54.2776 77.9166 54.2608 77.8883 54.2456C77.6547 54.1175 77.4545 53.9945 77.2626 53.8714C76.8822 53.627 76.5402 53.3843 76.2049 53.1383C75.8712 52.8922 75.5509 52.6427 75.2339 52.3933C74.9186 52.1439 74.6066 51.891 74.3013 51.6365C73.9959 51.3803 73.6923 51.1258 73.3937 50.8663C73.095 50.6067 72.7997 50.3455 72.5044 50.0826C72.2124 49.8179 71.9205 49.5533 71.6318 49.2853L71.1997 48.8808L70.9862 48.6752C70.9144 48.6061 70.8444 48.5387 70.7693 48.4645L73.5872 45.4358Z" fill="#FAAF3A"/>
<path d="M75.2371 52.6006C75.2171 52.6006 75.1954 52.5939 75.1771 52.5821C74.0359 51.7747 72.0055 50.0741 71.9855 50.0573C71.9404 50.0202 71.9354 49.9545 71.9721 49.909C72.0088 49.8634 72.0739 49.8584 72.1189 49.8955C72.139 49.9123 74.1627 51.6079 75.2972 52.4101C75.3439 52.4439 75.3556 52.5096 75.3222 52.5568C75.3022 52.5837 75.2688 52.6006 75.2371 52.6006Z" fill="#C77E2E"/>
<path d="M72.8755 50.7599C72.8705 50.7599 72.8655 50.7599 72.8605 50.7583L72.0563 50.6403C71.9996 50.6319 71.9596 50.5779 71.9679 50.5206C71.9762 50.4633 72.0296 50.4229 72.0864 50.4313L72.8905 50.5493C72.9472 50.5577 72.9873 50.6116 72.9789 50.6689C72.9723 50.7229 72.9272 50.7599 72.8755 50.7599Z" fill="#C77E2E"/>
<path d="M86.1817 48.5234C86.2235 48.5015 86.2468 48.4543 86.2368 48.4055C86.2251 48.3482 86.1684 48.3111 86.11 48.3229C84.5951 48.6566 83.841 47.197 83.8343 47.1818C83.8076 47.1296 83.7442 47.1077 83.6909 47.1346C83.6909 47.1346 83.6909 47.1346 83.6892 47.1346C83.6375 47.1616 83.6174 47.2256 83.6441 47.2779C83.6525 47.2947 84.4817 48.8993 86.1551 48.5302C86.1651 48.5319 86.1734 48.5285 86.1817 48.5234Z" fill="#C77E2E"/>
<path d="M85.4026 48.5522C85.4243 48.5404 85.441 48.5236 85.451 48.5L85.9499 47.3235C85.9732 47.2696 85.9482 47.2055 85.8948 47.1819C85.8414 47.1584 85.778 47.1836 85.7547 47.2376L85.2558 48.414C85.2325 48.4679 85.2575 48.532 85.3109 48.5556C85.3426 48.5691 85.376 48.5657 85.4026 48.5522Z" fill="#C77E2E"/>
<path d="M84.51 47.4212C84.5567 47.5122 84.6684 47.5476 84.7585 47.5004C84.8486 47.4532 84.8837 47.3403 84.837 47.2493C84.7902 47.1583 84.6785 47.1229 84.5884 47.1701C84.4983 47.2173 84.4632 47.3302 84.51 47.4212Z" fill="#C77E2E"/>
<path d="M79.705 52.3075C79.7334 52.2923 79.7551 52.2637 79.7601 52.23C79.7618 52.2232 79.8735 51.5524 80.0704 51.1614C80.0971 51.1092 80.0771 51.0434 80.0237 51.0165C79.972 50.9895 79.9069 51.0114 79.8802 51.0637C79.6683 51.485 79.5549 52.1659 79.5499 52.1946C79.5399 52.2536 79.5799 52.3075 79.6366 52.3176C79.6617 52.321 79.685 52.3176 79.705 52.3075Z" fill="#C77E2E"/>
<path d="M80.3958 52.067C80.4025 52.0636 80.4092 52.0586 80.4159 52.0535C80.4609 52.0148 80.4659 51.9474 80.4292 51.9018C80.4259 51.8985 80.1306 51.5378 80.0605 51.1872C80.0488 51.1299 79.9921 51.0912 79.9354 51.1029C79.8786 51.1147 79.8403 51.1721 79.852 51.2294C79.9337 51.6339 80.2524 52.0215 80.2674 52.0384C80.2974 52.0788 80.3525 52.0889 80.3958 52.067Z" fill="#C77E2E"/>
</svg>
