<svg width="135" height="139" viewBox="0 0 135 139" fill="none" xmlns="http://www.w3.org/2000/svg">
<path d="M67.0157 138.286C104.027 138.286 134.031 107.33 134.031 69.1432C134.031 30.9565 104.027 0 67.0157 0C30.004 0 0 30.9565 0 69.1432C0 107.33 30.004 138.286 67.0157 138.286Z" fill="#FFE15A"/>
<path d="M61.2337 37.0846L53.9683 102.79L100.563 108.28L107.829 42.5746L61.2337 37.0846Z" fill="#D1D3D4"/>
<path d="M60.1272 35.9425L52.8618 101.648L99.4567 107.138L106.722 41.4325L60.1272 35.9425Z" fill="#F1F2F2"/>
<path d="M75.8956 46.1753L75.7761 47.2561L89.0068 48.815L89.1263 47.7342L75.8956 46.1753Z" fill="#91CC4E"/>
<path d="M68.9952 47.9733L68.8757 49.0541L95.3372 52.1719L95.4567 51.0911L68.9952 47.9733Z" fill="#92B7C5"/>
<path d="M73.5792 56.1492L73.4597 57.23L86.6904 58.7889L86.8099 57.7081L73.5792 56.1492Z" fill="#91CC4E"/>
<path d="M73.2943 58.7271L73.1748 59.8079L99.6362 62.9256L99.7558 61.8449L73.2943 58.7271Z" fill="#92B7C5"/>
<path d="M73.0092 61.3049L72.8896 62.3856L99.3511 65.5034L99.4706 64.4226L73.0092 61.3049Z" fill="#92B7C5"/>
<path d="M65.8275 60.1272C65.8221 60.1261 65.8178 60.1239 65.8135 60.1194L64.0747 57.8616C64.0714 57.8572 64.0693 57.8527 64.0703 57.8472C64.0714 57.8416 64.0736 57.8372 64.0779 57.8327L64.722 57.3032C64.7263 57.2999 64.7317 57.2977 64.7371 57.2988C64.7425 57.2999 64.7468 57.3021 64.75 57.3066L65.9641 58.8828L69.7042 55.8136C69.7085 55.8102 69.7128 55.808 69.7182 55.8091C69.7235 55.8102 69.7278 55.8125 69.7321 55.8169L70.2451 56.4818C70.2483 56.4863 70.2505 56.4918 70.2494 56.4974C70.2483 56.5029 70.2462 56.5073 70.2419 56.5107L65.8415 60.1228C65.8382 60.1261 65.8339 60.1283 65.8275 60.1272Z" fill="#91CC4E"/>
<path d="M69.6494 57.4222L68.8665 58.065C68.8934 58.2914 68.8955 58.5223 68.8697 58.7499C68.6934 60.3405 67.2965 61.4872 65.7555 61.3063C64.2145 61.1242 63.1036 59.6823 63.2789 58.0916C63.4553 56.5009 64.8522 55.3542 66.3932 55.5352C67.1051 55.6195 67.7535 55.977 68.2191 56.5431L68.2514 56.5831L68.945 56.0136L68.9063 55.967C68.2944 55.2133 67.4373 54.7382 66.4932 54.626C64.4661 54.3874 62.6283 55.8948 62.3971 57.9873C62.1659 60.0797 63.6263 61.9768 65.6533 62.2154C67.6804 62.4541 69.5182 60.9466 69.7494 58.8542C69.7978 58.4202 69.773 57.985 69.6784 57.5621L69.6494 57.4222Z" fill="#92B7C5"/>
<path d="M72.3234 67.502L72.2039 68.5828L85.4346 70.1417L85.5541 69.0609L72.3234 67.502Z" fill="#91CC4E"/>
<path d="M72.0385 70.0794L71.9189 71.1602L98.3804 74.2779L98.4999 73.1972L72.0385 70.0794Z" fill="#92B7C5"/>
<path d="M71.7533 72.6573L71.6338 73.738L98.0952 76.8558L98.2147 75.775L71.7533 72.6573Z" fill="#92B7C5"/>
<path d="M64.5726 71.4797C64.5672 71.4786 64.5629 71.4764 64.5586 71.472L62.8198 69.2141C62.8165 69.2097 62.8144 69.2053 62.8155 69.1997C62.8165 69.1942 62.8187 69.1897 62.823 69.1853L63.4671 68.6558C63.4714 68.6525 63.4768 68.6502 63.4822 68.6513C63.4876 68.6525 63.4919 68.6547 63.4951 68.6591L64.7092 70.2354L68.4493 67.1661C68.4536 67.1628 68.4579 67.1606 68.4633 67.1617C68.4686 67.1628 68.4729 67.165 68.4772 67.1694L68.9902 67.8344C68.9934 67.8388 68.9956 67.8443 68.9945 67.8499C68.9934 67.8554 68.9913 67.8599 68.987 67.8632L64.5866 71.4753C64.5834 71.4797 64.578 71.4808 64.5726 71.4797Z" fill="#91CC4E"/>
<path d="M68.3933 68.7755L67.6104 69.4182C67.6373 69.6447 67.6394 69.8756 67.6136 70.1031C67.4373 71.6938 66.0404 72.8405 64.4994 72.6596C62.9584 72.4775 61.8475 71.0356 62.0228 69.4449C62.1992 67.8542 63.5961 66.7075 65.1371 66.8884C65.8489 66.9728 66.4974 67.3302 66.963 67.8964L66.9953 67.9363L67.6889 67.3669L67.6502 67.3203C67.0383 66.5665 66.1812 66.0914 65.2371 65.9793C63.21 65.7407 61.3722 67.2481 61.141 69.3405C60.9098 71.433 62.3702 73.33 64.3972 73.5687C66.4243 73.8073 68.2621 72.2999 68.4933 70.2075C68.5417 69.7734 68.5169 69.3383 68.4223 68.9154L68.3933 68.7755Z" fill="#92B7C5"/>
<path d="M71.0673 78.8543L70.9478 79.9351L84.1785 81.4939L84.298 80.4132L71.0673 78.8543Z" fill="#91CC4E"/>
<path d="M70.7823 81.4322L70.6628 82.5129L97.1243 85.6307L97.2438 84.5499L70.7823 81.4322Z" fill="#92B7C5"/>
<path d="M70.4972 84.0096L70.3777 85.0903L96.8391 88.2081L96.9586 87.1273L70.4972 84.0096Z" fill="#92B7C5"/>
<path d="M63.3175 82.8338C63.3121 82.8326 63.3078 82.8304 63.3035 82.826L61.5646 80.5682C61.5614 80.5637 61.5593 80.5593 61.5603 80.5537C61.5614 80.5482 61.5636 80.5437 61.5679 80.5393L62.212 80.0098C62.2163 80.0065 62.2217 80.0042 62.2271 80.0054C62.2324 80.0065 62.2367 80.0087 62.24 80.0131L63.4541 81.5894L67.1942 78.5201C67.1985 78.5168 67.2028 78.5146 67.2081 78.5157C67.2135 78.5168 67.2178 78.519 67.2221 78.5234L67.7351 79.1884C67.7383 79.1928 67.7404 79.1984 67.7394 79.2039C67.7383 79.2095 67.7361 79.2139 67.7318 79.2172L63.3315 82.8293C63.3282 82.8326 63.3229 82.8338 63.3175 82.8338Z" fill="#91CC4E"/>
<path d="M67.1381 80.1283L66.3553 80.771C66.3821 80.9975 66.3843 81.2284 66.3585 81.4559C66.1821 83.0466 64.7852 84.1933 63.2442 84.0123C61.7033 83.8303 60.5924 82.3883 60.7677 80.7977C60.944 79.207 62.3409 78.0603 63.8819 78.2412C64.5938 78.3256 65.2423 78.683 65.7079 79.2491L65.7402 79.2891L66.4338 78.7197L66.3951 78.673C65.7832 77.9193 64.9261 77.4442 63.9819 77.3321C61.9549 77.0934 60.1171 78.6009 59.8859 80.6933C59.6547 82.7857 61.115 84.6828 63.1421 84.9215C65.1691 85.1601 67.0069 83.6527 67.2381 81.5603C67.2865 81.1262 67.2618 80.6911 67.1672 80.2682L67.1381 80.1283Z" fill="#92B7C5"/>
<path d="M60.9935 91.7998L60.874 92.8806L71.905 94.1803L72.0245 93.0995L60.9935 91.7998Z" fill="#92B7C5"/>
<path d="M60.7086 94.3777L60.5891 95.4585L81.5516 97.9284L81.6711 96.8476L60.7086 94.3777Z" fill="#92B7C5"/>
<path d="M89.3229 98.7242C89.3175 98.7231 89.3132 98.7209 89.3089 98.7165L87.57 96.4586C87.5668 96.4542 87.5646 96.4498 87.5657 96.4442C87.5668 96.4387 87.5689 96.4342 87.5732 96.4298L88.2174 95.9003C88.2217 95.897 88.2271 95.8947 88.2324 95.8958C88.2378 95.897 88.2421 95.8992 88.2453 95.9036L89.4594 97.4799L93.1995 94.4106C93.2038 94.4073 93.2081 94.4051 93.2135 94.4062C93.2189 94.4073 93.2232 94.4095 93.2275 94.4139L93.7404 95.0789C93.7437 95.0833 93.7458 95.0888 93.7447 95.0944C93.7437 95.0999 93.7415 95.1044 93.7372 95.1077L89.3368 98.7198C89.3325 98.7231 89.3282 98.7242 89.3229 98.7242Z" fill="#91CC4E"/>
<path d="M93.1437 96.0193L92.3609 96.662C92.3878 96.8885 92.3899 97.1194 92.3641 97.3469C92.1878 98.9376 90.7909 100.084 89.2499 99.9033C87.7089 99.7213 86.598 98.2794 86.7733 96.6887C86.9497 95.098 88.3466 93.9513 89.8876 94.1322C90.5994 94.2166 91.2479 94.574 91.7135 95.1401L91.7458 95.1801L92.4394 94.6106L92.4007 94.564C91.7888 93.8114 90.9317 93.3352 89.9876 93.2231C87.9605 92.9844 86.1227 94.4919 85.8915 96.5843C85.6603 98.6767 87.1206 100.574 89.1477 100.812C91.1748 101.051 93.0126 99.5437 93.2438 97.4513C93.2921 97.0172 93.2674 96.5821 93.1728 96.1592L93.1437 96.0193Z" fill="#92B7C5"/>
<path d="M75.7943 35.5907L29.0259 39.2168L33.8246 105.167L80.5931 101.541L75.7943 35.5907Z" fill="#D1D3D4"/>
<path d="M74.6869 34.4486L27.9185 38.0747L32.7172 104.025L79.4856 100.399L74.6869 34.4486Z" fill="white"/>
<path d="M58.5464 44.0454L45.2664 45.0751L45.3453 46.1599L58.6253 45.1302L58.5464 44.0454Z" fill="#91CC4E"/>
<path d="M65.3747 46.118L38.8147 48.1772L38.8936 49.262L65.4536 47.2028L65.3747 46.118Z" fill="#92B7C5"/>
<path d="M58.0832 54.2909L44.8032 55.3206L44.8822 56.4054L58.1622 55.3757L58.0832 54.2909Z" fill="#91CC4E"/>
<path d="M71.5517 55.8488L44.9917 57.9081L45.0706 58.9929L71.6306 56.9336L71.5517 55.8488Z" fill="#92B7C5"/>
<path d="M71.7402 58.435L45.1802 60.4943L45.2591 61.5791L71.8191 59.5198L71.7402 58.435Z" fill="#92B7C5"/>
<path d="M37.9121 60.7312C37.9067 60.7312 37.9013 60.73 37.897 60.7256L35.7796 58.8452C35.7753 58.8407 35.7732 58.8374 35.7732 58.8319C35.7732 58.8263 35.7743 58.8208 35.7775 58.8163L36.3141 58.1725C36.3173 58.1681 36.3227 58.1658 36.3281 58.1658C36.3335 58.1658 36.3378 58.1669 36.3421 58.1703L37.8207 59.4835L40.9371 55.7437C40.9414 55.7393 40.9446 55.7371 40.95 55.7371C40.9554 55.7371 40.9607 55.7382 40.965 55.7426L41.5887 56.2965C41.5931 56.2999 41.5952 56.3054 41.5952 56.311C41.5952 56.3165 41.5941 56.3209 41.5909 56.3254L37.9239 60.7256C37.9218 60.7289 37.9175 60.7312 37.9121 60.7312Z" fill="#91CC4E"/>
<path d="M41.1736 57.3355L40.5219 58.1181C40.5896 58.3357 40.6327 58.561 40.6499 58.7897C40.766 60.387 39.6025 61.7835 38.055 61.9034C36.5076 62.0233 35.1548 60.8222 35.0386 59.2248C34.9225 57.6275 36.086 56.231 37.6335 56.1112C38.3486 56.0557 39.0508 56.2821 39.61 56.7483L39.6487 56.7805L40.2273 56.0867L40.181 56.0479C39.4433 55.4263 38.5142 55.1243 37.5668 55.1987C35.5322 55.3563 34.0009 57.1935 34.1547 59.2937C34.3074 61.3939 36.0871 62.9746 38.1217 62.8158C40.1563 62.6582 41.6876 60.8211 41.5349 58.7209C41.5037 58.2857 41.4005 57.8628 41.2306 57.4654L41.1736 57.3355Z" fill="#92B7C5"/>
<path d="M58.9126 65.6845L45.6326 66.7141L45.7115 67.7989L58.9915 66.7693L58.9126 65.6845Z" fill="#91CC4E"/>
<path d="M72.381 67.2424L45.821 69.3016L45.9 70.3864L72.46 68.3272L72.381 67.2424Z" fill="#92B7C5"/>
<path d="M72.5693 69.8294L46.0093 71.8887L46.0882 72.9735L72.6482 70.9142L72.5693 69.8294Z" fill="#92B7C5"/>
<path d="M38.74 72.1257C38.7346 72.1257 38.7292 72.1246 38.7249 72.1201L36.6075 70.2397C36.6032 70.2353 36.6011 70.2319 36.6011 70.2264C36.6011 70.2208 36.6021 70.2153 36.6054 70.2109L37.142 69.567C37.1452 69.5626 37.1506 69.5604 37.156 69.5604C37.1613 69.5604 37.1656 69.5615 37.1699 69.5648L38.6486 70.878L41.765 67.1383C41.7693 67.1338 41.7725 67.1316 41.7779 67.1316C41.7832 67.1316 41.7886 67.1327 41.7929 67.1371L42.4166 67.6911C42.4209 67.6944 42.4231 67.6999 42.4231 67.7055C42.4231 67.711 42.422 67.7155 42.4188 67.7199L38.7518 72.1201C38.7507 72.1235 38.7464 72.1257 38.74 72.1257Z" fill="#91CC4E"/>
<path d="M42.0027 68.7301L41.351 69.5126C41.4187 69.7302 41.4618 69.9556 41.479 70.1842C41.5951 71.7816 40.4316 73.178 38.8841 73.2979C37.3367 73.4178 35.9839 72.2167 35.8677 70.6194C35.7516 69.022 36.9151 67.6256 38.4626 67.5057C39.1777 67.4502 39.8799 67.6766 40.4391 68.1429L40.4778 68.175L41.0564 67.4813L41.0101 67.4424C40.2724 66.8208 39.3433 66.5189 38.3959 66.5932C36.3613 66.7509 34.83 68.588 34.9838 70.6882C35.1365 72.7884 36.9162 74.3691 38.9508 74.2104C40.9854 74.0527 42.5167 72.2156 42.364 70.1154C42.3328 69.6803 42.2296 69.2573 42.0597 68.8599L42.0027 68.7301Z" fill="#92B7C5"/>
<path d="M59.7419 77.0794L46.4619 78.109L46.5408 79.1938L59.8208 78.1642L59.7419 77.0794Z" fill="#91CC4E"/>
<path d="M73.2104 78.6369L46.6504 80.6962L46.7293 81.781L73.2893 79.7217L73.2104 78.6369Z" fill="#92B7C5"/>
<path d="M73.3989 81.2244L46.8389 83.2837L46.9178 84.3685L73.4778 82.3092L73.3989 81.2244Z" fill="#92B7C5"/>
<path d="M39.5693 83.5202C39.5639 83.5202 39.5586 83.5191 39.5543 83.5147L37.4369 81.6342C37.4326 81.6298 37.4304 81.6265 37.4304 81.6209C37.4304 81.6154 37.4315 81.6098 37.4347 81.6054L37.9713 80.9616C37.9746 80.9571 37.9799 80.9549 37.9853 80.9549C37.9907 80.9549 37.995 80.956 37.9993 80.9593L39.4779 82.2725L42.5943 78.5328C42.5986 78.5283 42.6018 78.5261 42.6072 78.5261C42.6126 78.5261 42.618 78.5272 42.6223 78.5317L43.246 79.0856C43.2503 79.0889 43.2524 79.0945 43.2524 79.1C43.2524 79.1056 43.2514 79.11 43.2481 79.1144L39.5811 83.5147C39.5801 83.5169 39.5747 83.5191 39.5693 83.5202Z" fill="#91CC4E"/>
<path d="M42.832 80.1236L42.1803 80.9062C42.2481 81.1238 42.2911 81.3491 42.3083 81.5778C42.4245 83.1751 41.2609 84.5716 39.7135 84.6915C38.166 84.8113 36.8132 83.6103 36.6971 82.0129C36.5809 80.4156 37.7445 79.0191 39.2919 78.8992C40.007 78.8437 40.7093 79.0702 41.2684 79.5364L41.3072 79.5686L41.8857 78.8748L41.8395 78.836C41.1018 78.2143 40.1726 77.9124 39.2253 77.9868C37.1907 78.1444 35.6594 79.9815 35.8131 82.0817C35.9658 84.1819 37.7456 85.7626 39.7801 85.6039C41.8147 85.4463 43.346 83.6092 43.1933 81.509C43.1622 81.0738 43.0589 80.6509 42.889 80.2535L42.832 80.1236Z" fill="#92B7C5"/>
<path d="M49.9905 91.9175L38.9185 92.776L38.9974 93.8608L50.0694 93.0024L49.9905 91.9175Z" fill="#92B7C5"/>
<path d="M60.1473 93.7312L39.1067 95.3625L39.1856 96.4474L60.2262 94.816L60.1473 93.7312Z" fill="#92B7C5"/>
<path d="M67.9995 94.0969C67.9941 94.0969 67.9887 94.0958 67.9844 94.0913L65.8671 92.2109C65.8627 92.2065 65.8606 92.2031 65.8606 92.1976C65.8606 92.192 65.8617 92.1865 65.8649 92.182L66.4015 91.5382C66.4047 91.5338 66.4101 91.5316 66.4155 91.5316C66.4209 91.5316 66.4252 91.5327 66.4295 91.536L67.9081 92.8492L71.0245 89.1094C71.0288 89.105 71.032 89.1028 71.0374 89.1028C71.0428 89.1028 71.0481 89.1039 71.0524 89.1083L71.6762 89.6622C71.6805 89.6656 71.6826 89.6711 71.6826 89.6767C71.6826 89.6822 71.6815 89.6867 71.6783 89.6911L68.0113 94.0913C68.0092 94.0947 68.0049 94.0969 67.9995 94.0969Z" fill="#91CC4E"/>
<path d="M71.2622 90.7013L70.6105 91.4838C70.6783 91.7014 70.7213 91.9267 70.7385 92.1554C70.8546 93.7528 69.6911 95.1492 68.1436 95.2691C66.5962 95.389 65.2434 94.1879 65.1273 92.5905C65.0111 90.9932 66.1747 89.5968 67.7221 89.4769C68.4372 89.4214 69.1394 89.6478 69.6986 90.114L69.7373 90.1462L70.3159 89.4525L70.2696 89.4136C69.5319 88.792 68.6028 88.4901 67.6554 88.5644C65.6208 88.7221 64.0895 90.5592 64.2433 92.6594C64.396 94.7596 66.1757 96.3403 68.2103 96.1815C70.2449 96.0239 71.7762 94.1868 71.6235 92.0866C71.5923 91.6515 71.4891 91.2285 71.3192 90.8311L71.2622 90.7013Z" fill="#92B7C5"/>
<path d="M88.681 31.5933H41.7812V97.7286H88.681V31.5933Z" fill="#D1D3D4"/>
<path d="M89.7884 30.4512H42.8887V96.5865H89.7884V30.4512Z" fill="white"/>
<path d="M72.997 38.7729H59.6797V39.8608H72.997V38.7729Z" fill="#91CC4E"/>
<path d="M79.6558 41.3668H53.0212V42.4547H79.6558V41.3668Z" fill="#92B7C5"/>
<path d="M71.7916 48.953H58.4744V50.0408H71.7916V48.953Z" fill="#91CC4E"/>
<path d="M85.1089 51.5474H58.4744V52.6352H85.1089V51.5474Z" fill="#92B7C5"/>
<path d="M85.1089 54.1427H58.4744V55.2305H85.1089V54.1427Z" fill="#92B7C5"/>
<path d="M51.2102 53.8164C51.2048 53.8164 51.1995 53.8141 51.1962 53.8097L49.2208 51.7705C49.2165 51.7661 49.2144 51.7617 49.2144 51.7561C49.2144 51.7506 49.2165 51.745 49.2197 51.7417L49.8015 51.1411C49.8058 51.1367 49.8101 51.1356 49.8155 51.1356C49.8209 51.1356 49.8252 51.1378 49.8295 51.1411L51.2092 52.5653L54.5879 49.0776C54.5922 49.0731 54.5965 49.072 54.6019 49.072C54.6073 49.072 54.6127 49.0742 54.6159 49.0787L55.1977 49.6792C55.202 49.6837 55.2041 49.6881 55.2041 49.6936C55.2041 49.6992 55.202 49.7036 55.1987 49.7081L51.2231 53.8119C51.2199 53.8152 51.2156 53.8164 51.2102 53.8164Z" fill="#91CC4E"/>
<path d="M54.7093 50.6828L54.0028 51.4121C54.0545 51.6342 54.0813 51.8628 54.0813 52.0926C54.0813 53.6944 52.8189 54.9965 51.2682 54.9965C49.7164 54.9965 48.455 53.6933 48.455 52.0926C48.455 50.4919 49.7175 49.1887 51.2682 49.1887C51.9855 49.1887 52.6683 49.4685 53.1931 49.9769L53.2296 50.0124L53.8566 49.3652L53.8136 49.323C53.1232 48.6459 52.2188 48.274 51.2682 48.274C49.2282 48.274 47.5679 49.988 47.5679 52.0937C47.5679 54.1995 49.2282 55.9134 51.2682 55.9134C53.3082 55.9134 54.9685 54.1995 54.9685 52.0937C54.9685 51.6564 54.8965 51.2279 54.7556 50.8183L54.7093 50.6828Z" fill="#92B7C5"/>
<path d="M71.7916 60.38H58.4744V61.4678H71.7916V60.38Z" fill="#91CC4E"/>
<path d="M85.1089 62.9739H58.4744V64.0617H85.1089V62.9739Z" fill="#92B7C5"/>
<path d="M85.1089 65.5682H58.4744V66.6561H85.1089V65.5682Z" fill="#92B7C5"/>
<path d="M51.2102 65.2431C51.2048 65.2431 51.1995 65.2409 51.1962 65.2364L49.2208 63.1973C49.2165 63.1929 49.2144 63.1884 49.2144 63.1829C49.2144 63.1773 49.2165 63.1718 49.2197 63.1684L49.8015 62.5679C49.8058 62.5635 49.8101 62.5624 49.8155 62.5624C49.8209 62.5624 49.8252 62.5646 49.8295 62.5679L51.2092 63.9921L54.5879 60.5043C54.5922 60.4999 54.5965 60.4988 54.6019 60.4988C54.6073 60.4988 54.6127 60.501 54.6159 60.5054L55.1977 61.106C55.202 61.1104 55.2041 61.1149 55.2041 61.1204C55.2041 61.126 55.202 61.1304 55.1987 61.1348L51.2231 65.2387C51.2199 65.2409 51.2156 65.2431 51.2102 65.2431Z" fill="#91CC4E"/>
<path d="M54.7093 62.1084L54.0028 62.8377C54.0545 63.0597 54.0813 63.2884 54.0813 63.5181C54.0813 65.1199 52.8189 66.422 51.2682 66.422C49.7164 66.422 48.455 65.1188 48.455 63.5181C48.455 61.9175 49.7175 60.6143 51.2682 60.6143C51.9855 60.6143 52.6683 60.894 53.1931 61.4024L53.2296 61.4379L53.8566 60.7908L53.8136 60.7486C53.1232 60.0715 52.2188 59.6996 51.2682 59.6996C49.2282 59.6996 47.5679 61.4135 47.5679 63.5192C47.5679 65.625 49.2282 67.3389 51.2682 67.3389C53.3082 67.3389 54.9685 65.625 54.9685 63.5192C54.9685 63.0819 54.8965 62.6534 54.7556 62.2438L54.7093 62.1084Z" fill="#92B7C5"/>
<path d="M71.7916 71.8065H58.4744V72.8944H71.7916V71.8065Z" fill="#91CC4E"/>
<path d="M85.1089 74.4009H58.4744V75.4887H85.1089V74.4009Z" fill="#92B7C5"/>
<path d="M85.1089 76.9952H58.4744V78.0831H85.1089V76.9952Z" fill="#92B7C5"/>
<path d="M51.2102 76.6702C51.2048 76.6702 51.1995 76.668 51.1962 76.6636L49.2208 74.6244C49.2165 74.62 49.2144 74.6155 49.2144 74.61C49.2144 74.6044 49.2165 74.5989 49.2197 74.5956L49.8015 73.995C49.8058 73.9906 49.8101 73.9895 49.8155 73.9895C49.8209 73.9895 49.8252 73.9917 49.8295 73.995L51.2092 75.4192L54.5879 71.9315C54.5922 71.927 54.5965 71.9259 54.6019 71.9259C54.6073 71.9259 54.6127 71.9281 54.6159 71.9326L55.1977 72.5331C55.202 72.5375 55.2041 72.542 55.2041 72.5475C55.2041 72.5531 55.202 72.5575 55.1987 72.562L51.2231 76.6658C51.2199 76.668 51.2156 76.6702 51.2102 76.6702Z" fill="#91CC4E"/>
<path d="M54.7093 73.5354L54.0028 74.2647C54.0545 74.4867 54.0813 74.7154 54.0813 74.9451C54.0813 76.5469 52.8189 77.849 51.2682 77.849C49.7164 77.849 48.455 76.5458 48.455 74.9451C48.455 73.3433 49.7175 72.0413 51.2682 72.0413C51.9855 72.0413 52.6683 72.321 53.1931 72.8294L53.2296 72.8649L53.8566 72.2178L53.8136 72.1756C53.1232 71.4985 52.2188 71.1266 51.2682 71.1266C49.2282 71.1266 47.5679 72.8405 47.5679 74.9462C47.5679 77.052 49.2282 78.7659 51.2682 78.7659C53.3082 78.7659 54.9685 77.052 54.9685 74.9462C54.9685 74.5089 54.8965 74.0804 54.7556 73.6708L54.7093 73.5354Z" fill="#92B7C5"/>
<path d="M60.9918 85.8488H49.8887V86.9366H60.9918V85.8488Z" fill="#92B7C5"/>
<path d="M70.9883 88.4426H49.8887V89.5305H70.9883V88.4426Z" fill="#92B7C5"/>
<path d="M78.7934 89.4142C78.788 89.4142 78.7826 89.412 78.7794 89.4076L76.804 87.3684C76.7997 87.364 76.7986 87.3596 76.7986 87.354C76.7986 87.3485 76.8007 87.3429 76.804 87.3396L77.3857 86.739C77.39 86.7346 77.3943 86.7335 77.3997 86.7335C77.4051 86.7335 77.4094 86.7357 77.4137 86.739L78.7934 88.1632L82.1722 84.6755C82.1765 84.671 82.1808 84.6699 82.1862 84.6699C82.1915 84.6699 82.1969 84.6721 82.2001 84.6766L82.7819 85.2771C82.7862 85.2816 82.7884 85.286 82.7884 85.2915C82.7884 85.2971 82.7862 85.3015 82.783 85.306L78.8074 89.4098C78.8031 89.412 78.7988 89.4142 78.7934 89.4142Z" fill="#91CC4E"/>
<path d="M82.2926 86.2792L81.5861 87.0085C81.6377 87.2305 81.6646 87.4591 81.6646 87.6889C81.6646 89.2907 80.4021 90.5928 78.8514 90.5928C77.2997 90.5928 76.0383 89.2896 76.0383 87.6889C76.0383 86.0882 77.3008 84.785 78.8514 84.785C79.5687 84.785 80.2516 85.0648 80.7763 85.5732L80.8129 85.6087L81.4398 84.9615L81.3968 84.9194C80.7064 84.2422 79.8021 83.8704 78.8514 83.8704C76.8115 83.8704 75.1511 85.5843 75.1511 87.69C75.1511 89.7958 76.8115 91.5097 78.8514 91.5097C80.8914 91.5097 82.5518 89.7958 82.5518 87.69C82.5518 87.2527 82.4797 86.8242 82.3388 86.4146L82.2926 86.2792Z" fill="#92B7C5"/>
</svg>
