<svg width="134" height="139" viewBox="0 0 134 139" fill="none" xmlns="http://www.w3.org/2000/svg">
<path d="M66.8269 138.931C103.734 138.931 133.654 107.83 133.654 69.4656C133.654 31.1008 103.734 0 66.8269 0C29.9194 0 0 31.1008 0 69.4656C0 107.83 29.9194 138.931 66.8269 138.931Z" fill="#A7DBDB"/>
<path d="M91.0817 74.4816C87.0144 77.7637 86.3129 83.798 89.5157 87.9661C92.7186 92.1341 98.6141 92.853 102.681 89.5709C106.749 86.2887 107.45 80.2472 104.247 76.0863C101.045 71.9183 95.1491 71.1994 91.0817 74.4816ZM99.9321 85.991C97.7921 87.7192 94.6956 87.3416 93.0091 85.1486C91.3226 82.9557 91.6911 79.7824 93.8311 78.0542C95.971 76.326 99.0676 76.7036 100.754 78.8965C102.433 81.0895 102.065 84.27 99.9321 85.991Z" fill="#DAE2F2"/>
<path d="M94.1426 74.8513L90.8264 77.5308C90.8264 77.5308 88.1762 75.2798 88.2967 74.2341C88.4243 73.1594 90.5855 71.315 91.6129 71.5546C92.605 71.787 94.1426 74.8513 94.1426 74.8513Z" fill="#DAE2F2"/>
<path d="M102.787 86.7673L99.4709 89.4467C99.4709 89.4467 100.987 92.62 102.001 92.7434C103.049 92.8741 105.303 91.1459 105.317 90.064C105.338 89.0111 102.787 86.7673 102.787 86.7673Z" fill="#DAE2F2"/>
<path d="M89.7281 79.1139L89.7635 83.4417C89.7635 83.4417 86.4047 84.2114 85.6749 83.478C84.9238 82.7228 84.8246 79.84 85.6395 79.1502C86.426 78.4821 89.7281 79.1139 89.7281 79.1139Z" fill="#DAE2F2"/>
<path d="M90.3799 85.2351L92.4135 89.0256C92.4135 89.0256 89.813 91.342 88.8281 91.0515C87.8148 90.7466 86.3905 88.2631 86.7873 87.2611C87.1841 86.2808 90.3799 85.2351 90.3799 85.2351Z" fill="#DAE2F2"/>
<path d="M103.985 79.3829L101.505 75.8756C101.505 75.8756 103.808 73.2542 104.821 73.414C105.863 73.5883 107.57 75.8756 107.294 76.9213C107.032 77.9306 103.985 79.3829 103.985 79.3829Z" fill="#DAE2F2"/>
<path d="M95.6448 74.1619L99.7405 75.2148C99.7405 75.2148 101.264 72.0488 100.74 71.1484C100.194 70.219 97.4872 69.442 96.644 70.0955C95.822 70.7273 95.6448 74.1619 95.6448 74.1619Z" fill="#DAE2F2"/>
<path d="M97.6788 90.4999L93.5831 89.447C93.5831 89.447 92.0596 92.613 92.591 93.5134C93.1367 94.4428 95.8435 95.2198 96.6867 94.5663C97.5016 93.9418 97.6788 90.4999 97.6788 90.4999Z" fill="#DAE2F2"/>
<path d="M104.389 85.2647L104.354 80.9369C104.354 80.9369 107.72 80.1672 108.442 80.9006C109.193 81.6558 109.293 84.5386 108.478 85.2284C107.684 85.8965 104.389 85.2647 104.389 85.2647Z" fill="#DAE2F2"/>
<path d="M46.3195 89.7963C46.8013 90.6241 46.5462 91.6915 45.7384 92.1853C44.9306 92.6791 43.889 92.4177 43.4071 91.5899L28.477 66.153C27.9952 65.3252 28.2503 64.2578 29.0581 63.7567C29.8659 63.263 30.9075 63.5244 31.3894 64.3522L46.3195 89.7963Z" fill="#5F82D6"/>
<path d="M27.7757 58.1944L30.1424 62.239L27.23 64.0326L24.8562 59.9879C23.7933 61.4475 23.6375 63.4662 24.6011 65.1218C25.8837 67.3002 28.6472 68.0046 30.773 66.6975C32.8988 65.3832 33.5932 62.5512 32.3107 60.3728C31.347 58.7172 29.533 57.9184 27.7757 58.1944Z" fill="#5F82D6"/>
<path d="M31.0351 72.5862C27.4354 73.5592 25.2884 77.3352 26.2379 81.024C27.1874 84.7128 30.8792 86.913 34.4788 85.94C38.0785 84.967 40.2255 81.1838 39.276 77.5022C38.3265 73.8134 34.6347 71.6132 31.0351 72.5862ZM33.6639 82.7813C31.772 83.2968 29.8304 82.135 29.3344 80.1962C28.8384 78.2574 29.9651 76.2678 31.857 75.7595C33.749 75.2512 35.6905 76.4057 36.1866 78.3445C36.6826 80.2833 35.5559 82.2657 33.6639 82.7813Z" fill="#FFDA89"/>
<path d="M32.9482 73.7333L30.0076 74.5248C30.0076 74.5248 28.888 72.2592 29.2565 71.6057C29.6391 70.9304 31.5806 70.3495 32.1971 70.8142C32.7923 71.2644 32.9482 73.7333 32.9482 73.7333Z" fill="#FFDA89"/>
<path d="M35.3364 84.1244L32.3958 84.9159C32.3958 84.9159 32.5091 87.4501 33.1469 87.835C33.8059 88.2271 35.7757 87.7479 36.0875 87.0362C36.3851 86.3537 35.3364 84.1244 35.3364 84.1244Z" fill="#FFDA89"/>
<path d="M28.8527 75.2508L27.6694 78.1191C27.6694 78.1191 25.2318 77.6398 24.9555 76.9427C24.672 76.2239 25.409 74.2923 26.1388 74.0745C26.8474 73.8711 28.8527 75.2508 28.8527 75.2508Z" fill="#FFDA89"/>
<path d="M27.5707 79.477L27.8541 82.5776C27.8541 82.5776 25.4945 83.3401 24.9276 82.8608C24.3395 82.367 24.0985 80.3048 24.6442 79.7602C25.1685 79.2374 27.5707 79.477 27.5707 79.477Z" fill="#FFDA89"/>
<path d="M38.1849 79.6007L37.5259 76.5581C37.5259 76.5581 39.7792 75.498 40.4028 75.9046C41.0405 76.3258 41.5294 78.3372 41.0547 78.9471C40.6012 79.5426 38.1849 79.6007 38.1849 79.6007Z" fill="#FFDA89"/>
<path d="M34.1389 73.7193L36.5481 75.6145C36.5481 75.6145 38.433 73.9662 38.3409 73.2255C38.2417 72.4558 36.6686 71.1487 35.9317 71.3303C35.216 71.5045 34.1389 73.7193 34.1389 73.7193Z" fill="#FFDA89"/>
<path d="M30.9218 85.0971L28.5126 83.2019C28.5126 83.2019 26.6277 84.8503 26.7198 85.5909C26.819 86.3606 28.3921 87.6677 29.129 87.4862C29.8447 87.3119 30.9218 85.0971 30.9218 85.0971Z" fill="#FFDA89"/>
<path d="M36.8032 83.6087L37.9866 80.7404C37.9866 80.7404 40.4241 81.2197 40.7005 81.9168C40.9839 82.6357 40.247 84.5672 39.5171 84.785C38.8085 84.9884 36.8032 83.6087 36.8032 83.6087Z" fill="#FFDA89"/>
<path d="M73.3878 33.7669C66.8475 35.5387 62.9502 42.4007 64.6721 49.103C66.4011 55.8054 73.0973 59.7992 79.6376 58.0346C86.178 56.2628 90.0753 49.4008 88.3534 42.6984C86.6244 35.9961 79.9282 31.9951 73.3878 33.7669ZM78.1567 52.2763C74.72 53.2058 71.1912 51.0999 70.2842 47.5781C69.3772 44.0563 71.425 40.4401 74.8688 39.5107C78.3055 38.5812 81.8272 40.687 82.7413 44.2088C83.6483 47.7379 81.5934 51.3468 78.1567 52.2763Z" fill="#FFDA89"/>
<path d="M76.8671 35.8362L71.5314 37.2813C71.5314 37.2813 69.4906 33.164 70.1708 31.9804C70.8653 30.7605 74.3941 29.7003 75.5066 30.5354C76.5766 31.3487 76.8671 35.8362 76.8671 35.8362Z" fill="#FFDA89"/>
<path d="M81.1967 54.7301L75.8609 56.1751C75.8609 56.1751 76.0735 60.7862 77.2285 61.476C78.419 62.1876 81.9974 61.3235 82.5642 60.031C83.1099 58.7747 81.1967 54.7301 81.1967 54.7301Z" fill="#FFDA89"/>
<path d="M69.4197 38.6025L67.2727 43.8089C67.2727 43.8089 62.8511 42.9448 62.348 41.6741C61.8307 40.367 63.1699 36.8525 64.5021 36.4676C65.7776 36.09 69.4197 38.6025 69.4197 38.6025Z" fill="#FFDA89"/>
<path d="M67.0954 46.2853L67.6127 51.9202C67.6127 51.9202 63.3186 53.3071 62.2911 52.4357C61.2283 51.5353 60.7818 47.7957 61.7739 46.8009C62.7305 45.8423 67.0954 46.2853 67.0954 46.2853Z" fill="#FFDA89"/>
<path d="M86.3763 46.5103L85.1859 40.9916C85.1859 40.9916 89.2816 39.0745 90.4082 39.8079C91.5703 40.5704 92.4632 44.2302 91.5987 45.3339C90.7625 46.4013 86.3763 46.5103 86.3763 46.5103Z" fill="#FFDA89"/>
<path d="M79.0211 35.8215L83.4002 39.2634C83.4002 39.2634 86.8298 36.2717 86.6526 34.9138C86.4755 33.5123 83.6128 31.1379 82.2735 31.4719C80.9768 31.7914 79.0211 35.8215 79.0211 35.8215Z" fill="#FFDA89"/>
<path d="M73.1756 56.4876L68.7965 53.0457C68.7965 53.0457 65.3669 56.0301 65.5441 57.3953C65.7212 58.7967 68.5839 61.1712 69.9232 60.8372C71.2199 60.5177 73.1756 56.4876 73.1756 56.4876Z" fill="#FFDA89"/>
<path d="M83.868 53.7793L86.0221 48.5728C86.0221 48.5728 90.4438 49.4369 90.9469 50.7077C91.4641 52.0147 90.1249 55.5293 88.7927 55.9141C87.5031 56.2917 83.868 53.7793 83.868 53.7793Z" fill="#FFDA89"/>
<path d="M73.5295 81.3872H55.9351V93.2234H73.5295V81.3872Z" fill="#4E49A3"/>
<path d="M91.6554 44.4264H88.3888H37.9864C36.4771 44.4264 35.2583 45.6754 35.2583 47.222V79.3322H38.284H91.3436H94.3764V47.222C94.3835 45.6754 93.1647 44.4264 91.6554 44.4264Z" fill="#4E49A3"/>
<path d="M91.6554 90.0428H88.3888H37.9864C36.4771 90.0428 35.2583 88.7939 35.2583 87.2472V79.325H94.3835V87.2472C94.3835 88.7939 93.1647 90.0428 91.6554 90.0428Z" fill="#5F82D6"/>
<path d="M86.7875 93.2236H38.2488V95.9757H86.7875V93.2236Z" fill="#5F82D6"/>
<path d="M91.8609 47.3672H37.2708V79.3248H91.8609V47.3672Z" fill="#EAF0FE"/>
<path d="M104.92 56.9088C104.92 63.6183 96.8068 67.3289 90.2594 67.3289C83.7119 67.3289 78.9573 63.5239 78.9573 56.8144C78.9573 50.1048 84.5623 46.445 91.1097 46.445C97.6571 46.445 104.92 50.1992 104.92 56.9088Z" fill="#FFDA89"/>
<path d="M80.2893 70.4734L84.6047 65.1072L80.9483 59.7337L80.2893 70.4734Z" fill="#FFDA89"/>
<path d="M68.6544 46.6844L67.9033 46.4593L68.7607 45.5589L71.8927 46.6699L68.6544 46.6844Z" fill="#F0C542"/>
<path d="M68.5845 47.9332L71.8936 46.6698L68.6766 46.2341L68.5845 47.9332Z" fill="#FAD77E"/>
<path d="M71.8925 46.67L68.7251 45.7914L68.966 44.252L71.8925 46.67Z" fill="#FAD784"/>
<path d="M67.9033 46.4594L68.6757 46.2341L68.6544 46.6847L67.9033 46.4594Z" fill="#DBAB33"/>
<path d="M73.0973 52.494C73.0973 54.2005 71.7509 55.5802 70.0857 55.5802C68.4276 55.5802 67.0742 54.2005 67.0742 52.494V49.5532C67.0742 47.8467 68.4206 46.467 70.0857 46.467C71.7439 46.467 73.0973 47.8467 73.0973 49.5532V52.494Z" fill="#5F82D6"/>
<path d="M57.0618 53.7061C57.3169 59.7331 60.619 64.5111 64.4383 64.3731C68.2576 64.2352 71.1416 59.2393 70.8865 53.2123C70.6243 47.178 67.3223 42.4 63.51 42.5379C59.6978 42.6759 56.8067 47.6718 57.0618 53.7061Z" fill="#FFC190"/>
<path d="M69.9797 47.9336C69.9797 47.9336 66.295 48.5508 59.9531 46.0964C59.9531 46.0964 55.078 50.8672 58.2808 58.3465C58.2808 58.3465 53.6112 54.0114 55.9141 46.4522C58.217 38.8931 62.9859 40.309 65.5723 39.3796C68.1586 38.4501 71.0709 40.113 72.9771 38.3484C74.8478 36.5984 75.5068 43.3734 69.9797 47.9336Z" fill="#2E3B57"/>
<path d="M55.7934 53.656C55.8359 55.3044 56.5587 56.6114 57.409 56.5679C58.2593 56.5243 58.9042 55.1446 58.8616 53.4963C58.8191 51.8407 58.0893 50.5409 57.246 50.5844C56.3957 50.628 55.7438 52.0004 55.7934 53.656Z" fill="#FFC190"/>
<path d="M63.5099 65.6441C55.4532 65.6441 48.6932 73.3267 46.8013 83.7033H80.2115C78.3338 73.3195 71.5667 65.6441 63.5099 65.6441Z" fill="#C86277"/>
<path d="M66.4435 68.4837L63.9776 71.49L61.5117 68.4837V62.798H66.4435V68.4837Z" fill="#FFC190"/>
<path d="M58.9466 52.9151C58.9466 54.6215 57.6003 56.0012 55.9351 56.0012C54.277 56.0012 52.9236 54.6215 52.9236 52.9151V49.9742C52.9236 48.2677 54.2699 46.8881 55.9351 46.8881C57.6003 46.8881 58.9466 48.2677 58.9466 49.9742V52.9151Z" fill="#5F82D6"/>
<path d="M64.8422 39.2427H60.123C57.2248 39.2427 54.8723 41.6535 54.8723 44.6235V47.942H56.3745V45.1753C56.3745 42.7936 58.2594 40.862 60.5836 40.862H64.3746C66.6988 40.862 68.5836 42.7936 68.5836 45.1753V47.942H70.0859V44.6235C70.0929 41.6463 67.7404 39.2427 64.8422 39.2427Z" fill="#5F82D6"/>
<path d="M61.5116 43.0899C61.5116 43.0899 63.3114 39.5899 65.7065 39.3357C68.1015 39.0816 70.7942 39.6334 71.8854 38.9872C72.9767 38.3409 74.5639 37.0556 74.3301 39.3357C74.0962 41.6158 74.9749 46.7714 70.2769 49.3492C70.2769 49.3492 61.5683 49.1895 59.9527 46.0961L61.5116 43.0899Z" fill="#2E3B57"/>
<path d="M68.4704 59.5444C68.4704 60.1399 67.9956 60.6264 67.4146 60.6264H66.3588C65.7777 60.6264 65.303 60.1399 65.303 59.5444C65.303 58.9417 65.7777 58.4625 66.3588 58.4625H67.4146C67.9956 58.4625 68.4704 58.9417 68.4704 59.5444Z" fill="#5F82D6"/>
<path d="M68.931 60.2851C68.2295 60.2851 67.4925 60.227 66.7981 60.1471L66.954 58.7021C68.6546 58.8982 70.4757 58.8255 70.8583 58.5496C71.3898 56.8504 70.8371 54.81 70.83 54.7882L72.1905 54.3888C72.2188 54.4905 72.8849 56.9376 72.1834 59.0724C71.8858 60.0092 70.497 60.2851 68.931 60.2851Z" fill="#5F82D6"/>
</svg>
