<svg width="136" height="136" viewBox="0 0 136 136" fill="none" xmlns="http://www.w3.org/2000/svg">
<path d="M68.0005 136C105.556 136 136 105.555 136 68C136 30.4446 105.556 0 68.0005 0C30.4451 0 0.000488281 30.4446 0.000488281 68C0.000488281 105.555 30.4451 136 68.0005 136Z" fill="#69D2E7"/>
<circle cx="68.0005" cy="68" r="61" stroke="white" stroke-width="2"/>
<path d="M112.075 67.693C112.075 92.6673 92.4559 112.886 68.2876 112.886C44.1192 112.886 24.5005 92.6673 24.5005 67.693C24.5005 42.7188 44.1192 22.5 68.2876 22.5C92.4559 22.5 112.075 42.7188 112.075 67.693Z" fill="#F0F0F0" stroke="black"/>
<path d="M51.1015 85.3787C51.471 85.7602 51.8342 86.2615 52.1897 86.8825L51.2324 87.8768L50.8816 87.5147C51.0407 87.2529 51.1389 87.019 51.1779 86.8129C51.2184 86.6096 51.2013 86.4119 51.1311 86.2197C51.0641 86.0304 50.9269 85.8326 50.7289 85.6293C50.4545 85.3453 50.1738 85.2032 49.8823 85.1977C49.5954 85.1949 49.3148 85.3341 49.0435 85.6182C48.8689 85.7992 48.7519 85.983 48.6958 86.1696C48.6366 86.3534 48.6241 86.5762 48.6584 86.8269C48.6911 87.0803 48.78 87.4228 48.9234 87.8601C49.0622 88.2834 49.1479 88.6426 49.176 88.9406C49.2088 89.2386 49.1869 89.5088 49.1137 89.7483C49.0419 89.985 48.9141 90.1994 48.7364 90.3832C48.4744 90.6534 48.1876 90.826 47.8711 90.8984C47.5561 90.9708 47.2272 90.9374 46.8842 90.801C46.5412 90.6617 46.2153 90.4361 45.9097 90.1214C45.7305 89.9376 45.5668 89.7483 45.4155 89.5533C45.2659 89.3584 45.0944 89.0966 44.9026 88.7652L45.8458 87.7849L46.1951 88.1441C46.0407 88.4115 45.9518 88.6482 45.9207 88.8515C45.8879 89.0548 45.9035 89.2358 45.969 89.3974C46.0329 89.5589 46.1545 89.7315 46.3291 89.9126C46.4819 90.0713 46.6456 90.1827 46.8234 90.2496C46.998 90.3136 47.1788 90.3247 47.3628 90.2802C47.5468 90.2356 47.7152 90.1326 47.8711 89.9711C48.0379 89.7984 48.147 89.6229 48.2 89.4447C48.2546 89.2637 48.2671 89.0576 48.239 88.8237C48.2109 88.5897 48.133 88.2834 48.0036 87.9018C47.8539 87.4395 47.7588 87.0552 47.7214 86.7517C47.6855 86.4481 47.7027 86.164 47.7744 85.8967C47.8461 85.6321 47.9911 85.387 48.2094 85.1587C48.4542 84.9052 48.7005 84.7298 48.9468 84.6323C49.1916 84.5348 49.4379 84.5042 49.6796 84.5348C49.9228 84.5683 50.166 84.6574 50.4046 84.8022C50.6431 84.9554 50.877 85.1475 51.1015 85.3787Z" fill="#2B314A"/>
<path d="M92.877 88.529L89.6123 91.9183L88.5506 90.8238L88.892 90.4701C89.0417 90.5509 89.1789 90.6177 89.3036 90.6679C89.4268 90.718 89.539 90.7514 89.6372 90.7737C89.7339 90.7932 89.8259 90.796 89.9085 90.782C89.9896 90.7709 90.0722 90.7347 90.1502 90.6818C90.2266 90.6261 90.3123 90.5537 90.4027 90.459L91.5081 89.3116L89.6653 87.4123L88.9169 88.1893C88.8156 88.2951 88.7501 88.3926 88.7189 88.4845C88.6909 88.5736 88.694 88.6766 88.7236 88.788C88.7579 88.8994 88.8312 89.0526 88.945 89.242L88.616 89.5817L87.2659 88.1893L87.5948 87.8495C87.7663 87.9609 87.9098 88.0333 88.022 88.0667C88.1343 88.0974 88.2309 88.1001 88.3183 88.0751C88.4024 88.05 88.4991 87.9804 88.6082 87.8662L89.3566 87.0892L87.3282 84.9977L86.2416 86.1256C86.1262 86.2454 86.0436 86.3512 85.9937 86.4459C85.9438 86.5406 85.9157 86.6381 85.9126 86.7411C85.9079 86.8441 85.9266 86.9555 85.9625 87.0753C86.0015 87.1978 86.0482 87.3148 86.1075 87.4262C86.1621 87.5404 86.2478 87.7019 86.3601 87.9163L86.0155 88.2756L84.8462 86.9333L88.0797 83.5774L88.2528 83.7556C88.1452 83.945 88.0906 84.087 88.086 84.1817C88.0828 84.282 88.1171 84.3822 88.1857 84.4853C88.2543 84.5883 88.3759 84.7276 88.5506 84.9058L91.5923 88.0444C91.7529 88.2088 91.8761 88.3257 91.9618 88.3898C92.0476 88.4538 92.124 88.4928 92.191 88.5067C92.2596 88.5207 92.3282 88.5179 92.3968 88.4984C92.4654 88.4761 92.5683 88.4288 92.7055 88.348L92.877 88.529Z" fill="#2B314A"/>
<path d="M49.4083 40.3692C49.3615 40.4666 49.3319 40.553 49.3194 40.6282C49.3069 40.7006 49.3069 40.7841 49.3178 40.876C49.3319 40.9651 49.3646 41.0905 49.427 41.2464C49.4862 41.4052 49.5751 41.6057 49.6936 41.8507L52.2162 47.0837L51.7172 47.6017L46.8249 44.5521L49.6359 49.7656L49.0699 50.3532L44.2352 47.4708C44.0326 47.3482 43.8642 47.2563 43.7285 47.1895C43.5929 47.1226 43.4791 47.0753 43.3855 47.0502C43.2936 47.028 43.2125 47.0224 43.1439 47.0335C43.0737 47.0447 42.9895 47.0809 42.8898 47.1394L42.7183 46.9611L44.215 45.4071L44.3865 45.5854C44.2695 45.7636 44.2119 45.914 44.2119 46.0309C44.2119 46.1479 44.2602 46.2593 44.3615 46.3624C44.4442 46.4459 44.5502 46.5378 44.6858 46.6325C44.8183 46.7272 44.9742 46.8274 45.1551 46.9361L48.6334 49.0721L45.7725 43.7919L46.3587 43.1847L51.262 46.354L49.4051 42.7308C49.1791 42.2908 48.9967 41.9983 48.8595 41.8563C48.716 41.7087 48.5835 41.6335 48.4603 41.628C48.3372 41.6252 48.1969 41.6809 48.0332 41.8006L47.8617 41.6224L49.2399 40.1909L49.4083 40.3692Z" fill="#2B314A"/>
<path d="M67.1019 65.6118L66.1649 66.7759L55.6411 53.7925L67.1019 65.6118Z" fill="#2B314A"/>
<path d="M65.0161 65.6338L65.9281 66.7617H52.8787L65.0161 65.6338Z" fill="#2B314A"/>
<path d="M68.7063 50.6399L69.832 63.2028L68.7468 64.1441L68.7063 50.6399Z" fill="#2B314A"/>
<path d="M81.2475 53.5417L69.8616 65.3611L68.7344 64.3891L81.2475 53.5417Z" fill="#2B314A"/>
<path d="M84.3361 67.0711L72.1987 68.1935L71.2866 67.0684L84.3361 67.0711Z" fill="#2B314A"/>
<path d="M70.0193 65.7842L81.5736 80.0347L68.8921 66.9539L70.0193 65.7842Z" fill="#2B314A"/>
<path d="M68.4806 69.4407L55.969 80.2881L67.3549 68.4688L68.4806 69.4407Z" fill="#2B314A"/>
<path d="M68.4679 69.686L68.51 83.1874L67.3828 70.6273L68.4679 69.686Z" fill="#2B314A"/>
<path d="M87.6872 66.9148H71.1626L72.307 65.4917L87.6872 66.9148Z" fill="#C4C4C4"/>
<path d="M69.9953 65.4745L68.6077 66.9143L67.2123 65.4745L67.0361 65.2935L53.0278 50.8452L67.2201 63.0823L68.5999 64.2714L68.7355 64.3884L69.8627 65.3603L69.9953 65.4745Z" fill="#C4C4C4"/>
<path d="M87.6872 66.9141L72.3163 68.3372L72.1994 68.1924L84.3368 67.07L71.2873 67.0672L71.1626 66.9141H87.6872Z" fill="#C4C4C4"/>
<path d="M72.3165 68.3375L84.1888 82.9836L68.6074 66.9144L69.995 65.4746L71.1627 66.9144L71.2875 67.0676L72.1995 68.1927L72.3165 68.3375ZM70.0199 65.7837L68.8927 66.9534L81.5743 80.0315L70.0199 65.7837Z" fill="#C4C4C4"/>
<path d="M68.6074 66.9141L67.2214 68.3539L67.3555 68.4681L55.9695 80.2874L68.4811 69.44L68.6168 69.557L68.4687 69.6851L67.3835 70.6264L67.2432 70.7461L53.1289 82.9832L68.6074 66.9141Z" fill="#C4C4C4"/>
<path d="M69.9965 70.7468L68.6697 86.6544L68.6167 69.5576L69.9965 70.7468Z" fill="#C4C4C4"/>
<path d="M69.9717 63.0823L69.833 63.202L68.7073 50.6391L68.7478 64.1433L68.5997 64.2714L68.5452 47.1719L69.9717 63.0823Z" fill="#C4C4C4"/>
<path d="M68.5452 47.1719L68.5998 64.2714L67.22 63.0823L68.5452 47.1719Z" fill="#C4C4C4"/>
<path d="M84.0872 50.8452L70.1709 65.2935L69.9947 65.4745L69.8622 65.3603L81.2481 53.541L68.735 64.3884L68.5994 64.2714L68.7475 64.1433L69.8326 63.202L69.9713 63.0823L84.0872 50.8452Z" fill="#C4C4C4"/>
<path d="M84.0875 50.8452L72.3071 65.4912L71.1627 66.9143L69.995 65.4745L68.6074 66.9143L69.995 65.4745L70.1712 65.2935L84.0875 50.8452Z" fill="#C4C4C4"/>
<path d="M67.2123 65.4745L67.1032 65.611L55.6424 53.7917L66.1662 66.7751L66.0539 66.9143L65.9292 66.7612L65.0171 65.6333L64.9002 65.4912L53.0278 50.8452L67.0361 65.2935L67.2123 65.4745Z" fill="#C4C4C4"/>
<path d="M64.8997 65.4917L65.0167 65.6337L52.8793 66.7616H65.9287L66.0535 66.9148H49.5288L64.8997 65.4917Z" fill="#C4C4C4"/>
<path d="M66.0535 66.9141L64.9075 68.3372L49.5288 66.9141H66.0535Z" fill="#C4C4C4"/>
<path d="M84.1889 82.9832L69.9966 70.7461L68.6168 69.557L68.4812 69.44L67.3555 68.4681L67.2214 68.3539L68.6075 66.9141L84.1889 82.9832Z" fill="#C4C4C4"/>
<path d="M68.6074 66.9144L53.1289 82.9836L64.9077 68.3375L66.0536 66.9144L66.1659 66.7752L67.1029 65.6111L67.212 65.4746L68.6074 66.9144Z" fill="#C4C4C4"/>
<path d="M68.617 69.5576L68.67 86.6544L67.2434 70.7468L67.3837 70.627L68.5109 83.1871L68.4688 69.6857L68.617 69.5576Z" fill="#C4C4C4"/>
<path d="M97.2452 38.3301L97.2437 39.1823L92.582 44.0197L92.5836 43.1703L97.2452 38.3301Z" fill="#C5C5C5"/>
<path d="M92.5836 43.1701L92.5821 44.0195L91.6279 43.0364L91.6295 42.187L92.5836 43.1701Z" fill="#898989"/>
<path d="M97.2459 38.3303L92.5843 43.1705L91.6301 42.1874L96.2918 37.3472L97.2459 38.3303Z" fill="white"/>
<path d="M85.902 29.8359L85.9004 30.6881L83.1252 36.8902L83.1268 36.038L85.902 29.8359Z" fill="#B7B7B7"/>
<path d="M83.1268 36.0383L83.1252 36.8905L81.906 36.3029V35.4507L83.1268 36.0383Z" fill="#9B9B9B"/>
<path d="M85.9017 29.8362L83.1265 36.0382L81.9058 35.4506L84.6809 29.2485L85.9017 29.8362Z" fill="white"/>
<path d="M72.4481 25.8628L72.4465 26.715L71.8931 33.5297L71.8946 32.6776L72.4481 25.8628Z" fill="#9A9A9A"/>
<path d="M71.8948 32.6769L71.8932 33.5291L70.554 33.4093V32.5571L71.8948 32.6769Z" fill="#AEAEAE"/>
<path d="M72.4487 25.8618L71.8952 32.6766L70.5544 32.5568L71.111 25.7393L72.4487 25.8618Z" fill="white"/>
<path d="M60.2409 33.49L60.2393 34.3422L58.9421 34.7042L58.9437 33.852L60.2409 33.49Z" fill="#BDBDBD"/>
<path d="M58.9434 33.8529L58.9418 34.7051L57.2097 28.0936V27.2415L58.9434 33.8529Z" fill="#808080"/>
<path d="M58.5087 26.8813L60.2408 33.49L58.9437 33.8521L57.21 27.2406L58.5087 26.8813Z" fill="white"/>
<path d="M49.5721 38.3799L49.5706 39.2321L48.4714 40.0286L48.473 39.1764L49.5721 38.3799Z" fill="#C5C5C5"/>
<path d="M48.4731 39.1766L48.4715 40.0288L44.6611 34.4227L44.6627 33.5706L48.4731 39.1766Z" fill="#828282"/>
<path d="M45.759 32.7744L49.5709 38.3805L48.4718 39.177L44.6614 33.5709L45.759 32.7744Z" fill="white"/>
<path d="M41.1749 46.7546L41.1733 47.6068L40.4062 48.7459L40.4078 47.8937L41.1749 46.7546Z" fill="#C0C0C0"/>
<path d="M40.4075 47.8937L40.4059 48.7459L34.9741 44.8191L34.9757 43.9697L40.4075 47.8937Z" fill="#929292"/>
<path d="M41.1745 46.7546L40.4074 47.8936L34.9756 43.9696L35.7427 42.8306L41.1745 46.7546Z" fill="white"/>
<path d="M36.0612 57.6052L36.0596 58.4574L35.7151 59.7998V58.9476L36.0612 57.6052Z" fill="#AAAAAA"/>
<path d="M35.7149 58.9474V59.7996L29.3196 58.0284L29.3211 57.179L35.7149 58.9474Z" fill="#A5A5A5"/>
<path d="M36.0602 57.605L35.7141 58.9473L29.3203 57.1789L29.6664 55.8337L36.0602 57.605Z" fill="white"/>
<path d="M34.9695 71.0083V71.8577L28.3809 72.4565L28.3824 71.6043L34.9695 71.0083Z" fill="#B6B6B6"/>
<path d="M28.3824 71.6043L28.3809 72.4565L28.2593 71.0724L28.2608 70.2202L28.3824 71.6043Z" fill="#808080"/>
<path d="M34.8481 69.6248L34.9697 71.0089L28.3826 71.6049L28.261 70.2207L34.8481 69.6248Z" fill="white"/>
<path d="M38.2548 82.6191L38.2532 83.4685L32.2664 86.3621L32.2679 85.5127L38.2548 82.6191Z" fill="#C2C2C2"/>
<path d="M32.2677 85.5128L32.2662 86.3622L31.6956 85.1034L31.6971 84.2512L32.2677 85.5128Z" fill="#808080"/>
<path d="M37.6835 81.3604L38.2557 82.6191L32.2689 85.5127L31.6982 84.2511L37.6835 81.3604Z" fill="white"/>
<path d="M45.1769 92.3806L45.1753 93.2328L40.5137 98.073L40.5152 97.2208L45.1769 92.3806Z" fill="#C5C5C5"/>
<path d="M40.515 97.2206L40.5135 98.0728L39.5593 97.087L39.5609 96.2375L40.515 97.2206Z" fill="#898989"/>
<path d="M45.1761 92.3805L40.5145 97.2208L39.5603 96.2377L44.2219 91.3975L45.1761 92.3805Z" fill="white"/>
<path d="M54.8976 99.1152L54.896 99.9674L52.1208 106.169L52.1224 105.317L54.8976 99.1152Z" fill="#B7B7B7"/>
<path d="M52.1224 105.317L52.1208 106.169L50.9016 105.581V104.729L52.1224 105.317Z" fill="#9B9B9B"/>
<path d="M54.8978 99.1148L52.1226 105.317L50.9019 104.729L53.6786 98.5244L54.8978 99.1148Z" fill="white"/>
<path d="M66.251 102.009L66.2495 102.861L65.6929 109.679L65.6944 108.827L66.251 102.009Z" fill="#9A9A9A"/>
<path d="M65.6942 108.826L65.6927 109.678L64.355 109.555L64.3565 108.703L65.6942 108.826Z" fill="#AEAEAE"/>
<path d="M66.2507 102.008L65.6941 108.826L64.3564 108.703L64.9115 101.886L66.2507 102.008Z" fill="white"/>
<path d="M79.5931 107.324L79.5916 108.174L78.2944 108.536L78.296 107.686L79.5931 107.324Z" fill="#BDBDBD"/>
<path d="M78.2962 107.687L78.2946 108.536L76.5625 101.928L76.5641 101.075L78.2962 107.687Z" fill="#808080"/>
<path d="M77.8609 100.713L79.593 107.324L78.2959 107.686L76.5637 101.075L77.8609 100.713Z" fill="white"/>
<path d="M92.1425 100.994L92.1409 101.846L91.0417 102.643L91.0433 101.791L92.1425 100.994Z" fill="#C5C5C5"/>
<path d="M91.043 101.791L91.0415 102.643L87.2327 97.0369L87.2342 96.1875L91.043 101.791Z" fill="#828282"/>
<path d="M88.3311 95.3882L92.1431 100.994L91.0439 101.791L87.2351 96.1875L88.3311 95.3882Z" fill="white"/>
<path d="M101.827 90.5952L101.826 91.4474L101.06 92.5864V91.737L101.827 90.5952Z" fill="#C0C0C0"/>
<path d="M101.06 91.7376V92.587L95.6284 88.663L95.63 87.8108L101.06 91.7376Z" fill="#929292"/>
<path d="M101.828 90.5955L101.061 91.7374L95.6311 87.8106L96.3982 86.6743L101.828 90.5955Z" fill="white"/>
<path d="M107.482 77.3892L107.481 78.2386L107.136 79.5837V78.7315L107.482 77.3892Z" fill="#AAAAAA"/>
<path d="M107.136 78.7317V79.5839L100.741 77.8126L100.742 76.9604L107.136 78.7317Z" fill="#A5A5A5"/>
<path d="M107.483 77.3889L107.137 78.7312L100.743 76.96L101.09 75.6177L107.483 77.3889Z" fill="white"/>
<path d="M108.542 64.3445L108.541 65.1967L101.955 65.7954L101.957 64.9432L108.542 64.3445Z" fill="#B6B6B6"/>
<path d="M101.957 64.9431L101.955 65.7953L101.834 64.4083L101.835 63.5562L101.957 64.9431Z" fill="#808080"/>
<path d="M108.421 62.96L108.543 64.3441L101.957 64.9428L101.835 63.5559L108.421 62.96Z" fill="white"/>
<path d="M105.108 50.3135L105.106 51.1657L99.1208 54.0564L99.1224 53.207L105.108 50.3135Z" fill="#C2C2C2"/>
<path d="M99.1223 53.2076L99.1208 54.057L98.5486 52.7954L98.5501 51.946L99.1223 53.2076Z" fill="#808080"/>
<path d="M104.535 49.0552L105.107 50.314L99.1215 53.2075L98.5493 51.9459L104.535 49.0552Z" fill="white"/>
<path d="M68.6175 66.9236L65.8174 64.0356C65.0363 64.8461 64.645 65.9099 64.6434 66.9738L48.4103 87.8998L47.2847 89.3508L68.7469 71.1762C69.765 71.1651 70.7799 70.7557 71.5548 69.9537L68.6175 66.9236Z" fill="#BCBEC0"/>
<path d="M68.6268 62.8128C67.6072 62.824 66.5922 63.2334 65.8174 64.0354L68.6175 66.9234L71.5548 69.9506C72.3374 69.1374 72.7288 68.0736 72.7288 67.0097L90.0875 44.6355L68.6268 62.8128Z" fill="#FF3038"/>
<path opacity="0.2" d="M71.5532 69.9534C70.7784 70.7582 69.7634 71.1648 68.7453 71.1759L47.2847 89.3505L48.4103 87.8995L68.6175 66.9233L71.5532 69.9534Z" fill="black"/>
<path opacity="0.2" d="M90.0857 44.6379L72.7285 67.0122C72.7285 68.076 72.3371 69.1399 71.5545 69.9531L68.6172 66.9258L90.0857 44.6379Z" fill="black"/>
<path d="M71.5593 66.3052C71.5562 66.3609 71.5547 66.4166 71.5484 66.4723C71.5437 66.5168 71.5359 66.5614 71.5297 66.606C71.5219 66.6589 71.5141 66.7118 71.5048 66.7647C71.4954 66.8093 71.4845 66.851 71.4736 66.8928C71.4595 66.9485 71.4471 67.0014 71.4299 67.0571C71.4065 67.1323 71.3832 67.2075 71.3551 67.2799C71.3504 67.2911 71.3457 67.3022 71.3411 67.3161C71.3114 67.3885 71.2787 67.4609 71.2444 67.5334C71.2382 67.5473 71.2319 67.5612 71.2241 67.5751C71.1867 67.6503 71.1446 67.7227 71.0994 67.7923C71.0713 67.8369 71.0402 67.8815 71.009 67.926C70.9825 67.965 70.956 68.004 70.9263 68.043C70.8936 68.0876 70.8562 68.1265 70.8203 68.1683C70.7829 68.2101 70.7486 68.2546 70.7081 68.2964C70.6192 68.3883 70.5257 68.4691 70.4306 68.5471C70.4025 68.5693 70.3744 68.5888 70.3464 68.6111C70.2715 68.6668 70.1936 68.7197 70.1156 68.7671C70.0876 68.7838 70.0595 68.8033 70.0299 68.82C69.98 68.8478 69.9301 68.8729 69.8786 68.898C69.8397 68.9175 69.8022 68.937 69.7617 68.9537C69.7087 68.9759 69.6541 68.9954 69.5996 69.0149C69.5622 69.0289 69.5263 69.0428 69.4889 69.0567C69.3782 69.0929 69.2659 69.118 69.1537 69.1403C69.1194 69.1458 69.0835 69.1514 69.0492 69.157C68.9822 69.1681 68.9167 69.1765 68.8497 69.182C68.8076 69.1848 68.7639 69.1876 68.7218 69.1876C68.6672 69.1904 68.6142 69.1904 68.5597 69.1876C68.5145 69.1876 68.4692 69.1848 68.424 69.182C68.3741 69.1793 68.3242 69.1737 68.2744 69.1681C68.2291 69.1625 68.1839 69.157 68.1387 69.1486C68.0888 69.1403 68.0405 69.1291 67.9906 69.118C67.947 69.1068 67.9033 69.0957 67.8596 69.0846C67.8066 69.0706 67.7552 69.0539 67.7037 69.0372C67.6632 69.0233 67.6227 69.0094 67.5821 68.9927C67.5198 68.9676 67.459 68.9397 67.3982 68.9119C67.3639 68.8952 67.3311 68.8813 67.2968 68.8646C67.1892 68.8089 67.0832 68.7448 66.9803 68.6724C66.9289 68.6362 66.8805 68.5972 66.8307 68.5582C66.8057 68.5387 66.7792 68.5192 66.7543 68.4997C66.6794 68.4357 66.6077 68.3688 66.5375 68.2992C65.956 67.7004 65.666 66.9123 65.6676 66.127L65.666 66.7953C65.6645 67.5807 65.9544 68.3688 66.536 68.9676C66.6061 69.04 66.6779 69.1068 66.7527 69.1681C66.7776 69.1904 66.8026 69.2071 66.8291 69.2266C66.8727 69.2628 66.9164 69.299 66.9616 69.3296C66.9663 69.3324 66.9725 69.3352 66.9772 69.3408C67.0801 69.4132 67.1861 69.4745 67.2937 69.5329C67.3031 69.5385 67.3108 69.5441 67.3186 69.5469C67.3436 69.5608 67.3685 69.5691 67.3935 69.5803C67.4543 69.6081 67.5151 69.636 67.5775 69.661C67.5946 69.6666 67.6102 69.675 67.6258 69.6833C67.6492 69.6917 67.6741 69.6972 67.6991 69.7056C67.7505 69.7223 67.8035 69.739 67.8565 69.7529C67.8768 69.7585 67.8986 69.7669 67.9189 69.7724C67.9423 69.778 67.9657 69.7808 67.9875 69.7864C68.0374 69.7975 68.0857 69.8086 68.1356 69.817C68.159 69.8198 68.1824 69.8281 68.2058 69.8309C68.2276 69.8337 68.2494 69.8337 68.2712 69.8365C68.3211 69.8421 68.371 69.8476 68.4209 69.8504C68.4459 69.8532 68.4708 69.856 68.4957 69.8588C68.516 69.8588 68.5363 69.8588 68.555 69.8588C68.6096 69.8588 68.6626 69.8588 68.7171 69.8588C68.7436 69.8588 68.7701 69.8588 68.7966 69.8588C68.8122 69.8588 68.8278 69.8532 68.8434 69.8532C68.9105 69.8476 68.9759 69.8393 69.043 69.8281C69.0695 69.8254 69.096 69.8226 69.1241 69.8198C69.1318 69.817 69.1396 69.8142 69.149 69.8142C69.2628 69.7919 69.3735 69.7669 69.4842 69.7307C69.4889 69.7279 69.4951 69.7279 69.4998 69.7279C69.531 69.7167 69.5622 69.7028 69.5949 69.6917C69.6495 69.6722 69.704 69.6527 69.7586 69.6304C69.7976 69.6137 69.8365 69.5942 69.874 69.5747C69.9254 69.5496 69.9753 69.5246 70.0252 69.4967C70.0361 69.4912 70.047 69.4856 70.0579 69.48C70.0766 69.4689 70.0922 69.455 70.1109 69.4438C70.1905 69.3965 70.2669 69.3436 70.3417 69.2879C70.3698 69.2656 70.3978 69.2461 70.4259 69.2238C70.5225 69.1458 70.6161 69.0651 70.7034 68.9732C70.7159 68.9592 70.7268 68.9481 70.7393 68.9342C70.7658 68.9063 70.7891 68.8729 70.8156 68.8423C70.8515 68.8005 70.8889 68.7587 70.9217 68.717C70.9513 68.678 70.9778 68.639 71.0043 68.6C71.0355 68.5554 71.0667 68.5109 71.0947 68.4663C71.101 68.4579 71.1072 68.4496 71.1134 68.4385C71.1509 68.3772 71.1867 68.3131 71.2194 68.2463C71.2257 68.2324 71.2319 68.2184 71.2382 68.2045C71.2584 68.1655 71.2787 68.1238 71.2958 68.0848C71.3099 68.0541 71.3223 68.0207 71.3348 67.9873C71.3395 67.9762 71.3442 67.965 71.3489 67.9511C71.3722 67.8898 71.3941 67.8286 71.4143 67.7673C71.419 67.7534 71.4206 67.7394 71.4252 67.7283C71.4408 67.6754 71.4549 67.6197 71.4689 67.564C71.4767 67.5306 71.4876 67.4999 71.4938 67.4693C71.4954 67.4582 71.497 67.447 71.4985 67.4359C71.5094 67.383 71.5157 67.33 71.5235 67.2771C71.5281 67.2409 71.5359 67.2075 71.5406 67.1713C71.5422 67.163 71.5422 67.1518 71.5422 67.1435C71.5484 67.0878 71.55 67.0321 71.5531 66.9791C71.5547 66.9429 71.5593 66.9067 71.5593 66.8705C71.5593 66.8538 71.5593 66.8399 71.5593 66.8232L71.5609 66.1548C71.5671 66.2021 71.5624 66.2523 71.5593 66.3052Z" fill="#D1D3D4"/>
<path d="M70.6981 63.977C71.8533 65.1689 71.8596 67.1017 70.7105 68.2936C69.563 69.4856 67.6953 69.4856 66.54 68.2936C65.3847 67.1017 65.3785 65.1689 66.526 63.977C67.675 62.785 69.5428 62.785 70.6981 63.977Z" fill="#F1F2F2"/>
<path d="M70.8536 65.7453C70.852 65.7871 70.8504 65.8289 70.8458 65.8707C70.8426 65.9041 70.8364 65.9403 70.8317 65.9737C70.8255 66.0127 70.8208 66.0545 70.813 66.0935C70.8068 66.1269 70.7974 66.1575 70.7896 66.1909C70.7787 66.2327 70.7694 66.2745 70.7569 66.3163C70.7397 66.372 70.721 66.4304 70.6992 66.4861C70.6961 66.4945 70.6914 66.5029 70.6883 66.514C70.6665 66.5697 70.6415 66.6254 70.615 66.6783C70.6103 66.6894 70.6057 66.6978 70.5994 66.7089C70.5714 66.7646 70.5386 66.8203 70.5043 66.8732C70.4825 66.9067 70.4591 66.9401 70.4357 66.9763C70.4155 67.0069 70.3952 67.0348 70.3734 67.0654C70.3484 67.0988 70.3204 67.1295 70.2923 67.1629C70.2642 67.1963 70.2377 67.2297 70.2065 67.2604C70.1395 67.33 70.0678 67.3912 69.9945 67.4525C69.9742 67.4692 69.9524 67.4859 69.9306 67.5026C69.8729 67.5444 69.8152 67.5862 69.7544 67.6224C69.7326 67.6363 69.7123 67.6502 69.6905 67.6614C69.6531 67.6837 69.6141 67.7004 69.5751 67.7199C69.5455 67.7338 69.5159 67.7505 69.4862 67.7616C69.4457 67.7784 69.4036 67.7951 69.3631 67.809C69.335 67.8201 69.307 67.8313 69.2789 67.8396C69.1947 67.8675 69.1105 67.887 69.0248 67.9037C68.9983 67.9092 68.9718 67.912 68.9452 67.9148C68.8954 67.9232 68.8439 67.9287 68.794 67.9315C68.7613 67.9343 68.7301 67.9343 68.6974 67.9371C68.6568 67.9371 68.6147 67.9399 68.5742 67.9371C68.5399 67.9371 68.5056 67.9343 68.4713 67.9315C68.4339 67.9287 68.3949 67.926 68.3575 67.9204C68.3232 67.9148 68.2889 67.912 68.2546 67.9037C68.2172 67.8981 68.1797 67.8898 68.1423 67.8814C68.1096 67.873 68.0753 67.8647 68.0425 67.8563C68.002 67.8452 67.963 67.8341 67.9241 67.8201C67.8929 67.809 67.8617 67.7979 67.8305 67.7867C67.7837 67.7672 67.737 67.7477 67.6917 67.7254C67.6668 67.7143 67.6403 67.7032 67.6154 67.6892C67.5327 67.6475 67.4532 67.5973 67.3753 67.5444C67.3363 67.5166 67.2989 67.4887 67.2614 67.4581C67.2427 67.4442 67.2225 67.4302 67.2038 67.4135C67.1476 67.3662 67.0915 67.3161 67.0401 67.2604C66.5988 66.8036 66.3775 66.2076 66.379 65.6089L66.3774 66.1157C66.3759 66.7117 66.5973 67.3105 67.0385 67.7672C67.0915 67.8229 67.1461 67.873 67.2022 67.9204C67.2209 67.9371 67.2412 67.951 67.2599 67.9649C67.2942 67.9928 67.3269 68.0179 67.3612 68.0429C67.3659 68.0457 67.369 68.0485 67.3737 68.0513C67.4517 68.1042 67.5312 68.1543 67.6138 68.1961C67.62 68.1989 67.6263 68.2045 67.6325 68.2072C67.6512 68.2156 67.6715 68.2239 67.6902 68.2323C67.737 68.2546 67.7822 68.2741 67.8289 68.2936C67.8414 68.2991 67.8539 68.3047 67.8664 68.3103C67.8851 68.3159 67.9038 68.3214 67.9225 68.327C67.9615 68.3409 68.002 68.3521 68.041 68.3632C68.0566 68.3688 68.0722 68.3743 68.0878 68.3771C68.1049 68.3827 68.1221 68.3827 68.1408 68.3883C68.1782 68.3966 68.2156 68.405 68.253 68.4105C68.2702 68.4133 68.2889 68.4189 68.306 68.4217C68.3232 68.4245 68.3388 68.4245 68.3559 68.4272C68.3933 68.4328 68.4323 68.4356 68.4697 68.4384C68.4884 68.4384 68.5071 68.444 68.5259 68.444C68.5414 68.444 68.5555 68.444 68.5711 68.444C68.6116 68.444 68.6537 68.444 68.6942 68.444C68.7145 68.444 68.7348 68.444 68.755 68.444C68.7675 68.444 68.7784 68.4412 68.7909 68.4384C68.8424 68.4356 68.8922 68.4272 68.9421 68.4217C68.9624 68.4189 68.9827 68.4189 69.0029 68.4133C69.0092 68.4133 69.0154 68.4105 69.0216 68.4078C69.1074 68.391 69.1931 68.3715 69.2758 68.3437C69.2804 68.3437 69.2836 68.3409 69.2882 68.3409C69.3132 68.3326 69.3366 68.3214 69.36 68.3131C69.4021 68.2991 69.4442 68.2824 69.4847 68.2657C69.5143 68.2518 69.5439 68.2379 69.572 68.2239C69.611 68.2045 69.65 68.1877 69.6874 68.1655C69.6952 68.1599 69.7045 68.1571 69.7123 68.1515C69.7263 68.1432 69.7388 68.132 69.7528 68.1237C69.8137 68.0875 69.8713 68.0485 69.929 68.0039C69.9509 67.9872 69.9727 67.9733 69.9929 67.9538C70.0662 67.8953 70.1364 67.8313 70.205 67.7616C70.2143 67.7533 70.2237 67.7422 70.233 67.7338C70.2533 67.7115 70.272 67.6865 70.2907 67.6642C70.3188 67.6335 70.3453 67.6001 70.3718 67.5667C70.3936 67.5389 70.4139 67.5082 70.4342 67.4776C70.4575 67.4442 70.4809 67.4107 70.5028 67.3773C70.5074 67.369 70.5121 67.3634 70.5168 67.3578C70.5449 67.3105 70.5729 67.2604 70.5979 67.213C70.6025 67.2019 70.6072 67.1935 70.6119 67.1824C70.6275 67.1517 70.6415 67.1211 70.6556 67.0905C70.6665 67.0654 70.6758 67.0403 70.6852 67.0181C70.6883 67.0097 70.693 67.0014 70.6961 66.9902C70.7132 66.9429 70.7304 66.8983 70.746 66.851C70.7491 66.8398 70.7507 66.8315 70.7538 66.8203C70.7662 66.7786 70.7756 66.7368 70.7865 66.695C70.7928 66.6699 70.8005 66.6477 70.8052 66.6226C70.8068 66.6143 70.8083 66.6059 70.8099 66.5975C70.8177 66.5586 70.8239 66.5168 70.8286 66.4778C70.8333 66.4499 70.838 66.4249 70.8411 66.397C70.8426 66.3887 70.8411 66.3831 70.8426 66.3747C70.8473 66.333 70.8489 66.2912 70.8504 66.2494C70.852 66.2216 70.8551 66.1937 70.8551 66.1659C70.8551 66.1547 70.8551 66.1436 70.8551 66.1297L70.8567 65.6228C70.8598 65.6674 70.8551 65.7064 70.8536 65.7453Z" fill="#E6E7E8"/>
<path d="M70.1967 63.9772C71.0745 64.8823 71.0791 66.3499 70.2061 67.2578C69.3345 68.1629 67.9142 68.1629 67.0365 67.2578C66.1587 66.3527 66.154 64.8851 67.0255 63.9772C67.9002 63.0721 69.3189 63.0721 70.1967 63.9772Z" fill="white"/>
<path d="M93.1372 45.6906L92.9673 45.8689C92.8348 45.7909 92.735 45.7408 92.6695 45.7185C92.6025 45.699 92.537 45.6934 92.4715 45.7018C92.406 45.7157 92.3296 45.7519 92.2408 45.8132C92.1534 45.8772 92.024 45.997 91.8525 46.1724L87.9377 50.2357L87.4965 49.7817L88.7999 44.3761C88.8809 44.0419 88.9417 43.7969 88.9838 43.6493C89.0259 43.4961 89.068 43.3541 89.1164 43.2148L89.0571 43.1535C88.8919 43.3569 88.5832 43.705 88.1186 44.1979C87.6555 44.6936 87.1909 45.1838 86.7263 45.6656L86.0138 46.4036C85.8579 46.5651 85.7488 46.6904 85.688 46.7768C85.6256 46.8603 85.5882 46.9383 85.5695 47.0079C85.5508 47.0775 85.5508 47.1499 85.5726 47.2279C85.5928 47.3059 85.6443 47.4173 85.7223 47.5565L85.5523 47.7348L84.2708 46.4119L84.4407 46.2337C84.6231 46.3451 84.7634 46.4008 84.8554 46.4064C84.9521 46.4091 85.0472 46.3785 85.147 46.3033C85.2452 46.2309 85.3808 46.1084 85.5539 45.9274L88.5738 42.7915C88.7344 42.6244 88.8466 42.4963 88.909 42.4072C88.9698 42.3209 89.0072 42.2401 89.0213 42.1705C89.0337 42.0981 89.0322 42.0284 89.0119 41.956C88.9916 41.8836 88.9449 41.7778 88.8653 41.6358L89.0353 41.4575L90.136 42.5938L88.9932 47.37C88.9386 47.6011 88.8872 47.8016 88.8388 47.9715C88.7936 48.1386 88.7344 48.3224 88.6642 48.5201L88.711 48.5675C88.8404 48.406 89.1132 48.1024 89.5264 47.654C89.9396 47.2056 90.3137 46.8046 90.6552 46.4509L91.3879 45.6906C91.5485 45.5235 91.6623 45.3982 91.7294 45.3091C91.7949 45.2228 91.8354 45.1448 91.8479 45.0779C91.8619 45.0111 91.8619 44.9443 91.8432 44.8746C91.8229 44.8022 91.7761 44.6964 91.6966 44.5544L91.8666 44.3761L93.1372 45.6906Z" fill="black"/>
</svg>
