<svg width="135" height="139" viewBox="0 0 135 139" fill="none" xmlns="http://www.w3.org/2000/svg">
<path d="M67.0157 138.286C104.027 138.286 134.031 107.33 134.031 69.1432C134.031 30.9565 104.027 0 67.0157 0C30.004 0 0 30.9565 0 69.1432C0 107.33 30.004 138.286 67.0157 138.286Z" fill="#FF94C1"/>
<path d="M90.9141 42.7769L97.1196 49.1694V37.1282C97.1196 36.2336 96.4085 35.4999 95.5415 35.4999H38.6978C37.8308 35.4999 37.1196 36.2336 37.1196 37.1282V110.29C37.1196 111.195 37.8308 111.918 38.6978 111.918H50.6803L42.994 103.998L90.9141 42.7769Z" fill="#3C627A"/>
<path d="M97.1198 110.291V49.1697L90.9143 42.7772L42.9941 104.009L50.6805 111.929H95.5416C96.4087 111.919 97.1198 111.195 97.1198 110.291Z" fill="#0B3B59"/>
<path d="M90.9143 42.7772H77.9966H42.9941V104.009H90.9143V69.3725V56.0748V42.7772Z" fill="white"/>
<path d="M85.9459 60.4266H57.2952V64.045H85.9459V60.4266Z" fill="#E0E0E0"/>
<path d="M85.9557 67.6534H57.2952V71.2718H85.9557V67.6534Z" fill="#E0E0E0"/>
<path d="M85.9557 74.8804H57.2952V78.4988H85.9557V74.8804Z" fill="#E0E0E0"/>
<path d="M85.9557 82.1168H57.2952V85.7352H85.9557V82.1168Z" fill="#E0E0E0"/>
<path d="M85.9557 89.3539H57.2952V92.9723H85.9557V89.3539Z" fill="#E0E0E0"/>
<path d="M85.9459 53.1901H57.2952V56.8085H85.9459V53.1901Z" fill="#E0E0E0"/>
<path d="M83.2571 35.4999H50.9824V45.7018H83.2571V35.4999Z" fill="#A3A3A3"/>
<path d="M67.1149 27.2378C62.6921 27.2378 59.0973 30.9366 59.0973 35.4998C59.0973 40.063 62.6823 43.7618 67.1149 43.7618C71.5377 43.7618 75.1324 40.063 75.1324 35.4998C75.1324 30.9366 71.5474 27.2378 67.1149 27.2378Z" fill="#E0E0E0"/>
<path d="M68.9267 35.4997C68.9267 36.535 68.1181 37.3692 67.1147 37.3692C66.1113 37.3692 65.3027 36.535 65.3027 35.4997C65.3027 34.4745 66.1113 33.6403 67.1147 33.6403C68.1181 33.6403 68.9267 34.4745 68.9267 35.4997Z" fill="#0B3B59"/>
<path d="M55.0545 57.954L53.4276 56.2855L49.1315 60.7181L46.7058 58.2153L45.0886 59.8838L49.1217 64.045H49.1315L55.0545 57.954Z" fill="#BDBF84"/>
<path d="M55.0545 71.4929L53.4276 69.8245L49.1315 74.257L46.7058 71.7643L45.0886 73.4328L49.1217 77.594L49.1315 77.5839V77.594L55.0545 71.4929Z" fill="#BDBF84"/>
<path d="M55.0545 85.042L53.4276 83.3735L49.1315 87.8061L46.7058 85.3033L45.0886 86.9718L49.1217 91.133H49.1315L55.0545 85.042Z" fill="#BDBF84"/>
</svg>
