<svg width="135" height="139" viewBox="0 0 135 139" fill="none" xmlns="http://www.w3.org/2000/svg">
<path d="M67.0157 138.286C104.027 138.286 134.031 107.33 134.031 69.1432C134.031 30.9565 104.027 0 67.0157 0C30.004 0 0 30.9565 0 69.1432C0 107.33 30.004 138.286 67.0157 138.286Z" fill="#8BCAFF"/>
<g clip-path="url(#clip0)">
<path d="M25.0303 36.4111V82.9072V85.8379H104.759V82.9072V36.4111H25.0303Z" fill="url(#paint0_linear)"/>
<path d="M103.717 37.4854H26.0725V82.9072H103.717V37.4854Z" fill="url(#paint1_linear)"/>
<path d="M69.6184 85.8379V90.1675L69.6172 90.242C69.5803 91.7632 68.4048 92.9899 66.9439 93.0377C66.9148 93.0388 66.8846 93.0388 66.8543 93.0388H62.9451C62.916 93.0388 62.8858 93.0377 62.8555 93.0377C61.3722 92.9899 60.1833 91.7248 60.1822 90.171V85.8391H69.6184V85.8379Z" fill="url(#paint2_linear)"/>
<path d="M62.8578 93.0366C61.3745 92.9888 60.1856 91.7237 60.1844 90.1699V90.1396L57.2469 92.5687V93.0366L36.2531 98.416L35.6945 99.8779L36.5879 100.58L64.8953 96.6027V93.0354H62.8578V93.0366Z" fill="url(#paint3_linear)"/>
<path d="M93.5362 98.4161L72.5436 93.0366V92.5687L69.6183 90.1676L69.6172 90.2421C69.5803 91.7633 68.4048 92.99 66.9439 93.0377H64.8952V96.6051L93.2026 100.581L94.096 99.8802L93.5362 98.4161Z" fill="url(#paint4_linear)"/>
<path d="M63.244 38.0685H26.6278V82.2403H63.244V38.0685Z" fill="url(#paint5_linear)"/>
<path d="M32.2028 41.4973H31.5535V54.7493H32.2028V41.4973Z" fill="url(#paint6_linear)"/>
<path d="M42.295 47.2714H33.7779V48.6587H42.295V47.2714Z" fill="url(#paint7_linear)"/>
<path d="M57.0017 47.2714H42.2962V48.6587H57.0017V47.2714Z" fill="url(#paint8_linear)"/>
<path d="M49.3522 44.7213H33.7779V46.1087H49.3522V44.7213Z" fill="url(#paint9_linear)"/>
<path d="M57.0017 44.7213H49.3534V46.1087H57.0017V44.7213Z" fill="url(#paint10_linear)"/>
<path d="M51.786 42.1711H33.7779V43.5585H51.786V42.1711Z" fill="url(#paint11_linear)"/>
<path d="M57.0006 42.1711H51.786V43.5585H57.0006V42.1711Z" fill="url(#paint12_linear)"/>
<path d="M45.3892 49.8214H33.7779V51.2088H45.3892V49.8214Z" fill="url(#paint13_linear)"/>
<path d="M57.0006 49.8214H45.3892V51.2088H57.0006V49.8214Z" fill="url(#paint14_linear)"/>
<path d="M41.2874 52.3715H33.7779V53.7588H41.2874V52.3715Z" fill="url(#paint15_linear)"/>
<path d="M57.0006 52.3715H41.2875V53.7588H57.0006V52.3715Z" fill="url(#paint16_linear)"/>
<path d="M50.2378 59.3163H38.8582V60.8852H50.2378V59.3163Z" fill="url(#paint17_linear)"/>
<path opacity="0.48" d="M58.0171 61.5963H38.8582V62.4343H58.0171V61.5963Z" fill="url(#paint18_linear)"/>
<path opacity="0.48" d="M58.0171 62.9988H38.8582V63.8368H58.0171V62.9988Z" fill="url(#paint19_linear)"/>
<path opacity="0.48" d="M58.0171 64.4828H38.8582V65.3208H58.0171V64.4828Z" fill="url(#paint20_linear)"/>
<path opacity="0.48" d="M58.0171 66.0051H38.8582V66.8431H58.0171V66.0051Z" fill="url(#paint21_linear)"/>
<path d="M33.1365 66.8432C35.136 66.8432 36.7569 65.158 36.7569 63.0792C36.7569 61.0004 35.136 59.3152 33.1365 59.3152C31.1369 59.3152 29.516 61.0004 29.516 63.0792C29.516 65.158 31.1369 66.8432 33.1365 66.8432Z" fill="url(#paint22_linear)"/>
<path d="M33.0077 65.1858L31.259 63.944L31.2736 62.8639L33.0077 63.9056V65.1858Z" fill="url(#paint23_linear)"/>
<path d="M35.6071 61.7128L33.0076 65.1859V63.9102L34.6566 61.6965L35.6071 61.7128Z" fill="url(#paint24_linear)"/>
<path d="M50.896 71.295H39.5164V72.864H50.896V71.295Z" fill="url(#paint25_linear)"/>
<path opacity="0.48" d="M58.6753 73.5752H39.5164V74.4132H58.6753V73.5752Z" fill="url(#paint26_linear)"/>
<path opacity="0.48" d="M58.6753 74.9775H39.5164V75.8155H58.6753V74.9775Z" fill="url(#paint27_linear)"/>
<path opacity="0.48" d="M58.6753 76.4615H39.5164V77.2995H58.6753V76.4615Z" fill="url(#paint28_linear)"/>
<path opacity="0.48" d="M58.6753 77.984H39.5164V78.822H58.6753V77.984Z" fill="url(#paint29_linear)"/>
<path d="M33.1365 78.822C35.136 78.822 36.7569 77.1368 36.7569 75.0579C36.7569 72.9791 35.136 71.2939 33.1365 71.2939C31.1369 71.2939 29.516 72.9791 29.516 75.0579C29.516 77.1368 31.1369 78.822 33.1365 78.822Z" fill="url(#paint30_linear)"/>
<path d="M33.0077 76.8025L31.259 75.5618L31.2736 74.4806L33.0077 75.5223V76.8025Z" fill="url(#paint31_linear)"/>
<path d="M35.6071 73.3296L33.0076 76.8026V75.527L34.6566 73.3145L35.6071 73.3296Z" fill="url(#paint32_linear)"/>
<path d="M102.724 38.0685H66.1077V82.2391H102.724V38.0685Z" fill="url(#paint33_linear)"/>
<path d="M91.3051 39.4337H77.5254V40.87H91.3051V39.4337Z" fill="url(#paint34_linear)"/>
<path d="M92.737 41.3098H76.0936V42.7461H92.737V41.3098Z" fill="url(#paint35_linear)"/>
<path d="M92.737 43.1849H76.0936V44.6212H92.737V43.1849Z" fill="url(#paint36_linear)"/>
<path d="M70.5968 79.9312V82.2391H71.1386V80.4945H75.1296V82.2391H75.6715V79.9312H70.5968Z" fill="url(#paint37_linear)"/>
<path d="M89.6807 48.9776H79.359C79.0668 48.9776 78.8295 48.7309 78.8295 48.4271C78.8295 48.1233 79.0668 47.8766 79.359 47.8766H89.6807C89.9729 47.8766 90.2102 48.1233 90.2102 48.4271C90.2091 48.7309 89.9729 48.9776 89.6807 48.9776Z" fill="url(#paint38_linear)"/>
<path opacity="0.48" d="M97.9884 49.4757H78.8295V50.0635H97.9884V49.4757Z" fill="url(#paint39_linear)"/>
<path opacity="0.48" d="M97.9884 50.4592H78.8295V51.047H97.9884V50.4592Z" fill="url(#paint40_linear)"/>
<path opacity="0.48" d="M97.9884 51.4987H78.8295V52.0864H97.9884V51.4987Z" fill="url(#paint41_linear)"/>
<path opacity="0.48" d="M97.9884 52.5659H78.8295V53.1537H97.9884V52.5659Z" fill="url(#paint42_linear)"/>
<path d="M75.6726 53.1537H70.5979V47.8766H75.6726V53.1537ZM71.1386 52.5903H75.1296V48.4411H71.1386V52.5903Z" fill="url(#paint43_linear)"/>
<path d="M72.7641 52.3447L71.2808 50.7223L71.9536 50.0565L72.7137 50.8875L76.0442 46.6685L76.7618 47.2818L72.7641 52.3447Z" fill="url(#paint44_linear)"/>
<path d="M89.6807 56.7093H79.359C79.0668 56.7093 78.8295 56.4626 78.8295 56.1588C78.8295 55.855 79.0668 55.6083 79.359 55.6083H89.6807C89.9729 55.6083 90.2102 55.855 90.2102 56.1588C90.2091 56.4626 89.9729 56.7093 89.6807 56.7093Z" fill="url(#paint45_linear)"/>
<path opacity="0.48" d="M97.9884 57.2075H78.8295V57.7953H97.9884V57.2075Z" fill="url(#paint46_linear)"/>
<path opacity="0.48" d="M97.9884 58.1909H78.8295V58.7787H97.9884V58.1909Z" fill="url(#paint47_linear)"/>
<path opacity="0.48" d="M97.9884 59.2303H78.8295V59.8181H97.9884V59.2303Z" fill="url(#paint48_linear)"/>
<path opacity="0.48" d="M97.9884 60.2976H78.8295V60.8854H97.9884V60.2976Z" fill="url(#paint49_linear)"/>
<path d="M75.6726 61.167H70.5979V55.8911H75.6726V61.167ZM71.1386 60.6037H75.1296V56.4544H71.1386V60.6037Z" fill="url(#paint50_linear)"/>
<path d="M72.7641 60.3593L71.2808 58.7356L71.9536 58.0699L72.7137 58.9009L76.0442 54.683L76.7618 55.2952L72.7641 60.3593Z" fill="url(#paint51_linear)"/>
<path d="M89.6807 64.4411H79.359C79.0668 64.4411 78.8295 64.1944 78.8295 63.8906C78.8295 63.5868 79.0668 63.3401 79.359 63.3401H89.6807C89.9729 63.3401 90.2102 63.5868 90.2102 63.8906C90.2091 64.1944 89.9729 64.4411 89.6807 64.4411Z" fill="url(#paint52_linear)"/>
<path opacity="0.48" d="M97.9884 64.9393H78.8295V65.5271H97.9884V64.9393Z" fill="url(#paint53_linear)"/>
<path opacity="0.48" d="M97.9884 65.9227H78.8295V66.5105H97.9884V65.9227Z" fill="url(#paint54_linear)"/>
<path opacity="0.48" d="M97.9884 66.9622H78.8295V67.5499H97.9884V66.9622Z" fill="url(#paint55_linear)"/>
<path opacity="0.48" d="M97.9884 68.0294H78.8295V68.6172H97.9884V68.0294Z" fill="url(#paint56_linear)"/>
<path d="M75.6726 69.1804H70.5979V63.9045H75.6726V69.1804ZM71.1386 68.6171H75.1296V64.4679H71.1386V68.6171Z" fill="url(#paint57_linear)"/>
<path d="M72.7641 68.3727L71.2808 66.7491L71.9536 66.0833L72.7137 66.9143L76.0442 62.6964L76.7618 63.3086L72.7641 68.3727Z" fill="url(#paint58_linear)"/>
<path d="M75.6726 77.1938H70.5979V71.9178H75.6726V77.1938ZM71.1386 76.6304H75.1296V72.4812H71.1386V76.6304Z" fill="url(#paint59_linear)"/>
<path d="M72.7641 76.386L71.2808 74.7624L71.9536 74.0978L72.7137 74.9288L76.0442 70.7097L76.7618 71.3231L72.7641 76.386Z" fill="url(#paint60_linear)"/>
<path d="M107.74 98.1297H81.1491C81.3036 100.826 79.1631 100.978 79.1631 100.978C78.0302 100.978 77.11 100.022 77.11 98.842V72.665C77.11 72.1226 76.8984 71.6315 76.5569 71.2753C76.2144 70.9192 75.7431 70.6992 75.2203 70.6992H104.122C106.12 70.6992 107.74 72.3834 107.74 74.4621V98.1297Z" fill="url(#paint61_linear)"/>
<path d="M77.1111 72.665V82.2403H70.2105C72.1741 82.2077 72.7137 80.1744 73.1391 78.3634C73.1391 78.3634 73.3305 73.0223 73.3305 72.665C73.3305 71.5803 74.1769 70.6992 75.2214 70.6992C75.743 70.6992 76.2155 70.9192 76.558 71.2753C76.8995 71.6315 77.1111 72.1226 77.1111 72.665Z" fill="url(#paint62_linear)"/>
<path d="M98.0892 73.5752H88.9575V74.8345H98.0892V73.5752Z" fill="url(#paint63_linear)"/>
<path opacity="0.48" d="M104.331 75.4049H88.9575V76.0776H104.331V75.4049Z" fill="url(#paint64_linear)"/>
<path opacity="0.48" d="M104.331 76.5303H88.9575V77.203H104.331V76.5303Z" fill="url(#paint65_linear)"/>
<path opacity="0.48" d="M104.331 77.7209H88.9575V78.3937H104.331V77.7209Z" fill="url(#paint66_linear)"/>
<path opacity="0.48" d="M104.331 78.943H88.9575V79.6157H104.331V78.943Z" fill="url(#paint67_linear)"/>
<path d="M84.3665 79.6158C85.9709 79.6158 87.2716 78.2635 87.2716 76.5955C87.2716 74.9274 85.9709 73.5752 84.3665 73.5752C82.7621 73.5752 81.4614 74.9274 81.4614 76.5955C81.4614 78.2635 82.7621 79.6158 84.3665 79.6158Z" fill="url(#paint68_linear)"/>
<path d="M84.2635 78.2855L82.8597 77.2892L82.8709 76.4221L84.2635 77.2578V78.2855Z" fill="url(#paint69_linear)"/>
<path d="M86.3491 75.498L84.2635 78.2855V77.2613L85.5867 75.4863L86.3491 75.498Z" fill="url(#paint70_linear)"/>
<path d="M98.0892 83.1226H88.9575V84.3819H98.0892V83.1226Z" fill="url(#paint71_linear)"/>
<path opacity="0.48" d="M104.331 84.9534H88.9575V85.6261H104.331V84.9534Z" fill="url(#paint72_linear)"/>
<path opacity="0.48" d="M104.331 86.0787H88.9575V86.7515H104.331V86.0787Z" fill="url(#paint73_linear)"/>
<path opacity="0.48" d="M104.331 87.2683H88.9575V87.941H104.331V87.2683Z" fill="url(#paint74_linear)"/>
<path opacity="0.48" d="M104.331 88.4904H88.9575V89.1631H104.331V88.4904Z" fill="url(#paint75_linear)"/>
<path d="M83.8381 89.1631C85.4425 89.1631 86.7431 87.8109 86.7431 86.1428C86.7431 84.4748 85.4425 83.1226 83.8381 83.1226C82.2336 83.1226 80.933 84.4748 80.933 86.1428C80.933 87.8109 82.2336 89.1631 83.8381 89.1631Z" fill="url(#paint76_linear)"/>
<path d="M83.7351 87.5429L82.3324 86.5467L82.3436 85.6796L83.7351 86.5152V87.5429Z" fill="url(#paint77_linear)"/>
<path d="M85.8207 84.7554L83.7351 87.5429V86.5199L85.0583 84.7438L85.8207 84.7554Z" fill="url(#paint78_linear)"/>
<path d="M98.0892 92.6256H88.9575V93.8849H98.0892V92.6256Z" fill="url(#paint79_linear)"/>
<path opacity="0.48" d="M104.331 94.4552H88.9575V95.1279H104.331V94.4552Z" fill="url(#paint80_linear)"/>
<path opacity="0.48" d="M104.331 95.5807H88.9575V96.2534H104.331V95.5807Z" fill="url(#paint81_linear)"/>
<path opacity="0.48" d="M104.331 96.7715H88.9575V97.4442H104.331V96.7715Z" fill="url(#paint82_linear)"/>
<path opacity="0.48" d="M104.331 97.9923H88.9575V98.665H104.331V97.9923Z" fill="url(#paint83_linear)"/>
<path d="M83.8381 98.6651C85.4425 98.6651 86.7431 97.3128 86.7431 95.6448C86.7431 93.9767 85.4425 92.6245 83.8381 92.6245C82.2336 92.6245 80.933 93.9767 80.933 95.6448C80.933 97.3128 82.2336 98.6651 83.8381 98.6651Z" fill="url(#paint84_linear)"/>
<path d="M83.7351 97.045L82.3324 96.0487L82.3436 95.1816L83.7351 96.0173V97.045Z" fill="url(#paint85_linear)"/>
<path d="M85.8207 94.2587L83.7351 97.045V96.0219L85.0583 94.2458L85.8207 94.2587Z" fill="url(#paint86_linear)"/>
<path d="M107.74 100.977H79.1642C79.1642 100.977 81.3047 100.825 81.1502 98.1285H109.753C109.753 98.1297 109.87 100.684 107.74 100.977Z" fill="url(#paint87_linear)"/>
</g>
<defs>
<linearGradient id="paint0_linear" x1="113.929" y1="23.6267" x2="5.21976" y2="100.538" gradientUnits="userSpaceOnUse">
<stop stop-color="#808080"/>
<stop offset="0.6386" stop-color="#52524D"/>
<stop offset="1" stop-color="#3C3C35"/>
</linearGradient>
<linearGradient id="paint1_linear" x1="26.0725" y1="60.1958" x2="103.717" y2="60.1958" gradientUnits="userSpaceOnUse">
<stop stop-color="#FFD571"/>
<stop offset="0.2509" stop-color="#FFBD60"/>
<stop offset="0.7782" stop-color="#FF8035"/>
<stop offset="1" stop-color="#FF6421"/>
</linearGradient>
<linearGradient id="paint2_linear" x1="60.1838" y1="89.4383" x2="69.6188" y2="89.4383" gradientUnits="userSpaceOnUse">
<stop stop-color="#808080"/>
<stop offset="0.6386" stop-color="#52524D"/>
<stop offset="1" stop-color="#3C3C35"/>
</linearGradient>
<linearGradient id="paint3_linear" x1="35.6945" y1="95.3606" x2="64.8951" y2="95.3606" gradientUnits="userSpaceOnUse">
<stop stop-color="#808080"/>
<stop offset="0.6386" stop-color="#52524D"/>
<stop offset="1" stop-color="#3C3C35"/>
</linearGradient>
<linearGradient id="paint4_linear" x1="64.8951" y1="95.3735" x2="94.0957" y2="95.3735" gradientUnits="userSpaceOnUse">
<stop stop-color="#808080"/>
<stop offset="0.6386" stop-color="#52524D"/>
<stop offset="1" stop-color="#3C3C35"/>
</linearGradient>
<linearGradient id="paint5_linear" x1="26.6273" y1="60.1542" x2="63.2431" y2="60.1542" gradientUnits="userSpaceOnUse">
<stop stop-color="#F7F7F7"/>
<stop offset="1" stop-color="white"/>
</linearGradient>
<linearGradient id="paint6_linear" x1="31.5533" y1="48.1227" x2="32.2022" y2="48.1227" gradientUnits="userSpaceOnUse">
<stop stop-color="#BE73DE"/>
<stop offset="1" stop-color="#514EB7"/>
</linearGradient>
<linearGradient id="paint7_linear" x1="44.977" y1="47.9653" x2="31.3954" y2="47.9653" gradientUnits="userSpaceOnUse">
<stop stop-color="#BE73DE"/>
<stop offset="1" stop-color="#514EB7"/>
</linearGradient>
<linearGradient id="paint8_linear" x1="49.6484" y1="47.1631" x2="49.6484" y2="48.7727" gradientUnits="userSpaceOnUse">
<stop stop-color="#E2E2E2"/>
<stop offset="0.0954" stop-color="#E6E6E6"/>
<stop offset="0.6241" stop-color="#F8F8F8"/>
<stop offset="1" stop-color="white"/>
</linearGradient>
<linearGradient id="paint9_linear" x1="52.649" y1="45.4154" x2="30.9807" y2="45.4154" gradientUnits="userSpaceOnUse">
<stop stop-color="#BE73DE"/>
<stop offset="1" stop-color="#514EB7"/>
</linearGradient>
<linearGradient id="paint10_linear" x1="53.177" y1="44.6413" x2="53.177" y2="46.2509" gradientUnits="userSpaceOnUse">
<stop stop-color="#E2E2E2"/>
<stop offset="0.2283" stop-color="#EDEDED"/>
<stop offset="0.636" stop-color="#FAFAFA"/>
<stop offset="1" stop-color="white"/>
</linearGradient>
<linearGradient id="paint11_linear" x1="55.3446" y1="42.8654" x2="29.5292" y2="42.8654" gradientUnits="userSpaceOnUse">
<stop stop-color="#BE73DE"/>
<stop offset="1" stop-color="#514EB7"/>
</linearGradient>
<linearGradient id="paint12_linear" x1="54.3623" y1="42.0488" x2="54.446" y2="44.0606" gradientUnits="userSpaceOnUse">
<stop stop-color="#E2E2E2"/>
<stop offset="0.1153" stop-color="#E6E6E6"/>
<stop offset="1" stop-color="white"/>
</linearGradient>
<linearGradient id="paint13_linear" x1="46.9468" y1="50.5152" x2="30.7734" y2="50.5152" gradientUnits="userSpaceOnUse">
<stop stop-color="#BE73DE"/>
<stop offset="1" stop-color="#514EB7"/>
</linearGradient>
<linearGradient id="paint14_linear" x1="51.2018" y1="49.8128" x2="51.1878" y2="51.2212" gradientUnits="userSpaceOnUse">
<stop stop-color="#E2E2E2"/>
<stop offset="0.589" stop-color="#F6F6F6"/>
<stop offset="1" stop-color="white"/>
</linearGradient>
<linearGradient id="paint15_linear" x1="43.4218" y1="53.0651" x2="31.0844" y2="53.0651" gradientUnits="userSpaceOnUse">
<stop stop-color="#BE73DE"/>
<stop offset="1" stop-color="#514EB7"/>
</linearGradient>
<linearGradient id="paint16_linear" x1="49.1508" y1="52.3588" x2="49.1368" y2="53.7672" gradientUnits="userSpaceOnUse">
<stop stop-color="#E2E2E2"/>
<stop offset="0.1252" stop-color="#E7E7E7"/>
<stop offset="0.6292" stop-color="#F9F9F9"/>
<stop offset="1" stop-color="white"/>
</linearGradient>
<linearGradient id="paint17_linear" x1="52.027" y1="60.1004" x2="31.7065" y2="60.1004" gradientUnits="userSpaceOnUse">
<stop stop-color="#BE73DE"/>
<stop offset="1" stop-color="#514EB7"/>
</linearGradient>
<linearGradient id="paint18_linear" x1="38.8584" y1="62.0152" x2="58.0178" y2="62.0152" gradientUnits="userSpaceOnUse">
<stop stop-color="#B7B4B1"/>
<stop offset="0.5456" stop-color="#959390"/>
<stop offset="1" stop-color="#7D7B79"/>
</linearGradient>
<linearGradient id="paint19_linear" x1="38.8584" y1="63.418" x2="58.0178" y2="63.418" gradientUnits="userSpaceOnUse">
<stop stop-color="#B7B4B1"/>
<stop offset="0.5456" stop-color="#959390"/>
<stop offset="1" stop-color="#7D7B79"/>
</linearGradient>
<linearGradient id="paint20_linear" x1="38.8584" y1="64.9014" x2="58.0178" y2="64.9014" gradientUnits="userSpaceOnUse">
<stop stop-color="#B7B4B1"/>
<stop offset="0.5456" stop-color="#959390"/>
<stop offset="1" stop-color="#7D7B79"/>
</linearGradient>
<linearGradient id="paint21_linear" x1="38.8584" y1="66.4238" x2="58.0178" y2="66.4238" gradientUnits="userSpaceOnUse">
<stop stop-color="#B7B4B1"/>
<stop offset="0.5456" stop-color="#959390"/>
<stop offset="1" stop-color="#7D7B79"/>
</linearGradient>
<linearGradient id="paint22_linear" x1="44.3924" y1="53.0197" x2="26.0814" y2="68.1603" gradientUnits="userSpaceOnUse">
<stop stop-color="#CAEDC0"/>
<stop offset="0.0617" stop-color="#C2EAB9"/>
<stop offset="0.706" stop-color="#6FCA6E"/>
<stop offset="1" stop-color="#4EBD50"/>
</linearGradient>
<linearGradient id="paint23_linear" x1="31.2596" y1="64.0244" x2="33.008" y2="64.0244" gradientUnits="userSpaceOnUse">
<stop stop-color="#F7F7F7"/>
<stop offset="1" stop-color="white"/>
</linearGradient>
<linearGradient id="paint24_linear" x1="33.008" y1="63.4411" x2="35.6069" y2="63.4411" gradientUnits="userSpaceOnUse">
<stop stop-color="#F7F7F7"/>
<stop offset="1" stop-color="white"/>
</linearGradient>
<linearGradient id="paint25_linear" x1="53.1767" y1="72.2103" x2="33.4779" y2="71.9111" gradientUnits="userSpaceOnUse">
<stop stop-color="#BE73DE"/>
<stop offset="1" stop-color="#514EB7"/>
</linearGradient>
<linearGradient id="paint26_linear" x1="39.5163" y1="73.9943" x2="58.6758" y2="73.9943" gradientUnits="userSpaceOnUse">
<stop stop-color="#B7B4B1"/>
<stop offset="0.5456" stop-color="#959390"/>
<stop offset="1" stop-color="#7D7B79"/>
</linearGradient>
<linearGradient id="paint27_linear" x1="39.5163" y1="75.397" x2="58.6758" y2="75.397" gradientUnits="userSpaceOnUse">
<stop stop-color="#B7B4B1"/>
<stop offset="0.5456" stop-color="#959390"/>
<stop offset="1" stop-color="#7D7B79"/>
</linearGradient>
<linearGradient id="paint28_linear" x1="39.5163" y1="76.8804" x2="58.6758" y2="76.8804" gradientUnits="userSpaceOnUse">
<stop stop-color="#B7B4B1"/>
<stop offset="0.5456" stop-color="#959390"/>
<stop offset="1" stop-color="#7D7B79"/>
</linearGradient>
<linearGradient id="paint29_linear" x1="39.5163" y1="78.4029" x2="58.6758" y2="78.4029" gradientUnits="userSpaceOnUse">
<stop stop-color="#B7B4B1"/>
<stop offset="0.5456" stop-color="#959390"/>
<stop offset="1" stop-color="#7D7B79"/>
</linearGradient>
<linearGradient id="paint30_linear" x1="43.9354" y1="65.7269" x2="27.4657" y2="78.8938" gradientUnits="userSpaceOnUse">
<stop stop-color="#CAEDC0"/>
<stop offset="0.0617" stop-color="#C2EAB9"/>
<stop offset="0.706" stop-color="#6FCA6E"/>
<stop offset="1" stop-color="#4EBD50"/>
</linearGradient>
<linearGradient id="paint31_linear" x1="31.2596" y1="75.6417" x2="33.008" y2="75.6417" gradientUnits="userSpaceOnUse">
<stop stop-color="#F7F7F7"/>
<stop offset="1" stop-color="white"/>
</linearGradient>
<linearGradient id="paint32_linear" x1="33.008" y1="75.0584" x2="35.6069" y2="75.0584" gradientUnits="userSpaceOnUse">
<stop stop-color="#F7F7F7"/>
<stop offset="1" stop-color="white"/>
</linearGradient>
<linearGradient id="paint33_linear" x1="66.1074" y1="60.1541" x2="102.723" y2="60.1541" gradientUnits="userSpaceOnUse">
<stop stop-color="#F7F7F7"/>
<stop offset="1" stop-color="white"/>
</linearGradient>
<linearGradient id="paint34_linear" x1="93.7012" y1="40.0652" x2="70.6851" y2="40.2646" gradientUnits="userSpaceOnUse">
<stop stop-color="#BE73DE"/>
<stop offset="1" stop-color="#514EB7"/>
</linearGradient>
<linearGradient id="paint35_linear" x1="94.8426" y1="41.9853" x2="68.094" y2="42.085" gradientUnits="userSpaceOnUse">
<stop stop-color="#BE73DE"/>
<stop offset="1" stop-color="#514EB7"/>
</linearGradient>
<linearGradient id="paint36_linear" x1="94.9486" y1="43.9924" x2="69.6516" y2="43.793" gradientUnits="userSpaceOnUse">
<stop stop-color="#BE73DE"/>
<stop offset="1" stop-color="#514EB7"/>
</linearGradient>
<linearGradient id="paint37_linear" x1="70.5973" y1="81.0854" x2="75.6724" y2="81.0854" gradientUnits="userSpaceOnUse">
<stop stop-color="#BE73DE"/>
<stop offset="1" stop-color="#514EB7"/>
</linearGradient>
<linearGradient id="paint38_linear" x1="92.4607" y1="48.4271" x2="73.0733" y2="48.4271" gradientUnits="userSpaceOnUse">
<stop stop-color="#BE73DE"/>
<stop offset="1" stop-color="#514EB7"/>
</linearGradient>
<linearGradient id="paint39_linear" x1="78.8297" y1="49.7693" x2="97.9891" y2="49.7693" gradientUnits="userSpaceOnUse">
<stop stop-color="#B7B4B1"/>
<stop offset="0.5456" stop-color="#959390"/>
<stop offset="1" stop-color="#7D7B79"/>
</linearGradient>
<linearGradient id="paint40_linear" x1="78.8297" y1="50.7526" x2="97.9891" y2="50.7526" gradientUnits="userSpaceOnUse">
<stop stop-color="#B7B4B1"/>
<stop offset="0.5456" stop-color="#959390"/>
<stop offset="1" stop-color="#7D7B79"/>
</linearGradient>
<linearGradient id="paint41_linear" x1="78.8297" y1="51.7924" x2="97.9891" y2="51.7924" gradientUnits="userSpaceOnUse">
<stop stop-color="#B7B4B1"/>
<stop offset="0.5456" stop-color="#959390"/>
<stop offset="1" stop-color="#7D7B79"/>
</linearGradient>
<linearGradient id="paint42_linear" x1="78.8297" y1="52.8595" x2="97.9891" y2="52.8595" gradientUnits="userSpaceOnUse">
<stop stop-color="#B7B4B1"/>
<stop offset="0.5456" stop-color="#959390"/>
<stop offset="1" stop-color="#7D7B79"/>
</linearGradient>
<linearGradient id="paint43_linear" x1="70.5971" y1="50.5152" x2="75.6721" y2="50.5152" gradientUnits="userSpaceOnUse">
<stop stop-color="#BE73DE"/>
<stop offset="1" stop-color="#514EB7"/>
</linearGradient>
<linearGradient id="paint44_linear" x1="71.2807" y1="49.5071" x2="76.7622" y2="49.5071" gradientUnits="userSpaceOnUse">
<stop stop-color="#BE73DE"/>
<stop offset="1" stop-color="#514EB7"/>
</linearGradient>
<linearGradient id="paint45_linear" x1="92.3571" y1="56.2844" x2="72.1417" y2="55.9853" gradientUnits="userSpaceOnUse">
<stop stop-color="#BE73DE"/>
<stop offset="1" stop-color="#514EB7"/>
</linearGradient>
<linearGradient id="paint46_linear" x1="78.8297" y1="57.5013" x2="97.9891" y2="57.5013" gradientUnits="userSpaceOnUse">
<stop stop-color="#B7B4B1"/>
<stop offset="0.5456" stop-color="#959390"/>
<stop offset="1" stop-color="#7D7B79"/>
</linearGradient>
<linearGradient id="paint47_linear" x1="78.8297" y1="58.4845" x2="97.9891" y2="58.4845" gradientUnits="userSpaceOnUse">
<stop stop-color="#B7B4B1"/>
<stop offset="0.5456" stop-color="#959390"/>
<stop offset="1" stop-color="#7D7B79"/>
</linearGradient>
<linearGradient id="paint48_linear" x1="78.8297" y1="59.5243" x2="97.9891" y2="59.5243" gradientUnits="userSpaceOnUse">
<stop stop-color="#B7B4B1"/>
<stop offset="0.5456" stop-color="#959390"/>
<stop offset="1" stop-color="#7D7B79"/>
</linearGradient>
<linearGradient id="paint49_linear" x1="78.8297" y1="60.5915" x2="97.9891" y2="60.5915" gradientUnits="userSpaceOnUse">
<stop stop-color="#B7B4B1"/>
<stop offset="0.5456" stop-color="#959390"/>
<stop offset="1" stop-color="#7D7B79"/>
</linearGradient>
<linearGradient id="paint50_linear" x1="70.5971" y1="58.5289" x2="75.6721" y2="58.5289" gradientUnits="userSpaceOnUse">
<stop stop-color="#BE73DE"/>
<stop offset="1" stop-color="#514EB7"/>
</linearGradient>
<linearGradient id="paint51_linear" x1="71.2807" y1="57.5207" x2="76.7622" y2="57.5207" gradientUnits="userSpaceOnUse">
<stop stop-color="#BE73DE"/>
<stop offset="1" stop-color="#514EB7"/>
</linearGradient>
<linearGradient id="paint52_linear" x1="92.156" y1="63.9765" x2="72.8733" y2="63.7771" gradientUnits="userSpaceOnUse">
<stop stop-color="#BE73DE"/>
<stop offset="1" stop-color="#514EB7"/>
</linearGradient>
<linearGradient id="paint53_linear" x1="78.8297" y1="65.2334" x2="97.9891" y2="65.2334" gradientUnits="userSpaceOnUse">
<stop stop-color="#B7B4B1"/>
<stop offset="0.5456" stop-color="#959390"/>
<stop offset="1" stop-color="#7D7B79"/>
</linearGradient>
<linearGradient id="paint54_linear" x1="78.8297" y1="66.2166" x2="97.9891" y2="66.2166" gradientUnits="userSpaceOnUse">
<stop stop-color="#B7B4B1"/>
<stop offset="0.5456" stop-color="#959390"/>
<stop offset="1" stop-color="#7D7B79"/>
</linearGradient>
<linearGradient id="paint55_linear" x1="78.8297" y1="67.2564" x2="97.9891" y2="67.2564" gradientUnits="userSpaceOnUse">
<stop stop-color="#B7B4B1"/>
<stop offset="0.5456" stop-color="#959390"/>
<stop offset="1" stop-color="#7D7B79"/>
</linearGradient>
<linearGradient id="paint56_linear" x1="78.8297" y1="68.3235" x2="97.9891" y2="68.3235" gradientUnits="userSpaceOnUse">
<stop stop-color="#B7B4B1"/>
<stop offset="0.5456" stop-color="#959390"/>
<stop offset="1" stop-color="#7D7B79"/>
</linearGradient>
<linearGradient id="paint57_linear" x1="70.5971" y1="66.5425" x2="75.6721" y2="66.5425" gradientUnits="userSpaceOnUse">
<stop stop-color="#BE73DE"/>
<stop offset="1" stop-color="#514EB7"/>
</linearGradient>
<linearGradient id="paint58_linear" x1="71.2807" y1="65.5344" x2="76.7622" y2="65.5344" gradientUnits="userSpaceOnUse">
<stop stop-color="#BE73DE"/>
<stop offset="1" stop-color="#514EB7"/>
</linearGradient>
<linearGradient id="paint59_linear" x1="70.5971" y1="74.5561" x2="75.6721" y2="74.5561" gradientUnits="userSpaceOnUse">
<stop stop-color="#BE73DE"/>
<stop offset="1" stop-color="#514EB7"/>
</linearGradient>
<linearGradient id="paint60_linear" x1="71.2807" y1="73.548" x2="76.7622" y2="73.548" gradientUnits="userSpaceOnUse">
<stop stop-color="#BE73DE"/>
<stop offset="1" stop-color="#514EB7"/>
</linearGradient>
<linearGradient id="paint61_linear" x1="94.4395" y1="98.6975" x2="89.3474" y2="70.3538" gradientUnits="userSpaceOnUse">
<stop stop-color="#E2E2E2"/>
<stop offset="0.1153" stop-color="#E6E6E6"/>
<stop offset="1" stop-color="white"/>
</linearGradient>
<linearGradient id="paint62_linear" x1="73.6173" y1="76.5972" x2="80.3817" y2="77.5573" gradientUnits="userSpaceOnUse">
<stop stop-color="#F5F5F5"/>
<stop offset="0.405" stop-color="#DDDDDD"/>
<stop offset="1" stop-color="#B3B3B3"/>
</linearGradient>
<linearGradient id="paint63_linear" x1="100.444" y1="74.2048" x2="79.6049" y2="74.2048" gradientUnits="userSpaceOnUse">
<stop stop-color="#BE73DE"/>
<stop offset="1" stop-color="#514EB7"/>
</linearGradient>
<linearGradient id="paint64_linear" x1="88.9577" y1="75.7414" x2="104.332" y2="75.7414" gradientUnits="userSpaceOnUse">
<stop stop-color="#B7B4B1"/>
<stop offset="0.5456" stop-color="#959390"/>
<stop offset="1" stop-color="#7D7B79"/>
</linearGradient>
<linearGradient id="paint65_linear" x1="88.9577" y1="76.867" x2="104.332" y2="76.867" gradientUnits="userSpaceOnUse">
<stop stop-color="#B7B4B1"/>
<stop offset="0.5456" stop-color="#959390"/>
<stop offset="1" stop-color="#7D7B79"/>
</linearGradient>
<linearGradient id="paint66_linear" x1="88.9577" y1="78.0573" x2="104.332" y2="78.0573" gradientUnits="userSpaceOnUse">
<stop stop-color="#B7B4B1"/>
<stop offset="0.5456" stop-color="#959390"/>
<stop offset="1" stop-color="#7D7B79"/>
</linearGradient>
<linearGradient id="paint67_linear" x1="88.9577" y1="79.279" x2="104.332" y2="79.279" gradientUnits="userSpaceOnUse">
<stop stop-color="#B7B4B1"/>
<stop offset="0.5456" stop-color="#959390"/>
<stop offset="1" stop-color="#7D7B79"/>
</linearGradient>
<linearGradient id="paint68_linear" x1="89.2779" y1="70.0023" x2="80.6856" y2="80.673" gradientUnits="userSpaceOnUse">
<stop stop-color="#CAEDC0"/>
<stop offset="0.0617" stop-color="#C2EAB9"/>
<stop offset="0.706" stop-color="#6FCA6E"/>
<stop offset="1" stop-color="#4EBD50"/>
</linearGradient>
<linearGradient id="paint69_linear" x1="82.8602" y1="77.3536" x2="84.2632" y2="77.3536" gradientUnits="userSpaceOnUse">
<stop stop-color="#F7F7F7"/>
<stop offset="1" stop-color="white"/>
</linearGradient>
<linearGradient id="paint70_linear" x1="84.2632" y1="76.8855" x2="86.3487" y2="76.8855" gradientUnits="userSpaceOnUse">
<stop stop-color="#F7F7F7"/>
<stop offset="1" stop-color="white"/>
</linearGradient>
<linearGradient id="paint71_linear" x1="100.753" y1="83.7129" x2="81.1583" y2="83.8126" gradientUnits="userSpaceOnUse">
<stop stop-color="#BE73DE"/>
<stop offset="1" stop-color="#514EB7"/>
</linearGradient>
<linearGradient id="paint72_linear" x1="88.9577" y1="85.2892" x2="104.332" y2="85.2892" gradientUnits="userSpaceOnUse">
<stop stop-color="#B7B4B1"/>
<stop offset="0.5456" stop-color="#959390"/>
<stop offset="1" stop-color="#7D7B79"/>
</linearGradient>
<linearGradient id="paint73_linear" x1="88.9577" y1="86.4148" x2="104.332" y2="86.4148" gradientUnits="userSpaceOnUse">
<stop stop-color="#B7B4B1"/>
<stop offset="0.5456" stop-color="#959390"/>
<stop offset="1" stop-color="#7D7B79"/>
</linearGradient>
<linearGradient id="paint74_linear" x1="88.9577" y1="87.6052" x2="104.332" y2="87.6052" gradientUnits="userSpaceOnUse">
<stop stop-color="#B7B4B1"/>
<stop offset="0.5456" stop-color="#959390"/>
<stop offset="1" stop-color="#7D7B79"/>
</linearGradient>
<linearGradient id="paint75_linear" x1="88.9577" y1="88.8268" x2="104.332" y2="88.8268" gradientUnits="userSpaceOnUse">
<stop stop-color="#B7B4B1"/>
<stop offset="0.5456" stop-color="#959390"/>
<stop offset="1" stop-color="#7D7B79"/>
</linearGradient>
<linearGradient id="paint76_linear" x1="89.7276" y1="79.1735" x2="79.5523" y2="90.3142" gradientUnits="userSpaceOnUse">
<stop stop-color="#CAEDC0"/>
<stop offset="0.0617" stop-color="#C2EAB9"/>
<stop offset="0.706" stop-color="#6FCA6E"/>
<stop offset="1" stop-color="#4EBD50"/>
</linearGradient>
<linearGradient id="paint77_linear" x1="82.3321" y1="86.6112" x2="83.7352" y2="86.6112" gradientUnits="userSpaceOnUse">
<stop stop-color="#F7F7F7"/>
<stop offset="1" stop-color="white"/>
</linearGradient>
<linearGradient id="paint78_linear" x1="83.7352" y1="86.1431" x2="85.8207" y2="86.1431" gradientUnits="userSpaceOnUse">
<stop stop-color="#F7F7F7"/>
<stop offset="1" stop-color="white"/>
</linearGradient>
<linearGradient id="paint79_linear" x1="100.238" y1="93.2915" x2="80.5391" y2="93.1917" gradientUnits="userSpaceOnUse">
<stop stop-color="#BE73DE"/>
<stop offset="1" stop-color="#514EB7"/>
</linearGradient>
<linearGradient id="paint80_linear" x1="88.9577" y1="94.7912" x2="104.332" y2="94.7912" gradientUnits="userSpaceOnUse">
<stop stop-color="#B7B4B1"/>
<stop offset="0.5456" stop-color="#959390"/>
<stop offset="1" stop-color="#7D7B79"/>
</linearGradient>
<linearGradient id="paint81_linear" x1="88.9577" y1="95.9169" x2="104.332" y2="95.9169" gradientUnits="userSpaceOnUse">
<stop stop-color="#B7B4B1"/>
<stop offset="0.5456" stop-color="#959390"/>
<stop offset="1" stop-color="#7D7B79"/>
</linearGradient>
<linearGradient id="paint82_linear" x1="88.9577" y1="97.1073" x2="104.332" y2="97.1073" gradientUnits="userSpaceOnUse">
<stop stop-color="#B7B4B1"/>
<stop offset="0.5456" stop-color="#959390"/>
<stop offset="1" stop-color="#7D7B79"/>
</linearGradient>
<linearGradient id="paint83_linear" x1="88.9577" y1="98.3289" x2="104.332" y2="98.3289" gradientUnits="userSpaceOnUse">
<stop stop-color="#B7B4B1"/>
<stop offset="0.5456" stop-color="#959390"/>
<stop offset="1" stop-color="#7D7B79"/>
</linearGradient>
<linearGradient id="paint84_linear" x1="89.8493" y1="88.7786" x2="81.0931" y2="98.0326" gradientUnits="userSpaceOnUse">
<stop stop-color="#CAEDC0"/>
<stop offset="0.0617" stop-color="#C2EAB9"/>
<stop offset="0.706" stop-color="#6FCA6E"/>
<stop offset="1" stop-color="#4EBD50"/>
</linearGradient>
<linearGradient id="paint85_linear" x1="82.3321" y1="96.1134" x2="83.7352" y2="96.1134" gradientUnits="userSpaceOnUse">
<stop stop-color="#F7F7F7"/>
<stop offset="1" stop-color="white"/>
</linearGradient>
<linearGradient id="paint86_linear" x1="83.7352" y1="95.6453" x2="85.8207" y2="95.6453" gradientUnits="userSpaceOnUse">
<stop stop-color="#F7F7F7"/>
<stop offset="1" stop-color="white"/>
</linearGradient>
<linearGradient id="paint87_linear" x1="94.4627" y1="101" x2="94.4533" y2="97.6055" gradientUnits="userSpaceOnUse">
<stop stop-color="#E2E2E2"/>
<stop offset="0.00534332" stop-color="#E2E2E2"/>
<stop offset="0.2797" stop-color="#F2F2F2"/>
<stop offset="0.5881" stop-color="#FCFCFC"/>
<stop offset="1" stop-color="white"/>
</linearGradient>
<clipPath id="clip0">
<rect width="84.724" height="64.5654" fill="white" transform="translate(25.0303 36.4111)"/>
</clipPath>
</defs>
</svg>
