<svg width="136" height="136" viewBox="0 0 136 136" fill="none" xmlns="http://www.w3.org/2000/svg">
<path d="M68.0005 136C105.556 136 136 105.555 136 68C136 30.4446 105.556 0 68.0005 0C30.4451 0 0.000488281 30.4446 0.000488281 68C0.000488281 105.555 30.4451 136 68.0005 136Z" fill="#43CB8E"/>
<circle cx="68.0005" cy="68" r="61" stroke="white" stroke-width="2"/>
<path d="M34.4671 39C33.9609 39 33.5508 39.4232 33.5508 39.9454V90.0482H35.3831V39.9454C35.3834 39.4235 34.9733 39 34.4671 39Z" fill="#E56353"/>
<path d="M46.6827 39C46.1765 39 45.7664 39.4232 45.7664 39.9454V90.0482H47.5987V39.9454C47.599 39.4235 47.1889 39 46.6827 39Z" fill="#E56353"/>
<path d="M45.7671 90.0477H35.384V39.9453C35.384 42.0121 45.7671 42.0121 45.7671 39.9453V90.0477Z" fill="#E1E6E9"/>
<path d="M48.5152 44.4702C48.009 44.4702 47.5989 44.8934 47.5989 45.4156V95.5184H49.4312V45.4153C49.4312 44.8934 49.0211 44.4702 48.5152 44.4702Z" fill="#3EA69B"/>
<path d="M60.731 44.4702C60.2249 44.4702 59.8147 44.8934 59.8147 45.4156V95.5184H61.6471V45.4153C61.6474 44.8934 61.2369 44.4702 60.731 44.4702Z" fill="#3EA69B"/>
<path d="M59.8152 95.5179H49.4321V45.4155C49.4321 47.4824 59.8152 47.4824 59.8152 45.4155V95.5179Z" fill="#E1E6E9"/>
<path d="M62.5631 39C62.0569 39 61.6467 39.4232 61.6467 39.9454V90.0482H63.4791V39.9454C63.4794 39.4235 63.0692 39 62.5631 39Z" fill="#F6C358"/>
<path d="M74.7787 39C74.2725 39 73.8623 39.4232 73.8623 39.9454V90.0482H75.6947V39.9454C75.695 39.4235 75.2848 39 74.7787 39Z" fill="#F6C358"/>
<path d="M73.863 90.0477H63.48V39.9453C63.48 42.0121 73.863 42.0121 73.863 39.9453V90.0477Z" fill="#E1E6E9"/>
<path d="M90.6612 39C90.155 39 89.7449 39.4232 89.7449 39.9454V90.0482H91.5772V39.9454C91.5775 39.4235 91.1671 39 90.6612 39Z" fill="#64798A"/>
<path d="M102.877 39C102.371 39 101.961 39.4232 101.961 39.9454V90.0482H103.793V39.9454C103.794 39.4235 103.383 39 102.877 39Z" fill="#64798A"/>
<path d="M101.96 90.0477H91.5769V39.9453C91.5769 42.0121 101.96 42.0121 101.96 39.9453V90.0477Z" fill="#E1E6E9"/>
<path d="M76.6114 44.4702C76.1052 44.4702 75.6951 44.8934 75.6951 45.4156V95.5184H77.5275V45.4153C77.5275 44.8934 77.1173 44.4702 76.6114 44.4702Z" fill="#27A2DB"/>
<path d="M88.8272 44.4702C88.321 44.4702 87.9109 44.8934 87.9109 45.4156V95.5184H89.7432V45.4153C89.7435 44.8934 89.3331 44.4702 88.8272 44.4702Z" fill="#27A2DB"/>
<path d="M87.9102 95.5179H77.5271V45.4155C77.5271 47.4824 87.9102 47.4824 87.9102 45.4155V95.5179Z" fill="#E1E6E9"/>
<path d="M107.535 90.0452H29.0005V96.1881H107.535V90.0452Z" fill="#DC8744"/>
</svg>
