<svg width="7" height="12" viewBox="0 0 7 12" fill="none" xmlns="http://www.w3.org/2000/svg">
<path d="M6.70756 10.8722C6.80026 10.7796 6.87381 10.6698 6.92399 10.5488C6.97417 10.4278 7 10.2981 7 10.1672C7 10.0362 6.97417 9.90651 6.92399 9.78554C6.87381 9.66456 6.80026 9.55468 6.70756 9.46216L2.82756 5.58216L6.70756 1.70216C6.89453 1.51518 6.99958 1.26159 6.99958 0.997163C6.99958 0.732737 6.89453 0.479138 6.70756 0.292161C6.52058 0.105184 6.26698 0.000142033 6.00256 0.00014201C5.73813 0.000141987 5.48453 0.105183 5.29756 0.292161L0.707556 4.88216C0.614853 4.97468 0.541305 5.08456 0.491124 5.20554C0.440942 5.32651 0.415113 5.45619 0.415113 5.58716C0.415113 5.71813 0.440942 5.84781 0.491124 5.96879C0.541305 6.08976 0.614853 6.19965 0.707556 6.29216L5.29756 10.8822C5.67756 11.2622 6.31756 11.2622 6.70756 10.8722Z" fill="#FF5773"/>
</svg>
