<svg width="17" height="27" viewBox="0 0 17 27" fill="none" xmlns="http://www.w3.org/2000/svg">
<path d="M15.6353 25.6835C15.8543 25.4649 16.0281 25.2053 16.1466 24.9195C16.2652 24.6338 16.3262 24.3274 16.3262 24.018C16.3262 23.7086 16.2652 23.4023 16.1466 23.1165C16.0281 22.8307 15.8543 22.5711 15.6353 22.3525L6.46937 13.1866L15.6353 4.02065C16.077 3.57895 16.3252 2.97986 16.3252 2.3552C16.3252 1.73053 16.077 1.13144 15.6353 0.68973C15.1936 0.248022 14.5945 -0.000124129 13.9699 -0.000124184C13.3452 -0.000124238 12.7461 0.248022 12.3044 0.689729L1.46117 11.533C1.24217 11.7515 1.06843 12.0111 0.949882 12.2969C0.831335 12.5827 0.770317 12.889 0.770317 13.1984C0.770317 13.5078 0.831335 13.8142 0.949882 14.0999C1.06843 14.3857 1.24217 14.6453 1.46117 14.8639L12.3044 25.7071C13.2021 26.6048 14.714 26.6048 15.6353 25.6835Z" fill="white"/>
</svg>
