<svg width="34" height="33" viewBox="0 0 34 33" fill="none" xmlns="http://www.w3.org/2000/svg">
<path d="M30.7007 3.07238C30.1961 2.72871 29.6288 2.48806 29.0313 2.36421C28.4338 2.24036 27.8177 2.23573 27.2182 2.35059C26.6188 2.46545 26.0479 2.69754 25.538 3.0336C25.0281 3.36965 24.5894 3.80307 24.2468 4.30908L14.2688 19.0252L9.79431 13.6597C9.40718 13.1787 8.92829 12.7798 8.38557 12.4863C7.84286 12.1928 7.24719 12.0105 6.63332 11.95C6.01945 11.8896 5.39968 11.9523 4.81016 12.1344C4.22065 12.3165 3.6732 12.6143 3.19977 13.0106C2.72633 13.4069 2.33638 13.8936 2.05267 14.4424C1.76897 14.9912 1.59719 15.591 1.54735 16.207C1.49752 16.8229 1.57064 17.4426 1.76243 18.0298C1.95423 18.6171 2.26086 19.1601 2.66444 19.6273L11.0871 29.7272C11.8828 30.684 13.0195 31.2718 14.2363 31.3809L14.8813 31.392C15.5994 31.3562 16.2994 31.1539 16.9263 30.801C17.5532 30.4482 18.0898 29.9544 18.4939 29.3586L31.9308 9.53715C32.2738 9.03163 32.5141 8.4634 32.6379 7.86492C32.7617 7.26644 32.7666 6.64942 32.6524 6.04911C32.5382 5.44879 32.307 4.87693 31.9722 4.36618C31.6373 3.85543 31.2052 3.4158 30.7007 3.07238Z" fill="white"/>
</svg>
