<svg width="36" height="25" viewBox="0 0 36 25" fill="none" xmlns="http://www.w3.org/2000/svg">
<path d="M35.002 0.723464C34.7704 0.494223 34.495 0.312269 34.1915 0.188099C33.888 0.0639284 33.5625 0 33.2338 0C32.905 0 32.5795 0.0639284 32.276 0.188099C31.9725 0.312269 31.6971 0.494223 31.4656 0.723464L12.9119 18.9691L5.11693 11.2893C4.87655 11.0613 4.59278 10.882 4.28184 10.7616C3.9709 10.6413 3.63887 10.5823 3.3047 10.5879C2.97054 10.5936 2.64078 10.6639 2.33426 10.7947C2.02775 10.9256 1.75047 11.1144 1.51827 11.3505C1.28606 11.5865 1.10348 11.8652 0.980944 12.1706C0.858405 12.476 0.79831 12.802 0.804092 13.1302C0.809873 13.4584 0.881418 13.7823 1.01464 14.0833C1.14786 14.3843 1.34015 14.6566 1.58053 14.8847L11.1437 24.2765C11.3753 24.5058 11.6507 24.6877 11.9542 24.8119C12.2577 24.9361 12.5832 25 12.9119 25C13.2407 25 13.5662 24.9361 13.8697 24.8119C14.1732 24.6877 14.4486 24.5058 14.6801 24.2765L35.002 4.31879C35.2547 4.08976 35.4565 3.81179 35.5945 3.5024C35.7325 3.19301 35.8037 2.8589 35.8037 2.52113C35.8037 2.18336 35.7325 1.84925 35.5945 1.53986C35.4565 1.23046 35.2547 0.952495 35.002 0.723464Z" fill="#04CC00"/>
</svg>
