<svg width="8" height="7" viewBox="0 0 8 7" fill="none" xmlns="http://www.w3.org/2000/svg">
<path d="M3.4648 0.826643L3.46497 0.827587L3.47818 0.823388C3.63998 0.771989 3.96124 0.743012 4.45602 0.743012H6.78178V1.55574H4.29456C3.79678 1.55574 3.4014 1.64917 3.12276 1.85047C2.74894 2.05403 2.47343 2.44072 2.2861 2.98855L2.28562 2.98838L2.28332 2.99829C2.24022 3.18392 2.21772 3.3485 2.21772 3.49081C2.21772 3.97369 2.39341 4.42247 2.73707 4.83492L2.73672 4.83521L2.74349 4.84191C2.96541 5.06195 3.17944 5.21516 3.3858 5.29267C3.61383 5.39731 3.91374 5.44613 4.27881 5.44613H6.78178V6.25886H4.40482C3.77153 6.25886 3.31866 6.17916 3.03321 6.03109L3.0333 6.03093L3.02785 6.02851C2.36625 5.73385 1.89491 5.25058 1.61059 4.57438C1.47153 4.23876 1.40173 3.88058 1.40173 3.49891C1.40173 2.67893 1.71609 1.97962 2.35094 1.39585C2.77102 1.06762 3.14191 0.882003 3.4648 0.826643ZM7.09992 0.521484V0.421484H6.99992H4.45602C3.95802 0.421484 3.60191 0.448717 3.40074 0.509188C3.018 0.579096 2.59951 0.794193 2.14645 1.14306L2.14621 1.14275L2.13968 1.14877C1.4376 1.79599 1.08359 2.58109 1.08359 3.49891C1.08359 3.92188 1.16075 4.32237 1.31555 4.6995L1.31554 4.6995L1.31607 4.70075C1.63521 5.44915 2.16298 5.99139 2.8963 6.32331C3.23566 6.49844 3.74278 6.58039 4.40482 6.58039H6.99992H7.09992V6.48039V5.2246V5.1246H6.99992H4.27881C3.94179 5.1246 3.68952 5.0793 3.51426 4.99646L3.51445 4.99607L3.50566 4.99288C3.34672 4.93517 3.16955 4.81455 2.97445 4.62233C2.67931 4.26324 2.53586 3.88676 2.53586 3.49081C2.53586 3.38004 2.55249 3.24363 2.58746 3.08035C2.7559 2.59756 2.99221 2.28738 3.28666 2.1286L3.28712 2.12946L3.29841 2.12116C3.51287 1.96358 3.83993 1.87727 4.29456 1.87727H6.99992H7.09992V1.77727V0.521484ZM3.91652 2.77912H3.81652V2.87912V4.12275V4.22275H3.91652H6.99992H7.09992V4.12275V2.87912V2.77912H6.99992H3.91652ZM6.78178 3.10065V3.90123H4.13466V3.10065H6.78178Z" fill="white" stroke="white" stroke-width="0.2"/>
</svg>
