<svg width="15" height="15" viewBox="0 0 15 15" fill="none" xmlns="http://www.w3.org/2000/svg">
<path fill-rule="evenodd" clip-rule="evenodd" d="M7.67207 13.8905C9.36692 13.8449 10.9742 13.1278 12.1404 11.8971C13.3066 10.6664 13.9361 9.02285 13.8905 7.328C13.8448 5.63314 13.1278 4.02583 11.8971 2.85966C10.6664 1.69348 9.02281 1.06396 7.32796 1.1096C5.6331 1.15523 4.02579 1.87227 2.85962 3.10298C1.69344 4.33369 1.06393 5.97725 1.10956 7.67211C1.15519 9.36696 1.87223 10.9743 3.10294 12.1404C4.33365 13.3066 5.97722 13.9361 7.67207 13.8905ZM7.69665 14.8034C9.63363 14.7513 11.4706 13.9318 12.8033 12.5253C14.1361 11.1188 14.8555 9.24039 14.8034 7.30342C14.7512 5.36644 13.9318 3.52951 12.5252 2.19674C11.1187 0.863969 9.24035 0.144523 7.30338 0.196675C5.3664 0.248826 3.52948 1.0683 2.1967 2.47483C0.863931 3.88135 0.144485 5.75971 0.196636 7.69669C0.248787 9.63366 1.06826 11.4706 2.47479 12.8034C3.88131 14.1361 5.75967 14.8556 7.69665 14.8034Z" fill="#FF5773"/>
<path d="M8.31431 6.18808L6.23077 6.50637L6.16525 6.8553L6.5781 6.92001C6.84822 6.97669 6.90378 7.07203 6.85255 7.34109L6.26406 10.5252C6.109 11.3489 6.39233 11.7268 7.03412 11.7095C7.53166 11.6961 8.10335 11.4505 8.35685 11.1276L8.42696 10.7457C8.2487 10.9112 7.98385 10.9823 7.80675 10.9871C7.55569 10.9939 7.45966 10.8201 7.51612 10.508L8.31431 6.18808Z" fill="#FF5773"/>
<path d="M6.96208 4.85034C7.46627 4.83676 7.864 4.41703 7.85042 3.91284C7.83685 3.40864 7.41712 3.01092 6.91292 3.02449C6.40873 3.03807 6.011 3.4578 6.02458 3.96199C6.03815 4.46619 6.45789 4.86391 6.96208 4.85034Z" fill="#FF5773"/>
</svg>
