<svg width="17" height="19" viewBox="0 0 17 19" fill="none" xmlns="http://www.w3.org/2000/svg">
<path d="M2.71429 0H9.5V1.35714H2.71429C2.35435 1.35714 2.00915 1.50013 1.75464 1.75464C1.50013 2.00915 1.35714 2.35435 1.35714 2.71429V16.2857C1.35714 16.6457 1.50013 16.9908 1.75464 17.2454C2.00915 17.4999 2.35435 17.6429 2.71429 17.6429H13.5714C13.9314 17.6429 14.2766 17.4999 14.5311 17.2454C14.7856 16.9908 14.9286 16.6457 14.9286 16.2857V6.78571H16.2857V16.2857C16.2857 17.0056 15.9997 17.696 15.4907 18.205C14.9817 18.714 14.2913 19 13.5714 19H2.71429C1.99441 19 1.30402 18.714 0.794996 18.205C0.285968 17.696 0 17.0056 0 16.2857V2.71429C0 1.99441 0.285968 1.30402 0.794996 0.794996C1.30402 0.285969 1.99441 0 2.71429 0Z" fill="white"/>
<path d="M9.5 4.75V0L16.2857 6.78571H11.5357C10.9958 6.78571 10.478 6.57124 10.0962 6.18947C9.71448 5.8077 9.5 5.2899 9.5 4.75Z" fill="white"/>
<rect x="3" y="14" width="10" height="1" rx="0.5" fill="white"/>
<rect x="3" y="11" width="10" height="1" rx="0.5" fill="white"/>
<rect x="3" y="8" width="10" height="1" rx="0.5" fill="white"/>
<rect x="3" y="5" width="6" height="1" rx="0.5" fill="white"/>
</svg>
