<svg width="12" height="14" viewBox="0 0 12 14" fill="none" xmlns="http://www.w3.org/2000/svg">
<path d="M8.36719 10.1992H6.75391C6.45187 10.1992 6.20703 10.4441 6.20703 10.7461C6.20703 11.0481 6.45187 11.293 6.75391 11.293H8.36719C8.66923 11.293 8.91406 11.0481 8.91406 10.7461C8.91406 10.4441 8.66923 10.1992 8.36719 10.1992Z" fill="#FF5773"/>
<path d="M8.36719 6.89062H6.75391C6.45187 6.89062 6.20703 7.13546 6.20703 7.4375C6.20703 7.73954 6.45187 7.98438 6.75391 7.98438H8.36719C8.66923 7.98438 8.91406 7.73954 8.91406 7.4375C8.91406 7.13546 8.66923 6.89062 8.36719 6.89062Z" fill="#FF5773"/>
<path d="M10.5517 9.625C10.8537 9.625 11.0985 9.38016 11.0985 9.07812V2.1875C11.0985 0.981313 10.1172 0 8.91103 0H2.1875C0.981312 0 0 0.981313 0 2.1875V11.8125C0 13.0187 0.981312 14 2.1875 14H8.911C10.1172 14 11.0985 13.0187 11.0985 11.8125C11.0985 11.5105 10.8537 11.2656 10.5517 11.2656C10.2496 11.2656 10.0048 11.5105 10.0048 11.8125C10.0048 12.4156 9.51412 12.9062 8.91103 12.9062H2.1875C1.58441 12.9062 1.09375 12.4156 1.09375 11.8125V2.1875C1.09375 1.58441 1.58441 1.09375 2.1875 1.09375H8.91103C9.51412 1.09375 10.0048 1.58441 10.0048 2.1875V9.07812C10.0048 9.38016 10.2496 9.625 10.5517 9.625Z" fill="#FF5773"/>
<path d="M5.54362 2.17606C5.31081 1.98373 4.96609 2.01648 4.77373 2.24934L3.59234 3.67923L3.12618 3.20052C2.9155 2.98415 2.56924 2.97953 2.35285 3.19024C2.13647 3.40095 2.13185 3.74718 2.34256 3.96358L2.9292 4.56604C2.93404 4.57102 2.93896 4.57589 2.94399 4.58067C3.12126 4.74941 3.35787 4.84325 3.60125 4.84325C3.62214 4.8432 3.64317 4.84251 3.66417 4.84109C3.9279 4.82351 4.17419 4.69587 4.34063 4.49071L5.6169 2.94598C5.80929 2.71312 5.77648 2.36843 5.54362 2.17606Z" fill="#FF5773"/>
<path d="M5.54361 8.84451C5.31081 8.65217 4.96608 8.68496 4.77372 8.91779L3.59201 10.3481L3.12511 9.87124C2.91377 9.65544 2.56754 9.65183 2.35175 9.86315C2.13595 10.0745 2.13234 10.4207 2.34363 10.6365L2.93026 11.2356C2.93474 11.2402 2.93931 11.2447 2.94396 11.2491C3.12123 11.4178 3.35786 11.5117 3.60125 11.5117C3.62217 11.5116 3.64317 11.511 3.66417 11.5096C3.92787 11.492 4.17415 11.3643 4.34062 11.1592L5.61689 9.61443C5.80928 9.38157 5.77647 9.03687 5.54361 8.84451Z" fill="#FF5773"/>
<path d="M8.36719 3.52734H6.75391C6.45187 3.52734 6.20703 3.77218 6.20703 4.07422C6.20703 4.37626 6.45187 4.62109 6.75391 4.62109H8.36719C8.66923 4.62109 8.91406 4.37626 8.91406 4.07422C8.91406 3.77218 8.66923 3.52734 8.36719 3.52734Z" fill="#FF5773"/>
<path d="M5.54361 5.53593C5.31081 5.34356 4.96608 5.37638 4.77372 5.60921L3.59201 7.03948L3.12511 6.56266C2.91377 6.34686 2.56754 6.34325 2.35175 6.55456C2.13595 6.76588 2.13234 7.11213 2.34363 7.32793L2.93026 7.927C2.93474 7.93157 2.93931 7.93608 2.94396 7.94051C3.12123 8.10925 3.35786 8.20312 3.60125 8.20312C3.62217 8.20306 3.64317 8.20238 3.66417 8.20098C3.92787 8.1834 4.17415 8.05576 4.34062 7.8506L5.61689 6.30585C5.80928 6.07299 5.77647 5.72829 5.54361 5.53593Z" fill="#FF5773"/>
</svg>
