<svg width="19" height="12" viewBox="0 0 19 12" fill="none" xmlns="http://www.w3.org/2000/svg">
<path d="M18.9996 2.17C19.0013 1.97333 18.9378 1.78015 18.8161 1.61229C18.6944 1.44442 18.5194 1.30855 18.3108 1.22C18.1132 1.13061 17.8894 1.09021 17.6656 1.10348C17.4418 1.11675 17.227 1.18316 17.0462 1.295L14.2497 2.8V1C14.2497 0.734784 14.1246 0.48043 13.9019 0.292893C13.6792 0.105357 13.3771 0 13.0622 0H2.37495C1.74507 0 1.14099 0.210714 0.695606 0.585786C0.250217 0.960859 0 1.46957 0 2V10C0 10.5304 0.250217 11.0391 0.695606 11.4142C1.14099 11.7893 1.74507 12 2.37495 12H13.0622C13.3771 12 13.6792 11.8946 13.9019 11.7071C14.1246 11.5196 14.2497 11.2652 14.2497 11V9.2L17.0046 10.7C17.1889 10.8188 17.4094 10.8913 17.6406 10.909C17.8717 10.9267 18.1041 10.8889 18.3108 10.8C18.5231 10.71 18.7005 10.571 18.8224 10.3992C18.9444 10.2275 19.0058 10.03 18.9996 9.83V2.17ZM17.7705 9.885C17.7349 9.885 17.7052 9.885 17.6577 9.855L13.0622 7.385V11H2.37495C2.06001 11 1.75797 10.8946 1.53528 10.7071C1.31258 10.5196 1.18747 10.2652 1.18747 10V2C1.18747 1.73478 1.31258 1.48043 1.53528 1.29289C1.75797 1.10536 2.06001 1 2.37495 1H13.0622V4.615L17.6933 2.115C17.7045 2.10809 17.7181 2.10437 17.7319 2.10437C17.7458 2.10437 17.7593 2.10809 17.7705 2.115C17.7835 2.11924 17.7946 2.12686 17.802 2.13676C17.8095 2.14665 17.813 2.1583 17.8121 2.17V9.83C17.813 9.8417 17.8095 9.85335 17.802 9.86324C17.7946 9.87314 17.7835 9.88076 17.7705 9.885Z" fill="white"/>
</svg>
