<svg width="489" height="456" viewBox="0 0 489 456" fill="none" xmlns="http://www.w3.org/2000/svg">
<path d="M192.198 128.272C191.866 128.051 191.756 127.609 191.866 127.167C196.064 116.563 206.889 106.953 219.481 102.756C219.923 102.645 220.475 102.866 220.586 103.308C220.696 103.75 220.475 104.302 220.033 104.412C208.104 108.389 197.5 117.667 193.523 127.719C193.302 128.161 192.861 128.382 192.308 128.272C192.308 128.382 192.198 128.272 192.198 128.272Z" fill="#33A344"/>
<path d="M159.502 133.463C159.281 133.353 159.171 133.132 159.171 132.8C159.171 132.248 159.502 131.806 159.944 131.806C174.966 130.37 187.89 135.12 199.267 146.497C199.598 146.828 199.598 147.381 199.267 147.823C198.936 148.154 198.383 148.154 197.942 147.823C186.896 136.887 174.524 132.248 160.054 133.684C159.944 133.573 159.723 133.573 159.502 133.463Z" fill="#33A344"/>
<path d="M157.293 105.075C157.183 104.965 157.072 104.854 156.962 104.633C156.741 104.192 156.962 103.639 157.514 103.418C166.461 99.7733 179.826 103.529 186.564 109.273C186.896 109.604 187.006 110.156 186.675 110.598C186.344 110.93 185.791 111.04 185.349 110.709C178.943 105.296 166.461 101.872 158.066 105.186C157.845 105.296 157.514 105.186 157.293 105.075Z" fill="#33A344"/>
<path d="M159.944 71.1646C159.723 70.9437 159.613 70.7227 159.613 70.3914C159.723 69.8391 160.165 69.5077 160.607 69.6181C167.345 70.3914 173.751 72.4901 179.606 75.6934C180.047 75.9143 180.268 76.4666 179.937 76.9084C179.716 77.3502 179.164 77.5712 178.722 77.2398C172.978 74.147 166.792 72.1587 160.275 71.3855C160.275 71.3855 160.054 71.275 159.944 71.1646Z" fill="#F2DDB5"/>
<path d="M183.14 94.9131C182.809 94.5817 182.698 94.0294 183.03 93.5876C191.645 83.2045 204.79 76.577 218.266 75.9142C218.818 75.9142 219.26 76.2456 219.26 76.7979C219.26 77.3502 218.929 77.7921 218.376 77.7921C205.453 78.4548 192.75 84.7509 184.466 94.8026C184.134 95.134 183.472 95.2445 183.14 94.9131Z" fill="#F2DDB5"/>
<path d="M161.159 96.2386C160.938 96.1281 160.828 95.7967 160.828 95.5758C160.828 95.0235 161.159 94.6922 161.711 94.5817C170.327 94.2503 179.053 96.7909 186.343 101.541C186.785 101.872 186.896 102.424 186.564 102.866C186.233 103.308 185.681 103.418 185.239 103.087C178.39 98.5582 169.996 96.1281 161.711 96.4595C161.49 96.4595 161.269 96.349 161.159 96.2386Z" fill="#F2DDB5"/>
<path d="M192.087 119.877C191.756 119.545 191.645 119.104 191.866 118.772C199.598 105.517 214.51 97.0119 229.754 97.1223C230.306 97.1223 230.637 97.5641 230.637 98.006C230.637 98.5583 230.195 98.8896 229.754 98.8896C215.063 98.7792 200.814 106.953 193.413 119.545C193.192 119.987 192.64 120.098 192.198 119.877C192.087 119.877 192.087 119.877 192.087 119.877Z" fill="#F2DDB5"/>
<path d="M167.786 126.283C167.676 126.173 167.676 126.173 167.566 126.062C167.345 125.621 167.455 125.068 167.897 124.847C176.071 120.429 186.012 119.656 194.738 122.859C195.18 123.08 195.512 123.522 195.291 124.074C195.07 124.516 194.628 124.847 194.076 124.626C185.902 121.644 176.402 122.307 168.781 126.504C168.56 126.615 168.118 126.504 167.786 126.283Z" fill="#F2DDB5"/>
<path d="M174.193 144.067C174.083 143.957 174.083 143.957 173.972 143.846C173.751 143.404 173.862 142.852 174.304 142.521C183.14 136.887 194.296 135.341 204.238 138.434C204.68 138.544 205.011 139.096 204.901 139.538C204.79 139.98 204.238 140.312 203.796 140.201C194.297 137.329 183.692 138.765 175.408 144.067C174.966 144.288 174.524 144.288 174.193 144.067Z" fill="#F2DDB5"/>
<path d="M201.145 135.672C200.813 135.341 200.703 134.899 200.924 134.568C206.778 124.074 218.376 117.226 230.416 117.115C230.969 117.115 231.3 117.557 231.3 117.999C231.3 118.551 230.858 118.883 230.416 118.883C219.039 118.993 208.104 125.4 202.581 135.451C202.36 135.893 201.808 136.004 201.366 135.783C201.255 135.783 201.255 135.783 201.145 135.672Z" fill="#F2DDB5"/>
<path opacity="0.15" d="M473.867 254.194L365.617 316.714C362.966 318.26 359.542 318.26 356.891 316.714L216.278 235.527C212.301 233.207 212.301 227.463 216.278 225.254L328.835 160.304C329.056 160.194 329.277 160.194 329.497 160.194L473.867 243.922C477.843 246.131 477.843 251.875 473.867 254.194Z" fill="#7974F2"/>
<path d="M361.089 312.406L216.388 228.899C215.836 228.568 215.504 227.905 215.504 227.021V199.959L219.591 202.279L238.259 213.104L241.904 215.202L360.205 283.466V310.528C360.315 311.412 360.647 312.074 361.089 312.406Z" fill="#761DC3"/>
<path d="M269.739 231.108V259.607L279.791 265.461V236.963L269.739 231.108ZM242.346 243.811L262.449 255.409V226.911L242.346 215.313V243.811Z" fill="#5D139E"/>
<path d="M472.873 215.202C472.762 215.092 472.541 215.092 472.32 215.313L363.187 278.385C361.53 279.268 360.315 281.588 360.315 283.466L242.014 215.202L238.369 213.104L219.702 202.279L215.615 199.959C215.615 198.081 216.94 195.872 218.487 194.878L327.62 131.806C327.841 131.696 328.062 131.696 328.172 131.806L472.873 215.202Z" fill="#9D47E5"/>
<path d="M472.873 244.805C472.762 244.695 472.541 244.695 472.32 244.805L469.89 246.241L467.239 244.695V241.491L472.873 244.805Z" fill="#9D47E5"/>
<path d="M467.239 244.695L361.641 305.668V280.373L467.239 219.4V244.695Z" fill="#FFF9F2"/>
<path d="M465.582 224.812L363.408 283.797C363.077 284.018 362.856 283.797 362.856 283.466C362.856 283.134 363.077 282.692 363.408 282.472L465.582 223.487C465.914 223.266 466.134 223.487 466.134 223.818C466.134 224.149 465.914 224.591 465.582 224.812Z" fill="#F2DBBF"/>
<path d="M465.582 229.893L363.408 288.878C363.077 289.099 362.856 288.878 362.856 288.547C362.856 288.215 363.077 287.773 363.408 287.553L465.582 228.568C465.914 228.347 466.134 228.568 466.134 228.899C466.134 229.341 465.914 229.783 465.582 229.893Z" fill="#F2DBBF"/>
<path d="M465.582 233.649L363.408 292.634C363.077 292.855 362.856 292.634 362.856 292.302C362.856 291.971 363.077 291.529 363.408 291.308L465.582 232.323C465.914 232.102 466.134 232.323 466.134 232.655C466.134 232.986 465.914 233.538 465.582 233.649Z" fill="#F2DBBF"/>
<path d="M465.582 242.265L363.408 301.249C363.077 301.47 362.856 301.249 362.856 300.918C362.856 300.587 363.077 300.145 363.408 299.924L465.582 240.939C465.914 240.718 466.134 240.939 466.134 241.27C466.134 241.602 465.914 242.044 465.582 242.265Z" fill="#F2DBBF"/>
<path d="M465.582 238.399L363.298 297.494C362.966 297.715 362.745 297.494 362.745 297.163C362.745 296.831 362.966 296.389 363.298 296.168L465.472 237.184C465.803 236.963 466.024 237.184 466.024 237.515C466.134 237.846 465.914 238.288 465.582 238.399Z" fill="#F2DBBF"/>
<path d="M469.89 246.352L364.292 307.214V304.121L467.239 244.695L469.89 246.352Z" fill="#9D47E5"/>
<path d="M364.292 307.214V281.809L472.32 219.4C472.762 219.179 473.093 218.516 473.093 217.964V215.644C473.093 215.423 472.983 215.202 472.873 215.092C472.762 214.981 472.541 214.981 472.32 215.202L363.187 278.164C361.53 279.047 360.315 281.367 360.315 283.245V310.307C360.315 311.191 360.647 311.853 361.199 312.185C361.751 312.516 362.414 312.406 363.298 311.964L472.431 249.003C472.873 248.782 473.204 248.119 473.204 247.567V245.247C473.204 244.695 472.873 244.474 472.431 244.805L364.292 307.214Z" fill="#8C32D9"/>
<path d="M434.544 246.462C447.357 253.09 450.56 256.956 453.763 267.449L437.415 276.838C434.212 266.345 431.119 262.368 418.196 255.851L434.544 246.462Z" fill="#F2567E"/>
<path d="M238.811 175.658L217.382 188.029L213.737 185.931L235.166 173.559L238.811 175.658Z" fill="#E03681"/>
<path d="M213.737 185.931L357.223 268.775L464.478 206.918L320.882 124.074L213.737 185.931Z" fill="#4FB836"/>
<path d="M464.478 181.733L462.49 180.629V205.813L464.478 206.918V181.733Z" fill="#2E801B"/>
<path d="M357.775 266.344L462.489 205.813V180.629L357.775 241.16V266.344Z" fill="#FFF9F2"/>
<path d="M359.432 244.584L460.833 186.041C461.164 185.82 461.385 185.379 461.385 185.047C461.385 184.716 461.164 184.495 460.833 184.716L359.432 243.259C359.1 243.48 358.879 243.921 358.879 244.253C358.879 244.584 359.1 244.805 359.432 244.584Z" fill="#F2DBBF"/>
<path d="M359.432 253.421L460.833 194.878C461.164 194.657 461.385 194.215 461.385 193.884C461.385 193.552 461.164 193.332 460.833 193.552L359.432 252.095C359.1 252.316 358.879 252.758 358.879 253.09C358.879 253.421 359.1 253.642 359.432 253.421Z" fill="#F2DBBF"/>
<path d="M359.432 261.926L460.833 203.383C461.164 203.162 461.385 202.721 461.385 202.389C461.385 202.058 461.164 201.837 460.833 202.058L359.432 260.601C359.1 260.822 358.879 261.263 358.879 261.595C358.879 261.926 359.1 262.147 359.432 261.926Z" fill="#F2DBBF"/>
<path d="M359.432 258.171L460.833 199.628C461.164 199.407 461.385 198.965 461.385 198.633C461.385 198.302 461.164 198.081 460.833 198.302L359.432 256.845C359.1 257.066 358.879 257.508 358.879 257.839C358.879 258.171 359.1 258.281 359.432 258.171Z" fill="#F2DBBF"/>
<path d="M357.775 266.345L218.045 185.71V160.525L357.775 241.16V266.345Z" fill="#F5E4D0"/>
<path d="M356.007 247.898C355.897 247.898 355.786 247.898 355.676 247.788L219.26 169.031C218.928 168.81 218.818 168.478 219.039 168.147C219.26 167.816 219.591 167.705 219.923 167.926L356.339 246.683C356.67 246.904 356.781 247.235 356.56 247.567C356.449 247.788 356.228 247.898 356.007 247.898Z" fill="#E0C4A1"/>
<path d="M356.007 256.514C355.897 256.514 355.786 256.514 355.676 256.403L219.26 177.647C218.928 177.426 218.818 177.094 219.039 176.763C219.26 176.432 219.591 176.321 219.923 176.542L356.339 255.299C356.67 255.52 356.781 255.851 356.56 256.183C356.449 256.403 356.228 256.514 356.007 256.514Z" fill="#E0C4A1"/>
<path d="M356.007 263.141C355.897 263.141 355.786 263.141 355.676 263.031L219.26 184.274C218.928 184.053 218.818 183.722 219.039 183.39C219.26 183.059 219.591 182.949 219.923 183.169L356.339 261.926C356.67 262.147 356.781 262.479 356.56 262.81C356.449 263.031 356.228 263.141 356.007 263.141Z" fill="#E0C4A1"/>
<path d="M357.223 268.775L356.67 272.972L213.074 190.128C212.964 190.018 212.853 189.907 212.853 189.576V187.256C212.853 186.704 213.185 186.152 213.627 185.82L217.272 187.919L357.223 268.775Z" fill="#2E801B"/>
<path d="M357.223 239.503L356.67 243.811L238.811 175.769L235.166 173.67L213.074 160.967C212.964 160.857 212.853 160.746 212.853 160.415V158.095C212.853 157.543 213.185 156.991 213.627 156.659L217.272 158.758L239.032 171.35L242.677 173.449L357.223 239.503Z" fill="#2E801B"/>
<path d="M464.478 206.918V181.733L357.333 243.59C357.112 243.701 356.891 243.701 356.781 243.701C356.67 243.59 356.56 243.48 356.56 243.148V240.829C356.56 240.276 356.891 239.724 357.333 239.393L465.582 176.873C466.356 176.431 467.129 176.321 467.571 176.652C468.123 176.984 468.454 177.646 468.454 178.53V205.482C468.454 207.36 467.129 209.569 465.582 210.453L357.333 272.972C357.112 273.082 356.891 273.082 356.781 273.082C356.67 272.972 356.56 272.862 356.56 272.53V270.211C356.56 269.658 356.891 269.106 357.333 268.775L464.478 206.918Z" fill="#3EA127"/>
<path d="M467.57 176.763L357.222 239.503L242.677 173.449L239.032 171.35L217.272 158.758L213.626 156.659L321.876 94.1398C322.649 93.698 323.422 93.5875 323.864 93.9189L467.57 176.763Z" fill="#4FB836"/>
<path d="M356.007 228.126L219.26 149.148C218.818 148.817 218.487 148.265 218.487 147.381V121.755L222.353 123.964L240.026 134.126L243.45 136.114L355.234 200.732V226.359C355.234 227.242 355.566 227.795 356.007 228.126Z" fill="#E03681"/>
<path d="M269.629 151.247V178.199L279.128 183.722V156.77L269.629 151.247ZM243.782 163.287L262.781 174.222V147.27L243.782 136.335V163.287Z" fill="#BA2D6B"/>
<path d="M461.716 136.335C461.606 136.225 461.385 136.225 461.164 136.445L357.996 195.983C356.449 196.866 355.234 198.965 355.234 200.732L243.45 136.114L240.026 134.126L222.353 123.964L218.487 121.755C218.487 119.987 219.702 117.888 221.248 117.005L324.416 57.4677C324.637 57.3572 324.858 57.3572 324.969 57.4677L461.716 136.335Z" fill="#ED4C93"/>
<path d="M461.716 164.281C461.606 164.171 461.385 164.171 461.164 164.281L458.844 165.607L456.304 164.171V161.188L461.716 164.281Z" fill="#ED4C93"/>
<path d="M456.304 164.171L356.56 221.83V197.86L456.304 140.201V164.171Z" fill="#F5E4D0"/>
<path d="M454.757 145.393L358.106 201.174C357.775 201.395 357.554 201.174 357.554 200.843C357.554 200.511 357.775 200.07 358.106 199.959L454.757 144.178C455.089 143.957 455.31 144.178 455.31 144.509C455.31 144.73 455.089 145.172 454.757 145.393Z" fill="#E0C4A1"/>
<path d="M454.757 150.253L358.106 206.034C357.775 206.255 357.554 206.034 357.554 205.703C357.554 205.372 357.775 204.93 358.106 204.819L454.757 149.038C455.089 148.817 455.31 149.038 455.31 149.369C455.31 149.59 455.089 150.032 454.757 150.253Z" fill="#E0C4A1"/>
<path d="M454.757 153.788L358.106 209.569C357.775 209.79 357.554 209.569 357.554 209.238C357.554 208.906 357.775 208.464 358.106 208.354L454.757 152.573C455.089 152.352 455.31 152.573 455.31 152.904C455.31 153.235 455.089 153.567 454.757 153.788Z" fill="#E0C4A1"/>
<path d="M454.757 161.851L358.106 217.632C357.775 217.853 357.554 217.632 357.554 217.301C357.554 216.97 357.775 216.528 358.106 216.417L454.757 160.636C455.089 160.415 455.31 160.636 455.31 160.967C455.31 161.299 455.089 161.74 454.757 161.851Z" fill="#E0C4A1"/>
<path d="M454.757 158.206L358.106 213.987C357.775 214.208 357.554 213.987 357.554 213.656C357.554 213.325 357.775 212.883 358.106 212.772L454.757 156.991C455.089 156.77 455.31 156.991 455.31 157.322C455.31 157.654 455.089 158.095 454.757 158.206Z" fill="#E0C4A1"/>
<path d="M458.844 165.717L359.1 223.266V220.394L456.304 164.171L458.844 165.717Z" fill="#ED4C93"/>
<path d="M359.1 223.266V199.296L461.164 140.312C461.606 140.091 461.937 139.428 461.937 138.986V136.777C461.937 136.556 461.827 136.335 461.716 136.225C461.606 136.114 461.385 136.114 461.164 136.225L357.996 195.762C356.449 196.645 355.234 198.744 355.234 200.511V226.138C355.234 227.021 355.566 227.574 356.008 227.905C356.449 228.236 357.223 228.126 357.996 227.684L461.164 168.147C461.606 167.926 461.937 167.263 461.937 166.822V164.612C461.937 164.171 461.606 163.95 461.164 164.171L359.1 223.266Z" fill="#C9206B"/>
<path d="M425.486 165.938C437.636 172.124 440.619 175.879 443.601 185.82L428.137 194.768C425.155 184.826 422.172 181.071 410.022 174.885L425.486 165.938Z" fill="#303CA6"/>
<path d="M355.234 97.2327L291.721 133.905C288.959 135.451 284.651 135.451 281.89 133.905L261.565 122.196C258.804 120.65 258.804 118.109 261.565 116.563L325.079 79.8907C327.841 78.3443 332.148 78.3443 334.91 79.8907L355.234 91.5993C357.885 93.1457 357.885 95.6863 355.234 97.2327Z" fill="#FFF9F2"/>
<path opacity="0.15" d="M408.917 117.226C417.754 122.307 422.172 128.934 422.172 135.672C422.172 142.41 417.754 149.038 408.917 154.119C391.354 164.281 362.745 164.281 345.072 154.119C336.235 149.038 331.817 142.41 331.817 135.672C331.817 128.934 336.235 122.307 345.072 117.226C362.745 107.064 391.354 107.064 408.917 117.226Z" fill="#7974F2"/>
<path d="M403.615 140.532C388.924 149.038 365.065 149.038 350.374 140.532C342.973 136.335 339.328 130.702 339.328 125.179V133.021C339.328 138.544 342.973 144.177 350.374 148.375C365.065 156.88 388.924 156.88 403.615 148.375C411.016 144.177 414.661 138.544 414.661 133.021V125.179C414.661 130.702 411.016 136.335 403.615 140.532Z" fill="#423EAF"/>
<path d="M403.615 109.825C411.016 114.022 414.661 119.656 414.661 125.179C414.661 130.702 411.016 136.335 403.615 140.532C388.924 149.038 365.065 149.038 350.374 140.532C342.973 136.335 339.328 130.702 339.328 125.179C339.328 119.656 342.973 114.022 350.374 109.825C365.176 101.32 388.924 101.32 403.615 109.825Z" fill="#6E69FF"/>
<path d="M403.836 94.1399L382.076 75.4724C381.855 75.2515 381.634 75.1411 381.302 74.9202C378.872 73.5947 375.006 73.5947 372.687 74.9202C372.355 75.0306 372.134 75.2515 371.913 75.4724L350.153 94.1399C346.508 97.2327 344.63 100.878 344.63 104.523V125.179C344.63 129.928 347.834 134.678 354.13 138.323C366.722 145.614 387.157 145.614 399.859 138.323C406.156 134.678 409.359 129.928 409.359 125.179V104.523C409.359 100.878 407.481 97.2327 403.836 94.1399Z" fill="#B5E4FF"/>
<path d="M399.859 42.8871C387.267 50.1774 366.832 50.1774 354.13 42.8871C347.834 39.242 344.63 34.4923 344.63 29.7425V50.3983C344.63 54.0434 346.508 57.6885 350.153 60.7814L371.913 79.4488C372.134 79.6698 372.355 79.7802 372.687 80.0011C375.117 81.3266 378.983 81.3266 381.302 80.0011C381.634 79.8907 381.855 79.6698 382.076 79.4488L403.836 60.7814C407.481 57.6885 409.359 54.0434 409.359 50.3983V29.6321C409.359 34.4923 406.156 39.242 399.859 42.8871Z" fill="#B5E4FF"/>
<path d="M407.812 47.416V50.2879C407.812 53.6017 406.045 56.6945 402.842 59.5664L381.082 78.2339C380.971 78.3444 380.75 78.4548 380.529 78.5653C379.646 79.1176 378.32 79.3385 376.995 79.3385C375.669 79.3385 374.344 79.0071 373.46 78.5653C373.239 78.4548 373.129 78.3444 372.908 78.2339L351.147 59.5664C347.944 56.805 346.177 53.6017 346.177 50.2879V47.416C346.177 51.9448 349.159 56.4736 355.234 60.0082C367.274 66.9671 386.715 66.9671 398.755 60.0082C404.83 56.584 407.812 51.9448 407.812 47.416Z" fill="#FFC142"/>
<path d="M407.812 47.416C407.812 51.9448 404.83 56.4736 398.755 60.0082C386.715 66.9671 367.274 66.9671 355.234 60.0082C349.269 56.584 346.177 51.9448 346.177 47.416C346.177 45.0963 346.95 42.7767 348.496 40.678C350.043 38.5793 352.252 36.591 355.234 34.9342C367.274 27.9753 386.715 27.9753 398.755 34.9342C401.737 36.7015 403.946 38.5793 405.493 40.678C407.039 42.8872 407.812 45.0963 407.812 47.416Z" fill="#FFDF6E"/>
<path d="M403.615 37.2537C388.924 45.759 365.065 45.759 350.374 37.2537C342.973 33.0563 339.328 27.4229 339.328 21.9V29.7425C339.328 35.2654 342.973 40.8988 350.374 45.0962C365.065 53.6015 388.924 53.6015 403.615 45.0962C411.016 40.8988 414.661 35.2654 414.661 29.7425V21.9C414.661 27.4229 411.016 32.9458 403.615 37.2537Z" fill="#423EAF"/>
<path d="M403.615 6.4359C411.016 10.6333 414.661 16.2667 414.661 21.7896C414.661 27.3125 411.016 32.9459 403.615 37.1433C388.924 45.6486 365.065 45.6486 350.374 37.1433C342.973 32.9459 339.328 27.3125 339.328 21.7896C339.328 16.2667 342.973 10.6333 350.374 6.4359C365.176 -1.95894 388.924 -1.95894 403.615 6.4359Z" fill="#6E69FF"/>
<path opacity="0.5" d="M399.859 138.323C406.156 134.678 409.359 129.928 409.359 125.179C409.359 120.429 406.156 115.679 399.859 112.034C387.267 104.744 366.832 104.744 354.13 112.034C347.834 115.679 344.63 120.429 344.63 125.179C344.63 129.928 347.834 134.678 354.13 138.323C366.832 145.613 387.267 145.613 399.859 138.323Z" fill="#B0E1FF"/>
<path opacity="0.63" d="M398.865 137.771C404.83 134.347 407.923 129.707 407.923 125.179C407.923 120.65 404.941 116.121 398.865 112.586C386.825 105.627 367.274 105.627 355.234 112.586C349.269 116.011 346.177 120.65 346.177 125.179C346.177 129.707 349.159 134.236 355.234 137.771C367.274 144.73 386.825 144.73 398.865 137.771Z" fill="#B0E1FF"/>
<path d="M398.865 100.657C398.644 100.546 398.313 100.326 398.092 100.215L378.651 89.7215H375.448L356.007 100.215C355.787 100.326 355.455 100.546 355.234 100.657C349.269 104.081 346.177 108.72 346.177 113.249C346.177 117.778 349.159 122.307 355.234 125.841C367.274 132.8 386.825 132.8 398.865 125.841C404.83 122.417 407.923 117.778 407.923 113.249C407.923 108.72 404.83 104.192 398.865 100.657Z" fill="#FFDF6E"/>
<path d="M398.865 125.841C386.825 132.8 367.274 132.8 355.234 125.841C349.269 122.417 346.177 117.778 346.177 113.249V125.179C346.177 129.707 349.159 134.236 355.234 137.771C367.274 144.73 386.825 144.73 398.865 137.771C404.83 134.347 407.923 129.707 407.923 125.179V113.249C407.923 117.778 404.83 122.417 398.865 125.841Z" fill="#FFC142"/>
<path d="M378.652 91.7097C379.093 91.4888 379.314 91.1574 379.314 90.7156C379.314 90.3842 379.093 90.0528 378.652 89.7214C377.657 89.1691 376.332 89.1691 375.448 89.7214C374.896 90.0528 374.675 90.3842 374.675 90.7156C374.675 91.047 374.896 91.3783 375.338 91.7097C376.332 92.262 377.768 92.262 378.652 91.7097Z" fill="#FFC142"/>
<path d="M379.314 77.6815H374.675V90.826H379.314V77.6815Z" fill="#FFC142"/>
<path opacity="0.15" d="M359.874 307.877C342.532 298.488 310.499 280.704 310.499 280.704L138.404 212.441C136.306 211.226 132.771 211.226 130.672 212.441L7.51117 283.687C5.41246 284.902 5.41246 286.89 7.51117 288.105L198.273 398.232C200.372 399.447 203.906 399.447 206.005 398.232L329.277 327.097C329.939 326.765 330.381 326.213 330.602 325.771C334.8 322.678 350.153 317.155 359.432 313.952C362.193 313.069 362.414 309.313 359.874 307.877Z" fill="#7974F2"/>
<path d="M323.312 319.585C325.3 318.37 325.3 316.493 323.312 315.278L140.503 209.79C138.515 208.575 135.201 208.575 133.103 209.79L14.912 277.943C12.9237 279.158 12.9237 281.035 14.912 282.251L197.721 387.738C199.709 388.953 203.023 388.953 205.121 387.738L323.312 319.585Z" fill="#E0DFF7"/>
<path d="M137.963 348.636L82.8438 316.824C81.6287 316.161 81.6287 314.946 82.8438 314.283L118.632 293.628C119.847 292.965 121.836 292.965 123.161 293.628L178.28 325.44C179.495 326.102 179.495 327.318 178.28 327.98L142.491 348.636C141.166 349.409 139.178 349.409 137.963 348.636Z" fill="#B3ADFB"/>
<path d="M323.312 319.585L205.121 387.849C203.133 389.064 199.819 389.064 197.721 387.849L14.9119 282.251C13.9178 281.698 13.3655 280.925 13.3655 280.152V284.57C13.3655 285.343 13.9178 286.117 14.9119 286.669L197.721 392.157C199.709 393.372 203.023 393.372 205.121 392.157L323.312 323.893C324.306 323.341 324.858 322.568 324.858 321.795V317.376C324.858 318.26 324.306 319.033 323.312 319.585Z" fill="#423EAF"/>
<path d="M14.9119 282.251C13.9178 281.698 13.3655 280.925 13.3655 280.152V284.57C13.3655 285.343 13.9178 286.117 14.9119 286.669L18.3361 288.657V284.239L14.9119 282.251Z" fill="#4F4AD1"/>
<path d="M205.121 387.849C203.133 389.064 199.819 389.064 197.721 387.849L194.407 385.971V390.389L197.721 392.267C199.709 393.482 203.023 393.482 205.121 392.267L208.214 390.5V386.081L205.121 387.849Z" fill="#4F4AD1"/>
<path d="M323.312 319.585L319.998 321.463V325.882L323.312 324.004C324.306 323.451 324.858 322.678 324.858 321.905V317.487C324.858 318.26 324.306 319.033 323.312 319.585Z" fill="#4F4AD1"/>
<path d="M242.346 357.804C241.352 358.356 239.584 358.356 238.59 357.804L66.9377 258.612C65.9436 258.06 65.9436 257.066 66.9377 256.403L132.55 218.516C133.544 217.964 135.312 217.964 136.306 218.516L307.958 317.597C308.952 318.15 308.952 319.144 307.958 319.806L242.346 357.804Z" fill="#B3ADFB"/>
<path d="M126.585 238.619C125.812 239.061 124.487 239.061 123.713 238.619L114.877 233.538C114.104 233.096 114.104 232.323 114.877 231.881L123.713 226.8C124.487 226.359 125.812 226.359 126.585 226.8L135.422 231.881C136.195 232.323 136.195 233.096 135.422 233.538L126.585 238.619Z" fill="#8581D2"/>
<path d="M140.945 247.014C140.172 247.456 138.846 247.456 138.073 247.014L129.236 241.933C128.463 241.491 128.463 240.718 129.236 240.276L138.073 235.195C138.846 234.753 140.172 234.753 140.945 235.195L149.782 240.276C150.555 240.718 150.555 241.491 149.782 241.933L140.945 247.014Z" fill="#8581D2"/>
<path d="M155.415 255.299C154.642 255.74 153.316 255.74 152.543 255.299L143.706 250.218C142.933 249.776 142.933 249.003 143.706 248.561L152.543 243.48C153.316 243.038 154.642 243.038 155.415 243.48L164.252 248.561C165.025 249.003 165.025 249.776 164.252 250.218L155.415 255.299Z" fill="#8581D2"/>
<path d="M104.935 275.733C104.162 276.175 102.837 276.175 102.063 275.733L93.2268 270.652C92.4535 270.211 92.4535 269.437 93.2268 268.996L102.063 263.914C102.837 263.473 104.162 263.473 104.935 263.914L113.772 268.996C114.545 269.437 114.545 270.211 113.772 270.652L104.935 275.733Z" fill="#8581D2"/>
<path d="M119.295 284.128C118.522 284.57 117.196 284.57 116.423 284.128L107.586 279.047C106.813 278.605 106.813 277.832 107.586 277.39L116.423 272.309C117.196 271.867 118.522 271.867 119.295 272.309L128.132 277.39C128.905 277.832 128.905 278.605 128.132 279.047L119.295 284.128Z" fill="#8581D2"/>
<path d="M169.775 263.583C169.001 264.025 167.676 264.025 166.903 263.583L158.066 258.502C157.293 258.06 157.293 257.287 158.066 256.845L166.903 251.764C167.676 251.322 169.001 251.322 169.775 251.764L178.611 256.845C179.384 257.287 179.384 258.06 178.611 258.502L169.775 263.583Z" fill="#8581D2"/>
<path d="M184.245 271.978C183.471 272.42 182.146 272.42 181.373 271.978L172.536 266.897C171.763 266.455 171.763 265.682 172.536 265.24L181.373 260.159C182.146 259.717 183.471 259.717 184.245 260.159L193.081 265.24C193.854 265.682 193.854 266.455 193.081 266.897L184.245 271.978Z" fill="#8581D2"/>
<path d="M198.604 280.262C197.831 280.704 196.505 280.704 195.732 280.262L186.896 275.181C186.122 274.739 186.122 273.966 186.896 273.524L195.732 268.443C196.505 268.001 197.831 268.001 198.604 268.443L207.441 273.524C208.214 273.966 208.214 274.739 207.441 275.181L198.604 280.262Z" fill="#8581D2"/>
<path d="M213.074 288.547C212.301 288.988 210.976 288.988 210.202 288.547L201.366 283.466C200.592 283.024 200.592 282.25 201.366 281.809L210.202 276.728C210.976 276.286 212.301 276.286 213.074 276.728L221.911 281.809C222.684 282.25 222.684 283.024 221.911 283.466L213.074 288.547Z" fill="#8581D2"/>
<path d="M227.434 296.941C226.661 297.383 225.335 297.383 224.562 296.941L215.725 291.86C214.952 291.419 214.952 290.645 215.725 290.203L224.562 285.122C225.335 284.681 226.661 284.681 227.434 285.122L236.27 290.203C237.044 290.645 237.044 291.419 236.27 291.86L227.434 296.941Z" fill="#8581D2"/>
<path d="M241.904 305.226C241.131 305.668 239.805 305.668 239.032 305.226L230.195 300.145C229.422 299.703 229.422 298.93 230.195 298.488L239.032 293.407C239.805 292.965 241.131 292.965 241.904 293.407L250.741 298.488C251.514 298.93 251.514 299.703 250.741 300.145L241.904 305.226Z" fill="#8581D2"/>
<path d="M256.264 313.51C255.49 313.952 254.165 313.952 253.392 313.51L244.555 308.429C243.782 307.987 243.782 307.214 244.555 306.772L253.392 301.691C254.165 301.249 255.49 301.249 256.264 301.691L265.1 306.772C265.873 307.214 265.873 307.987 265.1 308.429L256.264 313.51Z" fill="#8581D2"/>
<path d="M133.544 259.165C132.771 259.607 131.445 259.607 130.672 259.165L121.836 254.084C121.062 253.642 121.062 252.869 121.836 252.427L130.672 247.346C131.445 246.904 132.771 246.904 133.544 247.346L142.381 252.427C143.154 252.869 143.154 253.642 142.381 254.084L133.544 259.165Z" fill="#8581D2"/>
<path d="M148.014 267.56C147.241 268.001 145.915 268.001 145.142 267.56L136.306 262.478C135.532 262.037 135.532 261.263 136.306 260.822L145.142 255.74C145.915 255.299 147.241 255.299 148.014 255.74L156.851 260.822C157.624 261.263 157.624 262.037 156.851 262.478L148.014 267.56Z" fill="#8581D2"/>
<path d="M162.374 275.844C161.601 276.286 160.275 276.286 159.502 275.844L150.665 270.763C149.892 270.321 149.892 269.548 150.665 269.106L159.502 264.025C160.275 263.583 161.601 263.583 162.374 264.025L171.211 269.106C171.984 269.548 171.984 270.321 171.211 270.763L162.374 275.844Z" fill="#8581D2"/>
<path d="M176.844 284.128C176.071 284.57 174.745 284.57 173.972 284.128L165.135 279.047C164.362 278.605 164.362 277.832 165.135 277.39L173.972 272.309C174.745 271.867 176.071 271.867 176.844 272.309L185.681 277.39C186.454 277.832 186.454 278.605 185.681 279.047L176.844 284.128Z" fill="#8581D2"/>
<path d="M191.204 292.523C190.43 292.965 189.105 292.965 188.332 292.523L179.495 287.442C178.722 287 178.722 286.227 179.495 285.785L188.332 280.704C189.105 280.262 190.43 280.262 191.204 280.704L200.04 285.785C200.813 286.227 200.813 287 200.04 287.442L191.204 292.523Z" fill="#8581D2"/>
<path d="M205.674 300.808C204.9 301.249 203.575 301.249 202.802 300.808L193.965 295.726C193.192 295.285 193.192 294.511 193.965 294.07L202.802 288.988C203.575 288.547 204.9 288.547 205.674 288.988L214.51 294.07C215.283 294.511 215.283 295.285 214.51 295.726L205.674 300.808Z" fill="#8581D2"/>
<path d="M220.033 309.092C219.26 309.534 217.934 309.534 217.161 309.092L208.325 304.011C207.551 303.569 207.551 302.796 208.325 302.354L217.161 297.273C217.934 296.831 219.26 296.831 220.033 297.273L228.87 302.354C229.643 302.796 229.643 303.569 228.87 304.011L220.033 309.092Z" fill="#8581D2"/>
<path d="M234.503 317.487C233.73 317.929 232.405 317.929 231.631 317.487L222.795 312.406C222.021 311.964 222.021 311.191 222.795 310.749L231.631 305.668C232.405 305.226 233.73 305.226 234.503 305.668L243.34 310.749C244.113 311.191 244.113 311.964 243.34 312.406L234.503 317.487Z" fill="#8581D2"/>
<path d="M248.863 325.771C248.09 326.213 246.764 326.213 245.991 325.771L237.154 320.69C236.381 320.248 236.381 319.475 237.154 319.033L245.991 313.952C246.764 313.51 248.09 313.51 248.863 313.952L257.7 319.033C258.473 319.475 258.473 320.248 257.7 320.69L248.863 325.771Z" fill="#8581D2"/>
<path d="M270.734 321.905C269.96 322.347 268.635 322.347 267.862 321.905L259.025 316.824C258.252 316.382 258.252 315.609 259.025 315.167L267.862 310.086C268.635 309.644 269.96 309.644 270.734 310.086L279.57 315.167C280.343 315.609 280.343 316.382 279.57 316.824L270.734 321.905Z" fill="#8581D2"/>
<path d="M285.093 330.189C284.32 330.631 282.994 330.631 282.221 330.189L273.385 325.108C272.611 324.667 272.611 323.893 273.385 323.451L282.221 318.37C282.994 317.929 284.32 317.929 285.093 318.37L293.93 323.451C294.703 323.893 294.703 324.667 293.93 325.108L285.093 330.189Z" fill="#8581D2"/>
<path d="M112.226 263.362C111.453 263.804 110.127 263.804 109.354 263.362L86.268 249.997C85.4948 249.555 85.4948 248.782 86.268 248.34L95.1047 243.259C95.8779 242.817 97.2034 242.817 97.9766 243.259L121.062 256.624C121.836 257.066 121.836 257.839 121.062 258.281L112.226 263.362Z" fill="#8581D2"/>
<path d="M191.866 325.992C191.093 326.434 189.768 326.434 188.994 325.992L122.277 287.442C121.504 287 121.504 286.227 122.277 285.785L131.114 280.704C131.887 280.262 133.213 280.262 133.986 280.704L200.703 319.254C201.476 319.696 201.476 320.469 200.703 320.911L191.866 325.992Z" fill="#8581D2"/>
<path d="M119.074 250.88C118.301 251.322 116.975 251.322 116.202 250.88L100.517 241.823C99.744 241.381 99.744 240.608 100.517 240.166L109.354 235.085C110.127 234.643 111.453 234.643 112.226 235.085L127.911 244.142C128.684 244.584 128.684 245.357 127.911 245.799L119.074 250.88Z" fill="#8581D2"/>
<path d="M90.4654 267.449C89.6922 267.891 88.3667 267.891 87.5935 267.449L71.9084 258.391C71.1352 257.95 71.1352 257.176 71.9084 256.735L80.7451 251.654C81.5183 251.212 82.8438 251.212 83.617 251.654L99.3021 260.711C100.075 261.153 100.075 261.926 99.3021 262.368L90.4654 267.449Z" fill="#8581D2"/>
<path d="M270.844 338.474C270.071 338.916 268.745 338.916 267.972 338.474L252.287 329.416C251.514 328.974 251.514 328.201 252.287 327.759L261.124 322.678C261.897 322.236 263.222 322.236 263.996 322.678L279.681 331.736C280.454 332.178 280.454 332.951 279.681 333.393L270.844 338.474Z" fill="#8581D2"/>
<path d="M140.724 230.225C139.951 230.666 138.625 230.666 137.852 230.225L129.236 225.254C128.463 224.812 128.463 224.039 129.236 223.597L132.882 221.498C133.655 221.057 134.98 221.057 135.753 221.498L144.369 226.469C145.142 226.911 145.142 227.684 144.369 228.126L140.724 230.225Z" fill="#8581D2"/>
<path d="M155.084 238.619C154.31 239.061 152.985 239.061 152.212 238.619L143.596 233.649C142.823 233.207 142.823 232.434 143.596 231.992L147.241 229.893C148.014 229.451 149.34 229.451 150.113 229.893L158.729 234.864C159.502 235.306 159.502 236.079 158.729 236.521L155.084 238.619Z" fill="#8581D2"/>
<path d="M169.554 246.904C168.78 247.346 167.455 247.346 166.682 246.904L158.066 241.933C157.293 241.491 157.293 240.718 158.066 240.276L161.711 238.178C162.484 237.736 163.81 237.736 164.583 238.178L173.199 243.148C173.972 243.59 173.972 244.363 173.199 244.805L169.554 246.904Z" fill="#8581D2"/>
<path d="M183.913 255.188C183.14 255.63 181.815 255.63 181.041 255.188L172.426 250.218C171.652 249.776 171.652 249.003 172.426 248.561L176.071 246.462C176.844 246.02 178.169 246.02 178.943 246.462L187.558 251.433C188.332 251.874 188.332 252.648 187.558 253.089L183.913 255.188Z" fill="#8581D2"/>
<path d="M198.383 263.583C197.61 264.025 196.285 264.025 195.511 263.583L186.896 258.612C186.122 258.17 186.122 257.397 186.896 256.955L190.541 254.857C191.314 254.415 192.639 254.415 193.413 254.857L202.028 259.827C202.802 260.269 202.802 261.042 202.028 261.484L198.383 263.583Z" fill="#8581D2"/>
<path d="M212.743 271.867C211.97 272.309 210.644 272.309 209.871 271.867L201.255 266.897C200.482 266.455 200.482 265.682 201.255 265.24L204.9 263.141C205.674 262.699 206.999 262.699 207.772 263.141L216.388 268.112C217.161 268.554 217.161 269.327 216.388 269.769L212.743 271.867Z" fill="#8581D2"/>
<path d="M227.213 280.262C226.44 280.704 225.114 280.704 224.341 280.262L215.725 275.292C214.952 274.85 214.952 274.077 215.725 273.635L219.37 271.536C220.144 271.094 221.469 271.094 222.242 271.536L230.858 276.507C231.631 276.948 231.631 277.722 230.858 278.164L227.213 280.262Z" fill="#8581D2"/>
<path d="M241.572 288.547C240.799 288.988 239.474 288.988 238.701 288.547L230.085 283.576C229.312 283.134 229.312 282.361 230.085 281.919L233.73 279.82C234.503 279.379 235.829 279.379 236.602 279.82L245.218 284.791C245.991 285.233 245.991 286.006 245.218 286.448L241.572 288.547Z" fill="#8581D2"/>
<path d="M256.043 296.831C255.269 297.273 253.944 297.273 253.171 296.831L244.555 291.86C243.782 291.419 243.782 290.645 244.555 290.203L248.2 288.105C248.973 287.663 250.299 287.663 251.072 288.105L259.688 293.075C260.461 293.517 260.461 294.29 259.688 294.732L256.043 296.831Z" fill="#8581D2"/>
<path d="M270.402 305.226C269.629 305.668 268.304 305.668 267.53 305.226L258.915 300.255C258.141 299.813 258.141 299.04 258.915 298.598L262.56 296.5C263.333 296.058 264.658 296.058 265.432 296.5L274.047 301.47C274.821 301.912 274.821 302.685 274.047 303.127L270.402 305.226Z" fill="#8581D2"/>
<path d="M284.872 313.51C284.099 313.952 282.774 313.952 282 313.51L273.385 308.54C272.611 308.098 272.611 307.325 273.385 306.883L277.03 304.784C277.803 304.342 279.128 304.342 279.902 304.784L288.517 309.755C289.291 310.197 289.291 310.97 288.517 311.412L284.872 313.51Z" fill="#8581D2"/>
<path d="M299.232 321.795C298.459 322.236 297.133 322.236 296.36 321.795L287.744 316.824C286.971 316.382 286.971 315.609 287.744 315.167L291.389 313.068C292.163 312.627 293.488 312.627 294.261 313.068L302.877 318.039C303.65 318.481 303.65 319.254 302.877 319.696L299.232 321.795Z" fill="#8581D2"/>
<path d="M126.806 271.867C126.033 272.309 124.707 272.309 123.934 271.867L115.098 266.786C114.324 266.345 114.324 265.571 115.098 265.129L123.934 260.048C124.707 259.607 126.033 259.607 126.806 260.048L135.643 265.129C136.416 265.571 136.416 266.345 135.643 266.786L126.806 271.867Z" fill="#8581D2"/>
<path d="M141.166 280.152C140.393 280.594 139.067 280.594 138.294 280.152L129.457 275.071C128.684 274.629 128.684 273.856 129.457 273.414L138.294 268.333C139.067 267.891 140.393 267.891 141.166 268.333L150.003 273.414C150.776 273.856 150.776 274.629 150.003 275.071L141.166 280.152Z" fill="#8581D2"/>
<path d="M155.636 288.436C154.863 288.878 153.537 288.878 152.764 288.436L143.927 283.355C143.154 282.913 143.154 282.14 143.927 281.698L152.764 276.617C153.537 276.175 154.863 276.175 155.636 276.617L164.472 281.698C165.246 282.14 165.246 282.913 164.472 283.355L155.636 288.436Z" fill="#8581D2"/>
<path d="M169.995 296.831C169.222 297.273 167.897 297.273 167.123 296.831L158.287 291.75C157.514 291.308 157.514 290.535 158.287 290.093L167.123 285.012C167.897 284.57 169.222 284.57 169.995 285.012L178.832 290.093C179.605 290.535 179.605 291.308 178.832 291.75L169.995 296.831Z" fill="#8581D2"/>
<path d="M184.466 305.115C183.692 305.557 182.367 305.557 181.594 305.115L172.757 300.034C171.984 299.592 171.984 298.819 172.757 298.377L181.594 293.296C182.367 292.855 183.692 292.855 184.466 293.296L193.302 298.377C194.075 298.819 194.075 299.592 193.302 300.034L184.466 305.115Z" fill="#8581D2"/>
<path d="M198.825 313.4C198.052 313.842 196.726 313.842 195.953 313.4L187.117 308.319C186.343 307.877 186.343 307.104 187.117 306.662L195.953 301.581C196.726 301.139 198.052 301.139 198.825 301.581L207.662 306.662C208.435 307.104 208.435 307.877 207.662 308.319L198.825 313.4Z" fill="#8581D2"/>
<path d="M213.295 321.795C212.522 322.236 211.197 322.236 210.423 321.795L201.587 316.714C200.813 316.272 200.813 315.498 201.587 315.057L210.423 309.976C211.197 309.534 212.522 309.534 213.295 309.976L222.132 315.057C222.905 315.498 222.905 316.272 222.132 316.714L213.295 321.795Z" fill="#8581D2"/>
<path d="M227.655 330.079C226.882 330.521 225.556 330.521 224.783 330.079L215.946 324.998C215.173 324.556 215.173 323.783 215.946 323.341L224.783 318.26C225.556 317.818 226.882 317.818 227.655 318.26L236.492 323.341C237.265 323.783 237.265 324.556 236.492 324.998L227.655 330.079Z" fill="#8581D2"/>
<path d="M256.374 346.648C255.601 347.09 254.275 347.09 253.502 346.648L230.416 333.282C229.643 332.84 229.643 332.067 230.416 331.625L239.253 326.544C240.026 326.102 241.352 326.102 242.125 326.544L265.211 339.91C265.984 340.352 265.984 341.125 265.211 341.567L256.374 346.648Z" fill="#8581D2"/>
<path d="M208.104 335.381C207.33 335.823 206.005 335.823 205.232 335.381L194.628 329.195C193.855 328.754 193.855 327.98 194.628 327.538L197.279 325.992C198.052 325.55 199.377 325.55 200.151 325.992L210.755 332.178C211.528 332.62 211.528 333.393 210.755 333.835L208.104 335.381Z" fill="#8581D2"/>
<path d="M231.852 341.235C231.079 341.677 229.754 341.677 228.98 341.235L218.376 335.05C217.603 334.608 217.603 333.835 218.376 333.393L221.027 331.846C221.801 331.405 223.126 331.405 223.899 331.846L234.503 338.032C235.276 338.474 235.276 339.247 234.503 339.689L231.852 341.235Z" fill="#8581D2"/>
<path d="M225.114 345.101C224.341 345.543 223.015 345.543 222.242 345.101L211.638 338.916C210.865 338.474 210.865 337.701 211.638 337.259L214.289 335.712C215.062 335.271 216.388 335.271 217.161 335.712L227.765 341.898C228.538 342.34 228.538 343.113 227.765 343.555L225.114 345.101Z" fill="#8581D2"/>
<path d="M242.014 354.932C241.241 355.374 239.916 355.374 239.143 354.932L228.539 348.746C227.765 348.305 227.765 347.531 228.539 347.09L231.19 345.543C231.963 345.101 233.288 345.101 234.061 345.543L244.665 351.729C245.439 352.171 245.439 352.944 244.665 353.386L242.014 354.932Z" fill="#8581D2"/>
<path d="M298.68 337.48L295.255 339.468C294.593 339.91 294.04 339.578 294.04 338.695C294.04 337.811 294.593 336.927 295.255 336.486L298.68 334.497C299.342 334.056 299.895 334.387 299.895 335.271C300.005 336.154 299.453 337.148 298.68 337.48Z" fill="#2B2873"/>
<path d="M299.342 334.497C299.453 334.608 299.563 334.829 299.563 335.16C299.563 335.933 299.011 336.927 298.348 337.369L294.924 339.358C294.703 339.468 294.482 339.578 294.261 339.468C294.482 339.799 294.924 339.799 295.366 339.578L298.79 337.59C299.453 337.148 300.005 336.265 300.005 335.381C300.005 334.829 299.674 334.497 299.342 334.497Z" fill="#5E58E8"/>
<path d="M299.121 336.265L294.924 338.584V337.922L299.121 335.492V336.265Z" fill="#7D79E8"/>
<path d="M294.372 337.59L294.924 337.922L299.011 335.492L298.017 334.939L295.145 336.596C294.924 336.817 294.593 337.148 294.372 337.59Z" fill="#5650D4"/>
<path d="M294.151 338.143L294.924 338.584V337.922L294.372 337.59C294.261 337.701 294.151 337.922 294.151 338.143Z" fill="#403AB5"/>
<path d="M306.412 333.061L302.987 335.05C302.325 335.492 301.772 335.16 301.772 334.276C301.772 333.503 302.325 332.509 302.987 332.067L306.412 330.079C307.074 329.637 307.627 329.969 307.627 330.852C307.627 331.736 307.185 332.62 306.412 333.061Z" fill="#2B2873"/>
<path d="M307.074 329.969C307.185 330.079 307.295 330.3 307.295 330.631C307.295 331.405 306.743 332.399 306.08 332.841L302.656 334.829C302.435 334.939 302.214 335.05 301.993 334.939C302.214 335.271 302.656 335.271 303.098 335.05L306.522 333.061C307.185 332.62 307.737 331.736 307.737 330.852C307.737 330.3 307.406 330.079 307.074 329.969Z" fill="#5E58E8"/>
<path d="M306.743 331.736L302.656 334.166V333.393L306.743 331.073V331.736Z" fill="#7D79E8"/>
<path d="M302.104 333.061L302.656 333.393L306.743 330.963L305.749 330.41L302.877 332.067C302.656 332.399 302.325 332.73 302.104 333.061Z" fill="#5650D4"/>
<path d="M301.883 333.724L302.656 334.166V333.503L302.104 333.172C301.993 333.282 301.883 333.503 301.883 333.724Z" fill="#403AB5"/>
<path d="M342.2 156.328C298.017 130.701 210.313 80.222 166.35 54.8166C161.269 51.8342 156.299 55.8107 155.746 60.0081C155.636 60.5604 155.415 62.3277 155.415 62.3277C148.898 108.831 140.393 170.467 136.968 195.43C136.085 202.168 139.288 208.906 145.253 212.33C145.584 212.551 145.805 212.662 145.805 212.662C145.805 212.662 146.136 212.883 146.247 212.883C146.357 212.883 154.089 217.411 154.31 217.522C156.851 218.958 311.051 307.987 321.765 314.173C325.963 316.603 329.939 313.179 330.492 309.313C335.241 274.85 344.52 206.366 349.49 172.123C350.043 166.932 347.171 159.2 342.2 156.328Z" fill="#EFEEFB"/>
<path d="M338.334 160.194C297.354 136.445 209.429 85.745 168.67 62.1069C163.92 59.3454 159.392 62.9906 158.839 66.9671C158.839 66.9671 145.805 160.636 141.387 192.669C140.503 199.075 143.596 205.371 149.119 208.575C184.466 229.01 309.946 301.47 319.225 306.883C323.091 309.092 326.846 305.999 327.288 302.354C331.707 270.321 340.322 206.807 344.962 174.885C345.735 170.025 343.084 162.955 338.334 160.194Z" fill="#302D80"/>
<path d="M343.084 176.21C338.776 207.36 330.16 269.106 325.852 300.255C325.521 302.354 324.306 304.232 322.428 305.005C321.103 305.557 318.673 304.453 317.126 303.569C316.353 303.127 152.764 208.575 151.991 208.133C146.357 204.819 142.933 200.401 144.038 192.006C150.997 140.643 157.293 95.6862 160.938 70.1703C161.49 66.3042 166.019 62.7696 170.548 65.4206C210.313 88.3959 295.808 137.66 335.683 160.857C340.322 163.508 343.968 169.804 343.084 176.21Z" fill="#6BC1FF"/>
<path opacity="0.4" d="M317.789 289.541C316.684 290.203 315.138 290.093 313.481 289.209L160.496 200.953C157.624 199.296 155.636 195.43 156.078 192.337L171.763 79.0069C172.205 75.914 174.856 74.8095 177.728 76.4663L330.823 164.612C333.695 166.269 335.683 170.135 335.241 173.228L319.556 286.558C319.446 287.994 318.783 288.988 317.789 289.541Z" fill="#7974F2"/>
<path d="M326.294 165.496L181.814 82.0997C180.268 81.216 178.832 81.216 177.838 81.7683L172.094 85.0821C173.199 84.4193 174.635 84.5298 176.071 85.4134L320.55 168.81C323.312 170.356 325.189 174.001 324.748 176.983L309.946 284.018C309.725 285.343 309.173 286.227 308.289 286.779L314.033 283.465C314.917 282.913 315.469 282.029 315.69 280.704L330.492 173.67C330.823 170.687 328.945 167.042 326.294 165.496Z" fill="#A29CE3"/>
<path d="M308.289 286.669C307.185 287.332 305.749 287.221 304.313 286.337L159.833 202.941C157.072 201.395 155.194 197.75 155.636 194.767L170.437 87.7331C170.879 84.8612 173.42 83.7566 176.071 85.303L320.55 168.699C323.312 170.246 325.19 173.891 324.748 176.873L309.946 283.907C309.725 285.233 309.063 286.227 308.289 286.669Z" fill="#F2F2FF"/>
<path d="M320.55 168.699L176.071 85.303C174.524 84.4193 173.088 84.4193 172.094 84.9716C171.21 85.5239 170.658 86.4076 170.437 87.7331L169.443 95.2442L323.754 184.384L324.748 176.873C325.19 174.001 323.312 170.356 320.55 168.699Z" fill="#423EAF"/>
<path d="M180.71 94.913C180.489 96.5698 179.053 97.2326 177.396 96.3489C175.85 95.4652 174.745 93.3665 174.966 91.5992C175.187 89.9423 176.623 89.2796 178.28 90.1632C179.826 91.1574 180.931 93.2561 180.71 94.913Z" fill="#ED4C93"/>
<path d="M188.884 99.6627C188.663 101.32 187.227 101.982 185.57 101.099C184.024 100.215 182.919 98.1162 183.14 96.3489C183.361 94.692 184.797 94.0293 186.454 94.913C188 95.9071 189.105 98.0058 188.884 99.6627Z" fill="#FFC933"/>
<path d="M197.058 104.412C196.837 106.069 195.401 106.732 193.744 105.848C192.198 104.965 191.093 102.866 191.314 101.099C191.535 99.4417 192.971 98.7789 194.628 99.6626C196.174 100.657 197.279 102.755 197.058 104.412Z" fill="#B3ADFB"/>
<path d="M254.165 239.503L163.589 187.256L173.309 117.336L263.775 169.583L254.165 239.503Z" fill="#B3ADFB"/>
<path d="M161.932 199.186L163.257 190.128L169.333 198.523L161.932 199.186Z" fill="#423EAF"/>
<path d="M174.082 206.255L171.873 204.929L173.199 195.872L175.297 197.087L174.082 206.255Z" fill="#B3ADFB"/>
<path d="M177.507 208.243L175.297 206.918L176.623 197.86L178.832 199.075L177.507 208.243Z" fill="#B3ADFB"/>
<path d="M188.994 214.76L180.489 209.9L181.704 200.842L190.209 205.703L188.994 214.76Z" fill="#B3ADFB"/>
<path d="M246.543 248.008L252.397 251.432L253.723 242.375L247.758 238.951L246.543 248.008Z" fill="#ED4C93"/>
<path d="M231.852 239.503L242.898 245.91L244.113 236.852L233.067 230.445L231.852 239.503Z" fill="#B3ADFB"/>
<path d="M206.889 131.254L173.972 112.255L175.187 103.529L208.104 122.527L206.889 131.254Z" fill="#423EAF"/>
<path d="M264.548 164.502L212.632 134.568L213.847 125.841L265.763 155.776L264.548 164.502Z" fill="#423EAF"/>
<path d="M315.359 193.884L268.966 167.153L270.181 158.427L316.574 185.157L315.359 193.884ZM269.85 166.711L314.696 192.558L315.69 185.599L270.844 159.752L269.85 166.711Z" fill="#423EAF"/>
<path d="M312.045 187.919C311.824 188.029 311.603 188.029 311.272 187.919L312.376 189.907C312.597 190.349 313.15 190.68 313.481 190.57C313.812 190.459 313.923 189.907 313.591 189.465L312.487 187.477C312.376 187.698 312.266 187.808 312.045 187.919Z" fill="#B3ADFB"/>
<path d="M312.155 188.25C311.272 188.582 310.057 187.919 309.504 186.704C308.842 185.489 309.063 184.163 309.946 183.832C310.83 183.501 312.045 184.163 312.597 185.378C313.149 186.593 313.039 187.919 312.155 188.25ZM310.167 184.495C309.615 184.716 309.394 185.71 309.836 186.593C310.278 187.477 311.161 187.919 311.714 187.698C312.266 187.477 312.487 186.483 312.045 185.599C311.714 184.716 310.83 184.163 310.167 184.495Z" fill="#B3ADFB"/>
<path d="M313.702 199.407L302.545 279.489L257.699 253.642L268.856 173.559L313.702 199.407ZM314.696 198.965L268.303 172.234L256.926 254.084L303.319 280.814L314.696 198.965Z" fill="#B3ADFB"/>
<path d="M296.47 201.505L269.85 186.152L270.954 178.641L297.575 193.994L296.47 201.505Z" fill="#B3ADFB"/>
<path d="M309.725 209.127L302.435 204.93L303.429 197.418L310.83 201.616L309.725 209.127Z" fill="#B3ADFB"/>
<path d="M294.703 214.54L268.082 199.186L269.077 191.675L295.697 207.028L294.703 214.54Z" fill="#423EAF"/>
<path d="M307.958 222.161L300.557 217.964L301.662 210.453L308.952 214.65L307.958 222.161Z" fill="#423EAF"/>
<path d="M292.936 227.684L266.205 212.22L267.309 204.709L293.93 220.062L292.936 227.684Z" fill="#B3ADFB"/>
<path d="M306.08 235.306L298.79 230.998L299.784 223.487L307.185 227.794L306.08 235.306Z" fill="#B3ADFB"/>
<path d="M291.058 240.718L264.437 225.254L265.431 217.743L292.162 233.207L291.058 240.718Z" fill="#B3ADFB"/>
<path d="M304.313 248.34L296.912 244.032L298.017 236.521L305.307 240.829L304.313 248.34Z" fill="#B3ADFB"/>
<path d="M289.29 253.752L262.67 238.399L263.664 230.887L290.285 246.241L289.29 253.752Z" fill="#B3ADFB"/>
<path d="M302.545 261.374L295.145 257.176L296.139 249.665L303.54 253.863L302.545 261.374Z" fill="#B3ADFB"/>
<path d="M287.413 266.786L260.792 251.433L261.897 243.921L288.517 259.275L287.413 266.786Z" fill="#B3ADFB"/>
<path d="M300.668 274.408L293.377 270.211L294.372 262.699L301.772 266.897L300.668 274.408Z" fill="#B3ADFB"/>
<path d="M233.951 190.128C232.294 202.058 221.911 206.586 210.755 200.069C199.598 193.663 191.866 178.751 193.523 166.711C195.18 154.781 205.563 150.253 216.719 156.77C227.876 163.287 235.608 178.198 233.951 190.128Z" fill="white"/>
<path d="M210.534 201.284C198.715 194.436 190.541 178.64 192.308 166.048C194.075 153.456 205.121 148.706 216.94 155.555C228.759 162.403 236.933 178.199 235.166 190.791C233.399 203.383 222.353 208.133 210.534 201.284ZM216.498 158.095C206.005 152.02 196.174 156.217 194.628 167.484C193.081 178.751 200.371 192.779 210.865 198.854C221.359 204.93 231.189 200.732 232.736 189.465C234.282 178.199 226.992 164.17 216.498 158.095Z" fill="#423EAF"/>
<path d="M204.017 188.803L208.214 159.2L227.986 186.704L204.017 188.803Z" fill="#ED4C93"/>
<path d="M255.49 109.383C255.159 110.377 254.386 110.819 253.612 110.377C252.839 109.825 252.508 108.61 252.839 107.505C253.171 106.511 253.944 106.069 254.717 106.511C255.38 107.063 255.822 108.278 255.49 109.383Z" fill="#302D80"/>
<path d="M344.741 155.223C300.557 129.597 212.853 79.1174 168.891 53.712C166.682 52.3865 164.473 52.4969 162.595 53.2701L160.054 54.3747C161.822 53.6015 164.031 53.4911 166.35 54.8166C210.313 80.222 298.017 130.702 342.2 156.328C347.171 159.2 350.043 166.932 349.38 172.123C344.409 206.476 335.131 274.85 330.381 309.313C330.05 311.522 328.614 313.731 326.626 314.615L329.166 313.51C331.154 312.627 332.59 310.528 332.922 308.208C337.671 273.745 346.95 205.261 351.921 171.019C352.583 165.827 349.711 158.095 344.741 155.223Z" fill="#9792E8"/>
<path opacity="0.15" d="M154.752 414.69L92.1223 382.216C92.0119 381 91.4596 380.227 90.7968 379.785L88.5877 378.46C92.1223 374.483 94.0001 370.176 94.0001 365.868C94.0001 358.909 89.4713 351.95 80.1928 346.648C61.8567 336.044 32.1434 336.044 13.8073 346.648C4.63925 351.95 0 358.909 0 365.868C0 372.827 4.5288 379.785 13.8073 385.087C30.9284 394.918 57.8802 395.581 76.3268 387.076L84.0589 391.494C84.8321 391.936 85.8262 391.936 86.8203 391.494L146.357 429.492C147.683 430.375 149.229 430.817 150.886 430.817C155.525 430.817 159.392 427.062 159.392 422.312C159.281 418.888 157.514 416.126 154.752 414.69Z" fill="#7974F2"/>
<path d="M17.3419 337.811C33.6898 328.312 60.3103 328.312 76.6581 337.811C84.8321 342.561 88.919 348.747 88.919 354.932C88.919 361.118 84.8321 367.304 76.6581 372.053C60.3103 381.553 33.6898 381.553 17.3419 372.053C9.16802 367.304 5.08105 361.118 5.08105 354.932C5.08105 348.747 9.16802 342.561 17.3419 337.811ZM18.8884 371.17C34.3525 380.117 59.5371 380.117 75.0013 371.17C82.0706 367.083 85.9366 361.781 86.4889 356.479C86.7099 354.49 86.4889 352.502 85.8262 350.624C85.7157 350.404 85.7157 350.293 85.6053 350.072C85.3843 349.52 85.1634 348.968 84.9425 348.526C84.7216 347.973 84.3902 347.421 84.0588 346.979C83.8379 346.648 83.617 346.317 83.2856 345.985C83.0647 345.654 82.7333 345.322 82.5124 344.991C82.181 344.66 81.9601 344.328 81.6288 343.997C81.5183 343.886 81.2974 343.666 81.1869 343.555C79.5301 341.898 77.4313 340.352 75.1117 339.026C59.6475 330.079 34.463 330.079 18.9988 339.026C16.5687 340.462 14.5805 342.009 12.9236 343.555C12.7027 343.666 12.5922 343.886 12.4818 343.997C11.7086 344.77 10.9354 345.654 10.3831 346.537C9.4994 347.752 8.83664 348.968 8.39481 350.183C8.28435 350.404 8.28435 350.514 8.17389 350.735C7.51114 352.723 7.29022 354.601 7.51114 356.589C7.95298 361.781 11.819 367.083 18.8884 371.17Z" fill="#3441B5"/>
<path d="M17.3419 372.053C33.6898 381.553 60.3103 381.553 76.6581 372.053C84.8321 367.304 88.919 361.118 88.919 354.932V364.542C88.919 370.728 84.8321 376.914 76.6581 381.663C60.3103 391.163 33.6898 391.163 17.3419 381.663C9.16802 376.914 5.08105 370.728 5.08105 364.542V354.932C5.08105 361.228 9.16802 367.414 17.3419 372.053Z" fill="#4958DE"/>
<path d="M75.0012 348.636C59.537 339.689 34.3525 339.689 18.8883 348.636C13.3654 351.839 9.72023 355.816 8.17382 359.903C5.41235 352.502 8.94702 344.549 18.8883 338.805C34.3525 329.858 59.537 329.858 75.0012 338.805C84.9424 344.549 88.4771 352.502 85.7156 359.903C84.1692 355.705 80.6346 351.839 75.0012 348.636Z" fill="#252F82"/>
<path opacity="0.5" d="M7.51111 356.921C8.28432 362.112 12.0399 367.193 18.9988 371.17C34.463 380.117 59.6475 380.117 75.1117 371.17C81.9601 367.193 85.8261 362.112 86.5993 356.921C85.8261 351.729 81.9601 346.648 75.1117 342.782C59.6475 333.835 34.463 333.835 18.9988 342.782C12.0399 346.758 8.28432 351.729 7.51111 356.921Z" fill="#96B9FF"/>
<path d="M77.6523 371.722C78.9778 370.949 80.0824 370.949 80.9661 371.391L90.355 376.803L83.7275 388.401L74.3386 382.989C73.4549 382.547 72.9026 381.442 72.9026 379.896C73.013 376.803 75.1118 373.158 77.6523 371.722Z" fill="#3441B5"/>
<path d="M87.1517 377.135C88.4772 376.361 89.5818 376.361 90.4654 376.803C91.3491 377.245 91.9014 378.35 91.9014 379.896C91.9014 382.878 89.8027 386.523 87.1517 388.07C85.8262 388.843 84.7216 388.843 83.8379 388.401C82.9543 387.959 82.402 386.855 82.402 385.308C82.402 382.326 84.5007 378.681 87.1517 377.135ZM87.1517 386.744C89.1399 385.64 90.7968 382.768 90.7968 380.448C90.7968 378.129 89.1399 377.245 87.1517 378.35C85.1634 379.454 83.5066 382.326 83.5066 384.646C83.5066 386.965 85.1634 387.959 87.1517 386.744Z" fill="#5B68DE"/>
<path d="M87.1517 378.35C88.1458 377.797 89.0295 377.687 89.6923 378.018L153.427 411.156C156.078 412.592 157.956 415.353 157.956 418.556C157.956 423.196 154.2 426.841 149.671 426.841C148.014 426.841 146.468 426.399 145.142 425.515L84.5007 386.965C83.838 386.524 83.5066 385.75 83.5066 384.646C83.5066 382.326 85.1635 379.565 87.1517 378.35Z" fill="#D4751C"/>
<path d="M110.237 390.279L146.136 412.481L149.671 414.69C149.892 414.801 150.223 415.022 150.444 415.132C151.107 415.574 151.549 416.126 151.991 416.679C153.537 418.777 153.869 421.428 152.764 423.858C152.543 424.521 152.101 424.963 151.77 425.515C153.648 424.963 155.304 423.527 156.078 421.649C157.072 419.33 156.851 416.568 155.304 414.469C154.642 413.586 153.758 412.813 152.764 412.371L110.237 390.279Z" fill="#F2963F"/>
<path opacity="0.15" d="M484.802 367.856L384.616 309.976C380.198 307.435 373.018 307.435 368.6 309.976L268.414 367.856C266.205 369.181 265.1 370.838 265.1 372.495C265.1 374.152 266.205 375.809 268.414 377.134L368.6 435.015C373.018 437.555 380.198 437.555 384.616 435.015L405.051 423.196C407.592 421.76 410.574 421.981 413.004 423.748C415.434 425.515 418.637 426.951 422.835 428.056C429.904 429.823 437.305 429.713 444.264 427.504C459.507 422.533 461.495 411.156 450.118 404.639C449.676 404.418 449.234 404.197 448.793 403.976C446.473 402.871 446.473 399.447 448.682 398.232L484.913 377.355C487.122 376.03 488.226 374.373 488.226 372.716C488.116 370.838 487.011 369.071 484.802 367.856Z" fill="#7974F2"/>
<path d="M445.479 324.225V368.74C445.037 378.57 438.299 388.401 425.265 395.912C398.313 411.487 354.682 411.487 327.73 395.912C314.807 388.401 308.069 378.681 307.516 368.85V324.225H445.479Z" fill="#211D91"/>
<path d="M478.396 316.161L384.064 370.617C379.867 373.047 373.129 373.047 368.931 370.617L274.6 316.161C272.501 314.946 271.507 313.4 271.507 311.853V318.812C271.507 320.359 272.501 322.016 274.6 323.12L368.931 377.576C373.129 380.006 379.867 380.006 384.064 377.576L478.396 323.12C480.494 321.905 481.488 320.359 481.488 318.812V311.853C481.599 313.4 480.494 315.057 478.396 316.161Z" fill="#3D39AD"/>
<path d="M481.599 311.854C481.599 313.4 480.605 315.057 478.506 316.161L384.174 370.617C379.977 373.048 373.239 373.048 369.042 370.617L274.71 316.161C272.611 314.946 271.617 313.4 271.617 311.854C271.617 310.307 272.611 308.65 274.71 307.546L369.042 253.09C373.239 250.66 379.977 250.66 384.174 253.09L478.506 307.546C480.494 308.65 481.599 310.307 481.599 311.854Z" fill="#6C65F5"/>
<path d="M385.279 306.772C390.139 309.534 390.139 314.063 385.279 316.935C380.419 319.696 372.576 319.696 367.716 316.935C362.856 314.173 362.856 309.644 367.716 306.772C372.687 304.011 380.529 304.011 385.279 306.772Z" fill="#3D39AD"/>
<path d="M446.252 419.992C440.619 424.852 424.05 425.184 418.417 419.992C417.312 418.998 416.981 417.452 417.423 416.016L428.91 383.541H435.648L447.136 416.016C447.688 417.452 447.357 418.998 446.252 419.992Z" fill="#BD1E64"/>
<path d="M432.334 391.715C436.178 391.715 439.293 388.055 439.293 383.541C439.293 379.027 436.178 375.367 432.334 375.367C428.491 375.367 425.376 379.027 425.376 383.541C425.376 388.055 428.491 391.715 432.334 391.715Z" fill="#E03681"/>
<path d="M432.334 380.338C431.451 380.338 430.677 379.565 430.677 378.681V343.997C430.677 343.113 431.451 342.34 432.334 342.34C433.218 342.34 433.991 343.113 433.991 343.997V378.681C433.991 379.565 433.218 380.338 432.334 380.338Z" fill="#FF529E"/>
<path d="M432.334 345.654C432.003 345.654 431.782 345.543 431.561 345.433L375.78 313.289C375.006 312.848 374.675 311.854 375.227 311.08C375.669 310.307 376.663 309.976 377.437 310.528L433.218 342.671C433.991 343.113 434.323 344.107 433.77 344.881C433.439 345.433 432.887 345.654 432.334 345.654Z" fill="#FF529E"/>
<path d="M100.296 142.521L105.93 139.207V123.301L100.296 126.504V142.521Z" fill="#F8CD66"/>
<path opacity="0.6" d="M100.296 126.504L103.72 128.493C107.918 130.923 112.667 130.923 114.766 126.946C111.673 126.946 109.354 125.289 105.819 123.191L100.296 126.504Z" fill="#1CAAD9"/>
<path d="M109.354 70.3914L52.5782 37.5853C49.154 35.597 46.0612 35.3761 43.852 36.7016L38.2186 39.9049C40.4278 38.5794 43.5206 38.8003 46.9448 40.7886L103.72 73.5947C110.569 77.5712 116.092 87.1811 116.092 95.0236V121.423C116.092 125.4 114.656 128.161 112.447 129.487L118.08 126.283C120.289 124.958 121.725 122.196 121.725 118.22V91.8204C121.725 83.8673 116.202 74.2575 109.354 70.3914Z" fill="#F8CD66"/>
<path d="M103.72 73.5947L46.9448 40.7885C40.0964 36.812 34.5735 40.0153 34.5735 47.9683V74.3679C34.5735 82.2105 40.0964 91.8203 46.9448 95.7968L85.1634 117.889L100.296 142.631V126.615L103.72 128.603C110.569 132.58 116.092 129.376 116.092 121.423V95.0236C116.202 87.0706 110.569 77.5712 103.72 73.5947Z" fill="#F2A130"/>
<path d="M72.5712 73.8155L106.151 93.1457C107.476 93.9189 108.581 93.2562 108.581 91.7098C108.581 90.1634 107.476 88.2856 106.151 87.5123L72.5712 68.1821C71.2457 67.4089 70.1411 68.0717 70.1411 69.6181C70.1411 71.1645 71.2457 73.0423 72.5712 73.8155Z" fill="white"/>
<path d="M44.6252 57.5782L61.8567 67.5194C63.1822 68.2926 64.2868 67.6299 64.2868 66.0835C64.2868 64.5371 63.1822 62.6593 61.8567 61.886L44.6252 51.9448C43.2997 51.1716 42.1951 51.8343 42.1951 53.3808C42.1951 55.0376 43.2997 56.805 44.6252 57.5782Z" fill="white"/>
<path d="M90.5758 96.2386L106.04 105.186C107.366 105.959 108.47 105.296 108.47 103.75C108.47 102.203 107.366 100.326 106.04 99.5524L90.5758 90.6053C89.2503 89.832 88.1458 90.4948 88.1458 92.0412C88.2562 93.6981 89.2503 95.4654 90.5758 96.2386Z" fill="white"/>
<path d="M53.5723 74.6992L81.0764 90.6052C82.402 91.3784 83.5065 90.7157 83.5065 89.1693C83.5065 87.6228 82.402 85.7451 81.0764 84.9719L53.5723 69.1763C52.2468 68.4031 51.1422 69.0658 51.1422 70.6123C51.1422 72.1587 52.2468 74.0365 53.5723 74.6992Z" fill="white"/>
<path d="M59.537 90.2738L106.15 117.115C107.476 117.888 108.581 117.226 108.581 115.679C108.581 114.133 107.476 112.255 106.15 111.482L59.537 84.6405C58.2115 83.8673 57.1069 84.53 57.1069 86.0764C57.1069 87.7333 58.2115 89.6111 59.537 90.2738Z" fill="white"/>
<path d="M227.544 112.918L222.021 109.715V93.8085L227.544 97.0118V112.918Z" fill="#E64E90"/>
<path opacity="0.6" d="M227.544 97.0118L224.12 99.0001C219.923 101.43 215.173 101.43 213.074 97.4537C216.167 97.4537 218.487 95.7968 222.021 93.6981L227.544 97.0118Z" fill="#1CAAD9"/>
<path d="M218.487 40.7885L275.262 7.98232C278.687 5.99407 281.78 5.77315 283.989 7.09865L289.622 10.3019C287.413 8.97645 284.32 9.19737 280.896 11.1856L224.12 43.9918C217.272 47.9683 211.749 57.5782 211.749 65.4207V91.8203C211.749 95.7968 213.185 98.5583 215.394 99.8838L209.761 96.6805C207.551 95.3549 206.115 92.5935 206.115 88.617V62.2174C206.115 54.3749 211.638 44.765 218.487 40.7885Z" fill="#E64E90"/>
<path d="M224.12 44.1022L280.896 11.2961C287.744 7.31957 293.267 10.5229 293.267 18.4759V44.8754C293.267 52.718 287.744 62.3279 280.896 66.3044L242.677 88.3961L227.544 113.139V97.1223L224.12 99.1105C217.272 103.087 211.749 99.8838 211.749 91.9307V65.5312C211.749 57.5782 217.272 47.9683 224.12 44.1022Z" fill="#BD1E64"/>
<path d="M255.38 44.3231L221.801 63.6533C220.475 64.4265 219.37 63.7638 219.37 62.2174C219.37 60.671 220.475 58.7932 221.801 58.02L255.38 38.6897C256.705 37.9165 257.81 38.5793 257.81 40.1257C257.81 41.6721 256.705 43.5499 255.38 44.3231Z" fill="white"/>
<path d="M283.215 28.0858L265.984 38.027C264.658 38.8002 263.554 38.1375 263.554 36.5911C263.554 35.0447 264.658 33.1669 265.984 32.3936L283.215 22.4524C284.541 21.6792 285.646 22.3419 285.646 23.8884C285.646 25.4348 284.541 27.3126 283.215 28.0858Z" fill="white"/>
<path d="M237.265 66.7462L221.801 75.6933C220.475 76.4665 219.37 75.8038 219.37 74.2574C219.37 72.7109 220.475 70.8332 221.801 70.06L237.265 61.1128C238.59 60.3396 239.695 61.0024 239.695 62.5488C239.695 64.0952 238.59 65.973 237.265 66.7462Z" fill="white"/>
<path d="M274.379 45.2068L246.875 61.1128C245.549 61.886 244.445 61.2233 244.445 59.6769C244.445 58.1304 245.549 56.2526 246.875 55.4794L274.379 39.5734C275.704 38.8002 276.809 39.463 276.809 41.0094C276.698 42.5558 275.704 44.4336 274.379 45.2068Z" fill="white"/>
<path d="M268.304 60.7814L221.69 87.6228C220.365 88.396 219.26 87.7333 219.26 86.1869C219.26 84.6404 220.365 82.7626 221.69 81.9894L268.304 55.148C269.629 54.3748 270.734 55.0376 270.734 56.584C270.734 58.1304 269.629 60.0082 268.304 60.7814Z" fill="white"/>
<path opacity="0.15" d="M286.971 401.546L194.407 455.008C192.529 456.112 190.099 456.112 188.221 455.008L167.345 442.857C165.798 441.974 165.798 439.764 167.345 438.881L259.909 385.419C261.786 384.314 264.217 384.314 266.094 385.419L286.971 397.569C288.517 398.342 288.517 400.662 286.971 401.546Z" fill="#7974F2"/>
<path d="M286.75 396.907L191.314 452.025L167.565 438.328L263.002 383.21L286.75 396.907ZM260.792 398.122C262.891 399.337 266.205 399.226 268.304 398.011C270.402 396.796 270.513 394.808 268.414 393.703C266.315 392.488 263.002 392.599 260.903 393.814C258.804 395.029 258.804 396.907 260.792 398.122Z" fill="#FFCB64"/>
<path d="M234.172 413.475C234.614 413.696 234.614 414.027 234.172 414.359C233.73 414.58 233.178 414.58 232.736 414.359L220.806 407.51L222.242 406.627L234.172 413.475ZM216.499 417.341C216.94 417.562 216.94 417.894 216.499 418.225C216.057 418.446 215.504 418.446 215.063 418.225L208.766 414.58L210.202 413.696L216.499 417.341ZM185.681 441.532C186.122 441.753 186.122 442.084 185.681 442.415C185.239 442.636 184.687 442.636 184.245 442.415L172.315 435.567L173.751 434.683L185.681 441.532ZM209.982 427.503C210.423 427.724 210.423 428.056 209.982 428.387C209.54 428.608 208.987 428.608 208.546 428.387L196.616 421.539L198.052 420.655L209.982 427.503ZM192.198 431.259C192.64 431.48 192.64 431.811 192.198 432.143C191.756 432.364 191.204 432.364 190.762 432.143L184.466 428.498L185.902 427.614L192.198 431.259ZM258.694 385.64L264.99 389.285C265.432 389.506 265.432 389.837 264.99 390.168C264.548 390.389 263.996 390.389 263.554 390.168L257.258 386.523L258.694 385.64ZM240.689 403.313C241.131 403.534 241.131 403.865 240.689 404.197C240.247 404.418 239.695 404.418 239.253 404.197L232.957 400.552L234.393 399.668L240.689 403.313ZM258.473 399.557C258.915 399.778 258.915 400.11 258.473 400.441C258.031 400.662 257.479 400.662 257.037 400.441L245.107 393.593L246.543 392.709L258.473 399.557Z" fill="#A85E18"/>
<path d="M268.524 395.691C266.426 394.476 263.112 394.587 261.013 395.802C260.35 396.133 259.909 396.575 259.688 397.017C259.025 395.912 259.467 394.697 261.013 393.814C263.112 392.599 266.536 392.599 268.524 393.703C269.96 394.587 270.402 395.802 269.739 396.796C269.408 396.465 269.077 396.023 268.524 395.691Z" fill="#D4751C"/>
<path d="M167.676 438.218L191.424 451.915V453.903L167.676 440.206V438.218Z" fill="#D4751C"/>
<path d="M286.75 396.906V398.895L191.424 453.903V451.915L286.75 396.906Z" fill="#F2963F"/>
</svg>
