<svg width="495" height="486" viewBox="0 0 495 486" fill="none" xmlns="http://www.w3.org/2000/svg">
<g clip-path="url(#clip0)">
<path opacity="0.15" d="M494.02 154.294L395.412 97.2654C392.256 95.4117 388.338 95.4117 385.181 97.2654L334.354 126.707C333.048 127.47 333.048 129.324 334.354 130.087L432.962 187.116C436.118 188.97 440.036 188.97 443.193 187.116L494.02 157.675C495.326 156.911 495.326 155.058 494.02 154.294Z" fill="#7974F2"/>
<path d="M465.831 103.59L465.396 104.571L455.927 134.122L455.6 134.994L438.948 186.789H438.077L454.947 134.667L455.165 133.794L464.96 103.59L465.287 102.499L465.722 103.481L465.831 103.59Z" fill="#5C58BF"/>
<path d="M362.869 43.2896L335.66 127.579L438.077 186.789L455.165 133.685L465.287 102.499L362.869 43.2896Z" fill="#928EE8"/>
<path d="M370.379 53.1034L345.891 128.124L434.05 179.156L448.852 133.467L458.539 104.135L370.379 53.1034Z" fill="#B5B5FF"/>
<path d="M369.726 52.013L345.238 127.143L433.397 178.175L448.199 132.486L457.886 103.045L369.726 52.013Z" fill="#D4D4FF"/>
<path d="M369.182 50.7045C361.019 75.7841 352.856 100.755 344.693 125.834C374.08 142.845 403.466 159.855 432.853 176.866C440.907 151.786 449.07 126.816 457.342 101.736C427.955 84.7256 398.569 67.715 369.182 50.7045ZM377.454 63.5714C375.712 62.5901 374.951 62.1539 373.209 61.1725C372.665 60.8454 372.447 59.9731 372.665 59.3188C372.883 58.5555 373.536 58.2284 374.08 58.5555C375.821 59.5369 376.583 59.9731 378.325 60.9544C378.869 61.2816 379.086 62.1539 378.869 62.8082C378.651 63.4624 377.998 63.8986 377.454 63.5714ZM391.712 71.7496C389.97 70.7682 389.209 70.332 387.467 69.3507C386.923 69.0235 386.705 68.1512 386.923 67.497C387.141 66.7337 387.794 66.4065 388.338 66.7337C390.079 67.715 390.841 68.1512 392.583 69.1326C393.127 69.4597 393.344 70.332 393.127 70.9863C392.909 71.7496 392.256 72.0767 391.712 71.7496ZM406.079 80.0368C404.337 79.0554 403.575 78.6192 401.834 77.6379C401.29 77.3107 401.072 76.4384 401.29 75.7841C401.507 75.0209 402.16 74.6937 402.705 75.0209C404.446 76.0022 405.208 76.4384 406.949 77.4198C407.493 77.7469 407.711 78.6192 407.493 79.2735C407.167 80.0368 406.623 80.3639 406.079 80.0368ZM420.336 88.324C418.595 87.3426 417.833 86.9064 416.092 85.9251C415.548 85.5979 415.33 84.7256 415.548 84.0713C415.765 83.308 416.418 82.9809 416.962 83.308C418.704 84.2894 419.466 84.7256 421.207 85.707C421.751 86.0341 421.969 86.9064 421.751 87.5607C421.425 88.324 420.881 88.6511 420.336 88.324ZM434.594 96.5021C432.853 95.5207 432.091 95.0846 430.35 94.1032C429.805 93.7761 429.588 92.9037 429.805 92.2495C430.023 91.4862 430.676 91.1591 431.22 91.4862C432.962 92.4676 433.724 92.9037 435.465 93.8851C436.009 94.2122 436.227 95.0846 436.009 95.7388C435.683 96.5021 435.139 96.8292 434.594 96.5021ZM448.852 104.789C447.111 103.808 446.349 103.372 444.608 102.39C444.063 102.063 443.846 101.191 444.063 100.537C444.281 99.7734 444.934 99.4463 445.478 99.7734C447.22 100.755 447.982 101.191 449.723 102.172C450.267 102.499 450.485 103.372 450.267 104.026C450.05 104.789 449.396 105.116 448.852 104.789Z" fill="white"/>
<path d="M378.107 74.2576C375.712 72.84 374.406 72.1858 372.012 70.7682C371.468 70.4411 371.25 69.6778 371.468 69.0235C371.685 68.3693 372.23 68.0422 372.774 68.3693C375.168 69.7868 376.474 70.4411 378.869 71.8586C379.413 72.1858 379.631 72.9491 379.413 73.6033C379.195 74.2576 378.651 74.5847 378.107 74.2576Z" fill="#D3D0FB"/>
<path d="M389.1 80.582C386.705 79.1644 385.399 78.5102 383.005 77.0926C382.46 76.7655 382.243 76.0022 382.46 75.348C382.678 74.6937 383.222 74.3666 383.766 74.6937C386.161 76.1113 387.467 76.7655 389.861 78.1831C390.406 78.5102 390.623 79.2735 390.406 79.9277C390.188 80.582 389.644 80.9091 389.1 80.582Z" fill="#D3D0FB"/>
<path d="M400.201 87.0155C397.807 85.5979 396.501 84.9437 394.106 83.5261C393.562 83.199 393.344 82.4357 393.562 81.7815C393.78 81.1272 394.324 80.8001 394.868 81.1272C397.262 82.5448 398.569 83.199 400.963 84.6165C401.507 84.9437 401.725 85.707 401.507 86.3612C401.29 87.0155 400.636 87.3426 400.201 87.0155Z" fill="#D3D0FB"/>
<path d="M411.194 93.4489C408.8 92.0314 407.494 91.3771 405.099 89.9596C404.555 89.6325 404.337 88.8692 404.555 88.2149C404.773 87.5607 405.317 87.2335 405.861 87.5607C408.255 88.9782 409.561 89.6325 411.956 91.05C412.5 91.3771 412.718 92.1404 412.5 92.7947C412.282 93.3399 411.738 93.667 411.194 93.4489Z" fill="#D3D0FB"/>
<path d="M422.296 99.7734C419.901 98.3558 418.595 97.7016 416.201 96.284C415.656 95.9569 415.439 95.1936 415.656 94.5394C415.874 93.8851 416.418 93.558 416.962 93.8851C419.357 95.3027 420.663 95.9569 423.058 97.3745C423.602 97.7016 423.819 98.4649 423.602 99.1191C423.384 99.7734 422.731 100.1 422.296 99.7734Z" fill="#D3D0FB"/>
<path d="M433.288 106.207C430.894 104.789 429.588 104.135 427.193 102.718C426.649 102.39 426.431 101.627 426.649 100.973C426.867 100.319 427.411 99.9915 427.955 100.319C430.35 101.736 431.656 102.39 434.05 103.808C434.594 104.135 434.812 104.898 434.594 105.553C434.377 106.207 433.832 106.425 433.288 106.207Z" fill="#D3D0FB"/>
<path d="M444.281 112.531C441.887 111.114 440.58 110.459 438.186 109.042C437.642 108.715 437.424 107.952 437.642 107.297C437.859 106.643 438.404 106.316 438.948 106.643C441.342 108.061 442.648 108.715 445.043 110.132C445.587 110.459 445.805 111.223 445.587 111.877C445.478 112.531 444.825 112.858 444.281 112.531Z" fill="#D3D0FB"/>
<path d="M409.126 108.606C404.664 106.098 402.487 104.789 398.133 102.172C398.025 102.063 397.916 101.845 398.025 101.627C399.331 97.7016 399.984 95.6298 401.29 91.7043C401.399 91.4862 401.507 91.3772 401.725 91.4862C406.187 93.9942 408.364 95.3027 412.718 97.9197C412.827 98.0287 412.935 98.2468 412.827 98.4649C411.521 102.39 410.868 104.462 409.561 108.388C409.561 108.606 409.344 108.715 409.126 108.606ZM398.678 101.627C402.813 104.026 404.99 105.225 409.126 107.624C410.323 103.917 410.976 102.172 412.174 98.4649C408.038 96.066 405.861 94.8665 401.725 92.4676C400.528 96.066 399.875 97.9197 398.678 101.627Z" fill="#D3D0FB"/>
<path d="M420.228 114.93C415.765 112.422 413.589 111.114 409.235 108.497C409.126 108.388 409.017 108.17 409.126 107.952C410.432 104.026 411.085 101.954 412.391 98.0287C412.5 97.8106 412.609 97.7016 412.827 97.8106C417.289 100.319 419.466 101.627 423.819 104.244C423.928 104.353 424.037 104.571 423.928 104.789C422.622 108.715 421.969 110.787 420.663 114.712C420.554 114.93 420.337 115.039 420.228 114.93ZM409.779 107.952C413.915 110.35 416.092 111.55 420.228 113.949C421.425 110.241 422.078 108.497 423.275 104.789C419.139 102.39 416.963 101.191 412.827 98.792C411.521 102.499 410.976 104.353 409.779 107.952Z" fill="#D3D0FB"/>
<path d="M431.22 121.364C426.758 118.856 424.581 117.547 420.228 114.93C420.119 114.821 420.01 114.603 420.119 114.385C421.425 110.459 422.078 108.388 423.384 104.462C423.493 104.244 423.602 104.135 423.819 104.244C428.282 106.752 430.459 108.061 434.812 110.678C434.921 110.787 435.03 111.005 434.921 111.223C433.615 115.148 432.962 117.22 431.656 121.146C431.547 121.364 431.438 121.473 431.22 121.364ZM420.772 114.385C424.908 116.784 427.085 117.983 431.22 120.382C432.418 116.675 433.071 114.93 434.268 111.223C430.132 108.824 427.955 107.624 423.819 105.225C422.622 108.824 421.969 110.678 420.772 114.385Z" fill="#D3D0FB"/>
<path d="M442.213 127.688C437.751 125.18 435.574 123.872 431.22 121.255C431.111 121.146 431.003 120.928 431.111 120.709C432.418 116.784 433.071 114.712 434.377 110.787C434.485 110.569 434.594 110.459 434.812 110.569C439.274 113.076 441.451 114.385 445.805 117.002C445.914 117.111 446.022 117.329 445.914 117.547C444.608 121.473 443.954 123.545 442.648 127.47C442.648 127.688 442.431 127.797 442.213 127.688Z" fill="#D3D0FB"/>
<path d="M372.883 99.3372C368.42 96.8292 366.243 95.5207 361.89 92.9037C361.781 92.7947 361.672 92.5766 361.672 92.3585C362.978 88.433 363.631 86.3612 364.937 82.4357C365.046 82.2176 365.155 82.1086 365.373 82.2176C369.835 84.7256 372.012 86.0341 376.365 88.6511C376.474 88.7601 376.583 88.9782 376.583 89.1963C375.277 93.1218 374.624 95.1936 373.318 99.1191C373.209 99.3372 372.991 99.4462 372.883 99.3372ZM362.325 92.3585C366.461 94.7574 368.638 95.9569 372.774 98.3558C373.971 94.6484 374.515 92.9037 375.712 89.1963C371.577 86.7974 369.4 85.5979 365.264 83.199C364.175 86.9064 363.522 88.7601 362.325 92.3585Z" fill="#D3D0FB"/>
<path d="M383.875 105.771C379.413 103.263 377.236 101.954 372.883 99.3372C372.774 99.2282 372.665 99.0101 372.665 98.792C373.971 94.8665 374.624 92.7947 375.93 88.8692C376.039 88.6511 376.148 88.542 376.366 88.6511C380.828 91.1591 383.005 92.4675 387.358 95.0846C387.467 95.1936 387.576 95.4117 387.467 95.6298C386.161 99.5553 385.508 101.627 384.202 105.553C384.202 105.771 384.093 105.88 383.875 105.771ZM373.427 98.792C377.563 101.191 379.74 102.39 383.875 104.789C385.073 101.082 385.617 99.3372 386.814 95.6298C382.678 93.2308 380.501 92.0314 376.366 89.6325C375.168 93.2308 374.624 95.0846 373.427 98.792Z" fill="#D3D0FB"/>
<path d="M394.868 112.095C390.406 109.587 388.229 108.279 383.875 105.662C383.767 105.553 383.658 105.335 383.658 105.116C384.964 101.082 385.617 99.1191 386.923 95.1936C387.032 94.9755 387.141 94.8665 387.358 94.9755C391.821 97.4835 393.997 98.792 398.351 101.409C398.46 101.518 398.569 101.736 398.46 101.954C397.154 105.88 396.501 107.952 395.195 111.877C395.303 112.095 395.086 112.204 394.868 112.095ZM384.42 105.116C388.555 107.515 390.732 108.715 394.868 111.114C396.065 107.406 396.61 105.662 397.807 101.954C393.671 99.5553 391.494 98.3558 387.358 95.9569C386.161 99.6643 385.617 101.518 384.42 105.116Z" fill="#D3D0FB"/>
<path d="M405.97 118.529C401.507 116.021 399.33 114.712 394.977 112.095C394.868 111.986 394.759 111.768 394.759 111.55C396.065 107.515 396.718 105.553 398.024 101.627C398.133 101.409 398.242 101.3 398.46 101.409C402.922 103.917 405.099 105.225 409.453 107.842C409.561 107.952 409.67 108.17 409.561 108.388C408.255 112.313 407.602 114.385 406.296 118.31C406.296 118.529 406.079 118.638 405.97 118.529ZM395.412 111.55C399.548 113.949 401.725 115.148 405.861 117.547C407.058 113.84 407.602 111.986 408.8 108.388C404.664 105.989 402.487 104.789 398.351 102.39C397.263 105.989 396.61 107.842 395.412 111.55Z" fill="#D3D0FB"/>
<path d="M416.962 124.962C412.5 122.454 410.323 121.146 405.97 118.529C405.861 118.42 405.752 118.201 405.752 117.983C407.058 113.949 407.711 111.986 409.017 108.061C409.126 107.842 409.235 107.733 409.453 107.842C413.915 110.35 416.092 111.659 420.445 114.276C420.554 114.385 420.663 114.603 420.554 114.821C419.248 118.747 418.595 120.818 417.289 124.744C417.289 124.962 417.18 124.962 416.962 124.962ZM406.514 117.874C410.65 120.273 412.827 121.473 416.962 123.872C418.16 120.164 418.704 118.31 419.901 114.712C415.765 112.313 413.588 111.114 409.453 108.715C408.255 112.422 407.711 114.276 406.514 117.874Z" fill="#D3D0FB"/>
<path d="M428.064 131.287C423.602 128.779 421.425 127.47 417.071 124.853C416.963 124.744 416.854 124.526 416.854 124.308C418.16 120.273 418.813 118.311 420.119 114.385C420.228 114.167 420.337 114.058 420.554 114.167C425.017 116.675 427.193 117.983 431.547 120.6C431.656 120.709 431.765 120.928 431.656 121.146C430.35 125.071 429.697 127.143 428.391 131.068C428.391 131.287 428.173 131.396 428.064 131.287ZM417.507 124.308C421.643 126.707 423.819 127.906 427.955 130.305C429.153 126.598 429.697 124.744 430.894 121.146C426.758 118.747 424.581 117.547 420.445 115.148C419.248 118.747 418.704 120.6 417.507 124.308Z" fill="#D3D0FB"/>
<path d="M439.057 137.72C434.594 135.212 432.418 133.904 428.064 131.287C427.955 131.177 427.846 130.959 427.846 130.741C429.153 126.707 429.806 124.744 431.112 120.818C431.22 120.6 431.329 120.491 431.547 120.6C436.009 123.108 438.186 124.417 442.54 127.034C442.649 127.143 442.757 127.361 442.649 127.579C441.343 131.505 440.689 133.576 439.383 137.502C439.383 137.72 439.166 137.829 439.057 137.72Z" fill="#D3D0FB"/>
<path d="M369.617 109.369C365.155 106.861 362.978 105.553 358.625 102.936C358.516 102.827 358.407 102.608 358.407 102.39C359.713 98.4649 360.366 96.3931 361.672 92.4676C361.781 92.2495 361.89 92.1404 362.108 92.2495C366.57 94.7574 368.747 96.0659 373.1 98.6829C373.209 98.792 373.318 99.0101 373.318 99.2282C372.012 103.154 371.359 105.225 370.053 109.151C369.944 109.26 369.726 109.369 369.617 109.369ZM359.169 102.281C363.305 104.68 365.482 105.88 369.617 108.279C370.815 104.571 371.359 102.827 372.556 99.1191C368.42 96.7202 366.243 95.5207 362.108 93.1218C360.91 96.8292 360.366 98.683 359.169 102.281Z" fill="#D3D0FB"/>
<path d="M380.61 115.693C376.148 113.186 373.971 111.877 369.618 109.26C369.509 109.151 369.4 108.933 369.4 108.715C370.706 104.789 371.359 102.717 372.665 98.792C372.774 98.5739 372.883 98.4649 373.1 98.5739C377.563 101.082 379.74 102.39 384.093 105.007C384.202 105.116 384.311 105.335 384.311 105.553C383.005 109.478 382.352 111.55 381.046 115.475C381.046 115.694 380.828 115.803 380.61 115.693ZM370.162 108.715C374.298 111.114 376.474 112.313 380.61 114.712C381.808 111.005 382.352 109.26 383.549 105.553C379.413 103.154 377.236 101.954 373.1 99.5553C371.903 103.154 371.359 105.007 370.162 108.715Z" fill="#D3D0FB"/>
<path d="M391.712 122.127C387.249 119.619 385.073 118.31 380.719 115.693C380.61 115.584 380.501 115.366 380.501 115.148C381.808 111.114 382.461 109.151 383.767 105.225C383.875 105.007 383.984 104.898 384.202 105.007C388.664 107.515 390.841 108.824 395.195 111.441C395.304 111.55 395.412 111.768 395.412 111.986C394.106 116.021 393.453 117.983 392.147 121.909C392.038 122.127 391.821 122.236 391.712 122.127ZM381.155 115.148C385.29 117.547 387.467 118.747 391.603 121.146C392.8 117.438 393.344 115.693 394.542 111.986C390.406 109.587 388.229 108.388 384.093 105.989C383.005 109.587 382.352 111.441 381.155 115.148Z" fill="#D3D0FB"/>
<path d="M402.705 128.451C398.242 125.943 396.065 124.635 391.712 122.018C391.603 121.909 391.494 121.691 391.494 121.473C392.8 117.438 393.453 115.475 394.759 111.55C394.868 111.332 394.977 111.223 395.195 111.332C399.657 113.84 401.834 115.148 406.187 117.765C406.296 117.874 406.405 118.092 406.405 118.31C405.099 122.345 404.446 124.308 403.14 128.233C403.031 128.451 402.922 128.56 402.705 128.451ZM392.256 121.473C396.392 123.872 398.569 125.071 402.705 127.47C403.902 123.763 404.446 122.018 405.643 118.31C401.507 115.912 399.331 114.712 395.195 112.313C393.997 116.021 393.453 117.765 392.256 121.473Z" fill="#D3D0FB"/>
<path d="M413.806 134.885C409.344 132.377 407.167 131.068 402.813 128.451C402.705 128.342 402.596 128.124 402.596 127.906C403.902 123.872 404.555 121.909 405.861 117.983C405.97 117.765 406.079 117.656 406.296 117.765C410.759 120.273 412.935 121.582 417.289 124.199C417.398 124.308 417.507 124.526 417.507 124.744C416.201 128.779 415.548 130.741 414.241 134.667C414.133 134.885 413.915 134.994 413.806 134.885ZM403.249 127.906C407.385 130.305 409.561 131.505 413.697 133.904C414.894 130.196 415.439 128.451 416.636 124.744C412.5 122.345 410.323 121.146 406.187 118.747C405.099 122.345 404.446 124.199 403.249 127.906Z" fill="#D3D0FB"/>
<path d="M424.799 141.209C420.336 138.701 418.16 137.393 413.806 134.776C413.697 134.667 413.588 134.449 413.588 134.231C414.894 130.196 415.547 128.233 416.854 124.308C416.962 124.09 417.071 123.981 417.289 124.09C421.751 126.598 423.928 127.906 428.282 130.523C428.39 130.632 428.499 130.85 428.499 131.068C427.193 135.103 426.54 137.066 425.234 140.991C425.125 141.209 424.908 141.318 424.799 141.209ZM414.35 134.231C418.486 136.63 420.663 137.829 424.799 140.228C425.996 136.521 426.54 134.776 427.737 131.068C423.602 128.669 421.425 127.47 417.289 125.071C416.092 128.779 415.439 130.632 414.35 134.231Z" fill="#D3D0FB"/>
<path d="M435.792 147.643C431.329 145.135 429.153 143.826 424.799 141.209C424.69 141.1 424.581 140.882 424.581 140.664C425.887 136.63 426.54 134.667 427.846 130.741C427.955 130.523 428.064 130.414 428.282 130.523C432.744 133.031 434.921 134.34 439.275 136.957C439.383 137.066 439.492 137.284 439.492 137.502C438.186 141.536 437.533 143.499 436.227 147.425C436.227 147.643 436.009 147.752 435.792 147.643Z" fill="#D3D0FB"/>
<path d="M366.352 119.292C361.89 116.784 359.713 115.475 355.36 112.858C355.251 112.749 355.142 112.531 355.142 112.313C356.448 108.388 357.101 106.316 358.407 102.39C358.516 102.172 358.625 102.063 358.842 102.172C363.305 104.68 365.482 105.989 369.835 108.606C369.944 108.715 370.053 108.933 370.053 109.151C368.747 113.076 368.094 115.148 366.788 119.074C366.679 119.292 366.57 119.401 366.352 119.292ZM355.904 112.313C360.04 114.712 362.216 115.912 366.352 118.311C367.549 114.603 368.094 112.858 369.291 109.151C365.155 106.752 362.978 105.553 358.842 103.154C357.645 106.752 357.101 108.606 355.904 112.313Z" fill="#D3D0FB"/>
<path d="M377.454 125.616C372.991 123.108 370.815 121.8 366.461 119.183C366.352 119.074 366.243 118.856 366.243 118.638C367.549 114.712 368.203 112.64 369.509 108.715C369.617 108.497 369.726 108.388 369.944 108.497C374.406 111.005 376.583 112.313 380.937 114.93C381.046 115.039 381.154 115.257 381.154 115.475C379.848 119.51 379.195 121.473 377.889 125.398C377.78 125.616 377.563 125.725 377.454 125.616ZM366.896 118.638C371.032 121.037 373.209 122.236 377.345 124.635C378.542 120.928 379.086 119.183 380.284 115.475C376.148 113.076 373.971 111.877 369.835 109.478C368.747 113.186 368.094 115.039 366.896 118.638Z" fill="#D3D0FB"/>
<path d="M388.447 132.05C383.984 129.542 381.808 128.233 377.454 125.616C377.345 125.507 377.236 125.289 377.236 125.071C378.542 121.146 379.195 119.074 380.501 115.148C380.61 114.93 380.719 114.821 380.937 114.93C385.399 117.438 387.576 118.747 391.93 121.364C392.038 121.473 392.147 121.691 392.147 121.909C390.841 125.943 390.188 127.906 388.882 131.832C388.773 132.05 388.664 132.159 388.447 132.05ZM377.998 125.071C382.134 127.47 384.311 128.669 388.447 131.068C389.644 127.361 390.188 125.616 391.385 121.909C387.25 119.51 385.073 118.31 380.937 115.912C379.74 119.51 379.195 121.364 377.998 125.071Z" fill="#D3D0FB"/>
<path d="M399.439 138.483C394.977 135.975 392.8 134.667 388.447 132.05C388.338 131.941 388.229 131.723 388.229 131.505C389.535 127.47 390.188 125.507 391.494 121.582C391.603 121.364 391.712 121.255 391.93 121.364C396.392 123.872 398.569 125.18 402.922 127.797C403.031 127.906 403.14 128.124 403.14 128.342C401.834 132.377 401.181 134.34 399.875 138.265C399.875 138.374 399.657 138.483 399.439 138.483ZM388.991 131.396C393.127 133.794 395.304 134.994 399.439 137.393C400.637 133.685 401.181 131.941 402.378 128.233C398.242 125.834 396.065 124.635 391.93 122.236C390.732 125.943 390.188 127.797 388.991 131.396Z" fill="#D3D0FB"/>
<path d="M410.541 144.808C406.079 142.3 403.902 140.991 399.548 138.374C399.439 138.265 399.331 138.047 399.331 137.829C400.637 133.794 401.29 131.832 402.596 127.906C402.705 127.688 402.813 127.579 403.031 127.688C407.493 130.196 409.67 131.505 414.024 134.122C414.133 134.231 414.242 134.449 414.242 134.667C412.935 138.701 412.282 140.664 410.976 144.59C410.868 144.808 410.65 144.917 410.541 144.808ZM399.984 137.829C404.119 140.228 406.296 141.427 410.432 143.826C411.629 140.119 412.174 138.374 413.371 134.667C409.235 132.268 407.058 131.068 402.922 128.669C401.834 132.268 401.181 134.122 399.984 137.829Z" fill="#D3D0FB"/>
<path d="M421.534 151.241C417.071 148.733 414.895 147.425 410.541 144.808C410.432 144.699 410.323 144.481 410.323 144.263C411.629 140.228 412.282 138.265 413.588 134.34C413.697 134.122 413.806 134.013 414.024 134.122C418.486 136.63 420.663 137.938 425.017 140.555C425.125 140.664 425.234 140.882 425.234 141.1C423.928 145.135 423.275 147.098 421.969 151.023C421.969 151.241 421.751 151.35 421.534 151.241ZM411.085 144.263C415.221 146.661 417.398 147.861 421.534 150.26C422.731 146.552 423.275 144.808 424.472 141.1C420.336 138.701 418.16 137.502 414.024 135.103C412.827 138.701 412.282 140.555 411.085 144.263Z" fill="#D3D0FB"/>
<path d="M432.635 157.566C428.173 155.058 425.996 153.749 421.642 151.132C421.534 151.023 421.425 150.805 421.425 150.587C422.731 146.552 423.384 144.59 424.69 140.664C424.799 140.446 424.908 140.337 425.125 140.446C429.588 142.954 431.765 144.262 436.118 146.879C436.227 146.989 436.336 147.207 436.336 147.425C435.03 151.459 434.377 153.422 433.071 157.348C432.962 157.566 432.744 157.675 432.635 157.566Z" fill="#D3D0FB"/>
<path d="M363.087 129.215C358.625 126.707 356.448 125.398 352.094 122.781C351.986 122.672 351.877 122.454 351.877 122.236C353.183 118.311 353.836 116.239 355.142 112.313C355.251 112.095 355.36 111.986 355.577 112.095C360.04 114.603 362.216 115.912 366.57 118.529C366.679 118.638 366.788 118.856 366.788 119.074C365.482 122.999 364.829 125.071 363.523 128.997C363.523 129.215 363.305 129.324 363.087 129.215ZM352.639 122.236C356.774 124.635 358.951 125.834 363.087 128.342C364.284 124.635 364.829 122.89 366.026 119.183C361.89 116.784 359.713 115.584 355.577 113.186C354.38 116.675 353.836 118.529 352.639 122.236Z" fill="#D3D0FB"/>
<path d="M374.189 135.648C369.726 133.14 367.55 131.832 363.196 129.215C363.087 129.106 362.978 128.888 362.978 128.669C364.284 124.744 364.937 122.672 366.243 118.747C366.352 118.529 366.461 118.42 366.679 118.529C371.141 121.037 373.318 122.345 377.671 124.962C377.78 125.071 377.889 125.289 377.889 125.507C376.583 129.542 375.93 131.505 374.624 135.43C374.515 135.648 374.297 135.648 374.189 135.648ZM363.631 128.56C367.767 130.959 369.944 132.159 374.08 134.667C375.277 130.959 375.821 129.215 377.018 125.507C372.883 123.108 370.706 121.909 366.57 119.51C365.482 123.108 364.829 124.962 363.631 128.56Z" fill="#D3D0FB"/>
<path d="M385.182 141.973C380.719 139.465 378.542 138.156 374.189 135.539C374.08 135.43 373.971 135.212 373.971 134.994C375.277 131.068 375.93 128.997 377.236 125.071C377.345 124.853 377.454 124.744 377.672 124.853C382.134 127.361 384.311 128.669 388.664 131.286C388.773 131.396 388.882 131.614 388.882 131.832C387.576 135.866 386.923 137.829 385.617 141.755C385.617 141.973 385.399 142.082 385.182 141.973ZM374.733 134.994C378.869 137.393 381.046 138.592 385.182 141.1C386.379 137.393 386.923 135.648 388.12 131.941C383.984 129.542 381.808 128.342 377.672 125.943C376.474 129.542 375.93 131.286 374.733 134.994Z" fill="#D3D0FB"/>
<path d="M396.283 148.406C391.821 145.898 389.644 144.59 385.29 141.973C385.181 141.864 385.073 141.645 385.073 141.427C386.379 137.393 387.032 135.43 388.338 131.505C388.447 131.286 388.555 131.177 388.773 131.286C393.235 133.794 395.412 135.103 399.766 137.72C399.875 137.829 399.983 138.047 399.983 138.265C398.677 142.3 398.024 144.262 396.718 148.188C396.609 148.406 396.392 148.515 396.283 148.406ZM385.726 141.427C389.861 143.826 392.038 145.026 396.174 147.534C397.371 143.826 397.916 142.082 399.113 138.374C394.977 135.975 392.8 134.776 388.664 132.377C387.576 135.866 386.923 137.72 385.726 141.427Z" fill="#D3D0FB"/>
<path d="M407.276 154.73C402.813 152.223 400.637 150.914 396.283 148.297C396.174 148.188 396.065 147.97 396.065 147.752C397.371 143.717 398.025 141.755 399.331 137.829C399.439 137.611 399.548 137.502 399.766 137.611C404.228 140.119 406.405 141.427 410.759 144.044C410.868 144.153 410.976 144.372 410.976 144.59C409.67 148.624 409.017 150.587 407.711 154.512C407.602 154.73 407.494 154.84 407.276 154.73ZM396.827 147.752C400.963 150.151 403.14 151.35 407.276 153.858C408.473 150.151 409.017 148.406 410.214 144.699C406.079 142.3 403.902 141.1 399.766 138.701C398.569 142.3 398.025 144.153 396.827 147.752Z" fill="#D3D0FB"/>
<path d="M391.603 108.497C387.902 105.771 384.42 108.061 383.658 112.64C383.005 119.401 391.059 123.872 393.018 115.366C393.127 114.93 393.671 115.148 393.562 115.584C392.147 124.853 382.352 121.8 381.916 114.167C381.807 112.531 382.352 110.35 383.331 108.715C385.29 105.444 388.991 104.353 392.038 107.624C392.256 107.842 392.256 108.17 392.147 108.388C392.038 108.606 391.821 108.606 391.603 108.497Z" fill="#ED619D"/>
<path d="M368.856 107.406C368.747 107.188 368.529 107.079 368.42 107.188C366.135 108.715 365.046 109.478 362.761 111.114C362.761 111.005 362.108 106.425 362.108 106.316C361.999 105.553 361.346 105.116 360.802 105.335C360.257 105.553 359.931 106.316 360.04 106.97C361.237 113.076 361.237 113.186 361.455 113.404C361.672 113.84 362.216 113.949 362.543 113.622C365.046 111.332 366.243 110.132 368.747 107.842C368.856 107.842 368.856 107.624 368.856 107.406Z" fill="#25A83C"/>
<path d="M431.765 120.709C435.901 123.108 438.077 124.308 442.213 126.707C443.41 122.999 444.063 121.255 445.261 117.547C441.125 115.148 438.948 113.949 434.812 111.55C433.615 115.257 432.962 117.111 431.765 120.709Z" fill="#FF94C1"/>
<path d="M428.608 130.741C432.744 133.14 434.921 134.34 439.057 136.739C440.254 133.031 440.798 131.177 441.995 127.579C437.86 125.18 435.683 123.981 431.547 121.582C430.35 125.18 429.697 127.034 428.608 130.741Z" fill="#FF94C1"/>
<path d="M425.343 140.664C429.479 143.063 431.656 144.263 435.792 146.661C436.989 142.954 437.533 141.209 438.73 137.502C434.594 135.103 432.418 133.904 428.282 131.505C427.084 135.103 426.54 136.957 425.343 140.664Z" fill="#FF94C1"/>
<path d="M422.078 150.587C426.214 152.986 428.391 154.185 432.526 156.584C433.724 152.877 434.268 151.132 435.465 147.425C431.329 145.026 429.152 143.826 425.017 141.427C423.928 145.135 423.275 146.88 422.078 150.587Z" fill="#FF94C1"/>
<path d="M407.276 123.654C407.493 124.308 407.602 124.635 407.711 125.289C407.385 126.052 407.167 126.38 406.84 127.143C406.514 127.797 406.296 128.233 405.97 128.888C407.276 128.779 407.929 128.669 409.126 128.56C409.888 129.869 410.323 130.523 411.085 131.941C411.412 130.305 411.52 129.433 411.847 127.797C413.044 127.143 413.588 126.925 414.786 126.271C414.241 125.834 413.915 125.616 413.371 125.071C412.827 124.635 412.609 124.417 412.065 123.981C412.065 123.435 412.065 123.217 412.065 122.672C412.065 121.473 411.956 120.818 411.956 119.619C411.847 119.837 411.738 119.946 411.521 120.055C410.759 121.037 410.323 121.473 409.453 122.345C408.255 121.909 407.602 121.691 406.405 121.255C406.623 121.364 407.276 123.654 407.276 123.654Z" fill="#ED619D"/>
<path d="M403.466 148.188C395.521 143.608 387.576 139.028 379.631 134.449C378.869 134.013 378.542 132.922 378.869 131.941C379.195 130.959 380.066 130.523 380.719 130.959C388.664 135.539 396.61 140.119 404.555 144.699C405.317 145.135 405.643 146.225 405.317 147.207C404.99 148.188 404.119 148.624 403.466 148.188Z" fill="#25A83C"/>
<path d="M428.064 120.818C427.085 120.928 425.996 121.146 424.908 121.364C424.472 120.382 424.037 119.401 423.71 118.311C423.384 117.329 422.187 117.983 422.513 118.965C422.84 119.837 423.166 120.818 423.384 121.691C422.296 122.018 421.207 122.236 420.228 122.563C419.466 122.781 419.575 124.308 420.336 124.308C421.534 124.199 422.731 123.981 424.037 123.763C424.255 124.635 424.581 125.507 424.908 126.38C425.343 127.688 426.867 126.925 426.431 125.616C426.214 124.962 425.996 124.199 425.67 123.545C426.54 123.326 427.302 123.108 428.173 122.89C429.152 122.454 429.044 120.818 428.064 120.818Z" fill="#413CD1"/>
<path d="M399.548 129.978C396.501 128.233 394.977 127.361 391.929 125.616C391.603 125.398 391.494 124.962 391.603 124.526C391.712 124.09 392.147 123.872 392.474 124.09C395.521 125.834 397.045 126.707 400.092 128.451C400.419 128.669 400.528 129.106 400.419 129.542C400.31 129.978 399.875 130.196 399.548 129.978Z" fill="#413CD1"/>
<path d="M395.303 131.286C393.562 130.305 392.691 129.76 391.059 128.779C390.732 128.56 390.623 128.124 390.732 127.688C390.841 127.252 391.276 127.034 391.603 127.252C393.344 128.233 394.215 128.779 395.848 129.76C396.174 129.978 396.283 130.414 396.174 130.85C395.957 131.286 395.63 131.396 395.303 131.286Z" fill="#413CD1"/>
<path d="M383.875 97.4835C380.828 95.7388 379.304 94.8665 376.257 93.1218C375.93 92.9037 375.821 92.4676 375.93 92.0314C376.039 91.5952 376.474 91.3771 376.801 91.5952C379.848 93.3399 381.372 94.2122 384.419 95.9569C384.746 96.175 384.855 96.6112 384.746 97.0473C384.528 97.4835 384.202 97.7016 383.875 97.4835Z" fill="#413CD1"/>
<path d="M382.352 100.428C379.522 98.792 378.107 97.9197 375.168 96.284C374.842 96.066 374.733 95.6298 374.842 95.1936C374.951 94.7575 375.386 94.5394 375.713 94.7575C378.542 96.3931 379.957 97.2654 382.896 98.901C383.222 99.1191 383.331 99.5553 383.222 99.9915C383.114 100.428 382.678 100.646 382.352 100.428Z" fill="#413CD1"/>
<path d="M390.624 116.021C388.882 115.039 388.011 114.494 386.379 113.513C386.052 113.295 385.943 112.858 386.052 112.422C386.161 111.986 386.596 111.768 386.923 111.986C388.664 112.967 389.535 113.513 391.168 114.494C391.494 114.712 391.603 115.148 391.494 115.584C391.277 116.021 390.95 116.239 390.624 116.021Z" fill="#413CD1"/>
<path d="M418.922 143.281C418.595 144.481 417.507 144.917 416.745 144.481C415.874 143.935 415.548 142.627 415.874 141.536C416.201 140.337 417.289 139.901 418.051 140.337C418.922 140.882 419.357 142.191 418.922 143.281Z" fill="#25A83C"/>
<path d="M375.168 117.983C374.842 119.074 373.753 119.619 372.992 119.183C372.121 118.638 371.794 117.329 372.121 116.239C372.447 115.148 373.536 114.603 374.298 115.039C375.168 115.475 375.604 116.893 375.168 117.983Z" fill="#ED619D"/>
<path d="M382.025 133.685C381.481 135.321 380.175 135.975 378.978 135.321C377.78 134.667 377.236 132.813 377.78 131.177C378.324 129.542 379.631 128.888 380.828 129.542C382.025 130.305 382.569 132.159 382.025 133.685Z" fill="#25A83C"/>
<path d="M401.725 92.4676C400.854 95.0846 400.419 96.3931 399.548 99.1191C403.14 98.5739 406.732 98.0287 410.323 97.4835C406.841 95.4117 405.099 94.4303 401.725 92.4676Z" fill="#413CD1"/>
<path d="M492.497 155.276L491.952 156.039L491.191 154.621L465.396 104.571L465.831 103.59L492.497 155.276Z" fill="#242C73"/>
<path d="M491.953 156.039L455.6 134.994L455.927 134.122L465.396 104.571L491.191 154.621L491.953 156.039Z" fill="#423EAF"/>
<path d="M377.236 62.5901C377.018 63.3534 376.365 63.6805 375.712 63.3534C373.862 62.2629 372.991 61.8268 371.141 60.7364C370.597 60.4092 370.27 59.5369 370.488 58.7736C370.706 58.0103 371.359 57.6832 372.012 58.0103C373.862 59.1007 374.733 59.5369 376.583 60.6273C377.127 60.8454 377.454 61.8268 377.236 62.5901Z" fill="#252373"/>
<path d="M392.473 71.4225C392.256 72.1858 391.603 72.5129 390.95 72.1858C389.099 71.0953 388.229 70.6592 386.378 69.5688C385.834 69.2416 385.508 68.3693 385.725 67.606C385.943 66.8427 386.596 66.5156 387.249 66.8427C389.099 67.9331 389.97 68.3693 391.82 69.4597C392.473 69.7868 392.8 70.6592 392.473 71.4225Z" fill="#252373"/>
<path d="M407.82 80.2549C407.602 81.0182 406.949 81.3453 406.296 81.0182C404.446 79.9277 403.575 79.4916 401.725 78.4012C401.181 78.074 400.854 77.2017 401.072 76.4384C401.29 75.6751 401.943 75.348 402.596 75.6751C404.446 76.7655 405.317 77.2017 407.167 78.2921C407.82 78.6192 408.038 79.4916 407.82 80.2549Z" fill="#252373"/>
<path d="M423.166 89.0873C422.949 89.8506 422.296 90.1777 421.643 89.8506C419.792 88.7601 418.922 88.324 417.071 87.2336C416.527 86.9064 416.201 86.0341 416.418 85.2708C416.636 84.5075 417.289 84.1804 417.942 84.5075C419.792 85.5979 420.663 86.0341 422.513 87.1245C423.057 87.4516 423.384 88.324 423.166 89.0873Z" fill="#252373"/>
<path d="M438.404 97.9197C438.186 98.683 437.533 99.0101 436.88 98.683C435.03 97.5925 434.159 97.1564 432.309 96.066C431.764 95.7388 431.438 94.8665 431.656 94.1032C431.873 93.3399 432.526 93.0128 433.179 93.3399C435.03 94.4303 435.9 94.8665 437.751 95.9569C438.404 96.284 438.621 97.1564 438.404 97.9197Z" fill="#252373"/>
<path d="M452.226 107.515C450.376 106.425 449.505 105.989 447.655 104.898C447.111 104.571 446.784 103.699 447.002 102.936C447.22 102.172 447.873 101.845 448.526 102.172C450.376 103.263 451.247 103.699 453.097 104.789C453.641 105.116 453.968 105.989 453.75 106.752C453.532 107.515 452.879 107.952 452.226 107.515Z" fill="#252373"/>
<path d="M458.865 92.3585C458.974 92.7947 458.974 93.2309 458.974 93.7761C458.974 97.4835 456.362 101.954 453.206 103.808C452.77 104.026 452.335 104.244 451.9 104.353C452.662 104.462 453.532 104.244 454.512 103.699C457.342 102.063 459.627 98.1377 459.627 94.8665C459.518 93.8851 459.301 93.0128 458.865 92.3585Z" fill="#6864D4"/>
<path d="M454.512 104.68C452.879 105.553 451.464 105.662 450.376 105.116C449.288 104.462 448.635 103.154 448.635 101.3C448.635 97.5925 451.247 93.1218 454.403 91.2681C456.036 90.3957 457.45 90.2867 458.539 90.8319C459.627 91.4862 460.28 92.7947 460.28 94.6484C460.28 98.2468 457.668 102.827 454.512 104.68ZM454.512 92.0314C451.682 93.667 449.396 97.5925 449.396 100.864C449.396 104.135 451.682 105.444 454.512 103.808C457.342 102.172 459.627 98.2468 459.627 94.9755C459.518 91.7042 457.342 90.3957 454.512 92.0314Z" fill="#3340A6"/>
<path d="M448.634 101.3C448.634 97.5925 451.247 93.1218 454.403 91.2681C456.035 90.3958 457.45 90.2867 458.539 90.8319L457.233 90.0686C456.144 89.4144 454.729 89.5234 453.097 90.5048C449.94 92.3585 447.328 96.8292 447.328 100.537C447.328 102.39 447.981 103.699 449.07 104.353L450.376 105.116C449.287 104.462 448.634 103.154 448.634 101.3Z" fill="#6864D4"/>
<path d="M382.025 47.9785C382.134 48.4146 382.134 48.8508 382.134 49.396C382.134 53.1034 379.522 57.5742 376.365 59.4279C375.93 59.6459 375.495 59.864 375.059 59.9731C375.821 60.0821 376.692 59.864 377.671 59.3188C380.501 57.6832 382.787 53.7577 382.787 50.4864C382.787 49.396 382.46 48.5237 382.025 47.9785Z" fill="#6864D4"/>
<path d="M377.671 60.1911C376.039 61.0635 374.624 61.1725 373.536 60.6273C372.447 59.973 371.794 58.6645 371.794 56.8108C371.794 53.1034 374.406 48.6327 377.563 46.779C379.195 45.9066 380.61 45.7976 381.699 46.3428C382.787 46.9971 383.44 48.3056 383.44 50.1593C383.44 53.8667 380.937 58.3374 377.671 60.1911ZM377.671 47.6513C374.842 49.2869 372.556 53.2124 372.556 56.4837C372.556 59.755 374.842 61.0635 377.671 59.4278C380.501 57.7922 382.787 53.8667 382.787 50.5954C382.787 47.3242 380.501 46.0157 377.671 47.6513Z" fill="#3340A6"/>
<path d="M371.903 56.8108C371.903 53.1034 374.515 48.6327 377.671 46.779C379.304 45.9067 380.719 45.7976 381.807 46.3428L380.501 45.5795C379.413 44.9253 377.998 45.0343 376.365 46.0157C373.209 47.8694 370.597 52.3401 370.597 56.0475C370.597 57.9013 371.25 59.2098 372.338 59.864L373.644 60.6273C372.556 59.9731 371.903 58.6645 371.903 56.8108Z" fill="#6864D4"/>
<path d="M397.371 56.8109C397.48 57.247 397.48 57.6832 397.48 58.2284C397.48 61.9358 394.868 66.4065 391.712 68.2603C391.276 68.4783 390.841 68.6964 390.406 68.8055C391.168 68.9145 392.038 68.6964 393.018 68.1512C395.848 66.5156 398.133 62.5901 398.133 59.3188C398.133 58.3374 397.807 57.4651 397.371 56.8109Z" fill="#6864D4"/>
<path d="M393.018 69.1326C391.385 70.0049 389.97 70.1139 388.882 69.5687C387.794 68.9145 387.141 67.606 387.141 65.7523C387.141 62.0448 389.753 57.5741 392.909 55.7204C394.542 54.8481 395.957 54.739 397.045 55.2842C398.133 55.9385 398.786 57.247 398.786 59.1007C398.895 62.6991 396.283 67.2789 393.018 69.1326ZM393.018 56.4837C390.188 58.1193 387.902 62.0448 387.902 65.3161C387.902 68.5874 390.188 69.8959 393.018 68.2602C395.848 66.6246 398.133 62.6991 398.133 59.4278C398.133 56.1566 395.848 54.8481 393.018 56.4837Z" fill="#3340A6"/>
<path d="M387.249 65.7523C387.249 62.0449 389.862 57.5741 393.018 55.7204C394.65 54.8481 396.065 54.739 397.154 55.2843L395.848 54.521C394.759 53.8667 393.344 53.9758 391.712 54.9571C388.555 56.8108 385.943 61.2816 385.943 64.989C385.943 66.8427 386.596 68.1512 387.685 68.8055L388.991 69.5687C387.902 68.9145 387.249 67.606 387.249 65.7523Z" fill="#6864D4"/>
<path d="M412.718 65.7523C412.827 66.1884 412.826 66.6246 412.826 67.1698C412.826 70.8772 410.214 75.348 407.058 77.2017C406.623 77.4198 406.187 77.6378 405.752 77.7469C406.514 77.8559 407.385 77.6378 408.364 77.0926C411.194 75.457 413.48 71.5315 413.48 68.2602C413.48 67.1698 413.153 66.2975 412.718 65.7523Z" fill="#6864D4"/>
<path d="M408.364 77.965C406.732 78.8373 405.317 78.9463 404.228 78.4011C403.14 77.7469 402.487 76.4384 402.487 74.5847C402.487 70.8772 405.099 66.4065 408.255 64.5528C409.888 63.6805 411.303 63.5714 412.391 64.1166C413.48 64.7709 414.133 66.0794 414.133 67.9331C414.241 71.6405 411.629 76.1113 408.364 77.965ZM408.364 65.4251C405.534 67.0608 403.249 70.9863 403.249 74.2575C403.249 77.5288 405.534 78.8373 408.364 77.2017C411.194 75.566 413.48 71.6405 413.48 68.3693C413.48 65.098 411.194 63.7895 408.364 65.4251Z" fill="#3340A6"/>
<path d="M402.596 74.5847C402.596 70.8773 405.208 66.4065 408.364 64.5528C409.997 63.6805 411.412 63.5714 412.5 64.1167L411.194 63.3534C410.105 62.6991 408.691 62.8081 407.058 63.7895C403.902 65.6432 401.29 70.114 401.29 73.8214C401.29 75.6751 401.943 76.9836 403.031 77.6378L404.337 78.4011C403.249 77.7469 402.596 76.4384 402.596 74.5847Z" fill="#6864D4"/>
<path d="M428.064 74.5847C428.173 75.0209 428.173 75.457 428.173 76.0022C428.173 79.7096 425.561 84.1804 422.404 86.0341C421.969 86.2522 421.534 86.4702 421.098 86.5793C421.86 86.6883 422.731 86.4703 423.71 85.925C426.54 84.2894 428.826 80.3639 428.826 77.0926C428.826 76.1113 428.608 75.2389 428.064 74.5847Z" fill="#6864D4"/>
<path d="M423.819 86.9064C422.187 87.7787 420.772 87.8878 419.683 87.3426C418.595 86.6883 417.942 85.3798 417.942 83.5261C417.942 79.8187 420.554 75.348 423.71 73.4942C425.343 72.6219 426.758 72.5129 427.846 73.0581C428.935 73.7123 429.588 75.0208 429.588 76.8745C429.588 80.4729 426.976 85.0527 423.819 86.9064ZM423.819 74.2575C420.989 75.8932 418.704 79.8187 418.704 83.0899C418.704 86.3612 420.989 87.6697 423.819 86.0341C426.649 84.3984 428.935 80.4729 428.935 77.2017C428.826 73.9304 426.54 72.6219 423.819 74.2575Z" fill="#3340A6"/>
<path d="M417.942 83.5261C417.942 79.8187 420.554 75.348 423.71 73.4943C425.343 72.6219 426.758 72.5129 427.846 73.0581L426.54 72.2948C425.452 71.6405 424.037 71.7496 422.404 72.731C419.248 74.5847 416.636 79.0554 416.636 82.7628C416.636 84.6165 417.289 85.925 418.377 86.5793L419.683 87.3426C418.595 86.6883 417.942 85.3798 417.942 83.5261Z" fill="#6864D4"/>
<path d="M443.41 83.5261C443.519 83.9623 443.519 84.3985 443.519 84.9437C443.519 88.6511 440.907 93.1218 437.751 94.9755C437.315 95.1936 436.88 95.4117 436.445 95.5207C437.206 95.6298 438.077 95.4117 439.057 94.8665C441.887 93.2309 444.172 89.3054 444.172 86.0341C444.172 84.9437 443.954 84.0713 443.41 83.5261Z" fill="#6864D4"/>
<path d="M439.166 95.7388C437.533 96.6111 436.118 96.7202 435.03 96.175C433.941 95.5207 433.288 94.2122 433.288 92.3585C433.288 88.6511 435.9 84.1804 439.057 82.3266C440.689 81.4543 442.104 81.3453 443.193 81.8905C444.281 82.5447 444.934 83.8532 444.934 85.7069C444.934 89.4144 442.322 93.8851 439.166 95.7388ZM439.166 83.199C436.336 84.8346 434.05 88.7601 434.05 92.0314C434.05 95.3026 436.336 96.6111 439.166 94.9755C441.995 93.3399 444.281 89.4144 444.281 86.1431C444.172 82.8719 441.887 81.5634 439.166 83.199Z" fill="#3340A6"/>
<path d="M433.288 92.3585C433.288 88.6511 435.9 84.1804 439.057 82.3267C440.689 81.4543 442.104 81.3453 443.193 81.8905L441.887 81.1272C440.798 80.4729 439.383 80.582 437.751 81.5634C434.594 83.4171 431.982 87.8878 431.982 91.5952C431.982 93.4489 432.635 94.7574 433.724 95.4117L435.03 96.175C433.941 95.5207 433.288 94.2122 433.288 92.3585Z" fill="#6864D4"/>
<path opacity="0.15" d="M437.424 121.037L436.009 132.159C442.54 134.122 448.526 137.284 452.988 140.555L455.165 133.685L457.015 127.906L437.424 121.037Z" fill="#7974F2"/>
<path d="M437.424 121.037L436.009 132.159L458.648 140.119L460.063 128.997L437.424 121.037Z" fill="#FFCE6B"/>
<path opacity="0.15" d="M346.979 92.5766C354.815 94.5394 362.108 97.8106 366.135 100.646L369.4 90.5048L350.462 81.5634L346.979 92.5766Z" fill="#7974F2"/>
<path d="M345.564 76.6565L342.299 86.7974L366.135 100.537L369.509 90.3958L345.564 76.6565Z" fill="#E03681"/>
<path opacity="0.15" d="M22.6384 336.722L133.654 401.056C135.94 402.365 138.77 402.365 141.055 401.056L166.088 386.554C167.939 385.463 167.939 382.846 166.088 381.756L55.0725 317.421C52.7868 316.113 49.957 316.113 47.6714 317.421L22.6384 331.924C20.7882 332.905 20.7882 335.631 22.6384 336.722Z" fill="#7974F2"/>
<path d="M22.8562 331.16L137.246 397.349L165.762 380.884L51.372 314.586L22.8562 331.16ZM53.9842 332.578C51.4809 333.995 47.4538 333.995 44.9505 332.469C42.4472 331.051 42.3384 328.652 44.8417 327.235C47.345 325.817 51.372 325.817 53.8753 327.344C56.3786 328.871 56.4875 331.16 53.9842 332.578Z" fill="#FFCB64"/>
<path d="M85.983 351.115C85.5476 351.442 85.5476 351.878 85.983 352.096C86.4183 352.424 87.1802 352.424 87.7244 352.096L101.982 343.809L100.241 342.828L85.983 351.115ZM107.207 355.695C106.771 356.022 106.771 356.458 107.207 356.676C107.642 357.003 108.404 357.003 108.948 356.676L116.458 352.315L114.716 351.333L107.207 355.695ZM144.103 384.7C143.668 385.027 143.668 385.463 144.103 385.681C144.538 386.009 145.3 386.009 145.844 385.681L160.102 377.394L158.361 376.413L144.103 384.7ZM115.043 367.908C114.608 368.235 114.608 368.671 115.043 368.889C115.478 369.216 116.24 369.216 116.784 368.889L131.042 360.602L129.301 359.62L115.043 367.908ZM136.267 372.487C135.831 372.814 135.831 373.251 136.267 373.469C136.702 373.796 137.464 373.796 138.008 373.469L145.518 369.107L143.777 368.126L136.267 372.487ZM56.5964 317.639L49.0865 322.001C48.6512 322.328 48.6512 322.764 49.0865 322.982C49.5219 323.309 50.2838 323.309 50.828 322.982L58.3378 318.621L56.5964 317.639ZM78.1466 338.793C77.7112 339.12 77.7112 339.557 78.1466 339.775C78.5819 340.102 79.3438 340.102 79.888 339.775L87.3979 335.413L85.6564 334.432L78.1466 338.793ZM56.9229 334.323C56.4876 334.65 56.4876 335.086 56.9229 335.304C57.3583 335.631 58.1202 335.631 58.6644 335.304L72.9223 327.017L71.1809 326.035L56.9229 334.323Z" fill="#A85E18"/>
<path d="M44.8417 329.743C47.345 328.325 51.3721 328.325 53.8754 329.852C54.6373 330.288 55.1815 330.833 55.508 331.269C56.2698 329.961 55.7257 328.434 53.8754 327.344C51.3721 325.926 47.345 325.817 44.8417 327.235C43.1003 328.216 42.665 329.743 43.4268 330.942C43.6445 330.615 44.1887 330.07 44.8417 329.743Z" fill="#D4751C"/>
<path d="M165.762 380.775L137.246 397.24V399.639L165.762 383.173V380.775Z" fill="#D4751C"/>
<path d="M22.8562 331.16V333.559L137.246 399.639V397.24L22.8562 331.16Z" fill="#F2963F"/>
<path opacity="0.15" d="M346.652 288.198C329.565 279.038 298.328 261.483 298.328 261.483L129.845 194.531C127.777 193.331 124.403 193.331 122.335 194.531L1.6325 264.318C-0.435443 265.517 -0.435443 267.48 1.6325 268.679L188.291 376.849C190.359 378.048 193.733 378.048 195.801 376.849L316.504 307.062C317.157 306.735 317.592 306.19 317.81 305.754C321.946 302.7 336.966 297.357 346.108 294.195C348.829 293.214 349.156 289.506 346.652 288.198Z" fill="#7974F2"/>
<path d="M310.844 299.647C312.803 298.448 312.803 296.594 310.844 295.504L131.804 191.914C129.845 190.714 126.58 190.714 124.621 191.914L8.92465 258.866C6.96555 260.065 6.96555 261.919 8.92465 263.009L187.965 366.49C189.924 367.689 193.189 367.689 195.148 366.49L310.844 299.647Z" fill="#E0DFF7"/>
<path d="M129.301 328.107L75.3164 296.812C74.1191 296.158 74.1191 294.958 75.3164 294.304L110.363 274.022C111.56 273.368 113.519 273.368 114.716 274.022L168.7 305.317C169.898 305.972 169.898 307.171 168.7 307.825L133.654 328.107C132.457 328.871 130.498 328.871 129.301 328.107Z" fill="#B3ADFB"/>
<path d="M310.844 299.647L195.148 366.599C193.189 367.798 189.924 367.798 187.965 366.599L8.92463 263.009C7.94507 262.464 7.40088 261.701 7.40088 260.937V265.299C7.40088 266.062 7.94507 266.826 8.92463 267.371L187.965 370.852C189.924 372.051 193.189 372.051 195.148 370.852L310.844 303.9C311.824 303.355 312.368 302.591 312.368 301.828V297.466C312.259 298.339 311.824 299.102 310.844 299.647Z" fill="#423EAF"/>
<path d="M8.92463 263.009C7.94507 262.464 7.40088 261.701 7.40088 260.937V265.299C7.40088 266.062 7.94507 266.826 8.92463 267.371L12.2986 269.334V264.972L8.92463 263.009Z" fill="#4F4AD1"/>
<path d="M195.148 366.599C193.189 367.799 189.924 367.799 187.965 366.599L184.7 364.745V369.107L187.965 370.961C189.924 372.16 193.189 372.16 195.148 370.961L198.196 369.216V364.854L195.148 366.599Z" fill="#4F4AD1"/>
<path d="M310.844 299.647L307.579 301.501V305.863L310.844 304.009C311.824 303.464 312.368 302.7 312.368 301.937V297.575C312.259 298.339 311.824 299.102 310.844 299.647Z" fill="#4F4AD1"/>
<path d="M231.609 337.049C230.63 337.594 228.888 337.594 227.909 337.049L59.8614 239.892C58.8818 239.347 58.8818 238.366 59.8614 237.711L124.076 200.528C125.056 199.983 126.797 199.983 127.777 200.528L295.824 297.794C296.804 298.339 296.804 299.32 295.824 299.974L231.609 337.049Z" fill="#B3ADFB"/>
<path d="M118.199 220.265C117.437 220.701 116.24 220.701 115.478 220.265L106.88 215.249C106.118 214.813 106.118 214.049 106.88 213.613L115.478 208.597C116.24 208.161 117.437 208.161 118.199 208.597L126.797 213.613C127.559 214.049 127.559 214.813 126.797 215.249L118.199 220.265Z" fill="#8581D2"/>
<path d="M132.239 228.443C131.477 228.879 130.28 228.879 129.518 228.443L120.92 223.427C120.158 222.991 120.158 222.227 120.92 221.791L129.518 216.775C130.28 216.339 131.477 216.339 132.239 216.775L140.838 221.791C141.599 222.227 141.599 222.991 140.838 223.427L132.239 228.443Z" fill="#8581D2"/>
<path d="M146.388 236.512C145.627 236.948 144.429 236.948 143.668 236.512L135.069 231.496C134.307 231.06 134.307 230.297 135.069 229.86L143.668 224.845C144.429 224.408 145.627 224.408 146.388 224.845L154.987 229.86C155.749 230.297 155.749 231.06 154.987 231.496L146.388 236.512Z" fill="#8581D2"/>
<path d="M96.9754 256.685C96.2135 257.121 95.0163 257.121 94.2544 256.685L85.6561 251.669C84.8942 251.233 84.8942 250.469 85.6561 250.033L94.2544 245.017C95.0163 244.581 96.2135 244.581 96.9754 245.017L105.574 250.033C106.336 250.469 106.336 251.233 105.574 251.669L96.9754 256.685Z" fill="#8581D2"/>
<path d="M111.125 264.754C110.363 265.19 109.165 265.19 108.404 264.754L99.8053 259.738C99.0434 259.302 99.0434 258.538 99.8053 258.102L108.404 253.086C109.165 252.65 110.363 252.65 111.125 253.086L119.723 258.102C120.485 258.538 120.485 259.302 119.723 259.738L111.125 264.754Z" fill="#8581D2"/>
<path d="M160.537 244.69C159.776 245.126 158.578 245.126 157.816 244.69L149.218 239.674C148.456 239.238 148.456 238.475 149.218 238.039L157.816 233.023C158.578 232.586 159.776 232.586 160.537 233.023L169.136 238.039C169.898 238.475 169.898 239.238 169.136 239.674L160.537 244.69Z" fill="#8581D2"/>
<path d="M174.578 252.868C173.816 253.304 172.619 253.304 171.857 252.868L163.258 247.852C162.497 247.416 162.497 246.653 163.258 246.217L171.857 241.201C172.619 240.765 173.816 240.765 174.578 241.201L183.176 246.217C183.938 246.653 183.938 247.416 183.176 247.852L174.578 252.868Z" fill="#8581D2"/>
<path d="M188.727 261.046C187.965 261.483 186.768 261.483 186.006 261.046L177.408 256.031C176.646 255.594 176.646 254.831 177.408 254.395L186.006 249.379C186.768 248.943 187.965 248.943 188.727 249.379L197.325 254.395C198.087 254.831 198.087 255.594 197.325 256.031L188.727 261.046Z" fill="#8581D2"/>
<path d="M202.876 269.225C202.114 269.661 200.917 269.661 200.155 269.225L191.557 264.209C190.795 263.772 190.795 263.009 191.557 262.573L200.155 257.557C200.917 257.121 202.114 257.121 202.876 257.557L211.474 262.573C212.236 263.009 212.236 263.772 211.474 264.209L202.876 269.225Z" fill="#8581D2"/>
<path d="M216.916 277.403C216.154 277.839 214.957 277.839 214.195 277.403L205.597 272.387C204.835 271.951 204.835 271.187 205.597 270.751L214.195 265.735C214.957 265.299 216.154 265.299 216.916 265.735L225.514 270.751C226.276 271.187 226.276 271.951 225.514 272.387L216.916 277.403Z" fill="#8581D2"/>
<path d="M231.065 285.581C230.303 286.017 229.106 286.017 228.344 285.581L219.746 280.565C218.984 280.129 218.984 279.365 219.746 278.929L228.344 273.913C229.106 273.477 230.303 273.477 231.065 273.913L239.663 278.929C240.425 279.365 240.425 280.129 239.663 280.565L231.065 285.581Z" fill="#8581D2"/>
<path d="M245.214 293.759C244.453 294.195 243.255 294.195 242.493 293.759L233.895 288.743C233.133 288.307 233.133 287.544 233.895 287.107L242.493 282.092C243.255 281.655 244.453 281.655 245.214 282.092L253.813 287.107C254.575 287.544 254.575 288.307 253.813 288.743L245.214 293.759Z" fill="#8581D2"/>
<path d="M125.056 240.437C124.294 240.874 123.097 240.874 122.335 240.437L113.737 235.422C112.975 234.985 112.975 234.222 113.737 233.786L122.335 228.77C123.097 228.334 124.294 228.334 125.056 228.77L133.654 233.786C134.416 234.222 134.416 234.985 133.654 235.422L125.056 240.437Z" fill="#8581D2"/>
<path d="M139.096 248.616C138.334 249.052 137.137 249.052 136.375 248.616L127.777 243.6C127.015 243.164 127.015 242.4 127.777 241.964L136.375 236.948C137.137 236.512 138.334 236.512 139.096 236.948L147.695 241.964C148.456 242.4 148.456 243.164 147.695 243.6L139.096 248.616Z" fill="#8581D2"/>
<path d="M153.245 256.685C152.483 257.121 151.286 257.121 150.524 256.685L141.926 251.669C141.164 251.233 141.164 250.469 141.926 250.033L150.524 245.017C151.286 244.581 152.483 244.581 153.245 245.017L161.843 250.033C162.605 250.469 162.605 251.233 161.843 251.669L153.245 256.685Z" fill="#8581D2"/>
<path d="M167.394 264.863C166.632 265.299 165.435 265.299 164.673 264.863L156.075 259.847C155.313 259.411 155.313 258.648 156.075 258.211L164.673 253.195C165.435 252.759 166.632 252.759 167.394 253.195L175.993 258.211C176.754 258.648 176.754 259.411 175.993 259.847L167.394 264.863Z" fill="#8581D2"/>
<path d="M181.435 273.041C180.673 273.477 179.475 273.477 178.714 273.041L170.115 268.025C169.353 267.589 169.353 266.826 170.115 266.39L178.714 261.374C179.475 260.937 180.673 260.937 181.435 261.374L190.033 266.39C190.795 266.826 190.795 267.589 190.033 268.025L181.435 273.041Z" fill="#8581D2"/>
<path d="M195.584 281.219C194.822 281.655 193.625 281.655 192.863 281.219L184.265 276.203C183.503 275.767 183.503 275.004 184.265 274.568L192.863 269.552C193.625 269.116 194.822 269.116 195.584 269.552L204.182 274.568C204.944 275.004 204.944 275.767 204.182 276.203L195.584 281.219Z" fill="#8581D2"/>
<path d="M209.733 289.397C208.971 289.833 207.774 289.833 207.012 289.397L198.413 284.381C197.652 283.945 197.652 283.182 198.413 282.746L207.012 277.73C207.774 277.294 208.971 277.294 209.733 277.73L218.331 282.746C219.093 283.182 219.093 283.945 218.331 284.381L209.733 289.397Z" fill="#8581D2"/>
<path d="M223.882 297.575C223.12 298.012 221.923 298.012 221.161 297.575L212.563 292.56C211.801 292.123 211.801 291.36 212.563 290.924L221.161 285.908C221.923 285.472 223.12 285.472 223.882 285.908L232.48 290.924C233.242 291.36 233.242 292.123 232.48 292.56L223.882 297.575Z" fill="#8581D2"/>
<path d="M237.922 305.754C237.16 306.19 235.963 306.19 235.201 305.754L226.603 300.738C225.841 300.302 225.841 299.538 226.603 299.102L235.201 294.086C235.963 293.65 237.16 293.65 237.922 294.086L246.52 299.102C247.282 299.538 247.282 300.302 246.52 300.738L237.922 305.754Z" fill="#8581D2"/>
<path d="M259.363 301.828C258.601 302.264 257.404 302.264 256.642 301.828L248.044 296.812C247.282 296.376 247.282 295.613 248.044 295.177L256.642 290.161C257.404 289.724 258.601 289.724 259.363 290.161L267.962 295.177C268.723 295.613 268.723 296.376 267.962 296.812L259.363 301.828Z" fill="#8581D2"/>
<path d="M273.404 310.006C272.642 310.442 271.444 310.442 270.683 310.006L262.084 304.99C261.322 304.554 261.322 303.791 262.084 303.355L270.683 298.339C271.444 297.903 272.642 297.903 273.404 298.339L282.002 303.355C282.764 303.791 282.764 304.554 282.002 304.99L273.404 310.006Z" fill="#8581D2"/>
<path d="M104.05 244.472C103.288 244.908 102.091 244.908 101.329 244.472L78.6905 231.387C77.9287 230.951 77.9287 230.188 78.6905 229.751L87.2888 224.735C88.0507 224.299 89.2479 224.299 90.0098 224.735L112.648 237.82C113.41 238.257 113.41 239.02 112.648 239.456L104.05 244.472Z" fill="#8581D2"/>
<path d="M182.088 305.863C181.326 306.299 180.129 306.299 179.367 305.863L113.954 268.025C113.193 267.589 113.193 266.826 113.954 266.39L122.553 261.374C123.315 260.937 124.512 260.937 125.274 261.374L190.686 299.211C191.448 299.647 191.448 300.411 190.686 300.847L182.088 305.863Z" fill="#8581D2"/>
<path d="M110.907 232.259C110.145 232.696 108.948 232.696 108.186 232.259L92.8397 223.427C92.0778 222.991 92.0778 222.227 92.8397 221.791L101.438 216.775C102.2 216.339 103.397 216.339 104.159 216.775L119.505 225.608C120.267 226.044 120.267 226.807 119.505 227.243L110.907 232.259Z" fill="#8581D2"/>
<path d="M82.8264 248.507C82.0646 248.943 80.8673 248.943 80.1055 248.507L64.7591 239.674C63.9973 239.238 63.9973 238.475 64.7591 238.039L73.3574 233.023C74.1193 232.586 75.3165 232.586 76.0784 233.023L91.4247 241.855C92.1866 242.291 92.1866 243.055 91.4247 243.491L82.8264 248.507Z" fill="#8581D2"/>
<path d="M259.472 318.184C258.71 318.621 257.513 318.621 256.751 318.184L241.405 309.352C240.643 308.916 240.643 308.153 241.405 307.716L250.003 302.7C250.765 302.264 251.962 302.264 252.724 302.7L268.07 311.533C268.832 311.969 268.832 312.732 268.07 313.168L259.472 318.184Z" fill="#8581D2"/>
<path d="M132.022 211.978C131.26 212.414 130.062 212.414 129.301 211.978L120.811 207.071C120.049 206.634 120.049 205.871 120.811 205.435L124.294 203.363C125.056 202.927 126.253 202.927 127.015 203.363L135.504 208.27C136.266 208.706 136.266 209.47 135.504 209.906L132.022 211.978Z" fill="#8581D2"/>
<path d="M146.062 220.156C145.3 220.592 144.103 220.592 143.341 220.156L134.851 215.249C134.09 214.813 134.09 214.049 134.851 213.613L138.334 211.541C139.096 211.105 140.293 211.105 141.055 211.541L149.545 216.448C150.307 216.884 150.307 217.648 149.545 218.084L146.062 220.156Z" fill="#8581D2"/>
<path d="M160.211 228.334C159.449 228.77 158.252 228.77 157.49 228.334L149.001 223.427C148.239 222.991 148.239 222.227 149.001 221.791L152.483 219.72C153.245 219.283 154.443 219.283 155.204 219.72L163.694 224.626C164.456 225.063 164.456 225.826 163.694 226.262L160.211 228.334Z" fill="#8581D2"/>
<path d="M174.36 236.512C173.598 236.948 172.401 236.948 171.639 236.512L163.15 231.605C162.388 231.169 162.388 230.406 163.15 229.969L166.632 227.898C167.394 227.462 168.591 227.462 169.353 227.898L177.843 232.805C178.605 233.241 178.605 234.004 177.843 234.44L174.36 236.512Z" fill="#8581D2"/>
<path d="M188.509 244.69C187.747 245.126 186.55 245.126 185.788 244.69L177.299 239.783C176.537 239.347 176.537 238.584 177.299 238.148L180.782 236.076C181.543 235.64 182.741 235.64 183.503 236.076L191.992 240.983C192.754 241.419 192.754 242.182 191.992 242.618L188.509 244.69Z" fill="#8581D2"/>
<path d="M202.549 252.868C201.788 253.304 200.59 253.304 199.828 252.868L191.339 247.961C190.577 247.525 190.577 246.762 191.339 246.326L194.822 244.254C195.584 243.818 196.781 243.818 197.543 244.254L206.032 249.161C206.794 249.597 206.794 250.36 206.032 250.796L202.549 252.868Z" fill="#8581D2"/>
<path d="M216.698 261.046C215.936 261.483 214.739 261.483 213.977 261.046L205.488 256.14C204.726 255.703 204.726 254.94 205.488 254.504L208.971 252.432C209.733 251.996 210.93 251.996 211.692 252.432L220.181 257.339C220.943 257.775 220.943 258.538 220.181 258.975L216.698 261.046Z" fill="#8581D2"/>
<path d="M230.848 269.225C230.086 269.661 228.888 269.661 228.127 269.225L219.637 264.318C218.875 263.882 218.875 263.118 219.637 262.682L223.12 260.61C223.882 260.174 225.079 260.174 225.841 260.61L234.33 265.517C235.092 265.953 235.092 266.717 234.33 267.153L230.848 269.225Z" fill="#8581D2"/>
<path d="M244.888 277.294C244.126 277.73 242.929 277.73 242.167 277.294L233.677 272.387C232.915 271.951 232.915 271.187 233.677 270.751L237.16 268.679C237.922 268.243 239.119 268.243 239.881 268.679L248.371 273.586C249.133 274.022 249.133 274.786 248.371 275.222L244.888 277.294Z" fill="#8581D2"/>
<path d="M259.037 285.472C258.275 285.908 257.078 285.908 256.316 285.472L247.827 280.565C247.065 280.129 247.065 279.365 247.827 278.929L251.309 276.858C252.071 276.421 253.268 276.421 254.03 276.858L262.52 281.764C263.282 282.201 263.282 282.964 262.52 283.4L259.037 285.472Z" fill="#8581D2"/>
<path d="M273.186 293.65C272.424 294.086 271.227 294.086 270.465 293.65L261.975 288.743C261.214 288.307 261.214 287.544 261.975 287.107L265.458 285.036C266.22 284.6 267.417 284.6 268.179 285.036L276.669 289.943C277.431 290.379 277.431 291.142 276.669 291.578L273.186 293.65Z" fill="#8581D2"/>
<path d="M287.226 301.828C286.464 302.264 285.267 302.264 284.505 301.828L276.016 296.921C275.254 296.485 275.254 295.722 276.016 295.286L279.499 293.214C280.26 292.778 281.458 292.778 282.22 293.214L290.709 298.121C291.471 298.557 291.471 299.32 290.709 299.756L287.226 301.828Z" fill="#8581D2"/>
<path d="M118.417 252.759C117.655 253.195 116.458 253.195 115.696 252.759L107.098 247.743C106.336 247.307 106.336 246.544 107.098 246.108L115.696 241.092C116.458 240.656 117.655 240.656 118.417 241.092L127.015 246.108C127.777 246.544 127.777 247.307 127.015 247.743L118.417 252.759Z" fill="#8581D2"/>
<path d="M132.457 260.937C131.695 261.374 130.498 261.374 129.736 260.937L121.138 255.921C120.376 255.485 120.376 254.722 121.138 254.286L129.736 249.27C130.498 248.834 131.695 248.834 132.457 249.27L141.055 254.286C141.817 254.722 141.817 255.485 141.055 255.921L132.457 260.937Z" fill="#8581D2"/>
<path d="M146.606 269.116C145.844 269.552 144.647 269.552 143.885 269.116L135.287 264.1C134.525 263.663 134.525 262.9 135.287 262.464L143.885 257.448C144.647 257.012 145.844 257.012 146.606 257.448L155.204 262.464C155.966 262.9 155.966 263.663 155.204 264.1L146.606 269.116Z" fill="#8581D2"/>
<path d="M160.755 277.294C159.993 277.73 158.796 277.73 158.034 277.294L149.436 272.278C148.674 271.842 148.674 271.078 149.436 270.642L158.034 265.626C158.796 265.19 159.993 265.19 160.755 265.626L169.353 270.642C170.115 271.078 170.115 271.842 169.353 272.278L160.755 277.294Z" fill="#8581D2"/>
<path d="M174.795 285.472C174.034 285.908 172.836 285.908 172.074 285.472L163.476 280.456C162.714 280.02 162.714 279.256 163.476 278.82L172.074 273.804C172.836 273.368 174.034 273.368 174.795 273.804L183.394 278.82C184.156 279.256 184.156 280.02 183.394 280.456L174.795 285.472Z" fill="#8581D2"/>
<path d="M188.944 293.65C188.183 294.086 186.985 294.086 186.223 293.65L177.625 288.634C176.863 288.198 176.863 287.435 177.625 286.998L186.223 281.983C186.985 281.546 188.183 281.546 188.944 281.983L197.543 286.998C198.305 287.435 198.305 288.198 197.543 288.634L188.944 293.65Z" fill="#8581D2"/>
<path d="M203.094 301.719C202.332 302.155 201.134 302.155 200.373 301.719L191.774 296.703C191.012 296.267 191.012 295.504 191.774 295.068L200.373 290.052C201.134 289.615 202.332 289.615 203.094 290.052L211.692 295.068C212.454 295.504 212.454 296.267 211.692 296.703L203.094 301.719Z" fill="#8581D2"/>
<path d="M217.243 309.897C216.481 310.333 215.284 310.333 214.522 309.897L205.923 304.881C205.162 304.445 205.162 303.682 205.923 303.246L214.522 298.23C215.284 297.794 216.481 297.794 217.243 298.23L225.841 303.246C226.603 303.682 226.603 304.445 225.841 304.881L217.243 309.897Z" fill="#8581D2"/>
<path d="M245.323 326.144C244.561 326.581 243.364 326.581 242.602 326.144L219.964 313.059C219.202 312.623 219.202 311.86 219.964 311.424L228.562 306.408C229.324 305.972 230.521 305.972 231.283 306.408L253.922 319.493C254.683 319.929 254.683 320.692 253.922 321.129L245.323 326.144Z" fill="#8581D2"/>
<path d="M198.087 315.131C197.325 315.567 196.128 315.567 195.366 315.131L184.917 309.134C184.155 308.698 184.155 307.934 184.917 307.498L187.53 305.972C188.291 305.536 189.489 305.536 190.25 305.972L200.699 311.969C201.461 312.405 201.461 313.169 200.699 313.605L198.087 315.131Z" fill="#8581D2"/>
<path d="M221.27 320.801C220.508 321.238 219.311 321.238 218.549 320.801L208.1 314.804C207.338 314.368 207.338 313.605 208.1 313.169L210.712 311.642C211.474 311.206 212.671 311.206 213.433 311.642L223.882 317.639C224.644 318.075 224.644 318.839 223.882 319.275L221.27 320.801Z" fill="#8581D2"/>
<path d="M214.631 324.727C213.869 325.163 212.671 325.163 211.91 324.727L201.461 318.73C200.699 318.293 200.699 317.53 201.461 317.094L204.073 315.567C204.835 315.131 206.032 315.131 206.794 315.567L217.243 321.565C218.005 322.001 218.005 322.764 217.243 323.2L214.631 324.727Z" fill="#8581D2"/>
<path d="M231.283 334.214C230.521 334.65 229.324 334.65 228.562 334.214L218.113 328.216C217.352 327.78 217.352 327.017 218.113 326.581L220.726 325.054C221.487 324.618 222.685 324.618 223.447 325.054L233.895 331.051C234.657 331.488 234.657 332.251 233.895 332.687L231.283 334.214Z" fill="#8581D2"/>
<path d="M286.791 317.203L283.417 319.166C282.764 319.602 282.219 319.275 282.219 318.512C282.219 317.749 282.764 316.767 283.417 316.44L286.791 314.477C287.444 314.041 287.988 314.368 287.988 315.132C287.988 315.895 287.444 316.876 286.791 317.203Z" fill="#2B2873"/>
<path d="M287.335 314.259C287.444 314.368 287.444 314.586 287.444 314.804C287.444 315.567 286.9 316.549 286.247 316.876L282.873 318.839C282.655 318.948 282.437 319.057 282.328 318.948C282.546 319.275 282.981 319.275 283.417 319.057L286.791 317.094C287.444 316.658 287.988 315.785 287.988 315.022C287.988 314.586 287.77 314.259 287.335 314.259Z" fill="#5E58E8"/>
<path d="M287.117 316.004L283.09 318.293V317.639L287.117 315.24V316.004Z" fill="#7D79E8"/>
<path d="M282.546 317.312L283.09 317.639L287.117 315.349L286.246 314.804L283.417 316.44C283.09 316.549 282.764 316.876 282.546 317.312Z" fill="#5650D4"/>
<path d="M282.219 317.857L282.981 318.293V317.639L282.437 317.312C282.437 317.421 282.328 317.639 282.219 317.857Z" fill="#403AB5"/>
<path d="M294.301 312.842L290.927 314.804C290.274 315.241 289.729 314.913 289.729 314.15C289.729 313.387 290.274 312.406 290.927 312.078L294.301 310.116C294.954 309.679 295.498 310.007 295.498 310.77C295.498 311.533 294.954 312.406 294.301 312.842Z" fill="#2B2873"/>
<path d="M294.954 309.897C295.063 310.006 295.063 310.224 295.063 310.442C295.063 311.206 294.519 312.187 293.865 312.514L290.491 314.477C290.274 314.586 290.056 314.695 289.947 314.586C290.165 314.913 290.6 314.913 291.036 314.695L294.41 312.732C295.063 312.296 295.607 311.424 295.607 310.661C295.498 310.224 295.28 309.897 294.954 309.897Z" fill="#5E58E8"/>
<path d="M294.627 311.533L290.6 313.932V313.278L294.627 310.879V311.533Z" fill="#7D79E8"/>
<path d="M290.056 312.95L290.6 313.277L294.627 310.988L293.757 310.442L290.927 312.078C290.6 312.187 290.274 312.514 290.056 312.95Z" fill="#5650D4"/>
<path d="M289.838 313.496L290.6 313.932V313.278L290.056 312.95C289.947 313.059 289.838 313.278 289.838 313.496Z" fill="#403AB5"/>
<path d="M329.347 139.465C286.138 114.385 200.264 64.7709 157.163 39.9094C152.157 36.9652 147.368 40.8907 146.824 45.0343C146.715 45.5795 146.497 47.2152 146.497 47.3242C140.076 93.0128 131.804 153.422 128.43 177.847C127.559 184.499 130.716 191.041 136.484 194.422C136.811 194.64 137.028 194.749 137.028 194.749C137.028 194.749 137.355 194.967 137.464 194.967C137.572 194.967 145.191 199.438 145.3 199.547C147.694 200.964 298.763 288.198 309.212 294.413C313.347 296.812 317.266 293.541 317.701 289.615C322.272 255.812 331.415 188.643 336.312 155.058C337.074 149.824 334.245 142.3 329.347 139.465Z" fill="#EFEEFB"/>
<path d="M325.537 143.281C285.376 119.946 199.393 70.223 159.34 47.1061C154.769 44.3801 150.198 47.9784 149.653 51.9039C149.653 51.9039 136.919 143.826 132.566 175.23C131.695 181.446 134.743 187.661 140.184 190.823C174.795 210.887 297.675 281.982 306.708 287.216C310.518 289.397 314.109 286.344 314.653 282.746C318.898 251.342 327.388 188.97 331.959 157.675C332.721 152.986 330.109 145.898 325.537 143.281Z" fill="#302D80"/>
<path d="M330.217 158.983C325.973 189.515 317.592 250.142 313.347 280.674C313.13 282.637 311.824 284.49 309.973 285.363C308.667 285.908 306.382 284.818 304.749 283.945C303.987 283.509 143.885 190.714 143.014 190.387C137.463 187.116 134.198 182.863 135.287 174.576C142.144 124.199 148.347 80.1458 151.83 55.0662C152.374 51.2497 156.728 47.8694 161.19 50.4864C200.046 72.949 283.852 121.364 322.925 144.044C327.496 146.552 331.088 152.659 330.217 158.983Z" fill="#9C99FF"/>
<path d="M298.327 269.988L150.415 184.499C147.585 182.863 145.735 179.156 146.062 176.212L161.299 66.4065C161.734 63.4624 164.347 62.2629 167.068 63.8986L315.089 149.387C317.919 151.023 319.769 154.731 319.442 157.675L304.205 267.48C303.769 270.533 301.157 271.623 298.327 269.988Z" fill="#F2F2FF"/>
<path d="M315.089 149.387L167.176 63.7895C164.347 62.1539 161.734 63.2443 161.408 66.2975L160.32 74.0395L318.245 165.417L319.333 157.675C319.769 154.731 317.81 151.023 315.089 149.387Z" fill="#423EAF"/>
<path d="M171.857 73.7124C171.639 75.457 170.115 76.1113 168.483 75.1299C166.85 74.1485 165.762 72.0767 165.979 70.3321C166.197 68.5874 167.721 67.9331 169.353 68.9145C170.986 69.7868 172.183 71.9677 171.857 73.7124Z" fill="#ED4C93"/>
<path d="M180.346 78.5102C180.128 80.2549 178.605 80.9091 176.972 79.9278C175.34 78.9464 174.251 76.8746 174.469 75.1299C174.687 73.3852 176.21 72.731 177.843 73.7124C179.475 74.6937 180.564 76.7655 180.346 78.5102Z" fill="#FFC933"/>
<path d="M188.727 83.4171C188.509 85.1618 186.985 85.816 185.353 84.8346C183.72 83.8533 182.632 81.7815 182.849 80.0368C183.067 78.2921 184.591 77.6379 186.223 78.6193C187.856 79.6006 188.944 81.6724 188.727 83.4171Z" fill="#B3ADFB"/>
<path d="M247.064 221.9L154.442 168.252L164.347 96.7202L256.969 150.26L247.064 221.9Z" fill="#B3ADFB"/>
<path d="M152.701 180.573L154.007 171.305L160.32 179.919L152.701 180.573Z" fill="#423EAF"/>
<path d="M165.109 187.77L162.932 186.462L164.238 177.193L166.415 178.393L165.109 187.77Z" fill="#B3ADFB"/>
<path d="M168.7 189.842L166.524 188.534L167.721 179.156L170.007 180.464L168.7 189.842Z" fill="#B3ADFB"/>
<path d="M180.346 196.603L171.639 191.587L172.945 182.209L181.652 187.225L180.346 196.603Z" fill="#B3ADFB"/>
<path d="M239.337 230.624L245.323 234.222L246.629 224.845L240.534 221.355L239.337 230.624Z" fill="#ED4C93"/>
<path d="M224.208 221.9L235.636 228.552L236.834 219.174L225.514 212.632L224.208 221.9Z" fill="#B3ADFB"/>
<path d="M198.74 110.896L165.109 91.3771L166.306 82.5447L199.937 101.954L198.74 110.896Z" fill="#423EAF"/>
<path d="M257.731 145.026L204.617 114.276L205.814 105.335L258.928 136.084L257.731 145.026Z" fill="#423EAF"/>
<path d="M309.756 175.121L262.302 147.643L263.499 138.701L310.953 166.18L309.756 175.121ZM263.281 147.207L309.103 173.704L310.082 166.507L264.261 140.01L263.281 147.207Z" fill="#423EAF"/>
<path d="M306.273 169.015C306.055 169.124 305.838 169.124 305.511 169.015L306.599 171.087C306.817 171.632 307.361 171.85 307.688 171.741C308.014 171.632 308.123 171.087 307.797 170.542L306.708 168.47C306.708 168.797 306.491 168.906 306.273 169.015Z" fill="#B3ADFB"/>
<path d="M306.491 169.342C305.62 169.669 304.423 169.015 303.77 167.707C303.117 166.507 303.334 165.09 304.205 164.762C305.076 164.435 306.273 165.09 306.926 166.398C307.579 167.707 307.361 169.015 306.491 169.342ZM304.423 165.526C303.77 165.744 303.661 166.725 304.096 167.597C304.531 168.47 305.402 169.015 306.055 168.688C306.708 168.47 306.817 167.488 306.382 166.616C305.946 165.744 305.076 165.199 304.423 165.526Z" fill="#B3ADFB"/>
<path d="M308.123 180.792L296.804 262.9L250.983 236.403L262.302 154.294L308.123 180.792ZM308.994 180.355L261.54 152.877L249.894 236.73L297.348 264.209L308.994 180.355Z" fill="#B3ADFB"/>
<path d="M290.491 182.972L263.173 167.161L264.261 159.419L291.58 175.23L290.491 182.972Z" fill="#B3ADFB"/>
<path d="M303.987 190.823L296.477 186.462L297.566 178.72L305.076 183.081L303.987 190.823Z" fill="#B3ADFB"/>
<path d="M288.641 196.385L261.323 180.573L262.411 172.831L289.729 188.643L288.641 196.385Z" fill="#423EAF"/>
<path d="M302.137 204.127L294.627 199.874L295.716 192.132L303.225 196.494L302.137 204.127Z" fill="#423EAF"/>
<path d="M286.791 209.688L259.472 193.986L260.561 186.244L287.879 202.055L286.791 209.688Z" fill="#B3ADFB"/>
<path d="M300.287 217.539L292.777 213.177L293.865 205.544L301.375 209.906L300.287 217.539Z" fill="#B3ADFB"/>
<path d="M284.94 223.1L257.622 207.398L258.71 199.656L286.029 215.467L284.94 223.1Z" fill="#B3ADFB"/>
<path d="M298.436 230.951L290.927 226.589L292.015 218.847L299.525 223.209L298.436 230.951Z" fill="#B3ADFB"/>
<path d="M283.09 236.512L255.772 220.701L256.86 213.068L284.179 228.77L283.09 236.512Z" fill="#B3ADFB"/>
<path d="M296.586 244.363L289.076 240.001L290.165 232.259L297.675 236.621L296.586 244.363Z" fill="#B3ADFB"/>
<path d="M281.24 249.924L253.921 234.113L255.01 226.371L282.22 242.182L281.24 249.924Z" fill="#B3ADFB"/>
<path d="M294.736 257.775L287.226 253.414L288.314 245.672L295.824 250.033L294.736 257.775Z" fill="#B3ADFB"/>
<path d="M226.385 171.305C224.644 183.518 214.086 188.097 202.658 181.555C191.23 174.903 183.285 159.637 185.026 147.425C186.768 135.212 197.325 130.632 208.753 137.175C220.181 143.717 228.126 158.983 226.385 171.305Z" fill="white"/>
<path d="M202.44 182.754C190.359 175.776 181.979 159.528 183.72 146.552C185.462 133.576 196.781 128.779 208.862 135.757C220.943 142.736 229.324 158.983 227.582 171.959C225.841 184.935 214.522 189.733 202.44 182.754ZM208.644 138.374C197.869 132.159 187.856 136.411 186.223 147.97C184.591 159.528 192.101 173.922 202.876 180.137C213.651 186.353 223.664 182.1 225.297 170.542C226.82 159.092 219.311 144.59 208.644 138.374Z" fill="#423EAF"/>
<path d="M195.801 169.996L200.046 139.574L220.399 167.706L195.801 169.996Z" fill="#ED4C93"/>
<path d="M244.343 93.3399C244.017 94.3213 243.255 94.7575 242.493 94.3213C241.731 93.7761 241.405 92.5766 241.731 91.4862C242.058 90.5048 242.82 90.0687 243.582 90.5048C244.343 91.1591 244.67 92.3585 244.343 93.3399Z" fill="#302D80"/>
<path d="M331.741 138.374C288.532 113.295 202.658 63.6805 159.558 38.8189C157.381 37.5104 155.204 37.6195 153.463 38.3828L151.068 39.4732C152.81 38.7099 154.987 38.6008 157.163 39.9093C200.155 64.7709 286.029 114.385 329.347 139.465C334.244 142.3 337.074 149.824 336.312 154.949C331.415 188.643 322.272 255.703 317.701 289.506C317.374 291.687 315.96 293.759 314 294.631L316.395 293.541C318.354 292.669 319.769 290.597 320.095 288.416C324.667 254.613 333.809 187.443 338.707 153.858C339.469 148.733 336.639 141.209 331.741 138.374Z" fill="#9792E8"/>
<path opacity="0.15" d="M365.917 311.751C366.896 311.206 368.42 311.206 369.4 311.751L464.743 366.926C465.178 367.253 465.505 367.58 465.505 367.908C465.505 368.235 465.287 368.671 464.743 368.889L430.023 388.953C429.043 389.498 427.52 389.498 426.54 388.953L331.197 333.777C330.762 333.45 330.435 333.123 330.435 332.796C330.435 332.469 330.653 332.033 331.197 331.815L365.917 311.751Z" fill="#7974F2"/>
<path d="M363.849 177.411V160.619L451.138 211.65V216.012L363.849 177.411Z" fill="#C9206B"/>
<path d="M345.782 179.919L428.608 227.789L451.138 214.704L368.311 166.834L345.782 179.919Z" fill="#FFF9F2"/>
<path d="M366.57 173.159L440.254 215.794C440.798 216.121 441.669 216.121 442.213 215.794C442.757 215.467 442.757 214.922 442.213 214.595L368.529 171.959C367.985 171.632 367.114 171.632 366.57 171.959C366.026 172.286 366.026 172.831 366.57 173.159Z" fill="#F2DBBF"/>
<path d="M358.407 177.847L432.091 220.483C432.635 220.81 433.506 220.81 434.05 220.483C434.594 220.156 434.594 219.61 434.05 219.283L360.366 176.648C359.822 176.321 358.951 176.321 358.407 176.648C357.863 176.975 357.863 177.52 358.407 177.847Z" fill="#F2DBBF"/>
<path d="M354.489 180.028L428.173 222.664C428.717 222.991 429.588 222.991 430.132 222.664C430.676 222.337 430.676 221.791 430.132 221.464L356.448 178.829C355.904 178.502 355.033 178.502 354.489 178.829C353.945 179.265 353.945 179.701 354.489 180.028Z" fill="#F2DBBF"/>
<path d="M428.608 224.735L451.138 211.65L364.611 161.6C364.175 161.382 363.958 160.946 363.958 160.619C363.958 160.292 364.175 159.965 364.611 159.637L366.026 158.765C366.896 158.22 368.42 158.22 369.291 158.765L458.974 210.669C459.41 210.887 459.627 211.323 459.627 211.65C459.627 211.978 459.41 212.305 458.974 212.632L430.241 229.206C429.37 229.751 427.846 229.751 426.976 229.206L337.292 177.302C336.857 177.084 336.639 176.648 336.639 176.321C336.639 175.994 336.857 175.667 337.292 175.339L338.707 174.467C339.578 173.922 341.102 173.922 341.972 174.467L428.608 224.735Z" fill="#FF529E"/>
<path d="M336.639 176.43V331.706C336.639 332.033 336.857 332.36 337.292 332.687L426.976 384.591V229.206L337.292 177.302C336.857 177.084 336.639 176.757 336.639 176.43Z" fill="#BD1E64"/>
<path d="M426.976 229.206V384.482C427.846 385.027 429.37 385.027 430.241 384.482L458.974 367.908C459.41 367.69 459.627 367.253 459.627 366.926V211.65C459.627 211.978 459.41 212.305 458.974 212.632L430.241 229.206C429.37 229.751 427.846 229.751 426.976 229.206Z" fill="#E03681"/>
<path d="M426.976 289.615V300.083C427.411 300.302 428.064 300.52 428.608 300.52C429.152 300.52 429.805 300.411 430.241 300.083L459.627 283.073V272.605L430.241 289.615C429.37 290.161 427.846 290.161 426.976 289.615Z" fill="#C21F66"/>
<path d="M426.976 258.648V282.419C427.411 282.637 428.064 282.855 428.608 282.855C429.152 282.855 429.805 282.746 430.241 282.528L459.736 265.517V241.746L430.35 258.757C429.261 259.193 427.846 259.193 426.976 258.648Z" fill="#C21F66"/>
<path opacity="0.15" d="M424.581 399.639L336.313 450.779C334.136 452.088 331.415 452.088 329.238 450.779L214.413 384.373C211.148 382.519 211.148 377.83 214.413 375.977L306.273 322.873C306.491 322.764 306.6 322.764 306.817 322.873L424.69 391.352C427.846 393.096 427.846 397.785 424.581 399.639Z" fill="#7974F2"/>
<path d="M332.612 447.29L214.413 378.921C213.978 378.703 213.76 378.157 213.76 377.394V355.259L217.025 357.221L232.263 366.054L235.201 367.798L331.85 423.628V445.763C331.85 446.418 332.177 446.963 332.612 447.29Z" fill="#761DC3"/>
<path d="M257.949 380.775V404.109L266.112 408.907V385.572L257.949 380.775ZM235.637 391.134L252.071 400.62V377.285L235.637 367.799V391.134Z" fill="#5D139E"/>
<path d="M423.819 367.798C423.711 367.689 423.493 367.689 423.384 367.798L334.245 419.375C332.939 420.139 331.85 421.992 331.85 423.519L235.201 367.689L232.263 365.945L217.025 357.112L213.76 355.15C213.76 353.623 214.848 351.769 216.154 351.006L305.294 299.429C305.511 299.32 305.62 299.32 305.729 299.429L423.819 367.798Z" fill="#9D47E5"/>
<path d="M423.819 392.006C423.71 391.897 423.493 391.897 423.384 392.006L421.425 393.096L419.248 391.788V389.171L423.819 392.006Z" fill="#9D47E5"/>
<path d="M419.248 391.897L332.939 441.838V421.011L419.248 371.179V391.897Z" fill="#FFF9F2"/>
<path d="M417.833 375.65L334.354 423.955C334.136 424.064 333.918 423.955 333.918 423.737C333.918 423.41 334.136 423.083 334.354 422.974L417.833 374.668C418.051 374.559 418.268 374.668 418.268 374.886C418.268 375.104 418.051 375.431 417.833 375.65Z" fill="#F2DBBF"/>
<path d="M417.833 379.793L334.354 428.099C334.136 428.208 333.918 428.099 333.918 427.881C333.918 427.554 334.136 427.226 334.354 427.117L417.833 378.812C418.051 378.703 418.268 378.812 418.268 379.03C418.268 379.248 418.051 379.684 417.833 379.793Z" fill="#F2DBBF"/>
<path d="M417.833 382.955L334.354 431.261C334.136 431.37 333.918 431.261 333.918 431.043C333.918 430.716 334.136 430.389 334.354 430.28L417.833 381.974C418.051 381.865 418.268 381.974 418.268 382.192C418.268 382.41 418.051 382.737 417.833 382.955Z" fill="#F2DBBF"/>
<path d="M417.833 389.934L334.354 438.24C334.136 438.349 333.918 438.24 333.918 438.022C333.918 437.803 334.136 437.367 334.354 437.258L417.833 388.953C418.051 388.844 418.268 388.953 418.268 389.171C418.268 389.389 418.051 389.716 417.833 389.934Z" fill="#F2DBBF"/>
<path d="M417.833 386.772L334.354 435.077C334.136 435.186 333.918 435.077 333.918 434.859C333.918 434.641 334.136 434.205 334.354 434.096L417.833 385.79C418.051 385.681 418.268 385.79 418.268 386.009C418.268 386.227 418.051 386.663 417.833 386.772Z" fill="#F2DBBF"/>
<path d="M421.425 393.205L335.115 443.037V440.529L419.248 391.897L421.425 393.205Z" fill="#9D47E5"/>
<path d="M335.115 443.037V422.319L423.275 371.288C423.602 371.07 423.928 370.525 423.928 370.088V368.235C423.928 368.017 423.819 367.908 423.71 367.798C423.602 367.689 423.384 367.689 423.275 367.798L334.136 419.375C332.83 420.139 331.741 421.992 331.741 423.519V445.654C331.741 446.418 331.959 446.963 332.394 447.181C332.83 447.399 333.374 447.399 334.027 446.963L423.166 395.386C423.493 395.168 423.819 394.623 423.819 394.187V392.333C423.819 391.897 423.493 391.679 423.166 391.897L335.115 443.037Z" fill="#8C32D9"/>
<path d="M392.583 393.423C403.031 398.766 405.643 402.038 408.255 410.652L394.977 418.394C392.365 409.78 389.753 406.617 379.304 401.165L392.583 393.423Z" fill="#FAAF48"/>
<path d="M232.698 335.413L215.175 345.554L212.236 343.809L229.759 333.668L232.698 335.413Z" fill="#E03681"/>
<path d="M212.127 343.809L329.347 411.633L416.854 361.038L299.634 293.214L212.127 343.809Z" fill="#FAAF48"/>
<path d="M416.854 340.429L415.33 339.557V360.166L416.854 361.038V340.429Z" fill="#D9891E"/>
<path d="M329.782 409.562L415.33 360.166V339.557L329.782 389.062V409.562Z" fill="#FFF9F2"/>
<path d="M331.197 391.788L414.024 343.918C414.242 343.809 414.459 343.373 414.459 343.155C414.459 342.937 414.242 342.719 414.024 342.937L331.197 390.806C330.98 390.915 330.762 391.352 330.762 391.57C330.653 391.788 330.871 391.897 331.197 391.788Z" fill="#F2DBBF"/>
<path d="M331.197 399.094L414.024 351.224C414.242 351.115 414.459 350.679 414.459 350.461C414.459 350.134 414.242 350.025 414.024 350.243L331.197 398.003C330.98 398.112 330.762 398.548 330.762 398.766C330.762 398.984 330.871 399.203 331.197 399.094Z" fill="#F2DBBF"/>
<path d="M331.197 405.963L414.024 358.094C414.242 357.985 414.459 357.549 414.459 357.33C414.459 357.112 414.242 356.894 414.024 357.112L331.197 404.982C330.98 405.091 330.762 405.527 330.762 405.745C330.653 406.072 330.871 406.181 331.197 405.963Z" fill="#F2DBBF"/>
<path d="M331.197 402.91L414.024 355.041C414.242 354.932 414.459 354.495 414.459 354.277C414.459 354.059 414.242 353.841 414.024 354.059L331.197 401.929C330.98 402.038 330.762 402.474 330.762 402.692C330.653 402.91 330.871 403.019 331.197 402.91Z" fill="#F2DBBF"/>
<path d="M329.782 409.562L215.719 343.591V322.982L329.782 389.062V409.562Z" fill="#F5E4D0"/>
<path d="M328.367 394.514C328.259 394.514 328.15 394.514 328.15 394.405L216.807 329.961C216.59 329.852 216.481 329.525 216.59 329.198C216.699 328.98 217.025 328.871 217.352 328.98L328.694 393.532C328.912 393.641 329.021 393.969 328.912 394.296C328.803 394.405 328.585 394.514 328.367 394.514Z" fill="#E0C4A1"/>
<path d="M328.367 401.492C328.259 401.492 328.15 401.492 328.15 401.383L216.807 336.94C216.59 336.831 216.481 336.503 216.59 336.176C216.699 335.958 217.025 335.849 217.352 335.958L328.694 400.511C328.912 400.62 329.021 400.947 328.912 401.274C328.803 401.492 328.585 401.492 328.367 401.492Z" fill="#E0C4A1"/>
<path d="M328.367 406.945C328.259 406.945 328.15 406.945 328.15 406.836L216.807 342.392C216.59 342.283 216.481 341.956 216.59 341.628C216.699 341.41 217.025 341.301 217.352 341.41L328.694 405.963C328.912 406.072 329.021 406.399 328.912 406.726C328.803 406.836 328.585 406.945 328.367 406.945Z" fill="#E0C4A1"/>
<path d="M329.347 411.633L328.912 415.123L211.692 347.299C211.583 347.19 211.474 347.081 211.474 346.862V345.009C211.474 344.573 211.801 344.027 212.127 343.809L215.066 345.554L329.347 411.633Z" fill="#D9891E"/>
<path d="M329.347 387.644L328.912 391.134L232.698 335.413L229.759 333.668L211.801 323.309C211.692 323.2 211.583 323.091 211.583 322.873V321.02C211.583 320.583 211.91 320.038 212.236 319.82L215.175 321.565L232.916 331.815L235.854 333.559L329.347 387.644Z" fill="#D9891E"/>
<path d="M416.854 361.038V340.429L329.347 391.024C329.129 391.134 329.021 391.134 328.912 391.024C328.803 390.915 328.694 390.806 328.694 390.588V388.735C328.694 388.298 329.021 387.753 329.347 387.535L417.724 336.394C418.377 336.067 418.922 335.958 419.357 336.176C419.792 336.394 420.01 336.94 420.01 337.703V359.729C420.01 361.256 418.922 363.11 417.616 363.764L329.238 414.905C329.021 415.014 328.912 415.014 328.803 414.905C328.694 414.796 328.585 414.687 328.585 414.468V412.615C328.585 412.179 328.912 411.633 329.238 411.415L416.854 361.038Z" fill="#EF9F33"/>
<path d="M419.466 336.285L329.347 387.644L235.854 333.559L232.916 331.815L215.175 321.565L212.236 319.82L300.614 268.679C301.267 268.352 301.811 268.243 302.246 268.461L419.466 336.285Z" fill="#FAAF48"/>
<path d="M331.197 304.118L276.451 335.74C274.166 337.049 270.356 337.049 267.962 335.74L250.439 325.599C248.153 324.291 248.153 322.11 250.439 320.692L305.185 289.07C307.471 287.762 311.28 287.762 313.674 289.07L331.197 299.211C333.483 300.629 333.483 302.809 331.197 304.118Z" fill="#FFF9F2"/>
<path d="M393.671 361.801C402.378 366.272 404.446 368.889 406.623 376.086L395.63 382.519C393.453 375.431 391.385 372.705 382.678 368.235L393.671 361.801Z" fill="#E03681"/>
<path opacity="0.15" d="M237.16 480.657L229.868 476.404C234.983 472.37 237.596 467.463 237.596 462.665C237.596 456.668 233.677 450.779 225.841 446.2C210.168 437.149 184.591 437.149 168.918 446.2C161.082 450.779 157.164 456.668 157.164 462.665C157.164 468.662 161.082 474.551 168.918 479.13C183.285 487.418 205.597 488.181 221.379 481.311L228.018 485.128C229.759 486.109 231.936 486.109 233.786 485.128L237.269 483.165C238.14 482.729 238.14 481.202 237.16 480.657Z" fill="#7974F2"/>
<path d="M221.814 417.631C208.209 425.482 186.223 425.482 172.727 417.631C165.979 413.705 162.497 408.58 162.497 403.455V461.902C162.497 467.027 165.871 472.152 172.727 476.077C186.332 483.928 208.318 483.928 221.814 476.077C228.562 472.152 232.045 467.027 232.045 461.902V403.455C232.045 408.58 228.671 413.705 221.814 417.631Z" fill="#588DED"/>
<path d="M221.814 389.171C208.209 381.32 186.223 381.32 172.727 389.171C165.979 393.096 162.497 398.221 162.497 403.346C162.497 408.471 165.871 413.596 172.727 417.522C186.332 425.373 208.318 425.373 221.814 417.522C228.562 413.596 232.045 408.471 232.045 403.346C232.045 398.221 228.671 393.096 221.814 389.171ZM218.766 415.777C206.903 422.647 187.747 422.647 175.884 415.777C164.02 408.907 164.02 397.785 175.884 391.024C187.747 384.155 206.903 384.155 218.766 391.024C230.63 397.894 230.521 408.907 218.766 415.777Z" fill="#CFE0FF"/>
<path d="M218.766 391.024C230.63 397.894 230.63 409.016 218.766 415.777C206.903 422.647 187.747 422.647 175.884 415.777C164.02 408.907 164.02 397.785 175.884 391.024C187.747 384.155 206.903 384.155 218.766 391.024Z" fill="#193680"/>
<path d="M218.766 404.655C206.903 397.785 187.747 397.785 175.884 404.655C173.054 406.29 170.877 408.253 169.354 410.216C170.877 412.288 172.945 414.141 175.884 415.777C187.747 422.647 206.903 422.647 218.766 415.777C221.596 414.141 223.773 412.179 225.297 410.216C223.773 408.144 221.596 406.29 218.766 404.655Z" fill="#082263"/>
<path d="M236.507 443.146V466.263C236.507 468.008 235.854 469.317 234.875 469.862C233.895 470.407 232.48 470.407 230.956 469.426L217.896 461.902V454.487L228.889 460.811C229.324 461.029 229.65 460.811 229.65 460.375V440.857C229.65 440.42 229.324 439.875 228.889 439.657L217.896 433.224V425.809L230.956 433.333C234.004 435.186 236.507 439.548 236.507 443.146Z" fill="#3D6ECC"/>
<path d="M229.541 460.375V454.596L223.446 451.107L217.787 454.487L228.78 460.811C229.215 461.029 229.541 460.811 229.541 460.375Z" fill="#345EAD"/>
<path d="M242.167 439.766V462.883C242.167 464.628 241.514 465.936 240.534 466.481L234.875 469.862C235.854 469.317 236.507 468.008 236.507 466.263V443.146C236.507 439.548 234.004 435.186 230.848 433.442L217.787 425.918L223.446 422.538L236.507 430.061C239.664 431.806 242.167 436.168 242.167 439.766Z" fill="#345EAD"/>
<g opacity="0.6">
<path opacity="0.4" d="M287.117 89.1963L320.64 108.606C324.776 111.005 328.476 110.35 330.327 107.406C328.803 107.515 327.061 106.97 325.32 105.989L291.689 86.4703L287.117 89.1963Z" fill="#1CAAD9"/>
</g>
<path d="M331.524 102.281V79.0554C331.524 72.0767 326.626 63.6805 320.64 60.1912L270.792 31.295C267.744 29.5504 265.023 29.4413 263.064 30.5317L267.962 27.6967C269.921 26.6062 272.642 26.7153 275.689 28.4599L325.538 57.3561C331.524 60.8454 336.422 69.2416 336.422 76.2203V99.4463C336.422 102.936 335.224 105.335 333.265 106.534L328.367 109.369C330.327 108.17 331.524 105.771 331.524 102.281Z" fill="#BD1E64"/>
<path d="M270.792 31.4041L320.64 60.3002C326.626 63.7896 331.524 72.1858 331.524 79.1645V102.39C331.524 109.369 326.626 112.204 320.64 108.715L287.009 89.3054L273.73 95.7389V81.6724L270.683 79.9278C264.697 76.4384 259.799 68.0422 259.799 61.0635V37.8376C259.908 30.7498 264.805 27.9147 270.792 31.4041Z" fill="#E03681"/>
<path d="M287.009 57.3561L273.948 49.7231C272.86 49.0689 271.989 47.5423 271.989 46.3428C271.989 45.0343 272.86 44.5982 273.948 45.2524L287.009 52.8854C288.097 53.5396 288.968 55.0662 288.968 56.2657C288.968 57.5742 288.097 58.0103 287.009 57.3561Z" fill="white"/>
<path d="M320.967 76.9836L293.975 61.3906C292.886 60.7364 292.015 59.2098 292.015 58.0103C292.015 56.7018 292.886 56.2657 293.975 56.9199L320.967 72.5129C322.055 73.1672 322.926 74.6937 322.926 75.8932C322.926 77.0927 322.055 77.5288 320.967 76.9836Z" fill="white"/>
<path d="M314.545 83.199L270.465 57.6832C269.377 57.0289 268.506 55.5024 268.506 54.3029C268.506 52.9944 269.377 52.5582 270.465 53.2125L314.545 78.6192C315.633 79.2735 316.504 80.8001 316.504 81.9995C316.504 83.199 315.633 83.8533 314.545 83.199Z" fill="white"/>
<path d="M295.716 82.2176L270.465 67.606C269.377 66.9518 268.506 65.4252 268.506 64.2257C268.506 62.9172 269.377 62.481 270.465 63.1353L295.716 77.7469C296.804 78.4012 297.675 79.9278 297.675 81.1272C297.675 82.3267 296.804 82.8719 295.716 82.2176Z" fill="white"/>
<path d="M320.967 96.8293L302.682 86.2522C301.593 85.5979 300.722 84.0714 300.722 82.8719C300.722 81.5634 301.593 81.1272 302.682 81.7815L320.967 92.3585C322.055 93.0128 322.926 94.5394 322.926 95.7389C322.926 96.9383 322.055 97.4835 320.967 96.8293Z" fill="white"/>
<path d="M200.373 87.7788L195.802 85.1618V71.9677L200.373 74.6938V87.7788Z" fill="#F8CD66"/>
<path opacity="0.6" d="M200.373 74.6938L197.543 76.3294C194.06 78.4012 190.251 78.2922 188.4 75.0209C190.904 75.0209 192.863 73.7124 195.801 71.9677L200.373 74.6938Z" fill="#1CAAD9"/>
<path d="M192.972 28.3509L239.664 1.30851C242.493 -0.327118 244.997 -0.43616 246.847 0.545218L251.418 3.16223C249.568 2.07181 247.065 2.28989 244.235 3.92552L197.543 30.9679C191.883 34.2392 187.312 42.0902 187.312 48.6327V70.3321C187.312 73.6033 188.4 75.8932 190.251 76.9836L185.679 74.3666C183.829 73.2762 182.741 70.9863 182.741 67.7151V46.0157C182.741 39.5822 187.312 31.6222 192.972 28.3509Z" fill="#F8CD66"/>
<path d="M197.543 31.077L244.235 4.03457C249.894 0.763311 254.466 3.38032 254.466 9.92284V31.6222C254.466 38.1647 249.894 46.0157 244.235 49.287L212.78 67.497L200.373 87.8878V74.6938L197.543 76.3294C191.883 79.6006 187.312 76.9836 187.312 70.4411V48.7418C187.312 42.1993 191.883 34.3482 197.543 31.077Z" fill="#F2A130"/>
<path d="M223.229 31.2951L195.584 47.2152C194.495 47.8694 193.625 47.3242 193.625 46.1248C193.625 44.8163 194.495 43.2897 195.584 42.7445L223.229 26.8244C224.317 26.1701 225.188 26.7153 225.188 27.9148C225.188 29.1142 224.317 30.6408 223.229 31.2951Z" fill="white"/>
<path d="M246.085 17.8829L231.936 26.061C230.848 26.7153 229.977 26.1701 229.977 24.9706C229.977 23.7712 230.848 22.1355 231.936 21.5903L246.085 13.4122C247.174 12.7579 248.044 13.3031 248.044 14.5026C248.044 15.7021 247.174 17.3377 246.085 17.8829Z" fill="white"/>
<path d="M208.318 49.7231L195.584 57.138C194.495 57.7922 193.625 57.247 193.625 56.0476C193.625 54.7391 194.495 53.2125 195.584 52.6673L208.318 45.2524C209.406 44.5982 210.277 45.1434 210.277 46.3428C210.277 47.5423 209.406 49.1779 208.318 49.7231Z" fill="white"/>
<path d="M238.793 32.0583L216.154 45.1434C215.066 45.7976 214.195 45.2524 214.195 44.053C214.195 42.7445 215.066 41.2179 216.154 40.6727L238.793 27.5876C239.881 26.9334 240.752 27.4786 240.752 28.678C240.752 29.8775 239.881 31.4041 238.793 32.0583Z" fill="white"/>
<path d="M233.895 44.8162L195.584 66.9518C194.495 67.606 193.625 67.0608 193.625 65.8614C193.625 64.5529 194.495 63.0263 195.584 62.4811L233.895 40.3455C234.984 39.6913 235.854 40.2365 235.854 41.4359C235.854 42.7445 234.984 44.271 233.895 44.8162Z" fill="white"/>
<path opacity="0.15" d="M100.785 436.931C97.6286 436.931 94.4723 436.386 91.7513 435.514L87.7242 434.096C81.9558 432.133 76.9492 429.516 72.7044 426.463C69.5481 424.282 67.6978 421.774 67.2625 419.048C66.7183 416.322 67.589 413.378 69.657 410.325C70.8542 408.58 72.2691 406.945 74.2282 404.982C74.9901 404.328 75.7519 403.673 76.8403 403.128C76.7315 402.801 76.6227 402.583 76.5138 402.256C76.0785 401.492 75.4254 400.947 74.6635 400.402C73.7928 399.857 72.5956 399.53 71.0719 399.203C69.8746 398.985 68.6774 398.875 67.589 398.875C66.5006 399.639 65.1945 400.184 63.7796 400.729C60.5145 401.82 57.6847 402.583 54.746 403.237C50.9366 404.109 47.2361 404.546 43.8621 404.546C38.6378 404.546 33.8489 403.455 29.4953 401.492C24.2711 398.985 19.9175 396.04 16.4347 392.66L14.0402 390.261C11.9723 388.298 10.9927 385.899 11.3192 383.501C11.6457 380.775 13.496 378.267 16.6523 376.413C16.6523 376.413 22.6385 372.814 22.7473 372.814L22.4208 371.833C22.2031 371.179 22.2031 370.525 22.5296 369.87C22.965 369.107 23.7269 368.562 24.8153 368.235L28.1893 367.471C28.6246 367.362 28.9511 367.362 29.3865 367.362C30.5837 367.362 31.6721 367.689 32.3252 368.344L33.7401 369.543C34.6108 369.434 35.3727 369.434 36.2434 369.434C42.556 369.434 48.2157 371.179 51.9162 374.123L68.5686 387.862C69.7658 388.844 70.6365 389.934 70.963 391.243C72.5956 391.679 74.0105 392.115 75.2077 392.551C77.2757 393.314 78.9083 394.078 80.6497 395.168C82.5 396.258 83.806 397.131 85.2209 398.33C86.0917 399.094 86.8535 399.966 87.6154 400.838C89.6833 400.947 91.7513 401.492 93.4927 402.147L116.784 411.851C122.553 414.25 125.6 418.176 125.165 422.429L126.906 423.083C127.886 423.41 128.539 424.173 128.865 424.937C129.083 425.591 128.974 426.354 128.539 427.008L127.124 428.971C126.471 429.843 125.165 430.498 123.75 430.498C123.532 430.498 123.315 430.498 123.097 430.498L119.832 430.061C119.505 430.28 119.179 430.498 118.852 430.716L112.757 434.096C109.492 435.95 105.247 436.931 100.785 436.931ZM87.3977 406.836C86.8535 406.836 86.3093 406.836 85.7651 406.945C83.3707 407.272 81.3027 408.144 79.9967 409.343C78.4729 410.87 77.3845 412.07 76.5138 413.378C75.2077 415.232 74.6635 416.867 74.9901 418.394C75.3166 419.921 76.405 421.338 78.2552 422.647C79.126 423.301 80.1055 423.955 81.0851 424.5C83.806 426.027 86.8535 427.444 90.1187 428.644L93.6015 429.843C95.4518 430.498 97.6286 430.825 99.8054 430.825C102.962 430.825 105.792 430.171 108.077 428.971L113.301 426.136C115.587 424.827 116.893 423.192 117.002 421.556C117.002 419.921 115.805 418.176 113.628 416.867C113.084 416.54 112.54 416.322 111.995 415.995L92.1866 407.708C90.6629 407.163 89.0303 406.836 87.3977 406.836ZM36.7876 375.759C33.1959 375.759 29.8219 376.631 27.3186 378.048L22.312 380.993C20.5705 381.974 19.591 383.282 19.3733 384.591C19.2645 385.899 20.0263 386.99 20.6794 387.644L22.7473 389.607C24.7064 391.461 26.992 393.205 29.713 394.732C30.6926 395.277 31.781 395.931 32.8694 396.368C35.9168 397.785 39.3997 398.548 43.2091 398.548C45.8212 398.548 48.5422 398.221 51.4808 397.567C53.7664 397.022 56.0521 396.368 58.773 395.495C60.841 394.841 62.3647 393.751 62.8001 392.66C63.1266 391.897 62.8001 391.133 61.8205 390.261L47.6715 378.703C47.2361 378.376 46.8008 378.048 46.2566 377.721C43.8621 376.522 40.4881 375.759 36.7876 375.759L36.8964 374.232L36.7876 375.759Z" fill="#7974F2"/>
<path d="M105.574 432.897L112.648 426.245C113.084 425.809 112.975 425.264 112.54 424.937L29.9307 367.798C28.7335 366.926 26.4478 366.708 24.9241 367.471H25.1418C23.618 368.235 23.4003 369.543 24.5976 370.416L51.5897 392.006C53.2222 393.096 55.0725 393.969 57.2493 394.732L66.8271 398.003C69.7658 398.985 72.4868 400.293 74.6635 401.82L108.73 424.718C109.492 425.155 109.492 425.918 108.73 426.354L101.656 431.37C100.676 432.024 101.003 433.006 102.309 433.442C103.397 433.66 104.921 433.551 105.574 432.897Z" fill="#211E69"/>
<path d="M13.496 379.575L25.033 375.431C25.7949 375.213 26.6656 375.213 27.3186 375.54L126.144 423.301C127.668 424.064 127.886 425.264 126.689 426.245L126.58 426.136C125.274 427.008 122.988 427.226 121.464 426.463L84.2414 410.87C82.3912 409.998 80.7586 408.798 79.5613 407.599L73.9017 402.038C72.1603 400.293 69.9835 398.766 67.3714 397.458L27.8628 377.721C26.9921 377.285 25.7949 377.285 25.033 377.721L16.4347 381.756C15.3463 382.301 13.6049 382.083 12.843 381.429C11.9723 380.774 12.2988 379.902 13.496 379.575Z" fill="#2F2C7A"/>
<path d="M84.3501 401.056C85.4385 400.947 86.6358 400.838 87.7242 400.947C86.9623 399.639 85.9827 398.548 84.6767 397.349C83.1529 396.04 81.8468 395.168 80.2143 394.187C78.5817 393.205 77.0579 392.442 74.8811 391.679C72.922 390.915 70.8541 390.37 68.5685 389.934C68.6773 390.588 68.6773 391.352 68.3508 392.006C68.1331 392.66 67.6978 393.314 67.0447 393.86L66.6094 395.059C68.242 395.059 69.7657 395.168 71.2895 395.495C72.8132 395.822 74.2281 396.258 75.4253 396.913C76.6226 397.567 77.3844 398.439 77.8198 399.312C78.364 400.184 78.4728 401.056 78.5817 402.038L80.6496 401.82C81.8468 401.492 83.0441 401.165 84.3501 401.056Z" fill="#3A36A3"/>
<path d="M71.3983 390.588C70.4187 390.37 69.548 390.152 68.5685 389.934C68.6773 390.588 68.6773 391.352 68.3508 392.006C68.1331 392.66 67.6978 393.314 67.0447 393.86L66.6094 395.059C67.3712 395.059 68.1331 395.168 68.7862 395.168C69.8745 394.296 70.6364 393.314 70.9629 392.224C71.2895 391.679 71.3983 391.134 71.3983 390.588ZM87.6153 400.729C87.7242 400.947 87.5065 400.62 87.6153 400.729V400.729ZM87.6153 400.729C87.2888 400.184 86.9623 399.748 86.5269 399.203C85.5474 399.203 84.6767 399.312 83.6971 399.421C81.8468 399.639 79.9966 400.075 78.4728 400.729C78.5817 401.165 78.6905 401.602 78.6905 402.038L80.7585 401.82C81.8468 401.383 83.0441 401.165 84.3501 401.056C85.4385 400.947 86.6358 400.838 87.7242 400.947C87.6153 400.838 87.6153 400.838 87.6153 400.729Z" fill="#211E69"/>
<path d="M127.233 426.681L128.648 424.718C129.083 424.064 128.648 423.41 127.777 423.083L123.75 421.556C123.315 423.41 122.009 425.155 120.049 426.572L119.723 427.008L124.621 427.554C125.709 427.663 126.797 427.335 127.233 426.681Z" fill="#3A36A3"/>
<path d="M126.362 425.809C125.709 426.245 124.621 426.245 123.859 425.809C123.206 425.373 123.206 424.718 123.859 424.391C124.512 423.955 125.6 423.955 126.362 424.391C127.124 424.718 127.124 425.373 126.362 425.809Z" fill="#9390E0"/>
<path d="M32.9781 368.998L30.366 366.708C29.7129 366.163 28.5157 365.945 27.5362 366.163L24.1622 366.926C23.0738 367.144 22.5296 367.799 22.7473 368.453L23.7268 371.288L24.3798 371.179C26.7743 370.088 29.7129 369.325 32.9781 368.998Z" fill="#3A36A3"/>
<path d="M28.1891 368.998C27.5361 369.434 26.4477 369.434 25.6858 368.998C25.0328 368.562 25.0328 367.908 25.6858 367.58C26.3389 367.144 27.4272 367.144 28.1891 367.58C28.8422 367.908 28.8422 368.562 28.1891 368.998Z" fill="#9390E0"/>
<path d="M22.0943 371.506L16.1081 375.104C10.775 378.267 9.9043 383.064 13.7137 386.772L16.217 389.171C19.6998 392.442 24.0534 395.495 29.1688 397.894C36.1345 401.274 44.4063 401.82 53.9841 399.639C57.2493 398.875 60.1879 398.003 63.0178 397.022C69.5481 394.841 71.9426 390.152 67.589 386.663L50.5013 372.814C43.7532 367.362 30.1484 366.708 22.0943 371.506ZM48.2156 375.104L62.6912 386.881C64.215 388.08 64.7592 389.607 64.215 391.024C63.5619 392.66 61.8205 394.078 59.2084 394.95C56.4874 395.822 54.0929 396.586 51.6985 397.131C43.9709 398.875 37.2229 398.439 31.6721 395.822C30.4749 395.277 29.3865 394.623 28.2981 394.078C25.4683 392.442 22.965 390.588 20.897 388.516L18.8291 386.445C15.7816 383.501 16.5435 379.684 20.6794 377.176L25.7948 374.123C28.6246 372.487 32.3251 371.506 36.2433 371.506C40.2704 371.506 43.9709 372.378 46.8007 374.014C47.1273 374.341 47.6714 374.668 48.2156 375.104Z" fill="#3A36A3"/>
<path opacity="0.5" d="M28.0805 393.969C25.2507 392.333 22.7474 390.479 20.6795 388.407L18.6115 386.336C15.564 383.392 16.3259 379.575 20.4618 377.067L25.5772 374.014C28.407 372.378 32.1076 371.397 36.0258 371.397C40.0528 371.397 43.7533 372.269 46.5831 373.905C47.1273 374.232 47.6715 374.668 48.2157 374.995L62.6913 386.772C64.2151 387.971 64.7593 389.498 64.2151 390.915C63.562 392.551 61.8206 393.969 59.2085 394.841C56.4875 395.713 54.093 396.477 51.6986 397.022C43.971 398.766 37.223 398.33 31.6722 395.713C30.2573 395.168 29.1689 394.514 28.0805 393.969Z" fill="#96B9FF"/>
<path d="M117.328 411.524L93.4926 401.602C87.3976 399.094 79.2347 400.402 75.4253 404.109C73.7927 405.745 72.269 407.49 70.8541 409.343C66.9359 414.796 67.9154 419.593 73.575 423.737C77.8198 426.681 82.9352 429.298 88.5948 431.261L92.7307 432.678C99.1522 434.968 107.533 434.423 112.975 431.37L119.179 427.881C127.668 423.301 126.688 415.45 117.328 411.524ZM119.505 419.921C119.396 422.21 117.873 424.391 114.934 426.027L109.601 428.971C105.247 431.37 98.608 431.806 93.4926 429.952L90.0097 428.753C86.5269 427.554 83.3705 426.027 80.5407 424.391C79.4523 423.737 78.4728 423.083 77.4932 422.429C72.922 419.157 72.1601 415.232 75.3165 410.761C76.296 409.344 77.4932 408.035 79.1258 406.399C80.6496 404.873 83.1529 403.891 85.8738 403.455C88.3771 403.128 90.9893 403.455 93.0572 404.328L113.301 412.833C113.954 413.16 114.607 413.487 115.26 413.814C118.09 415.45 119.614 417.631 119.505 419.921Z" fill="#3A36A3"/>
<path opacity="0.5" d="M80.5407 424.282C83.3706 425.918 86.5269 427.444 90.0097 428.644L93.4926 429.843C98.608 431.697 105.247 431.261 109.601 428.862L114.934 425.918C117.873 424.282 119.396 422.21 119.505 419.812C119.614 417.522 118.09 415.341 115.26 413.705C114.716 413.378 114.063 413.051 113.301 412.724L93.0572 404.219C90.9893 403.346 88.3772 403.019 85.8739 403.346C83.044 403.673 80.6496 404.764 79.1258 406.29C77.4932 407.926 76.296 409.234 75.3165 410.652C72.1601 415.123 72.922 419.048 77.4932 422.319C78.4728 423.083 79.5612 423.737 80.5407 424.282Z" fill="#96B9FF"/>
</g>
<defs>
<clipPath id="clip0">
<rect width="495" height="486" fill="white"/>
</clipPath>
</defs>
</svg>
