<svg width="29" height="19" viewBox="0 0 29 19" fill="none" xmlns="http://www.w3.org/2000/svg">
<path d="M28.7197 8.7287C25.6857 3.29072 20.3649 0 14.4769 0C8.58891 0 3.2591 3.29072 0.252085 8.7287L0 9.13894L0.234079 9.55792C3.26811 14.9959 8.58891 18.2866 14.4769 18.2866C20.3649 18.2866 25.6947 15.0395 28.7197 9.55792L28.9538 9.13894L28.7197 8.7287ZM14.4769 16.4972C9.40819 16.4972 4.75361 13.7564 2.0527 9.13894C4.75361 4.52146 9.40819 1.78065 14.4769 1.78065C19.5456 1.78065 24.1462 4.53019 26.8921 9.13894C24.1462 13.7564 19.5366 16.4972 14.4769 16.4972Z" fill="#FF5773"/>
<path d="M14.4319 3.04801C13.2271 3.05681 12.052 3.42244 11.0549 4.09872C10.0578 4.77501 9.28343 5.73161 8.82968 6.84772C8.37592 7.96383 8.2631 9.18937 8.50546 10.3696C8.74782 11.5498 9.33449 12.6316 10.1914 13.4786C11.0483 14.3256 12.1369 14.8996 13.3198 15.1282C14.5028 15.3568 15.7269 15.2297 16.8377 14.763C17.9484 14.2963 18.8959 13.5109 19.5606 12.506C20.2252 11.501 20.5771 10.3217 20.5719 9.11689C20.5684 8.31491 20.4067 7.5215 20.096 6.78212C19.7853 6.04275 19.3318 5.37195 18.7614 4.80817C18.191 4.24439 17.515 3.79871 16.7721 3.49667C16.0291 3.19462 15.2339 3.04216 14.4319 3.04801ZM14.4319 13.462C13.5809 13.4532 12.7514 13.1932 12.0477 12.7145C11.344 12.2359 10.7974 11.56 10.4766 10.7717C10.1558 9.98343 10.075 9.11793 10.2445 8.28391C10.4139 7.44989 10.8261 6.68454 11.4291 6.08398C12.0321 5.48341 12.7991 5.07442 13.6338 4.90837C14.4685 4.74231 15.3337 4.8266 16.1207 5.15064C16.9076 5.47468 17.5813 6.02403 18.057 6.72969C18.5328 7.43534 18.7895 8.26585 18.7948 9.11689C18.7971 9.68966 18.6858 10.2572 18.4671 10.7866C18.2485 11.316 17.9269 11.7967 17.5211 12.2009C17.1153 12.6051 16.6332 12.9247 16.1029 13.1412C15.5727 13.3576 15.0047 13.4667 14.4319 13.462Z" fill="#FF5773"/>
</svg>
