<svg width="24" height="22" viewBox="0 0 24 22" fill="none" xmlns="http://www.w3.org/2000/svg">
<path d="M23.4669 11.1465C23.4669 9.60649 22.2203 8.79984 20.5337 8.79984H15.6204C15.9871 7.47986 16.1337 6.23322 16.1337 5.13324C16.1337 0.879983 14.9604 0 13.9338 0C13.2738 0 12.7605 0.0733323 12.1005 0.439992C11.8805 0.586656 11.8072 0.73332 11.7338 0.953316L11.0005 4.91324C10.1939 6.96654 8.21389 8.79984 6.60059 10.0465V20.533C7.18724 20.533 7.7739 20.8263 8.50722 21.1929C9.31387 21.5596 10.1205 21.9996 11.0005 21.9996H17.967C19.4337 21.9996 20.5337 20.8263 20.5337 19.7996C20.5337 19.5796 20.5337 19.433 20.4603 19.2863C21.3403 18.9196 22.0003 18.1863 22.0003 17.233C22.0003 16.793 21.927 16.4264 21.7803 16.0597C22.367 15.693 22.8803 15.0331 22.8803 14.2997C22.8803 13.8597 22.6603 13.4198 22.4403 13.0531C23.0269 12.6131 23.4669 11.8798 23.4669 11.1465ZM21.927 11.1465C21.927 12.0998 20.9737 12.1731 20.827 12.6131C20.6803 13.1264 21.4136 13.2731 21.4136 14.1531C21.4136 15.0331 20.3137 15.0331 20.167 15.5464C20.0203 16.133 20.5337 16.2797 20.5337 17.1597V17.3063C20.387 18.0397 19.287 18.113 19.067 18.4063C18.847 18.773 19.067 18.9196 19.067 19.7263C19.067 20.1663 18.5537 20.4596 17.967 20.4596H11.0005C10.4138 20.4596 9.82719 20.1663 9.09387 19.7996C8.50722 19.5063 7.92056 19.213 7.33391 19.0663V11.3665C9.16721 9.97315 11.5138 7.91985 12.3938 5.35323V5.20657L13.0538 1.53997C13.3471 1.46664 13.5671 1.46664 13.9338 1.46664C14.0804 1.46664 14.6671 2.34662 14.6671 5.13324C14.6671 6.23322 14.4471 7.40653 14.0804 8.79984H13.9338C13.4938 8.79984 13.2005 9.09316 13.2005 9.53316C13.2005 9.97315 13.4938 10.2665 13.9338 10.2665H20.5337C21.267 10.2665 21.927 10.6331 21.927 11.1465Z" fill="#FF5773"/>
<path d="M5.86656 22H1.46664C0.659988 22 0 21.3401 0 20.5334V10.2669C0 9.46028 0.659988 8.80029 1.46664 8.80029H5.86656C6.67321 8.80029 7.3332 9.46028 7.3332 10.2669V20.5334C7.3332 21.3401 6.67321 22 5.86656 22ZM1.46664 10.2669V20.5334H5.86656V10.2669H1.46664Z" fill="#FF5773"/>
</svg>
