<svg width="22" height="22" viewBox="0 0 22 22" fill="none" xmlns="http://www.w3.org/2000/svg">
<path d="M18.255 15.1686C17.775 15.1704 17.3002 15.2651 16.8592 15.447C16.4183 15.629 16.0203 15.8944 15.689 16.2275L7.00012 12.0603C7.21386 11.4392 7.21386 10.7687 7.00012 10.1476L15.7033 5.90528C16.3266 6.53488 17.172 6.91984 18.0751 6.98536C18.9781 7.05087 19.8743 6.79224 20.5895 6.25975C21.3046 5.72726 21.7877 4.95894 21.9447 4.10413C22.1017 3.24932 21.9215 2.36909 21.4391 1.63453C20.9567 0.899964 20.2066 0.363543 19.3345 0.129529C18.4624 -0.104485 17.5307 -0.0193742 16.7204 0.368319C15.9101 0.756012 15.2792 1.41859 14.9503 2.22727C14.6213 3.03595 14.6179 3.93296 14.9406 4.74394L6.32297 8.94524C5.85755 8.39972 5.22748 8.00551 4.51913 7.81665C3.81077 7.62778 3.0588 7.65352 2.36631 7.89031C1.67381 8.12711 1.07468 8.56339 0.651041 9.13933C0.227405 9.71528 0 10.4027 0 11.1074C0 11.812 0.227405 12.4995 0.651041 13.0754C1.07468 13.6514 1.67381 14.0876 2.36631 14.3244C3.0588 14.5612 3.81077 14.587 4.51913 14.3981C5.22748 14.2092 5.85755 13.815 6.32297 13.2695L14.9192 17.4161C14.7739 17.7899 14.6991 18.1855 14.6982 18.5843C14.6982 19.2599 14.9072 19.9203 15.2989 20.482C15.6905 21.0437 16.2471 21.4815 16.8983 21.74C17.5495 21.9985 18.2661 22.0662 18.9575 21.9344C19.6488 21.8026 20.2838 21.4773 20.7823 20.9996C21.2807 20.5219 21.6201 19.9133 21.7576 19.2507C21.8951 18.5881 21.8246 17.9013 21.5548 17.2772C21.2851 16.653 20.8283 16.1196 20.2422 15.7443C19.6561 15.3689 19.0382 15.1686 18.3333 15.1686H18.255ZM18.255 1.50587C18.678 1.50587 19.0914 1.62607 19.4431 1.85126C19.7947 2.07645 20.0688 2.39653 20.2306 2.77101C20.3925 3.14549 20.4348 3.55756 20.3523 3.9551C20.2698 4.35265 20.0661 4.71782 19.7671 5.00444C19.468 5.29105 19.087 5.48624 18.6722 5.56532C18.2574 5.6444 17.8275 5.60381 17.4367 5.44869C17.046 5.29358 16.712 5.0309 16.4771 4.69388C16.2421 4.35685 16.1167 3.96062 16.1167 3.55528C16.1167 3.01175 16.342 2.49047 16.743 2.10613C17.144 1.72179 17.6879 1.50587 18.255 1.50587ZM3.6215 13.1192C3.19858 13.1192 2.78514 12.999 2.43349 12.7738C2.08184 12.5486 1.80776 12.2286 1.64591 11.8541C1.48407 11.4796 1.44172 11.0675 1.52423 10.67C1.60674 10.2724 1.8104 9.90726 2.10945 9.62064C2.40851 9.33403 2.78953 9.13884 3.20433 9.05976C3.61913 8.98069 4.04908 9.02127 4.43982 9.17639C4.83055 9.3315 5.16452 9.59418 5.39949 9.9312C5.63445 10.2682 5.75987 10.6645 5.75987 11.0698C5.75987 11.6133 5.53458 12.1346 5.13355 12.519C4.73253 12.9033 4.18863 13.1192 3.6215 13.1192ZM18.255 20.6337C17.8321 20.6337 17.4187 20.5135 17.067 20.2883C16.7154 20.0631 16.4413 19.7431 16.2794 19.3686C16.1176 18.9941 16.0753 18.582 16.1578 18.1845C16.2403 17.7869 16.4439 17.4218 16.743 17.1352C17.042 16.8485 17.4231 16.6534 17.8379 16.5743C18.2527 16.4952 18.6826 16.5358 19.0734 16.6909C19.4641 16.846 19.7981 17.1087 20.033 17.4457C20.268 17.7827 20.3934 18.179 20.3934 18.5843C20.3934 19.1278 20.1681 19.6491 19.7671 20.0335C19.3661 20.4178 18.8222 20.6337 18.255 20.6337Z" fill="#FF5773"/>
</svg>
