<svg width="119" height="118" viewBox="0 0 119 118" fill="none" xmlns="http://www.w3.org/2000/svg">
<g clip-path="url(#clip0)">
<path d="M116.41 22.1455H111.085V91.4058C111.085 91.4058 103.925 93.4735 87.0106 88.4189C75.6061 85.0107 67.0749 89.1227 62.7265 92.1633C61.8014 92.81 60.7025 93.8794 59.5709 93.8794H59.5H59.4293C58.2977 93.8794 57.1986 92.8102 56.2738 92.1635C51.9254 89.123 43.3939 85.0107 31.9894 88.4189C15.0751 93.4735 7.91536 91.4058 7.91536 91.4058V22.1455H2.59011C1.15955 22.1455 0 23.2953 0 24.7139V96.9253C0 98.3438 1.15979 99.4936 2.59011 99.4936H49.1191C50.4918 99.4936 51.7673 100.255 52.354 101.486C53.619 104.14 56.3425 105.977 59.4998 105.977C62.657 105.977 65.3805 104.14 66.6456 101.486C67.2322 100.255 68.5077 99.4936 69.8804 99.4936H116.409C117.84 99.4936 119 98.3438 119 96.9253V24.7139C119 23.2953 117.84 22.1455 116.41 22.1455Z" fill="#F87C68"/>
<path d="M13.249 96.925V91.8167C9.59531 91.8907 7.91582 91.4058 7.91582 91.4058V22.1455H2.59011C1.15955 22.1455 0 23.2953 0 24.7139V96.9253C0 98.3438 1.15955 99.4936 2.59011 99.4936H15.8391C14.4085 99.4936 13.249 98.3436 13.249 96.925Z" fill="#EC625E"/>
<path d="M109.489 16.6181C106.039 16.8926 98.6725 16.7935 87.0102 13.3083C70.096 8.25347 59.4999 19.7414 59.4999 19.7414L57.6544 22.1454V91.3299L59.4999 93.7857V93.8795H59.5703C60.7022 93.8795 61.8013 93.5225 62.7261 92.8758C67.0745 89.835 75.6058 85.7232 87.0102 89.1314C103.925 94.1861 111.803 92.1183 111.803 92.1183V18.74C111.803 17.4985 110.737 16.5188 109.489 16.6181Z" fill="#DBEDFF"/>
<path d="M66.5248 14.8157C62.0058 17.0254 59.4999 19.7415 59.4999 19.7415L57.6544 22.1455V91.3299L59.4999 93.7858V93.8796H59.5703C60.7022 93.8796 61.8013 93.5226 62.7261 92.8759C63.7606 92.1525 65.0345 91.3691 66.5248 90.6401V14.8157Z" fill="#B5DCFF"/>
<path d="M103.451 30.6409C103.405 30.6409 103.358 30.6393 103.312 30.6356C98.2793 30.2526 92.6206 29.13 86.4921 27.2984C80.258 25.4351 74.2258 25.7151 68.5626 28.129C67.6513 28.5176 66.5954 28.0995 66.2035 27.1963C65.8119 26.2927 66.233 25.2454 67.1441 24.8571C73.6052 22.1032 80.4633 21.7778 87.5282 23.8889C93.4089 25.6462 98.8118 26.7216 103.586 27.085C104.575 27.1601 105.315 28.0161 105.239 28.9967C105.167 29.9308 104.38 30.6409 103.451 30.6409Z" fill="#8BCAFF"/>
<path d="M103.451 38.2089C103.405 38.2089 103.358 38.2073 103.312 38.2036C98.2805 37.821 92.6217 36.6982 86.4921 34.8664C80.258 33.0033 74.2258 33.2828 68.5626 35.697C67.6513 36.0853 66.5954 35.6677 66.2035 34.7643C65.8119 33.8606 66.233 32.8134 67.1441 32.425C73.6052 29.6712 80.4633 29.3455 87.5282 31.4568C93.4103 33.2146 98.813 34.29 103.586 34.653C104.575 34.7281 105.315 35.5838 105.239 36.5645C105.167 37.4988 104.38 38.2089 103.451 38.2089Z" fill="#8BCAFF"/>
<path d="M103.451 76.0491C103.405 76.0491 103.358 76.0475 103.312 76.0438C98.2791 75.6608 92.6203 74.5379 86.4921 72.7064C80.2583 70.8437 74.226 71.1233 68.5626 73.5372C67.6513 73.9258 66.5954 73.5077 66.2035 72.6045C65.8119 71.7008 66.233 70.6536 67.1441 70.2653C73.6052 67.5114 80.4633 67.1855 87.5282 69.2968C93.4089 71.0544 98.8116 72.1297 103.586 72.4932C104.575 72.5683 105.315 73.4243 105.239 74.4049C105.167 75.339 104.38 76.0491 103.451 76.0491Z" fill="#8BCAFF"/>
<path d="M103.451 83.6172C103.405 83.6172 103.358 83.6156 103.312 83.6119C98.2793 83.2289 92.6206 82.1063 86.4921 80.2747C80.258 78.4116 74.2258 78.6914 68.5626 81.1054C67.6513 81.4937 66.5954 81.0759 66.2035 80.1726C65.8119 79.269 66.233 78.2217 67.1441 77.8334C73.6052 75.0795 80.4633 74.7541 87.5282 76.8652C93.4089 78.6225 98.8118 79.6979 103.586 80.0613C104.575 80.1365 105.315 80.9924 105.239 81.9731C105.167 82.9069 104.38 83.6172 103.451 83.6172Z" fill="#8BCAFF"/>
<path d="M103.451 45.7769C103.405 45.7769 103.358 45.7753 103.312 45.7716C98.2791 45.3886 92.6203 44.2657 86.4921 42.4342C80.2583 40.5715 74.226 40.8511 68.5626 43.265C67.6513 43.6534 66.5954 43.2355 66.2035 42.3323C65.8119 41.4286 66.233 40.3814 67.1441 39.993C73.6052 37.2392 80.4633 36.9133 87.5282 39.0246C93.4089 40.7822 98.8116 41.8575 103.586 42.221C104.575 42.2961 105.315 43.1521 105.239 44.1327C105.167 45.0668 104.38 45.7769 103.451 45.7769Z" fill="#8BCAFF"/>
<path d="M103.451 60.913C103.405 60.913 103.359 60.9114 103.312 60.9079C98.2808 60.5251 92.622 59.4023 86.4924 57.5705C80.2583 55.7074 74.2261 55.9872 68.5629 58.4011C67.6515 58.7897 66.5956 58.3716 66.2038 57.4684C65.8122 56.5647 66.2333 55.5175 67.1444 55.1291C73.6055 52.3753 80.4636 52.0496 87.5285 54.1609C93.4106 55.9187 98.8133 56.9941 103.586 57.3568C104.575 57.4322 105.315 58.2879 105.24 59.2686C105.167 60.2024 104.38 60.913 103.451 60.913Z" fill="#8BCAFF"/>
<path d="M103.451 53.3452C103.405 53.3452 103.358 53.3436 103.312 53.3399C98.2793 52.9569 92.6206 51.8342 86.4921 50.0027C80.2585 48.1398 74.2262 48.4189 68.5626 50.8333C67.6513 51.2217 66.5954 50.8038 66.2035 49.9006C65.8119 48.9969 66.233 47.9497 67.1441 47.5614C73.6052 44.8075 80.4633 44.4816 87.5282 46.5932C93.4089 48.3505 98.8118 49.4258 103.586 49.7893C104.575 49.8644 105.315 50.7204 105.239 51.701C105.167 52.6349 104.38 53.3452 103.451 53.3452Z" fill="#8BCAFF"/>
<path d="M103.451 68.4811C103.405 68.4811 103.359 68.4795 103.312 68.476C98.2799 68.0932 92.6211 66.9704 86.4924 65.1386C80.2586 63.2757 74.2263 63.5553 68.5629 65.9694C67.6515 66.358 66.5956 65.9402 66.2038 65.0367C65.8122 64.1331 66.2333 63.0858 67.1444 62.6975C73.6055 59.9436 80.4636 59.6175 87.5285 61.7291C93.4097 63.4866 98.8123 64.562 103.586 64.925C104.575 65.0003 105.315 65.8561 105.24 66.8367C105.167 67.7708 104.38 68.4811 103.451 68.4811Z" fill="#8BCAFF"/>
<path d="M9.51061 16.6181C12.9609 16.8926 20.3273 16.7935 31.9895 13.3083C48.9038 8.25347 59.4999 19.7414 59.4999 19.7414V93.8795H59.4293C58.2976 93.8795 57.1985 93.5225 56.2734 92.8758C51.925 89.835 43.3938 85.7233 31.9893 89.1312C15.0748 94.1858 7.19685 92.1181 7.19685 92.1181V18.74C7.19709 17.4985 8.26251 16.5188 9.51061 16.6181Z" fill="#DBEDFF"/>
<path d="M15.0986 16.6077C12.667 16.7715 10.8106 16.7213 9.5107 16.618C8.2626 16.5187 7.19717 17.4984 7.19717 18.74V92.118C7.19717 92.118 9.76265 92.7884 15.0986 92.4296V16.6077Z" fill="#B5DCFF"/>
<path d="M15.5489 30.6411C14.6194 30.6411 13.8327 29.931 13.7604 28.9967C13.6844 28.016 14.4247 27.1601 15.4134 27.085C20.1878 26.7215 25.5904 25.6461 31.4714 23.8888C38.5366 21.7773 45.3946 22.1031 51.8555 24.857C52.7666 25.2454 53.1877 26.2926 52.7961 27.1963C52.4045 28.0999 51.3484 28.5171 50.437 28.129C44.7738 25.7148 38.7416 25.4357 32.5076 27.2984C26.3793 29.1299 20.7205 30.2525 15.6881 30.6356C15.6416 30.6395 15.5949 30.6411 15.5489 30.6411Z" fill="#8BCAFF"/>
<path d="M15.5491 38.209C14.6196 38.209 13.8326 37.4986 13.7606 36.5643C13.6848 35.5837 14.4249 34.728 15.4138 34.6528C20.1871 34.2898 25.5897 33.2145 31.4716 31.4567C38.5368 29.3451 45.3948 29.671 51.8557 32.4249C52.7668 32.8132 53.188 33.8605 52.7963 34.7641C52.4047 35.6678 51.3486 36.0852 50.4372 35.6968C44.774 33.2825 38.7418 33.0038 32.5077 34.8662C26.3781 36.698 20.7193 37.8208 15.6883 38.2034C15.6416 38.2073 15.5951 38.209 15.5491 38.209Z" fill="#8BCAFF"/>
<path d="M15.5489 76.049C14.6194 76.049 13.8327 75.3387 13.7604 74.4046C13.6844 73.4239 14.4247 72.568 15.4134 72.4929C20.188 72.1294 25.5907 71.054 31.4712 69.2965C38.5361 67.1854 45.3944 67.511 51.8553 70.2649C52.7664 70.6533 53.1875 71.7005 52.7959 72.6042C52.4043 73.5076 51.3481 73.9252 50.4368 73.5369C44.7736 71.1229 38.7411 70.8432 32.5073 72.706C26.3793 74.5376 20.7205 75.6604 15.6879 76.0435C15.6416 76.0474 15.5949 76.049 15.5489 76.049Z" fill="#8BCAFF"/>
<path d="M15.5489 83.6172C14.6194 83.6172 13.8327 82.9069 13.7604 81.9728C13.6844 80.9921 14.4247 80.1362 15.4134 80.061C20.1878 79.6976 25.5904 78.6222 31.4714 76.8649C38.5366 74.7533 45.3946 75.0792 51.8555 77.8331C52.7666 78.2214 53.1877 79.2687 52.7961 80.1723C52.4045 81.076 51.3484 81.4932 50.437 81.1051C44.7738 78.6907 38.7416 78.412 32.5076 80.2744C26.3793 82.106 20.7205 83.2286 15.6881 83.6116C15.6416 83.6153 15.5949 83.6172 15.5489 83.6172Z" fill="#8BCAFF"/>
<path d="M15.5489 45.777C14.6194 45.777 13.8327 45.0667 13.7604 44.1326C13.6844 43.152 14.4247 42.296 15.4134 42.2209C20.188 41.8574 25.5907 40.7821 31.4712 39.0245C38.5361 36.9134 45.3944 37.2391 51.8553 39.9929C52.7664 40.3813 53.1875 41.4285 52.7959 42.3322C52.4043 43.2356 51.3481 43.6533 50.4368 43.2649C44.7736 40.851 38.7411 40.5712 32.5073 42.4341C26.3793 44.2656 20.7205 45.3885 15.6879 45.7715C15.6416 45.7754 15.5949 45.777 15.5489 45.777Z" fill="#8BCAFF"/>
<path d="M15.5491 60.9132C14.6196 60.9132 13.8326 60.2028 13.7606 59.2685C13.6848 58.2879 14.4249 57.4322 15.4138 57.3568C20.1871 56.994 25.5897 55.9187 31.4716 54.1609C38.5368 52.0491 45.3948 52.3752 51.8557 55.1291C52.7668 55.5174 53.188 56.5647 52.7963 57.4683C52.4047 58.372 51.3486 58.7896 50.4372 58.401C44.774 55.9867 38.7418 55.708 32.5077 57.5704C26.3781 59.4022 20.7193 60.525 15.6883 60.9079C15.6416 60.9115 15.5951 60.9132 15.5491 60.9132Z" fill="#8BCAFF"/>
<path d="M15.5489 53.345C14.6194 53.345 13.8327 52.6349 13.7604 51.7006C13.6844 50.72 14.4247 49.864 15.4134 49.7889C20.1878 49.4254 25.5904 48.3501 31.4714 46.5927C38.5363 44.4812 45.3946 44.8068 51.8555 47.5609C52.7666 47.9493 53.1877 48.9965 52.7961 49.9002C52.4045 50.8039 51.3484 51.2212 50.437 50.8329C44.7736 48.4185 38.7413 48.1397 32.5078 50.0023C26.3795 51.8338 20.7205 52.9564 15.6883 53.3395C15.6416 53.3434 15.5949 53.345 15.5489 53.345Z" fill="#8BCAFF"/>
<path d="M15.5491 68.4809C14.6196 68.4809 13.8326 67.7708 13.7606 66.8363C13.6848 65.8556 14.4249 64.9999 15.4138 64.9245C20.1878 64.5615 25.5904 63.4862 31.4716 61.7286C38.5365 59.6175 45.3948 59.9432 51.8557 62.697C52.7668 63.0854 53.188 64.1326 52.7963 65.0363C52.4047 65.94 51.3486 66.3576 50.4372 65.969C44.774 63.5551 38.7415 63.2755 32.5077 65.1382C26.379 66.9699 20.7202 68.0928 15.6883 68.4756C15.6416 68.4793 15.5951 68.4809 15.5491 68.4809Z" fill="#8BCAFF"/>
</g>
<defs>
<clipPath id="clip0">
<rect width="119" height="118" fill="white"/>
</clipPath>
</defs>
</svg>
