<svg width="98" height="114" viewBox="0 0 98 114" fill="none" xmlns="http://www.w3.org/2000/svg">
<path d="M44.7812 67.9531H52.2188V75.5156H44.7812V67.9531Z" fill="#FA9F0C"/>
<path d="M50.3593 90.6406C50.3583 93.3681 51.2286 96.0221 52.8392 98.2031H2.63608C1.02685 96.0214 0.156952 93.3678 0.156952 90.6406C0.156952 87.9135 1.02685 85.2599 2.63608 83.0781H52.8392C51.2302 85.26 50.3601 87.9135 50.3593 90.6406Z" fill="#92563A"/>
<path d="M89.4061 83.0781H52.8382C51.229 85.2599 50.3591 87.9135 50.3591 90.6406C50.3591 93.3678 51.229 96.0214 52.8382 98.2031H89.4061C87.7968 96.0214 86.9269 93.3678 86.9269 90.6406C86.9269 87.9135 87.7968 85.2599 89.4061 83.0781Z" fill="#EAD7BC"/>
<path d="M85.6875 88.75H52.2187C51.1918 88.75 50.3594 89.5965 50.3594 90.6406C50.3594 91.6848 51.1918 92.5312 52.2187 92.5312H85.6875C86.7144 92.5312 87.5469 91.6848 87.5469 90.6406C87.5469 89.5965 86.7144 88.75 85.6875 88.75Z" fill="#D4C2AA"/>
<path d="M39.9381 83.1661C39.724 83.0026 39.4778 82.8879 39.2162 82.83C38.9546 82.7721 38.6838 82.7723 38.4223 82.8307C38.1608 82.889 37.9147 83.0041 37.701 83.168C37.4872 83.332 37.3109 83.5409 37.1839 83.7806C36.0798 85.8927 35.5024 88.2481 35.5024 90.64C35.5024 93.032 36.0798 95.3873 37.1839 97.4994C37.3109 97.7391 37.4872 97.9481 37.701 98.112C37.9147 98.276 38.1608 98.391 38.4223 98.4494C38.6838 98.5077 38.9546 98.5079 39.2162 98.45C39.4778 98.3921 39.724 98.2775 39.9381 98.1139C40.2938 97.8406 40.5415 97.4467 40.6362 97.0036C40.7308 96.5605 40.6662 96.0976 40.454 95.6989C39.6414 94.1404 39.2166 92.4033 39.2166 90.6393C39.2166 88.8754 39.6414 87.1382 40.454 85.5798C40.6658 85.1811 40.7302 84.7186 40.6356 84.2758C40.5409 83.8331 40.2935 83.4394 39.9381 83.1661Z" fill="#ED8C0C"/>
<path d="M11.1526 83.7814C10.0485 85.8935 9.47116 88.2489 9.47116 90.6408C9.47116 93.0327 10.0485 95.3881 11.1526 97.5002C11.2796 97.7399 11.456 97.9488 11.6697 98.1128C11.8835 98.2767 12.1295 98.3918 12.391 98.4501C12.6525 98.5085 12.9234 98.5087 13.185 98.4508C13.4466 98.3929 13.6928 98.2783 13.9068 98.1147C14.2626 97.8413 14.5103 97.4474 14.6049 97.0044C14.6996 96.5613 14.635 96.0984 14.4228 95.6996C13.6102 94.1412 13.1853 92.404 13.1853 90.6401C13.1853 88.8761 13.6102 87.139 14.4228 85.5805C14.635 85.1818 14.6996 84.7189 14.6049 84.2758C14.5103 83.8327 14.2626 83.4388 13.9068 83.1655C13.6927 83.002 13.4464 82.8874 13.1847 82.8296C12.9231 82.7718 12.6522 82.7721 12.3907 82.8306C12.1292 82.8891 11.8831 83.0043 11.6695 83.1684C11.4558 83.3325 11.2795 83.5416 11.1526 83.7814Z" fill="#ED8C0C"/>
<path d="M59.6562 75.5156H50.3594C52.3319 75.5156 54.2237 76.3124 55.6185 77.7306C57.0133 79.1489 57.7969 81.0724 57.7969 83.0781H67.0937C67.0937 81.0724 66.3102 79.1489 64.9154 77.7306C63.5205 76.3124 61.6288 75.5156 59.6562 75.5156Z" fill="#FFA912"/>
<path d="M15.5708 3.12524L18.2 0.4519L77.6911 60.9428L75.0619 63.6162L15.5708 3.12524Z" fill="#FA9F0C"/>
<path d="M46.6406 69.8261C41.7573 69.8349 36.9204 68.8626 32.4078 66.965C27.8951 65.0674 23.7957 62.2821 20.3448 58.7688C5.84564 44.0257 5.84564 20.037 20.3448 5.29393C21.8185 3.79551 23.4122 2.42433 25.1095 1.19458L27.2659 4.27535C25.7371 5.3829 24.3018 6.61797 22.9747 7.96774C9.92534 21.2364 9.92534 42.8261 22.9747 56.0953C36.024 69.3644 57.2569 69.3637 70.3064 56.0953C71.6338 54.7458 72.8484 53.2864 73.9378 51.7322L76.9674 53.9246C75.7582 55.6504 74.4099 57.2709 72.9363 58.7693C69.4854 62.2825 65.3859 65.0677 60.8733 66.9652C56.3606 68.8627 51.5238 69.835 46.6406 69.8261Z" fill="#FFB531"/>
<path d="M74.5312 32.0313C74.5317 33.9361 74.3448 35.8362 73.9734 37.7032C73.0085 42.5231 70.823 47.0035 67.6329 50.7012C66.815 51.6511 65.9361 52.5448 65.0019 53.3765C60.9707 56.9676 56.0069 59.3011 50.705 60.0976C45.403 60.8942 39.9877 60.12 35.1073 57.8677C30.227 55.6154 26.0885 51.9806 23.1875 47.3984C20.2864 42.8162 18.7458 37.4809 18.75 32.0313C18.7495 30.1265 18.9364 28.2264 19.3078 26.3594C20.2727 21.5395 22.4582 17.0591 25.6483 13.3614C28.3576 10.2134 31.7159 7.71122 35.4844 6.03285C39.7293 4.14952 44.3687 3.37065 48.9837 3.76654C53.5988 4.16242 58.0443 5.72061 61.9189 8.30046C65.7936 10.8803 68.9754 14.4006 71.1773 18.5436C73.3793 22.6867 74.5319 27.322 74.5312 32.0313Z" fill="#348FD9"/>
<path d="M74.5312 32.0313C74.5316 33.9361 74.3448 35.8362 73.9734 37.7032C73.0085 42.5232 70.8229 47.0035 67.6329 50.7013C66.8149 51.6511 65.936 52.5448 65.0019 53.3765C61.4407 56.5437 57.1457 58.7379 52.5209 59.7526C47.8961 60.7673 43.0935 60.5691 38.5647 59.1768C34.0359 57.7846 29.9299 55.2439 26.6327 51.7937C23.3355 48.3435 20.9556 44.0973 19.7168 39.4544C24.0733 42.1324 29.0687 43.5441 34.1595 43.5358C35.0334 43.5358 35.8965 43.4948 36.7487 43.4129C40.904 43.0299 44.9208 41.6986 48.4999 39.5182C53.7075 36.3515 57.7625 31.5505 60.0546 25.8379C62.3466 20.1252 62.7517 13.8101 61.2087 7.84314C65.2807 10.3774 68.6442 13.9325 70.977 18.1679C73.3098 22.4033 74.5336 27.177 74.5312 32.0313Z" fill="#3086CD"/>
<path d="M54.0782 43.3752L46.6407 52.8284H39.2032V47.1565L36.7488 43.4131L35.4844 41.4846V33.9221H48.5V43.3752H54.0782Z" fill="#7EB457"/>
<path d="M46.6406 22.5783H39.2031L35.4844 28.2502V33.922H28.0469L26.1875 26.3595H19.3078C20.2727 21.5396 22.4582 17.0592 25.6483 13.3615C28.3576 10.2135 31.716 7.71133 35.4844 6.03296V15.0158H42.9219L46.6406 22.5783Z" fill="#7EB457"/>
<path d="M74.5313 32.0314C74.5318 33.9362 74.3449 35.8363 73.9735 37.7033H67.0938L61.5157 33.922V26.3595L60.5093 24.6532L55.9375 16.9064V5.28613C61.375 7.24385 66.0823 10.8666 69.412 15.656C72.7417 20.4454 74.5301 26.1662 74.5313 32.0314Z" fill="#7EB457"/>
<path d="M48.4998 43.3752H54.0779L46.6404 52.8283H39.2029V47.1564L36.7485 43.413C40.9038 43.03 44.9206 41.6987 48.4998 39.5183V43.3752Z" fill="#79AD54"/>
<path d="M74.5313 32.0313C74.5318 33.9361 74.3449 35.8362 73.9735 37.7032H67.0938L61.5157 33.9219V26.3594L60.5093 24.6532C62.3973 19.2484 62.6411 13.3908 61.2089 7.84314C65.2808 10.3774 68.6443 13.9325 70.9771 18.1679C73.3099 22.4033 74.5337 27.177 74.5313 32.0313Z" fill="#79AD54"/>
<path d="M58.4552 105.781C58.4542 108.508 59.3245 111.162 60.9351 113.344H10.7313C9.12206 111.162 8.25217 108.508 8.25217 105.781C8.25217 103.054 9.12206 100.4 10.7313 98.2185H60.9344C59.3254 100.4 58.4553 103.054 58.4545 105.781H58.4552Z" fill="#92563A"/>
<path d="M60.9344 98.2185C60.0914 99.3594 59.4461 100.638 59.0262 102H8.82306C9.24294 100.638 9.88826 99.3594 10.7312 98.2185H60.9344Z" fill="#875036"/>
<path d="M97.5021 98.2185H60.9344C59.3252 100.4 58.4553 103.054 58.4553 105.781C58.4553 108.508 59.3252 111.162 60.9344 113.344H97.5021C95.8928 111.162 95.0229 108.508 95.0229 105.781C95.0229 103.054 95.8928 100.4 97.5021 98.2185Z" fill="#DFCDB3"/>
<path d="M93.7834 103.891H60.3147C59.2878 103.891 58.4553 104.737 58.4553 105.781C58.4553 106.825 59.2878 107.672 60.3147 107.672H93.7834C94.8103 107.672 95.6428 106.825 95.6428 105.781C95.6428 104.737 94.8103 103.891 93.7834 103.891Z" fill="#CEBDA5"/>
<path d="M48.035 98.3065C47.821 98.1429 47.5748 98.0283 47.3132 97.9704C47.0516 97.9125 46.7808 97.9127 46.5192 97.9711C46.2577 98.0294 46.0117 98.1445 45.7979 98.3084C45.5842 98.4724 45.4078 98.6813 45.2808 98.921C44.1767 101.033 43.5994 103.388 43.5994 105.78C43.5994 108.172 44.1767 110.528 45.2808 112.64C45.4078 112.879 45.5842 113.088 45.7979 113.252C46.0117 113.416 46.2577 113.531 46.5192 113.59C46.7808 113.648 47.0516 113.648 47.3132 113.59C47.5748 113.533 47.821 113.418 48.035 113.254C48.3908 112.981 48.6385 112.587 48.7331 112.144C48.8278 111.701 48.7632 111.238 48.551 110.839C47.7384 109.281 47.3135 107.544 47.3135 105.78C47.3135 104.016 47.7384 102.279 48.551 100.72C48.7628 100.322 48.8272 99.8589 48.7326 99.4162C48.6379 98.9734 48.3905 98.5798 48.035 98.3065Z" fill="#ED8C0C"/>
<path d="M19.2485 98.9216C18.1445 101.034 17.5671 103.389 17.5671 105.781C17.5671 108.173 18.1445 110.528 19.2485 112.64C19.3755 112.88 19.5519 113.089 19.7657 113.253C19.9794 113.417 20.2254 113.532 20.4869 113.59C20.7485 113.649 21.0193 113.649 21.2809 113.591C21.5425 113.533 21.7887 113.419 22.0027 113.255C22.3585 112.982 22.6062 112.588 22.7008 112.145C22.7955 111.702 22.7309 111.239 22.5187 110.84C21.7061 109.282 21.2812 107.544 21.2812 105.78C21.2812 104.016 21.7061 102.279 22.5187 100.721C22.7308 100.322 22.7955 99.8595 22.701 99.4166C22.6065 98.9737 22.3591 98.5799 22.0037 98.3065C21.7896 98.1427 21.5432 98.028 21.2815 97.97C21.0198 97.9121 20.7488 97.9123 20.4872 97.9708C20.2255 98.0292 19.9794 98.1444 19.7656 98.3085C19.5518 98.4726 19.3754 98.6818 19.2485 98.9216Z" fill="#ED8C0C"/>
</svg>
