<svg width="112" height="118" viewBox="0 0 112 118" fill="none" xmlns="http://www.w3.org/2000/svg">
<path d="M43.4998 62.7777C43.4998 69.6704 49.1075 75.2781 56.0002 75.2781L58.9946 62.7777L56.0002 50.2773C49.1075 50.2773 43.4998 55.8851 43.4998 62.7777Z" fill="#F2CF7F"/>
<path d="M56.0002 50.2773V75.2781C62.8929 75.2781 68.5004 69.6704 68.5004 62.7777C68.5004 55.8851 62.8929 50.2773 56.0002 50.2773Z" fill="#E6926A"/>
<path d="M40.2963 97.803C35.5261 88.505 32.8987 76.0661 32.8987 62.7776C32.8987 49.489 35.5259 37.0501 40.2963 27.7518C44.6273 19.3107 50.3512 14.4692 56.0002 14.4692V7.55518C47.5443 7.55518 39.7826 13.6071 34.1447 24.5958C28.8826 34.8521 25.9847 48.412 25.9847 62.7776C25.9847 77.1431 28.8826 90.7028 34.1447 100.959C39.7826 111.948 47.5443 118 56.0002 118L57.6986 114.873L56.0002 111.086C50.3512 111.086 44.6273 106.244 40.2963 97.803Z" fill="#2FC0F0"/>
<path d="M77.8556 24.5958C72.2179 13.6071 64.4559 7.55518 56.0003 7.55518V14.4692C61.6495 14.4692 67.3732 19.3107 71.7042 27.7518C76.4744 37.0499 79.1018 49.489 79.1018 62.7776C79.1018 76.0661 76.4747 88.505 71.7042 97.803C67.3732 106.244 61.6495 111.086 56.0003 111.086V118C64.4559 118 72.2179 111.948 77.8556 100.959C83.1177 90.703 86.0156 77.1431 86.0156 62.7778C86.0156 48.412 83.1177 34.8521 77.8556 24.5958Z" fill="#5393FC"/>
<path d="M33.5189 93.8903C24.0429 94.3609 16.9883 91.8241 14.1639 86.9317C11.3395 82.0393 12.6702 74.6618 17.8152 66.6906C23.4822 57.9102 32.9411 49.4156 44.4493 42.7712C48.2631 40.5693 52.1403 38.666 55.9999 37.0837V29.6619C50.9803 31.5455 45.9273 33.9343 40.9923 36.7836C28.5513 43.9664 18.257 53.2561 12.006 62.9411C5.3081 73.3182 3.9481 83.0659 8.17605 90.3888C12.1021 97.1887 20.2475 100.861 31.2681 100.861C32.1155 100.861 32.9805 100.84 33.8613 100.796C40.8077 100.451 48.3652 98.7582 55.9999 95.8933V88.4715C48.2129 91.6642 40.4975 93.5441 33.5189 93.8903Z" fill="#365FDF"/>
<path d="M103.824 35.1664C99.5962 27.8435 90.474 24.1484 78.1387 24.7594C71.1926 25.1039 63.635 26.7969 56.0001 29.6619V37.0837C63.7871 33.8912 71.5025 32.0113 78.4811 31.6649C79.2283 31.6278 79.9603 31.6096 80.6766 31.6096C89.0431 31.6096 95.2344 34.1168 97.8361 38.6234C100.661 43.5158 99.3298 50.8934 94.1848 58.8646C88.5176 67.645 79.0587 76.1396 67.5507 82.784C63.7369 84.9859 59.8597 86.8893 56.0001 88.4717V95.8935C61.0197 94.0099 66.0729 91.6211 71.0077 88.7718C83.4484 81.589 93.7428 72.2995 99.994 62.6143C106.692 52.2372 108.052 42.4893 103.824 35.1664Z" fill="#00429B"/>
<path d="M44.4495 82.784C32.9413 76.1396 23.4824 67.645 17.8154 58.8646C12.6704 50.8933 11.3394 43.5156 14.164 38.6234C16.766 34.1166 22.9564 31.6096 31.3238 31.6096C32.0394 31.6096 32.7725 31.628 33.519 31.6649C40.4976 32.011 48.2133 33.891 56.0001 37.0837L57.6984 33.5962L56.0001 29.6619C48.3654 26.7971 40.8078 25.1041 33.8615 24.7596C21.5266 24.1474 12.4039 27.8435 8.17623 35.1666C3.94828 42.4895 5.30851 52.2374 12.0062 62.6143C18.2574 72.2995 28.5517 81.5892 40.9924 88.7718C45.9275 91.6211 50.9805 94.0099 56.0001 95.8935L57.6984 92.318L56.0001 88.4717C52.1404 86.8893 48.2633 84.9859 44.4495 82.784Z" fill="#5393FC"/>
<path d="M99.9943 62.9413C93.743 53.2561 83.4489 43.9664 71.008 36.7836C66.0729 33.9343 61.0197 31.5455 56.0001 29.6619V37.0837C59.8597 38.666 63.7369 40.5693 67.5507 42.7712C79.0589 49.4156 88.5178 57.9102 94.1848 66.6906C99.3298 74.6618 100.661 82.0396 97.8361 86.932C95.2341 91.4388 89.044 93.9463 80.6766 93.9458C79.961 93.9458 79.2279 93.9274 78.4811 93.8905C71.5025 93.5443 63.7871 91.6644 56.0001 88.4717V95.8935C63.6348 98.7585 71.1923 100.451 78.1387 100.796C79.0204 100.84 79.8838 100.861 80.7321 100.861C91.7513 100.861 99.8984 97.1885 103.824 90.389C108.052 83.0659 106.692 73.3182 99.9943 62.9413Z" fill="#365FDF"/>
<path d="M100.812 99.6702C98.9444 99.6702 97.0541 99.1959 95.3239 98.1971C92.7763 96.7264 90.9542 94.3515 90.193 91.5102C89.4315 88.669 89.8224 85.7013 91.293 83.1539C94.329 77.8953 101.077 76.087 106.336 79.123C108.884 80.5939 110.706 82.9686 111.467 85.8098C112.228 88.651 111.837 91.6188 110.367 94.1662C108.33 97.6949 104.62 99.6702 100.812 99.6702Z" fill="#DD415B"/>
<path d="M11.1884 99.6702C7.37946 99.6702 3.6703 97.6953 1.63295 94.1661C0.162103 91.6188 -0.228541 88.651 0.532928 85.8098C1.29417 82.9686 3.11625 80.5938 5.66385 79.123C8.21122 77.6526 11.179 77.2617 14.0202 78.023C16.8614 78.7844 19.2362 80.6065 20.707 83.1541C22.1776 85.7013 22.5685 88.669 21.807 91.5102C21.0456 94.3514 19.2235 96.7262 16.6761 98.197C14.9464 99.1957 13.0554 99.6702 11.1884 99.6702Z" fill="#E6926A"/>
<path d="M44.9879 11.0123C44.9879 17.0844 49.928 22.0245 56.0001 22.0245L59.4253 11.0123L56.0001 0C49.928 0 44.9879 4.9401 44.9879 11.0123Z" fill="#E6926A"/>
<path d="M67.0123 11.0123C67.0123 4.9401 62.0725 0 56.0001 0V22.0245C62.0725 22.0245 67.0123 17.0844 67.0123 11.0123Z" fill="#DD415B"/>
</svg>
