<svg width="86" height="119" viewBox="0 0 86 119" fill="none" xmlns="http://www.w3.org/2000/svg">
<path d="M10.6841 0L39.175 101.042H0V10.7746C0 4.82465 4.7841 0 10.6841 0Z" fill="#E8412E"/>
<path d="M85.9475 1.79577V90.2676L57.4565 93.8591L78.8247 0H84.1668C85.1502 0 85.9475 0.804028 85.9475 1.79577Z" fill="#FF5A47"/>
<path d="M10.684 0H78.8249V93.8591H10.684V0Z" fill="#FE8047"/>
<path d="M85.9477 111.817V117.204C85.9477 118.196 85.1504 119 84.167 119H78.8249L71.7022 104.634L85.9477 111.817Z" fill="#E8412E"/>
<path d="M85.9477 90.2676V97.4507L71.7022 104.634L78.8249 90.2676H85.9477Z" fill="#E8412E"/>
<path d="M10.6841 90.2676C4.7841 90.2676 0 95.0922 0 101.042V108.225C0 114.175 4.7841 119 10.6841 119H78.825V90.2676H10.6841Z" fill="#FF5A47"/>
<path d="M78.8249 97.4507H85.9476C83.9794 99.4356 82.994 102.033 82.994 104.634L68.7486 108.225L78.8249 97.4507Z" fill="#FFF7BA"/>
<path d="M85.9476 111.817H78.8249L68.7486 104.634H82.994C82.994 107.234 83.9794 109.832 85.9476 111.817Z" fill="#FFF04A"/>
<path d="M78.8251 111.817H10.6843C8.71842 111.817 7.12292 110.208 7.12292 108.225V104.634L10.6843 101.042H72.3102L75.8716 104.634C75.8716 107.234 76.8569 109.832 78.8251 111.817Z" fill="#FFF7BA"/>
<path d="M10.6843 97.4507H78.8251C76.8569 99.4356 75.8716 102.033 75.8716 104.634H7.12292V101.042C7.12292 99.0597 8.71842 97.4507 10.6843 97.4507Z" fill="white"/>
<path d="M64.5793 14.3662L43.2111 26.9366L64.5793 39.5071H71.702V14.3662H64.5793Z" fill="#FCD72B"/>
<path d="M24.9296 39.5071V14.3662H64.5795V21.5493L61.0182 26.9366L64.5795 32.324V39.5071H24.9296Z" fill="#FFF04A"/>
<path d="M32.0522 21.5492H64.5793V32.3238H32.0522V21.5492Z" fill="#FFF7BA"/>
</svg>
