<svg width="121" height="118" viewBox="0 0 121 118" fill="none" xmlns="http://www.w3.org/2000/svg">
<g clip-path="url(#clip0)">
<rect x="1" y="-1" width="119" height="119" rx="10" fill="#6BD8F0"/>
<path d="M59.7616 65.7865C69.001 65.7865 76.491 58.4822 76.491 49.4718C76.491 40.4615 69.001 33.1572 59.7616 33.1572C50.5222 33.1572 43.0322 40.4615 43.0322 49.4718C43.0322 58.4822 50.5222 65.7865 59.7616 65.7865Z" fill="#FFE15A"/>
<path d="M61.0184 28.671C61.0184 29.3468 60.4564 29.8948 59.7635 29.8948C59.0705 29.8948 58.5086 29.3468 58.5086 28.671C58.5086 27.9953 59.7635 25 59.7635 25C59.7635 25 61.0184 27.9953 61.0184 28.671Z" fill="#FFE15A"/>
<path d="M58.5093 70.276C58.5093 69.6003 59.0713 69.0522 59.7643 69.0522C60.4572 69.0522 61.0192 69.6003 61.0192 70.276C61.0192 70.9518 59.7643 73.9471 59.7643 73.9471C59.7643 73.9471 58.5093 70.9521 58.5093 70.276Z" fill="#FFE15A"/>
<path d="M81.0954 50.6971C80.4025 50.6971 79.8405 50.149 79.8405 49.4733C79.8405 48.7976 80.4025 48.2495 81.0954 48.2495C81.7883 48.2495 84.8597 49.4733 84.8597 49.4733C84.8597 49.4733 81.7883 50.6971 81.0954 50.6971Z" fill="#FFE15A"/>
<path d="M38.4324 48.2502C39.1253 48.2502 39.6873 48.7983 39.6873 49.474C39.6873 50.1498 39.1253 50.6978 38.4324 50.6978C37.7394 50.6978 34.668 49.474 34.668 49.474C34.668 49.474 37.7394 48.2502 38.4324 48.2502Z" fill="#FFE15A"/>
<path d="M75.7346 35.6296C75.2445 36.1075 74.45 36.1075 73.9599 35.6296C73.4698 35.1517 73.4698 34.3768 73.9599 33.8989C74.45 33.4213 77.5089 32.1682 77.5089 32.1682C77.5089 32.1682 76.225 35.1517 75.7346 35.6296Z" fill="#FFE15A"/>
<path d="M43.7932 63.3179C44.2833 62.84 45.0775 62.84 45.5679 63.3179C46.0584 63.7958 46.058 64.5703 45.5679 65.0486C45.0778 65.5269 42.0189 66.779 42.0189 66.779C42.0189 66.779 43.3031 63.7958 43.7932 63.3179Z" fill="#FFE15A"/>
<path d="M73.9606 65.048C73.4706 64.5701 73.4706 63.7956 73.9606 63.3173C74.4507 62.839 75.2449 62.8394 75.7353 63.3173C76.2258 63.7952 77.51 66.7783 77.51 66.7783C77.51 66.7783 74.4503 65.5259 73.9606 65.048Z" fill="#FFE15A"/>
<path d="M45.5683 33.8985C46.0584 34.3765 46.0584 35.1509 45.5683 35.6292C45.0782 36.1075 44.284 36.1072 43.7936 35.6292C43.3031 35.1513 42.0189 32.1682 42.0189 32.1682C42.0189 32.1682 45.0782 33.421 45.5683 33.8985Z" fill="#FFE15A"/>
<path d="M52.7603 29.7868C53.0255 30.4114 52.7214 31.1268 52.081 31.3855C51.4405 31.6441 50.7068 31.3475 50.4416 30.723C50.1764 30.0984 50.1603 26.863 50.1603 26.863C50.1603 26.863 52.4951 29.1622 52.7603 29.7868Z" fill="#FFE15A"/>
<path d="M66.7685 69.1612C66.5033 68.5366 66.8074 67.8211 67.4479 67.5625C68.0884 67.3038 68.822 67.6004 69.0872 68.225C69.3524 68.8496 69.3686 72.0849 69.3686 72.0849C69.3686 72.0849 67.0334 69.7861 66.7685 69.1612Z" fill="#FFE15A"/>
<path d="M79.9515 42.6435C79.311 42.9022 78.5774 42.6056 78.3121 41.981C78.0469 41.3564 78.351 40.6409 78.9915 40.3823C79.632 40.1236 82.9491 40.1079 82.9491 40.1079C82.9491 40.1079 80.5919 42.3845 79.9515 42.6435Z" fill="#FFE15A"/>
<path d="M39.576 56.3032C40.2165 56.0445 40.9501 56.3411 41.2153 56.9657C41.4805 57.5903 41.1764 58.3058 40.536 58.5644C39.8955 58.823 36.5779 58.8388 36.5779 58.8388C36.5779 58.8388 38.9355 56.5622 39.576 56.3032Z" fill="#FFE15A"/>
<path d="M69.0871 30.7226C68.8219 31.3472 68.0878 31.6434 67.4477 31.3851C66.8073 31.1265 66.5035 30.4106 66.7684 29.7864C67.0336 29.1618 69.3681 26.863 69.3681 26.863C69.3681 26.863 69.3523 30.0984 69.0871 30.7226Z" fill="#FFE15A"/>
<path d="M50.442 68.2248C50.7072 67.6002 51.4413 67.304 52.0814 67.5623C52.7215 67.8209 53.0256 68.5368 52.7607 69.161C52.4955 69.7856 50.161 72.0844 50.161 72.0844C50.161 72.0844 50.1768 68.8487 50.442 68.2248Z" fill="#FFE15A"/>
<path d="M78.9906 58.565C78.3501 58.3063 78.0464 57.5905 78.3112 56.9663C78.5764 56.3417 79.3105 56.0455 79.9506 56.3038C80.591 56.5624 82.9482 58.839 82.9482 58.839C82.9482 58.839 79.6311 58.824 78.9906 58.565Z" fill="#FFE15A"/>
<path d="M40.5364 40.3829C41.1768 40.6415 41.4806 41.3574 41.2157 41.9816C40.9505 42.6062 40.2165 42.9024 39.5764 42.6441C38.9359 42.3855 36.5787 40.1089 36.5787 40.1089C36.5787 40.1089 39.8966 40.1239 40.5364 40.3829Z" fill="#FFE15A"/>
<path d="M56.8342 28.8326C56.9695 29.4955 56.5279 30.1398 55.8482 30.2714C55.1684 30.4034 54.5078 29.9727 54.3728 29.3098C54.2374 28.647 54.8691 25.4707 54.8691 25.4707C54.8691 25.4707 56.6988 28.1698 56.8342 28.8326Z" fill="#FFE15A"/>
<path d="M62.6946 70.1154C62.5592 69.4525 63.0009 68.8083 63.6806 68.6766C64.3603 68.5446 65.021 68.9753 65.156 69.6382C65.2913 70.3011 64.6597 73.4774 64.6597 73.4774C64.6597 73.4774 62.8296 70.7786 62.6946 70.1154Z" fill="#FFE15A"/>
<path d="M80.931 46.6157C80.2513 46.7477 79.5906 46.3173 79.4556 45.6541C79.3203 44.9912 79.7615 44.347 80.4416 44.2153C81.1214 44.0833 84.3784 44.6993 84.3784 44.6993C84.3784 44.6993 81.6107 46.4837 80.931 46.6157Z" fill="#FFE15A"/>
<path d="M38.5974 52.3317C39.2772 52.1997 39.9378 52.63 40.0728 53.2932C40.2082 53.9561 39.7665 54.6004 39.0868 54.732C38.4071 54.864 35.15 54.248 35.15 54.248C35.15 54.248 37.9177 52.4637 38.5974 52.3317Z" fill="#FFE15A"/>
<path d="M72.6589 32.8571C72.2741 33.4191 71.4946 33.57 70.9183 33.1944C70.342 32.8191 70.1872 32.059 70.5724 31.497C70.9572 30.9353 73.7069 29.1245 73.7069 29.1245C73.7069 29.1245 73.0441 32.2947 72.6589 32.8571Z" fill="#FFE15A"/>
<path d="M46.8701 66.0899C47.2549 65.5283 48.0344 65.377 48.6106 65.7526C49.1869 66.1278 49.3417 66.888 48.9566 67.45C48.5718 68.0117 45.8221 69.8225 45.8221 69.8225C45.8221 69.8225 46.4853 66.6526 46.8701 66.0899Z" fill="#FFE15A"/>
<path d="M76.8034 62.0486C76.2272 61.6733 76.0724 60.9131 76.4575 60.3511C76.8423 59.7895 77.6218 59.6382 78.1981 60.0138C78.7744 60.3891 80.6309 63.0706 80.6309 63.0706C80.6309 63.0706 77.3797 62.4238 76.8034 62.0486Z" fill="#FFE15A"/>
<path d="M42.7245 36.8987C43.3008 37.274 43.456 38.0342 43.0704 38.5962C42.6857 39.1582 41.9062 39.3091 41.3299 38.9335C40.7536 38.5579 38.8971 35.8767 38.8971 35.8767C38.8971 35.8767 42.1486 36.5235 42.7245 36.8987Z" fill="#FFE15A"/>
<path d="M48.9566 31.4966C49.3414 32.0586 49.1866 32.8184 48.6107 33.1941C48.0344 33.5693 47.2552 33.4183 46.8701 32.8567C46.4853 32.2947 45.8221 29.1245 45.8221 29.1245C45.8221 29.1245 48.5718 30.9353 48.9566 31.4966Z" fill="#FFE15A"/>
<path d="M70.5721 67.4506C70.1873 66.8886 70.3422 66.1288 70.9181 65.7531C71.4943 65.3779 72.2735 65.5289 72.6586 66.0905C73.0434 66.6525 73.7067 69.8227 73.7067 69.8227C73.7067 69.8227 70.9573 68.0126 70.5721 67.4506Z" fill="#FFE15A"/>
<path d="M78.1978 38.9335C77.6219 39.3088 76.8424 39.1578 76.4573 38.5962C76.0725 38.0342 76.2273 37.2744 76.8032 36.8987C77.3791 36.5235 80.6303 35.8767 80.6303 35.8767C80.6303 35.8767 78.7741 38.5583 78.1978 38.9335Z" fill="#FFE15A"/>
<path d="M41.3303 60.0136C41.9062 59.6384 42.6857 59.7894 43.0709 60.351C43.4557 60.913 43.3009 61.6728 42.7249 62.0484C42.1487 62.4237 38.8979 63.0704 38.8979 63.0704C38.8979 63.0704 40.754 60.3893 41.3303 60.0136Z" fill="#FFE15A"/>
<path d="M65.156 29.3102C65.0206 29.9731 64.3603 30.4038 63.6806 30.2718C63.0009 30.1398 62.5592 29.4959 62.6946 28.833C62.8299 28.1701 64.6597 25.4714 64.6597 25.4714C64.6597 25.4714 65.291 28.647 65.156 29.3102Z" fill="#FFE15A"/>
<path d="M54.3719 69.6382C54.5073 68.9753 55.1676 68.5446 55.8473 68.6766C56.527 68.8086 56.9687 69.4525 56.8333 70.1154C56.6979 70.7783 54.8682 73.477 54.8682 73.477C54.8682 73.477 54.2369 70.3014 54.3719 69.6382Z" fill="#FFE15A"/>
<path d="M80.4409 54.733C79.7611 54.601 79.3195 53.9571 79.4548 53.2942C79.5902 52.6313 80.2505 52.2006 80.9302 52.3326C81.6099 52.4646 84.3776 54.249 84.3776 54.249C84.3776 54.249 81.1206 54.8646 80.4409 54.733Z" fill="#FFE15A"/>
<path d="M39.0875 44.2145C39.7673 44.3465 40.2089 44.9904 40.0736 45.6533C39.9382 46.3162 39.2779 46.7469 38.5982 46.6149C37.9185 46.4829 35.1508 44.6985 35.1508 44.6985C35.1508 44.6985 38.4078 44.0829 39.0875 44.2145Z" fill="#FFE15A"/>
<path d="M99.1172 53.7667C98.6271 53.5656 98.0669 53.796 97.8626 54.2711C97.8626 54.2732 97.8626 54.2732 97.8626 54.2732C97.8589 54.2822 97.8399 54.3262 97.8072 54.4013C97.082 56.0533 95.5817 58.4676 94.0667 60.7388C95.4779 56.3091 96.7676 51.5777 96.8579 51.245C96.9925 50.7481 96.691 50.238 96.1822 50.1032C95.6727 49.9697 95.1488 50.2588 95.0062 50.7535C94.3477 53.0544 93.0011 56.0826 91.7587 58.6461C91.9865 55.7878 92.0294 53.1399 92.0323 52.9482C92.0396 52.442 91.6332 52.0235 91.1138 51.9995C90.6255 52.0142 90.1545 52.3615 90.116 52.8673C88.8875 69.3472 72.6266 76.7193 71.043 77.3976C70.2147 77.4781 66.3561 77.902 62.854 79.0879C62.4563 79.2224 62.1189 79.3572 61.7821 79.491C61.657 79.4452 61.5228 79.4195 61.3815 79.4277C50.6329 80.1861 42.0624 75.8862 35.9027 66.6739C31.2487 59.7132 29.7892 52.4069 29.7748 52.334C29.6765 51.826 29.1777 51.4987 28.6546 51.5885C28.1337 51.685 27.7914 52.173 27.8901 52.681C27.929 52.8827 28.5695 56.0719 30.3332 60.2691C27.9734 56.6364 26.3289 52.2356 25.75 49.9436C25.7383 49.8978 25.7082 49.8631 25.6906 49.8209C25.6638 49.7562 25.6407 49.6911 25.6008 49.6349C25.5725 49.5952 25.5355 49.5662 25.5021 49.5315C25.4496 49.4775 25.3994 49.4245 25.3352 49.3841C25.2985 49.3609 25.2574 49.3494 25.2174 49.3312C25.1466 49.299 25.0773 49.2671 24.9984 49.2532C24.9438 49.2428 24.888 49.2496 24.8312 49.2485C24.7736 49.2478 24.7193 49.2335 24.6606 49.2435C24.6477 49.2457 24.6378 49.2543 24.625 49.2571C24.6125 49.2596 24.6008 49.2557 24.5883 49.2582C24.537 49.2704 24.4977 49.3018 24.4508 49.3215C24.391 49.3469 24.3297 49.3659 24.2772 49.4013C24.2255 49.436 24.187 49.4811 24.1441 49.5244C24.1012 49.5673 24.0564 49.6052 24.0227 49.6549C23.9886 49.7054 23.9702 49.7622 23.946 49.8184C23.9229 49.8731 23.8961 49.9246 23.884 49.9837C23.8715 50.0441 23.877 50.1064 23.8774 50.1697C23.8774 50.2201 23.8631 50.2684 23.8723 50.3199C23.8759 50.3418 23.8833 50.3643 23.8873 50.3858V50.3893C23.8884 50.3933 23.8899 50.3986 23.891 50.4029C24.4845 53.8132 25.899 57.3483 27.1781 60.0441C25.147 57.7965 23.4497 55.2065 22.8481 53.6733C22.8309 53.6286 22.796 53.5975 22.7725 53.5574C22.737 53.4955 22.7058 53.4322 22.6577 53.381C22.6236 53.3446 22.5822 53.3209 22.5433 53.2905C22.4849 53.2447 22.4296 53.1986 22.3621 53.1671C22.3188 53.1471 22.2718 53.1406 22.226 53.1267C22.1552 53.1059 22.0866 53.083 22.0114 53.0784C21.9523 53.0745 21.8936 53.0891 21.8338 53.0966C21.7784 53.1034 21.7238 53.0966 21.6688 53.1135C21.6581 53.1167 21.6508 53.1249 21.6409 53.1285C21.6306 53.1317 21.6203 53.1296 21.6101 53.1335C21.558 53.1528 21.5209 53.1904 21.4743 53.2172C21.4197 53.2487 21.3614 53.2748 21.3148 53.3156C21.2671 53.3574 21.2341 53.4093 21.1967 53.459C21.1611 53.5059 21.1215 53.5477 21.095 53.6C21.0675 53.6547 21.0573 53.7141 21.0415 53.7731C21.0257 53.8307 21.0048 53.8844 21.0008 53.9448C20.9964 54.0053 21.0118 54.0657 21.0199 54.1269C21.0268 54.1798 21.0195 54.2324 21.0364 54.2847C22.0803 57.5686 24.5909 61.4758 26.5578 64.2281C24.9188 62.9965 23.7142 61.6643 23.3646 61.2622C23.3268 61.2185 23.2898 61.1745 23.252 61.1309C22.9138 60.7342 22.3158 60.6777 21.9065 61.001C21.4982 61.3262 21.434 61.9115 21.7641 62.311C21.7821 62.3332 21.854 62.4209 21.974 62.5579C23.4134 64.2285 24.9816 65.7871 26.4023 67.1028L24.4588 66.2951C24.0157 66.1087 23.4948 66.2768 23.252 66.6879C23.0095 67.0993 23.1188 67.6198 23.5077 67.9049C23.6966 68.0419 27.1385 70.5492 30.1178 72.0309C29.8368 72.0474 29.5071 72.0274 29.138 71.9998C28.6876 71.9576 28.2445 72.272 28.1348 72.7178C28.0269 73.1653 28.2668 73.6225 28.7026 73.7978C28.776 73.8271 29.6839 74.1923 30.8049 74.5815C30.5433 74.6856 30.3354 74.8996 30.2492 75.1772C30.12 75.5921 30.3016 76.0418 30.6875 76.2572C30.788 76.314 32.1445 77.0724 33.8224 77.7446C33.7776 77.8122 33.741 77.8855 33.7138 77.9657C33.5825 78.3585 33.7325 78.7899 34.0821 79.0256C34.3734 79.2209 40.89 83.5337 48.5009 83.5337C49.0005 83.5337 49.5052 83.5155 50.0129 83.4754C50.5404 83.435 50.9351 82.9839 50.8929 82.4684C50.8508 81.9529 50.3926 81.5637 49.8596 81.6113C45.0784 81.9916 40.4722 80.2408 37.7327 78.9029C38.0944 78.8167 38.3024 78.7384 38.3541 78.7183C38.7767 78.5502 39.0203 78.117 38.9378 77.6802C38.8552 77.2431 38.4693 76.9236 38.013 76.9143C36.9008 76.8921 35.3605 76.3641 34.0337 75.7975C34.5348 75.5528 34.8275 75.3185 34.8532 75.2984C35.1419 75.0627 35.2636 74.6864 35.1653 74.3318C35.0663 73.9795 34.764 73.7141 34.3935 73.6557C33.986 73.5899 33.4783 73.4618 32.946 73.3048C33.4633 73.0143 33.6834 72.6945 33.7677 72.5318C33.9009 72.2724 33.9038 71.9687 33.7762 71.7075C33.6478 71.4464 33.4035 71.2579 33.1126 71.1974C32.8617 71.1445 32.5774 71.055 32.2704 70.9381C32.3265 70.8833 32.3782 70.8211 32.42 70.7499C32.6643 70.346 32.5635 69.827 32.1842 69.5365C32.1643 69.5218 31.4197 68.9516 30.2921 68.0032C30.4711 67.9392 30.6292 67.8204 30.7436 67.6598C30.9854 67.32 30.9681 66.8649 30.7033 66.543C30.682 66.5172 29.9363 65.6029 28.9084 64.2142C29.2477 64.471 29.5867 64.7336 29.9256 64.9461C30.0852 65.0448 30.2657 65.0942 30.4447 65.0942C30.6875 65.0942 30.927 65.0048 31.1116 64.8309C31.1875 64.7594 31.2469 64.6771 31.2939 64.5894C31.876 65.1958 32.4875 65.7463 33.1298 66.216C33.2135 66.2772 33.3151 66.2761 33.409 66.3069C33.6812 66.7519 33.9644 67.1976 34.2615 67.6434C40.0878 76.3856 48.3028 81.0683 58.1557 81.3494C57.2485 81.8867 56.2636 82.4419 54.7042 83.0343C54.3638 83.1638 54.063 83.2933 53.7608 83.4232C53.6148 83.4511 53.4779 83.5026 53.3631 83.591C50.6413 84.8198 49.5144 86.0339 49.0573 86.8832C48.601 87.7274 48.9946 88.5935 49.5518 89.0431C49.725 89.1819 49.9454 89.2531 50.1666 89.2531C50.3185 89.2531 50.4704 89.2202 50.6079 89.1526C50.9472 88.988 51.1739 88.6389 51.1589 88.2719C51.1981 88.2297 51.365 88.0948 51.8878 88.078C52.2689 88.0469 53.0711 88.1309 54.0073 88.2043C54.8979 88.2758 55.9661 88.357 57.1018 88.4139C56.3913 89.2216 55.5655 90.1578 55.5655 90.1578C55.3176 90.4394 55.2629 90.8375 55.428 91.172C55.5938 91.5083 55.9511 91.7168 56.3256 91.7036C57.0838 91.6778 57.5989 91.6632 57.9371 91.6564C58.232 92.033 58.594 92.1826 58.827 92.2409C59.4869 92.4054 60.1442 92.1479 60.6398 91.8427C61.0147 92.106 61.3896 92.2173 61.6867 92.2591C62.3566 92.3486 62.9772 92.1586 63.4255 91.9429C63.8903 92.2355 64.3455 92.3103 64.6925 92.3103C64.6973 92.3103 64.7031 92.3103 64.7083 92.3103C65.4566 92.3067 66.1118 91.954 66.5754 91.6084C66.9852 91.846 67.3766 91.9225 67.6792 91.9357C68.3663 91.9593 68.9356 91.7018 69.3141 91.4603C70.6662 91.725 71.8316 91.104 72.602 90.4186C72.9534 90.6179 73.2876 90.6672 73.5539 90.6543C74.2387 90.6307 74.7604 90.2247 75.0953 89.8613C76.6282 90.0419 77.7284 89.7661 78.3641 89.0299C78.7111 88.6296 78.8516 88.1785 78.8897 87.7671C83.1427 87.7435 83.5275 85.4791 83.5587 85.1993C83.5865 84.9453 83.5073 84.6913 83.3378 84.496C83.1691 84.3007 82.9244 84.1798 82.6632 84.1651L71.5132 83.5112C71.0466 83.4783 70.6303 83.7834 70.5221 84.2277C70.5199 84.2352 70.3302 84.9257 69.7352 85.478C68.9352 86.2231 67.6462 86.6167 66.2445 86.8252C66.2497 86.7 66.2317 86.5726 66.1825 86.4482C65.9914 85.9659 65.435 85.7316 64.9419 85.9126C62.6401 86.7837 58.9132 86.6742 55.9977 86.4764C56.4448 86.1201 56.9833 85.767 57.4136 85.5367C57.7771 85.3413 57.9723 84.941 57.8953 84.5425C57.8395 84.2531 57.6249 84.0517 57.3663 83.9222C58.177 83.523 58.8417 83.1374 59.4722 82.7625C60.5668 82.1085 61.6009 81.4925 63.4842 80.8547C67.1194 79.623 71.3265 79.2485 71.3687 79.2446C71.4641 79.2374 71.558 79.2134 71.6471 79.1787C71.7968 79.1183 83.6636 74.2703 89.2543 63.0841C89.181 63.4222 89.1025 63.7312 89.017 64.0013C88.871 64.4621 89.1069 64.9536 89.5621 65.1396C89.9143 65.2841 90.3145 65.209 90.5856 64.9643C90.2323 65.8726 89.9128 66.587 89.652 67.0091C89.386 67.4387 89.5144 67.9961 89.9425 68.2737C90.043 68.3377 90.1505 68.3814 90.2609 68.4071C89.8281 69.0249 89.3893 69.6095 88.9517 70.1453C88.6605 70.5016 88.6773 71.01 88.9818 71.3462C88.2302 72.1136 87.5644 72.746 87.0582 73.1481C86.7273 73.4093 86.6198 73.8464 86.7717 74.2192C86.2834 74.4914 85.8825 74.6835 85.6044 74.7654C85.1378 74.9024 84.8514 75.361 84.9394 75.8289C84.9852 76.0758 85.1276 76.284 85.3242 76.421C84.7376 76.5745 84.0957 76.7226 83.3987 76.8574C83.0062 76.934 82.7036 77.2391 82.639 77.6248C82.5752 78.0104 82.763 78.3942 83.11 78.5878C83.1401 78.6042 83.4677 78.7852 83.9695 78.9934C82.1137 79.7225 78.7995 80.6748 73.3613 81.1974C72.8345 81.2486 72.4486 81.7075 72.5011 82.2209C72.5525 82.7346 73.0081 83.0909 73.5502 83.0615C83.8734 82.0656 87.0611 79.5458 87.1913 79.4374C87.4892 79.1941 87.6073 78.7977 87.4892 78.4361C87.4107 78.1964 87.2383 78.0032 87.0167 77.8913C90.3148 76.8789 91.7308 75.7585 91.8045 75.6984C92.1658 75.4058 92.2572 74.8999 92.0191 74.5032C91.7792 74.1065 91.28 73.9348 90.8442 74.1065C90.7216 74.1523 90.5258 74.1995 90.2782 74.2471C92.4916 72.7689 94.8411 71.0085 95.8744 70.223C96.056 70.0917 96.2215 69.965 96.3663 69.8463C96.7676 69.5175 96.8238 68.9366 96.4929 68.5398C96.1638 68.1453 95.5652 68.0791 95.1551 68.3953C95.0054 68.5105 94.8495 68.6293 94.6885 68.7516C94.2116 69.0972 93.6016 69.4882 92.9362 69.8899C95.4482 67.1086 97.9767 64.0933 98.6993 63.2272C98.765 63.1485 98.8296 63.0702 98.8952 62.9915C99.2268 62.5894 99.1623 62.0009 98.75 61.6775C98.3366 61.3488 97.7324 61.4164 97.4015 61.8163L97.3993 61.8181L97.3986 61.8202C97.3806 61.8403 97.2995 61.939 97.1627 62.1036C96.406 63.0043 95.6092 63.8765 94.8231 64.691C97.3821 60.1683 99.3196 55.7163 99.6036 55.0566C99.6138 55.033 99.6234 55.0094 99.6336 54.9851C99.8376 54.5125 99.6065 53.9641 99.1172 53.7667ZM54.1481 85.307L54.41 85.3403C54.0887 85.6333 53.8275 85.9617 53.6195 86.3008C53.1639 86.265 52.7505 86.2342 52.4266 86.2196C52.8731 85.9348 53.4475 85.6265 54.1481 85.307Z" fill="#FFE15A"/>
</g>
<defs>
<clipPath id="clip0">
<rect width="121" height="118" fill="white"/>
</clipPath>
</defs>
</svg>
