<svg width="132" height="139" viewBox="0 0 132 139" fill="none" xmlns="http://www.w3.org/2000/svg">
<path d="M65.7445 138.286C102.054 138.286 131.489 107.33 131.489 69.1432C131.489 30.9565 102.054 0 65.7445 0C29.4348 0 0 30.9565 0 69.1432C0 107.33 29.4348 138.286 65.7445 138.286Z" fill="#8581D2"/>
<g clip-path="url(#clip0)">
<path d="M70.6024 99.7922C70.6024 100.449 68.7839 100.981 66.5432 100.981C64.3002 100.981 62.4841 100.449 62.4841 99.7922C62.4841 99.1358 64.5186 98.3365 66.7617 98.3365C69.0048 98.3365 70.6024 99.1358 70.6024 99.7922Z" fill="#4E0A06"/>
<path d="M66.3125 97.1611C64.8695 87.9651 59.8949 86.4264 55.2148 86.1332C49.7912 85.7958 45.4203 87.197 41.1943 88.5541C37.3952 89.7737 33.0514 91.0036 29.1247 90.6897L29.9149 90.098C33.7508 90.4016 37.2971 89.2651 41.0519 88.0585C45.3197 86.6885 49.7347 85.2717 55.2443 85.6142C59.8311 85.8996 65.2892 87.4617 66.796 97.0755L66.3125 97.1611Z" fill="url(#paint0_radial)"/>
<path d="M66.666 96.9613L66.1777 96.9042C66.4893 93.9202 68.1999 91.0944 70.7547 89.3455C73.037 87.7809 77.0079 86.3433 82.9567 88.3699C84.79 88.9952 86.4441 89.5713 87.9068 90.0799C94.4054 92.3399 97.986 93.5855 102.308 93.9306L102.769 94.4833C98.3885 94.1356 94.29 92.8459 87.7546 90.5729C86.2944 90.0643 84.6403 89.4882 82.807 88.8655C77.0422 86.9012 73.2162 88.2817 71.0222 89.7841C68.5876 91.4473 66.9605 94.1304 66.666 96.9613Z" fill="url(#paint1_radial)"/>
<path d="M62.8302 93.5543L50.4858 93.4791L23.7919 98.1316L20.5131 99.5925H62.8302V93.5543Z" fill="#4E0A06"/>
<path d="M66.4206 96.4268C65.38 91.2994 58.4225 85.9463 48.3973 90.2329C38.372 94.5196 32.406 95.516 25.873 95.516C24.2974 97.2649 21.9243 99.2836 21.9243 99.2836C21.9243 99.2836 37.8419 99.8389 45.0179 98.0926C53.8308 95.9493 58.7612 92.8511 62.5921 99.403C64.3296 98.212 66.5359 98.212 66.5359 98.212C66.5359 98.212 66.6415 97.5192 66.4206 96.4268Z" fill="url(#paint2_radial)"/>
<path d="M25.873 96.022C32.406 96.022 38.372 95.0256 48.3973 90.7389C58.4225 86.4523 65.38 91.8054 66.4206 96.9327C66.504 97.3453 66.5408 97.7008 66.5531 97.9836C66.5678 97.6956 66.5654 97.1481 66.4206 96.4268C65.38 91.2994 58.4225 85.9463 48.3973 90.2329C38.372 94.5196 32.406 95.516 25.873 95.516C24.2974 97.2649 21.9243 99.2836 21.9243 99.2836C21.9243 99.2836 24.7711 97.2441 25.873 96.022Z" fill="white"/>
<path d="M26.6608 96.8497C26.6608 96.8497 26.759 96.8782 26.9406 96.9275C27.1222 96.9898 27.3971 97.021 27.7406 97.0806C27.9149 97.0988 28.1088 97.1196 28.3174 97.1429C28.5284 97.1533 28.7567 97.1663 28.9996 97.1792C29.488 97.1922 30.0377 97.1948 30.639 97.1818C31.8415 97.1533 33.2404 97.0261 34.7276 96.8212C35.4712 96.72 36.2369 96.5876 37.0125 96.4371C37.788 96.2866 38.5708 96.1102 39.3464 95.9052C39.7366 95.8144 40.1219 95.695 40.5047 95.586C40.89 95.4796 41.268 95.3499 41.6434 95.2253C42.3969 94.9762 43.1331 94.709 43.8596 94.478C44.5811 94.2367 45.2854 94.0291 45.9529 93.8371C46.6205 93.6451 47.2561 93.4738 47.8426 93.3208C49.0182 93.0172 50.0097 92.8251 50.7017 92.6902C51.3963 92.5631 51.7963 92.5164 51.7963 92.5164C51.7963 92.5164 51.4012 92.5994 50.7165 92.7732C50.0318 92.9419 49.0599 93.2196 47.9015 93.5595C47.3224 93.7333 46.6966 93.9279 46.0364 94.1459C45.3787 94.3639 44.6841 94.6 43.97 94.8491C43.2534 95.0904 42.5245 95.381 41.7662 95.6327C41.3882 95.7625 41.0054 95.8974 40.6152 96.0064C40.2274 96.1206 39.8396 96.2425 39.4445 96.3385C38.6592 96.5435 37.8665 96.7148 37.0836 96.8627C36.3007 97.0132 35.5228 97.1222 34.7718 97.213C33.265 97.392 31.8514 97.4465 30.639 97.4361C30.3371 97.4258 30.0451 97.4309 29.7702 97.4102C29.4954 97.3894 29.2328 97.3739 28.9874 97.3505C28.7419 97.322 28.5137 97.296 28.3027 97.2701C28.0916 97.2337 27.9002 97.2 27.7235 97.1715C27.5492 97.1403 27.3946 97.0936 27.2621 97.0599C27.1271 97.0287 27.0167 96.9898 26.9283 96.9561C26.7565 96.886 26.6608 96.8497 26.6608 96.8497Z" fill="#C6C2A6"/>
<path d="M44.392 93.9332C44.392 93.9332 44.716 93.8034 45.2853 93.5751C45.8572 93.3571 46.667 93.025 47.6585 92.6773C48.1543 92.5034 48.6917 92.3192 49.2635 92.135C49.8353 91.9507 50.444 91.7639 51.0796 91.6004C51.7152 91.4396 52.3754 91.2761 53.0577 91.1619C53.7375 91.0426 54.4344 90.9491 55.1363 90.905C55.8382 90.8635 56.545 90.8635 57.2371 90.9336C57.9292 91.0036 58.6065 91.1256 59.2421 91.3306C59.8753 91.5356 60.4766 91.7873 61.0018 92.1168C61.1367 92.1895 61.2644 92.2751 61.3871 92.3633C61.5098 92.4489 61.6325 92.5294 61.7503 92.6176C61.9712 92.807 62.2019 92.9679 62.3933 93.1651C62.5872 93.3545 62.781 93.5258 62.9381 93.7204C63.0976 93.9098 63.2571 94.0811 63.3823 94.2653C63.5099 94.4469 63.64 94.6052 63.7431 94.7687C63.8437 94.9322 63.9369 95.0801 64.0228 95.215C64.1922 95.4823 64.2928 95.7158 64.3738 95.8637C64.4523 96.0142 64.494 96.0946 64.494 96.0946C64.494 96.0946 64.4449 96.0194 64.3541 95.8741C64.2609 95.734 64.1382 95.516 63.9541 95.2617C63.8633 95.1346 63.7602 94.9944 63.6498 94.8414C63.5394 94.6883 63.3995 94.5404 63.2645 94.3717C63.1295 94.2004 62.9651 94.0422 62.7958 93.8709C62.6338 93.6919 62.4399 93.531 62.2436 93.3545C62.0521 93.1729 61.8215 93.0276 61.6006 92.8537C61.4852 92.7759 61.3625 92.7032 61.2398 92.6254C61.1196 92.5475 60.9944 92.4697 60.8594 92.4048C60.7294 92.3374 60.5944 92.2673 60.4594 92.1972C60.3195 92.1376 60.1796 92.0779 60.0373 92.0182C59.8974 91.9533 59.7477 91.9066 59.598 91.8547C59.4483 91.8054 59.301 91.7458 59.144 91.7094C58.5304 91.52 57.8727 91.4292 57.2052 91.3617C56.5352 91.2969 55.848 91.3046 55.1658 91.3487C54.4811 91.3851 53.7964 91.4707 53.1288 91.5849C52.4588 91.6939 51.8036 91.8314 51.1704 91.9793C50.5397 92.1324 49.9286 92.2855 49.3543 92.4438C48.7776 92.602 48.2352 92.7629 47.737 92.9134C46.7357 93.2196 45.9038 93.4765 45.3197 93.6555C44.7258 93.832 44.392 93.9332 44.392 93.9332Z" fill="#C6C2A6"/>
<path d="M32.4918 98.9333C32.4918 98.9333 32.6145 98.9255 32.8452 98.91C33.0759 98.8918 33.4121 98.8659 33.8416 98.8347C34.7005 98.7673 35.9252 98.6349 37.3903 98.4507C38.1216 98.3573 38.9143 98.2431 39.7488 98.1082C40.5832 97.9655 41.4593 97.8072 42.3624 97.6204C43.2656 97.4413 44.1932 97.213 45.1283 96.9665C46.0608 96.7096 47.0057 96.4293 47.9211 96.0764C48.38 95.9078 48.8488 95.7261 49.3077 95.5497C49.774 95.3836 50.2378 95.2046 50.7066 95.0593C51.6342 94.7427 52.5766 94.5118 53.492 94.3379C54.4099 94.1537 55.3204 94.1122 56.1769 94.1329C56.6064 94.1667 57.0236 94.1874 57.4187 94.2782C57.8212 94.3327 58.1942 94.4625 58.555 94.5663C58.739 94.6104 58.9035 94.7038 59.0703 94.7687C59.2348 94.8413 59.3992 94.9062 59.5538 94.9814C59.8483 95.1631 60.1379 95.3188 60.3907 95.4926C60.6361 95.682 60.8643 95.8585 61.0754 96.0219C61.2717 96.2062 61.446 96.38 61.6055 96.5357C61.684 96.6136 61.7601 96.6862 61.8313 96.7563C61.8951 96.8341 61.954 96.9068 62.008 96.9742C62.1159 97.1092 62.2092 97.2233 62.2853 97.3168C62.435 97.501 62.516 97.6022 62.516 97.6022C62.516 97.6022 62.4301 97.5088 62.2681 97.3349C62.1871 97.2467 62.0889 97.1403 61.9711 97.0132C61.9122 96.9509 61.8509 96.8808 61.7846 96.8108C61.711 96.7459 61.6349 96.6758 61.5515 96.6032C61.3871 96.4579 61.2079 96.2944 61.0067 96.1231C60.7907 95.9726 60.56 95.8118 60.3097 95.6379C60.052 95.4822 59.7649 95.3421 59.4704 95.1812C59.3157 95.119 59.1562 95.0567 58.9918 94.9918C58.8274 94.9321 58.6654 94.8465 58.4862 94.8102C58.1328 94.7193 57.7696 94.6052 57.377 94.5637C56.9917 94.4884 56.5843 94.4806 56.1671 94.4599C55.3326 94.4651 54.4541 94.5377 53.5558 94.7245C52.6601 94.9062 51.7422 95.1579 50.8244 95.4693C50.363 95.6146 49.909 95.7936 49.4476 95.9597C48.9862 96.1413 48.5297 96.3203 48.061 96.4968C47.1259 96.8523 46.1688 97.1299 45.2264 97.3842C44.7528 97.5036 44.284 97.6255 43.8153 97.7215C43.349 97.8279 42.8852 97.9188 42.4287 98.0044C41.5182 98.1834 40.6298 98.3106 39.7905 98.4273C38.9487 98.5363 38.1511 98.6271 37.4148 98.6972C35.9424 98.8425 34.7079 98.8866 33.8465 98.9178C33.4146 98.9307 33.0759 98.9333 32.8452 98.9307C32.6145 98.9333 32.4918 98.9333 32.4918 98.9333Z" fill="#C6C2A6"/>
<path d="M62.8302 99.5898H20.5131V100.34H62.8302V99.5898Z" fill="#9F0C24"/>
<path d="M49.2219 95.2331C49.2219 95.2331 49.3495 95.1605 49.5753 95.0333C49.6881 94.9684 49.828 94.901 49.99 94.8231C50.152 94.7401 50.336 94.6571 50.5422 94.5766C50.7459 94.4884 50.9717 94.408 51.2097 94.3223C51.4478 94.2315 51.703 94.1589 51.9681 94.081C52.2356 94.0136 52.5104 93.9357 52.7927 93.876C53.0749 93.8138 53.362 93.7541 53.6541 93.71C53.9437 93.6581 54.2357 93.6373 54.5228 93.6036C54.8124 93.588 55.0947 93.5569 55.3695 93.5595C55.6444 93.5465 55.9119 93.5621 56.1622 93.5776C56.415 93.5906 56.6506 93.6295 56.869 93.6529C57.085 93.697 57.2862 93.7255 57.458 93.7774C57.6298 93.8319 57.782 93.8656 57.9022 93.9149C58.1403 94.0161 58.2753 94.0732 58.2753 94.0732C58.2753 94.0732 58.1354 94.0317 57.8899 93.9565C57.7672 93.9201 57.6151 93.8968 57.4408 93.8579C57.2666 93.8215 57.0678 93.8112 56.8543 93.7774C56.6383 93.7644 56.4027 93.7411 56.1549 93.7411C55.907 93.7385 55.6444 93.7411 55.372 93.7541C55.0996 93.7567 54.8222 93.7904 54.5376 93.8112C54.2553 93.8501 53.9657 93.876 53.6811 93.9305C53.3939 93.9694 53.1092 94.0239 52.8295 94.081C52.5497 94.1329 52.2773 94.2056 52.0098 94.2678C51.7496 94.3457 51.4895 94.4002 51.2514 94.478C51.0109 94.5507 50.7852 94.6181 50.579 94.696C50.3729 94.766 50.1839 94.8335 50.017 94.901C49.8501 94.9658 49.7053 95.0203 49.5875 95.0748C49.3568 95.1734 49.2219 95.2331 49.2219 95.2331Z" fill="#C6C2A6"/>
<path d="M70.173 93.5543L82.5199 93.4791L109.214 98.1316L112.49 99.5925H70.173V93.5543Z" fill="#4E0A06"/>
<path d="M66.5826 96.4268C67.6231 91.2994 74.5807 85.9463 84.6059 90.2329C94.6311 94.5196 100.597 95.516 107.13 95.516C108.706 97.2649 111.079 99.2836 111.079 99.2836C111.079 99.2836 95.1612 99.8389 87.9853 98.0926C79.1724 95.9493 74.242 92.8511 70.411 99.403C68.6735 98.212 66.4672 98.212 66.4672 98.212C66.4672 98.212 66.3641 97.5192 66.5826 96.4268Z" fill="url(#paint3_radial)"/>
<path d="M107.134 96.022C100.601 96.022 94.6351 95.0256 84.6099 90.7389C74.5847 86.4523 67.6271 91.8054 66.5866 96.9327C66.5031 97.3453 66.4663 97.7008 66.454 97.9836C66.4393 97.6956 66.4418 97.1481 66.5866 96.4268C67.6271 91.2994 74.5847 85.9463 84.6099 90.2329C94.6351 94.5196 100.601 95.516 107.134 95.516C108.71 97.2649 111.083 99.2836 111.083 99.2836C111.083 99.2836 108.234 97.2441 107.134 96.022Z" fill="white"/>
<path d="M106.345 96.8497C106.345 96.8497 106.249 96.886 106.072 96.9509C105.984 96.9872 105.874 97.0261 105.739 97.0547C105.606 97.0884 105.452 97.1325 105.277 97.1663C105.103 97.1974 104.909 97.2285 104.698 97.2649C104.487 97.2908 104.256 97.3168 104.013 97.3453C103.768 97.3713 103.508 97.3842 103.23 97.405C102.956 97.4257 102.664 97.4206 102.362 97.4309C101.149 97.4413 99.7358 97.3894 98.2289 97.2078C97.4755 97.117 96.7 97.008 95.9171 96.8575C95.1342 96.7122 94.3415 96.5383 93.5562 96.3333C93.1611 96.2399 92.7733 96.1154 92.3856 96.0012C91.9954 95.8922 91.615 95.7573 91.2346 95.6275C90.4762 95.3758 89.7474 95.0852 89.0307 94.8439C88.3166 94.5974 87.6245 94.3587 86.9643 94.1407C86.3066 93.9227 85.6784 93.7307 85.0992 93.5543C83.9384 93.2118 82.969 92.9341 82.2843 92.7681C81.5995 92.5942 81.2044 92.5112 81.2044 92.5112C81.2044 92.5112 81.6045 92.5553 82.299 92.685C82.9911 92.8174 83.985 93.0094 85.1581 93.3156C85.7446 93.4687 86.3802 93.6399 87.0478 93.8319C87.7153 94.0239 88.4196 94.2315 89.1412 94.4728C89.8651 94.7038 90.6038 94.9711 91.3573 95.2202C91.7328 95.3447 92.1083 95.477 92.496 95.5808C92.8813 95.6924 93.2642 95.8092 93.6544 95.9C94.4299 96.1076 95.2128 96.2814 95.9883 96.4319C96.7638 96.5824 97.5295 96.7148 98.2731 96.816C99.7628 97.021 101.162 97.1481 102.362 97.1766C102.963 97.1896 103.513 97.1896 104.001 97.174C104.244 97.1611 104.472 97.1481 104.683 97.1377C104.894 97.1144 105.086 97.0936 105.26 97.0754C105.604 97.0158 105.881 96.9846 106.06 96.9224C106.247 96.8782 106.345 96.8497 106.345 96.8497Z" fill="#C6C2A6"/>
<path d="M88.6135 93.9332C88.6135 93.9332 88.2797 93.832 87.6932 93.6581C87.1091 93.4791 86.2771 93.2248 85.2758 92.916C84.7752 92.7629 84.2328 92.6021 83.6585 92.4464C83.0818 92.2881 82.4732 92.135 81.8425 91.9819C81.2093 91.834 80.554 91.6965 79.8841 91.5875C79.2141 91.4759 78.5318 91.3877 77.8471 91.3514C77.1624 91.3072 76.4752 91.2995 75.8077 91.3643C75.1402 91.4318 74.4825 91.5226 73.8689 91.712C73.7118 91.7484 73.5646 91.808 73.4149 91.8573C73.2676 91.9092 73.1179 91.9559 72.9756 92.0208C72.8333 92.0805 72.6909 92.1402 72.5535 92.1999C72.4185 92.2699 72.286 92.34 72.1535 92.4074C72.0209 92.4723 71.8958 92.5502 71.7731 92.628C71.6504 92.7058 71.5276 92.7785 71.4123 92.8563C71.1914 93.0302 70.9607 93.1781 70.7693 93.3571C70.573 93.5336 70.3791 93.6945 70.2171 93.8735C70.0478 94.0474 69.8834 94.2031 69.7484 94.3743C69.611 94.543 69.4735 94.6909 69.3631 94.844C69.2526 94.9971 69.152 95.1372 69.0588 95.2643C68.8747 95.5186 68.752 95.7366 68.6587 95.8767C68.5679 96.0194 68.5189 96.0973 68.5189 96.0973C68.5189 96.0973 68.5606 96.0168 68.6391 95.8663C68.7225 95.7184 68.8207 95.4849 68.99 95.2176C69.0735 95.0827 69.1667 94.9348 69.2698 94.7713C69.3704 94.6078 69.5005 94.4496 69.6306 94.2679C69.7557 94.0837 69.9153 93.9124 70.0748 93.723C70.2294 93.5284 70.4257 93.3571 70.6196 93.1677C70.8086 92.9731 71.0417 92.8122 71.2626 92.6202C71.3804 92.5346 71.5031 92.4516 71.6258 92.3659C71.7485 92.2777 71.8737 92.1921 72.0111 92.1194C72.5339 91.7899 73.1351 91.5382 73.7707 91.3332C74.4064 91.1256 75.0862 91.0037 75.7758 90.9362C76.4679 90.8635 77.1747 90.8661 77.8766 90.9076C78.5784 90.9492 79.2754 91.0452 79.9552 91.1645C80.6375 91.2787 81.2952 91.4422 81.9333 91.6031C82.5689 91.7639 83.1751 91.9533 83.7494 92.1376C84.3212 92.3218 84.8586 92.506 85.3544 92.6799C86.3434 93.0276 87.1557 93.3597 87.7275 93.5777C88.2895 93.8035 88.6135 93.9332 88.6135 93.9332Z" fill="#C6C2A6"/>
<path d="M100.514 98.9334C100.514 98.9334 100.391 98.9334 100.16 98.9334C99.9297 98.9334 99.591 98.9308 99.1591 98.9204C98.2977 98.8892 97.0657 98.8425 95.5907 98.6998C94.8545 98.6298 94.0569 98.5363 93.2151 98.43C92.3733 98.3132 91.4874 98.1861 90.5769 98.007C90.1204 97.9214 89.659 97.8306 89.1903 97.7242C88.7215 97.6282 88.2528 97.5062 87.7791 97.3868C86.8343 97.1326 85.8796 96.8549 84.9446 96.4994C84.4734 96.3256 84.0194 96.1439 83.558 95.9623C83.0966 95.7962 82.6426 95.6172 82.1812 95.4719C81.2633 95.1579 80.3479 94.9088 79.4497 94.7272C78.554 94.5377 77.6729 94.4677 76.8385 94.4625C76.4213 94.4832 76.0164 94.491 75.6286 94.5663C75.2359 94.6078 74.8727 94.7194 74.5193 94.8128C74.3402 94.8491 74.1782 94.9347 74.0138 94.9944C73.8518 95.0593 73.6923 95.1216 73.5352 95.1838C73.2407 95.3447 72.9511 95.4848 72.6959 95.6405C72.448 95.8144 72.2149 95.9753 71.9989 96.1258C71.7977 96.297 71.6185 96.4605 71.4541 96.6058C71.3731 96.6785 71.2946 96.7485 71.2209 96.8134C71.1547 96.886 71.0909 96.9535 71.0344 97.0158C70.9166 97.1429 70.8185 97.2493 70.7375 97.3375C70.5755 97.5114 70.4896 97.6048 70.4896 97.6048C70.4896 97.6048 70.5706 97.5062 70.7203 97.3194C70.7964 97.226 70.8872 97.1118 70.9976 96.9769C71.0516 96.9094 71.1105 96.8367 71.1743 96.7589C71.2455 96.6888 71.3191 96.6162 71.4001 96.5383C71.5596 96.3852 71.7339 96.2088 71.9302 96.0246C72.1412 95.8611 72.3695 95.6846 72.6149 95.4952C72.8701 95.3214 73.1573 95.1657 73.4518 94.984C73.6064 94.9088 73.7708 94.8439 73.9352 94.7713C74.1021 94.7064 74.2665 94.613 74.4506 94.5689C74.8114 94.4625 75.1844 94.3353 75.5869 94.2809C75.9845 94.19 76.4017 94.1693 76.8311 94.1355C77.6876 94.1148 78.5981 94.1563 79.516 94.3405C80.4338 94.5144 81.3738 94.7453 82.3015 95.0619C82.7702 95.2072 83.234 95.3862 83.7003 95.5523C84.1593 95.7288 84.628 95.913 85.0869 96.0791C86.0048 96.432 86.9472 96.7148 87.8798 96.9691C88.8148 97.2156 89.7425 97.4413 90.6456 97.623C91.5487 97.8098 92.4249 97.9681 93.2593 98.1108C94.0937 98.2431 94.8864 98.3599 95.6177 98.4533C97.0829 98.6376 98.3075 98.7699 99.1664 98.8374C99.5959 98.8711 99.9346 98.8944 100.163 98.9126C100.391 98.9256 100.514 98.9334 100.514 98.9334Z" fill="#C6C2A6"/>
<path d="M70.175 100.337H112.492V99.5875H70.175V100.337Z" fill="#9F0C24"/>
<path d="M83.7813 95.2332C83.7813 95.2332 83.6463 95.1735 83.4107 95.0723C83.2953 95.0178 83.1481 94.9607 82.9812 94.8984C82.8168 94.831 82.6278 94.7635 82.4192 94.6934C82.2131 94.6182 81.9873 94.5481 81.7468 94.4755C81.5087 94.3976 81.251 94.3431 80.9884 94.2653C80.7234 94.203 80.451 94.1304 80.1687 94.0785C79.889 94.0214 79.6043 93.9695 79.3171 93.928C79.0325 93.8735 78.7429 93.8475 78.4606 93.8086C78.176 93.7878 77.8962 93.7541 77.6262 93.7515C77.3563 93.7385 77.0937 93.7359 76.8433 93.7385C76.5955 93.7385 76.3599 93.7619 76.1439 93.7749C75.9304 93.8086 75.7292 93.8216 75.5574 93.8553C75.3856 93.8942 75.231 93.915 75.1083 93.9539C74.8628 94.0292 74.723 94.0707 74.723 94.0707C74.723 94.0707 74.8579 94.0136 75.096 93.9124C75.2162 93.8631 75.3684 93.8294 75.5402 93.7749C75.712 93.723 75.9132 93.6918 76.1292 93.6503C76.3476 93.627 76.5857 93.588 76.836 93.5751C77.0888 93.5595 77.3538 93.5439 77.6287 93.5569C77.9035 93.5543 78.1882 93.5854 78.4754 93.601C78.7625 93.6347 79.0545 93.6555 79.3441 93.7074C79.6337 93.7541 79.9233 93.8112 80.2056 93.8735C80.4878 93.9331 80.7626 94.011 81.0301 94.0785C81.2952 94.1589 81.5504 94.229 81.7885 94.3198C82.0265 94.4054 82.2523 94.4858 82.456 94.5741C82.6622 94.6545 82.8462 94.7375 83.0082 94.8206C83.1702 94.8984 83.3125 94.9659 83.423 95.0308C83.6537 95.1605 83.7813 95.2332 83.7813 95.2332Z" fill="#C6C2A6"/>
<path d="M62.3393 99.7845C62.84 99.1332 67.4538 96.8757 70.8455 99.7845" stroke="#9F0C24" stroke-width="1.8913" stroke-miterlimit="10"/>
<path d="M62.3393 100.13C62.84 100.428 67.4538 101.461 70.8455 100.13" stroke="#9F0C24" stroke-width="1.2797" stroke-miterlimit="10"/>
<path d="M66.828 96.9354L66.3371 96.9276C66.3936 92.1713 64.9628 86.2811 62.5136 81.1693C59.7772 75.4633 56.0763 71.2779 52.0932 69.3889L52.2945 68.914C56.3806 70.8523 60.1674 75.1208 62.9529 80.9332C65.4365 86.1202 66.8869 92.1012 66.828 96.9354Z" fill="url(#paint4_radial)"/>
<path d="M66.3396 96.9432C66.1016 90.4432 70.8332 76.5895 83.3076 72.4689L83.4549 72.9645C71.2357 77.0021 66.5973 90.5625 66.8329 96.925L66.3396 96.9432Z" fill="url(#paint5_radial)"/>
<path d="M66.4794 55.3795C66.4794 55.9711 66.0254 56.4485 65.4683 56.4485C64.9087 56.4485 64.4572 55.9685 64.4572 55.3795C64.4572 54.7879 64.9112 54.3104 65.4683 54.3104C66.0254 54.3104 66.4794 54.7879 66.4794 55.3795Z" fill="#C3E1CC"/>
<path d="M90.1179 40.4101C90.1179 40.9264 89.7228 41.3468 89.2319 41.3468C88.7435 41.3468 88.346 40.929 88.346 40.4101C88.346 39.8937 88.7411 39.4733 89.2319 39.4733C89.7228 39.4733 90.1179 39.8911 90.1179 40.4101Z" fill="#C3E1CC"/>
<path d="M106.301 63.535C106.79 63.535 107.187 63.1156 107.187 62.5983C107.187 62.0809 106.79 61.6616 106.301 61.6616C105.811 61.6616 105.415 62.0809 105.415 62.5983C105.415 63.1156 105.811 63.535 106.301 63.535Z" fill="#C3E1CC"/>
<path d="M94.9231 84.5166C94.9231 84.8124 94.6973 85.0512 94.4176 85.0512C94.1378 85.0512 93.912 84.8124 93.912 84.5166C93.912 84.2208 94.1378 83.9821 94.4176 83.9821C94.6973 83.9821 94.9231 84.2234 94.9231 84.5166Z" fill="#C3E1CC"/>
<path d="M40.8163 44.419C40.8163 45.3039 40.1365 46.0226 39.2997 46.0226C38.4628 46.0226 37.783 45.3039 37.783 44.419C37.783 43.5342 38.4628 42.8154 39.2997 42.8154C40.1365 42.8154 40.8163 43.5342 40.8163 44.419Z" fill="#C3E1CC"/>
<path d="M29.6916 64.3342C29.6916 64.63 29.4659 64.8687 29.1861 64.8687C28.9063 64.8687 28.6805 64.63 28.6805 64.3342C28.6805 64.0384 28.9063 63.7997 29.1861 63.7997C29.4634 63.7997 29.6916 64.0384 29.6916 64.3342Z" fill="#C3E1CC"/>
<path d="M24.2557 86.9246C24.2557 87.2204 24.0299 87.4591 23.7501 87.4591C23.4703 87.4591 23.2446 87.2204 23.2446 86.9246C23.2446 86.6288 23.4703 86.3901 23.7501 86.3901C24.0274 86.3901 24.2557 86.6288 24.2557 86.9246Z" fill="#C3E1CC"/>
<path d="M77.5035 56.254C82.1756 56.254 85.963 52.2495 85.963 47.3097C85.963 42.3699 82.1756 38.3654 77.5035 38.3654C72.8315 38.3654 69.0441 42.3699 69.0441 47.3097C69.0441 52.2495 72.8315 56.254 77.5035 56.254Z" fill="#C3E1CC"/>
<path d="M86.4787 49.5116C87.6291 44.2712 84.5438 39.0369 79.5874 37.8206C74.631 36.6042 69.6805 39.8663 68.5301 45.1068C67.3797 50.3472 70.465 55.5815 75.4213 56.7978C80.3777 58.0142 85.3282 54.752 86.4787 49.5116Z" stroke="#C3E1CC" stroke-miterlimit="10"/>
<path d="M74.6812 54.0354L70.9509 54.9773C70.708 55.0396 70.5067 54.8294 70.5607 54.5725L71.3829 50.6102L74.6812 54.0354Z" fill="#F28C00"/>
<path opacity="0.38" d="M71.486 54.8424L74.6837 54.0354L71.3829 50.6102L71.1154 51.9076C72.2198 52.4733 72.3376 53.8979 71.486 54.8424Z" fill="url(#paint6_linear)"/>
<path d="M81.3565 39.2191C81.5332 39.0296 81.7934 38.9596 82.0339 39.0374C82.4806 39.1853 83.2389 39.5434 84.0561 40.3919C84.8709 41.2378 85.212 42.0189 85.3544 42.4807C85.4305 42.7324 85.3691 43.0049 85.1949 43.1943L75.1034 54.0614C74.988 54.1859 74.8138 54.2301 74.6592 54.1756C74.2444 54.0303 73.4026 53.654 72.5805 52.8003C71.7534 51.9414 71.346 51.0151 71.1816 50.561C71.1203 50.3923 71.1595 50.2029 71.2773 50.0758L81.3565 39.2191Z" fill="#F28C00"/>
<path opacity="0.44" d="M82.3161 42.2679C83.4033 43.3967 83.7886 44.2971 83.8966 44.5955L84.6451 43.7885C84.5371 43.4901 84.1518 42.5897 83.0646 41.4609C81.9725 40.327 81.0964 39.9196 80.8093 39.808L80.0607 40.615C80.3479 40.7266 81.224 41.134 82.3161 42.2679Z" fill="#1D1D1B"/>
<path d="M80.6277 39.8625C80.6277 39.8625 81.6437 40.161 82.9836 41.5492C84.3236 42.94 84.5985 43.9831 84.5985 43.9831L75.9918 53.2518C75.9918 53.2518 74.9365 52.7925 73.7438 51.5522C72.551 50.3144 72.0234 49.1312 72.0234 49.1312L80.6277 39.8625Z" fill="#DE680E"/>
<path d="M76.3231 52.8911C76.3231 52.8911 75.2679 52.4318 74.0751 51.1915C72.8824 49.9538 72.3548 48.7705 72.3548 48.7705C72.4579 48.659 72.61 48.4955 72.61 48.4955C72.61 48.4955 73.1377 49.6787 74.3304 50.9164C75.5231 52.1542 76.5784 52.616 76.5784 52.616L76.3231 52.8911Z" fill="#521C00"/>
<path d="M76.7746 52.4059C76.7746 52.4059 75.7193 51.9466 74.5266 50.7063C73.3339 49.4685 72.8062 48.2853 72.8062 48.2853C72.8946 48.1893 73.1547 47.9091 73.1547 47.9091C73.1547 47.9091 73.6824 49.0923 74.8751 50.33C76.0678 51.5677 77.1231 52.0296 77.1231 52.0296L76.7746 52.4059Z" fill="#521C00"/>
<path d="M84.1248 44.489C84.1248 44.489 83.6708 43.3811 82.4781 42.1433C81.2854 40.9056 80.1564 40.3685 80.1564 40.3685C80.1368 40.3477 79.9012 40.6435 79.9012 40.6435C79.9012 40.6435 81.0301 41.1807 82.2228 42.4184C83.4156 43.6561 83.8696 44.7641 83.8696 44.7641L84.1248 44.489Z" fill="#521C00"/>
<path d="M83.6757 44.9743C83.6757 44.9743 83.2217 43.8663 82.029 42.6285C80.8363 41.3908 79.7073 40.8537 79.7073 40.8537C79.6215 40.9445 79.3589 41.2299 79.3589 41.2299C79.3589 41.2299 80.4878 41.7671 81.6805 43.0048C82.8732 44.2425 83.3272 45.3505 83.3272 45.3505L83.6757 44.9743Z" fill="#521C00"/>
<path opacity="0.27" d="M74.6567 54.1781C74.8137 54.2326 74.9855 54.1885 75.1009 54.0639L75.896 53.2077C75.9549 53.2362 75.9893 53.2518 75.9893 53.2518L84.596 43.9831C84.596 43.9831 84.5862 43.9468 84.5616 43.8767L85.1948 43.1969C85.3691 43.01 85.4329 42.735 85.3543 42.4833C85.2807 42.242 85.1507 41.9098 84.9273 41.531L73.6456 53.6773C74.0628 53.942 74.426 54.0951 74.6567 54.1781Z" fill="#1D1D1B"/>
<path opacity="0.18" d="M72.0651 49.2246L71.2749 50.0757C71.1571 50.2029 71.1178 50.3923 71.1792 50.561C71.2356 50.714 71.3191 50.9216 71.4369 51.1629L82.5125 39.2346C82.3309 39.1464 82.1689 39.0815 82.0339 39.0374C81.7934 38.957 81.5333 39.0296 81.3566 39.219L80.7283 39.8963C80.6621 39.8703 80.6277 39.86 80.6277 39.86L72.021 49.1286C72.021 49.1312 72.0357 49.1649 72.0651 49.2246Z" fill="white"/>
<path opacity="0.48" d="M70.6054 54.5985L71.1257 52.1697C71.1257 52.1697 71.1698 53.916 70.6054 54.5985Z" fill="white"/>
<path d="M55.9928 56.254C60.6648 56.254 64.4523 52.2495 64.4523 47.3097C64.4523 42.3699 60.6648 38.3654 55.9928 38.3654C51.3207 38.3654 47.5333 42.3699 47.5333 47.3097C47.5333 52.2495 51.3207 56.254 55.9928 56.254Z" fill="#C3E1CC"/>
<path d="M56 57C60.9706 57 65 52.7467 65 47.5C65 42.2533 60.9706 38 56 38C51.0294 38 47 42.2533 47 47.5C47 52.7467 51.0294 57 56 57Z" stroke="#C3E1CC" stroke-width="0.9833" stroke-miterlimit="10"/>
<path d="M58.8191 47.3049C58.918 44.5567 57.7914 42.2804 56.3029 42.2205C54.8143 42.1607 53.5275 44.34 53.4287 47.0881C53.3298 49.8363 54.4564 52.1126 55.9449 52.1725C57.4335 52.2323 58.7203 50.053 58.8191 47.3049Z" stroke="#009A9F" stroke-width="2.0754" stroke-miterlimit="10"/>
<path d="M57.4323 49.292C59.8977 47.57 61.3107 45.2367 60.5883 44.0804C59.8659 42.9241 57.2816 43.3827 54.8161 45.1047C52.3507 46.8267 50.9377 49.16 51.6601 50.3163C52.3825 51.4726 54.9668 51.014 57.4323 49.292Z" stroke="#009A9F" stroke-width="2.0754" stroke-miterlimit="10"/>
<path d="M58.0863 45.6566C60.3048 47.691 61.2227 50.0315 60.1379 50.8852C59.0532 51.7363 56.3757 50.7762 54.1572 48.7419C51.9386 46.7075 51.0207 44.367 52.1055 43.5133C53.1902 42.6596 55.8677 43.6197 58.0863 45.6566Z" stroke="#009A9F" stroke-width="2.0754" stroke-miterlimit="10"/>
<path d="M57.1021 47.2369C57.0825 47.787 56.6285 48.2152 56.0886 48.1918C55.5487 48.1711 55.1266 47.7066 55.1462 47.1565C55.1658 46.6064 55.6198 46.1782 56.1598 46.2016C56.6997 46.2249 57.1218 46.6868 57.1021 47.2369Z" fill="#E4051F"/>
<path d="M97.6552 66.8852C101.941 64.9176 103.907 59.6493 102.046 55.118C100.185 50.5867 95.202 48.5084 90.9164 50.4759C86.6307 52.4435 84.665 57.7118 86.5259 62.2431C88.3868 66.7744 93.3695 68.8527 97.6552 66.8852Z" fill="#C3E1CC"/>
<path d="M97.8001 67.9004C102.616 65.8476 104.946 60.0556 103.005 54.9635C101.064 49.8715 95.5855 47.4076 90.7694 49.4603C85.9533 51.5131 83.623 57.3051 85.5645 62.3972C87.506 67.4893 92.9841 69.9531 97.8001 67.9004Z" stroke="#C3E1CC" stroke-miterlimit="10"/>
<path d="M90.5081 65.2891L95.5121 66.4593C95.5121 66.4593 95.225 64.6014 93.3009 64.1266C91.7572 63.7451 90.5081 65.2891 90.5081 65.2891Z" fill="#C88300"/>
<path d="M93.3009 64.1266C93.1659 64.0928 93.0334 64.0799 92.9033 64.0721C94.1451 64.7052 94.0886 65.5278 93.7671 66.0493L95.512 66.4567C95.512 66.4593 95.2249 64.6014 93.3009 64.1266Z" fill="#9E5E0D"/>
<path d="M89.3507 61.5577C90.8993 63.7711 93.6774 64.7779 96.2714 63.8411C99.4815 62.6838 101.199 58.994 100.105 55.6C99.3072 53.1272 97.2384 51.4924 94.9339 51.2355" stroke="#C88300" stroke-width="2.075" stroke-miterlimit="10" stroke-linecap="round"/>
<path d="M98.8792 55.9996C99.7578 58.7293 98.3786 61.6952 95.7992 62.6241C93.2175 63.5531 90.4124 62.0948 89.5338 59.3676C88.6552 56.6379 90.0344 53.672 92.6137 52.7431C95.1955 51.8116 98.0006 53.2698 98.8792 55.9996Z" fill="#75CCF4"/>
<path opacity="0.63" d="M97.4072 59.3288C97.4563 59.2328 97.5005 59.142 97.5422 59.0537C97.8662 58.3557 98.092 57.6188 98.2196 56.8897L99.135 57.4449C99.1252 57.2062 99.0957 56.9675 99.054 56.7288L98.303 56.2721C98.3546 55.7453 98.3472 55.2316 98.2858 54.7541C98.0502 54.3883 97.7778 54.0587 97.4686 53.7707C97.7263 54.3779 97.8294 55.1382 97.7803 55.9555L96.1311 54.9513L96.9729 53.3685C96.8207 53.2595 96.6661 53.1609 96.5041 53.0701L95.6574 54.6633L93.7358 53.493C94.396 53.1427 95.2108 52.9118 96.2022 52.9144C95.7507 52.7042 95.2721 52.5641 94.7764 52.5018C94.2119 52.6394 93.6794 52.8599 93.191 53.1609L92.5455 52.7691C92.3296 52.8521 92.1234 52.9507 91.9246 53.0597L92.6781 53.5164C92.04 54.0146 91.4952 54.6659 91.0681 55.4495L90.0693 54.8398C89.9687 55.0006 89.8779 55.1693 89.7944 55.3406L90.8154 55.9633C90.4644 56.7599 90.2558 57.6188 90.1896 58.4777L89.2766 57.9224C89.2864 58.1611 89.3159 58.3998 89.3576 58.6412L90.165 59.1316C90.1699 59.7984 90.2656 60.4497 90.4448 61.0595C90.7368 61.4228 91.0731 61.7368 91.4412 62.0014C91.0142 61.2723 90.7712 60.3927 90.7197 59.4689L92.5235 60.5665L91.6768 62.1623C91.8338 62.2609 91.9958 62.3491 92.1627 62.4296L92.9996 60.8571L94.5064 61.7757C93.9469 62.1312 93.2867 62.4192 92.5136 62.5853C92.867 62.7228 93.2352 62.811 93.6107 62.8603C94.1481 62.6553 94.6242 62.3958 95.0439 62.1L95.8611 62.5982C96.0771 62.5178 96.2832 62.4166 96.482 62.3076L95.5298 61.729C96.244 61.127 96.7643 60.4394 97.1324 59.8296L98.3226 60.5587C98.4233 60.3978 98.5165 60.2318 98.6 60.0605L97.4072 59.3288ZM93.1934 53.8304L95.3899 55.1667L94.2168 57.3749L91.5418 55.7376C91.851 55.1641 92.3762 54.4142 93.1934 53.8304ZM92.7885 60.0605L90.7123 58.7968C90.7466 57.9354 90.9381 57.0609 91.289 56.2539L93.9469 57.8809L92.7885 60.0605ZM95.012 61.4124L93.2646 60.3485L94.423 58.1689L96.6563 59.5364C96.2857 60.1461 95.7531 60.8312 95.012 61.4124ZM97.0514 58.7968C97.0146 58.8747 96.9753 58.9551 96.9336 59.0382L94.6905 57.6655L95.8636 55.4573L97.714 56.5835C97.606 57.3204 97.3852 58.0807 97.0514 58.7968Z" fill="#006F9E"/>
<path opacity="0.63" d="M98.88 55.9996C98.777 55.6804 98.6469 55.382 98.4947 55.0992C98.9046 57.5876 97.5597 60.089 95.2283 60.9297C92.9483 61.7523 90.4966 60.7066 89.3481 58.571C89.3923 58.8357 89.4487 59.1004 89.5346 59.3651C90.4132 62.0948 93.2183 63.5531 95.8001 62.6215C98.3819 61.6926 99.7611 58.7267 98.88 55.9996Z" fill="#006F9E"/>
<path d="M111.984 77.9913C113.042 73.1799 110.21 68.3729 105.66 67.2546C101.109 66.1362 96.5627 69.13 95.505 73.9413C94.4472 78.7527 97.2787 83.5597 101.829 84.6781C106.38 85.7964 110.926 82.8027 111.984 77.9913Z" fill="#C3E1CC"/>
<path d="M112.538 78.121C113.666 72.988 110.644 67.8607 105.789 66.6687C100.935 65.4768 96.0852 68.6716 94.9579 73.8046C93.8305 78.9375 96.8522 84.0648 101.707 85.2568C106.562 86.4487 111.411 83.2539 112.538 78.121Z" stroke="#C3E1CC" stroke-width="1.067" stroke-miterlimit="10"/>
<path d="M109.606 83.3827L102.494 80.134L104.941 71.9474L112.549 73.5406L109.606 83.3827Z" fill="#006DA1"/>
<path d="M94.798 78.4733L102.492 80.134L104.939 71.9448L97.7381 68.6312L94.798 78.4733Z" fill="#006DA1"/>
<path d="M98.6657 69.4589L97.9786 69.1294L95.3281 78.1905L96.0226 78.3202" fill="#C79F6E"/>
<path d="M96.6755 78.5356L95.9785 78.4059L98.629 69.3474L99.3161 69.6744L96.6755 78.5356Z" fill="#ECD6A7"/>
<path d="M111.386 73.73L112.127 73.8754L109.425 82.9157L108.784 82.6043" fill="#C79F6E"/>
<path d="M108.134 82.389L108.774 82.7003L111.476 73.66L110.735 73.5147L108.134 82.389Z" fill="#ECD6A7"/>
<path d="M108.114 82.4823L102.592 79.8019L104.843 72.2795L110.816 73.4394L108.114 82.4823Z" fill="#FFFDE8"/>
<path d="M105.704 72.4482L104.84 72.2795L102.592 79.8019L108.112 82.4823L108.428 81.4211C104.384 81.1279 103.915 77.0825 105.704 72.4482Z" fill="#EDE7BF"/>
<path d="M105.925 73.8L109.022 74.4306" stroke="#A45E00" stroke-width="1.1577" stroke-miterlimit="10" stroke-linecap="round" stroke-linejoin="round"/>
<path d="M105.596 74.9003L108.649 75.6787" stroke="#A45E00" stroke-width="1.1577" stroke-miterlimit="10" stroke-linecap="round" stroke-linejoin="round"/>
<path d="M105.267 76.0031L108.276 76.9268" stroke="#A45E00" stroke-width="1.1577" stroke-miterlimit="10" stroke-linecap="round" stroke-linejoin="round"/>
<path d="M104.939 77.1058L107.955 78.0062" stroke="#A45E00" stroke-width="1.1577" stroke-miterlimit="10" stroke-linecap="round" stroke-linejoin="round"/>
<path d="M104.61 78.2061L107.589 79.2284" stroke="#A45E00" stroke-width="1.1577" stroke-miterlimit="10" stroke-linecap="round" stroke-linejoin="round"/>
<path d="M104.278 79.3089L107.201 80.5285" stroke="#A45E00" stroke-width="1.1577" stroke-miterlimit="10" stroke-linecap="round" stroke-linejoin="round"/>
<path d="M96.6165 78.6394L102.59 79.8019L104.838 72.2796L99.3185 69.5991L96.6165 78.6394Z" fill="#FFFDE8"/>
<path d="M103.125 72.8633L100.249 71.4985" stroke="#A45E00" stroke-width="1.1577" stroke-miterlimit="10" stroke-linecap="round" stroke-linejoin="round"/>
<path d="M102.796 73.9661L99.8756 72.7466" stroke="#A45E00" stroke-width="1.1577" stroke-miterlimit="10" stroke-linecap="round" stroke-linejoin="round"/>
<path d="M102.467 75.0663L99.5001 73.9946" stroke="#A45E00" stroke-width="1.1577" stroke-miterlimit="10" stroke-linecap="round" stroke-linejoin="round"/>
<path d="M102.138 76.1692L99.1786 75.0742" stroke="#A45E00" stroke-width="1.1577" stroke-miterlimit="10" stroke-linecap="round" stroke-linejoin="round"/>
<path d="M101.807 77.2719L98.813 76.2963" stroke="#A45E00" stroke-width="1.1577" stroke-miterlimit="10" stroke-linecap="round" stroke-linejoin="round"/>
<path d="M101.478 78.3721L98.4252 77.5963" stroke="#A45E00" stroke-width="1.1577" stroke-miterlimit="10" stroke-linecap="round" stroke-linejoin="round"/>
<path d="M102.59 79.8018L104.838 72.2795L104.026 71.8851C103.591 75.8707 101.13 81.0058 97.1785 76.7529L96.6141 78.6394L102.59 79.8018Z" fill="#EDE7BF"/>
<path d="M104.838 72.2795C104.838 72.2795 104.816 72.4015 104.767 72.6117C104.718 72.8219 104.654 73.1229 104.563 73.4809C104.386 74.1971 104.129 75.1442 103.849 76.0861C103.567 77.0255 103.265 77.9596 103.019 78.6524C102.899 79.0001 102.786 79.2855 102.713 79.4879C102.637 79.6877 102.59 79.8019 102.59 79.8019C102.59 79.8019 102.612 79.68 102.661 79.4698C102.71 79.2596 102.774 78.9586 102.865 78.6005C103.042 77.8843 103.299 76.9372 103.579 75.9953C103.861 75.056 104.166 74.1219 104.411 73.429C104.531 73.0813 104.644 72.7959 104.718 72.5935C104.791 72.3911 104.838 72.2795 104.838 72.2795Z" fill="#C79F6E"/>
<path d="M103.974 71.8591L103.557 73.3122L103.881 73.1046L104.089 73.4549L104.458 72.0849L103.974 71.8591Z" fill="#E30613"/>
<path d="M41.1886 67.3764C45.7317 66.2244 48.5313 61.3966 47.4418 56.5931C46.3523 51.7897 41.7862 48.8295 37.2431 49.9815C32.7 51.1335 29.9003 55.9613 30.9898 60.7648C32.0793 65.5682 36.6455 68.5284 41.1886 67.3764Z" fill="#C3E1CC"/>
<path d="M41.352 68.0789C46.2615 66.8324 49.2858 61.6139 48.1069 56.4231C46.928 51.2322 41.9923 48.0346 37.0829 49.2811C32.1734 50.5276 29.1491 55.7461 30.328 60.9369C31.5069 66.1278 36.4425 69.3254 41.352 68.0789Z" stroke="#C3E1CC" stroke-width="1.0116" stroke-miterlimit="10"/>
<path d="M41.9674 64.2045L32.2833 52.7406L32.9925 51.4717L34.0061 50.5142L35.1252 50.0576L44.8093 61.5214L41.9674 64.2045Z" fill="#FFD600"/>
<path d="M33.9106 50.605L32.9928 51.4717L32.286 52.7406L41.9676 64.2044L43.2978 62.9486C39.0251 59.9879 34.4996 54.1262 33.9106 50.605Z" fill="#F7AB19"/>
<path d="M44.0657 62.222L34.1312 50.4623L34.0061 50.5142L33.9006 50.6154L43.8644 62.414L44.0657 62.222Z" fill="#C67F16"/>
<path d="M32.9925 51.4717L32.9017 51.6351L42.8288 63.3896L43.03 63.2002L33.0661 51.4016L32.9925 51.4717Z" fill="#C67F16"/>
<path d="M41.9674 64.2044L45.602 65.7353C45.7272 65.7872 45.8573 65.6679 45.8229 65.5278L44.8093 61.5214L43.7712 62.0429L42.7086 63.0445L41.9674 64.2044Z" fill="#FFEBC5"/>
<path d="M45.8032 65.4578C44.6179 64.7805 43.5945 63.6907 43.0006 62.7695L42.7061 63.0472L41.9649 64.2045L45.5995 65.7354C45.7247 65.7873 45.8547 65.6679 45.8204 65.5278L45.8032 65.4578Z" fill="#E4C399"/>
<path d="M45.8228 65.5278L45.4719 64.1422C44.9983 64.1966 44.5565 64.5599 44.2473 65.1645L45.602 65.7354C45.7271 65.7899 45.8572 65.6679 45.8228 65.5278Z" fill="#36311C"/>
<path d="M31.0852 84.7969C35.6988 84.0179 38.8417 79.4319 38.1049 74.5538C37.3681 69.6758 33.0307 66.3528 28.4171 67.1318C23.8034 67.9108 20.6606 72.4968 21.3974 77.3749C22.1342 82.2529 26.4716 85.5759 31.0852 84.7969Z" fill="#C3E1CC"/>
<path d="M29.7506 85.7829C34.8794 85.7829 39.0371 81.3869 39.0371 75.9641C39.0371 70.5414 34.8794 66.1454 29.7506 66.1454C24.6218 66.1454 20.464 70.5414 20.464 75.9641C20.464 81.3869 24.6218 85.7829 29.7506 85.7829Z" stroke="#C3E1CC" stroke-miterlimit="10"/>
<path d="M30.6856 73.5355L29.8855 69.5654L27.6596 70.0662L28.4597 74.0363L27.2939 82.5654C27.2179 83.1207 27.6866 83.5852 28.2069 83.4684L34.5533 82.0387C35.0712 81.9219 35.3215 81.2966 35.0393 80.8217L30.6856 73.5355Z" fill="#75CCF4"/>
<path d="M29.991 68.1253L27.0092 68.7973C26.8423 68.8336 26.7368 69.0075 26.7736 69.1814L26.9184 69.9027C26.9528 70.0792 27.1172 70.1907 27.2816 70.1518L30.2634 69.4798C30.4303 69.4434 30.5359 69.2696 30.499 69.0957L30.3542 68.3744C30.3199 68.2005 30.1579 68.0889 29.991 68.1253Z" fill="#75CCF4"/>
<path d="M30.7715 74.5578L28.7787 75.0067L27.8559 82.5654C27.8289 82.7782 28.0106 82.952 28.2069 82.9079L34.3374 81.5275C34.5362 81.4833 34.6319 81.2446 34.5263 81.063L30.7715 74.5578Z" fill="#BCCF00"/>
<path d="M30.3371 78.0297C30.369 78.188 30.2733 78.3437 30.1236 78.3774C29.9739 78.4111 29.8266 78.31 29.7947 78.1517C29.7628 77.9934 29.8585 77.8377 30.0082 77.804C30.1579 77.7702 30.3052 77.8714 30.3371 78.0297Z" stroke="#EEE300" stroke-width="1.0272" stroke-miterlimit="10" stroke-linecap="round" stroke-linejoin="round"/>
<path d="M30.5972 80.0199C30.6536 80.3028 30.4843 80.5778 30.2168 80.6401C29.9493 80.6998 29.6892 80.5207 29.6303 80.2379C29.5738 79.9551 29.7431 79.68 30.0107 79.6177C30.2782 79.5581 30.5408 79.7371 30.5972 80.0199Z" stroke="#EEE300" stroke-width="2.0545" stroke-miterlimit="10" stroke-linecap="round" stroke-linejoin="round"/>
<path d="M31.9543 78.8392C31.9936 79.0312 31.8782 79.2207 31.6966 79.2596C31.515 79.3011 31.3359 79.1791 31.299 78.9871C31.2598 78.7951 31.3751 78.6057 31.5567 78.5668C31.7359 78.5252 31.915 78.6472 31.9543 78.8392Z" stroke="#EEE300" stroke-width="1.0272" stroke-miterlimit="10" stroke-linecap="round" stroke-linejoin="round"/>
<path opacity="0.45" d="M29.1395 75.3985C29.2573 74.5319 29.3088 74.0804 29.1935 73.5147C29.0806 72.949 28.6437 70.3231 28.6437 70.3231L29.9763 70.0221L29.8855 69.568L27.6596 70.0688L28.4597 74.0388L27.2939 82.568C27.2179 83.1233 27.6866 83.5877 28.2069 83.471L31.4439 82.7418C27.5271 82.8975 28.7223 78.4319 29.1395 75.3985Z" fill="#40BBCF"/>
<path d="M31.3923 75.6476C31.3923 75.6476 32.9532 78.7925 34.3422 80.6426C33.9397 79.6929 31.866 76.3715 31.3923 75.6476Z" fill="white"/>
</g>
<defs>
<radialGradient id="paint0_radial" cx="0" cy="0" r="1" gradientUnits="userSpaceOnUse" gradientTransform="translate(47.9617 91.3621) scale(13.8722 14.6673)">
<stop stop-color="#FFFDF0"/>
<stop offset="1" stop-color="#F3EDC9"/>
</radialGradient>
<radialGradient id="paint1_radial" cx="0" cy="0" r="1" gradientUnits="userSpaceOnUse" gradientTransform="translate(84.4717 92.1675) scale(13.3273 14.0911)">
<stop stop-color="#FFFDF0"/>
<stop offset="1" stop-color="#F3EDC9"/>
</radialGradient>
<radialGradient id="paint2_radial" cx="0" cy="0" r="1" gradientUnits="userSpaceOnUse" gradientTransform="translate(44.9202 94.4752) scale(25.6775 27.1492)">
<stop stop-color="#FFFDF0"/>
<stop offset="1" stop-color="#F3EDC9"/>
</radialGradient>
<radialGradient id="paint3_radial" cx="0" cy="0" r="1" gradientUnits="userSpaceOnUse" gradientTransform="translate(88.085 94.4752) rotate(180) scale(25.6776 27.1492)">
<stop stop-color="#FFFDF0"/>
<stop offset="1" stop-color="#F3EDC9"/>
</radialGradient>
<radialGradient id="paint4_radial" cx="0" cy="0" r="1" gradientUnits="userSpaceOnUse" gradientTransform="translate(59.4622 82.9274) scale(10.7201 11.3345)">
<stop stop-color="#FFFDF0"/>
<stop offset="1" stop-color="#F3EDC9"/>
</radialGradient>
<radialGradient id="paint5_radial" cx="0" cy="0" r="1" gradientUnits="userSpaceOnUse" gradientTransform="translate(74.8908 84.7055) scale(10.1798 10.7632)">
<stop stop-color="#FFFDF0"/>
<stop offset="1" stop-color="#F3EDC9"/>
</radialGradient>
<linearGradient id="paint6_linear" x1="73.2805" y1="52.4073" x2="70.6086" y2="52.8188" gradientUnits="userSpaceOnUse">
<stop stop-color="#1D1D1B"/>
<stop offset="1" stop-color="#1D1D1B" stop-opacity="0"/>
</linearGradient>
<clipPath id="clip0">
<rect width="92.561" height="63.5729" fill="white" transform="translate(20.3413 37.4053)"/>
</clipPath>
</defs>
</svg>
