<svg width="56" height="43" viewBox="0 0 56 43" fill="none" xmlns="http://www.w3.org/2000/svg">
<path fill-rule="evenodd" clip-rule="evenodd" d="M52.5 42.875C52.5 42.875 56 42.875 56 39.3125C56 35.75 52.5 25.0625 38.5 25.0625C24.5 25.0625 21 35.75 21 39.3125C21 42.875 24.5 42.875 24.5 42.875H52.5ZM24.5175 39.512V39.5049V39.512ZM24.577 39.3125H52.423C52.4394 39.3106 52.4557 39.3082 52.472 39.3054L52.5 39.2983C52.493 38.3577 51.9155 35.6289 49.84 33.1707C47.908 30.8658 44.513 28.625 38.5 28.625C32.4905 28.625 29.0955 30.8694 27.16 33.1707C25.0845 35.6289 24.5035 38.3613 24.5 39.2983C24.5256 39.3033 24.5513 39.308 24.577 39.3125ZM52.4825 39.512V39.5049V39.512ZM38.5 17.9375C40.3565 17.9375 42.137 17.1868 43.4497 15.8506C44.7625 14.5144 45.5 12.7022 45.5 10.8125C45.5 8.92283 44.7625 7.11056 43.4497 5.77436C42.137 4.43817 40.3565 3.6875 38.5 3.6875C36.6435 3.6875 34.863 4.43817 33.5503 5.77436C32.2375 7.11056 31.5 8.92283 31.5 10.8125C31.5 12.7022 32.2375 14.5144 33.5503 15.8506C34.863 17.1868 36.6435 17.9375 38.5 17.9375ZM49 10.8125C49 12.216 48.7284 13.6058 48.2007 14.9024C47.6731 16.1991 46.8996 17.3773 45.9246 18.3697C44.9496 19.3621 43.7921 20.1494 42.5182 20.6865C41.2443 21.2236 39.8789 21.5 38.5 21.5C37.1211 21.5 35.7557 21.2236 34.4818 20.6865C33.2079 20.1494 32.0504 19.3621 31.0754 18.3697C30.1004 17.3773 29.3269 16.1991 28.7993 14.9024C28.2716 13.6058 28 12.216 28 10.8125C28 7.978 29.1062 5.25959 31.0754 3.2553C33.0445 1.251 35.7152 0.125 38.5 0.125C41.2848 0.125 43.9555 1.251 45.9246 3.2553C47.8938 5.25959 49 7.978 49 10.8125ZM24.276 26.06C22.8759 25.6113 21.4327 25.3163 19.971 25.1801C19.1497 25.1006 18.325 25.0613 17.5 25.0625C3.5 25.0625 0 35.75 0 39.3125C0 41.6887 1.1655 42.875 3.5 42.875H18.256C17.7371 41.7628 17.4784 40.5435 17.5 39.3125C17.5 35.7144 18.8195 32.0379 21.315 28.967C22.1655 27.9196 23.156 26.9399 24.276 26.06ZM17.22 28.625C11.382 28.6963 8.0675 30.905 6.16 33.1707C4.0705 35.6431 3.5 38.3827 3.5 39.3125H14C14 35.5897 15.1305 31.8811 17.22 28.625ZM5.25 12.5938C5.25 9.75925 6.35625 7.04084 8.32538 5.03655C10.2945 3.03225 12.9652 1.90625 15.75 1.90625C18.5348 1.90625 21.2055 3.03225 23.1746 5.03655C25.1438 7.04084 26.25 9.75925 26.25 12.5938C26.25 15.4283 25.1438 18.1467 23.1746 20.151C21.2055 22.1552 18.5348 23.2812 15.75 23.2812C12.9652 23.2812 10.2945 22.1552 8.32538 20.151C6.35625 18.1467 5.25 15.4283 5.25 12.5938ZM15.75 5.46875C13.8935 5.46875 12.113 6.21942 10.8003 7.55561C9.4875 8.89181 8.75 10.7041 8.75 12.5938C8.75 14.4834 9.4875 16.2957 10.8003 17.6319C12.113 18.9681 13.8935 19.7188 15.75 19.7188C17.6065 19.7188 19.387 18.9681 20.6997 17.6319C22.0125 16.2957 22.75 14.4834 22.75 12.5938C22.75 10.7041 22.0125 8.89181 20.6997 7.55561C19.387 6.21942 17.6065 5.46875 15.75 5.46875Z" fill="#FF5773"/>
</svg>
