<svg width="135" height="139" viewBox="0 0 135 139" fill="none" xmlns="http://www.w3.org/2000/svg">
<path d="M67.816 138.286C104.828 138.286 134.832 107.33 134.832 69.1432C134.832 30.9565 104.828 0 67.816 0C30.8043 0 0.800293 30.9565 0.800293 69.1432C0.800293 107.33 30.8043 138.286 67.816 138.286Z" fill="#69D2E7"/>
<g opacity="0.1">
<path opacity="0.1" d="M134.423 73.982L95.2166 33.5311C77.667 32.6882 69.4841 43.1065 67.907 45.3905V45.3895L67.8975 45.4044C67.7107 45.6753 67.6137 45.8352 67.6137 45.8352V45.8453L67.5889 45.8839C67.5889 45.8839 48.7419 37.5663 30.7211 45.8839H29.4354C28.8203 45.8839 28.3218 46.3938 28.3218 47.0227V103.665C28.3218 103.958 28.4374 104.219 28.6151 104.42L28.6083 104.424L28.6359 104.452C28.6457 104.463 28.6549 104.472 28.6651 104.482L61.1119 137.959C63.244 138.17 65.4031 138.287 67.5889 138.287C103.022 138.287 132.013 109.909 134.423 73.982Z" fill="black"/>
</g>
<path d="M111.016 69.192C111.016 94.1663 91.3968 114.385 67.2285 114.385C43.0602 114.385 23.4414 94.1663 23.4414 69.192C23.4414 44.2178 43.0602 23.999 67.2285 23.999C91.3968 23.999 111.016 44.2178 111.016 69.192Z" fill="#F0F0F0" stroke="black"/>
<path d="M50.0424 86.8778C50.4119 87.2594 50.7752 87.7606 51.1306 88.3817L50.1734 89.3759L49.8226 89.0139C49.9816 88.7521 50.0798 88.5182 50.1188 88.3121C50.1593 88.1088 50.1422 87.911 50.072 87.7189C50.005 87.5295 49.8678 87.3318 49.6698 87.1285C49.3954 86.8444 49.1147 86.7024 48.8232 86.6968C48.5363 86.694 48.2557 86.8333 47.9844 87.1173C47.8098 87.2984 47.6929 87.4822 47.6367 87.6687C47.5775 87.8526 47.565 88.0754 47.5993 88.326C47.6321 88.5794 47.7209 88.922 47.8644 89.3592C48.0031 89.7825 48.0889 90.1418 48.1169 90.4398C48.1497 90.7378 48.1278 91.0079 48.0546 91.2474C47.9829 91.4841 47.855 91.6986 47.6773 91.8824C47.4153 92.1525 47.1285 92.3252 46.812 92.3976C46.4971 92.47 46.1681 92.4366 45.8251 92.3001C45.4821 92.1609 45.1562 91.9353 44.8507 91.6206C44.6714 91.4368 44.5077 91.2474 44.3564 91.0525C44.2068 90.8575 44.0353 90.5957 43.8435 90.2643L44.7867 89.284L45.136 89.6433C44.9816 89.9106 44.8928 90.1473 44.8616 90.3506C44.8288 90.5539 44.8444 90.735 44.9099 90.8965C44.9738 91.058 45.0954 91.2307 45.2701 91.4117C45.4228 91.5705 45.5866 91.6819 45.7643 91.7487C45.9389 91.8128 46.1198 91.8239 46.3037 91.7793C46.4877 91.7348 46.6561 91.6317 46.812 91.4702C46.9788 91.2975 47.0879 91.1221 47.1409 90.9438C47.1955 90.7628 47.208 90.5567 47.1799 90.3228C47.1519 90.0889 47.0739 89.7825 46.9445 89.401C46.7948 88.9387 46.6997 88.5544 46.6623 88.2508C46.6265 87.9472 46.6436 87.6632 46.7153 87.3958C46.787 87.1313 46.932 86.8862 47.1503 86.6578C47.3951 86.4044 47.6414 86.2289 47.8877 86.1315C48.1325 86.034 48.3789 86.0034 48.6205 86.034C48.8637 86.0674 49.1069 86.1565 49.3455 86.3013C49.584 86.4545 49.8179 86.6467 50.0424 86.8778Z" fill="#2B314A"/>
<path d="M91.8179 90.028L88.5532 93.4173L87.4915 92.3228L87.8329 91.9692C87.9826 92.0499 88.1198 92.1168 88.2445 92.1669C88.3677 92.217 88.4799 92.2504 88.5782 92.2727C88.6748 92.2922 88.7668 92.295 88.8494 92.2811C88.9305 92.2699 89.0131 92.2337 89.0911 92.1808C89.1675 92.1251 89.2532 92.0527 89.3437 91.958L90.449 90.8106L88.6062 88.9113L87.8579 89.6883C87.7565 89.7941 87.691 89.8916 87.6599 89.9835C87.6318 90.0726 87.6349 90.1757 87.6645 90.2871C87.6988 90.3985 87.7721 90.5516 87.8859 90.741L87.557 91.0808L86.2068 89.6883L86.5358 89.3485C86.7073 89.4599 86.8507 89.5323 86.963 89.5657C87.0752 89.5964 87.1719 89.5992 87.2592 89.5741C87.3434 89.549 87.44 89.4794 87.5492 89.3652L88.2975 88.5882L86.2692 86.4967L85.1825 87.6246C85.0671 87.7444 84.9845 87.8502 84.9346 87.9449C84.8847 88.0396 84.8566 88.1371 84.8535 88.2401C84.8488 88.3432 84.8675 88.4546 84.9034 88.5743C84.9424 88.6968 84.9892 88.8138 85.0484 88.9252C85.103 89.0394 85.1887 89.2009 85.301 89.4154L84.9564 89.7746L83.7871 88.4323L87.0206 85.0764L87.1937 85.2547C87.0861 85.444 87.0315 85.5861 87.0269 85.6808C87.0238 85.781 87.0581 85.8813 87.1267 85.9843C87.1953 86.0874 87.3169 86.2266 87.4915 86.4048L90.5332 89.5435C90.6938 89.7078 90.817 89.8247 90.9027 89.8888C90.9885 89.9529 91.0649 89.9918 91.1319 90.0058C91.2005 90.0197 91.2691 90.0169 91.3377 89.9974C91.4063 89.9751 91.5092 89.9278 91.6464 89.847L91.8179 90.028Z" fill="#2B314A"/>
<path d="M48.3492 41.8681C48.3024 41.9655 48.2728 42.0519 48.2603 42.1271C48.2478 42.1995 48.2478 42.283 48.2587 42.3749C48.2728 42.464 48.3055 42.5894 48.3679 42.7453C48.4271 42.9041 48.516 43.1046 48.6345 43.3496L51.1571 48.5826L50.6582 49.1006L45.7658 46.051L48.5768 51.2645L48.0109 51.8521L43.1762 48.9697C42.9735 48.8471 42.8051 48.7552 42.6695 48.6884C42.5338 48.6215 42.42 48.5742 42.3265 48.5491C42.2345 48.5269 42.1534 48.5213 42.0848 48.5324C42.0146 48.5436 41.9305 48.5798 41.8307 48.6383L41.6592 48.46L43.1559 46.906L43.3274 47.0843C43.2105 47.2625 43.1528 47.4129 43.1528 47.5298C43.1528 47.6468 43.2011 47.7582 43.3024 47.8613C43.3851 47.9448 43.4911 48.0367 43.6267 48.1314C43.7593 48.2261 43.9152 48.3263 44.096 48.435L47.5743 50.571L44.7134 45.2908L45.2996 44.6836L50.2029 47.8529L48.3461 44.2297C48.12 43.7897 47.9376 43.4972 47.8004 43.3552C47.6569 43.2076 47.5244 43.1324 47.4013 43.1269C47.2781 43.1241 47.1378 43.1798 46.9741 43.2995L46.8026 43.1213L48.1808 41.6898L48.3492 41.8681Z" fill="#2B314A"/>
<path d="M66.0428 67.1108L65.1058 68.2749L54.582 55.2915L66.0428 67.1108Z" fill="#2B314A"/>
<path d="M63.957 67.1328L64.869 68.2607H51.8196L63.957 67.1328Z" fill="#2B314A"/>
<path d="M67.6472 52.1389L68.7729 64.7018L67.6878 65.6431L67.6472 52.1389Z" fill="#2B314A"/>
<path d="M80.1884 55.0408L68.8025 66.8601L67.6753 65.8881L80.1884 55.0408Z" fill="#2B314A"/>
<path d="M83.277 68.5703L71.1396 69.6926L70.2275 68.5675L83.277 68.5703Z" fill="#2B314A"/>
<path d="M68.9602 67.2832L80.5145 81.5338L67.833 68.4529L68.9602 67.2832Z" fill="#2B314A"/>
<path d="M67.4215 70.9397L54.9099 81.7871L66.2958 69.9678L67.4215 70.9397Z" fill="#2B314A"/>
<path d="M67.4088 71.1852L67.4509 84.6866L66.3237 72.1265L67.4088 71.1852Z" fill="#2B314A"/>
<path d="M86.6282 68.4137H70.1035L71.2479 66.9906L86.6282 68.4137Z" fill="#C4C4C4"/>
<path d="M68.9362 66.9737L67.5486 68.4135L66.1532 66.9737L65.977 66.7927L51.9688 52.3444L66.161 64.5814L67.5408 65.7706L67.6764 65.8875L68.8037 66.8595L68.9362 66.9737Z" fill="#C4C4C4"/>
<path d="M86.6282 68.4132L71.2572 69.8363L71.1403 69.6915L83.2777 68.5692L70.2282 68.5664L70.1035 68.4132H86.6282Z" fill="#C4C4C4"/>
<path d="M71.2574 69.8366L83.1297 84.4826L67.5483 68.4135L68.9359 66.9736L70.1037 68.4135L70.2284 68.5666L71.1405 69.6917L71.2574 69.8366ZM68.9609 67.2828L67.8337 68.4524L80.5152 81.5305L68.9609 67.2828Z" fill="#C4C4C4"/>
<path d="M67.5483 68.4132L66.1623 69.853L66.2964 69.9672L54.9105 81.7865L67.422 70.9391L67.5577 71.0561L67.4096 71.1842L66.3245 72.1255L66.1841 72.2453L52.0698 84.4823L67.5483 68.4132Z" fill="#C4C4C4"/>
<path d="M68.9374 72.2457L67.6106 88.1533L67.5576 71.0565L68.9374 72.2457Z" fill="#C4C4C4"/>
<path d="M68.9125 64.5814L68.7738 64.7012L67.6481 52.1383L67.6887 65.6425L67.5406 65.7706L67.486 48.671L68.9125 64.5814Z" fill="#C4C4C4"/>
<path d="M67.486 48.671L67.5406 65.7706L66.1608 64.5814L67.486 48.671Z" fill="#C4C4C4"/>
<path d="M83.0281 52.3444L69.1118 66.7927L68.9357 66.9737L68.8031 66.8595L80.1891 55.0402L67.6759 65.8875L67.5403 65.7706L67.6884 65.6425L68.7735 64.7012L68.9123 64.5814L83.0281 52.3444Z" fill="#C4C4C4"/>
<path d="M83.0284 52.3444L71.248 66.9904L70.1037 68.4135L68.9359 66.9737L67.5483 68.4135L68.9359 66.9737L69.1121 66.7927L83.0284 52.3444Z" fill="#C4C4C4"/>
<path d="M66.1532 66.9737L66.0441 67.1101L54.5833 55.2908L65.1071 68.2742L64.9948 68.4135L64.8701 68.2603L63.958 67.1324L63.8411 66.9904L51.9688 52.3444L65.977 66.7927L66.1532 66.9737Z" fill="#C4C4C4"/>
<path d="M63.8407 66.9906L63.9576 67.1326L51.8202 68.2605H64.8696L64.9944 68.4137H48.4697L63.8407 66.9906Z" fill="#C4C4C4"/>
<path d="M64.9944 68.4132L63.8484 69.8363L48.4697 68.4132H64.9944Z" fill="#C4C4C4"/>
<path d="M83.1298 84.4823L68.9375 72.2453L67.5577 71.0561L67.4221 70.9391L66.2964 69.9672L66.1624 69.853L67.5484 68.4132L83.1298 84.4823Z" fill="#C4C4C4"/>
<path d="M67.5483 68.4135L52.0698 84.4826L63.8486 69.8366L64.9946 68.4135L65.1068 68.2742L66.0438 67.1101L66.153 66.9736L67.5483 68.4135Z" fill="#C4C4C4"/>
<path d="M67.5579 71.0565L67.6109 88.1533L66.1843 72.2457L66.3246 72.1259L67.4519 84.686L67.4098 71.1846L67.5579 71.0565Z" fill="#C4C4C4"/>
<path d="M96.1861 39.8291L96.1846 40.6813L91.5229 45.5187L91.5245 44.6693L96.1861 39.8291Z" fill="#C5C5C5"/>
<path d="M91.5246 44.6691L91.523 45.5185L90.5688 44.5354L90.5704 43.686L91.5246 44.6691Z" fill="#898989"/>
<path d="M96.1867 39.8292L91.5251 44.6694L90.5709 43.6863L95.2326 38.8461L96.1867 39.8292Z" fill="white"/>
<path d="M84.8429 31.3351L84.8413 32.1873L82.0662 38.3893L82.0677 37.5372L84.8429 31.3351Z" fill="#B7B7B7"/>
<path d="M82.0677 37.5373L82.0661 38.3895L80.8469 37.8019V36.9497L82.0677 37.5373Z" fill="#9B9B9B"/>
<path d="M84.8426 31.3353L82.0674 37.5374L80.8467 36.9498L83.6218 30.7477L84.8426 31.3353Z" fill="white"/>
<path d="M71.3892 27.3618L71.3876 28.214L70.8341 35.0288L70.8357 34.1766L71.3892 27.3618Z" fill="#9A9A9A"/>
<path d="M70.8358 34.1758L70.8342 35.028L69.495 34.9082V34.056L70.8358 34.1758Z" fill="#AEAEAE"/>
<path d="M71.3898 27.3608L70.8363 34.1756L69.4955 34.0558L70.0521 27.2383L71.3898 27.3608Z" fill="white"/>
<path d="M59.1818 34.989L59.1802 35.8412L57.8831 36.2032L57.8846 35.3511L59.1818 34.989Z" fill="#BDBDBD"/>
<path d="M57.8843 35.3519L57.8828 36.2041L56.1506 29.5927V28.7405L57.8843 35.3519Z" fill="#808080"/>
<path d="M57.4497 28.3802L59.1818 34.9889L57.8847 35.351L56.151 28.7395L57.4497 28.3802Z" fill="white"/>
<path d="M48.5131 39.879L48.5115 40.7312L47.4124 41.5277L47.4139 40.6755L48.5131 39.879Z" fill="#C5C5C5"/>
<path d="M47.414 40.6757L47.4124 41.5279L43.6021 35.9218L43.6036 35.0696L47.414 40.6757Z" fill="#828282"/>
<path d="M44.6999 34.2733L48.5119 39.8794L47.4127 40.6759L43.6023 35.0698L44.6999 34.2733Z" fill="white"/>
<path d="M40.1158 48.2537L40.1142 49.1059L39.3472 50.2449L39.3487 49.3927L40.1158 48.2537Z" fill="#C0C0C0"/>
<path d="M39.3484 49.3927L39.3469 50.2449L33.915 46.3182L33.9166 45.4688L39.3484 49.3927Z" fill="#929292"/>
<path d="M40.1155 48.2537L39.3484 49.3927L33.9166 45.4688L34.6837 44.3297L40.1155 48.2537Z" fill="white"/>
<path d="M35.0021 59.1042L35.0006 59.9564L34.656 61.2988V60.4466L35.0021 59.1042Z" fill="#AAAAAA"/>
<path d="M34.6558 60.4464V61.2986L28.2605 59.5274L28.2621 58.678L34.6558 60.4464Z" fill="#A5A5A5"/>
<path d="M35.0011 59.104L34.655 60.4463L28.2612 58.6779L28.6073 57.3328L35.0011 59.104Z" fill="white"/>
<path d="M33.9104 72.5073V73.3567L27.3218 73.9555L27.3233 73.1033L33.9104 72.5073Z" fill="#B6B6B6"/>
<path d="M27.3234 73.1034L27.3218 73.9555L27.2002 72.5714L27.2018 71.7192L27.3234 73.1034Z" fill="#808080"/>
<path d="M33.789 71.1238L33.9106 72.5079L27.3235 73.1039L27.2019 71.7198L33.789 71.1238Z" fill="white"/>
<path d="M37.1957 84.1182L37.1941 84.9676L31.2073 87.8611L31.2088 87.0117L37.1957 84.1182Z" fill="#C2C2C2"/>
<path d="M31.2087 87.0118L31.2071 87.8612L30.6365 86.6024L30.638 85.7502L31.2087 87.0118Z" fill="#808080"/>
<path d="M36.6244 82.8595L37.1966 84.1183L31.2098 87.0118L30.6391 85.7503L36.6244 82.8595Z" fill="white"/>
<path d="M44.1178 93.8796L44.1162 94.7318L39.4546 99.5721L39.4561 98.7199L44.1178 93.8796Z" fill="#C5C5C5"/>
<path d="M39.456 98.7197L39.4544 99.5718L38.5002 98.586L38.5018 97.7366L39.456 98.7197Z" fill="#898989"/>
<path d="M44.1169 93.8796L39.4553 98.7198L38.5011 97.7367L43.1628 92.8965L44.1169 93.8796Z" fill="white"/>
<path d="M53.8385 100.614L53.8369 101.466L51.0618 107.668L51.0633 106.816L53.8385 100.614Z" fill="#B7B7B7"/>
<path d="M51.0633 106.816L51.0617 107.668L49.8425 107.08V106.228L51.0633 106.816Z" fill="#9B9B9B"/>
<path d="M53.8386 100.614L51.0634 106.816L49.8427 106.228L52.6194 100.023L53.8386 100.614Z" fill="white"/>
<path d="M65.1918 103.508L65.1903 104.36L64.6337 111.178L64.6352 110.326L65.1918 103.508Z" fill="#9A9A9A"/>
<path d="M64.6351 110.325L64.6336 111.177L63.2959 111.054L63.2975 110.202L64.6351 110.325Z" fill="#AEAEAE"/>
<path d="M65.1917 103.507L64.6351 110.325L63.2974 110.202L63.8524 103.385L65.1917 103.507Z" fill="white"/>
<path d="M78.5341 108.823L78.5325 109.673L77.2354 110.035L77.2369 109.185L78.5341 108.823Z" fill="#BDBDBD"/>
<path d="M77.2371 109.186L77.2355 110.035L75.5034 103.427L75.505 102.574L77.2371 109.186Z" fill="#808080"/>
<path d="M76.8018 102.212L78.534 108.823L77.2368 109.185L75.5047 102.574L76.8018 102.212Z" fill="white"/>
<path d="M91.0834 102.493L91.0818 103.345L89.9827 104.142L89.9842 103.29L91.0834 102.493Z" fill="#C5C5C5"/>
<path d="M89.984 103.29L89.9824 104.142L86.1736 98.5359L86.1751 97.6865L89.984 103.29Z" fill="#828282"/>
<path d="M87.272 96.8872L91.084 102.493L89.9848 103.29L86.176 97.6865L87.272 96.8872Z" fill="white"/>
<path d="M100.768 92.0942L100.766 92.9464L100.001 94.0855V93.2361L100.768 92.0942Z" fill="#C0C0C0"/>
<path d="M100.001 93.2366V94.086L94.5693 90.162L94.5709 89.3098L100.001 93.2366Z" fill="#929292"/>
<path d="M100.769 92.0945L100.002 93.2364L94.5721 89.3096L95.3392 88.1733L100.769 92.0945Z" fill="white"/>
<path d="M106.423 78.8882L106.421 79.7376L106.077 81.0827V80.2305L106.423 78.8882Z" fill="#AAAAAA"/>
<path d="M106.077 80.2307V81.0829L99.6816 79.3117L99.6832 78.4595L106.077 80.2307Z" fill="#A5A5A5"/>
<path d="M106.424 78.888L106.078 80.2304L99.6843 78.4592L100.03 77.1168L106.424 78.888Z" fill="white"/>
<path d="M107.483 65.8435L107.482 66.6957L100.896 67.2945L100.898 66.4423L107.483 65.8435Z" fill="#B6B6B6"/>
<path d="M100.898 66.4422L100.896 67.2944L100.775 65.9075L100.776 65.0553L100.898 66.4422Z" fill="#808080"/>
<path d="M107.362 64.4591L107.484 65.8432L100.898 66.442L100.776 65.0551L107.362 64.4591Z" fill="white"/>
<path d="M104.049 51.8125L104.047 52.6647L98.0618 55.5555L98.0633 54.7061L104.049 51.8125Z" fill="#C2C2C2"/>
<path d="M98.0632 54.7066L98.0617 55.5561L97.4895 54.2945L97.4911 53.4451L98.0632 54.7066Z" fill="#808080"/>
<path d="M103.476 50.5541L104.048 51.8129L98.0624 54.7064L97.4902 53.4449L103.476 50.5541Z" fill="white"/>
<path d="M67.5584 68.4227L64.7583 65.5347C63.9772 66.3451 63.5859 67.4089 63.5843 68.4728L47.3512 89.3989L46.2256 90.8498L67.6878 72.6753C68.7059 72.6641 69.7209 72.2547 70.4957 71.4527L67.5584 68.4227Z" fill="#BCBEC0"/>
<path d="M67.5677 64.3119C66.5481 64.323 65.5331 64.7324 64.7583 65.5344L67.5584 68.4224L70.4957 71.4497C71.2783 70.6365 71.6697 69.5726 71.6697 68.5088L89.0284 46.1345L67.5677 64.3119Z" fill="#FF3038"/>
<g opacity="0.2">
<path opacity="0.2" d="M70.4942 71.4525C69.7193 72.2574 68.7043 72.664 67.6863 72.6751L46.2256 90.8496L47.3512 89.3987L67.5584 68.4225L70.4942 71.4525Z" fill="black"/>
</g>
<g opacity="0.2">
<path opacity="0.2" d="M89.0266 46.137L71.6694 68.5112C71.6694 69.5751 71.2781 70.6389 70.4955 71.4521L67.5582 68.4249L89.0266 46.137Z" fill="black"/>
</g>
<path d="M70.5002 67.8042C70.4971 67.8599 70.4956 67.9156 70.4893 67.9713C70.4847 68.0159 70.4769 68.0604 70.4706 68.105C70.4628 68.1579 70.455 68.2108 70.4457 68.2637C70.4363 68.3083 70.4254 68.3501 70.4145 68.3918C70.4005 68.4475 70.388 68.5004 70.3708 68.5561C70.3475 68.6313 70.3241 68.7065 70.296 68.7789C70.2913 68.7901 70.2867 68.8012 70.282 68.8151C70.2524 68.8876 70.2196 68.96 70.1853 69.0324C70.1791 69.0463 70.1728 69.0602 70.165 69.0741C70.1276 69.1493 70.0855 69.2217 70.0403 69.2914C70.0123 69.3359 69.9811 69.3805 69.9499 69.425C69.9234 69.464 69.8969 69.503 69.8673 69.542C69.8345 69.5866 69.7971 69.6256 69.7612 69.6673C69.7238 69.7091 69.6895 69.7537 69.649 69.7954C69.5601 69.8873 69.4666 69.9681 69.3715 70.0461C69.3434 70.0684 69.3153 70.0879 69.2873 70.1101C69.2124 70.1658 69.1345 70.2188 69.0565 70.2661C69.0285 70.2828 69.0004 70.3023 68.9708 70.319C68.9209 70.3469 68.871 70.3719 68.8196 70.397C68.7806 70.4165 68.7432 70.436 68.7026 70.4527C68.6496 70.475 68.5951 70.4945 68.5405 70.514C68.5031 70.5279 68.4672 70.5418 68.4298 70.5557C68.3191 70.5919 68.2068 70.617 68.0946 70.6393C68.0603 70.6449 68.0244 70.6504 67.9901 70.656C67.9231 70.6671 67.8576 70.6755 67.7906 70.6811C67.7485 70.6838 67.7048 70.6866 67.6627 70.6866C67.6082 70.6894 67.5552 70.6894 67.5006 70.6866C67.4554 70.6866 67.4102 70.6838 67.3649 70.6811C67.3151 70.6783 67.2652 70.6727 67.2153 70.6671C67.1701 70.6616 67.1248 70.656 67.0796 70.6476C67.0297 70.6393 66.9814 70.6281 66.9315 70.617C66.8879 70.6059 66.8442 70.5947 66.8006 70.5836C66.7476 70.5697 66.6961 70.553 66.6447 70.5362C66.6041 70.5223 66.5636 70.5084 66.523 70.4917C66.4607 70.4666 66.3999 70.4388 66.3391 70.4109C66.3048 70.3942 66.272 70.3803 66.2377 70.3636C66.1302 70.3079 66.0241 70.2438 65.9212 70.1714C65.8698 70.1352 65.8215 70.0962 65.7716 70.0572C65.7466 70.0377 65.7201 70.0182 65.6952 69.9987C65.6203 69.9347 65.5486 69.8679 65.4785 69.7982C64.8969 69.1995 64.6069 68.4113 64.6085 67.626L64.6069 68.2944C64.6054 69.0797 64.8954 69.8679 65.4769 70.4666C65.5471 70.539 65.6188 70.6059 65.6936 70.6671C65.7186 70.6894 65.7435 70.7061 65.77 70.7256C65.8137 70.7618 65.8573 70.798 65.9025 70.8287C65.9072 70.8314 65.9134 70.8342 65.9181 70.8398C66.021 70.9122 66.127 70.9735 66.2346 71.032C66.244 71.0375 66.2518 71.0431 66.2596 71.0459C66.2845 71.0598 66.3094 71.0682 66.3344 71.0793C66.3952 71.1072 66.456 71.135 66.5184 71.1601C66.5355 71.1656 66.5511 71.174 66.5667 71.1823C66.5901 71.1907 66.615 71.1963 66.64 71.2046C66.6914 71.2213 66.7444 71.238 66.7974 71.252C66.8177 71.2575 66.8395 71.2659 66.8598 71.2715C66.8832 71.277 66.9066 71.2798 66.9284 71.2854C66.9783 71.2965 67.0266 71.3077 67.0765 71.316C67.0999 71.3188 67.1233 71.3272 67.1467 71.33C67.1685 71.3327 67.1903 71.3327 67.2122 71.3355C67.262 71.3411 67.3119 71.3467 67.3618 71.3494C67.3868 71.3522 67.4117 71.355 67.4367 71.3578C67.4569 71.3578 67.4772 71.3578 67.4959 71.3578C67.5505 71.3578 67.6035 71.3578 67.6581 71.3578C67.6846 71.3578 67.7111 71.3578 67.7376 71.3578C67.7532 71.3578 67.7687 71.3522 67.7843 71.3522C67.8514 71.3467 67.9169 71.3383 67.9839 71.3272C68.0104 71.3244 68.0369 71.3216 68.065 71.3188C68.0728 71.316 68.0806 71.3132 68.0899 71.3132C68.2037 71.291 68.3144 71.2659 68.4251 71.2297C68.4298 71.2269 68.436 71.2269 68.4407 71.2269C68.4719 71.2158 68.5031 71.2018 68.5358 71.1907C68.5904 71.1712 68.6449 71.1517 68.6995 71.1294C68.7385 71.1127 68.7775 71.0932 68.8149 71.0737C68.8663 71.0487 68.9162 71.0236 68.9661 70.9958C68.977 70.9902 68.9879 70.9846 68.9989 70.979C69.0176 70.9679 69.0332 70.954 69.0519 70.9428C69.1314 70.8955 69.2078 70.8426 69.2826 70.7869C69.3107 70.7646 69.3387 70.7451 69.3668 70.7228C69.4635 70.6449 69.557 70.5641 69.6443 70.4722C69.6568 70.4583 69.6677 70.4471 69.6802 70.4332C69.7067 70.4054 69.7301 70.3719 69.7566 70.3413C69.7924 70.2995 69.8298 70.2577 69.8626 70.216C69.8922 70.177 69.9187 70.138 69.9452 70.099C69.9764 70.0544 70.0076 70.0099 70.0356 69.9653C70.0419 69.957 70.0481 69.9486 70.0544 69.9375C70.0918 69.8762 70.1276 69.8122 70.1604 69.7453C70.1666 69.7314 70.1728 69.7175 70.1791 69.7035C70.1993 69.6646 70.2196 69.6228 70.2368 69.5838C70.2508 69.5532 70.2633 69.5197 70.2757 69.4863C70.2804 69.4752 70.2851 69.464 70.2898 69.4501C70.3132 69.3888 70.335 69.3276 70.3553 69.2663C70.3599 69.2524 70.3615 69.2385 70.3662 69.2273C70.3818 69.1744 70.3958 69.1187 70.4098 69.063C70.4176 69.0296 70.4285 68.999 70.4348 68.9683C70.4363 68.9572 70.4379 68.946 70.4394 68.9349C70.4504 68.882 70.4566 68.8291 70.4644 68.7762C70.4691 68.74 70.4769 68.7065 70.4815 68.6703C70.4831 68.662 70.4831 68.6508 70.4831 68.6425C70.4893 68.5868 70.4909 68.5311 70.494 68.4782C70.4956 68.442 70.5002 68.4058 70.5002 68.3696C70.5002 68.3528 70.5002 68.3389 70.5002 68.3222L70.5018 67.6538C70.508 67.7012 70.5034 67.7513 70.5002 67.8042Z" fill="#D1D3D4"/>
<path d="M69.6389 65.4761C70.7942 66.6681 70.8005 68.6008 69.6514 69.7928C68.5039 70.9847 66.6362 70.9847 65.4809 69.7928C64.3256 68.6008 64.3194 66.6681 65.4669 65.4761C66.6159 64.2842 68.4837 64.2842 69.6389 65.4761Z" fill="#F1F2F2"/>
<path d="M69.7945 67.2445C69.7929 67.2863 69.7914 67.328 69.7867 67.3698C69.7836 67.4032 69.7773 67.4394 69.7726 67.4729C69.7664 67.5118 69.7617 67.5536 69.7539 67.5926C69.7477 67.626 69.7383 67.6567 69.7306 67.6901C69.7196 67.7319 69.7103 67.7736 69.6978 67.8154C69.6807 67.8711 69.662 67.9296 69.6401 67.9853C69.637 67.9936 69.6323 68.002 69.6292 68.0131C69.6074 68.0688 69.5824 68.1245 69.5559 68.1774C69.5513 68.1886 69.5466 68.1969 69.5403 68.2081C69.5123 68.2638 69.4795 68.3195 69.4452 68.3724C69.4234 68.4058 69.4 68.4392 69.3766 68.4754C69.3564 68.5061 69.3361 68.5339 69.3143 68.5646C69.2893 68.598 69.2613 68.6286 69.2332 68.662C69.2051 68.6955 69.1786 68.7289 69.1475 68.7595C69.0804 68.8291 69.0087 68.8904 68.9354 68.9517C68.9152 68.9684 68.8933 68.9851 68.8715 69.0018C68.8138 69.0436 68.7561 69.0853 68.6953 69.1215C68.6735 69.1355 68.6532 69.1494 68.6314 69.1605C68.594 69.1828 68.555 69.1995 68.516 69.219C68.4864 69.2329 68.4568 69.2497 68.4272 69.2608C68.3866 69.2775 68.3445 69.2942 68.304 69.3081C68.2759 69.3193 68.2479 69.3304 68.2198 69.3388C68.1356 69.3666 68.0514 69.3861 67.9657 69.4028C67.9392 69.4084 67.9127 69.4112 67.8862 69.414C67.8363 69.4223 67.7848 69.4279 67.7349 69.4307C67.7022 69.4335 67.671 69.4335 67.6383 69.4362C67.5977 69.4362 67.5556 69.439 67.5151 69.4362C67.4808 69.4362 67.4465 69.4335 67.4122 69.4307C67.3748 69.4279 67.3358 69.4251 67.2984 69.4195C67.2641 69.414 67.2298 69.4112 67.1955 69.4028C67.1581 69.3973 67.1207 69.3889 67.0832 69.3805C67.0505 69.3722 67.0162 69.3638 66.9835 69.3555C66.9429 69.3443 66.9039 69.3332 66.865 69.3193C66.8338 69.3081 66.8026 69.297 66.7714 69.2859C66.7247 69.2664 66.6779 69.2469 66.6327 69.2246C66.6077 69.2134 66.5812 69.2023 66.5563 69.1884C66.4736 69.1466 66.3941 69.0965 66.3162 69.0436C66.2772 69.0157 66.2398 68.9879 66.2024 68.9572C66.1837 68.9433 66.1634 68.9294 66.1447 68.9127C66.0885 68.8653 66.0324 68.8152 65.981 68.7595C65.5398 68.3028 65.3184 67.7068 65.3199 67.108L65.3184 67.6149C65.3168 68.2109 65.5382 68.8096 65.9794 69.2664C66.0324 69.3221 66.087 69.3722 66.1431 69.4195C66.1618 69.4362 66.1821 69.4502 66.2008 69.4641C66.2351 69.4919 66.2678 69.517 66.3021 69.5421C66.3068 69.5449 66.3099 69.5476 66.3146 69.5504C66.3926 69.6033 66.4721 69.6535 66.5547 69.6952C66.5609 69.698 66.5672 69.7036 66.5734 69.7064C66.5921 69.7147 66.6124 69.7231 66.6311 69.7314C66.6779 69.7537 66.7231 69.7732 66.7699 69.7927C66.7823 69.7983 66.7948 69.8039 66.8073 69.8094C66.826 69.815 66.8447 69.8206 66.8634 69.8261C66.9024 69.8401 66.9429 69.8512 66.9819 69.8623C66.9975 69.8679 67.0131 69.8735 67.0287 69.8763C67.0458 69.8818 67.063 69.8818 67.0817 69.8874C67.1191 69.8958 67.1565 69.9041 67.1939 69.9097C67.2111 69.9125 67.2298 69.918 67.2469 69.9208C67.2641 69.9236 67.2797 69.9236 67.2968 69.9264C67.3343 69.932 67.3732 69.9348 67.4106 69.9375C67.4294 69.9375 67.4481 69.9431 67.4668 69.9431C67.4824 69.9431 67.4964 69.9431 67.512 69.9431C67.5525 69.9431 67.5946 69.9431 67.6352 69.9431C67.6554 69.9431 67.6757 69.9431 67.696 69.9431C67.7084 69.9431 67.7193 69.9403 67.7318 69.9375C67.7833 69.9348 67.8332 69.9264 67.883 69.9208C67.9033 69.918 67.9236 69.918 67.9439 69.9125C67.9501 69.9125 67.9563 69.9097 67.9626 69.9069C68.0483 69.8902 68.1341 69.8707 68.2167 69.8428C68.2214 69.8428 68.2245 69.8401 68.2292 69.8401C68.2541 69.8317 68.2775 69.8206 68.3009 69.8122C68.343 69.7983 68.3851 69.7816 68.4256 69.7649C68.4552 69.7509 68.4848 69.737 68.5129 69.7231C68.5519 69.7036 68.5909 69.6869 68.6283 69.6646C68.6361 69.659 68.6454 69.6563 68.6532 69.6507C68.6673 69.6423 68.6797 69.6312 68.6938 69.6228C68.7546 69.5866 68.8123 69.5476 68.8699 69.5031C68.8918 69.4864 68.9136 69.4724 68.9339 69.453C69.0071 69.3945 69.0773 69.3304 69.1459 69.2608C69.1553 69.2524 69.1646 69.2413 69.174 69.2329C69.1942 69.2107 69.2129 69.1856 69.2316 69.1633C69.2597 69.1327 69.2862 69.0993 69.3127 69.0658C69.3345 69.038 69.3548 69.0074 69.3751 68.9767C69.3985 68.9433 69.4219 68.9099 69.4437 68.8765C69.4484 68.8681 69.453 68.8625 69.4577 68.857C69.4858 68.8096 69.5138 68.7595 69.5388 68.7122C69.5435 68.701 69.5481 68.6927 69.5528 68.6815C69.5684 68.6509 69.5824 68.6203 69.5965 68.5896C69.6074 68.5646 69.6167 68.5395 69.6261 68.5172C69.6292 68.5089 69.6339 68.5005 69.637 68.4894C69.6542 68.442 69.6713 68.3975 69.6869 68.3501C69.69 68.339 69.6916 68.3306 69.6947 68.3195C69.7072 68.2777 69.7165 68.2359 69.7274 68.1942C69.7337 68.1691 69.7415 68.1468 69.7461 68.1218C69.7477 68.1134 69.7493 68.105 69.7508 68.0967C69.7586 68.0577 69.7648 68.0159 69.7695 67.9769C69.7742 67.9491 69.7789 67.924 69.782 67.8962C69.7836 67.8878 69.782 67.8822 69.7836 67.8739C69.7882 67.8321 69.7898 67.7903 69.7914 67.7486C69.7929 67.7207 69.796 67.6929 69.796 67.665C69.796 67.6539 69.796 67.6427 69.796 67.6288L69.7976 67.122C69.8007 67.1665 69.796 67.2055 69.7945 67.2445Z" fill="#E6E7E8"/>
<path d="M69.1376 65.4763C70.0154 66.3814 70.0201 67.8491 69.147 68.757C68.2754 69.6621 66.8551 69.6621 65.9774 68.757C65.0996 67.8519 65.0949 66.3842 65.9665 65.4763C66.8411 64.5712 68.2599 64.5712 69.1376 65.4763Z" fill="white"/>
<path d="M92.0781 47.1898L91.9082 47.368C91.7757 47.29 91.6759 47.2399 91.6104 47.2176C91.5434 47.1981 91.4779 47.1926 91.4124 47.2009C91.3469 47.2148 91.2705 47.251 91.1817 47.3123C91.0944 47.3764 90.965 47.4961 90.7935 47.6716L86.8786 51.7348L86.4374 51.2809L87.7408 45.8753C87.8219 45.5411 87.8827 45.296 87.9248 45.1484C87.9669 44.9952 88.0089 44.8532 88.0573 44.714L87.998 44.6527C87.8328 44.856 87.5241 45.2041 87.0595 45.697C86.5964 46.1928 86.1318 46.6829 85.6672 47.1647L84.9547 47.9027C84.7988 48.0643 84.6897 48.1896 84.6289 48.2759C84.5665 48.3595 84.5291 48.4374 84.5104 48.5071C84.4917 48.5767 84.4917 48.6491 84.5135 48.7271C84.5338 48.805 84.5852 48.9164 84.6632 49.0557L84.4932 49.2339L83.2117 47.9111L83.3816 47.7328C83.564 47.8442 83.7043 47.8999 83.7963 47.9055C83.893 47.9083 83.9881 47.8777 84.0879 47.8025C84.1861 47.7301 84.3217 47.6075 84.4948 47.4265L87.5147 44.2907C87.6753 44.1236 87.7876 43.9954 87.8499 43.9063C87.9107 43.82 87.9481 43.7392 87.9622 43.6696C87.9746 43.5972 87.9731 43.5276 87.9528 43.4552C87.9326 43.3828 87.8858 43.2769 87.8063 43.1349L87.9762 42.9567L89.0769 44.0929L87.9341 48.8691C87.8795 49.1003 87.8281 49.3008 87.7798 49.4706C87.7346 49.6377 87.6753 49.8216 87.6051 50.0193L87.6519 50.0666C87.7813 49.9051 88.0542 49.6015 88.4673 49.1532C88.8805 48.7048 89.2546 48.3038 89.5961 47.9501L90.3289 47.1898C90.4894 47.0227 90.6033 46.8974 90.6703 46.8082C90.7358 46.7219 90.7763 46.6439 90.7888 46.5771C90.8028 46.5103 90.8028 46.4434 90.7841 46.3738C90.7638 46.3014 90.7171 46.1956 90.6375 46.0535L90.8075 45.8753L92.0781 47.1898Z" fill="black"/>
</svg>
