<svg width="57" height="57" viewBox="0 0 57 57" fill="none" xmlns="http://www.w3.org/2000/svg">
<path d="M28.5 0.9375C23.0487 0.9375 17.7197 2.55401 13.1871 5.58262C8.65448 8.61123 5.12172 12.9159 3.03558 17.9523C0.949442 22.9887 0.403613 28.5306 1.46712 33.8772C2.53062 39.2238 5.1557 44.1349 9.01038 47.9896C12.8651 51.8443 17.7762 54.4694 23.1228 55.5329C28.4694 56.5964 34.0113 56.0506 39.0477 53.9644C44.0841 51.8783 48.3888 48.3455 51.4174 43.8129C54.446 39.2803 56.0625 33.9514 56.0625 28.5C56.0542 21.1925 53.1476 14.1867 47.9804 9.01958C42.8133 3.85241 35.8075 0.945837 28.5 0.9375ZM38.3438 7.05244C40.4287 8.01344 42.3626 9.27287 44.0846 10.7911L43.2715 12.75H38.3438V7.05244ZM23.338 51.5403C19.0776 50.5937 15.1637 48.4832 12.0318 45.4439C8.89991 42.4045 6.67306 38.5555 5.59918 34.3255C4.52529 30.0955 4.64652 25.6504 5.94936 21.4852C7.2522 17.32 9.68552 13.5981 12.9784 10.734L15.6342 14.7188H22.2138L19.2607 22.5938H11.3325L8.6117 30.7601L13.6655 38.3438H23.5092L26.3285 42.5707L23.338 51.5403ZM28.5 52.125C28.1004 52.125 27.7086 52.0856 27.3129 52.0659L30.0632 43.8169C30.2544 43.2486 30.3125 42.644 30.2329 42.0497C30.1534 41.4554 29.9384 40.8873 29.6045 40.3893L26.7852 36.1604C26.4263 35.6204 25.9393 35.1777 25.3677 34.8716C24.7961 34.5655 24.1576 34.4057 23.5092 34.4063H15.772L12.9528 30.1774L14.1695 26.5313H18.6563V30.4688H22.5938V24.9188L28.374 9.50353L24.6885 8.12147L23.6904 10.7813H17.7408L16.152 8.39906C18.8451 6.71721 21.8545 5.60557 24.9943 5.13285C28.134 4.66013 31.3373 4.83637 34.4063 5.65069V12.75C34.4073 13.794 34.8225 14.7949 35.5607 15.5331C36.2989 16.2713 37.2998 16.6865 38.3438 16.6875H43.435C43.9522 16.6889 44.4646 16.5877 44.9425 16.3896C45.4203 16.1916 45.8541 15.9007 46.2188 15.5338L46.4944 15.2582L47.0496 13.9194C48.639 15.9383 49.8879 18.2034 50.7469 20.625H41.4918C40.561 20.6221 39.6595 20.9502 38.9483 21.5507C38.2372 22.1511 37.7626 22.9849 37.6094 23.903L36.4341 30.6774C36.2918 31.4799 36.4032 32.3067 36.7529 33.0428C37.1026 33.7789 37.6732 34.3877 38.3851 34.7843L42.6475 37.6665L45.5179 44.8446C43.3204 47.145 40.6794 48.9761 37.7545 50.2274C34.8296 51.4788 31.6814 52.1243 28.5 52.125ZM45.8545 35.0835L40.5094 31.4708L40.3125 31.3527L41.4918 24.5625H51.7687C52.8 30.3712 51.5717 36.3545 48.3352 41.287L45.8545 35.0835Z" fill="#FF5773"/>
</svg>
