<svg width="56" height="47" viewBox="0 0 56 47" fill="none" xmlns="http://www.w3.org/2000/svg">
<path fill-rule="evenodd" clip-rule="evenodd" d="M3.50001 5.46875C3.50001 4.0515 4.05313 2.6923 5.0377 1.69015C6.02226 0.688001 7.35762 0.125 8.75001 0.125H18.424C21.777 0.125 24.584 2.12 26.5125 4.343C27.9475 5.996 29.68 7.25 31.5 7.25H47.25C48.6424 7.25 49.9777 7.813 50.9623 8.81515C51.9469 9.8173 52.5 11.1765 52.5 12.5938V14.8738C54.495 15.8178 55.79 17.9945 55.496 20.3814L53.256 38.6356C52.9914 40.7911 51.9619 42.7738 50.3614 44.2107C48.7609 45.6475 46.6996 46.4395 44.5655 46.4375H11.431C9.29809 46.4378 7.23853 45.645 5.63948 44.2083C4.04042 42.7716 3.01199 40.7899 2.74751 38.6356L0.507508 20.3814C0.369513 19.2591 0.58489 18.1213 1.12264 17.1316C1.66039 16.1419 2.49278 15.3513 3.50001 14.8738V5.46875ZM7.00001 14.375H49V12.5938C49 12.1213 48.8156 11.6683 48.4874 11.3342C48.1593 11.0002 47.7141 10.8125 47.25 10.8125H31.5C28.126 10.8125 25.515 8.57169 23.891 6.70138C22.309 4.87738 20.37 3.6875 18.424 3.6875H8.75001C8.28588 3.6875 7.84076 3.87517 7.51257 4.20922C7.18438 4.54327 7.00001 4.99633 7.00001 5.46875V14.375ZM5.71551 17.9375C5.46742 17.9376 5.22217 17.9913 4.99605 18.0952C4.76992 18.1991 4.56809 18.3507 4.40392 18.5401C4.23976 18.7294 4.11702 18.9521 4.04385 19.1934C3.97068 19.4347 3.94874 19.6891 3.97951 19.9396L6.21951 38.1939C6.37823 39.4867 6.99548 40.6759 7.95521 41.538C8.91494 42.4 10.151 42.8755 11.431 42.875H44.569C45.849 42.8755 47.0851 42.4 48.0448 41.538C49.0045 40.6759 49.6218 39.4867 49.7805 38.1939L52.0205 19.9396C52.0513 19.6891 52.0293 19.4347 51.9562 19.1934C51.883 18.9521 51.7603 18.7294 51.5961 18.5401C51.4319 18.3507 51.2301 18.1991 51.004 18.0952C50.7778 17.9913 50.5326 17.9376 50.2845 17.9375H5.71551Z" fill="#FF5773"/>
</svg>
