<svg width="135" height="139" viewBox="0 0 135 139" fill="none" xmlns="http://www.w3.org/2000/svg">
<ellipse cx="67.0159" cy="69.1434" rx="67.0159" ry="69.1434" fill="#FF5773"/>
<path d="M53.9199 39.5612L53.992 39.5479L54.0614 39.5243C55.7615 38.9457 59.1375 38.6193 64.3398 38.6193H88.8473V48.0281H62.642C57.3999 48.0281 53.2429 49.0838 50.3214 51.3461C46.4054 53.6297 43.5252 57.9615 41.5649 64.1031L41.5504 64.1487L41.5403 64.1954C41.089 66.2781 40.855 68.1171 40.855 69.7009C40.855 75.0877 42.6831 80.1067 46.2831 84.7356L46.3121 84.7728L46.3444 84.8071C48.6717 87.2793 50.9164 89.001 53.083 89.8729C55.4793 91.0511 58.6345 91.6019 62.4764 91.6019H88.8473V101.011H63.8015C57.1453 101.011 52.3844 100.114 49.3802 98.4441L49.3531 98.429L49.3251 98.4157C42.3643 95.0943 37.3864 89.637 34.3809 81.9789C32.9102 78.1762 32.1717 74.1167 32.1717 69.7922C32.1717 60.4929 35.5032 52.5742 42.1967 45.9812C46.6214 42.277 50.5256 40.1847 53.9199 39.5612ZM92.0896 36.2502V35.2502H91.0896H64.3398C59.1031 35.2502 55.3564 35.557 53.2397 36.2386C49.2139 37.0265 44.8169 39.449 40.0593 43.3738L40.0247 43.4022L39.9929 43.4337C32.6269 50.7086 28.9294 59.5131 28.9294 69.7922C28.9294 74.5325 29.7364 79.0201 31.3559 83.2473L31.3558 83.2473L31.3606 83.2593C34.7008 91.6512 40.2295 97.7467 47.9369 101.484C51.5026 103.456 56.8365 104.38 63.8015 104.38H91.0896H92.0896V103.38V89.2328V88.2328H91.0896H62.4764C58.9354 88.2328 56.2841 87.7231 54.4394 86.7891L54.3958 86.767L54.3502 86.7492C52.6749 86.0976 50.8047 84.7335 48.7451 82.5589C45.6263 78.4951 44.0973 74.216 44.0973 69.7009C44.0973 68.4325 44.2753 66.878 44.646 65.026C46.4276 59.5502 48.9311 56.0281 52.0448 54.2294L52.1069 54.1935L52.1631 54.1492C54.4273 52.3669 57.8677 51.3972 62.642 51.3972H91.0896H92.0896V50.3972V36.2502ZM58.6668 61.81H57.6668V62.81V76.82V77.82H58.6668H91.0896H92.0896V76.82V62.81V61.81H91.0896H58.6668ZM88.8473 65.179V74.4509H60.9091V65.179H88.8473Z" fill="white" stroke="white" stroke-width="2"/>
</svg>
