<svg width="56" height="47" viewBox="0 0 56 47" fill="none" xmlns="http://www.w3.org/2000/svg">
<path fill-rule="evenodd" clip-rule="evenodd" d="M11.249 0.818968C16.8455 -0.321032 24.206 -0.470657 29.239 4.64509C29.4014 4.81082 29.5301 5.0075 29.6178 5.22389C29.7055 5.44028 29.7504 5.67214 29.75 5.90622V45.0937C29.7506 45.4465 29.6483 45.7915 29.4561 46.085C29.2638 46.3785 28.9903 46.6073 28.6701 46.7424C28.35 46.8775 27.9976 46.9127 27.6577 46.8438C27.3179 46.7748 27.0058 46.6046 26.761 46.3548C23.8105 43.3481 19.3585 42.5821 14.616 43.0773C9.912 43.5761 5.306 45.2754 2.534 46.6861C2.2672 46.8222 1.97064 46.8866 1.67251 46.8732C1.37438 46.8597 1.08458 46.7689 0.83065 46.6093C0.576724 46.4497 0.367107 46.2267 0.221721 45.9614C0.0763348 45.6962 1.0014e-05 45.3975 0 45.0937L0 5.90622C1.08967e-05 5.57569 0.0903712 5.25169 0.260972 4.97046C0.431573 4.68923 0.675685 4.46185 0.966 4.31378L1.75 5.90622L0.966 4.31378L0.973 4.31022L0.987 4.30309L1.0325 4.28172C1.28622 4.1531 1.54296 4.03075 1.8025 3.91478C4.83172 2.53398 8.0007 1.49583 11.2525 0.818968H11.249ZM3.5 7.04622V42.3435C6.461 41.1215 10.304 39.9495 14.259 39.5362C18.2595 39.1158 22.6135 39.4543 26.25 41.5312V6.68284C22.5295 3.37328 17.0415 3.27709 11.935 4.31734C9.03648 4.92095 6.209 5.83569 3.5 7.04622Z" fill="#FF5773"/>
<path fill-rule="evenodd" clip-rule="evenodd" d="M44.751 0.818968C39.158 -0.321032 31.794 -0.470657 26.761 4.64509C26.5986 4.81082 26.4699 5.0075 26.3822 5.22389C26.2945 5.44028 26.2496 5.67214 26.25 5.90622V45.0937C26.2494 45.4465 26.3517 45.7915 26.5439 46.085C26.7362 46.3785 27.0097 46.6073 27.3299 46.7424C27.65 46.8775 28.0024 46.9127 28.3423 46.8438C28.6821 46.7748 28.9942 46.6046 29.239 46.3548C32.1895 43.3481 36.6415 42.5821 41.384 43.0773C46.088 43.5761 50.694 45.2754 53.466 46.6861C53.7328 46.8222 54.0294 46.8866 54.3275 46.8732C54.6256 46.8597 54.9154 46.7689 55.1693 46.6093C55.4233 46.4497 55.6329 46.2267 55.7783 45.9614C55.9237 45.6962 56 45.3975 56 45.0937V5.90622C56 5.57569 55.9096 5.25169 55.739 4.97046C55.5684 4.68923 55.3243 4.46185 55.034 4.31378L54.25 5.90622L55.034 4.31378L55.027 4.31022L55.013 4.30309L54.9675 4.28172L54.803 4.19978C53.8848 3.7634 52.9521 3.35941 52.0065 2.98853C49.6515 2.06105 47.2246 1.33534 44.751 0.818968ZM52.5 7.04622V42.3435C49.539 41.1215 45.696 39.9495 41.741 39.5362C37.7405 39.1158 33.3865 39.4543 29.75 41.5312V6.68284C33.4705 3.37328 38.9585 3.27709 44.065 4.31734C46.9635 4.9209 49.791 5.83564 52.5 7.04622Z" fill="#FF5773"/>
</svg>
