<svg width="135" height="139" viewBox="0 0 135 139" fill="none" xmlns="http://www.w3.org/2000/svg">
<path d="M67.0157 138.286C104.027 138.286 134.031 107.33 134.031 69.1432C134.031 30.9565 104.027 0 67.0157 0C30.004 0 0 30.9565 0 69.1432C0 107.33 30.004 138.286 67.0157 138.286Z" fill="#A7DBDB"/>
<g opacity="0.1">
<path opacity="0.1" d="M133.623 73.9818L94.4163 33.5308C76.8667 32.6879 68.6838 43.1063 67.1067 45.3902V45.3893L67.0972 45.4042C66.9104 45.6751 66.8134 45.8349 66.8134 45.8349V45.8451L66.7886 45.8837C66.7886 45.8837 47.9416 37.566 29.9208 45.8837H28.6351C28.02 45.8837 27.5215 46.3936 27.5215 47.0225V103.665C27.5215 103.957 27.6371 104.218 27.8148 104.42L27.808 104.423L27.8356 104.452C27.8454 104.462 27.8546 104.472 27.8648 104.482L60.3116 137.959C62.4437 138.17 64.6028 138.286 66.7886 138.286C102.222 138.286 131.213 109.909 133.623 73.9818Z" fill="black"/>
</g>
<path d="M89.8967 81.4459H89.2005C89.106 81.0404 88.951 80.6723 88.7458 80.3339L88.7481 80.3305L89.2403 79.8256C89.3497 79.7135 89.3497 79.5315 89.2403 79.4194L88.3843 78.5421C88.2748 78.4299 88.0975 78.4299 87.9878 78.5421L87.5019 79.0464C87.1604 78.8336 86.7929 78.6815 86.4205 78.5909V78.5875V77.8742C86.4205 77.7156 86.2824 77.5835 86.1276 77.5835H84.9167C84.7619 77.5835 84.6519 77.7156 84.6519 77.8742V78.5875C84.2565 78.6843 83.8909 78.8432 83.5606 79.0534L83.5545 79.0511L83.0602 78.5467C82.9508 78.4346 82.7724 78.4346 82.663 78.5467L81.8062 79.4241C81.6968 79.5362 81.6965 79.7179 81.806 79.8301L82.2982 80.3328C82.0902 80.6827 81.942 81.0646 81.8534 81.4459H81.8501H81.1539C80.9991 81.4459 80.8823 81.5775 80.8823 81.7361V82.9768C80.8823 83.1354 80.9994 83.2582 81.1539 83.2582H81.8501C81.9446 83.6636 82.0996 84.0327 82.3048 84.3714L82.3025 84.3753L81.8103 84.8804C81.7008 84.9926 81.7008 85.1748 81.8103 85.2869L82.6666 86.1643C82.776 86.2764 82.9533 86.2764 83.0628 86.1643L83.5596 85.6599C83.901 85.873 84.2795 86.0249 84.6519 86.1155V86.1188V86.8321C84.6519 86.9907 84.7682 87.1205 84.923 87.1205H86.1339C86.2887 87.1205 86.4205 86.9907 86.4205 86.8321V86.1188C86.8159 86.022 87.1706 85.8632 87.5009 85.6529L87.5017 85.6553L87.9931 86.1596C88.1026 86.2717 88.2797 86.2717 88.3891 86.1596L89.2451 85.2823C89.3546 85.1701 89.3546 84.9884 89.2451 84.8763L88.7529 84.3722C88.9609 84.0223 89.1091 83.6395 89.1975 83.2582H89.2005H89.8969C90.0517 83.2582 90.1903 83.1289 90.1903 82.9703V81.7296C90.1903 81.5707 90.0515 81.4459 89.8967 81.4459ZM85.5363 85.0583C84.0824 85.0583 82.9039 83.8507 82.9039 82.3611C82.9039 80.8714 84.0824 79.6639 85.5363 79.6639C86.9902 79.6639 88.1687 80.8714 88.1687 82.3611C88.1687 83.8507 86.9902 85.0583 85.5363 85.0583Z" fill="#438AA7"/>
<path d="M90.4071 88.314H90.1646C90.1317 88.1728 90.0778 88.0449 90.0063 87.927L90.0071 87.926L90.1783 87.7502C90.2163 87.7113 90.2163 87.648 90.1783 87.6088L89.8804 87.3035C89.8424 87.2646 89.7806 87.2643 89.7423 87.3035L89.5731 87.479C89.4543 87.4048 89.3264 87.3521 89.1967 87.3204V87.3194V87.071C89.1967 87.0157 89.1485 86.9697 89.0948 86.9697H88.6733C88.6193 86.9697 88.5811 87.0157 88.5811 87.071V87.3194C88.4432 87.3531 88.3161 87.4084 88.2011 87.4816L88.199 87.4808L88.027 87.3053C87.989 87.2664 87.927 87.2664 87.8887 87.3053L87.5905 87.6106C87.5525 87.6495 87.5523 87.7129 87.5905 87.7518L87.7618 87.9268C87.6893 88.0485 87.6379 88.1814 87.607 88.3143H87.606H87.3635C87.3096 88.3143 87.269 88.36 87.269 88.4153V88.8472C87.269 88.9025 87.3098 88.945 87.3635 88.945H87.606C87.6389 89.0862 87.6929 89.2147 87.7643 89.3326L87.7635 89.3339L87.5923 89.5096C87.5543 89.5485 87.5543 89.6121 87.5923 89.6511L87.8902 89.9566C87.9282 89.9955 87.99 89.9958 88.0283 89.9566L88.2013 89.7811C88.3201 89.8553 88.4519 89.908 88.5816 89.9397V89.9407V90.1891C88.5816 90.2444 88.6221 90.2896 88.6761 90.2896H89.0976C89.1516 90.2896 89.1974 90.2444 89.1974 90.1891V89.9407C89.3352 89.907 89.4586 89.8517 89.5736 89.7785L89.5739 89.7793L89.7449 89.9547C89.7829 89.9937 89.8447 89.9937 89.8827 89.9547L90.1806 89.6495C90.2186 89.6106 90.2186 89.5472 90.1806 89.5083L90.0094 89.3328C90.0818 89.2111 90.1332 89.0777 90.1641 88.945H90.1652H90.4076C90.4616 88.945 90.5097 88.9001 90.5097 88.8448V88.4129C90.5094 88.3576 90.461 88.314 90.4071 88.314ZM88.8894 89.5716C88.3832 89.5716 87.9731 89.1514 87.9731 88.6328C87.9731 88.1142 88.3832 87.6939 88.8894 87.6939C89.3955 87.6939 89.8057 88.1142 89.8057 88.6328C89.8057 89.1511 89.3955 89.5716 88.8894 89.5716Z" fill="#438AA7"/>
<path d="M95.3106 50.3184H33.6938V97.0047H95.3106V50.3184Z" fill="#212121"/>
<path d="M91.4595 57.2715H36.582V91.0446H91.4595V57.2715Z" fill="#314656"/>
<path d="M64.984 88.0648C72.6939 88.0648 78.944 81.6162 78.944 73.6615C78.944 65.7068 72.6939 59.2583 64.984 59.2583C57.2741 59.2583 51.0239 65.7068 51.0239 73.6615C51.0239 81.6162 57.2741 88.0648 64.984 88.0648Z" fill="white"/>
<path d="M85.6831 51.3115H81.832V55.2848H85.6831V51.3115Z" fill="#F6F4F4"/>
<path d="M85.6831 52.3052H81.832V55.2852H85.6831V52.3052Z" fill="#212121"/>
<path d="M88.5511 51.9009L88.0884 52.375L90.7965 55.1498L91.2592 54.6757L88.5511 51.9009Z" fill="#F6F4F4"/>
<path d="M88.0895 54.6753L88.5522 55.1494L91.2604 52.3747L90.7977 51.9006L88.0895 54.6753Z" fill="#F6F4F4"/>
<path d="M37.5448 93.0312H36.582V96.0112H37.5448V93.0312Z" fill="#F6F4F4"/>
<path d="M39.4701 93.0312H38.5073V96.0112H39.4701V93.0312Z" fill="#F6F4F4"/>
<path d="M91.4595 94.0244H40.4331V95.0177H91.4595V94.0244Z" fill="#F6F4F4"/>
<path d="M84.72 93.0312H82.7944V96.0112H84.72V93.0312Z" fill="#F6F4F4"/>
<path d="M73.1673 74.1579L60.6514 82.1046V66.2114L73.1673 74.1579Z" fill="#E54B4A"/>
<path d="M46.2097 51.8083C46.2097 57.5684 41.6838 62.2383 36.1008 62.2383C30.5176 62.2383 25.9917 57.5684 25.9917 51.8083C25.9917 46.048 30.5176 41.3784 36.1008 41.3784C41.6838 41.3784 46.2097 46.048 46.2097 51.8083Z" fill="#E54B4A"/>
<path d="M36.0857 59.0379C39.9811 58.968 43.0836 55.6759 43.0155 51.6847C42.9473 47.6935 39.7342 44.5146 35.8388 44.5844C31.9435 44.6543 28.8409 47.9464 28.9091 51.9377C28.9773 55.9289 32.1904 59.1077 36.0857 59.0379Z" fill="white"/>
<path d="M40.9258 52.2298C41.1511 49.4214 39.1117 46.9577 36.3708 46.7269C33.6299 46.4961 31.2254 48.5857 31.0001 51.394C30.7749 54.2024 32.8142 56.6661 35.5551 56.8969C38.296 57.1277 40.7006 55.0381 40.9258 52.2298Z" fill="#E54B4A"/>
<path d="M38.5077 51.8085C38.5077 53.1799 37.43 54.2918 36.1008 54.2918C34.7715 54.2918 33.6938 53.1799 33.6938 51.8085C33.6938 50.4371 34.7715 49.3252 36.1008 49.3252C37.43 49.3252 38.5077 50.4371 38.5077 51.8085Z" fill="white"/>
<path d="M19.4734 49.7212L20.2088 51.2727C20.1066 51.4116 20.0448 51.5908 20.0451 51.7872C20.0453 51.935 20.0813 52.0727 20.1426 52.191L19.3045 53.7265C19.1893 53.9366 19.272 54.1164 19.4866 54.1265L23.1069 54.2914C23.322 54.3011 23.6058 54.1485 23.7381 53.9524L24.7625 52.4269L34.9329 52.0426C35.3122 52.0418 35.6201 52.1869 35.6194 51.7489C35.6187 51.3108 35.311 51.4577 34.9316 51.4586L24.8821 51.1293L24.0958 49.7083C23.9802 49.499 23.7095 49.3275 23.4944 49.3275L19.6769 49.3252C19.4618 49.3252 19.37 49.5033 19.4734 49.7212Z" fill="#DEE3E0"/>
<path d="M20.0451 51.3736C20.0454 51.5457 20.0813 51.7062 20.1426 51.844L19.3045 53.6328C19.1893 53.8776 19.272 54.0872 19.4866 54.0988L23.107 54.291C23.3221 54.3023 23.606 54.1245 23.7382 53.896L24.7627 52.1185L34.9333 51.6708C35.3038 51.6698 35.6062 51.8306 35.6194 51.3622L20.0473 51.3115C20.0461 51.3319 20.0449 51.3526 20.0451 51.3736Z" fill="#A0A1A2"/>
<path d="M36.068 80.6274C36.1482 80.6815 36.2307 80.7284 36.3226 80.7557C36.4233 80.7856 36.4487 80.9603 36.3664 81.0437C36.2278 81.1854 36.1506 81.3645 36.117 81.5641C36.0551 81.9295 36.1839 82.2219 36.4298 82.4612C36.5305 82.5587 36.6447 82.6359 36.7692 82.6943C36.899 82.7552 36.9256 82.9456 36.8189 83.0456C36.5744 83.2743 36.5037 83.5959 36.6318 83.939C36.7359 84.2172 36.9023 84.441 37.1473 84.5871C37.1796 84.6065 37.2151 84.6217 37.2502 84.634C37.337 84.665 37.3715 84.7083 37.3787 84.8074C37.3838 84.8806 37.3643 84.9412 37.3104 84.9923C37.1772 85.1188 37.0815 85.2722 37.0583 85.4681C37.0405 85.6179 37.0683 85.7603 37.1269 85.8965C37.2154 86.1021 37.3495 86.2679 37.5059 86.4137C37.5786 86.4817 37.7705 86.5871 37.918 86.6571C37.9995 86.696 38.2478 86.7529 38.3212 86.7691C41.9408 87.5731 44.483 86.5318 44.8064 86.4035C44.8745 86.3765 45.0997 86.2167 45.1609 86.2165C45.1714 86.2165 45.2473 86.1963 45.2473 86.1855V80.2597C45.1124 80.1561 44.9774 80.0517 44.8421 79.9481C44.8287 79.9379 44.8171 79.9263 44.8064 79.9135C44.8023 79.9087 44.7984 79.9038 44.7946 79.8983C44.0759 78.9099 43.6139 77.8597 43.0783 76.7418C42.7201 75.9947 42.6302 74.3997 42.6333 73.7988C42.6345 73.5583 42.4685 73.1646 42.0379 73.1646C41.929 73.1666 41.7026 73.1737 41.5656 73.2285C41.4029 73.2939 41.2648 73.5255 41.1261 73.8227C40.9371 74.2276 40.8179 74.6665 40.7054 75.1058C40.6632 75.2708 40.6279 75.4381 40.6051 75.6073C40.5886 75.7309 40.5883 75.8568 40.5962 75.9811C40.6051 76.1241 40.6128 76.2665 40.6253 76.4089C40.6507 76.689 40.6869 76.9676 40.7303 77.2446C40.7773 77.5452 40.8296 77.8447 40.8855 78.143C40.8862 78.1464 40.8867 78.1498 40.8874 78.1532C40.8879 78.175 40.891 78.1994 40.8975 78.2269C40.9865 78.6106 40.6291 78.8357 40.418 78.933C40.3619 78.959 40.1309 78.9894 40.0673 78.9894C38.9101 78.9886 36.9693 78.9823 36.7351 78.9831C36.5787 78.9836 36.4216 78.9794 36.2657 78.9881C36.0081 79.0028 35.7262 79.1832 35.643 79.5588C35.5533 79.9604 35.7279 80.3966 36.068 80.6274Z" fill="#DFB177"/>
<path d="M48.522 87.0716H45.8232C45.5064 87.0716 45.2471 86.8005 45.2471 86.4693V79.7273C45.2471 79.3961 45.5064 79.125 45.8232 79.125H48.522C48.8388 79.125 49.0981 79.3961 49.0981 79.7273V86.4693C49.0981 86.8005 48.8388 87.0716 48.522 87.0716Z" fill="#2F2F2F"/>
<path d="M48.688 87.0714H45.6572C45.4316 87.0714 45.2471 86.881 45.2471 86.6483V83.0981H49.0981V86.6483C49.0981 86.881 48.9136 87.0714 48.688 87.0714Z" fill="#141313"/>
</svg>
