<svg width="135" height="139" viewBox="0 0 135 139" fill="none" xmlns="http://www.w3.org/2000/svg">
<path d="M67.0157 138.286C104.027 138.286 134.031 107.33 134.031 69.1432C134.031 30.9565 104.027 0 67.0157 0C30.004 0 0 30.9565 0 69.1432C0 107.33 30.004 138.286 67.0157 138.286Z" fill="#E0E4CC"/>
<g clip-path="url(#clip0)">
<path d="M90.5888 96.9813H85.759V102.055H91.406V97.8069C91.408 97.352 91.041 96.9813 90.5888 96.9813Z" fill="#CED3E6"/>
<path d="M76.6886 86.109H59.9243V96.9814H76.6886V86.109Z" fill="#CED3E6"/>
<path d="M89.5058 102.055H43.2572V100.171C43.2572 98.41 44.6714 96.9813 46.4149 96.9813H86.3461C88.0896 96.9813 89.5038 98.41 89.5038 100.171V102.055H89.5058Z" fill="white"/>
<path d="M74.6337 86.109H57.8694V96.9814H74.6337V86.109Z" fill="white"/>
<path d="M57.8694 89.4473L74.6337 88.0907L74.6357 86.109H57.8913L57.8694 89.4473Z" fill="#CED3E6"/>
<path d="M104.388 41.211V83.8489C104.388 85.0992 103.384 86.1111 102.148 86.1111H30.5689C29.3332 86.1111 28.3296 85.0992 28.3296 83.8489V41.211C28.3296 39.9606 29.3332 38.9487 30.5689 38.9487H102.148C103.386 38.9487 104.388 39.9626 104.388 41.211Z" fill="#CED3E6"/>
<path d="M104.388 41.211V80.695H97.4634V38.9487H102.148C103.386 38.9487 104.388 39.9626 104.388 41.211Z" fill="#585859"/>
<path d="M101.542 41.211V83.8489C101.542 85.0992 100.538 86.1111 99.3022 86.1111H30.5689C29.3332 86.1111 28.3296 85.0992 28.3296 83.8489V41.211C28.3296 39.9606 29.3332 38.9487 30.5689 38.9487H99.3002C99.3339 38.9487 99.3677 38.9487 99.3994 38.9507C99.4232 38.9527 99.447 38.9527 99.4728 38.9547H99.4748C99.4926 38.9567 99.5085 38.9567 99.5263 38.9608C99.5561 38.9628 99.5839 38.9668 99.6136 38.9708C99.6334 38.9728 99.6513 38.9768 99.6691 38.9788C99.6791 38.9808 99.687 38.9808 99.6969 38.9828C99.7148 38.9848 99.7326 38.9888 99.7524 38.9928C100.772 39.2072 101.542 40.1189 101.542 41.211Z" fill="white"/>
<path d="M99.7524 38.9943C99.7346 38.9903 99.7167 38.9863 99.6969 38.9843C99.687 38.9823 99.6791 38.9803 99.6691 38.9803C99.6493 38.9762 99.6315 38.9742 99.6136 38.9722C99.5839 38.9682 99.5561 38.9642 99.5263 38.9622C99.5085 38.9602 99.4926 38.9582 99.4748 38.9562H99.4728C99.449 38.9542 99.4252 38.9522 99.3994 38.9522C99.3657 38.9502 99.3339 38.9502 99.3002 38.9502H30.5689C29.3332 38.9482 28.3296 39.9621 28.3296 41.2104V80.6944H101.542V41.2104C101.542 40.1184 100.772 39.2067 99.7524 38.9943ZM98.6357 76.751C98.6357 77.0917 98.364 77.3662 98.0268 77.3662H31.8423C31.5051 77.3662 31.2334 77.0917 31.2334 76.751V42.4968C31.2334 42.1562 31.5051 41.8817 31.8423 41.8817H98.0268C98.364 41.8817 98.6357 42.1562 98.6357 42.4968V76.751Z" fill="#39393B"/>
<path d="M98.6357 42.4974V76.7515C98.6357 77.0922 98.364 77.3667 98.0268 77.3667H31.8423C31.5051 77.3667 31.2334 77.0922 31.2334 76.7515V42.4974C31.2334 42.1567 31.5051 41.8822 31.8423 41.8822H98.0268C98.364 41.8822 98.6357 42.1587 98.6357 42.4974Z" fill="#CED3E6"/>
<path d="M98.6357 42.4974V45.7294H31.2334V42.4974C31.2334 42.1567 31.5051 41.8822 31.8423 41.8822H98.0268C98.364 41.8822 98.6357 42.1587 98.6357 42.4974Z" fill="white"/>
<path d="M93.4153 43.7558C93.4153 44.0443 93.1832 44.2787 92.8976 44.2787C92.6119 44.2787 92.3799 44.0443 92.3799 43.7558C92.3799 43.4672 92.6119 43.2328 92.8976 43.2328C93.1832 43.2328 93.4153 43.4672 93.4153 43.7558Z" fill="#DF615C"/>
<path d="M94.5756 44.2787C94.8615 44.2787 95.0933 44.0446 95.0933 43.7558C95.0933 43.4669 94.8615 43.2328 94.5756 43.2328C94.2897 43.2328 94.0579 43.4669 94.0579 43.7558C94.0579 44.0446 94.2897 44.2787 94.5756 44.2787Z" fill="#5392F3"/>
<path d="M90.2575 44.3088H37.6023C37.3365 44.3088 37.1203 44.0884 37.1203 43.8219V43.6916C37.1203 43.4231 37.3385 43.2047 37.6023 43.2047H90.2575C90.5233 43.2047 90.7395 43.4251 90.7395 43.6916V43.8219C90.7415 44.0884 90.5233 44.3088 90.2575 44.3088Z" fill="#D2DCEC"/>
<path d="M33.6671 43.7557V44.2687C33.6671 44.3408 33.5898 44.3869 33.5283 44.3508L33.0899 44.0943L32.6516 43.8378C32.5901 43.8018 32.5901 43.7116 32.6516 43.6755L33.0899 43.4191L33.5283 43.1626C33.5898 43.1265 33.6671 43.1726 33.6671 43.2447V43.7557Z" fill="black"/>
<path d="M34.4387 43.7557V44.2687C34.4387 44.3408 34.5161 44.3869 34.5776 44.3508L35.0159 44.0943L35.4543 43.8378C35.5157 43.8018 35.5157 43.7116 35.4543 43.6755L35.0159 43.4191L34.5776 43.1626C34.5161 43.1265 34.4387 43.1726 34.4387 43.2447V43.7557Z" fill="black"/>
<path d="M95.7914 44.1925L95.7676 44.1684C95.716 44.1163 95.716 44.0342 95.7676 43.9821L96.4618 43.2808C96.5134 43.2287 96.5947 43.2287 96.6463 43.2808L96.6701 43.3048C96.7216 43.3569 96.7216 43.4391 96.6701 43.4912L95.9759 44.1925C95.9243 44.2426 95.841 44.2426 95.7914 44.1925Z" fill="#39393B"/>
<path d="M96.6463 44.1925L96.6701 44.1684C96.7216 44.1163 96.7216 44.0342 96.6701 43.9821L95.9759 43.2808C95.9243 43.2287 95.843 43.2287 95.7914 43.2808L95.7676 43.3048C95.716 43.3569 95.716 43.4391 95.7676 43.4912L96.4618 44.1925C96.5134 44.2426 96.5967 44.2426 96.6463 44.1925Z" fill="#39393B"/>
<path d="M89.5629 75.9901H40.1268C39.4227 75.9901 38.8534 75.413 38.8534 74.7037V47.7973C38.8534 47.0859 39.4247 46.5109 40.1268 46.5109H89.5629C90.267 46.5109 90.8363 47.0879 90.8363 47.7973V74.7017C90.8363 75.413 90.267 75.9901 89.5629 75.9901Z" fill="white"/>
<path d="M53.8986 61.5931H42.5016C42.327 61.5931 42.1842 61.4508 42.1842 61.2725C42.1842 61.0962 42.3251 60.9519 42.5016 60.9519H53.8986C54.0732 60.9519 54.216 61.0942 54.216 61.2725C54.216 61.4508 54.0732 61.5931 53.8986 61.5931Z" fill="#CED3E6"/>
<path d="M53.8986 58.888H42.5016C42.327 58.888 42.1842 58.7458 42.1842 58.5674C42.1842 58.3911 42.3251 58.2468 42.5016 58.2468H53.8986C54.0732 58.2468 54.216 58.3891 54.216 58.5674C54.216 58.7438 54.0732 58.888 53.8986 58.888Z" fill="#CED3E6"/>
<path d="M53.8986 64.3001H42.5016C42.327 64.3001 42.1842 64.1579 42.1842 63.9795C42.1842 63.8032 42.3251 63.6589 42.5016 63.6589H53.8986C54.0732 63.6589 54.216 63.8012 54.216 63.9795C54.216 64.1559 54.0732 64.3001 53.8986 64.3001Z" fill="#CED3E6"/>
<path d="M88.9208 61.5931H77.5237C77.3492 61.5931 77.2064 61.4508 77.2064 61.2725C77.2064 61.0962 77.3472 60.9519 77.5237 60.9519H88.9208C89.0953 60.9519 89.2381 61.0942 89.2381 61.2725C89.2361 61.4508 89.0953 61.5931 88.9208 61.5931Z" fill="#CED3E6"/>
<path d="M88.9208 58.888H77.5237C77.3492 58.888 77.2064 58.7458 77.2064 58.5674C77.2064 58.3911 77.3472 58.2468 77.5237 58.2468H88.9208C89.0953 58.2468 89.2381 58.3891 89.2381 58.5674C89.2361 58.7438 89.0953 58.888 88.9208 58.888Z" fill="#CED3E6"/>
<path d="M88.9208 64.3001H77.5237C77.3492 64.3001 77.2064 64.1579 77.2064 63.9795C77.2064 63.8032 77.3472 63.6589 77.5237 63.6589H88.9208C89.0953 63.6589 89.2381 63.8012 89.2381 63.9795C89.2361 64.1559 89.0953 64.3001 88.9208 64.3001Z" fill="#CED3E6"/>
<path d="M38.852 71.4115H90.8368V75.7176C90.8368 75.8678 90.7158 75.9901 90.567 75.9901H39.1217C38.973 75.9901 38.852 75.8678 38.852 75.7176V71.4115Z" fill="#39393B"/>
<path d="M85.7314 73.1087V72.72H86.2114V72.3754H85.5588C85.4636 72.3754 85.3882 72.4535 85.3882 72.5477V73.1087H85.7314Z" fill="white"/>
<path d="M85.7314 73.7981H85.3903V74.3892C85.3903 74.4854 85.4676 74.5615 85.5609 74.5615H86.2134V74.2169H85.7334V73.7981H85.7314Z" fill="white"/>
<path d="M87.213 73.1087H87.5541V72.5477C87.5541 72.4515 87.4768 72.3754 87.3836 72.3754H86.7568V72.72H87.213V73.1087Z" fill="white"/>
<path d="M87.213 73.798V74.2148H86.7568V74.5595H87.3836C87.4788 74.5595 87.5541 74.4813 87.5541 74.3871V73.796H87.213V73.798Z" fill="white"/>
<path d="M41.8807 73.5436V72.4515L42.815 72.9966L43.7512 73.5436L42.815 74.0886L41.8807 74.6336V73.5436Z" fill="white"/>
<path d="M47.0635 74.5474H46.8176C46.7263 74.5474 46.6509 74.4712 46.6509 74.379V72.73C46.6509 72.6378 46.7263 72.5616 46.8176 72.5616H47.0635C47.1547 72.5616 47.2301 72.6378 47.2301 72.73V74.379C47.2321 74.4712 47.1567 74.5474 47.0635 74.5474Z" fill="white"/>
<path d="M48.2754 74.5474H48.0295C47.9383 74.5474 47.8629 74.4712 47.8629 74.379V72.73C47.8629 72.6378 47.9383 72.5616 48.0295 72.5616H48.2754C48.3667 72.5616 48.4421 72.6378 48.4421 72.73V74.379C48.4421 74.4712 48.3667 74.5474 48.2754 74.5474Z" fill="white"/>
<path d="M90.8368 70.5499H38.852V71.4115H90.8368V70.5499Z" fill="#CED3E6"/>
<path d="M65.5257 70.5514H38.852V71.413H65.5257V70.5514Z" fill="#DF615C"/>
<path d="M82.524 67.2017H83.1112V68.5001H83.8966V68.959H82.524V67.2017Z" fill="#39393B"/>
<path d="M84.0573 67.2017H84.6444V68.959H84.0573V67.2017Z" fill="#39393B"/>
<path d="M86.7865 67.2017L86.0507 68.959H85.4735L84.7376 67.2017H85.3683L85.7829 68.2276L86.2073 67.2017H86.7865Z" fill="#39393B"/>
<path d="M88.29 68.5121V68.959H86.842V67.2017H88.2563V67.6485H87.4192V67.8549H88.1551V68.2817H87.4192V68.5121H88.29Z" fill="#39393B"/>
<path d="M81.5581 68.0662C81.5581 68.465 81.2387 68.7896 80.842 68.7896C80.4473 68.7896 80.126 68.467 80.126 68.0662C80.126 67.6675 80.4453 67.3429 80.842 67.3429C81.2387 67.3449 81.5581 67.6675 81.5581 68.0662Z" fill="#DF615C"/>
<path d="M45.203 68.5551C45.203 68.9558 44.8261 69.2163 44.2866 69.2163C43.7471 69.2163 43.3702 68.9558 43.3702 68.5551C43.3702 68.3487 43.4714 68.1864 43.644 68.0802C43.519 67.98 43.4416 67.8437 43.4416 67.6734C43.4416 67.2987 43.7888 67.0563 44.2846 67.0563C44.7805 67.0563 45.1276 67.2987 45.1276 67.6734C45.1276 67.8437 45.0522 67.98 44.9253 68.0802C45.0998 68.1864 45.203 68.3487 45.203 68.5551ZM44.5107 68.531C44.5107 68.3988 44.4175 68.3166 44.2866 68.3166C44.1557 68.3166 44.0625 68.3988 44.0625 68.531C44.0625 68.6633 44.1557 68.7454 44.2866 68.7454C44.4175 68.7474 44.5107 68.6653 44.5107 68.531ZM44.122 67.7035C44.122 67.8157 44.1914 67.8798 44.2846 67.8798C44.3778 67.8798 44.4473 67.8157 44.4473 67.7035C44.4473 67.5913 44.3778 67.5272 44.2846 67.5272C44.1914 67.5251 44.122 67.5913 44.122 67.7035Z" fill="#39393B"/>
<path d="M45.3299 68.1363C45.3299 67.451 45.7147 67.0563 46.2562 67.0563C46.7957 67.0563 47.1825 67.451 47.1825 68.1363C47.1825 68.8196 46.7977 69.2163 46.2562 69.2163C45.7147 69.2163 45.3299 68.8216 45.3299 68.1363ZM46.4903 68.1363C46.4903 67.7375 46.3911 67.6133 46.2562 67.6133C46.1213 67.6133 46.0222 67.7375 46.0222 68.1363C46.0222 68.535 46.1213 68.6593 46.2562 68.6593C46.3911 68.6593 46.4903 68.535 46.4903 68.1363Z" fill="#39393B"/>
<path d="M42.1703 67.5563C42.1703 67.907 41.8887 68.1915 41.5416 68.1915C41.1945 68.1915 40.9128 67.907 40.9128 67.5563C40.9128 67.2057 41.1945 66.9211 41.5416 66.9211C41.8887 66.9211 42.1703 67.2057 42.1703 67.5563Z" fill="#DF615C"/>
<path d="M42.7177 69.1613H40.3673C40.3673 69.1613 40.6351 68.408 41.5237 68.408C41.5296 68.408 41.5356 68.408 41.5415 68.408C41.5475 68.408 41.5534 68.408 41.5594 68.408C42.45 68.408 42.7177 69.1613 42.7177 69.1613Z" fill="#DF615C"/>
<path d="M51.452 50.112C51.452 50.112 51.1884 51.7401 50.0005 52.0317C49.0412 52.266 48.1386 51.3373 47.8266 50.9698C47.7515 50.8822 47.7115 50.8266 47.7115 50.8266C47.7115 50.8266 47.6397 50.8333 47.5329 50.8316C47.2827 50.8283 46.8389 50.776 46.6654 50.4659C46.4168 50.0243 47.3194 49.7209 47.3194 49.7209C47.3194 49.7209 46.8572 49.3029 46.9724 48.9996C47.0858 48.7012 47.7065 48.6389 47.7065 48.6389C47.7065 48.6389 47.0391 48.2007 47.2627 47.8181C47.5997 47.2433 48.2904 47.8754 48.3454 47.9108C48.3021 47.8602 47.4362 46.9551 47.91 46.7933C48.3238 46.6517 49.0045 47.122 49.4516 47.5872C49.5233 47.6613 49.5634 47.7035 49.5634 47.7035C49.5634 47.7035 49.5901 47.6832 49.6368 47.6512C49.8603 47.4995 50.5477 47.095 50.9848 47.4641C51.5104 47.9125 51.452 50.112 51.452 50.112Z" fill="#EA9B7A"/>
<path d="M50.2123 51.1115C50.1823 51.125 50.1473 51.125 50.1189 51.1047C50.0755 51.0761 50.0638 51.0171 50.0939 50.9733C50.2507 50.739 50.2991 50.498 50.2374 50.2603C50.0805 49.6502 49.273 49.2288 49.2647 49.2238C49.218 49.2002 49.1996 49.1429 49.223 49.0957C49.2463 49.0485 49.3031 49.03 49.3498 49.0536C49.3865 49.0721 50.2407 49.5187 50.4192 50.2115C50.4943 50.5047 50.4376 50.7963 50.249 51.0778C50.239 51.0929 50.2274 51.1047 50.2123 51.1115Z" fill="#D96C63"/>
<path d="M49.3881 48.7637C49.3881 48.8766 49.3414 48.966 49.2547 49.0233C49.2363 49.0351 49.2163 49.0452 49.1929 49.0553C49.1445 49.0738 49.0861 49.0873 49.0228 49.094C49.0695 49.1244 49.1112 49.1581 49.1429 49.1935C49.1762 49.2289 49.2013 49.266 49.2163 49.3047C49.2363 49.362 49.2446 49.448 49.1746 49.5441C49.0228 49.7463 48.6741 49.8289 48.3904 49.8626C48.594 49.984 48.7708 50.1491 48.8292 50.3143C48.8659 50.4205 48.8542 50.5216 48.7925 50.6042C48.7491 50.6615 48.6774 50.7121 48.589 50.7559C48.3671 50.8655 48.0417 50.9329 47.8249 50.9699C47.7498 50.8823 47.7097 50.8267 47.7097 50.8267C47.7097 50.8267 47.638 50.8351 47.5312 50.8334C47.5446 50.8216 47.5613 50.8149 47.5796 50.8132C47.9283 50.7728 48.5256 50.648 48.6424 50.4913C48.6574 50.4694 48.6724 50.439 48.6524 50.3784C48.5873 50.1963 48.2486 49.9553 47.9567 49.8828C47.9099 49.871 47.8799 49.8272 47.8866 49.7783C47.8916 49.7295 47.9333 49.6941 47.9817 49.6958C48.2153 49.7008 48.8559 49.6604 49.0261 49.4295C49.0511 49.3957 49.0444 49.3772 49.0411 49.3688C49.0261 49.325 48.9727 49.2811 48.8993 49.2373C48.7491 49.148 48.5122 49.0671 48.3421 49.0249C48.322 49.0199 48.3053 49.0098 48.2937 48.9946C48.2736 48.9727 48.2653 48.9407 48.272 48.9103C48.2837 48.8598 48.3354 48.8277 48.3854 48.8395C48.4171 48.848 48.4855 48.8648 48.569 48.8918C48.7274 48.9103 48.8793 48.9188 48.9944 48.907C49.0628 48.9002 49.1178 48.8851 49.1546 48.8631C49.1762 48.8497 49.2013 48.8244 49.2013 48.762C49.2029 48.6828 49.1629 48.58 49.0995 48.4738C49.0795 48.4401 49.0828 48.398 49.1078 48.3676L49.1095 48.3659C49.1495 48.3137 49.228 48.3187 49.2613 48.376C49.3381 48.5075 49.3881 48.644 49.3881 48.7637Z" fill="#D96C63"/>
<path d="M48.6975 46.9822C48.8593 47.0833 49.0011 47.1777 49.1396 47.3091C49.2731 47.4372 49.3581 47.503 49.4499 47.5889C49.4566 47.5788 49.4432 47.599 49.4499 47.5889L47.638 39.8258C47.6113 39.7061 47.4345 39.7432 47.4562 39.8629L48.6975 46.9822C48.6975 46.9822 48.6991 46.9822 48.6975 46.9822Z" fill="#39393B"/>
<path d="M50.2725 51.2935C49.6451 51.7031 49.4683 51.3997 49.4683 51.3997L49.1496 49.576C49.1596 49.5659 49.168 49.5558 49.1763 49.544C49.2464 49.448 49.2381 49.3603 49.218 49.3047C49.203 49.2642 49.178 49.2272 49.1446 49.1935C49.1229 49.1699 49.0979 49.1496 49.0712 49.1277L49.0645 49.0873C49.1113 49.0788 49.1563 49.0687 49.193 49.0536C49.2164 49.0434 49.2364 49.035 49.2547 49.0215C49.3115 48.9845 49.3515 48.9305 49.3715 48.8682C49.4483 48.9423 49.5417 48.9845 49.6535 48.9963C49.6835 48.9996 49.7135 48.9996 49.7452 48.9996L50.2725 51.2935Z" fill="#39393B"/>
<path d="M50.818 48.4468C50.7997 48.4636 50.5227 48.708 50.1991 48.8665C50.0205 48.9541 49.8253 49.0165 49.6535 48.9979C49.5117 48.9827 49.3966 48.917 49.3131 48.8041C49.0145 48.3996 49.2698 47.8704 49.45 47.5906C49.5217 47.6647 49.5617 47.7069 49.5617 47.7069C49.5617 47.7069 49.5884 47.6866 49.6351 47.6546C49.4817 47.8855 49.2231 48.3625 49.465 48.6912C49.5167 48.762 49.5851 48.8007 49.6735 48.8108C50.0055 48.8462 50.5227 48.4586 50.6929 48.3069C50.7313 48.2715 50.7913 48.2749 50.8264 48.3153C50.8614 48.3507 50.8564 48.4114 50.818 48.4468Z" fill="#D96C63"/>
<path d="M60.5146 46.5625V46.5591C60.5146 46.5591 60.5146 46.5557 60.5146 46.5591L60.5129 46.5692L60.5079 46.5928L60.4963 46.6484L60.4712 46.7715C60.4629 46.8136 60.4529 46.8574 60.4445 46.9013C60.4345 46.9451 60.4262 46.9889 60.4145 47.0327C60.3745 47.2097 60.3311 47.39 60.2827 47.5704C60.1843 47.9311 60.0808 48.2934 59.9607 48.6491C59.8389 49.0047 59.7138 49.3603 59.572 49.7058C59.4986 49.8777 59.4285 50.0513 59.3501 50.2199C59.2767 50.3918 59.1949 50.5587 59.1165 50.7255C58.9513 51.0576 58.7795 51.3845 58.5926 51.698C58.5492 51.7789 58.4992 51.8548 58.4508 51.9323C58.4024 52.0098 58.3574 52.089 58.3057 52.1649C58.2056 52.3166 58.1088 52.47 58.002 52.6166C57.7985 52.9166 57.5732 53.1964 57.3497 53.4745C57.1178 53.7442 56.8809 54.0121 56.6289 54.2599C56.5655 54.3223 56.5038 54.3863 56.4404 54.447L56.2452 54.6256L56.1484 54.715L56.1234 54.7369L56.1351 54.7251L56.1518 54.7099C56.1751 54.6914 56.1985 54.6745 56.2252 54.6577C56.3286 54.5835 56.4571 54.5262 56.5756 54.4925C56.6056 54.4841 56.6306 54.4756 56.659 54.4723C56.6723 54.4689 56.6873 54.4672 56.7007 54.4655L56.7357 54.4588C56.7591 54.4554 56.7841 54.4537 56.8058 54.4537C56.8241 54.452 56.8425 54.4503 56.8608 54.452C56.8692 54.452 56.8809 54.4537 56.8859 54.4537C56.8925 54.4537 56.8992 54.4537 56.9059 54.4537C56.9176 54.4537 56.9326 54.4571 56.9426 54.4588C56.9509 54.4588 56.9576 54.4605 56.966 54.4622L56.976 54.4655C56.9776 54.4655 56.9793 54.4655 56.981 54.4655C57.0077 54.4739 56.9543 54.4655 56.8725 54.4301C56.7891 54.3947 56.679 54.3357 56.5589 54.265C56.4387 54.1925 56.3069 54.1048 56.1735 54.0088C55.9049 53.8166 55.6229 53.5874 55.3426 53.343C55.0607 53.0969 54.777 52.8357 54.4951 52.5627C54.2131 52.2913 53.9312 52.0081 53.6542 51.7199C53.3756 51.4317 53.097 51.1368 52.825 50.8384C52.6866 50.6901 52.5497 50.5401 52.4163 50.3901L52.0225 49.9553L48.9811 52.2626L49.0829 52.4177L49.1796 52.561L49.3715 52.8424C49.5016 53.0278 49.6317 53.2116 49.7636 53.3936C50.0305 53.7559 50.3041 54.1149 50.5877 54.4689C50.8747 54.8211 51.1667 55.1717 51.4753 55.5156C51.6305 55.6875 51.7873 55.8594 51.9491 56.0279C52.111 56.1982 52.2778 56.3667 52.4496 56.5336C52.795 56.869 53.1587 57.1976 53.5691 57.5212C53.7743 57.683 53.9929 57.8415 54.2298 57.9982C54.4684 58.155 54.727 58.3083 55.0306 58.4533C55.3343 58.5965 55.6813 58.7364 56.1251 58.8308L56.2068 58.8477C56.2352 58.8527 56.2669 58.8578 56.2969 58.8628C56.357 58.8713 56.4171 58.8797 56.4771 58.8881C56.5388 58.8949 56.6073 58.8999 56.6723 58.9033L56.7708 58.9083C56.8041 58.91 56.8408 58.91 56.8759 58.91C56.9476 58.91 57.0193 58.9083 57.0894 58.905C57.1645 58.8999 57.2412 58.8915 57.318 58.8814C57.3564 58.8763 57.3931 58.8713 57.4331 58.8662C57.4731 58.8595 57.5132 58.851 57.5532 58.8426C57.6333 58.8258 57.7117 58.8089 57.7918 58.7853C58.1155 58.6926 58.4358 58.5409 58.7178 58.3488C58.7862 58.3016 58.8512 58.251 58.9163 58.1988L58.9647 58.16L59.0081 58.1229L59.0431 58.0909L59.1832 57.9662L59.4619 57.715C59.5519 57.6291 59.6404 57.5415 59.7305 57.4538C60.0892 57.1066 60.4195 56.7324 60.7415 56.3532C61.0552 55.9672 61.3571 55.5745 61.6308 55.165C61.911 54.7588 62.163 54.3357 62.4032 53.9093L62.5767 53.5857C62.6351 53.4779 62.6868 53.3683 62.7419 53.2587C62.7969 53.1492 62.8503 53.0413 62.9021 52.9301L63.0555 52.5997C63.4526 51.7132 63.773 50.8014 64.0215 49.8727C64.1433 49.4075 64.2534 48.939 64.3369 48.462C64.3786 48.2226 64.4186 47.9833 64.4503 47.7372C64.4587 47.6766 64.4653 47.6142 64.4737 47.5518C64.4803 47.4895 64.4887 47.4271 64.4954 47.3631C64.502 47.3007 64.5087 47.2333 64.5137 47.1676L64.5321 46.9333L60.5146 46.5625Z" fill="#FAAF3A"/>
<path d="M50.9681 51.7941C50.9797 51.9391 51.1065 52.0486 51.2517 52.0351C51.3952 52.0233 51.5036 51.8952 51.4903 51.7486C51.4786 51.6037 51.3518 51.4941 51.2066 51.5076C51.0632 51.5211 50.9547 51.6492 50.9681 51.7941Z" fill="#C77E2E"/>
<path d="M56.4187 56.3465C56.4688 56.3465 56.5138 56.3128 56.5272 56.2605C56.7374 55.4111 56.7107 54.3442 56.709 54.2987C56.7073 54.2363 56.6556 54.1874 56.5939 54.1891C56.5322 54.1908 56.4838 54.2431 56.4855 54.3054C56.4855 54.3155 56.5121 55.3858 56.3103 56.2049C56.2953 56.2656 56.332 56.3263 56.392 56.3414C56.4004 56.3448 56.4087 56.3465 56.4187 56.3465Z" fill="#C77E2E"/>
<path d="M57.1345 55.5257C57.1512 55.5257 57.1679 55.5223 57.1845 55.5139C57.2396 55.4853 57.263 55.4178 57.2346 55.3622C57.2196 55.3319 56.8575 54.6004 56.6857 54.3813C56.6473 54.3324 56.5772 54.324 56.5289 54.3627C56.4805 54.4015 56.4721 54.4723 56.5105 54.5212C56.6673 54.7201 57.031 55.4549 57.0344 55.4617C57.0544 55.5038 57.0944 55.5257 57.1345 55.5257Z" fill="#C77E2E"/>
<path d="M50.1623 53.9936C50.1924 53.9936 50.2207 53.9818 50.2424 53.9599C51.18 52.9823 53.2972 51.4385 53.3189 51.4233C53.369 51.3862 53.3806 51.3154 53.3439 51.2649C53.3072 51.2143 53.2372 51.2025 53.1871 51.2396C53.1654 51.2547 51.0332 52.8104 50.0822 53.8014C50.0389 53.847 50.0405 53.9177 50.0839 53.9616C50.1056 53.9818 50.134 53.9936 50.1623 53.9936Z" fill="#C77E2E"/>
<path d="M51.0683 53.1576C51.0933 53.1576 51.1183 53.1492 51.14 53.1306C51.1867 53.0902 51.1934 53.0194 51.155 52.9705L50.0239 51.5986C49.9838 51.5514 49.9138 51.5446 49.8654 51.5834C49.8187 51.6238 49.812 51.6946 49.8504 51.7435L50.9815 53.1155C51.0049 53.1441 51.0366 53.1576 51.0683 53.1576Z" fill="#C77E2E"/>
<path d="M63.2825 79.8583L64.8007 70.8108L64.9258 70.0709L60.5563 68.5136L60.3077 68.4243L59.2667 68.0535C59.2667 68.0535 59.1833 68.4411 59.0548 69.1052C59.0398 69.1861 59.0231 69.2704 59.0064 69.358C58.596 71.4985 57.8285 75.9076 57.6183 79.8566H63.2825V79.8583Z" fill="#39393B"/>
<path d="M62.5066 79.8583C63.1623 76.2514 64.0065 70.9794 64.0566 70.6709C64.0666 70.6052 64.0232 70.5445 63.9581 70.5344C63.8947 70.5243 63.833 70.5681 63.823 70.6338C63.8113 70.7097 62.9354 76.1823 62.2664 79.8583H62.5066Z" fill="#585859"/>
<path d="M72.1215 65.1647C72.1215 65.1647 72.4502 68.3165 71.7411 70.071C71.0321 71.8256 61.8443 70.9222 59.5036 69.3429C58.5426 68.6957 60.588 62.7191 60.588 62.7191L72.1215 65.1647Z" fill="#39393B"/>
<path d="M59.0047 69.3598C59.1432 69.3345 59.28 69.2991 59.4118 69.2536C59.622 69.1811 59.8239 69.0833 60.0157 68.9586C60.2143 68.8288 60.3945 68.6788 60.5546 68.5137C61.5673 67.4822 61.866 65.9214 61.8793 65.8456C61.891 65.7816 61.8493 65.7192 61.7842 65.7057C61.7208 65.6939 61.6591 65.7361 61.6458 65.8018C61.6424 65.8203 61.3321 67.4434 60.3044 68.4243C60.1759 68.5474 60.0358 68.6603 59.8856 68.7581C59.7038 68.876 59.5102 68.9687 59.3083 69.0362C59.2249 69.0631 59.1398 69.0867 59.0514 69.1053C59.0381 69.1862 59.0214 69.2704 59.0047 69.3598Z" fill="#585859"/>
<path d="M64.6722 70.2412C64.6688 70.3036 64.7189 70.3575 64.7839 70.3626C64.7839 70.3626 64.7839 70.3626 64.7856 70.3626C64.8507 70.366 64.9057 70.3171 64.9091 70.253C64.9291 69.8216 64.9558 69.3817 64.9825 68.9401C64.9875 68.8625 64.9925 68.785 64.9975 68.7075C65.0909 67.2681 65.2077 65.854 65.2961 64.8546C65.3028 64.7737 65.3095 64.6961 65.3178 64.6203C65.3378 64.4012 65.3562 64.2074 65.3712 64.0422C65.2928 64.0304 65.2144 64.0169 65.1376 64.0034C65.1226 64.1686 65.1043 64.3641 65.0842 64.5849C65.0776 64.6607 65.0709 64.7383 65.0626 64.8192C64.9741 65.8085 64.8573 67.2108 64.7656 68.6418C64.7606 68.721 64.7556 68.8002 64.7506 68.8794C64.7205 69.3362 64.6938 69.7946 64.6722 70.2412Z" fill="#585859"/>
<path d="M64.3369 68.7209C64.3736 68.7394 64.5388 68.817 64.749 68.881C64.8224 68.9029 64.9008 68.9248 64.9826 68.94C65.056 68.9552 65.1311 68.9653 65.2061 68.9687C65.3496 68.9771 65.4864 68.9619 65.6015 68.9063C65.745 68.8372 65.8384 68.7108 65.8701 68.5422C65.9552 68.0973 66.1354 66.2635 66.2572 64.9657C66.2656 64.8865 66.2722 64.8073 66.2789 64.7331C66.2973 64.5258 66.3156 64.3371 66.3306 64.1769C66.2522 64.1668 66.1738 64.1584 66.0954 64.1466C66.0804 64.3084 66.0637 64.4989 66.0437 64.7095C66.037 64.7854 66.0286 64.8629 66.022 64.9421C65.9002 66.2366 65.7217 68.0686 65.6382 68.4984C65.6199 68.5979 65.5748 68.6619 65.4964 68.699C65.3713 68.7597 65.1844 68.7462 64.9976 68.7057C64.9175 68.6889 64.8391 68.6653 64.7657 68.6417C64.6305 68.5979 64.5138 68.5473 64.442 68.5136C64.3836 68.4849 64.3135 68.5085 64.2835 68.5658C64.2535 68.6231 64.2785 68.6922 64.3369 68.7209Z" fill="#585859"/>
<path d="M70.9787 79.8583C71.3424 76.5009 71.7629 72.0059 71.9998 69.4035C72.0081 69.3226 72.0148 69.2434 72.0215 69.1659C72.1266 68.0164 72.19 67.2934 72.19 67.2934C71.6261 67.0557 70.6033 67.2192 69.5156 67.531C69.4371 67.5529 69.3587 67.5765 69.2786 67.6001C67.3467 68.185 65.2979 69.1726 65.2979 69.1726V79.8583H70.9787Z" fill="#39393B"/>
<path d="M70.4231 79.8583C70.7368 76.1251 71.1088 70.7316 71.1138 70.6609C71.1188 70.5951 71.0688 70.5378 71.0037 70.5328C70.9387 70.5294 70.8819 70.5783 70.8786 70.644C70.8736 70.7148 70.4999 76.1284 70.1862 79.8583H70.4231Z" fill="#585859"/>
<path d="M68.6296 65.8456C68.6397 65.9012 68.8015 66.7456 69.2803 67.6001C69.5623 68.1041 69.956 68.6097 70.4932 68.9586C70.9453 69.2518 71.4492 69.4002 71.9998 69.4035C72.0081 69.3226 72.0148 69.2434 72.0215 69.1659C71.5076 69.1659 71.0388 69.0294 70.6217 68.7597C70.1412 68.4479 69.7825 67.9928 69.5172 67.5327C69.0284 66.6832 68.8632 65.8169 68.8615 65.8034C68.8499 65.7394 68.7881 65.6956 68.7247 65.7074C68.6597 65.7175 68.618 65.7798 68.6296 65.8456Z" fill="#585859"/>
<path d="M59.1799 64.9658C61.7225 67.3641 67.737 68.6383 72.3718 66.3579C72.8806 64.954 73.4395 59.9448 73.5897 58.4465C73.6197 58.1481 73.6431 57.8498 73.6631 57.5515C73.7565 56.1155 73.7365 54.6677 73.6681 53.1542C73.6648 53.0716 73.6598 52.989 73.6564 52.9064C73.5964 51.6609 73.5046 50.3698 73.4195 48.9979C73.251 46.2826 72.3534 44.6107 70.7951 44.3612C70.0711 44.2449 69.4971 44.0393 69.075 43.8371C69.0233 43.8118 68.9749 43.7882 68.9266 43.7629C68.4244 43.5033 68.1391 43.2708 68.1391 43.2708H64.6638C64.3652 43.7107 63.9881 43.9888 63.5827 44.1843C63.5377 44.2062 63.4926 44.2264 63.4459 44.2466C62.213 44.7843 60.7748 44.6781 60.4779 46.1798C60.291 47.1237 61.0067 49.0636 60.9317 52.9991C60.9267 53.2873 60.9167 53.5873 60.9016 53.8975C60.8883 54.189 60.8699 54.4891 60.8466 54.7992C60.8249 55.0874 60.7999 55.3874 60.7698 55.6941C60.7431 55.9621 60.7131 56.2385 60.6797 56.52C60.6447 56.8099 60.6063 57.1065 60.563 57.4116C60.3344 59.0515 59.7138 62.8623 59.1799 64.9658Z" fill="#FAAF3A"/>
<path d="M71.0905 65.7866C71.0821 65.7866 71.0721 65.7849 71.0621 65.7832C71.0071 65.7681 70.9737 65.7107 70.9887 65.6534C72.919 58.5038 72.5286 51.2379 72.5253 51.1654C72.522 51.1081 72.5653 51.0575 72.6237 51.0541C72.6821 51.0508 72.7305 51.0946 72.7338 51.1536C72.7372 51.2261 73.1292 58.5274 71.1906 65.7107C71.1789 65.7546 71.1372 65.7866 71.0905 65.7866Z" fill="#C77E2E"/>
<path d="M60.6181 56.4998C60.6748 56.4998 60.7232 56.4577 60.7298 56.3987C60.9601 54.3306 60.9634 50.2182 60.9634 50.176C60.9634 50.1137 60.9134 50.0631 60.8516 50.0631C60.7899 50.0631 60.7398 50.1137 60.7398 50.176C60.7398 50.2165 60.7365 54.3188 60.5079 56.3734C60.5013 56.4358 60.5446 56.4914 60.6064 56.4981C60.6097 56.4998 60.613 56.4998 60.6181 56.4998Z" fill="#C77E2E"/>
<path d="M65.3779 64.2883C65.3896 64.4332 65.5164 64.5428 65.6615 64.5293C65.805 64.5175 65.9134 64.3894 65.9001 64.2428C65.8884 64.0978 65.7616 63.9882 65.6165 64.0017C65.473 64.0135 65.3662 64.1416 65.3779 64.2883Z" fill="#C77E2E"/>
<path d="M65.3362 65.5691C65.3478 65.7141 65.4746 65.8236 65.6198 65.8102C65.7633 65.7984 65.8717 65.6703 65.8584 65.5236C65.8467 65.3787 65.7199 65.2691 65.5747 65.2826C65.4313 65.2944 65.3245 65.4225 65.3362 65.5691Z" fill="#C77E2E"/>
<path d="M62.2764 51.4822C61.594 50.6816 61.8493 48.9001 61.8609 48.8242C61.8693 48.7686 61.916 48.7281 61.9711 48.7281H64.2851C64.3402 48.7281 64.3869 48.7686 64.3952 48.8242C64.4069 48.9001 64.6622 50.6816 63.9798 51.4822C63.7629 51.7367 63.4759 51.8648 63.1272 51.8648C62.7802 51.8664 62.4933 51.7367 62.2764 51.4822ZM62.0712 48.954C62.0278 49.3299 61.9143 50.7102 62.4465 51.3338C62.6217 51.5395 62.8453 51.6389 63.1289 51.6389C63.4142 51.6389 63.6378 51.5395 63.8113 51.3338C64.3435 50.7102 64.23 49.3299 64.1867 48.954H62.0712Z" fill="#C77E2E"/>
<path d="M68.4544 34.6177C67.8071 34.1947 65.7666 33.9823 65.7666 33.9823C65.7666 33.9823 65.4313 33.0924 65.0526 32.8379C64.1933 32.2598 64.0866 33.4312 64.0866 33.4312C64.0866 33.4312 63.2474 32.243 62.4916 32.5834C61.7358 32.9222 62.7018 34.0262 62.7018 34.0262C62.7018 34.0262 61.569 33.8138 61.6941 34.7897C61.8192 35.7655 62.912 36.1886 62.912 36.1886C62.912 36.1886 62.5767 36.7397 62.7435 37.6313C62.912 38.5212 63.2891 38.565 63.2891 38.565L67.9922 38.9898C67.9922 38.9898 68.9582 38.9898 69.2102 37.7594C69.4621 36.529 68.6229 36.02 68.6229 36.02C68.6229 36.02 69.1684 35.0846 68.4544 34.6177Z" fill="#39393B"/>
<path d="M64.6138 42.6758V43.5674C64.7172 43.6517 64.8223 43.7258 64.9258 43.7882C66.459 44.7185 68.1141 43.5674 68.1141 43.5674V40.4746L65.0309 42.4129L64.6138 42.6758Z" fill="#EA9B7A"/>
<path d="M64.6138 42.6505V43.5691C64.7172 43.6534 64.8223 43.7275 64.9258 43.7899C66.2321 43.2674 67.1831 41.8837 67.1831 41.8837L65.0309 42.4146L64.6138 42.6505Z" fill="#39393B"/>
<path d="M68.1074 42.6624C68.1074 42.6624 69.1402 42.8376 69.4238 44.0309C68.4178 45.0944 67.5285 46.0147 66.0904 46.2844V44.1489C66.0887 44.1489 67.36 43.8287 68.1074 42.6624Z" fill="#FAAF3A"/>
<path d="M64.5821 42.9707C64.5821 42.9707 63.6595 43.1713 63.3025 44.3629C64.2318 45.5056 64.729 45.9354 66.0904 46.2843V44.1488C66.0887 44.1488 65.3296 44.137 64.5821 42.9707Z" fill="#FAAF3A"/>
<path d="M64.0616 59.5639L64.6589 61.0218L64.9275 61.6775L65.6866 63.5264L66.052 62.8118L66.1821 62.5589L66.4758 61.9859L66.6059 61.7331L66.8995 61.16L67.0297 60.9072L67.3233 60.3342L67.4518 60.0813L67.7287 59.5437L67.722 59.4847L67.6803 59.0583L67.5819 58.0892L67.5385 57.6627L67.4418 56.6936L67.3984 56.2672L67.2999 55.2981L67.2582 54.8716L67.1598 53.9025L67.1164 53.4744L67.0197 52.507L66.9763 52.0789L66.8795 51.1114L66.8361 50.6833L66.7377 49.7159L66.6943 49.2878L66.5976 48.3203L66.5542 47.8922L66.4541 46.8911L65.7217 46.8624L65.7 47.0293L65.6549 47.3681L65.5548 48.1366L65.5114 48.4754L65.4097 49.244L65.3663 49.5827L65.2662 50.3513L65.2211 50.6901L65.121 51.4586L65.076 51.7974L64.9759 52.566L64.9325 52.9047L64.8324 53.6733L64.7874 54.0121L64.6873 54.7806L64.6422 55.1211L64.5421 55.888L64.4987 56.2267L64.397 56.9953L64.3536 57.3358L64.2535 58.1043L64.2084 58.4431L64.1083 59.2117L64.0633 59.5504L64.0616 59.5639Z" fill="#39393B"/>
<path d="M65.6549 47.3681L66.5976 48.3203L66.5542 47.8922L65.7 47.0293L65.6549 47.3681Z" fill="#585859"/>
<path d="M65.5114 48.4754L66.7377 49.7159L66.6943 49.2878L65.5548 48.1366L65.5114 48.4754Z" fill="#585859"/>
<path d="M65.3663 49.5828L66.8795 51.1115L66.8361 50.6834L65.4096 49.244L65.3663 49.5828Z" fill="#585859"/>
<path d="M65.2211 50.6901L67.0196 52.507L66.9762 52.0789L65.2661 50.3513L65.2211 50.6901Z" fill="#585859"/>
<path d="M65.076 51.7974L67.1598 53.9025L67.1164 53.4744L65.121 51.4586L65.076 51.7974Z" fill="#585859"/>
<path d="M64.9325 52.9047L67.2999 55.298L67.2582 54.8716L64.9759 52.5659L64.9325 52.9047Z" fill="#585859"/>
<path d="M64.7874 54.012L67.4418 56.6935L67.3984 56.2671L64.8324 53.6732L64.7874 54.012Z" fill="#585859"/>
<path d="M64.6422 55.1211L67.5819 58.0892L67.5385 57.6627L64.6873 54.7806L64.6422 55.1211Z" fill="#585859"/>
<path d="M64.4987 56.2267L67.722 59.4847L67.6803 59.0582L64.5421 55.8879L64.4987 56.2267Z" fill="#585859"/>
<path d="M64.3536 57.3357L67.3233 60.3341L67.4518 60.0813L64.397 56.9952L64.3536 57.3357Z" fill="#585859"/>
<path d="M64.2084 58.4431L66.8995 61.1601L67.0296 60.9073L64.2535 58.1044L64.2084 58.4431Z" fill="#585859"/>
<path d="M64.0634 59.5504L66.4758 61.9859L66.606 61.7331L64.1084 59.2117L64.0634 59.5504Z" fill="#585859"/>
<path d="M64.6588 61.0219L64.9275 61.6775L66.0519 62.8118L66.1821 62.559L64.6588 61.0219Z" fill="#585859"/>
<path d="M66.454 46.8911L66.0887 47.4389L65.7216 46.8624L65.6566 47.3546L66.0837 47.7928L66.4924 47.272L66.454 46.8911Z" fill="#585859"/>
<path d="M67.0664 45.9725L66.0887 47.4388L65.1527 45.9725L66.0887 44.7472L67.0664 45.9725Z" fill="#39393B"/>
<path d="M67.6336 46.9754C67.6586 46.9754 67.6836 46.967 67.7037 46.9501C68.6713 46.1714 69.4938 44.1573 69.5289 44.0714C69.5522 44.0141 69.5255 43.9467 69.4671 43.9231C69.4104 43.8995 69.3437 43.9264 69.3203 43.9854C69.312 44.0056 68.5362 45.9018 67.6519 46.6956L66.1804 44.6765C66.1587 44.6478 66.1254 44.6293 66.0887 44.6309C66.052 44.6309 66.0186 44.6495 65.9986 44.6781L64.6255 46.6467C64.4153 46.2641 63.8647 45.2495 63.4026 44.309C63.3759 44.2534 63.3075 44.2298 63.2524 44.2585C63.1974 44.2854 63.174 44.3545 63.2024 44.4102C63.7863 45.5984 64.5104 46.9029 64.517 46.9164C64.5354 46.9501 64.5704 46.972 64.6088 46.9737C64.6472 46.9754 64.6839 46.9569 64.7056 46.9265L66.092 44.9394L67.5418 46.9282C67.5602 46.9535 67.5869 46.9687 67.6169 46.9737C67.6236 46.9754 67.6286 46.9754 67.6336 46.9754Z" fill="#C77E2E"/>
<path d="M66.0919 44.8601C66.1537 44.8601 66.2037 44.8096 66.2037 44.7472V44.2416C66.2037 44.1792 66.1537 44.1287 66.0919 44.1287C66.0302 44.1287 65.9802 44.1792 65.9802 44.2416V44.7472C65.9802 44.8096 66.0302 44.8601 66.0919 44.8601Z" fill="#C77E2E"/>
<path d="M63.5093 38.7217C63.5093 38.7217 63.0071 38.1234 62.7235 38.7217C62.4399 39.3201 62.6584 40.5319 63.4209 40.3347L63.5093 38.7217Z" fill="#D96C63"/>
<path d="M62.9754 40.8218C62.9754 40.8218 62.9721 42.6674 64.8724 42.6623C66.761 42.659 68.0473 41.1606 68.114 41.0915C68.1157 41.0898 68.1157 41.0898 68.1157 41.0898L68.1357 40.7022L68.2425 38.6897L68.2992 37.6144C68.2992 37.6144 68.5411 35.6779 66.7176 35.3239C65.3862 35.066 64.1383 35.2885 63.5076 35.9914C63.4876 36.0133 63.4676 36.0369 63.4492 36.0605C63.2507 36.3065 63.1239 36.6082 63.0905 36.9622L63.0321 38.8937L63.0171 39.3673L62.9754 40.8218Z" fill="#EA9B7A"/>
<path d="M65.1559 37.5082C65.1559 37.5082 65.9534 38.1082 66.4273 37.7256C66.9011 37.3431 65.7966 36.9267 65.4329 36.9588C65.0692 36.9891 64.919 37.3717 65.1559 37.5082Z" fill="#39393B"/>
<path d="M64.2885 37.5082C64.2885 37.5082 63.491 38.1082 63.0172 37.7256C62.5433 37.3431 63.6478 36.9267 64.0115 36.9588C64.3752 36.9891 64.5254 37.3717 64.2885 37.5082Z" fill="#39393B"/>
<path d="M64.9174 41.0629C65.2211 41.0899 65.4496 40.8977 65.4613 40.8876C65.4964 40.8573 65.4997 40.8033 65.4697 40.768C65.4396 40.7326 65.3862 40.7292 65.3512 40.7595C65.3395 40.7696 65.0759 40.9904 64.7673 40.8505C64.7256 40.832 64.6755 40.8505 64.6572 40.8944C64.6388 40.9365 64.6572 40.9871 64.7005 41.0056C64.7739 41.0376 64.8474 41.0562 64.9174 41.0629Z" fill="#D96C63"/>
<path d="M65.7399 39.7449C65.7399 39.7449 64.5804 39.9808 63.9948 39.9269C63.9948 39.9269 64.2134 40.7983 65.0759 40.5792C65.7466 40.4072 65.7399 39.7449 65.7399 39.7449Z" fill="white"/>
<path d="M63.4509 36.0605C63.7495 35.9543 63.9648 36.0537 64.4286 36.2593C65.0993 36.5577 65.85 36.2897 66.514 35.9458C67.1781 35.6037 67.5751 36.0807 67.3499 36.3925C67.1247 36.706 67.148 36.9588 67.4 37.3566C67.6502 37.7543 66.9261 37.9414 67.3266 38.2532C67.4951 38.3847 67.485 38.5819 67.4166 38.7656C67.3416 38.9662 67.5167 39.1701 67.7236 39.1313C67.9405 39.0757 68.2442 38.6897 68.2442 38.6897L68.3009 37.6144C68.3009 37.6144 68.5428 35.6779 66.7193 35.3239C65.3879 35.066 64.1399 35.2885 63.5093 35.9914C63.4893 36.0133 63.4692 36.0352 63.4509 36.0605Z" fill="#39393B"/>
<path d="M65.5114 39.1314C65.5114 39.2662 65.785 39.3741 66.1237 39.3741C66.4607 39.3741 66.736 39.2645 66.736 39.1314C66.736 38.9965 66.4623 38.8887 66.1237 38.8887C65.785 38.8887 65.5114 38.9965 65.5114 39.1314Z" fill="#D96C63"/>
<path d="M63.0188 39.3673C63.0655 39.3724 63.1156 39.3741 63.1656 39.3741C63.5026 39.3741 63.7762 39.2645 63.7762 39.1314C63.7762 38.9965 63.5026 38.8887 63.1656 38.8887C63.1206 38.8887 63.0755 38.8904 63.0321 38.8954L63.0188 39.3673Z" fill="#D96C63"/>
<path d="M65.2461 38.3915C65.2461 38.5752 65.3295 38.7252 65.4313 38.7252C65.5331 38.7252 65.6165 38.5752 65.6165 38.3915C65.6165 38.2077 65.5331 38.0577 65.4313 38.0577C65.3295 38.0577 65.2461 38.2077 65.2461 38.3915Z" fill="#39393B"/>
<path d="M63.4109 38.3915C63.4109 38.5752 63.4943 38.7252 63.5961 38.7252C63.6979 38.7252 63.7813 38.5752 63.7813 38.3915C63.7813 38.2077 63.6979 38.0577 63.5961 38.0577C63.4943 38.0577 63.4109 38.2077 63.4109 38.3915Z" fill="#39393B"/>
<path d="M67.5184 40.3431C67.5267 40.3634 67.767 40.9263 68.1123 41.0915C68.114 41.0898 68.114 41.0898 68.114 41.0898L68.134 40.7021C68.1357 40.7021 67.8354 40.6499 67.5184 40.3431Z" fill="#39393B"/>
<path d="M67.8537 39.0605C67.8537 39.0605 68.5845 38.0695 69.1184 38.8481C69.5588 39.4903 68.7263 41.1623 67.8537 40.5892V39.0605Z" fill="#EA9B7A"/>
<path d="M67.9539 40.291C67.9923 40.291 68.024 40.2623 68.029 40.2235C68.1107 39.4735 68.7314 39.2123 68.758 39.2022C68.7964 39.187 68.8148 39.1432 68.7998 39.1027C68.7847 39.064 68.7414 39.0454 68.703 39.0606C68.673 39.0724 67.9706 39.364 67.8805 40.2067C67.8755 40.2488 67.9055 40.2859 67.9472 40.291C67.9472 40.291 67.9506 40.291 67.9539 40.291Z" fill="#39393B"/>
<path d="M68.6546 39.8308C68.6763 39.8308 68.698 39.8207 68.713 39.8021C68.7397 39.7701 68.7347 39.7212 68.7013 39.696C68.6713 39.6707 68.4026 39.4566 68.1757 39.5156C68.1357 39.5257 68.1107 39.5679 68.1224 39.6083C68.1324 39.6488 68.1741 39.674 68.2141 39.6622C68.3443 39.6285 68.5411 39.76 68.6079 39.8139C68.6212 39.8257 68.6379 39.8308 68.6546 39.8308Z" fill="#39393B"/>
<path d="M64.6538 39.3202C64.6955 39.3202 64.7289 39.2865 64.7289 39.2443C64.7289 39.2022 64.6955 39.1685 64.6538 39.1685C64.3768 39.1685 64.2484 39.0202 64.205 38.9578C64.5053 38.3342 64.8023 37.7055 64.8056 37.6988C64.824 37.6617 64.8073 37.6162 64.7706 37.5977C64.7339 37.5791 64.6888 37.596 64.6705 37.6331C64.6671 37.6398 64.3585 38.2921 64.0532 38.9292C64.0432 38.9494 64.0432 38.973 64.0532 38.9949C64.0582 39.0067 64.2083 39.3202 64.6538 39.3202Z" fill="#39393B"/>
<path d="M82.8309 46.1613C82.8309 46.1613 83.842 47.1928 84.8413 46.7917C85.6472 46.4664 85.8257 45.3338 85.8657 44.9107C85.8757 44.8096 85.8757 44.7489 85.8757 44.7489C85.8757 44.7489 85.9308 44.7169 86.0059 44.6613C86.1827 44.5298 86.4763 44.2635 86.4446 43.9517C86.3996 43.5067 85.5988 43.7545 85.5988 43.7545C85.5988 43.7545 85.7206 43.2169 85.4837 43.0584C85.2517 42.9034 84.7746 43.1781 84.7746 43.1781C84.7746 43.1781 85.0332 42.5191 84.6795 42.3606C84.1473 42.1213 83.9721 42.932 83.9487 42.9843C83.9537 42.9253 84.2073 40.4426 83.7852 40.5707C83.4165 40.6819 83.0778 42.7567 82.9911 43.3214C82.9777 43.4107 82.9711 43.4612 82.9711 43.4612C82.9711 43.4612 82.941 43.4596 82.891 43.4612C82.6541 43.468 81.9583 43.532 81.8299 44.0208C81.6781 44.6141 82.8309 46.1613 82.8309 46.1613Z" fill="#EA9B7A"/>
<path d="M84.8997 44.4085C84.8147 44.6006 84.7713 44.8096 84.813 44.958C84.8397 45.054 84.8997 45.1198 84.9865 45.1467C85.0466 45.1653 85.1233 45.1653 85.2084 45.1501C85.4236 45.1147 85.6906 44.995 85.8657 44.9091C85.8758 44.8079 85.8758 44.7473 85.8758 44.7473C85.8758 44.7473 85.9308 44.7153 86.0076 44.6596C85.9925 44.6579 85.9759 44.663 85.9625 44.6697C85.6922 44.8197 85.2017 45.0389 85.0366 44.9866C85.0149 44.9799 84.9882 44.9647 84.9732 44.9108C84.9281 44.7473 85.0482 44.4001 85.2217 44.1961C85.2501 44.1641 85.2484 44.1152 85.2201 44.0849C85.1917 44.0529 85.1433 44.0478 85.11 44.0748C84.9448 44.1978 84.466 44.4995 84.2274 44.422C84.1923 44.4102 84.1873 44.395 84.1857 44.3866C84.1757 44.3478 84.1907 44.2871 84.2224 44.218C84.2858 44.0765 84.4142 43.8961 84.516 43.7781C84.5277 43.7647 84.5344 43.7478 84.536 43.7326C84.5394 43.7057 84.5294 43.6787 84.5093 43.6602C84.4743 43.6298 84.4226 43.6332 84.3926 43.6686C84.3475 43.7208 84.189 43.9096 84.0939 44.1051C84.0589 44.1759 84.0339 44.2484 84.0238 44.3141C84.0172 44.3562 84.0188 44.3967 84.0288 44.4321C84.0439 44.4827 84.0806 44.5501 84.1807 44.5821C84.3875 44.6512 84.6795 44.5299 84.8997 44.4085Z" fill="#D96C63"/>
<path d="M83.6317 43.7023C83.6651 43.7124 83.6884 43.7394 83.6918 43.7748C83.7001 43.8843 83.7251 43.9787 83.7652 44.0343C83.7969 44.0781 83.8269 44.0832 83.8503 44.0832C83.887 44.0815 83.9337 44.063 83.9871 44.0326C84.1189 43.9568 84.2857 43.8068 84.4308 43.6602C84.4292 43.677 84.4225 43.6922 84.4108 43.7057C84.3091 43.8236 84.1806 44.004 84.1172 44.1456C84.1005 44.1557 84.0838 44.1675 84.0671 44.1759C84.0138 44.2062 83.9637 44.2281 83.917 44.2416C83.8953 44.2467 83.8769 44.2501 83.8569 44.2501C83.7668 44.2534 83.6884 44.213 83.63 44.1321C83.57 44.0478 83.5366 43.9231 83.5249 43.7866C83.5199 43.7293 83.5733 43.6854 83.6284 43.7006C83.63 43.7023 83.6317 43.7023 83.6317 43.7023Z" fill="#D96C63"/>
<path d="M82.4439 44.6411C82.4656 44.6428 82.7876 44.6765 83.0996 44.6225C83.2731 44.5939 83.4432 44.5383 83.5567 44.4355C83.6501 44.3512 83.7002 44.245 83.7035 44.1203C83.7135 43.6753 83.2631 43.4276 82.9928 43.3197C82.9794 43.409 82.9728 43.4596 82.9728 43.4596C82.9728 43.4596 82.9427 43.4579 82.8927 43.4596C83.1196 43.5456 83.545 43.7545 83.5383 44.1152C83.5367 44.1928 83.5066 44.2551 83.4482 44.3091C83.228 44.5063 82.6608 44.4945 82.4622 44.4725C82.4172 44.4675 82.3755 44.5012 82.3705 44.5467C82.3655 44.5956 82.3988 44.636 82.4439 44.6411Z" fill="#D96C63"/>
<path d="M84.2241 46.2406C84.2524 46.2355 84.2775 46.217 84.2875 46.1883C84.3042 46.1445 84.2825 46.0973 84.2391 46.0804C84.0088 45.9928 83.852 45.8445 83.7769 45.6439C83.5817 45.1265 83.9471 44.4068 83.9521 44.4001C83.9738 44.3596 83.9571 44.309 83.9171 44.2871C83.877 44.2652 83.827 44.2821 83.8053 44.3225C83.7886 44.3545 83.4016 45.1164 83.6235 45.7029C83.7169 45.9523 83.9054 46.131 84.1824 46.2372C84.1957 46.2422 84.2107 46.2422 84.2241 46.2406Z" fill="#D96C63"/>
<path d="M71.9163 44.9579L73.6448 46.4748C73.9217 46.736 74.1987 46.9939 74.4773 47.2518C74.7543 47.5096 75.0312 47.7658 75.3098 48.0187C75.5885 48.2715 75.8654 48.5226 76.1424 48.7687C76.4193 49.0147 76.6979 49.2558 76.9732 49.4867C77.2468 49.7193 77.5221 49.9434 77.779 50.1356C77.9058 50.2316 78.031 50.3193 78.1311 50.385L78.1978 50.4288L78.2245 50.4457C78.2295 50.4491 78.2312 50.4507 78.2345 50.4541C78.2445 50.4642 78.2512 50.471 78.2562 50.4777C78.2645 50.4895 78.2645 50.4996 78.2746 50.508C78.2846 50.5182 78.3113 50.5249 78.3596 50.5215C78.4564 50.5148 78.6366 50.4524 78.8451 50.3311C79.052 50.2097 79.2823 50.0344 79.5092 49.8288C79.7361 49.6215 79.968 49.3889 80.1915 49.1361C80.6403 48.6288 81.0724 48.0574 81.4812 47.4591C81.8916 46.8608 82.1819 46.3989 82.5523 45.7618C83.1512 46.4933 84.0722 46.8557 85.0715 46.7343C84.7896 47.508 84.4642 48.2597 84.0972 49.0063C83.7252 49.7496 83.3147 50.4861 82.8159 51.2075C82.5656 51.5682 82.2954 51.9272 81.9834 52.2778C81.6714 52.6283 81.3244 52.9739 80.9006 53.3008C80.6887 53.4626 80.4568 53.6211 80.1949 53.7643C79.9329 53.9059 79.6426 54.0357 79.319 54.1334C78.9953 54.2295 78.6366 54.2952 78.2629 54.302C77.8892 54.3104 77.5021 54.2598 77.1434 54.157C76.9632 54.1065 76.7897 54.0441 76.6262 53.9716L76.5061 53.916L76.4043 53.8655C76.3693 53.8486 76.3409 53.8334 76.3092 53.8166C76.2792 53.7997 76.2458 53.7829 76.2174 53.7677C75.9839 53.6396 75.7837 53.5166 75.5918 53.3935C75.2114 53.1491 74.8694 52.9064 74.534 52.6604C74.2004 52.4143 73.88 52.1648 73.563 51.9154C73.2477 51.6659 72.9357 51.4131 72.6304 51.1586C72.3251 50.9024 72.0215 50.6479 71.7228 50.3884C71.4242 50.1288 71.1289 49.8676 70.8336 49.6047C70.5416 49.34 70.2496 49.0754 69.961 48.8074L69.5289 48.4029L69.3153 48.1973C69.2436 48.1282 69.1735 48.0608 69.0984 47.9866L71.9163 44.9579Z" fill="#FAAF3A"/>
<path d="M73.5664 52.1227C73.5463 52.1227 73.5247 52.116 73.5063 52.1042C72.3651 51.2968 70.3347 49.5962 70.3147 49.5794C70.2696 49.5423 70.2646 49.4766 70.3013 49.431C70.3381 49.3855 70.4031 49.3805 70.4482 49.4176C70.4682 49.4344 72.4919 51.13 73.6264 51.9322C73.6731 51.9659 73.6848 52.0317 73.6515 52.0789C73.6314 52.1058 73.5981 52.1227 73.5664 52.1227Z" fill="#C77E2E"/>
<path d="M71.2047 50.2822C71.1997 50.2822 71.1946 50.2822 71.1896 50.2805L70.3855 50.1625C70.3288 50.1541 70.2887 50.1001 70.2971 50.0428C70.3054 49.9855 70.3588 49.9451 70.4155 49.9535L71.2197 50.0715C71.2764 50.0799 71.3164 50.1338 71.3081 50.1911C71.3014 50.2451 71.2564 50.2822 71.2047 50.2822Z" fill="#C77E2E"/>
<path d="M84.511 48.0457C84.5527 48.0237 84.576 47.9766 84.566 47.9277C84.5543 47.8704 84.4976 47.8333 84.4392 47.8451C82.9243 48.1788 82.1702 46.7192 82.1636 46.704C82.1369 46.6518 82.0735 46.6299 82.0201 46.6568C82.0201 46.6568 82.0201 46.6568 82.0184 46.6568C81.9667 46.6838 81.9467 46.7479 81.9734 46.8001C81.9817 46.817 82.8109 48.4215 84.4843 48.0524C84.4943 48.0541 84.5026 48.0507 84.511 48.0457Z" fill="#C77E2E"/>
<path d="M83.7318 48.0743C83.7535 48.0625 83.7702 48.0457 83.7802 48.0221L84.2791 46.8456C84.3024 46.7917 84.2774 46.7276 84.224 46.704C84.1706 46.6804 84.1072 46.7057 84.0839 46.7597L83.585 47.9361C83.5617 47.99 83.5867 48.0541 83.6401 48.0777C83.6718 48.0912 83.7051 48.0878 83.7318 48.0743Z" fill="#C77E2E"/>
<path d="M82.8392 46.9433C82.8859 47.0343 82.9977 47.0697 83.0878 47.0225C83.1779 46.9753 83.2129 46.8624 83.1662 46.7714C83.1195 46.6804 83.0077 46.645 82.9176 46.6922C82.8275 46.7394 82.7925 46.8523 82.8392 46.9433Z" fill="#C77E2E"/>
<path d="M78.0343 51.8295C78.0626 51.8143 78.0843 51.7857 78.0893 51.752C78.091 51.7452 78.2028 51.0744 78.3997 50.6834C78.4264 50.6311 78.4063 50.5654 78.3529 50.5384C78.3012 50.5115 78.2362 50.5334 78.2095 50.5856C77.9976 51.007 77.8841 51.6879 77.8791 51.7166C77.8691 51.7755 77.9092 51.8295 77.9659 51.8396C77.9909 51.843 78.0143 51.8396 78.0343 51.8295Z" fill="#C77E2E"/>
<path d="M78.725 51.5891C78.7317 51.5857 78.7384 51.5807 78.7451 51.5756C78.7901 51.5369 78.7951 51.4694 78.7584 51.4239C78.7551 51.4206 78.4598 51.0599 78.3897 50.7093C78.378 50.652 78.3213 50.6132 78.2646 50.625C78.2078 50.6368 78.1695 50.6941 78.1811 50.7515C78.2629 51.156 78.5816 51.5436 78.5966 51.5605C78.6266 51.6009 78.6817 51.611 78.725 51.5891Z" fill="#C77E2E"/>
</g>
<defs>
<clipPath id="clip0">
<rect width="76.0582" height="70.5262" fill="white" transform="translate(28.3296 31.5288)"/>
</clipPath>
</defs>
</svg>
