<svg width="12" height="12" viewBox="0 0 12 12" fill="none" xmlns="http://www.w3.org/2000/svg">
<path d="M7.82363 5.99999C7.82363 4.91999 6.95963 4.05599 5.87963 4.05599C4.79963 4.05599 3.93563 4.91999 3.93563 5.99999C3.93563 7.07999 4.79963 7.94399 5.87963 7.94399C6.95963 7.94399 7.82363 7.07999 7.82363 5.99999ZM8.83163 5.99999C8.83163 7.65599 7.53563 8.95199 5.87963 8.95199C4.22363 8.95199 2.92763 7.65599 2.92763 5.99999C2.92763 4.34399 4.22363 3.04799 5.87963 3.04799C7.53563 3.04799 8.83163 4.34399 8.83163 5.99999ZM9.62363 2.90399C9.62363 3.33599 9.33563 3.62399 8.90363 3.62399C8.47163 3.62399 8.18363 3.33599 8.18363 2.90399C8.18363 2.47199 8.47163 2.18399 8.90363 2.18399C9.33563 2.18399 9.62363 2.54399 9.62363 2.90399ZM5.87963 1.24799C5.01563 1.24799 3.21563 1.17599 2.49563 1.46399C1.99163 1.67999 1.55963 2.11199 1.41563 2.61599C1.12763 3.33599 1.19963 5.13599 1.19963 5.99999C1.19963 6.86399 1.12763 8.66399 1.41563 9.38399C1.55963 9.88799 1.99163 10.32 2.49563 10.464C3.21563 10.752 5.08763 10.68 5.87963 10.68C6.67163 10.68 8.54363 10.752 9.26363 10.464C9.76763 10.248 10.1276 9.88799 10.3436 9.38399C10.6316 8.59199 10.5596 6.79199 10.5596 5.99999C10.5596 5.20799 10.6316 3.33599 10.3436 2.61599C10.1996 2.11199 9.76763 1.67999 9.26363 1.53599C8.54363 1.17599 6.74363 1.24799 5.87963 1.24799ZM11.6396 5.99999V8.37599C11.6396 9.23999 11.3516 10.104 10.7036 10.824C10.0556 11.472 9.19163 11.76 8.25563 11.76H3.50363C2.63963 11.76 1.77563 11.472 1.05563 10.824C0.479629 10.176 0.119629 9.31199 0.119629 8.37599V5.99999V3.62399C0.119629 2.68799 0.479629 1.82399 1.05563 1.17599C1.77563 0.59999 2.63963 0.23999 3.50363 0.23999H8.25563C9.11963 0.23999 9.98363 0.52799 10.7036 1.17599C11.2796 1.82399 11.6396 2.68799 11.6396 3.62399V5.99999Z" fill="white"/>
</svg>
