<svg width="12" height="12" viewBox="0 0 12 12" fill="none" xmlns="http://www.w3.org/2000/svg">
<path d="M10.8514 0.598244C10.7069 0.608754 10.5651 0.642645 10.4315 0.698594H10.4297C10.3015 0.749444 9.6917 1.00594 8.7647 1.39474L5.4428 2.79379C3.05915 3.79729 0.716003 4.78549 0.716003 4.78549L0.743903 4.77469C0.743903 4.77469 0.582353 4.82779 0.413603 4.94344C0.309351 5.00978 0.219641 5.09658 0.149903 5.19859C0.0671032 5.32009 0.000503233 5.50594 0.0252532 5.69809C0.0657532 6.02299 0.276353 6.21784 0.427553 6.32539C0.580553 6.43429 0.726353 6.48514 0.726353 6.48514H0.729953L2.9273 7.22539C3.02585 7.54174 3.5969 9.41914 3.73415 9.85159C3.81515 10.1099 3.8939 10.2714 3.99245 10.3947C4.04015 10.4577 4.09595 10.5104 4.163 10.5527C4.19786 10.573 4.23503 10.589 4.2737 10.6004L4.2512 10.595C4.25795 10.5968 4.26335 10.6022 4.2683 10.604C4.2863 10.6089 4.29845 10.6107 4.3214 10.6143C4.66925 10.7196 4.9487 10.5036 4.9487 10.5036L4.96445 10.491L6.2618 9.30979L8.4362 10.9779L8.4857 10.9991C8.93885 11.198 9.39785 11.0873 9.6404 10.892C9.88475 10.6953 9.9797 10.4438 9.9797 10.4438L9.99545 10.4033L11.6758 1.79524C11.7235 1.58284 11.7356 1.38394 11.683 1.19089C11.6286 0.995515 11.5033 0.827477 11.3315 0.719744C11.1872 0.632045 11.02 0.589716 10.8514 0.598244ZM10.8059 1.52074C10.8041 1.54909 10.8095 1.54594 10.7969 1.60039V1.60534L9.13235 10.1238C9.12515 10.136 9.113 10.1625 9.0797 10.1891C9.0446 10.217 9.0167 10.2345 8.87045 10.1765L6.21095 8.13754L4.60445 9.60184L4.94195 7.44634L9.28715 3.39634C9.46625 3.22984 9.4064 3.19474 9.4064 3.19474C9.419 2.99044 9.13595 3.13489 9.13595 3.13489L3.65675 6.52924L3.65495 6.52024L1.02875 5.63599V5.63419L1.022 5.63284C1.02661 5.63131 1.03111 5.62951 1.0355 5.62744L1.0499 5.62024L1.06385 5.61529C1.06385 5.61529 3.4088 4.62709 5.79245 3.62359C6.98585 3.12094 8.18825 2.61469 9.113 2.22409C10.0378 1.83574 10.7213 1.55089 10.76 1.53559C10.7969 1.52119 10.7794 1.52119 10.8059 1.52119V1.52074Z" fill="white"/>
</svg>
