<svg width="12" height="12" viewBox="0 0 12 12" fill="none" xmlns="http://www.w3.org/2000/svg">
<path fill-rule="evenodd" clip-rule="evenodd" d="M9.60166 2.17992C9.10268 1.67765 8.50898 1.27938 7.85498 1.0082C7.20097 0.737024 6.49966 0.598316 5.79166 0.600115C2.82286 0.600115 0.406063 3.01632 0.404863 5.98632C0.404863 6.93552 0.652663 7.86192 1.12366 8.67912L0.359863 11.4697L3.21526 10.7203C4.0051 11.1503 4.88998 11.3757 5.78926 11.3761H5.79166C8.75986 11.3761 11.1767 8.95992 11.1779 5.98992C11.1799 5.28221 11.0417 4.58111 10.7711 3.92715C10.5006 3.27319 10.1031 2.67934 9.60166 2.17992ZM5.79166 10.4671H5.78986C4.98797 10.4672 4.20084 10.2515 3.51106 9.84252L3.34786 9.74532L1.65346 10.1899L2.10526 8.53812L1.99906 8.36892C1.55074 7.65517 1.3134 6.82919 1.31446 5.98632C1.31566 3.51792 3.32386 1.50972 5.79346 1.50972C6.38161 1.50841 6.96418 1.62376 7.50745 1.84911C8.05073 2.07445 8.54391 2.4053 8.95846 2.82252C9.37523 3.23774 9.70558 3.73145 9.9304 4.27512C10.1552 4.81878 10.27 5.40161 10.2683 5.98992C10.2671 8.45832 8.25886 10.4671 5.79166 10.4671ZM8.24746 7.11372C8.11246 7.04592 7.45126 6.72072 7.32766 6.67572C7.20466 6.63072 7.11526 6.60852 7.02526 6.74292C6.93526 6.87732 6.67726 7.18032 6.59866 7.27032C6.52006 7.36032 6.44146 7.37112 6.30706 7.30392C6.17266 7.23672 5.73886 7.09452 5.22466 6.63612C4.82446 6.27912 4.55446 5.83872 4.47586 5.70372C4.39726 5.56872 4.46746 5.49612 4.53526 5.42892C4.59586 5.36892 4.66966 5.27172 4.73686 5.19312C4.80406 5.11452 4.82626 5.05872 4.87126 4.96872C4.91626 4.87872 4.89406 4.80012 4.85986 4.73292C4.82626 4.66512 4.55686 4.00272 4.44466 3.73332C4.33606 3.47232 4.22506 3.50712 4.14226 3.50352C4.05651 3.50001 3.97069 3.49841 3.88486 3.49872C3.81662 3.50046 3.74947 3.51628 3.68762 3.54519C3.62577 3.57409 3.57057 3.61547 3.52546 3.66672C3.40186 3.80172 3.05446 4.12692 3.05446 4.78932C3.05446 5.45172 3.53686 6.09192 3.60406 6.18192C3.67126 6.27192 4.55326 7.63092 5.90326 8.21412C6.22486 8.35272 6.47566 8.43552 6.67066 8.49792C6.99286 8.60052 7.28626 8.58552 7.51846 8.55132C7.77706 8.51292 8.31466 8.22612 8.42686 7.91172C8.53906 7.59732 8.53906 7.32792 8.50546 7.27152C8.47186 7.21512 8.38126 7.18092 8.24746 7.11372Z" fill="white"/>
</svg>
